<?xml version="1.0" standalone="no"?>
<!DOCTYPE svg PUBLIC "-//W3C//DTD SVG 1.1//EN" "http://www.w3.org/Graphics/SVG/1.1/DTD/svg11.dtd" >
<svg xmlns="http://www.w3.org/2000/svg" xmlns:xlink="http://www.w3.org/1999/xlink" version="1.1">
<metadata>
Created by FontForge 20160407 at Fri May 13 09:35:45 2016
 By Jimmy Wärting
Copyright (c) 2013 by Josep Patau Bellart. All rights reserved.
</metadata>
<defs>
<font id="CintaLight" horiz-adv-x="508" >
  <font-face 
    font-family="Cinta Light"
    font-weight="300"
    font-stretch="normal"
    units-per-em="1000"
    panose-1="2 0 0 0 0 0 0 0 0 0"
    ascent="800"
    descent="-200"
    x-height="452"
    cap-height="616"
    bbox="-161 -285 1042 847"
    underline-thickness="50"
    underline-position="-100"
    stemh="47"
    stemv="57"
    unicode-range="U+0020-FB06"
  />
<missing-glyph horiz-adv-x="533" 
d="M67 1v699h399v-699h-399zM107 41h319v619h-319v-619z" />
    <glyph glyph-name="fi" unicode="fi" horiz-adv-x="512" 
d="M47 403v35l61 11v28c0 113 29 186 175 186v-45c-102 0 -120 -54 -120 -139v-29h261v-450h-56v403h-205v-403h-55v403h-61zM352 599c0 25 20 44 44 44s44 -19 44 -44c0 -24 -20 -43 -44 -43s-44 19 -44 43z" />
    <glyph glyph-name="fl" unicode="fl" horiz-adv-x="515" 
d="M47 403v35l61 11v28c0 113 29 186 178 186h138v-663h-56v618h-82c-105 0 -123 -54 -123 -139v-29h105v-47h-105v-403h-55v403h-61z" />
    <glyph glyph-name="f_f" unicode="ff" horiz-adv-x="563" 
d="M47 403v35l61 11v9c0 105 29 175 176 175v-45c-103 0 -121 -50 -121 -129v-9h206v27c0 113 30 186 178 186v-45c-104 0 -123 -54 -123 -139v-29h107v-47h-107v-403h-55v403h-206v-403h-55v403h-61z" />
    <glyph glyph-name="f_f_i" unicode="ffi" horiz-adv-x="773" 
d="M47 403v35l61 11v9c0 105 29 175 176 175v-45c-103 0 -121 -50 -121 -129v-9h206v27c0 113 29 186 176 186v-45c-103 0 -120 -54 -120 -139v-29h260v-450h-55v403h-205v-403h-56v403h-206v-403h-55v403h-61zM614 599c0 25 19 44 43 44s44 -19 44 -44
c0 -24 -20 -43 -44 -43s-43 19 -43 43z" />
    <glyph glyph-name="f_f_l" unicode="ffl" horiz-adv-x="776" 
d="M47 403v35l61 11v9c0 105 29 175 176 175v-45c-103 0 -121 -50 -121 -129v-9h206v27c0 113 30 186 178 186h138v-663h-55v618h-83c-104 0 -123 -54 -123 -139v-29h105v-47h-105v-403h-55v403h-206v-403h-55v403h-61z" />
    <glyph glyph-name=".notdef" horiz-adv-x="533" 
d="M67 1v699h399v-699h-399zM107 41h319v619h-319v-619z" />
    <glyph glyph-name="Eth" unicode="&#xd0;" horiz-adv-x="648" 
d="M43 292v49h66v275h163c176 0 310 -101 310 -316c0 -206 -134 -300 -310 -300h-163v292h-66zM166 567v-226h179v-49h-179v-243h101c141 0 254 75 254 251c0 187 -113 267 -254 267h-101z" />
    <glyph glyph-name="eth" unicode="&#xf0;" horiz-adv-x="528" 
d="M229 522l-23 25l76 77c-19 12 -40 19 -63 19c-40 0 -80 -7 -123 -26l-18 38c50 23 93 35 140 35c37 0 70 -11 99 -31l59 59l23 -24l-55 -56c76 -70 119 -203 119 -338c0 -154 -40 -317 -201 -317c-112 0 -203 89 -203 249c0 141 81 235 196 235c65 0 110 -34 144 -74
c-14 87 -45 165 -90 210zM406 295c0 8 0 17 -1 25c-33 49 -79 100 -150 100c-81 0 -139 -75 -139 -188c0 -132 67 -202 146 -202c116 0 144 135 144 265z" />
    <glyph glyph-name="Lslash" unicode="&#x141;" horiz-adv-x="487" 
d="M42 217v57l262 192v-56zM454 49v-49h-344v616h57v-567h287z" />
    <glyph glyph-name="L" unicode="L" horiz-adv-x="480" 
d="M447 49v-49h-344v616h57v-567h287z" />
    <glyph glyph-name="lslash" unicode="&#x142;" horiz-adv-x="276" 
d="M247 463v-56l-213 -160v57zM112 651l56 11v-662h-56v651z" />
    <glyph glyph-name="l" unicode="l" horiz-adv-x="238" 
d="M91 651l56 11v-662h-56v651z" />
    <glyph glyph-name="Scaron" unicode="&#x160;" horiz-adv-x="500" 
d="M53 45l20 47c49 -33 111 -58 169 -58c75 0 135 35 135 116c0 153 -300 142 -300 329c0 57 40 151 189 151c64 0 105 -13 160 -42l-16 -48c-53 29 -98 41 -146 41c-104 0 -128 -64 -128 -101c0 -145 303 -137 303 -330c0 -113 -92 -165 -201 -165c-66 0 -126 24 -185 60z
M251 664l-114 117l30 35l101 -99l94 99l30 -34l-111 -118h-30z" />
    <glyph glyph-name="S" unicode="S" horiz-adv-x="500" 
d="M53 45l20 47c49 -33 111 -58 169 -58c75 0 135 35 135 116c0 153 -300 142 -300 329c0 57 40 151 189 151c64 0 105 -13 160 -42l-16 -48c-53 29 -98 41 -146 41c-104 0 -128 -64 -128 -101c0 -145 303 -137 303 -330c0 -113 -92 -165 -201 -165c-66 0 -126 24 -185 60z
" />
    <glyph glyph-name="caron.case" horiz-adv-x="329" 
d="M145 657l-114 117l30 35l101 -99l94 99l30 -34l-111 -118h-30z" />
    <glyph glyph-name="scaron" unicode="&#x161;" horiz-adv-x="430" 
d="M211 517l-114 143l33 30l98 -122l93 121l33 -28l-113 -144h-30zM357 436l-11 -43c-44 19 -86 27 -119 27c-45 0 -94 -12 -94 -63c0 -97 245 -114 245 -250c0 -77 -76 -122 -168 -122c-67 0 -114 21 -163 55l15 46c45 -35 87 -54 145 -54c61 0 113 26 113 71
c0 102 -245 111 -245 250c0 84 72 112 142 112c57 0 91 -11 140 -29z" />
    <glyph glyph-name="caron" unicode="&#x2c7;" horiz-adv-x="329" 
d="M149 517l-114 143l33 30l98 -122l93 121l33 -28l-113 -144h-30z" />
    <glyph glyph-name="s" unicode="s" horiz-adv-x="430" 
d="M357 436l-11 -43c-44 19 -86 27 -119 27c-45 0 -94 -12 -94 -63c0 -97 245 -114 245 -250c0 -77 -76 -122 -168 -122c-67 0 -114 21 -163 55l15 46c45 -35 87 -54 145 -54c61 0 113 26 113 71c0 102 -245 111 -245 250c0 84 72 112 142 112c57 0 91 -11 140 -29z" />
    <glyph glyph-name="Yacute" unicode="&#xdd;" horiz-adv-x="507" 
d="M283 251v-251h-58v254l-188 362h66l153 -303l151 303h62zM205 674l-23 46l176 90l23 -50z" />
    <glyph glyph-name="Y" unicode="Y" horiz-adv-x="507" 
d="M283 251v-251h-58v254l-188 362h66l153 -303l151 303h62z" />
    <glyph glyph-name="acute.case" horiz-adv-x="235" 
d="M41 674l-23 46l176 90l23 -50z" />
    <glyph glyph-name="yacute" unicode="&#xfd;" horiz-adv-x="471" 
d="M38 452h57l137 -382l148 382h53l-166 -433c-47 -114 -60 -208 -216 -208v45c105 0 119 62 152 144zM204 516l-33 36l144 137l35 -40z" />
    <glyph glyph-name="y" unicode="y" horiz-adv-x="471" 
d="M38 452h57l137 -382l148 382h53l-166 -433c-47 -114 -60 -208 -216 -208v45c105 0 119 62 152 144z" />
    <glyph glyph-name="acute" unicode="&#xb4;" horiz-adv-x="235" 
d="M77 517l-33 36l144 137l35 -40z" />
    <glyph glyph-name="Thorn" unicode="&#xde;" horiz-adv-x="505" 
d="M103 616h57v-113h67c167 0 226 -75 226 -183c0 -107 -71 -189 -200 -189h-93v-131h-57v616zM228 454h-68v-274h91c92 0 142 60 142 135c0 78 -42 139 -165 139z" />
    <glyph glyph-name="thorn" unicode="&#xfe;" horiz-adv-x="513" 
d="M88 651l56 11v-261c38 40 86 64 141 64c112 0 168 -102 168 -227c0 -137 -60 -253 -192 -253c-46 0 -85 16 -117 41v-215h-56v840zM277 418c-57 0 -96 -25 -133 -71v-269c28 -29 66 -46 114 -46c98 0 137 97 137 209c0 99 -39 177 -118 177z" />
    <glyph glyph-name="Zcaron" unicode="&#x17d;" horiz-adv-x="501" 
d="M380 567h-311v49h372v-49l-330 -518h335v-49h-397v49zM243 682l-114 117l30 35l101 -99l94 99l30 -34l-111 -118h-30z" />
    <glyph glyph-name="Z" unicode="Z" horiz-adv-x="501" 
d="M380 567h-311v49h372v-49l-330 -518h335v-49h-397v49z" />
    <glyph glyph-name="zcaron" unicode="&#x17e;" horiz-adv-x="430" 
d="M207 516l-114 143l33 30l98 -122l93 121l33 -28l-113 -144h-30zM366 405l-258 -358h270v-47h-326v47l256 358h-245v47h303v-47z" />
    <glyph glyph-name="z" unicode="z" horiz-adv-x="430" 
d="M366 405l-258 -358h270v-47h-326v47l256 358h-245v47h303v-47z" />
    <glyph glyph-name="brokenbar" unicode="&#xa6;" horiz-adv-x="252" 
d="M97 -189v407h57v-407h-57zM97 282v404h57v-404h-57z" />
    <glyph glyph-name="minus" unicode="&#x2212;" horiz-adv-x="519" 
d="M86 293v47h347v-47h-347z" />
    <glyph glyph-name="multiply" unicode="&#xd7;" horiz-adv-x="481" 
d="M110 71l-33 33l130 130l-131 132l33 33l131 -132l132 132l33 -33l-132 -132l131 -130l-33 -33l-131 130z" />
    <glyph glyph-name="space" unicode=" " horiz-adv-x="260" 
 />
    <glyph glyph-name="exclam" unicode="!" horiz-adv-x="256" 
d="M98 626h60l-6 -451h-48zM85 29c0 24 20 43 44 43s44 -19 44 -43s-20 -44 -44 -44s-44 19 -44 44z" />
    <glyph glyph-name="quotedbl" unicode="&#x22;" horiz-adv-x="371" 
d="M137 369h-53l-1 247h56zM287 369h-53l-2 247h56z" />
    <glyph glyph-name="numbersign" unicode="#" horiz-adv-x="628" 
d="M551 227l-9 -49h-111l-23 -178h-57l23 178h-159l-23 -178h-57l23 178h-104l8 49h102l21 164h-108l9 49h105l23 176h58l-23 -176h158l23 176h57l-23 -176h110l-8 -49h-108l-21 -164h114zM243 391l-22 -164h159l21 164h-158z" />
    <glyph glyph-name="dollar" unicode="$" horiz-adv-x="465" 
d="M250 731h32l-7 -102c46 -3 80 -16 122 -41l-17 -48c-39 24 -73 36 -109 40l-16 -238c73 -43 152 -88 152 -190c0 -110 -80 -162 -176 -166l-7 -100h-32l7 100c-53 4 -105 28 -151 59l20 47c39 -29 87 -52 134 -57l18 261c-71 41 -145 84 -145 182c0 55 36 147 168 152z
M347 151c0 61 -44 95 -96 127l-17 -244c63 4 113 39 113 117zM133 480c0 -56 41 -89 92 -120l15 221c-87 -4 -107 -65 -107 -101z" />
    <glyph glyph-name="percent" unicode="%" horiz-adv-x="754" 
d="M161 -1l392 647l42 -26l-391 -649zM176 297c-74 0 -126 65 -126 167c0 101 51 167 126 167s126 -66 126 -167c0 -102 -51 -167 -126 -167zM176 340c44 0 74 48 74 124s-30 124 -74 124s-74 -48 -74 -124s30 -124 74 -124zM578 -15c-74 0 -126 64 -126 167
c0 101 52 167 126 167c75 0 127 -66 127 -167c0 -102 -52 -167 -127 -167zM578 28c44 0 75 48 75 124s-31 124 -75 124c-43 0 -74 -48 -74 -124s31 -124 74 -124z" />
    <glyph glyph-name="ampersand" unicode="&#x26;" horiz-adv-x="686" 
d="M580 353h62l-194 -233l7 -9c33 -49 69 -79 95 -79s52 12 72 31l21 -34c-28 -25 -56 -44 -104 -44c-33 0 -84 35 -124 95c-40 -45 -97 -97 -165 -97c-95 0 -175 76 -175 174s79 155 155 198c-35 53 -67 104 -67 144c0 73 52 132 131 132c80 0 126 -61 128 -120
c3 -77 -56 -132 -122 -171l120 -177zM250 30c50 0 97 46 136 93l-130 192c-63 -36 -129 -81 -129 -157c0 -73 58 -128 123 -128zM215 500c0 -33 29 -77 58 -120c50 31 98 76 97 128c-2 37 -29 77 -77 77c-46 0 -78 -38 -78 -85z" />
    <glyph glyph-name="quotesingle" unicode="'" horiz-adv-x="222" 
d="M137 369h-53l-1 247h56z" />
    <glyph glyph-name="parenleft" unicode="(" horiz-adv-x="309" 
d="M267 -135l-39 -27c-99 118 -170 240 -170 425c0 182 79 321 175 435l37 -27c-88 -107 -156 -238 -156 -408c0 -168 65 -290 153 -398z" />
    <glyph glyph-name="parenright" unicode=")" horiz-adv-x="309" 
d="M80 -162l-38 27c88 108 153 230 153 398c0 170 -68 301 -157 408l38 27c96 -114 175 -252 175 -435c0 -187 -75 -312 -171 -425z" />
    <glyph glyph-name="asterisk" unicode="*" horiz-adv-x="516" 
d="M71 561l24 41l138 -78v161h47v-162l141 84l24 -39l-142 -84l145 -82l-24 -41l-144 81v-163h-47v163l-139 -82l-24 39l140 83z" />
    <glyph glyph-name="plus" unicode="+" horiz-adv-x="554" 
d="M57 209v47h196v194h48v-194h196v-47h-196v-209h-48v209h-196z" />
    <glyph glyph-name="comma" unicode="," horiz-adv-x="273" 
d="M103 -128l-22 27c36 28 52 50 59 85h-2c-27 0 -49 22 -49 49c0 28 22 50 49 50c33 0 49 -27 49 -67c0 -58 -32 -108 -84 -144z" />
    <glyph glyph-name="hyphen" unicode="-" horiz-adv-x="347" 
d="M80 214v48h188v-48h-188z" />
    <glyph glyph-name="period" unicode="." horiz-adv-x="251" 
d="M77 34c0 27 22 49 49 49s49 -22 49 -49s-22 -49 -49 -49s-49 22 -49 49z" />
    <glyph glyph-name="slash" unicode="/" horiz-adv-x="468" 
d="M26 -189l362 874h56l-363 -874h-55z" />
    <glyph glyph-name="zero" unicode="0" horiz-adv-x="550" 
d="M273 32c112 0 146 117 146 276c0 153 -36 276 -146 276c-107 0 -141 -123 -141 -276c0 -158 34 -276 141 -276zM273 -15c-150 0 -197 137 -197 323c0 179 47 323 197 323c153 0 203 -144 203 -323c0 -186 -50 -323 -203 -323z" />
    <glyph glyph-name="one" unicode="1" horiz-adv-x="401" 
d="M80 456l-31 37l143 124l1 -1h55v-569h113v-47h-284v47h115v505z" />
    <glyph glyph-name="two" unicode="2" horiz-adv-x="516" 
d="M102 519l-29 34c46 48 97 78 180 78c140 0 184 -104 182 -166c-4 -188 -314 -246 -323 -418h344v-47h-396v34c0 213 315 265 318 430c0 45 -27 120 -131 120c-65 0 -106 -21 -145 -65z" />
    <glyph glyph-name="three" unicode="3" 
d="M105 546l-24 35c32 28 78 52 159 52c145 0 173 -94 173 -151c0 -52 -25 -118 -96 -153c80 -33 123 -98 123 -161c1 -66 -36 -181 -206 -181c-83 0 -130 24 -185 70l27 36c44 -37 82 -59 154 -59c124 0 155 85 154 135c0 66 -61 132 -180 136h-9h-15v47h15
c125 0 161 73 161 129c0 40 -19 105 -118 105c-59 0 -105 -16 -133 -40z" />
    <glyph glyph-name="four" unicode="4" horiz-adv-x="541" 
d="M334 616h55v-403h103v-46h-103v-167h-55v167h-291v46zM101 213h233v323z" />
    <glyph glyph-name="five" unicode="5" 
d="M126 307h-37l33 309h310v-47h-264l-23 -208c36 20 73 32 118 32c112 0 175 -89 175 -193c0 -139 -81 -215 -195 -215c-73 0 -134 18 -187 73l28 39c45 -48 96 -65 155 -65c82 0 143 59 143 169c0 78 -47 145 -125 145c-42 0 -76 -9 -131 -39z" />
    <glyph glyph-name="six" unicode="6" horiz-adv-x="527" 
d="M448 600l-18 -42c-27 13 -66 26 -108 26c-93 0 -178 -88 -193 -255c43 36 98 62 157 62c98 0 176 -59 176 -192c0 -131 -83 -214 -192 -214c-122 0 -200 125 -200 290c0 231 121 356 252 356c53 0 97 -16 126 -31zM286 344c-58 0 -118 -29 -159 -68v-1
c0 -139 57 -243 143 -243c77 0 135 63 135 166c0 102 -53 146 -119 146z" />
    <glyph glyph-name="seven" unicode="7" horiz-adv-x="463" 
d="M160 0h-64l277 569h-328v47h388v-30z" />
    <glyph glyph-name="eight" unicode="8" horiz-adv-x="513" 
d="M258 -15c-103 0 -192 55 -192 151c0 89 63 146 139 186c-66 51 -101 99 -101 162c0 95 75 147 160 147c90 0 158 -53 158 -143c0 -87 -64 -132 -124 -171c88 -61 148 -114 148 -194c0 -79 -80 -138 -188 -138zM390 128c0 62 -58 105 -139 162c-79 -38 -128 -93 -128 -153
c0 -67 64 -105 134 -105c76 0 133 42 133 96zM161 483c0 -51 32 -90 92 -134c53 32 112 70 112 138c0 52 -34 97 -100 97c-61 0 -104 -40 -104 -101z" />
    <glyph glyph-name="nine" unicode="9" horiz-adv-x="527" 
d="M79 16l18 43c27 -14 66 -27 108 -27c92 0 178 89 193 256c-44 -36 -99 -62 -157 -62c-98 0 -176 58 -176 191c0 132 83 214 192 214c121 0 200 -122 200 -290c0 -231 -121 -356 -252 -356c-53 0 -97 16 -126 31zM241 272c57 0 117 28 159 68v1c0 140 -57 243 -143 243
c-77 0 -135 -62 -135 -166c0 -101 53 -146 119 -146z" />
    <glyph glyph-name="colon" unicode=":" horiz-adv-x="257" 
d="M80 34c0 27 22 49 49 49c26 0 48 -22 48 -49s-22 -49 -48 -49c-27 0 -49 22 -49 49zM80 417c0 27 22 49 49 49c26 0 48 -22 48 -49s-22 -49 -48 -49c-28 0 -49 22 -49 49z" />
    <glyph glyph-name="semicolon" unicode=";" horiz-adv-x="275" 
d="M105 -128l-22 27c37 28 53 50 59 85h-2c-27 0 -49 22 -49 49c0 28 22 50 49 50c33 0 50 -27 50 -67c-1 -58 -33 -108 -85 -144zM91 417c0 27 22 49 49 49s49 -22 49 -49s-22 -49 -49 -49s-49 22 -49 49z" />
    <glyph glyph-name="less" unicode="&#x3c;" horiz-adv-x="461" 
d="M377 102v-53l-320 155v38l320 156v-53l-252 -122z" />
    <glyph glyph-name="equal" unicode="=" horiz-adv-x="576" 
d="M86 114v47h405v-47h-405zM86 298v47h405v-47h-405z" />
    <glyph glyph-name="greater" unicode="&#x3e;" horiz-adv-x="461" 
d="M84 49v53l251 121l-251 122v53l320 -156v-38z" />
    <glyph glyph-name="question" unicode="?" horiz-adv-x="424" 
d="M75 514l-34 32c40 50 97 85 167 85c113 0 170 -80 170 -158c0 -145 -168 -131 -168 -343h-52c0 217 163 234 163 341c0 56 -37 113 -116 113c-53 0 -97 -28 -130 -70zM136 32c0 26 21 48 47 48s48 -22 48 -48s-22 -47 -48 -47s-47 21 -47 47z" />
    <glyph glyph-name="at" unicode="@" horiz-adv-x="847" 
d="M531 447l55 -6l-55 -339c111 7 195 101 195 220c0 128 -104 221 -261 221c-178 0 -352 -137 -352 -354c0 -163 107 -261 247 -261c69 0 151 15 216 67l18 -29c-73 -60 -156 -79 -234 -79c-172 0 -295 118 -295 302c0 242 198 395 400 395c186 0 310 -110 310 -262
c0 -142 -107 -254 -256 -257h-50l19 121c-55 -66 -124 -129 -165 -129c-64 0 -84 56 -84 122c0 122 107 261 196 271l89 -43zM337 106c35 0 115 82 163 151l17 104l-90 44c-55 -11 -131 -127 -131 -223c-1 -41 10 -76 41 -76z" />
    <glyph glyph-name="A" unicode="A" horiz-adv-x="586" 
d="M39 0l221 616h61l230 -616h-55l-75 201h-255l-72 -201h-55zM290 545l-107 -295h219z" />
    <glyph glyph-name="B" unicode="B" horiz-adv-x="557" 
d="M103 616h175c123 0 171 -58 171 -138c0 -58 -21 -111 -64 -143c77 -27 110 -85 110 -158c0 -100 -71 -177 -200 -177h-192v616zM435 174c0 69 -40 125 -152 128h-9h-114v-253h134c90 0 141 56 141 125zM281 567h-121v-216h113c84 0 116 54 116 120c0 54 -29 96 -108 96z
" />
    <glyph glyph-name="C" unicode="C" horiz-adv-x="604" 
d="M557 571l-24 -44c-42 31 -94 55 -180 55c-148 0 -227 -127 -227 -277s76 -271 222 -271c85 0 140 21 179 55l25 -43c-44 -37 -112 -61 -205 -61c-187 0 -282 144 -282 320c0 177 100 326 287 326c93 0 161 -24 205 -60z" />
    <glyph glyph-name="D" unicode="D" horiz-adv-x="642" 
d="M160 567v-518h101c141 0 254 75 254 251c0 187 -113 267 -254 267h-101zM103 0v616h163c176 0 310 -101 310 -316c0 -206 -134 -300 -310 -300h-163z" />
    <glyph glyph-name="E" unicode="E" horiz-adv-x="517" 
d="M449 616v-49h-289v-221h225v-49h-225v-248h306v-49h-363v616h346z" />
    <glyph glyph-name="F" unicode="F" horiz-adv-x="493" 
d="M449 616v-49h-289v-221h225v-49h-225v-297h-57v616h346z" />
    <glyph glyph-name="G" unicode="G" horiz-adv-x="633" 
d="M499 298h58v-245c-42 -42 -105 -68 -193 -68c-193 0 -300 140 -300 320c0 177 101 326 290 326c93 0 160 -24 204 -60l-25 -44c-41 31 -93 55 -179 55c-149 0 -229 -127 -229 -277s84 -271 241 -271c58 0 100 13 133 35v229z" />
    <glyph glyph-name="H" unicode="H" horiz-adv-x="652" 
d="M492 616h58v-616h-58v301h-332v-301h-57v616h57v-266h332v266z" />
    <glyph glyph-name="I" unicode="I" horiz-adv-x="263" 
d="M103 616h57v-616h-57v616z" />
    <glyph glyph-name="J" unicode="J" horiz-adv-x="263" 
d="M103 616h57v-566c0 -144 -30 -199 -177 -238l-14 47c110 31 134 72 134 190v567z" />
    <glyph glyph-name="K" unicode="K" horiz-adv-x="546" 
d="M515 0h-69l-208 285h-79v-285h-56v616h56v-283h73l203 283h63l-213 -303z" />
    <glyph glyph-name="M" unicode="M" horiz-adv-x="779" 
d="M614 616h60l5 -616h-58l-4 503l-208 -503h-39l-208 500l-4 -500h-58l5 616h61l224 -540z" />
    <glyph glyph-name="N" unicode="N" horiz-adv-x="655" 
d="M495 616h57v-616h-57l-335 524v-524h-57v616h57l335 -527v527z" />
    <glyph glyph-name="O" unicode="O" horiz-adv-x="677" 
d="M350 34c126 0 202 120 202 271c0 158 -76 277 -208 277c-140 0 -218 -115 -218 -266c0 -160 81 -282 224 -282zM350 -15c-183 0 -285 139 -285 331c0 178 102 315 279 315c170 0 268 -141 268 -326c0 -182 -96 -320 -262 -320z" />
    <glyph glyph-name="P" unicode="P" horiz-adv-x="506" 
d="M103 616h124c167 0 226 -75 226 -183c0 -107 -71 -189 -200 -189h-93v-244h-57v616zM228 567h-68v-274h91c92 0 142 60 142 135c0 78 -42 139 -165 139z" />
    <glyph glyph-name="Q" unicode="Q" horiz-adv-x="677" 
d="M612 305c0 -154 -68 -276 -189 -310c120 -68 230 -122 354 -64l10 -45c-163 -81 -297 13 -449 100c-175 6 -273 139 -273 330c0 178 102 315 279 315c170 0 268 -141 268 -326zM350 34c126 0 202 120 202 271c0 158 -76 277 -208 277c-140 0 -218 -115 -218 -266
c0 -160 81 -282 224 -282z" />
    <glyph glyph-name="R" unicode="R" horiz-adv-x="540" 
d="M495 0h-66l-163 261h-106v-261h-57v616h142c152 0 211 -72 211 -171c0 -85 -46 -153 -132 -176zM246 567h-86v-257h94c91 0 142 57 142 130c0 70 -35 127 -150 127z" />
    <glyph glyph-name="T" unicode="T" horiz-adv-x="514" 
d="M481 616v-49h-195v-567h-57v567h-196v49h448z" />
    <glyph glyph-name="U" unicode="U" horiz-adv-x="633" 
d="M97 616h57v-420c0 -90 32 -162 162 -162c131 0 163 72 163 162v420h58v-424c0 -105 -44 -207 -221 -207c-175 0 -219 102 -219 207v424z" />
    <glyph glyph-name="V" unicode="V" horiz-adv-x="582" 
d="M321 0h-62l-221 616h58l195 -556l197 556h57z" />
    <glyph glyph-name="W" unicode="W" horiz-adv-x="920" 
d="M297 0h-62l-194 616h58l169 -544l166 542v2h51l169 -543l167 543h57l-191 -616h-63l-165 519z" />
    <glyph glyph-name="X" unicode="X" horiz-adv-x="528" 
d="M95 0h-59l198 315l-187 301h62l156 -252l158 252h59l-188 -299l196 -317h-60l-167 268z" />
    <glyph glyph-name="bracketleft" unicode="[" horiz-adv-x="320" 
d="M96 -140v801h173v-46h-119v-708h119v-47h-173z" />
    <glyph glyph-name="backslash" unicode="\" horiz-adv-x="471" 
d="M387 -189l-363 874h59l362 -874h-58z" />
    <glyph glyph-name="bracketright" unicode="]" horiz-adv-x="320" 
d="M51 661h172v-801h-172v47h119v708h-119v46z" />
    <glyph glyph-name="asciicircum" unicode="^" horiz-adv-x="505" 
d="M225 616h49l183 -386l-49 -18l-158 335l-152 -334l-49 18z" />
    <glyph glyph-name="underscore" unicode="_" horiz-adv-x="654" 
d="M79 -121v44h496v-44h-496z" />
    <glyph glyph-name="grave" unicode="`" horiz-adv-x="235" 
d="M179 551l-33 -36l-147 133l35 41z" />
    <glyph glyph-name="a" unicode="a" horiz-adv-x="455" 
d="M328 0l-9 58c-53 -46 -97 -73 -157 -73c-62 0 -111 33 -111 100c0 100 114 130 266 167v52c0 84 -49 113 -103 113c-44 0 -89 -17 -122 -39l-17 38c39 27 86 49 146 49c82 0 151 -41 151 -158v-307h-44zM172 34c50 0 90 25 145 67v110c-126 -35 -209 -52 -209 -121
c0 -38 29 -56 64 -56z" />
    <glyph glyph-name="b" unicode="b" horiz-adv-x="513" 
d="M88 651l55 11v-262c38 41 87 65 142 65c112 0 168 -102 168 -227c0 -137 -60 -253 -192 -253c-45 0 -84 15 -119 42l-18 -27h-36v651zM277 418c-57 0 -97 -25 -134 -72v-267c28 -30 66 -47 115 -47c98 0 137 97 137 209c0 99 -39 177 -118 177z" />
    <glyph glyph-name="c" unicode="c" horiz-adv-x="469" 
d="M59 225c0 146 89 240 216 240c70 0 118 -20 147 -51l-23 -40c-30 26 -66 44 -121 44c-107 0 -161 -89 -161 -192c0 -104 52 -194 156 -194c59 0 94 16 123 42l22 -37c-30 -31 -77 -52 -148 -52c-138 0 -211 111 -211 240z" />
    <glyph glyph-name="d" unicode="d" horiz-adv-x="513" 
d="M370 652l55 10v-662h-40l-10 56c-39 -44 -90 -71 -147 -71c-111 0 -168 103 -168 227c0 138 59 253 192 253c42 0 84 -16 118 -41v228zM236 32c58 0 97 25 134 73v267c-29 29 -67 46 -114 46c-99 0 -137 -97 -137 -209c0 -99 38 -177 117 -177z" />
    <glyph glyph-name="e" unicode="e" horiz-adv-x="502" 
d="M441 228h-324c0 -107 49 -196 151 -196c65 0 103 27 140 77l32 -28c-34 -57 -95 -96 -177 -96c-132 0 -204 109 -204 240c0 132 70 240 196 240c115 0 187 -105 187 -213c0 -8 0 -17 -1 -24zM252 418c-77 0 -121 -62 -132 -144h266c-10 84 -60 144 -134 144z" />
    <glyph glyph-name="f" unicode="f" horiz-adv-x="302" 
d="M47 403v35l61 11v28c0 113 29 186 178 186v-45c-105 0 -123 -54 -123 -139v-29h106v-47h-106v-403h-55v403h-61z" />
    <glyph glyph-name="g" unicode="g" horiz-adv-x="492" 
d="M67 312c0 97 74 154 165 154c57 0 106 -22 136 -60l93 62v-60l-74 -34c7 -19 12 -39 12 -62c0 -96 -74 -153 -167 -153c-18 0 -36 2 -52 6c-20 -18 -36 -37 -36 -59c0 -26 11 -47 54 -47h152c62 0 105 -32 105 -88c0 -92 -113 -159 -249 -159c-104 0 -174 31 -174 104
c0 49 42 87 85 113c-22 14 -29 36 -29 60c0 39 23 64 55 91c-46 25 -76 70 -76 132zM190 14c-12 0 -22 0 -31 2c-36 -21 -73 -54 -73 -92c0 -45 42 -66 118 -66c105 0 194 44 194 104c0 32 -21 52 -66 52h-142zM122 312c0 -85 69 -110 111 -110c63 0 111 42 111 110
s-48 111 -111 111s-111 -43 -111 -111z" />
    <glyph glyph-name="h" unicode="h" 
d="M424 0h-55v339c0 59 -36 79 -74 79c-57 0 -112 -31 -152 -78v-340h-55v651l55 11v-268c43 43 94 71 158 71c65 0 123 -29 123 -122v-343z" />
    <glyph glyph-name="i" unicode="i" horiz-adv-x="231" 
d="M143 0h-55v449l55 12v-461zM72 601c0 25 20 44 44 44s44 -19 44 -44c0 -24 -20 -43 -44 -43s-44 19 -44 43z" />
    <glyph glyph-name="j" unicode="j" horiz-adv-x="231" 
d="M87 449l56 12v-411c0 -144 -29 -199 -175 -238l-13 45c110 30 132 74 132 192v400zM72 601c0 25 20 44 44 44s44 -19 44 -44c0 -24 -20 -43 -44 -43s-44 19 -44 43z" />
    <glyph glyph-name="k" unicode="k" horiz-adv-x="465" 
d="M437 0h-67l-154 234h-73v-234h-55v651l55 11v-381h69l139 171h67l-156 -191h2z" />
    <glyph glyph-name="m" unicode="m" horiz-adv-x="789" 
d="M143 0h-55v450l41 9l10 -69c43 46 96 75 162 75c53 0 101 -19 117 -77c44 47 97 77 164 77c65 0 123 -29 123 -122v-343h-55v339c0 59 -37 79 -75 79c-57 0 -112 -31 -151 -78v-340h-55v339c0 59 -37 79 -74 79c-58 0 -113 -31 -152 -78v-340z" />
    <glyph glyph-name="n" unicode="n" 
d="M143 0h-55v450l41 9l10 -69c43 46 96 75 162 75c65 0 123 -29 123 -122v-343h-55v339c0 59 -37 79 -74 79c-58 0 -113 -31 -152 -78v-340z" />
    <glyph glyph-name="o" unicode="o" horiz-adv-x="526" 
d="M59 225c0 132 71 240 203 240c134 0 205 -108 205 -240c0 -129 -71 -240 -204 -240c-134 0 -204 110 -204 240zM118 225c0 -104 48 -193 145 -193s145 89 145 193c0 107 -48 193 -145 193s-145 -86 -145 -193z" />
    <glyph glyph-name="p" unicode="p" horiz-adv-x="513" 
d="M143 -189h-55v640l41 7l9 -62c39 44 91 71 148 71c110 0 167 -103 167 -227c0 -138 -59 -254 -192 -254c-43 0 -85 16 -118 41v-216zM277 420c-59 0 -97 -26 -134 -75v-265c28 -29 67 -47 115 -47c98 0 137 98 137 210c0 99 -39 177 -118 177z" />
    <glyph glyph-name="q" unicode="q" horiz-adv-x="513" 
d="M425 -189h-55v238c-39 -40 -87 -64 -142 -64c-112 0 -168 103 -168 227c0 137 60 253 192 253c44 0 87 -18 121 -45l20 39h32v-648zM236 32c57 0 96 25 134 72v267c-28 29 -67 47 -114 47c-99 0 -137 -97 -137 -209c0 -98 38 -177 117 -177z" />
    <glyph glyph-name="r" unicode="r" horiz-adv-x="354" 
d="M143 0h-55v449l44 9l8 -86c41 58 88 93 149 93c14 0 25 0 39 -6l1 -51c-14 5 -26 8 -41 8c-56 0 -106 -35 -145 -94v-322z" />
    <glyph glyph-name="t" unicode="t" horiz-adv-x="323" 
d="M45 405v37l61 9l16 141h39v-140h106v-47h-106v-286c0 -53 15 -87 59 -87c22 0 38 6 69 21v-43c-33 -21 -65 -25 -88 -25c-73 0 -96 67 -96 131v289h-60z" />
    <glyph glyph-name="u" unicode="u" 
d="M364 452h56v-452h-41l-9 63c-44 -47 -97 -76 -163 -76c-65 0 -124 29 -124 122v342l56 10v-348c0 -59 36 -78 74 -78c56 0 110 29 151 76v341z" />
    <glyph glyph-name="v" unicode="v" horiz-adv-x="471" 
d="M260 0h-60l-162 452h57l137 -391l147 391h54z" />
    <glyph glyph-name="w" unicode="w" horiz-adv-x="691" 
d="M239 0h-60l-137 452h56l113 -387l111 387h50l104 -389l120 389h54l-144 -452h-61l-100 374z" />
    <glyph glyph-name="x" unicode="x" horiz-adv-x="453" 
d="M88 0h-58l167 232l-145 220h59l117 -177l128 177h60l-160 -220l155 -232h-60l-126 189z" />
    <glyph glyph-name="braceleft" unicode="{" horiz-adv-x="304" 
d="M45 235v47c54 0 80 43 80 98v156c0 63 30 121 95 121h28v-47h-20c-32 0 -48 -37 -48 -76v-157c0 -50 -23 -93 -59 -119c36 -25 59 -68 59 -118v-157c0 -40 16 -76 48 -76h20v-48h-28c-60 0 -95 54 -95 121v157c0 53 -25 96 -76 98h-4z" />
    <glyph glyph-name="bar" unicode="|" horiz-adv-x="249" 
d="M95 686h59v-876h-59v876z" />
    <glyph glyph-name="braceright" unicode="}" horiz-adv-x="304" 
d="M259 282v-47h-4c-51 -2 -76 -45 -76 -98v-157c0 -63 -30 -121 -95 -121h-28v48h20c32 0 48 36 48 76v157c0 50 23 93 59 119c-35 25 -59 67 -59 118v157c0 39 -16 76 -48 76h-20v47h28c65 0 95 -58 95 -121v-156c0 -55 27 -98 80 -98z" />
    <glyph glyph-name="asciitilde" unicode="~" horiz-adv-x="565" 
d="M115 181l-36 26c44 75 80 98 132 98c58 0 96 -70 154 -71c40 -2 68 34 84 80l37 -21c-22 -64 -62 -108 -126 -108c-72 0 -113 69 -155 71c-31 0 -58 -17 -90 -75z" />
    <glyph glyph-name="Adieresis" unicode="&#xc4;" horiz-adv-x="586" 
d="M39 0l221 616h61l230 -616h-55l-75 201h-255l-72 -201h-55zM290 545l-107 -295h219zM160 727c0 27 21 49 49 49c27 0 49 -22 49 -49s-22 -49 -49 -49s-49 22 -49 49zM323 727c0 27 21 49 49 49c27 0 49 -22 49 -49s-22 -49 -49 -49s-49 22 -49 49z" />
    <glyph glyph-name="dieresis.case" horiz-adv-x="340" 
d="M40 727c0 27 21 49 49 49c27 0 49 -22 49 -49s-22 -49 -49 -49s-49 22 -49 49zM203 727c0 27 21 49 49 49c27 0 49 -22 49 -49s-22 -49 -49 -49s-49 22 -49 49z" />
    <glyph glyph-name="Aring" unicode="&#xc5;" horiz-adv-x="586" 
d="M202 680c0 48 33 84 89 84c53 0 89 -36 89 -84c0 -38 -21 -68 -53 -80l224 -600h-61l-75 201h-243l-72 -201h-61l215 600c-33 12 -52 41 -52 80zM290 534l-101 -284h207zM291 630c22 0 43 12 43 48c0 38 -21 51 -43 51s-42 -15 -42 -51s19 -48 42 -48z" />
    <glyph glyph-name="ring.case" horiz-adv-x="257" 
d="M40 744c0 48 33 84 89 84c53 0 89 -36 89 -84c0 -50 -36 -86 -89 -86c-56 0 -89 35 -89 86zM129 694c22 0 43 12 43 48c0 38 -21 51 -43 51s-42 -15 -42 -51s19 -48 42 -48z" />
    <glyph glyph-name="Ccedilla" unicode="&#xc7;" horiz-adv-x="603" 
d="M245 -155l21 25c15 -14 41 -26 64 -26s39 17 39 37c0 29 -30 44 -96 44l24 64c-155 22 -233 156 -233 316c0 177 100 326 287 326c93 0 161 -24 205 -60l-24 -44c-42 31 -94 55 -180 55c-148 0 -227 -127 -227 -277s76 -271 222 -271c85 0 140 21 179 55l25 -43
c-44 -37 -112 -61 -205 -61h-6l-9 -26c50 -5 84 -34 84 -78c0 -40 -34 -75 -84 -75c-37 0 -64 19 -86 39z" />
    <glyph glyph-name="cedilla" unicode="&#xb8;" horiz-adv-x="243" 
d="M29 -155l21 25c15 -14 41 -26 64 -26s39 17 39 37c0 29 -30 44 -96 44l33 85l43 -1l-18 -50c50 -5 84 -34 84 -78c0 -40 -34 -75 -84 -75c-37 0 -64 19 -86 39z" />
    <glyph glyph-name="Eacute" unicode="&#xc9;" horiz-adv-x="517" 
d="M449 616v-49h-289v-221h225v-49h-225v-248h306v-49h-363v616h346zM191 674l-23 46l176 90l23 -50z" />
    <glyph glyph-name="Ntilde" unicode="&#xd1;" horiz-adv-x="655" 
d="M380 686c-43 0 -69 47 -100 47c-18 0 -37 -9 -56 -47l-35 26c31 54 56 72 96 72c38 0 62 -48 96 -48c19 0 41 12 60 49l35 -26c-28 -53 -55 -73 -96 -73zM495 616h57v-616h-57l-335 524v-524h-57v616h57l335 -527v527z" />
    <glyph glyph-name="tilde.case" horiz-adv-x="337" 
d="M215 686c-43 0 -69 47 -100 47c-18 0 -37 -9 -56 -47l-35 26c31 54 56 72 96 72c38 0 62 -48 96 -48c19 0 41 12 60 49l35 -26c-28 -53 -55 -73 -96 -73z" />
    <glyph glyph-name="Odieresis" unicode="&#xd6;" horiz-adv-x="677" 
d="M350 34c126 0 202 120 202 271c0 158 -76 277 -208 277c-140 0 -218 -115 -218 -266c0 -160 81 -282 224 -282zM350 -15c-183 0 -285 139 -285 331c0 178 102 315 279 315c170 0 268 -141 268 -326c0 -182 -96 -320 -262 -320zM214 727c0 27 21 49 49 49
c27 0 49 -22 49 -49s-22 -49 -49 -49s-49 22 -49 49zM377 727c0 27 21 49 49 49c27 0 49 -22 49 -49s-22 -49 -49 -49s-49 22 -49 49z" />
    <glyph glyph-name="Udieresis" unicode="&#xdc;" horiz-adv-x="633" 
d="M97 616h57v-420c0 -90 32 -162 162 -162c131 0 163 72 163 162v420h58v-424c0 -105 -44 -207 -221 -207c-175 0 -219 102 -219 207v424zM191 727c0 27 21 49 49 49c27 0 49 -22 49 -49s-22 -49 -49 -49s-49 22 -49 49zM354 727c0 27 21 49 49 49c27 0 49 -22 49 -49
s-22 -49 -49 -49s-49 22 -49 49z" />
    <glyph glyph-name="aacute" unicode="&#xe1;" horiz-adv-x="455" 
d="M328 0l-9 58c-53 -46 -97 -73 -157 -73c-62 0 -111 33 -111 100c0 100 114 130 266 167v52c0 84 -49 113 -103 113c-44 0 -89 -17 -122 -39l-17 38c39 27 86 49 146 49c82 0 151 -41 151 -158v-307h-44zM172 34c50 0 90 25 145 67v110c-126 -35 -209 -52 -209 -121
c0 -38 29 -56 64 -56zM197 517l-33 36l144 137l35 -40z" />
    <glyph glyph-name="agrave" unicode="&#xe0;" horiz-adv-x="455" 
d="M328 0l-9 58c-53 -46 -97 -73 -157 -73c-62 0 -111 33 -111 100c0 100 114 130 266 167v52c0 84 -49 113 -103 113c-44 0 -89 -17 -122 -39l-17 38c39 27 86 49 146 49c82 0 151 -41 151 -158v-307h-44zM172 34c50 0 90 25 145 67v110c-126 -35 -209 -52 -209 -121
c0 -38 29 -56 64 -56zM317 551l-33 -36l-147 133l35 41z" />
    <glyph glyph-name="acircumflex" unicode="&#xe2;" horiz-adv-x="455" 
d="M328 0l-9 58c-53 -46 -97 -73 -157 -73c-62 0 -111 33 -111 100c0 100 114 130 266 167v52c0 84 -49 113 -103 113c-44 0 -89 -17 -122 -39l-17 38c39 27 86 49 146 49c82 0 151 -41 151 -158v-307h-44zM172 34c50 0 90 25 145 67v110c-126 -35 -209 -52 -209 -121
c0 -38 29 -56 64 -56zM93 547l113 143h31l112 -144l-32 -28l-94 119l-97 -119z" />
    <glyph glyph-name="circumflex" unicode="&#x2c6;" horiz-adv-x="329" 
d="M31 547l113 143h31l112 -144l-32 -28l-94 119l-97 -119z" />
    <glyph glyph-name="adieresis" unicode="&#xe4;" horiz-adv-x="455" 
d="M328 0l-9 58c-53 -46 -97 -73 -157 -73c-62 0 -111 33 -111 100c0 100 114 130 266 167v52c0 84 -49 113 -103 113c-44 0 -89 -17 -122 -39l-17 38c39 27 86 49 146 49c82 0 151 -41 151 -158v-307h-44zM172 34c50 0 90 25 145 67v110c-126 -35 -209 -52 -209 -121
c0 -38 29 -56 64 -56zM89 593c0 26 22 48 49 48c26 0 48 -22 48 -48c0 -27 -22 -49 -48 -49c-27 0 -49 21 -49 49zM252 593c0 26 22 48 49 48s49 -22 49 -48c0 -27 -22 -49 -49 -49s-49 21 -49 49z" />
    <glyph glyph-name="dieresis" unicode="&#xa8;" horiz-adv-x="340" 
d="M39 593c0 26 22 48 49 48c26 0 48 -22 48 -48c0 -27 -22 -49 -48 -49c-27 0 -49 21 -49 49zM202 593c0 26 22 48 49 48s49 -22 49 -48c0 -27 -22 -49 -49 -49s-49 21 -49 49z" />
    <glyph glyph-name="atilde" unicode="&#xe3;" horiz-adv-x="455" 
d="M328 0l-9 58c-53 -46 -97 -73 -157 -73c-62 0 -111 33 -111 100c0 100 114 130 266 167v52c0 84 -49 113 -103 113c-44 0 -89 -17 -122 -39l-17 38c39 27 86 49 146 49c82 0 151 -41 151 -158v-307h-44zM172 34c50 0 90 25 145 67v110c-126 -35 -209 -52 -209 -121
c0 -38 29 -56 64 -56zM261 541c-46 0 -69 46 -99 46c-14 0 -32 -9 -47 -47l-36 27c27 52 51 70 86 70c38 0 62 -46 96 -46c15 0 35 11 49 49l36 -26c-25 -52 -49 -73 -85 -73z" />
    <glyph glyph-name="tilde" unicode="&#x2dc;" horiz-adv-x="333" 
d="M211 541c-46 0 -69 46 -99 46c-14 0 -32 -9 -47 -47l-36 27c27 52 51 70 86 70c38 0 62 -46 96 -46c15 0 35 11 49 49l36 -26c-25 -52 -49 -73 -85 -73z" />
    <glyph glyph-name="aring" unicode="&#xe5;" horiz-adv-x="455" 
d="M328 0l-9 58c-53 -46 -97 -73 -157 -73c-62 0 -111 33 -111 100c0 100 114 130 266 167v52c0 84 -49 113 -103 113c-44 0 -89 -17 -122 -39l-17 38c39 27 86 49 146 49c82 0 151 -41 151 -158v-307h-44zM172 34c50 0 90 25 145 67v110c-126 -35 -209 -52 -209 -121
c0 -38 29 -56 64 -56zM138 598c0 42 31 78 82 78c49 0 82 -33 82 -78s-33 -79 -82 -79c-51 0 -82 34 -82 79zM220 553c21 0 39 12 39 44c0 35 -18 47 -39 47c-20 0 -38 -15 -38 -47c0 -33 17 -44 38 -44z" />
    <glyph glyph-name="ring" unicode="&#x2da;" horiz-adv-x="256" 
d="M45 598c0 42 31 78 82 78c49 0 82 -33 82 -78s-33 -79 -82 -79c-51 0 -82 34 -82 79zM127 553c21 0 39 12 39 44c0 35 -18 47 -39 47c-20 0 -38 -15 -38 -47c0 -33 17 -44 38 -44z" />
    <glyph glyph-name="ccedilla" unicode="&#xe7;" horiz-adv-x="469" 
d="M177 -157l21 25c15 -14 41 -26 64 -26s39 17 39 37c0 29 -30 44 -96 44l25 65c-112 19 -171 121 -171 237c0 146 89 240 216 240c70 0 118 -20 147 -51l-23 -40c-30 26 -66 44 -121 44c-107 0 -161 -89 -161 -192c0 -104 52 -194 156 -194c59 0 94 16 123 42l22 -37
c-30 -31 -76 -51 -145 -52l-10 -28c50 -5 84 -34 84 -78c0 -40 -34 -75 -84 -75c-37 0 -64 19 -86 39z" />
    <glyph glyph-name="eacute" unicode="&#xe9;" horiz-adv-x="502" 
d="M209 517l-33 36l144 137l35 -40zM441 228h-324c0 -107 49 -196 151 -196c65 0 103 27 140 77l32 -28c-34 -57 -95 -96 -177 -96c-132 0 -204 109 -204 240c0 132 70 240 196 240c115 0 187 -105 187 -213c0 -8 0 -17 -1 -24zM252 418c-77 0 -121 -62 -132 -144h266
c-10 84 -60 144 -134 144z" />
    <glyph glyph-name="egrave" unicode="&#xe8;" horiz-adv-x="502" 
d="M441 228h-324c0 -107 49 -196 151 -196c65 0 103 27 140 77l32 -28c-34 -57 -95 -96 -177 -96c-132 0 -204 109 -204 240c0 132 70 240 196 240c115 0 187 -105 187 -213c0 -8 0 -17 -1 -24zM252 418c-77 0 -121 -62 -132 -144h266c-10 84 -60 144 -134 144zM333 551
l-33 -36l-147 133l35 41z" />
    <glyph glyph-name="ecircumflex" unicode="&#xea;" horiz-adv-x="502" 
d="M131 547l113 143h31l112 -144l-32 -28l-94 119l-97 -119zM441 228h-324c0 -107 49 -196 151 -196c65 0 103 27 140 77l32 -28c-34 -57 -95 -96 -177 -96c-132 0 -204 109 -204 240c0 132 70 240 196 240c115 0 187 -105 187 -213c0 -8 0 -17 -1 -24zM252 418
c-77 0 -121 -62 -132 -144h266c-10 84 -60 144 -134 144z" />
    <glyph glyph-name="edieresis" unicode="&#xeb;" horiz-adv-x="502" 
d="M131 593c0 26 22 48 49 48c26 0 48 -22 48 -48c0 -27 -22 -49 -48 -49c-27 0 -49 21 -49 49zM294 593c0 26 22 48 49 48s49 -22 49 -48c0 -27 -22 -49 -49 -49s-49 21 -49 49zM441 228h-324c0 -107 49 -196 151 -196c65 0 103 27 140 77l32 -28c-34 -57 -95 -96 -177 -96
c-132 0 -204 109 -204 240c0 132 70 240 196 240c115 0 187 -105 187 -213c0 -8 0 -17 -1 -24zM252 418c-77 0 -121 -62 -132 -144h266c-10 84 -60 144 -134 144z" />
    <glyph glyph-name="iacute" unicode="&#xed;" horiz-adv-x="232" 
d="M71 517l-33 36l144 137l35 -40zM144 0h-56v442l56 11v-453z" />
    <glyph glyph-name="dotlessi" unicode="&#x131;" horiz-adv-x="232" 
d="M144 0h-56v442l56 11v-453z" />
    <glyph glyph-name="igrave" unicode="&#xec;" horiz-adv-x="232" 
d="M144 0h-56v442l56 11v-453zM178 551l-33 -36l-147 133l35 41z" />
    <glyph glyph-name="icircumflex" unicode="&#xee;" horiz-adv-x="232" 
d="M-12 547l113 143h31l112 -144l-32 -28l-94 119l-97 -119zM144 0h-56v442l56 11v-453z" />
    <glyph glyph-name="idieresis" unicode="&#xef;" horiz-adv-x="232" 
d="M-14 593c0 26 22 48 49 48c26 0 48 -22 48 -48c0 -27 -22 -49 -48 -49c-27 0 -49 21 -49 49zM149 593c0 26 22 48 49 48s49 -22 49 -48c0 -27 -22 -49 -49 -49s-49 21 -49 49zM144 0h-56v442l56 11v-453z" />
    <glyph glyph-name="ntilde" unicode="&#xf1;" 
d="M143 0h-55v450l41 9l10 -69c43 46 96 75 162 75c65 0 123 -29 123 -122v-343h-55v339c0 59 -37 79 -74 79c-58 0 -113 -31 -152 -78v-340zM306 541c-46 0 -69 46 -99 46c-14 0 -32 -9 -47 -47l-36 27c27 52 51 70 86 70c38 0 62 -46 96 -46c15 0 35 11 49 49l36 -26
c-25 -52 -49 -73 -85 -73z" />
    <glyph glyph-name="oacute" unicode="&#xf3;" horiz-adv-x="526" 
d="M237 517l-33 36l144 137l35 -40zM59 225c0 132 71 240 203 240c134 0 205 -108 205 -240c0 -129 -71 -240 -204 -240c-134 0 -204 110 -204 240zM118 225c0 -104 48 -193 145 -193s145 89 145 193c0 107 -48 193 -145 193s-145 -86 -145 -193z" />
    <glyph glyph-name="ograve" unicode="&#xf2;" horiz-adv-x="526" 
d="M59 225c0 132 71 240 203 240c134 0 205 -108 205 -240c0 -129 -71 -240 -204 -240c-134 0 -204 110 -204 240zM118 225c0 -104 48 -193 145 -193s145 89 145 193c0 107 -48 193 -145 193s-145 -86 -145 -193zM342 551l-33 -36l-147 133l35 41z" />
    <glyph glyph-name="ocircumflex" unicode="&#xf4;" horiz-adv-x="526" 
d="M128 547l113 143h31l112 -144l-32 -28l-94 119l-97 -119zM59 225c0 132 71 240 203 240c134 0 205 -108 205 -240c0 -129 -71 -240 -204 -240c-134 0 -204 110 -204 240zM118 225c0 -104 48 -193 145 -193s145 89 145 193c0 107 -48 193 -145 193s-145 -86 -145 -193z
" />
    <glyph glyph-name="odieresis" unicode="&#xf6;" horiz-adv-x="526" 
d="M126 593c0 26 22 48 49 48c26 0 48 -22 48 -48c0 -27 -22 -49 -48 -49c-27 0 -49 21 -49 49zM289 593c0 26 22 48 49 48s49 -22 49 -48c0 -27 -22 -49 -49 -49s-49 21 -49 49zM59 225c0 132 71 240 203 240c134 0 205 -108 205 -240c0 -129 -71 -240 -204 -240
c-134 0 -204 110 -204 240zM118 225c0 -104 48 -193 145 -193s145 89 145 193c0 107 -48 193 -145 193s-145 -86 -145 -193z" />
    <glyph glyph-name="otilde" unicode="&#xf5;" horiz-adv-x="526" 
d="M59 225c0 132 71 240 203 240c134 0 205 -108 205 -240c0 -129 -71 -240 -204 -240c-134 0 -204 110 -204 240zM118 225c0 -104 48 -193 145 -193s145 89 145 193c0 107 -48 193 -145 193s-145 -86 -145 -193zM296 541c-46 0 -69 46 -99 46c-14 0 -32 -9 -47 -47l-36 27
c27 52 51 70 86 70c38 0 62 -46 96 -46c15 0 35 11 49 49l36 -26c-25 -52 -49 -73 -85 -73z" />
    <glyph glyph-name="uacute" unicode="&#xfa;" 
d="M243 517l-33 36l144 137l35 -40zM364 452h56v-452h-41l-9 63c-44 -47 -97 -76 -163 -76c-65 0 -124 29 -124 122v342l56 10v-348c0 -59 36 -78 74 -78c56 0 110 29 151 76v341z" />
    <glyph glyph-name="ugrave" unicode="&#xf9;" 
d="M364 452h56v-452h-41l-9 63c-44 -47 -97 -76 -163 -76c-65 0 -124 29 -124 122v342l56 10v-348c0 -59 36 -78 74 -78c56 0 110 29 151 76v341zM346 551l-33 -36l-147 133l35 41z" />
    <glyph glyph-name="ucircumflex" unicode="&#xfb;" 
d="M130 547l113 143h31l112 -144l-32 -28l-94 119l-97 -119zM364 452h56v-452h-41l-9 63c-44 -47 -97 -76 -163 -76c-65 0 -124 29 -124 122v342l56 10v-348c0 -59 36 -78 74 -78c56 0 110 29 151 76v341z" />
    <glyph glyph-name="udieresis" unicode="&#xfc;" 
d="M128 593c0 26 22 48 49 48c26 0 48 -22 48 -48c0 -27 -22 -49 -48 -49c-27 0 -49 21 -49 49zM291 593c0 26 22 48 49 48s49 -22 49 -48c0 -27 -22 -49 -49 -49s-49 21 -49 49zM364 452h56v-452h-41l-9 63c-44 -47 -97 -76 -163 -76c-65 0 -124 29 -124 122v342l56 10
v-348c0 -59 36 -78 74 -78c56 0 110 29 151 76v341z" />
    <glyph glyph-name="dagger" unicode="&#x2020;" horiz-adv-x="488" 
d="M213 616h57v-227h178v-49h-178v-448h-57v448h-173v49h173v227z" />
    <glyph glyph-name="degree" unicode="&#xb0;" horiz-adv-x="396" 
d="M198 391c69 0 81 52 81 100c0 47 -14 98 -81 98s-80 -42 -80 -98c0 -48 13 -100 80 -100zM198 348c-102 0 -129 65 -129 143c0 81 24 140 129 140c106 0 129 -73 129 -140c0 -83 -23 -143 -129 -143z" />
    <glyph glyph-name="cent" unicode="&#xa2;" horiz-adv-x="488" 
d="M64 225c0 126 70 221 183 237v101h46v-98c63 -2 106 -22 135 -51l-23 -40c-30 26 -67 44 -122 44c-107 0 -160 -89 -160 -192c0 -104 52 -194 156 -194c59 0 94 16 123 42l22 -37c-28 -29 -70 -48 -131 -51v-100h-46v101c-120 14 -183 120 -183 238z" />
    <glyph glyph-name="sterling" unicode="&#xa3;" horiz-adv-x="554" 
d="M67 299v45h83c-7 38 -12 77 -12 118c0 84 70 170 171 170c65 0 114 -21 175 -71l-30 -35c-52 41 -97 58 -142 58c-70 0 -118 -60 -118 -122c0 -40 6 -79 13 -118h130v-45h-121c6 -37 12 -74 12 -114c0 -38 -11 -72 -28 -110c43 -15 84 -43 132 -43c59 0 96 29 125 85
l40 -17c-36 -77 -77 -117 -169 -117c-57 0 -100 31 -152 49c-20 -33 -36 -47 -63 -47c-38 0 -52 28 -52 53c0 28 22 49 52 51c11 1 23 2 34 0c18 35 25 63 25 96c0 39 -6 76 -13 114h-92z" />
    <glyph glyph-name="section" unicode="&#xa7;" horiz-adv-x="486" 
d="M415 201c0 -56 -21 -96 -54 -122c32 -25 54 -57 54 -102c0 -115 -86 -166 -188 -166c-59 0 -118 24 -170 59l20 47c45 -33 101 -58 154 -58c68 0 124 36 124 117c0 124 -272 120 -272 275c0 35 15 87 63 119c-37 26 -63 59 -63 108c0 57 39 152 180 152
c57 0 94 -13 143 -42l-17 -48c-48 29 -87 41 -131 41c-94 0 -117 -64 -117 -101c0 -125 274 -117 274 -279zM355 200c0 70 -86 100 -161 140c-41 -21 -53 -62 -53 -88c0 -74 95 -101 174 -143c25 18 40 49 40 91z" />
    <glyph glyph-name="bullet" unicode="&#x2022;" horiz-adv-x="385" 
d="M99 256c0 64 42 94 93 94c52 0 94 -30 94 -94c0 -61 -42 -93 -94 -93s-93 32 -93 93z" />
    <glyph glyph-name="paragraph" unicode="&#xb6;" horiz-adv-x="649" 
d="M536 616v-805h-57v756h-79v-756h-57v408h-70c-139 0 -236 86 -236 206c0 113 93 191 231 191h268z" />
    <glyph glyph-name="germandbls" unicode="&#xdf;" horiz-adv-x="518" 
d="M143 1h-55v497c0 125 71 188 163 188c127 0 159 -87 159 -138c0 -81 -81 -108 -81 -189c0 -86 143 -127 143 -233c0 -77 -50 -141 -143 -141c-51 0 -77 10 -101 27l21 39c25 -14 33 -20 77 -20c58 0 89 41 89 92c0 82 -143 127 -143 232c0 99 83 121 83 191
c0 35 -21 93 -104 93c-61 0 -108 -47 -108 -141v-497z" />
    <glyph glyph-name="registered" unicode="&#xae;" horiz-adv-x="688" 
d="M474 167l-48 -11l-93 137h-34v-131h-46v322h81c83 0 114 -39 114 -93c0 -42 -23 -77 -64 -92c6 -10 84 -122 90 -132zM333 444h-35v-109h39c43 0 65 24 65 54c0 29 -16 55 -69 55zM71 315c0 150 122 274 273 274c150 0 273 -124 273 -274s-123 -273 -273 -273
s-273 123 -273 273zM106 315c0 -133 111 -238 238 -238c131 0 238 107 238 238s-107 238 -238 238s-238 -107 -238 -238z" />
    <glyph glyph-name="copyright" unicode="&#xa9;" horiz-adv-x="688" 
d="M450 440l-21 -39c-24 19 -51 33 -90 33c-64 0 -98 -54 -98 -116c0 -64 32 -114 95 -114c38 0 66 12 91 32l20 -39c-26 -22 -64 -36 -111 -36c-93 0 -141 70 -141 157c0 85 49 158 144 158c46 0 84 -13 111 -36zM71 315c0 150 122 274 273 274c150 0 273 -124 273 -274
s-123 -273 -273 -273s-273 123 -273 273zM106 315c0 -133 111 -238 238 -238c131 0 238 107 238 238s-107 238 -238 238s-238 -107 -238 -238z" />
    <glyph glyph-name="trademark" unicode="&#x2122;" horiz-adv-x="745" 
d="M317 616v-45h-97v-268h-49v268h-98v45h244zM525 303h-40l-80 180v-180h-48v313h45l103 -235l103 235h45v-313h-49v183z" />
    <glyph glyph-name="notequal" unicode="&#x2260;" horiz-adv-x="611" 
d="M102 305v48h221l38 88h52l-38 -88h133v-48h-154l-57 -134h211v-48h-232l-38 -89h-52l38 89h-122v48h143l57 134h-200z" />
    <glyph glyph-name="AE" unicode="&#xc6;" horiz-adv-x="800" 
d="M731 616v-49h-288v-221h225v-49h-225v-248h305v-49h-363v200h-192l-119 -200h-60l368 616h349zM221 248h164v275z" />
    <glyph glyph-name="Oslash" unicode="&#xd8;" horiz-adv-x="678" 
d="M68 -48h-46l110 136c-43 58 -66 137 -66 228c0 178 102 315 279 315c71 0 130 -25 174 -68l100 124h47l-123 -151c46 -58 70 -139 70 -231c0 -182 -96 -320 -262 -320c-82 0 -148 27 -195 75zM351 34c126 0 202 120 202 271c0 73 -16 137 -47 186l-314 -386
c38 -45 92 -71 159 -71zM127 316c0 -70 15 -132 44 -180l313 385c-35 38 -82 61 -139 61c-140 0 -218 -115 -218 -266z" />
    <glyph glyph-name="infinity" unicode="&#x221e;" horiz-adv-x="744" 
d="M220 447c73 0 111 -54 150 -103c49 69 93 103 153 103c89 0 150 -62 150 -151c0 -88 -61 -149 -150 -149c-58 0 -102 34 -153 103c-50 -73 -89 -103 -149 -103c-89 0 -150 61 -150 149c0 89 61 151 149 151zM525 399c-42 0 -83 -42 -123 -101c47 -72 80 -103 121 -103
c57 0 96 42 96 101c0 60 -39 103 -94 103zM220 195c41 0 77 36 118 103c-44 64 -78 101 -119 101c-56 0 -95 -43 -95 -103c0 -59 39 -101 96 -101z" />
    <glyph glyph-name="plusminus" unicode="&#xb1;" horiz-adv-x="499" 
d="M88 332v46h139v137h46v-137h139v-46h-139v-149h-46v149h-139zM88 86v45h324v-45h-324z" />
    <glyph glyph-name="lessequal" unicode="&#x2264;" horiz-adv-x="503" 
d="M420 180v-53l-342 162v39l342 166v-53l-273 -133zM77 32v45h341v-45h-341z" />
    <glyph glyph-name="greaterequal" unicode="&#x2265;" horiz-adv-x="503" 
d="M83 127v53l274 128l-274 133v53l342 -166v-39zM427 77v-45h-342v45h342z" />
    <glyph glyph-name="yen" unicode="&#xa5;" horiz-adv-x="545" 
d="M462 156v-45h-162v-111h-57v111h-157v45h157v88h-157v45h138l-169 327h66l153 -303l151 303h62l-168 -327h143v-45h-162v-88h162z" />
    <glyph glyph-name="mu" unicode="&#xb5;" horiz-adv-x="552" 
d="M387 452h55v-452h-52v61c-44 -46 -96 -75 -161 -75c-25 0 -48 4 -68 14v-190h-55v633l55 11v-341c0 -59 37 -79 75 -79c57 0 111 30 151 77v341z" />
    <glyph glyph-name="partialdiff" unicode="&#x2202;" horiz-adv-x="527" 
d="M96 617l-18 38c50 23 93 35 140 35c154 0 245 -193 245 -390c0 -154 -40 -317 -201 -317c-111 0 -203 86 -203 249c0 141 81 235 196 235c65 0 110 -34 144 -74c-21 136 -85 250 -180 250c-40 0 -80 -7 -123 -26zM406 295c0 8 0 17 -1 25c-33 49 -79 100 -150 100
c-81 0 -139 -75 -139 -188c0 -132 67 -202 146 -202c116 0 144 135 144 265z" />
    <glyph glyph-name="summation" unicode="&#x2211;" horiz-adv-x="569" 
d="M51 581v35h457v-47h-389l202 -341l-204 -369h401v-47h-467v39l209 377z" />
    <glyph glyph-name="product" unicode="&#x220f;" horiz-adv-x="636" 
d="M576 616v-49h-69v-754h-58v754h-263v-754h-57v754h-72v49h519z" />
    <glyph glyph-name="pi" unicode="&#x3c0;" horiz-adv-x="573" 
d="M531 500v-49h-70v-451h-57v451h-234v-451h-57v451h-73v49h491z" />
    <glyph glyph-name="integral" unicode="&#x222b;" horiz-adv-x="358" 
d="M207 418v-389c0 -119 -57 -189 -170 -213l-9 48c87 19 124 81 124 165v389c0 110 52 190 170 213l9 -48c-86 -19 -124 -81 -124 -165z" />
    <glyph glyph-name="ordfeminine" unicode="&#xaa;" horiz-adv-x="334" 
d="M107 576l-20 27c22 16 52 28 84 28c44 0 81 -22 81 -85v-146h-46v26c-24 -19 -46 -30 -72 -30c-36 0 -65 18 -65 56c0 46 44 57 137 82v11c0 35 -19 48 -39 48c-21 0 -44 -6 -60 -17zM140 433c19 0 40 5 66 24v50c-64 -22 -90 -31 -90 -52c0 -15 11 -22 24 -22z" />
    <glyph glyph-name="ordmasculine" unicode="&#xba;" horiz-adv-x="351" 
d="M176 436c44 0 60 31 60 79c0 46 -15 78 -60 78c-46 0 -60 -34 -60 -83c0 -43 14 -74 60 -74zM176 398c-79 0 -106 49 -106 112c0 71 26 121 106 121c79 0 106 -48 106 -116s-27 -117 -106 -117z" />
    <glyph glyph-name="Omega" unicode="&#x2126;" horiz-adv-x="697" 
d="M72 0v48h175v93c-117 48 -174 109 -174 235c0 139 122 255 275 255c154 0 276 -116 276 -255c0 -125 -53 -189 -174 -236v-92h174v-48h-230v167c122 44 174 98 174 209c0 113 -96 208 -220 208c-123 0 -219 -95 -219 -208c0 -109 58 -163 173 -209v-167h-230z" />
    <glyph glyph-name="ae" unicode="&#xe6;" horiz-adv-x="759" 
d="M695 228h-320c0 -107 48 -196 150 -196c65 0 103 27 140 77l33 -28c-35 -57 -95 -96 -177 -96s-138 40 -171 99c-67 -61 -117 -99 -188 -99c-62 0 -111 36 -111 100c0 100 113 130 266 167v52c0 84 -49 113 -104 113c-43 0 -88 -17 -121 -39l-17 38c39 27 85 49 146 49
c60 0 114 -23 138 -82c33 50 85 82 154 82c114 0 187 -104 187 -205c0 -11 -1 -22 -5 -32zM510 418c-78 0 -121 -62 -132 -144h264c-10 87 -58 144 -132 144zM172 34c51 0 105 37 164 82c-11 29 -17 60 -19 93c-126 -34 -209 -52 -209 -119c0 -38 29 -56 64 -56z" />
    <glyph glyph-name="oslash" unicode="&#xf8;" horiz-adv-x="525" 
d="M78 -56h-39l409 556h40zM59 225c0 132 71 240 203 240c134 0 205 -108 205 -240c0 -129 -71 -240 -204 -240c-134 0 -204 110 -204 240zM118 225c0 -104 48 -193 145 -193s145 89 145 193c0 107 -48 193 -145 193s-145 -86 -145 -193z" />
    <glyph glyph-name="questiondown" unicode="&#xbf;" horiz-adv-x="416" 
d="M345 -72l34 -31c-40 -50 -97 -85 -167 -85c-111 0 -170 78 -170 158c0 145 171 137 168 349h52c3 -219 -165 -235 -165 -347c0 -57 39 -114 117 -114c54 0 98 29 131 70zM284 416c0 -26 -21 -47 -47 -47s-48 21 -48 47s22 47 48 47s47 -21 47 -47z" />
    <glyph glyph-name="exclamdown" unicode="&#xa1;" horiz-adv-x="241" 
d="M151 -189h-61l7 469h47zM78 426c0 25 19 44 43 44c25 0 44 -19 44 -44c0 -24 -19 -43 -44 -43c-24 0 -43 19 -43 43z" />
    <glyph glyph-name="logicalnot" unicode="&#xac;" horiz-adv-x="573" 
d="M86 229v47h400v-217h-55v170h-345z" />
    <glyph glyph-name="radical" unicode="&#x221a;" horiz-adv-x="580" 
d="M232 0h-57l-65 229h-67v48h108l55 -194l148 533h194v-47h-152z" />
    <glyph glyph-name="florin" unicode="&#x192;" horiz-adv-x="589" 
d="M167 404v48h85l6 50c13 126 89 184 169 184c62 0 108 -25 145 -66l-32 -33c-30 32 -65 52 -109 52c-53 0 -108 -47 -118 -142l-5 -45h94v-48h-99l-42 -405c-13 -124 -79 -190 -165 -190c-64 0 -107 22 -140 64l30 36c32 -36 59 -53 108 -53c55 0 101 54 111 148l42 400
h-80z" />
    <glyph glyph-name="approxequal" unicode="&#x2248;" horiz-adv-x="578" 
d="M215 442c65 0 103 -74 157 -74c31 0 61 19 92 75l35 -25c-38 -72 -80 -99 -130 -99c-73 0 -104 73 -160 73c-29 0 -58 -16 -89 -72l-36 24c41 73 83 98 131 98zM215 272c62 0 107 -74 157 -74c31 0 61 19 92 75l35 -25c-38 -72 -80 -99 -130 -99c-73 0 -104 73 -160 73
c-29 0 -58 -16 -89 -72l-36 24c41 73 83 98 131 98z" />
    <glyph glyph-name="Delta" unicode="&#x2206;" horiz-adv-x="598" 
d="M508 47l-213 506l-206 -506h419zM35 -2v44l235 574h50l245 -573v-45h-530z" />
    <glyph glyph-name="guillemotleft" unicode="&#xab;" horiz-adv-x="421" 
d="M60 224v17l107 193l49 -21l-101 -181l103 -183l-47 -22zM202 224v17l106 193l49 -21l-100 -181l102 -183l-47 -22z" />
    <glyph glyph-name="guillemotright" unicode="&#xbb;" horiz-adv-x="421" 
d="M361 241v-17l-110 -197l-47 22l102 183l-100 181l49 21zM220 241v-17l-111 -197l-47 22l103 183l-101 181l49 21z" />
    <glyph glyph-name="ellipsis" unicode="&#x2026;" horiz-adv-x="661" 
d="M77 34c0 27 22 49 49 49s49 -22 49 -49s-22 -49 -49 -49s-49 22 -49 49zM486 34c0 27 22 49 49 49s49 -22 49 -49s-22 -49 -49 -49s-49 22 -49 49zM281 34c0 27 22 49 49 49s49 -22 49 -49s-22 -49 -49 -49s-49 22 -49 49z" />
    <glyph glyph-name="Agrave" unicode="&#xc0;" horiz-adv-x="586" 
d="M39 0l221 616h61l230 -616h-55l-75 201h-255l-72 -201h-55zM290 545l-107 -295h219zM378 720l-23 -46l-177 86l24 50z" />
    <glyph glyph-name="grave.case" horiz-adv-x="235" 
d="M204 720l-23 -46l-177 86l24 50z" />
    <glyph glyph-name="Atilde" unicode="&#xc3;" horiz-adv-x="586" 
d="M39 0l221 616h61l230 -616h-55l-75 201h-255l-72 -201h-55zM290 545l-107 -295h219zM337 686c-43 0 -69 47 -100 47c-18 0 -37 -9 -56 -47l-35 26c31 54 56 72 96 72c38 0 62 -48 96 -48c19 0 41 12 60 49l35 -26c-28 -53 -55 -73 -96 -73z" />
    <glyph glyph-name="Otilde" unicode="&#xd5;" horiz-adv-x="677" 
d="M350 34c126 0 202 120 202 271c0 158 -76 277 -208 277c-140 0 -218 -115 -218 -266c0 -160 81 -282 224 -282zM350 -15c-183 0 -285 139 -285 331c0 178 102 315 279 315c170 0 268 -141 268 -326c0 -182 -96 -320 -262 -320zM391 686c-43 0 -69 47 -100 47
c-18 0 -37 -9 -56 -47l-35 26c31 54 56 72 96 72c38 0 62 -48 96 -48c19 0 41 12 60 49l35 -26c-28 -53 -55 -73 -96 -73z" />
    <glyph glyph-name="OE" unicode="&#x152;" horiz-adv-x="952" 
d="M883 616v-49h-289v-221h225v-49h-225v-248h306v-49h-363v74c-44 -56 -107 -89 -187 -89c-181 0 -285 142 -285 331c0 178 102 315 279 315c83 0 148 -35 193 -93v78h346zM350 34c94 0 159 57 187 149v246c-29 95 -95 153 -193 153c-141 0 -220 -115 -220 -266
c0 -160 82 -282 226 -282z" />
    <glyph glyph-name="oe" unicode="&#x153;" horiz-adv-x="852" 
d="M59 225c0 132 71 240 203 240c84 0 143 -43 175 -107c32 64 89 107 168 107c115 0 187 -105 187 -213c0 -8 0 -17 -1 -24h-324v-3c1 -106 50 -193 151 -193c65 0 103 27 140 77l32 -28c-34 -57 -95 -96 -177 -96c-83 0 -143 43 -175 108c-33 -65 -92 -108 -175 -108
c-134 0 -204 110 -204 240zM118 225c0 -104 48 -193 145 -193s145 89 145 193c0 107 -48 193 -145 193s-145 -86 -145 -193zM602 418c-77 0 -121 -62 -132 -144h266c-10 84 -60 144 -134 144z" />
    <glyph glyph-name="endash" unicode="&#x2013;" horiz-adv-x="579" 
d="M80 285v47h420v-47h-420z" />
    <glyph glyph-name="emdash" unicode="&#x2014;" horiz-adv-x="930" 
d="M80 213v48h771v-48h-771z" />
    <glyph glyph-name="quotedblleft" unicode="&#x201c;" horiz-adv-x="405" 
d="M155 630l22 -26c-36 -29 -53 -51 -59 -85h2c27 0 49 -22 49 -49c0 -28 -22 -50 -49 -50c-33 0 -50 27 -50 67c1 58 33 108 85 143zM312 630l22 -26c-36 -29 -52 -51 -59 -85h2c27 0 49 -22 49 -49c0 -28 -22 -50 -49 -50c-33 0 -49 27 -49 67c0 58 32 108 84 143z" />
    <glyph glyph-name="quotedblright" unicode="&#x201d;" horiz-adv-x="404" 
d="M97 420l-22 27c37 28 53 50 59 85h-2c-27 0 -49 22 -49 49s22 49 49 49c33 0 50 -27 50 -67c-1 -58 -33 -108 -85 -143zM255 420l-23 27c37 28 53 50 59 85h-2c-26 0 -48 22 -48 49s22 49 48 49c33 0 50 -27 50 -67c-1 -58 -33 -108 -84 -143z" />
    <glyph glyph-name="quoteleft" unicode="&#x2018;" horiz-adv-x="248" 
d="M155 630l22 -26c-36 -29 -53 -51 -59 -85h2c27 0 49 -22 49 -49c0 -28 -22 -50 -49 -50c-31 0 -50 25 -50 67c1 58 33 108 85 143z" />
    <glyph glyph-name="quoteright" unicode="&#x2019;" horiz-adv-x="247" 
d="M97 420l-22 27c37 28 53 50 59 85h-2c-27 0 -49 22 -49 49s22 49 49 49c33 0 50 -27 50 -67c-1 -58 -33 -108 -85 -143z" />
    <glyph glyph-name="divide" unicode="&#xf7;" horiz-adv-x="482" 
d="M82 205v43h319v-43h-319zM195 31c0 26 21 47 46 47c26 0 47 -21 47 -47c0 -25 -21 -46 -47 -46c-25 0 -46 21 -46 46zM195 419c0 25 21 46 46 46c26 0 47 -21 47 -46c0 -26 -21 -47 -47 -47c-25 0 -46 21 -46 47z" />
    <glyph glyph-name="lozenge" unicode="&#x25ca;" horiz-adv-x="545" 
d="M448 306l-175 239l-175 -237l177 -240zM273 632l238 -326l-237 -326l-240 327z" />
    <glyph glyph-name="ydieresis" unicode="&#xff;" horiz-adv-x="471" 
d="M38 452h57l137 -382l148 382h53l-166 -433c-47 -114 -60 -208 -216 -208v45c105 0 119 62 152 144zM117 593c0 26 22 48 49 48c26 0 48 -22 48 -48c0 -27 -22 -49 -48 -49c-27 0 -49 21 -49 49zM280 593c0 26 22 48 49 48s49 -22 49 -48c0 -27 -22 -49 -49 -49
s-49 21 -49 49z" />
    <glyph glyph-name="Ydieresis" unicode="&#x178;" horiz-adv-x="507" 
d="M283 251v-251h-58v254l-188 362h66l153 -303l151 303h62zM149 727c0 27 21 49 49 49c27 0 49 -22 49 -49s-22 -49 -49 -49s-49 22 -49 49zM312 727c0 27 21 49 49 49c27 0 49 -22 49 -49s-22 -49 -49 -49s-49 22 -49 49z" />
    <glyph glyph-name="fraction" unicode="&#x2044;" horiz-adv-x="101" 
d="M-161 -7l382 642l40 -25l-384 -643z" />
    <glyph glyph-name="Euro" unicode="&#x20ac;" horiz-adv-x="727" 
d="M437 394l-15 -44h-362l15 44h102c30 138 128 237 278 237c93 0 161 -24 205 -60l-24 -44c-42 31 -94 55 -180 55c-119 0 -193 -81 -219 -188h200zM397 275l-15 -45h-149c23 -114 100 -196 227 -196c82 0 133 21 170 55l25 -43c-42 -37 -107 -61 -196 -61
c-162 0 -260 103 -285 245h-115l15 45h323z" />
    <glyph glyph-name="guilsinglleft" unicode="&#x2039;" horiz-adv-x="280" 
d="M60 224v17l107 193l49 -21l-101 -181l103 -183l-47 -22z" />
    <glyph glyph-name="guilsinglright" unicode="&#x203a;" horiz-adv-x="280" 
d="M220 241v-17l-111 -197l-47 22l103 183l-101 181l49 21z" />
    <glyph glyph-name="daggerdbl" unicode="&#x2021;" horiz-adv-x="538" 
d="M238 616h57v-222h178v-49h-178v-185h178v-49h-178v-219h-57v219h-173v49h173v185h-173v49h173v222z" />
    <glyph glyph-name="periodcentered" unicode="&#xb7;" horiz-adv-x="256" 
d="M79 263c0 27 22 49 49 49s49 -22 49 -49s-22 -49 -49 -49s-49 22 -49 49z" />
    <glyph glyph-name="quotesinglbase" unicode="&#x201a;" horiz-adv-x="273" 
d="M103 -128l-22 27c36 28 52 50 59 85h-2c-27 0 -49 22 -49 49c0 28 22 50 49 50c33 0 49 -27 49 -67c0 -58 -32 -108 -84 -144z" />
    <glyph glyph-name="quotedblbase" unicode="&#x201e;" horiz-adv-x="427" 
d="M102 -128l-22 27c37 28 53 50 59 85h-2c-27 0 -49 22 -49 49c0 28 22 50 49 50c33 0 50 -27 50 -67c-1 -58 -33 -108 -85 -144zM257 -128l-22 27c36 28 52 50 59 85h-2c-27 0 -49 22 -49 49c0 28 22 50 49 50c33 0 49 -27 49 -67c0 -58 -32 -108 -84 -144z" />
    <glyph glyph-name="perthousand" unicode="&#x2030;" horiz-adv-x="1090" 
d="M161 -1l392 647l42 -26l-391 -649zM176 297c-74 0 -126 65 -126 167c0 101 51 167 126 167s126 -66 126 -167c0 -102 -51 -167 -126 -167zM176 340c44 0 74 48 74 124s-30 124 -74 124s-74 -48 -74 -124s30 -124 74 -124zM578 -15c-74 0 -126 64 -126 167
c0 101 52 167 126 167c75 0 127 -66 127 -167c0 -102 -52 -167 -127 -167zM578 28c44 0 75 48 75 124s-31 124 -75 124c-43 0 -74 -48 -74 -124s31 -124 74 -124zM915 -15c-74 0 -126 64 -126 167c0 101 52 167 126 167c75 0 127 -66 127 -167c0 -102 -52 -167 -127 -167z
M915 28c44 0 75 48 75 124s-31 124 -75 124c-43 0 -74 -48 -74 -124s31 -124 74 -124z" />
    <glyph glyph-name="Acircumflex" unicode="&#xc2;" horiz-adv-x="586" 
d="M39 0l221 616h61l230 -616h-55l-75 201h-255l-72 -201h-55zM290 545l-107 -295h219zM305 812l111 -117l-30 -35l-98 99l-91 -99l-31 35l108 117h31z" />
    <glyph glyph-name="circumflex.case" horiz-adv-x="329" 
d="M172 812l111 -117l-30 -35l-98 99l-91 -99l-31 35l108 117h31z" />
    <glyph glyph-name="Ecircumflex" unicode="&#xca;" horiz-adv-x="517" 
d="M284 812l111 -117l-30 -35l-98 99l-91 -99l-31 35l108 117h31zM449 616v-49h-289v-221h225v-49h-225v-248h306v-49h-363v616h346z" />
    <glyph glyph-name="Aacute" unicode="&#xc1;" horiz-adv-x="586" 
d="M39 0l221 616h61l230 -616h-55l-75 201h-255l-72 -201h-55zM290 545l-107 -295h219zM238 674l-23 46l176 90l23 -50z" />
    <glyph glyph-name="Edieresis" unicode="&#xcb;" horiz-adv-x="517" 
d="M449 616v-49h-289v-221h225v-49h-225v-248h306v-49h-363v616h346zM139 727c0 27 21 49 49 49c27 0 49 -22 49 -49s-22 -49 -49 -49s-49 22 -49 49zM302 727c0 27 21 49 49 49c27 0 49 -22 49 -49s-22 -49 -49 -49s-49 22 -49 49z" />
    <glyph glyph-name="Egrave" unicode="&#xc8;" horiz-adv-x="517" 
d="M364 720l-23 -46l-177 86l24 50zM449 616v-49h-289v-221h225v-49h-225v-248h306v-49h-363v616h346z" />
    <glyph glyph-name="Iacute" unicode="&#xcd;" horiz-adv-x="263" 
d="M103 616h57v-616h-57v616zM62 674l-23 46l176 90l23 -50z" />
    <glyph glyph-name="Icircumflex" unicode="&#xce;" horiz-adv-x="263" 
d="M103 616h57v-616h-57v616zM146 812l111 -117l-30 -35l-98 99l-91 -99l-31 35l108 117h31z" />
    <glyph glyph-name="Idieresis" unicode="&#xcf;" horiz-adv-x="263" 
d="M103 616h57v-616h-57v616zM1 727c0 27 21 49 49 49c27 0 49 -22 49 -49s-22 -49 -49 -49s-49 22 -49 49zM164 727c0 27 21 49 49 49c27 0 49 -22 49 -49s-22 -49 -49 -49s-49 22 -49 49z" />
    <glyph glyph-name="Igrave" unicode="&#xcc;" horiz-adv-x="263" 
d="M103 616h57v-616h-57v616zM218 720l-23 -46l-177 86l24 50z" />
    <glyph glyph-name="Oacute" unicode="&#xd3;" horiz-adv-x="677" 
d="M267 674l-23 46l176 90l23 -50zM350 34c126 0 202 120 202 271c0 158 -76 277 -208 277c-140 0 -218 -115 -218 -266c0 -160 81 -282 224 -282zM350 -15c-183 0 -285 139 -285 331c0 178 102 315 279 315c170 0 268 -141 268 -326c0 -182 -96 -320 -262 -320z" />
    <glyph glyph-name="Ocircumflex" unicode="&#xd4;" horiz-adv-x="677" 
d="M359 812l111 -117l-30 -35l-98 99l-91 -99l-31 35l108 117h31zM350 34c126 0 202 120 202 271c0 158 -76 277 -208 277c-140 0 -218 -115 -218 -266c0 -160 81 -282 224 -282zM350 -15c-183 0 -285 139 -285 331c0 178 102 315 279 315c170 0 268 -141 268 -326
c0 -182 -96 -320 -262 -320z" />
    <glyph glyph-name="apple" unicode="&#xf8ff;" horiz-adv-x="692" 
d="M54 288c0 161 129 288 288 288s288 -129 288 -288s-129 -288 -288 -288s-288 129 -288 288zM274 115h131l1 6l-49 10v189h27c39 0 54 -30 54 -60c0 -28 -9 -59 -46 -59h-14v-7h18c42 0 72 26 72 71s-32 63 -77 63h-34v75l102 -5l17 -54l11 2l-5 73h-282l-6 -73l11 -2
l18 54l102 5v-272l-49 -10z" />
    <glyph glyph-name="Ograve" unicode="&#xd2;" horiz-adv-x="677" 
d="M432 720l-23 -46l-177 86l24 50zM350 34c126 0 202 120 202 271c0 158 -76 277 -208 277c-140 0 -218 -115 -218 -266c0 -160 81 -282 224 -282zM350 -15c-183 0 -285 139 -285 331c0 178 102 315 279 315c170 0 268 -141 268 -326c0 -182 -96 -320 -262 -320z" />
    <glyph glyph-name="Uacute" unicode="&#xda;" horiz-adv-x="633" 
d="M97 616h57v-420c0 -90 32 -162 162 -162c131 0 163 72 163 162v420h58v-424c0 -105 -44 -207 -221 -207c-175 0 -219 102 -219 207v424zM286 674l-23 46l176 90l23 -50z" />
    <glyph glyph-name="Ucircumflex" unicode="&#xdb;" horiz-adv-x="633" 
d="M345 812l111 -117l-30 -35l-98 99l-91 -99l-31 35l108 117h31zM97 616h57v-420c0 -90 32 -162 162 -162c131 0 163 72 163 162v420h58v-424c0 -105 -44 -207 -221 -207c-175 0 -219 102 -219 207v424z" />
    <glyph glyph-name="Ugrave" unicode="&#xd9;" horiz-adv-x="633" 
d="M409 720l-23 -46l-177 86l24 50zM97 616h57v-420c0 -90 32 -162 162 -162c131 0 163 72 163 162v420h58v-424c0 -105 -44 -207 -221 -207c-175 0 -219 102 -219 207v424z" />
    <glyph glyph-name="macron" unicode="&#xaf;" horiz-adv-x="275" 
d="M30 559v49h211v-49h-211z" />
    <glyph glyph-name="breve" unicode="&#x2d8;" horiz-adv-x="329" 
d="M23 675l41 10c7 -44 46 -99 97 -99c52 0 91 55 103 101l39 -12c-14 -79 -63 -138 -142 -138c-81 0 -127 61 -138 138z" />
    <glyph glyph-name="dotaccent" unicode="&#x2d9;" horiz-adv-x="196" 
d="M51 597c0 27 22 49 49 49s49 -22 49 -49s-22 -49 -49 -49s-49 22 -49 49z" />
    <glyph glyph-name="hungarumlaut" unicode="&#x2dd;" horiz-adv-x="267" 
d="M76 523l-44 21l67 139l48 -25zM189 523l-45 21l68 139l47 -25z" />
    <glyph glyph-name="ogonek" unicode="&#x2db;" horiz-adv-x="287" 
d="M206 -135l18 -32c-28 -21 -53 -27 -81 -27c-57 0 -92 38 -92 95c0 61 52 100 150 132l12 -37c-78 -27 -117 -58 -117 -95c0 -31 22 -53 52 -53c19 0 39 2 58 17z" />
    <glyph glyph-name="subcomma" horiz-adv-x="272" 
d="M105 -285l-22 26c37 29 53 51 59 85h-2c-27 0 -49 22 -49 49c0 28 22 50 49 50c33 0 50 -27 50 -67c-1 -58 -33 -108 -85 -143z" />
    <glyph glyph-name="macron.case" horiz-adv-x="273" 
d="M30 699v50h211v-50h-211z" />
    <glyph glyph-name="breve.case" horiz-adv-x="329" 
d="M19 800l42 13c7 -41 46 -93 97 -93c52 0 92 50 103 92l38 -12c-14 -73 -62 -129 -141 -129c-81 0 -127 54 -139 129z" />
    <glyph glyph-name="dotaccent.case" horiz-adv-x="180" 
d="M44 729c0 27 22 49 49 49s49 -22 49 -49s-22 -49 -49 -49s-49 22 -49 49z" />
    <glyph glyph-name="hungarumlaut.case" horiz-adv-x="266" 
d="M85 662l-45 22l67 139l48 -25zM198 662l-45 22l67 139l48 -25z" />
    <glyph glyph-name="currency" unicode="&#xa4;" horiz-adv-x="639" 
d="M565 122l-39 -40l-82 83c-39 -31 -78 -45 -124 -45c-44 0 -80 14 -123 43l-82 -81l-39 40l81 81c-30 38 -45 78 -45 123c0 44 14 81 44 122l-83 81l40 40l82 -80c42 30 79 43 125 43s82 -13 124 -43l82 80l39 -40l-81 -80c30 -42 43 -78 43 -123c0 -46 -13 -80 -43 -122
c3 -3 80 -80 81 -82zM465 325c0 79 -66 147 -146 147c-78 0 -144 -66 -144 -146s66 -145 144 -145c81 0 146 65 146 144z" />
    <glyph glyph-name="estimated" unicode="&#x212e;" horiz-adv-x="804" 
d="M187 284v-169c67 -61 133 -93 223 -93c81 0 172 40 223 90h52c-64 -75 -161 -125 -276 -125c-198 0 -342 139 -342 322c0 182 144 322 342 322s342 -140 342 -322v-25h-564zM187 318h444v189c-65 64 -137 90 -221 90c-86 0 -158 -28 -223 -94v-185z" />
    <glyph glyph-name="c_t" horiz-adv-x="797" 
d="M59 225c0 143 85 236 208 240c-15 26 -19 47 -19 76c0 60 58 145 194 145c127 0 192 -61 192 -199v-35h107v-47h-107v-286c0 -53 16 -87 60 -87c22 0 37 6 69 21v-43c-33 -21 -65 -25 -88 -25c-74 0 -96 65 -96 131v289h-60v37l60 9l2 36c0 118 -44 158 -139 158
c-106 0 -150 -60 -150 -109c0 -20 2 -42 23 -74c49 -6 84 -24 107 -48l-23 -40c-30 26 -66 44 -121 44c-107 0 -161 -89 -161 -192c0 -104 52 -194 156 -194c59 0 94 16 123 42l22 -37c-30 -31 -77 -52 -148 -52c-138 0 -211 111 -211 240z" />
    <glyph glyph-name="c_h" horiz-adv-x="1000" 
d="M59 225c0 132 73 222 181 237c-14 15 -20 31 -20 51c0 87 159 135 359 171l56 9v-299c43 43 94 71 158 71c65 0 123 -29 123 -122v-343h-55v339c0 59 -37 78 -74 78c-58 0 -113 -30 -152 -77v-340h-55v638c-127 -17 -310 -72 -310 -131c0 -15 10 -29 27 -43
c58 -4 99 -23 125 -50l-23 -40c-30 26 -66 44 -121 44c-107 0 -161 -89 -161 -192c0 -104 52 -194 156 -194c59 0 94 16 123 42l22 -37c-30 -31 -77 -52 -148 -52c-138 0 -211 111 -211 240z" />
    <glyph glyph-name="s_h" horiz-adv-x="947" 
d="M357 436l-11 -43c-44 19 -86 27 -119 27c-45 0 -94 -12 -94 -63c0 -97 245 -114 245 -250c0 -77 -76 -122 -168 -122c-68 0 -116 22 -163 55l15 46c45 -35 87 -54 145 -54c61 0 113 26 113 71c0 102 -245 111 -245 250c0 71 52 102 111 110c-13 15 -19 31 -19 50
c0 87 158 135 359 171l56 9v-299c43 43 94 71 158 71c65 0 123 -29 123 -122v-343h-55v339c0 59 -37 78 -74 78c-58 0 -113 -30 -152 -77v-340h-55v638c-127 -17 -310 -73 -310 -131c0 -16 10 -30 28 -43c41 -3 71 -13 112 -28z" />
    <glyph glyph-name="c_k" horiz-adv-x="956" 
d="M59 225c0 132 73 222 181 237c-14 15 -20 31 -20 51c0 87 158 135 358 171l57 9v-412h45l163 171h67l-182 -191h1l200 -261h-68l-176 233h-50v-233h-55v638c-127 -17 -310 -72 -310 -131c0 -15 10 -29 27 -43c58 -4 99 -23 125 -50l-23 -40c-30 26 -66 44 -121 44
c-107 0 -161 -89 -161 -192c0 -104 52 -194 156 -194c59 0 94 16 123 42l22 -37c-30 -31 -77 -52 -148 -52c-138 0 -211 111 -211 240z" />
    <glyph glyph-name="s_k" horiz-adv-x="903" 
d="M790 452h67l-182 -191h1l200 -261h-68l-176 233h-50v-233h-55v638c-127 -17 -310 -73 -310 -131c0 -16 10 -30 28 -43c41 -3 71 -13 112 -28l-11 -43c-44 19 -86 27 -119 27c-45 0 -94 -12 -94 -63c0 -97 245 -114 245 -250c0 -77 -76 -122 -168 -122
c-67 0 -116 20 -163 55l15 46c45 -35 87 -54 145 -54c61 0 113 26 113 71c0 102 -245 111 -245 250c0 71 52 102 111 110c-13 15 -19 30 -19 49c0 88 157 139 357 172l58 9v-412h45z" />
    <glyph glyph-name="s_l" horiz-adv-x="674" 
d="M357 436l-11 -43c-44 19 -86 27 -119 27c-45 0 -94 -12 -94 -63c0 -97 245 -114 245 -250c0 -77 -76 -122 -168 -122c-67 0 -114 21 -163 55l15 46c45 -35 87 -54 145 -54c61 0 113 26 113 71c0 102 -245 111 -245 250c0 71 52 102 111 110c-13 15 -19 30 -19 49
c0 88 157 138 357 172l58 9v-693h-55v638c-127 -17 -310 -73 -310 -131c0 -16 10 -30 28 -43c41 -3 71 -13 112 -28z" />
    <glyph glyph-name="c_l" horiz-adv-x="727" 
d="M59 225c0 132 73 222 181 237c-14 15 -20 31 -20 51c0 87 159 135 359 171l56 9v-693h-55v638c-127 -17 -310 -72 -310 -131c0 -15 10 -29 27 -43c58 -4 99 -23 125 -50l-23 -40c-30 26 -66 44 -121 44c-107 0 -161 -89 -161 -192c0 -104 52 -194 156 -194
c59 0 94 16 123 42l22 -37c-30 -31 -77 -52 -148 -52c-138 0 -211 111 -211 240z" />
    <glyph glyph-name="f_h" horiz-adv-x="789" 
d="M705 0h-56v339c0 59 -36 78 -74 78c-57 0 -111 -30 -151 -76v-341h-56v618h-82c-105 0 -123 -54 -123 -139v-29h106v-47h-106v-403h-55v403h-61v35l61 11v28c0 113 29 186 178 186h138v-269c42 44 93 71 157 71c65 0 124 -29 124 -122v-343z" />
    <glyph glyph-name="a.smcp" 
d="M39 0l182 483h61l191 -483h-55l-59 148h-210l-56 -148h-54zM252 416l-85 -221h174z" />
    <glyph glyph-name="b.smcp" horiz-adv-x="485" 
d="M94 483h150c104 0 145 -46 145 -111c0 -43 -16 -83 -48 -109c59 -22 86 -68 86 -124c0 -79 -60 -139 -169 -139h-164v483zM243 232h-92v-185h106c70 0 109 40 109 92c0 50 -31 91 -117 93h-6zM245 436h-94v-157h91h4c59 2 82 40 82 85c0 41 -23 72 -83 72z" />
    <glyph glyph-name="c.smcp" horiz-adv-x="526" 
d="M477 446l-24 -40c-33 24 -76 42 -145 42c-119 0 -183 -95 -183 -209c0 -113 62 -204 179 -204c69 0 113 16 145 42l25 -39c-38 -30 -95 -50 -172 -50c-159 0 -238 114 -238 251c0 140 85 256 242 256c78 0 134 -19 171 -49z" />
    <glyph glyph-name="d.smcp" horiz-adv-x="555" 
d="M151 436v-389h77c112 0 204 56 204 188c0 141 -92 201 -204 201h-77zM94 0v483h138c149 0 261 -79 261 -248c0 -161 -112 -235 -261 -235h-138z" />
    <glyph glyph-name="e.smcp" horiz-adv-x="449" 
d="M385 483v-47h-234v-161h182v-47h-182v-181h247v-47h-304v483h291z" />
    <glyph glyph-name="f.smcp" horiz-adv-x="430" 
d="M385 483v-47h-234v-161h182v-47h-182v-228h-57v483h291z" />
    <glyph glyph-name="g.smcp" horiz-adv-x="546" 
d="M417 234h59v-194c-37 -32 -90 -52 -164 -52c-161 0 -252 109 -252 251c0 140 87 256 247 256c76 0 132 -19 169 -49l-24 -40c-34 24 -76 42 -145 42c-121 0 -185 -95 -185 -209c0 -113 68 -204 193 -204c44 0 76 8 102 22v177z" />
    <glyph glyph-name="h.smcp" horiz-adv-x="566" 
d="M415 483h57v-483h-57v231h-264v-231h-57v483h57v-205h264v205z" />
    <glyph glyph-name="i.smcp" horiz-adv-x="245" 
d="M94 483h57v-483h-57v483z" />
    <glyph glyph-name="j.smcp" horiz-adv-x="245" 
d="M94 483h58v-442c0 -113 -27 -158 -152 -188l-14 44c89 23 108 54 108 142v444z" />
    <glyph glyph-name="k.smcp" horiz-adv-x="480" 
d="M447 0h-68l-167 220h-62v-220h-56v483h56v-217h58l163 217h63l-176 -236z" />
    <glyph glyph-name="l.smcp" horiz-adv-x="420" 
d="M384 47v-47h-290v483h57v-436h233z" />
    <glyph glyph-name="m.smcp" horiz-adv-x="677" 
d="M516 483h63l7 -483h-58l-6 378l-164 -378h-39l-165 373l-6 -373h-57l7 483h63l178 -413z" />
    <glyph glyph-name="n.smcp" horiz-adv-x="569" 
d="M418 483h58v-483h-52l-273 389v-389h-57v483h51l273 -394v394z" />
    <glyph glyph-name="o.smcp" horiz-adv-x="584" 
d="M302 35c100 0 161 91 161 204c0 119 -61 209 -166 209c-112 0 -175 -86 -175 -200c0 -122 65 -213 180 -213zM302 -12c-156 0 -241 108 -241 260c0 139 85 247 236 247c143 0 227 -111 227 -256c0 -143 -82 -251 -222 -251z" />
    <glyph glyph-name="p.smcp" horiz-adv-x="444" 
d="M94 483h109c139 0 192 -60 192 -146c0 -84 -60 -150 -170 -150h-74v-187h-57v483zM205 436h-54v-202h71c72 0 112 44 112 100c0 58 -34 102 -129 102z" />
    <glyph glyph-name="q.smcp" horiz-adv-x="584" 
d="M524 239c0 -117 -55 -210 -151 -240c96 -53 184 -92 284 -50l9 -44c-140 -61 -248 14 -375 83c-147 5 -230 110 -230 260c0 139 85 247 236 247c143 0 227 -111 227 -256zM302 35c99 0 161 91 161 204c0 119 -61 209 -166 209c-112 0 -175 -86 -175 -200
c0 -122 65 -213 180 -213z" />
    <glyph glyph-name="r.smcp" horiz-adv-x="472" 
d="M430 0h-69l-128 199h-6h-76v-199h-57v483h122c129 0 180 -57 180 -138c0 -65 -36 -117 -103 -137zM218 436h-67v-190h73c72 0 111 42 111 96c0 52 -26 94 -117 94z" />
    <glyph glyph-name="s.smcp" horiz-adv-x="436" 
d="M53 35l19 44c42 -25 93 -44 139 -44c59 0 105 25 105 83c0 115 -245 104 -245 256c0 45 33 120 158 120c53 0 89 -10 136 -33l-15 -45c-45 22 -83 31 -121 31c-82 0 -99 -46 -99 -72c0 -109 248 -102 248 -256c1 -90 -77 -131 -169 -131c-57 0 -106 19 -156 47z" />
    <glyph glyph-name="t.smcp" horiz-adv-x="444" 
d="M409 483v-47h-157v-436h-59v436h-158v47h374z" />
    <glyph glyph-name="u.smcp" horiz-adv-x="552" 
d="M88 483h58v-325c0 -68 26 -123 129 -123c105 0 131 55 131 123v325h58v-327c0 -85 -37 -168 -189 -168c-148 0 -187 82 -187 168v327z" />
    <glyph glyph-name="v.smcp" horiz-adv-x="504" 
d="M282 0h-61l-183 483h60l154 -420l156 420h61z" />
    <glyph glyph-name="w.smcp" horiz-adv-x="787" 
d="M262 0h-62l-160 483h60l132 -406l131 406h61l-1 -2l135 -404l129 406h60l-159 -483h-62l-133 392z" />
    <glyph glyph-name="x.smcp" horiz-adv-x="466" 
d="M102 0h-64l163 247l-154 236h66l121 -186l123 186h63l-155 -235l162 -248h-65l-130 198z" />
    <glyph glyph-name="y.smcp" horiz-adv-x="442" 
d="M250 197v-197h-58v198l-156 285h63l123 -228l122 228h62z" />
    <glyph glyph-name="z.smcp" horiz-adv-x="442" 
d="M318 436h-252v47h316v-47l-268 -389h273v-47h-337v47z" />
    <glyph glyph-name="caron.smcp" horiz-adv-x="329" 
d="M147 548l-115 105l30 33l102 -89l92 85l29 -32l-108 -102h-30z" />
    <glyph glyph-name="breve.smcp" horiz-adv-x="329" 
d="M20 681l41 12c7 -40 47 -92 98 -92c52 0 91 50 103 92l38 -12c-14 -73 -63 -130 -142 -130s-128 57 -138 130z" />
    <glyph glyph-name="dotaccent.smcp" horiz-adv-x="190" 
d="M50 638c0 27 22 49 49 49c26 0 48 -22 48 -49s-22 -49 -48 -49c-28 0 -49 22 -49 49z" />
    <glyph glyph-name="ring.smcp" horiz-adv-x="250" 
d="M43 636c0 43 30 78 82 78c49 0 82 -34 82 -78c0 -46 -33 -79 -82 -79c-52 0 -82 33 -82 79zM125 590c21 0 39 12 39 45c0 34 -19 47 -39 47c-21 0 -39 -15 -39 -47c0 -34 18 -45 39 -45z" />
    <glyph glyph-name="tilde.smcp" horiz-adv-x="314" 
d="M204 572c-47 0 -66 46 -98 46c-18 0 -37 -9 -56 -47l-36 27c30 52 56 70 95 70c38 0 61 -46 96 -46c18 0 39 11 58 49l35 -26c-28 -53 -54 -73 -94 -73z" />
    <glyph glyph-name="hungarumlaut.smcp" horiz-adv-x="235" 
d="M67 544l-44 22l67 139l48 -26zM180 544l-44 22l67 139l48 -26z" />
    <glyph glyph-name="grave.smcp" horiz-adv-x="235" 
d="M219 585l-24 -45l-176 86l24 49z" />
    <glyph glyph-name="dieresis.smcp" horiz-adv-x="331" 
d="M35 621c0 27 22 49 49 49s49 -22 49 -49s-22 -49 -49 -49s-49 22 -49 49zM199 621c0 27 22 49 49 49c26 0 48 -22 48 -49s-22 -49 -48 -49c-27 0 -49 22 -49 49z" />
    <glyph glyph-name="macron.smcp" horiz-adv-x="273" 
d="M31 589v49h211v-49h-211z" />
    <glyph glyph-name="acute.smcp" horiz-adv-x="235" 
d="M41 545l-23 45l176 90l23 -49z" />
    <glyph glyph-name="circumflex.smcp" horiz-adv-x="329" 
d="M171 692l112 -107l-30 -35l-99 89l-91 -89l-30 34l108 108h30z" />
    <glyph glyph-name="germandbls.smcp" horiz-adv-x="871" 
d="M53 35l19 44c42 -25 93 -44 139 -44c59 0 105 25 105 83c0 115 -245 104 -245 256c0 45 33 120 158 120c53 0 89 -10 136 -33l-15 -45c-45 22 -83 31 -121 31c-82 0 -99 -46 -99 -72c0 -109 248 -102 248 -256c1 -90 -77 -131 -169 -131c-57 0 -106 19 -156 47zM488 35
l19 44c42 -25 93 -44 139 -44c59 0 105 25 105 83c0 115 -245 104 -245 256c0 45 33 120 158 120c53 0 89 -10 136 -33l-15 -45c-45 22 -83 31 -121 31c-82 0 -99 -46 -99 -72c0 -109 248 -102 248 -256c1 -90 -77 -131 -169 -131c-57 0 -106 19 -156 47z" />
    <glyph glyph-name="ae.smcp" horiz-adv-x="685" 
d="M326 496h294v-47h-233v-174h182v-47h-182v-181h247v-47h-305v157h-155l-97 -157h-59zM202 202h127v205z" />
    <glyph glyph-name="s_t" unicode="&#xfb06;" horiz-adv-x="744" 
d="M528 487c0 118 -44 158 -139 158c-106 0 -150 -59 -150 -108c0 -20 2 -43 24 -75c33 -5 60 -14 94 -26l-11 -43c-44 19 -86 27 -119 27c-45 0 -94 -12 -94 -63c0 -97 245 -114 245 -250c0 -77 -76 -122 -168 -122c-67 0 -114 21 -163 55l15 46c45 -35 87 -54 145 -54
c61 0 113 26 113 71c0 102 -245 111 -245 250c0 83 71 111 140 112c-15 27 -20 48 -20 77c0 60 58 144 194 144c127 0 192 -61 192 -199v-35h107v-47h-107v-286c0 -53 16 -87 60 -87c22 0 37 6 69 21v-43c-33 -21 -65 -25 -88 -25c-75 0 -96 67 -96 131v289h-60v37l60 9z
" />
    <glyph glyph-name="thorn.smcp" horiz-adv-x="443" 
d="M94 483h57v-87h52c139 0 192 -60 192 -146c0 -85 -60 -150 -170 -150h-74v-100h-57v483zM205 349h-54v-202h71c72 0 112 43 112 100s-34 102 -129 102z" />
    <glyph glyph-name="one.onum" horiz-adv-x="390" 
d="M87 313l-31 38l130 113l1 -1h55v-416h105v-47h-267v47h107v353z" />
    <glyph glyph-name="two.onum" horiz-adv-x="475" 
d="M106 353l-29 34c43 48 87 78 163 78c115 0 151 -79 151 -129c0 -133 -259 -178 -270 -289h293v-47h-352v32c0 152 269 191 269 301c0 32 -20 85 -97 85c-59 0 -92 -21 -128 -65z" />
    <glyph glyph-name="three.onum" horiz-adv-x="474" 
d="M101 378l-25 35c30 28 73 52 148 52c137 0 163 -94 163 -151c0 -52 -23 -117 -88 -152c75 -33 116 -98 116 -161c1 -67 -35 -181 -197 -181c-83 0 -123 24 -174 69l27 36c42 -37 75 -59 143 -59c116 0 145 85 144 136c0 66 -52 132 -160 136h-8h-15v46h15
c108 0 141 74 141 130c0 40 -18 104 -109 104c-55 0 -96 -16 -121 -40z" />
    <glyph glyph-name="four.onum" horiz-adv-x="502" 
d="M299 452h56v-416h102v-47h-102v-178h-56v178h-263v47zM94 36h205v324z" />
    <glyph glyph-name="five.onum" horiz-adv-x="473" 
d="M121 142h-37l33 309h276v-46h-230l-24 -209c32 20 67 32 107 32c106 0 165 -87 165 -189c0 -142 -77 -219 -186 -219c-70 0 -126 20 -175 73l28 37c43 -47 90 -63 143 -63c77 0 134 60 134 173c0 76 -43 141 -116 141c-37 0 -68 -9 -118 -39z" />
    <glyph glyph-name="six.onum" horiz-adv-x="516" 
d="M448 600l-18 -42c-27 13 -66 26 -108 26c-92 0 -177 -88 -193 -253c40 35 89 60 142 60c97 0 173 -59 173 -192c0 -131 -78 -214 -181 -214c-118 0 -193 125 -193 290c0 231 121 356 252 356c53 0 97 -16 126 -31zM271 344c-52 0 -106 -29 -144 -67v-2
c0 -139 54 -243 135 -243c72 0 126 63 126 166c0 102 -51 146 -117 146z" />
    <glyph glyph-name="seven.onum" horiz-adv-x="440" 
d="M135 -187h-64l281 592h-308v47h369v-30z" />
    <glyph glyph-name="eight.onum" horiz-adv-x="513" 
d="M258 -15c-103 0 -192 55 -192 151c0 89 63 146 139 186c-66 51 -101 99 -101 162c0 95 75 147 160 147c90 0 158 -53 158 -143c0 -87 -64 -132 -124 -171c88 -61 148 -114 148 -194c0 -79 -80 -138 -188 -138zM390 128c0 62 -58 105 -139 162c-79 -38 -128 -93 -128 -153
c0 -67 64 -105 134 -105c76 0 133 42 133 96zM161 483c0 -51 32 -90 92 -134c53 32 112 70 112 138c0 52 -34 97 -100 97c-61 0 -104 -40 -104 -101z" />
    <glyph glyph-name="nine.onum" horiz-adv-x="500" 
d="M73 -159l18 43c26 -11 60 -20 97 -20c89 0 174 89 189 255c-40 -34 -90 -59 -141 -59c-98 0 -174 58 -174 191c0 132 80 214 185 214c112 0 189 -122 189 -290c0 -232 -120 -358 -250 -358c-45 0 -85 11 -113 24zM236 106c51 0 106 28 144 67v2c0 140 -54 243 -133 243
c-74 0 -128 -62 -128 -166c0 -101 51 -146 117 -146z" />
    <glyph glyph-name="zero.onum" horiz-adv-x="548" 
d="M69 225c0 133 67 240 205 240s205 -108 205 -240c0 -130 -67 -240 -205 -240c-137 0 -205 109 -205 240zM127 225c0 -104 48 -193 147 -193s147 89 147 193c0 107 -48 193 -147 193s-147 -86 -147 -193z" />
    <glyph glyph-name="zero.numr" horiz-adv-x="328" 
d="M163 338c51 0 67 53 67 124c0 68 -17 124 -67 124c-48 0 -64 -56 -64 -124c0 -71 16 -124 64 -124zM163 297c-90 0 -117 70 -117 165c0 91 27 165 117 165c91 0 120 -74 120 -165c0 -95 -29 -165 -120 -165z" />
    <glyph glyph-name="zero.subs" horiz-adv-x="328" 
d="M163 -87c51 0 67 53 67 124c0 68 -17 124 -67 124c-48 0 -64 -56 -64 -124c0 -71 16 -124 64 -124zM163 -128c-90 0 -117 70 -117 165c0 91 27 165 117 165c91 0 120 -74 120 -165c0 -95 -29 -165 -120 -165z" />
    <glyph glyph-name="one.numr" horiz-adv-x="259" 
d="M61 523l-26 31l79 65h52v-274h59v-40h-169v40h58v221z" />
    <glyph glyph-name="one.subs" horiz-adv-x="260" 
d="M61 98l-26 31l79 65h52v-274h59v-40h-169v40h58v221z" />
    <glyph glyph-name="two.numr" horiz-adv-x="306" 
d="M68 555l-24 30c27 26 57 42 105 42c83 0 109 -54 108 -87c-1 -94 -141 -115 -157 -195h164v-40h-221v17c0 121 157 144 158 216c0 18 -11 48 -59 48c-30 0 -52 -10 -74 -31z" />
    <glyph glyph-name="two.subs" horiz-adv-x="307" 
d="M68 130l-24 30c27 26 57 42 105 42c83 0 109 -54 108 -87c-1 -94 -141 -115 -157 -195h164v-40h-221v17c0 121 157 144 158 216c0 18 -11 48 -59 48c-30 0 -52 -10 -74 -31z" />
    <glyph glyph-name="three.numr" horiz-adv-x="301" 
d="M72 569l-21 29c19 16 43 29 90 29c86 0 103 -51 103 -81c0 -25 -13 -55 -44 -75c37 -19 59 -49 59 -79c1 -35 -20 -94 -118 -94c-44 0 -73 11 -105 36l22 31c23 -17 43 -27 81 -27c54 0 67 35 67 56c0 27 -27 54 -82 56h-7h-8v40h8h6c51 2 67 31 67 53c0 17 -8 44 -53 44
c-29 0 -51 -8 -65 -18z" />
    <glyph glyph-name="three.subs" horiz-adv-x="302" 
d="M72 144l-21 29c19 16 43 29 90 29c86 0 103 -51 103 -81c0 -25 -13 -55 -44 -75c37 -19 59 -49 59 -79c1 -35 -20 -94 -118 -94c-44 0 -73 11 -105 36l22 31c23 -17 43 -27 81 -27c54 0 67 35 67 56c0 27 -27 54 -82 56h-7h-8v40h8h6c51 2 67 31 67 53c0 17 -8 44 -53 44
c-29 0 -51 -8 -65 -18z" />
    <glyph glyph-name="four.numr" horiz-adv-x="320" 
d="M186 619h52v-201h46v-40h-46v-73h-52v73h-150v40zM88 418h98v130z" />
    <glyph glyph-name="four.subs" horiz-adv-x="321" 
d="M186 194h52v-201h46v-40h-46v-73h-52v73h-150v40zM88 -7h98v130z" />
    <glyph glyph-name="five.numr" horiz-adv-x="301" 
d="M85 450h-31l19 169h176v-40h-133l-10 -82c17 8 34 13 54 13c63 0 99 -46 99 -101c0 -73 -46 -112 -111 -112c-46 0 -79 10 -110 40l26 33c22 -22 47 -30 76 -30c36 0 64 24 64 69c0 33 -22 60 -56 60c-20 0 -36 -3 -63 -19z" />
    <glyph glyph-name="five.subs" horiz-adv-x="302" 
d="M85 25h-31l19 169h176v-40h-133l-10 -82c17 8 34 13 54 13c63 0 99 -46 99 -101c0 -73 -46 -112 -111 -112c-46 0 -79 10 -110 40l26 33c22 -22 47 -30 76 -30c36 0 64 24 64 69c0 33 -22 60 -56 60c-20 0 -36 -3 -63 -19z" />
    <glyph glyph-name="six.numr" horiz-adv-x="314" 
d="M264 609l-17 -35c-14 6 -35 12 -59 12c-39 0 -76 -34 -87 -99c20 12 44 21 68 21c59 0 104 -31 104 -100c0 -68 -47 -111 -110 -111c-73 0 -119 65 -119 148c0 118 69 182 144 182c32 0 59 -9 76 -18zM169 467c-25 0 -51 -10 -71 -25c0 -59 26 -104 64 -104
c33 0 57 25 57 68s-22 61 -50 61z" />
    <glyph glyph-name="six.subs" horiz-adv-x="315" 
d="M264 184l-17 -35c-14 6 -35 12 -59 12c-39 0 -76 -34 -87 -99c20 12 44 21 68 21c59 0 104 -31 104 -100c0 -68 -47 -111 -110 -111c-73 0 -119 65 -119 148c0 118 69 182 144 182c32 0 59 -9 76 -18zM169 42c-25 0 -51 -10 -71 -25c0 -59 26 -104 64 -104
c33 0 57 25 57 68s-22 61 -50 61z" />
    <glyph glyph-name="seven.numr" horiz-adv-x="282" 
d="M119 305h-64l136 274h-152v40h215v-15z" />
    <glyph glyph-name="seven.subs" horiz-adv-x="282" 
d="M119 -120h-64l136 274h-152v40h215v-15z" />
    <glyph glyph-name="eight.numr" horiz-adv-x="306" 
d="M153 297c-59 0 -110 28 -110 77c0 44 30 73 66 94c-34 26 -48 51 -48 80c0 51 44 79 96 79c51 0 93 -28 93 -77c0 -42 -28 -66 -58 -86c46 -33 71 -57 71 -94c0 -43 -47 -73 -110 -73zM210 376c0 22 -24 40 -59 64c-32 -15 -54 -36 -54 -61c0 -26 27 -41 56 -41
c31 0 57 16 57 38zM114 547c0 -19 11 -34 38 -55c22 13 46 29 46 57c0 20 -14 37 -41 37c-25 0 -43 -16 -43 -39z" />
    <glyph glyph-name="eight.subs" horiz-adv-x="306" 
d="M153 -128c-59 0 -110 28 -110 77c0 44 30 73 66 94c-34 26 -48 51 -48 80c0 51 44 79 96 79c51 0 93 -28 93 -77c0 -42 -28 -66 -58 -86c46 -33 71 -57 71 -94c0 -43 -47 -73 -110 -73zM210 -49c0 22 -24 40 -59 64c-32 -15 -54 -36 -54 -61c0 -26 27 -41 56 -41
c31 0 57 16 57 38zM114 122c0 -19 11 -34 38 -55c22 13 46 29 46 57c0 20 -14 37 -41 37c-25 0 -43 -16 -43 -39z" />
    <glyph glyph-name="nine.numr" horiz-adv-x="315" 
d="M51 315l17 34c14 -5 35 -11 59 -11c38 0 75 34 86 99c-20 -12 -43 -21 -67 -21c-59 0 -104 31 -104 100c0 68 47 111 111 111c72 0 118 -62 118 -148c0 -118 -69 -182 -144 -182c-32 0 -59 9 -76 18zM146 458c24 0 50 9 71 24c-1 59 -26 104 -64 104
c-33 0 -57 -25 -57 -68s23 -60 50 -60z" />
    <glyph glyph-name="nine.subs" horiz-adv-x="315" 
d="M51 -110l17 34c14 -5 35 -11 59 -11c38 0 75 34 86 99c-20 -12 -43 -21 -67 -21c-59 0 -104 31 -104 100c0 68 47 111 111 111c72 0 118 -62 118 -148c0 -118 -69 -182 -144 -182c-32 0 -59 9 -76 18zM146 33c24 0 50 9 71 24c-1 59 -26 104 -64 104
c-33 0 -57 -25 -57 -68s23 -60 50 -60z" />
    <glyph glyph-name="exclamdown.smcp" horiz-adv-x="266" 
d="M162 -53h-59l5 366h49zM93 429c0 21 18 39 40 39c23 0 42 -18 42 -39c0 -22 -19 -39 -42 -39c-22 0 -40 17 -40 39z" />
    <glyph glyph-name="cent.smcp" horiz-adv-x="426" 
d="M59 177c0 97 57 174 153 187v78h41v-76c52 -2 89 -19 113 -41l-23 -37c-25 20 -53 33 -98 33c-85 0 -127 -67 -127 -143c0 -77 40 -145 124 -145c47 0 75 12 98 33l23 -37c-24 -22 -59 -38 -110 -40v-78h-41v79c-101 11 -153 95 -153 187z" />
    <glyph glyph-name="ordfeminine.smcp" horiz-adv-x="333" 
d="M107 457l-20 27c22 16 51 28 83 28c44 0 82 -22 82 -85v-146h-46v26c-25 -19 -46 -30 -72 -30c-37 0 -65 18 -65 56c0 46 44 57 137 82v11c0 35 -19 48 -40 48c-20 0 -43 -6 -59 -17zM140 314c19 0 40 5 66 25v49c-64 -22 -90 -30 -90 -52c0 -15 10 -22 24 -22z" />
    <glyph glyph-name="questiondown.smcp" horiz-adv-x="371" 
d="M297 49l32 -29c-35 -41 -84 -70 -142 -70c-92 0 -142 61 -142 123c0 116 142 107 137 270h51c4 -170 -133 -182 -133 -266c0 -41 30 -82 91 -82c43 0 79 22 106 54zM251 421c0 -22 -19 -40 -43 -40c-23 0 -43 18 -43 40s20 40 43 40c24 0 43 -18 43 -40z" />
    <glyph glyph-name="perthousand.smcp" horiz-adv-x="938" 
d="M144 2l326 508l43 -27l-326 -508zM157 233c-64 0 -109 51 -109 131c0 79 45 131 109 131c65 0 109 -52 109 -131c0 -80 -44 -131 -109 -131zM157 272c35 0 58 36 58 92s-24 92 -58 92c-35 0 -59 -36 -59 -92s24 -92 59 -92zM499 -12c-64 0 -109 51 -109 131
c0 79 44 131 109 131c64 0 109 -52 109 -131c0 -80 -45 -131 -109 -131zM499 27c34 0 58 36 58 92s-24 92 -58 92s-59 -35 -59 -92c0 -56 25 -92 59 -92zM783 -12c-64 0 -109 51 -109 131c0 79 45 131 109 131c65 0 109 -52 109 -131c0 -80 -44 -131 -109 -131zM783 27
c34 0 59 36 59 92s-25 92 -59 92c-35 0 -59 -35 -59 -92c0 -56 24 -92 59 -92z" />
    <glyph glyph-name="Euro.smcp" horiz-adv-x="627" 
d="M383 313l-15 -40h-307l15 40h81c26 109 111 182 234 182c77 0 134 -19 171 -49l-24 -40c-33 24 -76 42 -146 42c-93 0 -153 -57 -175 -135h166zM349 217l-15 -41h-120c20 -82 82 -141 181 -141c67 0 108 16 139 42l25 -39c-37 -30 -91 -50 -165 -50
c-135 0 -217 78 -240 188h-95l15 41h275z" />
    <glyph glyph-name="zero.pnum" horiz-adv-x="570" 
d="M283 32c119 0 157 117 157 276c0 153 -38 276 -157 276c-116 0 -152 -123 -152 -276c0 -158 36 -276 152 -276zM283 -15c-159 0 -209 136 -209 323c0 179 50 323 209 323c162 0 214 -144 214 -323c0 -186 -52 -323 -214 -323z" />
    <glyph glyph-name="one.pnum" horiz-adv-x="434" 
d="M72 456l-31 37l184 124l1 -1h55v-569h113v-47h-284v47h115v511z" />
    <glyph glyph-name="two.pnum" horiz-adv-x="516" 
d="M102 519l-29 34c46 48 97 78 180 78c140 0 184 -104 182 -166c-4 -188 -314 -246 -323 -418h344v-47h-396v34c0 213 315 265 318 430c0 45 -27 120 -131 120c-65 0 -106 -21 -145 -65z" />
    <glyph glyph-name="three.pnum" 
d="M105 546l-24 35c32 28 78 52 159 52c145 0 173 -94 173 -151c0 -52 -25 -118 -96 -153c80 -33 123 -98 123 -161c1 -66 -36 -181 -206 -181c-89 0 -132 28 -185 70l27 36c44 -37 82 -59 154 -59c124 0 155 85 154 135c0 68 -64 136 -189 136h-15v47h15
c125 0 161 73 161 129c0 40 -19 105 -118 105c-59 0 -105 -16 -133 -40z" />
    <glyph glyph-name="four.pnum" horiz-adv-x="533" 
d="M334 616h55v-403h95v-46h-95v-167h-55v167h-291v46zM101 213h233v323z" />
    <glyph glyph-name="five.pnum" horiz-adv-x="505" 
d="M126 307h-37l33 309h301v-47h-255l-23 -208c36 20 73 32 118 32c112 0 175 -89 175 -193c0 -139 -81 -215 -195 -215c-72 0 -137 20 -187 73l28 39c45 -48 96 -65 155 -65c82 0 143 59 143 169c0 78 -47 145 -125 145c-42 0 -76 -9 -131 -39z" />
    <glyph glyph-name="six.pnum" horiz-adv-x="527" 
d="M448 600l-18 -42c-27 13 -66 26 -108 26c-93 0 -178 -88 -193 -255c43 36 98 62 157 62c98 0 176 -59 176 -192c0 -131 -83 -214 -192 -214c-111 0 -200 112 -200 290c0 231 121 356 252 356c53 0 97 -16 126 -31zM286 344c-58 0 -118 -29 -159 -68v-1
c0 -139 57 -243 143 -243c77 0 135 63 135 166c0 102 -53 146 -119 146z" />
    <glyph glyph-name="seven.pnum" horiz-adv-x="463" 
d="M160 0h-64l277 569h-328v47h388v-30z" />
    <glyph glyph-name="eight.pnum" horiz-adv-x="540" 
d="M272 -15c-104 0 -206 50 -206 151c0 94 70 143 148 184c-72 50 -114 101 -114 164c0 102 90 147 178 147c91 0 169 -53 169 -143c0 -87 -72 -134 -137 -171c97 -61 165 -110 165 -194c0 -79 -89 -138 -203 -138zM418 128c0 62 -65 106 -155 161
c-80 -37 -140 -82 -140 -152s77 -105 148 -105c81 0 147 42 147 96zM157 483c0 -52 41 -93 106 -136c61 31 127 71 127 140c0 56 -44 97 -111 97c-63 0 -122 -33 -122 -101z" />
    <glyph glyph-name="nine.pnum" horiz-adv-x="527" 
d="M79 16l18 43c27 -14 66 -27 108 -27c92 0 178 89 193 256c-44 -36 -99 -62 -157 -62c-98 0 -176 58 -176 191c0 132 83 214 192 214c119 0 200 -122 200 -290c0 -231 -121 -356 -252 -356c-53 0 -97 16 -126 31zM241 272c57 0 117 28 159 68v1c0 140 -57 243 -143 243
c-77 0 -135 -62 -135 -166c0 -101 53 -146 119 -146z" />
    <glyph glyph-name="zero.onum.pnum" horiz-adv-x="517" 
d="M69 225c0 132 60 240 189 240c128 0 190 -108 190 -240c0 -130 -62 -240 -190 -240s-189 110 -189 240zM127 225c0 -104 43 -193 131 -193c89 0 132 89 132 193c0 107 -43 193 -132 193s-131 -86 -131 -193z" />
    <glyph glyph-name="one.onum.pnum" horiz-adv-x="415" 
d="M76 313l-28 41l163 110l1 -1h55v-416h104v-47h-266v47h106v358z" />
    <glyph glyph-name="two.onum.pnum" horiz-adv-x="475" 
d="M106 353l-29 34c43 48 87 78 163 78c115 0 151 -79 151 -129c0 -133 -259 -178 -270 -289h293v-47h-352v32c0 152 269 191 269 301c0 32 -20 85 -97 85c-59 0 -92 -21 -128 -65z" />
    <glyph glyph-name="three.onum.pnum" horiz-adv-x="469" 
d="M100 378l-25 35c30 28 72 52 146 52c135 0 160 -93 160 -149c0 -53 -22 -120 -85 -155c73 -33 113 -99 113 -163c1 -66 -34 -180 -193 -180c-84 0 -123 26 -173 69l27 36c42 -37 74 -58 142 -58c114 0 142 84 141 135c0 66 -51 132 -156 136h-8h-15v46h15
c105 0 136 75 136 132c0 40 -17 104 -106 104c-54 0 -95 -16 -119 -40z" />
    <glyph glyph-name="four.onum.pnum" horiz-adv-x="494" 
d="M298 452h56v-410h94v-47h-94v-184h-56v184h-262v47zM94 42h204v319z" />
    <glyph glyph-name="five.onum.pnum" horiz-adv-x="472" 
d="M121 141h-37l33 311h275v-47h-229l-24 -209c32 21 66 33 106 33c106 0 166 -88 166 -190c0 -143 -78 -220 -187 -220c-69 0 -125 20 -174 72l30 40c42 -48 87 -63 140 -63c77 0 135 60 135 171c0 76 -44 141 -116 141c-37 0 -68 -9 -118 -39z" />
    <glyph glyph-name="six.onum.pnum" horiz-adv-x="513" 
d="M445 600l-18 -42c-25 13 -64 26 -105 26c-92 0 -178 -88 -194 -253c40 34 89 60 141 60c95 0 171 -59 171 -192c0 -131 -79 -214 -182 -214c-114 0 -188 125 -188 290c0 231 121 356 252 356c52 0 96 -16 123 -31zM264 344c-50 0 -102 -29 -138 -68v-1
c0 -139 55 -243 134 -243c70 0 124 63 124 166c0 102 -53 146 -120 146z" />
    <glyph glyph-name="seven.onum.pnum" horiz-adv-x="440" 
d="M135 -187h-64l281 592h-308v47h369v-30z" />
    <glyph glyph-name="eight.onum.pnum" horiz-adv-x="513" 
d="M258 -15c-103 0 -192 55 -192 151c0 89 63 146 139 186c-66 51 -101 99 -101 162c0 95 75 147 160 147c90 0 158 -53 158 -143c0 -87 -64 -132 -124 -171c88 -61 148 -114 148 -194c0 -79 -80 -138 -188 -138zM390 128c0 62 -58 105 -139 162c-79 -38 -128 -93 -128 -153
c0 -67 64 -105 134 -105c76 0 133 42 133 96zM161 483c0 -51 32 -90 92 -134c53 32 112 70 112 138c0 52 -34 97 -100 97c-61 0 -104 -40 -104 -101z" />
    <glyph glyph-name="nine.onum.pnum" horiz-adv-x="499" 
d="M74 -160l18 43c25 -10 57 -19 92 -19c92 0 179 89 194 256c-40 -35 -89 -60 -140 -60c-98 0 -176 58 -176 191c0 132 80 214 183 214c114 0 191 -123 191 -291c0 -232 -121 -357 -252 -357c-44 0 -81 10 -110 23zM238 106c51 0 104 28 142 67v1c0 140 -55 244 -135 244
c-72 0 -127 -62 -127 -166c0 -101 54 -146 120 -146z" />
    <glyph glyph-name="uni0412" unicode="&#x412;" horiz-adv-x="557" 
d="M103 616h175c123 0 171 -58 171 -138c0 -58 -21 -111 -64 -143c77 -27 110 -85 110 -158c0 -100 -71 -177 -200 -177h-192v616zM435 174c0 69 -40 125 -152 128h-9h-114v-253h134c90 0 141 56 141 125zM281 567h-121v-216h113c84 0 116 54 116 120c0 54 -29 96 -108 96z
" />
    <glyph glyph-name="uni0413" unicode="&#x413;" horiz-adv-x="425" 
d="M103 616h289v-49h-232v-567h-57v616z" />
    <glyph glyph-name="uni0414" unicode="&#x414;" horiz-adv-x="593" 
d="M20 49h55c69 159 109 346 118 556h1v11h287v-567h53v-189h-51v140h-411v-140h-52v189zM248 567c-12 -193 -50 -369 -112 -518h288v518h-176z" />
    <glyph glyph-name="uni0415" unicode="&#x415;" horiz-adv-x="517" 
d="M449 616v-49h-289v-221h225v-49h-225v-248h306v-49h-363v616h346z" />
    <glyph glyph-name="uni0416" unicode="&#x416;" horiz-adv-x="831" 
d="M48 616h63l202 -283h75v283h56v-283h73l203 283h63l-213 -303l230 -313h-69l-208 285h-79v-285h-56v285h-80l-208 -285h-69l230 313z" />
    <glyph glyph-name="uni0417" unicode="&#x417;" horiz-adv-x="485" 
d="M44 47l27 36c39 -31 77 -48 142 -48c123 0 152 83 151 133c0 68 -62 136 -186 136h-15v48h15h9c116 3 150 75 150 130c0 40 -19 103 -116 103c-60 0 -105 -16 -132 -40l-25 35c33 28 78 53 159 53c145 0 173 -92 173 -148c0 -54 -25 -121 -97 -156
c80 -34 124 -99 124 -161c1 -66 -36 -181 -206 -181c-81 0 -125 22 -173 60z" />
    <glyph glyph-name="uni0419" unicode="&#x419;" horiz-adv-x="655" 
d="M103 616h57v-514l335 514h57v-616h-57v513l-335 -513h-57v616zM203 800l42 13c7 -41 46 -93 97 -93c52 0 92 50 103 92l38 -12c-14 -73 -62 -129 -141 -129c-81 0 -127 54 -139 129z" />
    <glyph glyph-name="uni041A" unicode="&#x41a;" horiz-adv-x="546" 
d="M515 0h-69l-208 285h-79v-285h-56v616h56v-283h73l203 283h63l-214 -302z" />
    <glyph glyph-name="uni041B" unicode="&#x41b;" horiz-adv-x="585" 
d="M172 616h311v-616h-58v567h-202l-44 -407c-11 -101 -34 -161 -165 -161v48c90 0 101 37 110 120z" />
    <glyph glyph-name="uni041C" unicode="&#x41c;" horiz-adv-x="779" 
d="M614 616h60l5 -616h-58l-4 503l-208 -503h-39l-208 500l-4 -500h-58l5 616h61l224 -540z" />
    <glyph glyph-name="uni041D" unicode="&#x41d;" horiz-adv-x="652" 
d="M492 616h58v-616h-58v301h-332v-301h-57v616h57v-266h332v266z" />
    <glyph glyph-name="uni041E" unicode="&#x41e;" horiz-adv-x="677" 
d="M350 34c126 0 202 120 202 271c0 158 -76 277 -208 277c-140 0 -218 -115 -218 -266c0 -160 81 -282 224 -282zM350 -15c-183 0 -285 139 -285 331c0 178 102 315 279 315c170 0 268 -141 268 -326c0 -182 -96 -320 -262 -320z" />
    <glyph glyph-name="uni041F" unicode="&#x41f;" horiz-adv-x="652" 
d="M103 616h447v-616h-58v567h-332v-567h-57v616z" />
    <glyph glyph-name="uni0420" unicode="&#x420;" horiz-adv-x="502" 
d="M103 616h124c167 0 226 -75 226 -183c0 -107 -71 -189 -200 -189h-93v-244h-57v616zM228 567h-68v-274h91c92 0 142 60 142 135c0 78 -42 139 -165 139z" />
    <glyph glyph-name="uni0421" unicode="&#x421;" horiz-adv-x="615" 
d="M560 571l-24 -44c-42 31 -94 55 -180 55c-148 0 -227 -127 -227 -277s76 -271 222 -271c85 0 140 21 179 55l25 -43c-44 -37 -112 -61 -205 -61c-187 0 -282 144 -282 320c0 177 100 326 287 326c93 0 161 -24 205 -60z" />
    <glyph glyph-name="uni0422" unicode="&#x422;" horiz-adv-x="514" 
d="M481 616v-49h-195v-567h-57v567h-196v49h448z" />
    <glyph glyph-name="uni0423" unicode="&#x423;" horiz-adv-x="525" 
d="M35 616h63l184 -388l170 388h59l-182 -413c-48 -110 -126 -180 -251 -224l-18 42c80 36 147 70 191 142z" />
    <glyph glyph-name="uni0424" unicode="&#x424;" horiz-adv-x="753" 
d="M46 304c0 134 129 210 303 217v95h58v-95c171 -9 300 -85 300 -217c0 -131 -129 -207 -300 -215v-89h-58v88c-173 7 -303 84 -303 216zM106 304c0 -102 106 -159 243 -166v334c-137 -7 -243 -66 -243 -168zM646 304c0 101 -104 160 -239 168v-333c135 7 239 64 239 165z
" />
    <glyph glyph-name="uni0425" unicode="&#x425;" horiz-adv-x="528" 
d="M95 0h-59l198 315l-187 301h62l156 -252l158 252h59l-188 -299l196 -317h-60l-167 268z" />
    <glyph glyph-name="uni0426" unicode="&#x426;" horiz-adv-x="662" 
d="M603 49v-189h-52v140h-448v616h57v-567h332v567h58v-567h53z" />
    <glyph glyph-name="uni0427" unicode="&#x427;" horiz-adv-x="554" 
d="M393 616h58v-616h-58v303c-58 -37 -116 -64 -178 -64c-97 0 -150 41 -150 183v194h58v-190c0 -110 36 -138 98 -138c55 0 115 28 172 66v262z" />
    <glyph glyph-name="uni0428" unicode="&#x428;" horiz-adv-x="901" 
d="M798 0h-695v616h57v-567h261v567h58v-567h261v567h58v-616z" />
    <glyph glyph-name="uni0429" unicode="&#x429;" horiz-adv-x="910" 
d="M851 49v-189h-51v140h-697v616h57v-567h261v567h58v-567h261v567h58v-567h53z" />
    <glyph glyph-name="uni042A" unicode="&#x42a;" horiz-adv-x="622" 
d="M33 616h246v-263h73c163 0 223 -72 223 -173c0 -102 -71 -180 -204 -180h-150v567h-188v49zM350 303h-71v-254h93c92 0 142 56 142 126c0 72 -42 128 -164 128z" />
    <glyph glyph-name="uni042B" unicode="&#x42b;" horiz-adv-x="773" 
d="M613 616h57v-616h-57v616zM103 616h57v-263h73c163 0 223 -72 223 -173c0 -102 -71 -180 -203 -180h-150v616zM231 303h-71v-254h94c92 0 142 56 142 126c0 72 -43 128 -165 128z" />
    <glyph glyph-name="uni042C" unicode="&#x42c;" horiz-adv-x="504" 
d="M103 616h57v-263h73c163 0 223 -72 223 -173c0 -102 -71 -180 -203 -180h-150v616zM231 303h-71v-254h94c92 0 142 56 142 126c0 72 -43 128 -165 128z" />
    <glyph glyph-name="uni042D" unicode="&#x42d;" horiz-adv-x="609" 
d="M76 527l-24 44c44 36 112 60 205 60c187 0 287 -149 287 -326s-98 -320 -282 -320c-92 0 -159 23 -205 61l25 43c39 -34 94 -55 179 -55c141 0 217 112 222 255h-288v50h286c-11 135 -89 243 -225 243c-86 0 -138 -24 -180 -55z" />
    <glyph glyph-name="uni042E" unicode="&#x42e;" horiz-adv-x="932" 
d="M605 -15c-177 0 -279 131 -284 316h-161v-301h-57v616h57v-266h162c12 161 111 281 277 281c170 0 268 -141 268 -326c0 -182 -96 -320 -262 -320zM605 34c127 0 202 120 202 271c0 158 -76 277 -208 277c-140 0 -218 -115 -218 -266c0 -160 81 -282 224 -282z" />
    <glyph glyph-name="uni042F" unicode="&#x42f;" horiz-adv-x="538" 
d="M107 -8l-62 9l170 268c-87 22 -133 91 -133 176c0 99 59 171 211 171h143v-616h-58v261h-96h-6zM143 440c0 -73 50 -129 141 -129h94v256h-85c-116 0 -150 -57 -150 -127z" />
    <glyph glyph-name="uni0490" unicode="&#x490;" horiz-adv-x="430" 
d="M346 739h51v-172h-237v-567h-57v616h243v123z" />
    <glyph glyph-name="uni0406" unicode="&#x406;" horiz-adv-x="263" 
d="M103 616h57v-616h-57v616z" />
    <glyph glyph-name="uni0402" unicode="&#x402;" horiz-adv-x="643" 
d="M481 616v-49h-195v-214c43 17 90 32 148 32c104 0 156 -76 156 -184c0 -128 -36 -229 -142 -282l-24 35c82 45 108 133 108 245c0 79 -34 137 -102 137c-55 0 -101 -14 -144 -31v-305h-57v567h-196v49h448z" />
    <glyph glyph-name="uni0452" unicode="&#x452;" horiz-adv-x="509" 
d="M24 515v41h64v95l55 11v-106h155v-41h-155v-161c43 43 94 71 158 71c65 0 123 -29 123 -122v-245c0 -144 -28 -199 -174 -238l-13 45c110 30 132 74 132 192v242c0 59 -36 78 -74 78c-57 0 -112 -30 -152 -77v-300h-55v515h-64z" />
    <glyph glyph-name="uni0403" unicode="&#x403;" horiz-adv-x="425" 
d="M167 674l-23 46l176 90l23 -50zM103 616h289v-49h-232v-567h-57v616z" />
    <glyph glyph-name="uni0453" unicode="&#x453;" horiz-adv-x="372" 
d="M143 0h-55v452h256v-47h-201v-405zM178 517l-33 36l144 137l35 -40z" />
    <glyph glyph-name="uni0456" unicode="&#x456;" horiz-adv-x="231" 
d="M143 0h-55v449l55 12v-461zM72 601c0 25 20 44 44 44s44 -19 44 -44c0 -24 -20 -43 -44 -43s-44 19 -44 43z" />
    <glyph glyph-name="uni0491" unicode="&#x491;" horiz-adv-x="376" 
d="M143 0h-55v452h213v104h46v-151h-204v-405z" />
    <glyph glyph-name="uni0408" unicode="&#x408;" horiz-adv-x="263" 
d="M103 616h57v-566c0 -144 -30 -199 -177 -238l-14 47c110 31 134 72 134 190v567z" />
    <glyph glyph-name="uni0404" unicode="&#x404;" horiz-adv-x="609" 
d="M557 571l-25 -44c-41 31 -93 55 -179 55c-137 0 -216 -109 -227 -244h287v-49h-288c5 -143 82 -255 223 -255c85 0 140 21 179 55l25 -43c-44 -37 -112 -61 -205 -61c-185 0 -282 143 -282 320s100 326 287 326c93 0 161 -24 205 -60z" />
    <glyph glyph-name="uni0454" unicode="&#x454;" horiz-adv-x="472" 
d="M59 225c0 129 73 240 216 240c70 0 118 -20 147 -51l-23 -40c-30 26 -66 44 -121 44c-98 0 -152 -75 -160 -166h191v-46h-191c6 -95 58 -174 155 -174c59 0 94 16 123 42l22 -37c-30 -31 -77 -52 -148 -52c-137 0 -211 110 -211 240z" />
    <glyph glyph-name="uni0407" unicode="&#x407;" horiz-adv-x="263" 
d="M103 616h57v-616h-57v616zM2 727c0 27 21 49 49 49c27 0 49 -22 49 -49s-22 -49 -49 -49s-49 22 -49 49zM165 727c0 27 21 49 49 49c27 0 49 -22 49 -49s-22 -49 -49 -49s-49 22 -49 49z" />
    <glyph glyph-name="uni0457" unicode="&#x457;" horiz-adv-x="232" 
d="M-13 593c0 26 22 48 49 48c26 0 48 -22 48 -48c0 -27 -22 -49 -48 -49c-27 0 -49 21 -49 49zM150 593c0 26 22 48 49 48s49 -22 49 -48c0 -27 -22 -49 -49 -49s-49 21 -49 49zM144 0h-56v442l56 11v-453z" />
    <glyph glyph-name="uni0409" unicode="&#x409;" horiz-adv-x="826" 
d="M172 616h311v-263h73c163 0 222 -72 222 -173c0 -102 -71 -180 -203 -180h-150v567h-202l-44 -407c-11 -101 -34 -161 -165 -161v48c90 0 101 37 110 120zM553 303h-70v-254h93c92 0 142 56 142 126c0 72 -43 128 -165 128z" />
    <glyph glyph-name="uni0459" unicode="&#x459;" horiz-adv-x="742" 
d="M181 452h260v-156h54c147 0 202 -63 202 -147c0 -85 -75 -149 -204 -149h-107v405h-158l-42 -251c-17 -97 -33 -155 -164 -155v48c90 0 96 36 110 115zM493 249h-52v-202h57c91 0 142 46 142 99c0 56 -40 103 -147 103z" />
    <glyph glyph-name="uni040A" unicode="&#x40a;" horiz-adv-x="893" 
d="M492 616h58v-263h73c163 0 223 -72 223 -173c0 -102 -71 -180 -204 -180h-150v301h-332v-301h-57v616h57v-266h332v266zM621 303h-71v-254h93c92 0 142 56 142 126c0 72 -42 128 -164 128z" />
    <glyph glyph-name="uni045A" unicode="&#x45a;" horiz-adv-x="745" 
d="M390 452h55v-156h54c146 0 201 -63 201 -147c0 -85 -75 -149 -204 -149h-106v212h-247v-212h-55v452h55v-193h247v193zM497 249h-52v-202h57c90 0 141 46 141 99c0 56 -40 103 -146 103z" />
    <glyph glyph-name="uni0458" unicode="&#x458;" horiz-adv-x="231" 
d="M87 449l56 12v-411c0 -144 -29 -199 -175 -238l-13 45c110 30 132 74 132 192v400zM72 601c0 25 20 44 44 44s44 -19 44 -44c0 -24 -20 -43 -44 -43s-44 19 -44 43z" />
    <glyph glyph-name="uni0405" unicode="&#x405;" horiz-adv-x="502" 
d="M54 45l20 47c49 -33 111 -58 169 -58c75 0 135 35 135 116c0 153 -300 142 -300 329c0 57 40 151 189 151c64 0 105 -13 160 -42l-16 -48c-53 29 -98 41 -146 41c-104 0 -128 -64 -128 -101c0 -145 303 -137 303 -330c0 -113 -92 -165 -201 -165c-66 0 -126 24 -185 60z
" />
    <glyph glyph-name="uni040B" unicode="&#x40b;" horiz-adv-x="657" 
d="M481 616v-49h-195v-238c51 32 100 55 158 55c94 0 150 -36 150 -184v-200h-58v197c0 110 -36 138 -98 138c-52 0 -100 -23 -152 -57v-278h-57v567h-196v49h448z" />
    <glyph glyph-name="uni045B" unicode="&#x45b;" horiz-adv-x="509" 
d="M24 511v45h64v95l55 11v-106h155v-45h-155v-157c43 43 94 71 158 71c65 0 123 -29 123 -122v-303h-55v299c0 59 -36 78 -74 78c-57 0 -112 -31 -152 -77v-300h-55v511h-64z" />
    <glyph glyph-name="uni040C" unicode="&#x40c;" horiz-adv-x="546" 
d="M515 0h-69l-208 285h-79v-285h-56v616h56v-283h73l203 283h63l-213 -303zM235 674l-23 46l175 90l24 -50z" />
    <glyph glyph-name="uni045C" unicode="&#x45c;" horiz-adv-x="470" 
d="M210 517l-33 36l144 137l35 -40zM446 0h-68l-165 207h-70v-207h-55v452l55 7v-206h70l143 199h62l-159 -217z" />
    <glyph glyph-name="uni043A" unicode="&#x43a;" horiz-adv-x="470" 
d="M446 0h-68l-165 207h-70v-207h-55v452l55 7v-206h70l143 199h62l-159 -217z" />
    <glyph glyph-name="uni0455" unicode="&#x455;" horiz-adv-x="432" 
d="M358 436l-11 -43c-44 19 -86 27 -119 27c-45 0 -94 -12 -94 -63c0 -97 245 -114 245 -250c0 -77 -76 -122 -168 -122c-67 0 -114 21 -163 55l15 46c45 -35 87 -54 145 -54c61 0 113 26 113 71c0 102 -245 111 -245 250c0 84 72 112 142 112c57 0 91 -11 140 -29z" />
    <glyph glyph-name="uni040E" unicode="&#x40e;" horiz-adv-x="525" 
d="M35 616h63l184 -388l170 388h59l-182 -413c-48 -110 -126 -180 -251 -224l-18 42c80 36 147 70 191 142zM147 800l42 13c7 -41 46 -93 97 -93c52 0 92 50 103 92l38 -12c-14 -73 -62 -129 -141 -129c-81 0 -127 54 -139 129z" />
    <glyph glyph-name="uni045E" unicode="&#x45e;" horiz-adv-x="471" 
d="M38 452h57l137 -382l148 382h53l-166 -433c-47 -114 -60 -208 -216 -208v45c105 0 119 62 152 144zM112 675l41 10c7 -44 46 -99 97 -99c52 0 91 55 103 101l39 -12c-14 -79 -63 -138 -142 -138c-81 0 -127 61 -138 138z" />
    <glyph glyph-name="uni040F" unicode="&#x40f;" horiz-adv-x="652" 
d="M550 0h-194v-140h-51v140h-202v616h57v-567h332v567h58v-616z" />
    <glyph glyph-name="uni045F" unicode="&#x45f;" horiz-adv-x="533" 
d="M88 0v452h55v-405h247v405h55v-452h-151v-110h-51v110h-155z" />
    <glyph glyph-name="uni2116" unicode="&#x2116;" horiz-adv-x="971" 
d="M678 159v48h227v-48h-227zM793 287c44 0 58 37 58 83s-12 82 -58 82c-42 0 -59 -36 -59 -82s17 -83 59 -83zM793 243c-77 0 -109 54 -109 127c0 71 31 127 109 127c85 0 108 -58 108 -127c0 -72 -25 -127 -108 -127zM509 616h57v-616h-57l-335 524v-524h-57v616h57
l335 -527v527z" />
    <glyph glyph-name="uni0401" unicode="&#x401;" horiz-adv-x="517" 
d="M449 616v-49h-289v-221h225v-49h-225v-248h306v-49h-363v616h346zM132 727c0 27 21 49 49 49c27 0 49 -22 49 -49s-22 -49 -49 -49s-49 22 -49 49zM295 727c0 27 21 49 49 49c27 0 49 -22 49 -49s-22 -49 -49 -49s-49 22 -49 49z" />
    <glyph glyph-name="uni0451" unicode="&#x451;" horiz-adv-x="502" 
d="M123 593c0 26 22 48 49 48c26 0 48 -22 48 -48c0 -27 -22 -49 -48 -49c-27 0 -49 21 -49 49zM286 593c0 26 22 48 49 48s49 -22 49 -48c0 -27 -22 -49 -49 -49s-49 21 -49 49zM441 228h-324c0 -107 49 -196 151 -196c65 0 103 27 140 77l32 -28c-34 -57 -95 -96 -177 -96
c-132 0 -204 109 -204 240c0 132 70 240 196 240c115 0 187 -105 187 -213c0 -8 0 -17 -1 -24zM252 418c-77 0 -121 -62 -132 -144h266c-10 84 -60 144 -134 144z" />
    <glyph glyph-name="uni044F" unicode="&#x44f;" horiz-adv-x="460" 
d="M107 -8l-58 8l131 180c-72 16 -111 65 -111 127c0 85 55 145 180 145h123v-452h-56v170h-81zM316 405h-68c-94 0 -121 -43 -121 -100c0 -47 41 -88 115 -88h74v188z" />
    <glyph glyph-name="uni0430" unicode="&#x430;" horiz-adv-x="455" 
d="M328 0l-9 58c-53 -46 -97 -73 -157 -73c-62 0 -111 33 -111 100c0 100 114 130 266 167v52c0 84 -49 113 -103 113c-44 0 -89 -17 -122 -39l-17 38c39 27 86 49 146 49c82 0 151 -41 151 -158v-307h-44zM172 34c50 0 90 25 145 67v110c-126 -35 -209 -52 -209 -121
c0 -38 29 -56 64 -56z" />
    <glyph glyph-name="uni0431" unicode="&#x431;" horiz-adv-x="538" 
d="M426 651h50c-31 -111 -113 -105 -191 -127c-99 -29 -151 -90 -163 -201c40 68 95 106 171 106c106 0 185 -90 185 -222c0 -136 -85 -224 -200 -224c-128 0 -216 115 -216 290c1 157 64 248 196 292c67 23 135 13 168 86zM293 381c-75 0 -137 -50 -172 -137
c9 -130 71 -213 157 -213c82 0 141 70 141 176c0 103 -53 174 -126 174z" />
    <glyph glyph-name="uni0432" unicode="&#x432;" horiz-adv-x="449" 
d="M88 452h120c108 0 149 -47 149 -110c0 -41 -18 -79 -64 -101c72 -19 99 -58 99 -111c0 -71 -54 -130 -167 -130h-137v452zM335 128c0 60 -66 82 -134 82h-58v-162h74c84 0 118 38 118 80zM143 257h58c71 0 98 37 98 80c0 36 -23 68 -89 68h-67v-148z" />
    <glyph glyph-name="uni0433" unicode="&#x433;" horiz-adv-x="372" 
d="M143 0h-55v452h256v-47h-201v-405z" />
    <glyph glyph-name="uni0434" unicode="&#x434;" horiz-adv-x="531" 
d="M24 48h60c47 116 76 253 85 404h258v-404h53v-188h-51v140h-353v-140h-52v188zM222 404c-11 -128 -37 -250 -78 -356h226v356h-148z" />
    <glyph glyph-name="uni0435" unicode="&#x435;" horiz-adv-x="502" 
d="M441 228h-324c0 -107 49 -196 151 -196c65 0 103 27 140 77l32 -28c-34 -57 -95 -96 -177 -96c-132 0 -204 109 -204 240c0 132 70 240 196 240c115 0 187 -105 187 -213c0 -8 0 -17 -1 -24zM252 418c-77 0 -121 -62 -132 -144h266c-10 84 -60 144 -134 144z" />
    <glyph glyph-name="uni0436" unicode="&#x436;" horiz-adv-x="709" 
d="M92 0h-68l188 235l-160 217h63l142 -199h70v199h55v-199h71l142 199h62l-159 -217l187 -235h-68l-164 207h-71v-207h-55v207h-70z" />
    <glyph glyph-name="uni0437" unicode="&#x437;" horiz-adv-x="411" 
d="M94 385l-26 34c28 25 65 46 129 46c111 0 134 -71 134 -114c0 -38 -20 -87 -80 -112c70 -19 101 -70 102 -114c0 -50 -30 -136 -158 -136c-71 0 -109 22 -154 59l28 36c36 -31 65 -49 121 -49c85 0 108 57 107 89c0 45 -44 91 -132 91h-16v46h16c82 0 110 50 110 89
c0 26 -15 69 -80 69c-44 0 -79 -13 -101 -34z" />
    <glyph glyph-name="uni0438" unicode="&#x438;" horiz-adv-x="533" 
d="M143 0h-55v452h55v-365l247 365h55v-452h-55v364z" />
    <glyph glyph-name="uni0439" unicode="&#x439;" horiz-adv-x="533" 
d="M143 0h-55v452h55v-365l247 365h55v-452h-55v364zM132 675l41 10c7 -44 46 -99 97 -99c52 0 91 55 103 101l39 -12c-14 -79 -63 -138 -142 -138c-81 0 -127 61 -138 138z" />
    <glyph glyph-name="uni043B" unicode="&#x43b;" horiz-adv-x="529" 
d="M181 452h260v-452h-55v405h-158l-42 -251c-17 -97 -33 -155 -164 -155v48c90 0 96 36 110 115z" />
    <glyph glyph-name="uni043C" unicode="&#x43c;" horiz-adv-x="647" 
d="M347 0h-50l-153 331l-2 -331h-56l4 452h59l175 -374l174 374h59l4 -452h-56l-2 338z" />
    <glyph glyph-name="uni043D" unicode="&#x43d;" horiz-adv-x="533" 
d="M390 452h55v-452h-55v212h-247v-212h-55v452h55v-193h247v193z" />
    <glyph glyph-name="uni043E" unicode="&#x43e;" horiz-adv-x="526" 
d="M59 225c0 132 71 240 203 240c134 0 205 -108 205 -240c0 -129 -71 -240 -204 -240c-134 0 -204 110 -204 240zM118 225c0 -104 48 -193 145 -193s145 89 145 193c0 107 -48 193 -145 193s-145 -86 -145 -193z" />
    <glyph glyph-name="uni043F" unicode="&#x43f;" horiz-adv-x="533" 
d="M88 452h357v-452h-55v405h-247v-405h-55v452z" />
    <glyph glyph-name="uni0440" unicode="&#x440;" horiz-adv-x="513" 
d="M143 -189h-55v640l41 7l9 -62c39 44 91 71 148 71c110 0 167 -103 167 -227c0 -138 -59 -254 -192 -254c-43 0 -85 16 -118 41v-216zM277 420c-59 0 -97 -26 -134 -75v-265c28 -29 67 -47 115 -47c98 0 137 98 137 210c0 99 -39 177 -118 177z" />
    <glyph glyph-name="uni0441" unicode="&#x441;" horiz-adv-x="472" 
d="M59 225c0 146 89 240 216 240c70 0 118 -20 147 -51l-23 -40c-30 26 -66 44 -121 44c-107 0 -161 -89 -161 -192c0 -104 52 -194 156 -194c59 0 94 16 123 42l22 -37c-30 -31 -77 -52 -148 -52c-138 0 -211 111 -211 240z" />
    <glyph glyph-name="uni0442" unicode="&#x442;" horiz-adv-x="422" 
d="M393 405h-154v-405h-55v405h-155v47h364v-47z" />
    <glyph glyph-name="uni0443" unicode="&#x443;" horiz-adv-x="471" 
d="M38 452h57l137 -382l148 382h53l-166 -433c-47 -114 -60 -208 -216 -208v45c105 0 119 62 152 144z" />
    <glyph glyph-name="uni0444" unicode="&#x444;" horiz-adv-x="795" 
d="M425 -189h-55v238c-39 -40 -87 -64 -142 -64c-112 0 -168 103 -168 227c0 137 60 253 192 253c42 0 84 -16 118 -42v228l55 11v-261c38 40 87 64 142 64c112 0 167 -102 167 -227c0 -137 -59 -253 -191 -253c-43 0 -84 16 -118 41v-215zM236 32c57 0 96 25 134 72v267
c-28 29 -67 47 -114 47c-99 0 -137 -97 -137 -209c0 -98 38 -177 117 -177zM558 418c-57 0 -96 -25 -133 -72v-268c28 -29 66 -46 114 -46c98 0 137 97 137 209c0 99 -39 177 -118 177z" />
    <glyph glyph-name="uni0445" unicode="&#x445;" horiz-adv-x="453" 
d="M88 0h-58l167 232l-145 220h59l117 -177l128 177h60l-160 -220l155 -232h-60l-126 189z" />
    <glyph glyph-name="uni0446" unicode="&#x446;" horiz-adv-x="549" 
d="M88 0v452h55v-405h247v405h55v-405h54v-187h-52v140h-359z" />
    <glyph glyph-name="uni0447" unicode="&#x447;" horiz-adv-x="481" 
d="M56 452h55v-139c0 -80 42 -102 84 -102c54 0 105 20 143 51v190h55v-452h-55v212c-41 -31 -89 -49 -149 -49c-79 0 -133 45 -133 149v140z" />
    <glyph glyph-name="uni0448" unicode="&#x448;" horiz-adv-x="760" 
d="M88 0v452h55v-405h210v405h55v-405h209v405h55v-452h-584z" />
    <glyph glyph-name="uni0449" unicode="&#x449;" horiz-adv-x="777" 
d="M88 0v452h55v-405h210v405h55v-405h209v405h55v-405h54v-187h-52v140h-586z" />
    <glyph glyph-name="uni044A" unicode="&#x44a;" horiz-adv-x="542" 
d="M241 452v-156h54c146 0 201 -63 201 -147c0 -85 -75 -149 -204 -149h-106v405h-157v47h212zM293 249h-52v-202h57c90 0 142 46 142 99c0 56 -40 103 -147 103z" />
    <glyph glyph-name="uni044B" unicode="&#x44b;" horiz-adv-x="677" 
d="M88 452h55v-156h54c147 0 202 -63 202 -147c0 -85 -75 -149 -204 -149h-107v452zM195 249h-52v-202h57c91 0 142 46 142 99c0 56 -40 103 -147 103zM589 0h-56v452h56v-452z" />
    <glyph glyph-name="uni044C" unicode="&#x44c;" horiz-adv-x="444" 
d="M88 452h55v-156h54c147 0 202 -63 202 -147c0 -85 -75 -149 -204 -149h-107v452zM195 249h-52v-202h57c91 0 142 46 142 99c0 56 -40 103 -147 103z" />
    <glyph glyph-name="uni044D" unicode="&#x44d;" horiz-adv-x="473" 
d="M414 225c0 -129 -75 -240 -212 -240c-69 0 -116 19 -148 52l22 37c29 -26 64 -42 123 -42c97 0 148 79 155 174h-191v46h191c-8 91 -61 166 -159 166c-55 0 -92 -18 -122 -44l-23 40c30 31 77 51 147 51c141 0 217 -110 217 -240z" />
    <glyph glyph-name="uni044E" unicode="&#x44e;" horiz-adv-x="737" 
d="M88 452h55v-193h128c11 116 80 206 202 206c134 0 205 -108 205 -240c0 -129 -71 -240 -204 -240c-130 0 -200 103 -204 227h-127v-212h-55v452zM329 225c0 -104 50 -193 145 -193c97 0 145 89 145 193c0 107 -48 193 -145 193s-145 -86 -145 -193z" />
    <glyph glyph-name="f_b" horiz-adv-x="793" 
d="M47 403v35l61 11v28c0 113 29 186 178 186l138 -1v-261c38 40 87 64 142 64c111 0 167 -102 167 -227c0 -137 -60 -253 -192 -253c-44 0 -85 17 -118 42l-19 -27h-36v618h-82c-105 0 -123 -54 -123 -139v-29h106v-47h-106v-403h-55v403h-61zM557 418
c-57 0 -96 -25 -133 -71v-269c28 -29 66 -46 114 -46c98 0 137 97 137 209c0 99 -39 177 -118 177z" />
    <glyph glyph-name="f_j" horiz-adv-x="512" 
d="M47 403v35l61 11v28c0 113 29 186 175 186v-45c-102 0 -120 -54 -120 -139v-29h261v-400c0 -144 -29 -199 -175 -238l-13 45c110 30 132 74 132 192v354h-205v-403h-55v403h-61zM353 601c0 25 20 44 44 44s44 -19 44 -44c0 -24 -20 -43 -44 -43s-44 19 -44 43z" />
    <glyph glyph-name="f_k" horiz-adv-x="744" 
d="M717 0h-67l-177 233h-49v-233h-56v618h-82c-105 0 -123 -54 -123 -139v-29h106v-47h-106v-403h-55v403h-61v35l61 11v28c0 113 29 186 178 186h138v-382h44l163 171h67l-181 -191z" />
    <glyph glyph-name="zero.dnom" unicode="&#x2080;" horiz-adv-x="328" 
d="M163 33c51 0 67 53 67 124c0 68 -17 124 -67 124c-48 0 -64 -56 -64 -124c0 -71 16 -124 64 -124zM163 -8c-90 0 -117 70 -117 165c0 91 27 165 117 165c91 0 120 -74 120 -165c0 -95 -29 -165 -120 -165z" />
    <glyph glyph-name="one.dnom" unicode="&#x2081;" horiz-adv-x="260" 
d="M61 218l-26 31l79 65h52v-274h59v-40h-169v40h58v221z" />
    <glyph glyph-name="two.dnom" unicode="&#x2082;" horiz-adv-x="307" 
d="M68 250l-24 30c27 26 57 42 105 42c83 0 109 -54 108 -87c-1 -94 -141 -115 -157 -195h164v-40h-221v17c0 121 157 144 158 216c0 18 -11 48 -59 48c-30 0 -52 -10 -74 -31z" />
    <glyph glyph-name="three.dnom" unicode="&#x2083;" horiz-adv-x="302" 
d="M72 264l-21 29c19 16 43 29 90 29c86 0 103 -51 103 -81c0 -25 -13 -55 -44 -75c37 -19 59 -49 59 -79c1 -35 -20 -94 -118 -94c-44 0 -73 11 -105 36l22 31c23 -17 43 -27 81 -27c54 0 67 35 67 56c0 27 -27 54 -82 56h-7h-8v40h8h6c51 2 67 31 67 53c0 17 -8 44 -53 44
c-29 0 -51 -8 -65 -18z" />
    <glyph glyph-name="four.dnom" unicode="&#x2084;" horiz-adv-x="321" 
d="M186 314h52v-201h46v-40h-46v-73h-52v73h-150v40zM88 113h98v130z" />
    <glyph glyph-name="five.dnom" unicode="&#x2085;" horiz-adv-x="302" 
d="M85 145h-31l19 169h176v-40h-133l-10 -82c17 8 34 13 54 13c63 0 99 -46 99 -101c0 -73 -46 -112 -111 -112c-46 0 -79 10 -110 40l26 33c22 -22 47 -30 76 -30c36 0 64 24 64 69c0 33 -22 60 -56 60c-20 0 -36 -3 -63 -19z" />
    <glyph glyph-name="six.dnom" unicode="&#x2086;" horiz-adv-x="315" 
d="M264 304l-17 -35c-14 6 -35 12 -59 12c-39 0 -76 -34 -87 -99c20 12 44 21 68 21c59 0 104 -31 104 -100c0 -68 -47 -111 -110 -111c-73 0 -119 65 -119 148c0 118 69 182 144 182c32 0 59 -9 76 -18zM169 162c-25 0 -51 -10 -71 -25c0 -59 26 -104 64 -104
c33 0 57 25 57 68s-22 61 -50 61z" />
    <glyph glyph-name="seven.dnom" unicode="&#x2087;" horiz-adv-x="282" 
d="M119 0h-64l136 274h-152v40h215v-15z" />
    <glyph glyph-name="eight.dnom" unicode="&#x2088;" horiz-adv-x="306" 
d="M153 -8c-59 0 -110 28 -110 77c0 44 30 73 66 94c-34 26 -48 51 -48 80c0 51 44 79 96 79c51 0 93 -28 93 -77c0 -42 -28 -66 -58 -86c46 -33 71 -57 71 -94c0 -43 -47 -73 -110 -73zM210 71c0 22 -24 40 -59 64c-32 -15 -54 -36 -54 -61c0 -26 27 -41 56 -41
c31 0 57 16 57 38zM114 242c0 -19 11 -34 38 -55c22 13 46 29 46 57c0 20 -14 37 -41 37c-25 0 -43 -16 -43 -39z" />
    <glyph glyph-name="nine.dnom" unicode="&#x2089;" horiz-adv-x="315" 
d="M51 10l17 34c14 -5 35 -11 59 -11c38 0 75 34 86 99c-20 -12 -43 -21 -67 -21c-59 0 -104 31 -104 100c0 68 47 111 111 111c72 0 118 -62 118 -148c0 -118 -69 -182 -144 -182c-32 0 -59 9 -76 18zM146 153c24 0 50 9 71 24c-1 59 -26 104 -64 104
c-33 0 -57 -25 -57 -68s23 -60 50 -60z" />
    <glyph glyph-name="caron.salt" horiz-adv-x="329" 
d="M144 657l-109 117l24 28l102 -103l94 103l24 -27l-105 -118h-30z" />
    <glyph glyph-name="oe.smcp" horiz-adv-x="805" 
d="M754 47v-47h-304v49c-36 -38 -86 -61 -149 -61c-153 0 -241 111 -241 260c0 139 86 247 236 247c65 0 117 -24 154 -64v52h290v-47h-233v-161h182v-47h-182v-181h247zM301 35c74 0 126 41 149 109v192c-24 69 -77 112 -154 112c-113 0 -176 -86 -176 -200
c0 -122 66 -213 181 -213z" />
    <glyph glyph-name="uni0410" unicode="&#x410;" horiz-adv-x="586" 
d="M39 0l221 616h61l230 -616h-55l-75 201h-255l-72 -201h-55zM290 545l-107 -295h219z" />
    <glyph glyph-name="uni0411" unicode="&#x411;" horiz-adv-x="507" 
d="M103 616h281v-49h-224v-214h73c163 0 223 -72 223 -173c0 -102 -71 -180 -203 -180h-150v616zM231 303h-71v-254h94c92 0 142 56 142 126c0 72 -43 128 -165 128z" />
    <glyph glyph-name="Amacron" unicode="&#x100;" horiz-adv-x="586" 
d="M39 0l221 616h61l230 -616h-55l-75 201h-255l-72 -201h-55zM290 545l-107 -295h219zM184 699v50h211v-50h-211z" />
    <glyph glyph-name="amacron" unicode="&#x101;" horiz-adv-x="455" 
d="M328 0l-9 58c-53 -46 -97 -73 -157 -73c-62 0 -111 33 -111 100c0 100 114 130 266 167v52c0 84 -49 113 -103 113c-44 0 -89 -17 -122 -39l-17 38c39 27 86 49 146 49c82 0 151 -41 151 -158v-307h-44zM172 34c50 0 90 25 145 67v110c-126 -35 -209 -52 -209 -121
c0 -38 29 -56 64 -56zM115 559v49h211v-49h-211z" />
    <glyph glyph-name="Abreve" unicode="&#x102;" horiz-adv-x="586" 
d="M39 0l221 616h61l230 -616h-55l-75 201h-255l-72 -201h-55zM290 545l-107 -295h219zM149 800l42 13c7 -41 46 -93 97 -93c52 0 92 50 103 92l38 -12c-14 -73 -62 -129 -141 -129c-81 0 -127 54 -139 129z" />
    <glyph glyph-name="abreve" unicode="&#x103;" horiz-adv-x="455" 
d="M328 0l-9 58c-53 -46 -97 -73 -157 -73c-62 0 -111 33 -111 100c0 100 114 130 266 167v52c0 84 -49 113 -103 113c-44 0 -89 -17 -122 -39l-17 38c39 27 86 49 146 49c82 0 151 -41 151 -158v-307h-44zM172 34c50 0 90 25 145 67v110c-126 -35 -209 -52 -209 -121
c0 -38 29 -56 64 -56zM96 675l41 10c7 -44 46 -99 97 -99c52 0 91 55 103 101l39 -12c-14 -79 -63 -138 -142 -138c-81 0 -127 61 -138 138z" />
    <glyph glyph-name="Aogonek" unicode="&#x104;" horiz-adv-x="586" 
d="M540 -131l18 -32c-28 -21 -53 -27 -81 -27c-57 0 -92 38 -92 95c0 49 34 84 98 112l-68 184h-243l-72 -201h-61l221 616h61l230 -616h-4c-78 -27 -117 -58 -117 -95c0 -31 22 -53 52 -53c19 0 39 2 58 17zM290 534l-101 -284h207z" />
    <glyph glyph-name="aogonek" unicode="&#x105;" horiz-adv-x="455" 
d="M363 -131l18 -32c-28 -21 -53 -27 -81 -27c-57 0 -92 38 -92 95c0 54 40 90 116 120l-5 33c-53 -46 -97 -73 -157 -73c-62 0 -111 33 -111 100c0 100 114 130 266 167v52c0 84 -49 113 -103 113c-44 0 -89 -17 -122 -39l-17 38c39 27 86 49 146 49c82 0 151 -41 151 -158
v-307h-2c-78 -27 -117 -58 -117 -95c0 -31 22 -53 52 -53c19 0 39 2 58 17zM172 34c50 0 90 25 145 67v110c-126 -35 -209 -52 -209 -121c0 -38 29 -56 64 -56z" />
    <glyph glyph-name="Cacute" unicode="&#x106;" horiz-adv-x="604" 
d="M557 571l-24 -44c-42 31 -94 55 -180 55c-148 0 -227 -127 -227 -277s76 -271 222 -271c85 0 140 21 179 55l25 -43c-44 -37 -112 -61 -205 -61c-187 0 -282 144 -282 320c0 177 100 326 287 326c93 0 161 -24 205 -60zM287 674l-23 46l176 90l23 -50z" />
    <glyph glyph-name="cacute" unicode="&#x107;" horiz-adv-x="469" 
d="M214 517l-33 36l144 137l35 -40zM59 225c0 146 89 240 216 240c70 0 118 -20 147 -51l-23 -40c-30 26 -66 44 -121 44c-107 0 -161 -89 -161 -192c0 -104 52 -194 156 -194c59 0 94 16 123 42l22 -37c-30 -31 -77 -52 -148 -52c-138 0 -211 111 -211 240z" />
    <glyph glyph-name="Ccircumflex" unicode="&#x108;" horiz-adv-x="604" 
d="M557 571l-24 -44c-42 31 -94 55 -180 55c-148 0 -227 -127 -227 -277s76 -271 222 -271c85 0 140 21 179 55l25 -43c-44 -37 -112 -61 -205 -61c-187 0 -282 144 -282 320c0 177 100 326 287 326c93 0 161 -24 205 -60zM378 812l111 -117l-30 -35l-98 99l-91 -99l-31 35
l108 117h31z" />
    <glyph glyph-name="ccircumflex" unicode="&#x109;" horiz-adv-x="469" 
d="M130 547l113 143h31l112 -144l-32 -28l-94 119l-97 -119zM59 225c0 146 89 240 216 240c70 0 118 -20 147 -51l-23 -40c-30 26 -66 44 -121 44c-107 0 -161 -89 -161 -192c0 -104 52 -194 156 -194c59 0 94 16 123 42l22 -37c-30 -31 -77 -52 -148 -52
c-138 0 -211 111 -211 240z" />
    <glyph glyph-name="Cdotaccent" unicode="&#x10a;" horiz-adv-x="604" 
d="M301 729c0 27 22 49 49 49s49 -22 49 -49s-22 -49 -49 -49s-49 22 -49 49zM557 571l-24 -44c-42 31 -94 55 -180 55c-148 0 -227 -127 -227 -277s76 -271 222 -271c85 0 140 21 179 55l25 -43c-44 -37 -112 -61 -205 -61c-187 0 -282 144 -282 320c0 177 100 326 287 326
c93 0 161 -24 205 -60z" />
    <glyph glyph-name="cdotaccent" unicode="&#x10b;" horiz-adv-x="469" 
d="M59 225c0 146 89 240 216 240c70 0 118 -20 147 -51l-23 -40c-30 26 -66 44 -121 44c-107 0 -161 -89 -161 -192c0 -104 52 -194 156 -194c59 0 94 16 123 42l22 -37c-30 -31 -77 -52 -148 -52c-138 0 -211 111 -211 240zM209 597c0 27 22 49 49 49s49 -22 49 -49
s-22 -49 -49 -49s-49 22 -49 49z" />
    <glyph glyph-name="Ccaron" unicode="&#x10c;" horiz-adv-x="604" 
d="M557 571l-24 -44c-42 31 -94 55 -180 55c-148 0 -227 -127 -227 -277s76 -271 222 -271c85 0 140 21 179 55l25 -43c-44 -37 -112 -61 -205 -61c-187 0 -282 144 -282 320c0 177 100 326 287 326c93 0 161 -24 205 -60zM343 657l-114 117l30 35l101 -99l94 99l30 -34
l-111 -118h-30z" />
    <glyph glyph-name="ccaron" unicode="&#x10d;" horiz-adv-x="469" 
d="M242 517l-114 143l33 30l98 -122l93 121l33 -28l-113 -144h-30zM59 225c0 146 89 240 216 240c70 0 118 -20 147 -51l-23 -40c-30 26 -66 44 -121 44c-107 0 -161 -89 -161 -192c0 -104 52 -194 156 -194c59 0 94 16 123 42l22 -37c-30 -31 -77 -52 -148 -52
c-138 0 -211 111 -211 240z" />
    <glyph glyph-name="Dcaron" unicode="&#x10e;" horiz-adv-x="642" 
d="M160 567v-518h101c141 0 254 75 254 251c0 187 -113 267 -254 267h-101zM103 0v616h163c176 0 310 -101 310 -316c0 -206 -134 -300 -310 -300h-163zM270 657l-114 117l30 35l101 -99l94 99l30 -34l-111 -118h-30z" />
    <glyph glyph-name="dcaron" unicode="&#x10f;" horiz-adv-x="557" 
d="M504 420l-22 27c37 28 53 50 59 85h-2c-27 0 -49 22 -49 49s22 49 49 49c33 0 50 -27 50 -67c-1 -58 -33 -108 -85 -143zM370 652l55 10v-662h-40l-10 56c-39 -44 -90 -71 -147 -71c-111 0 -168 103 -168 227c0 138 59 253 192 253c42 0 84 -16 118 -41v228zM236 32
c58 0 97 25 134 73v267c-29 29 -67 46 -114 46c-99 0 -137 -97 -137 -209c0 -99 38 -177 117 -177z" />
    <glyph glyph-name="Dcroat" unicode="&#x110;" horiz-adv-x="648" 
d="M43 292v49h66v275h163c176 0 310 -101 310 -316c0 -206 -134 -300 -310 -300h-163v292h-66zM166 567v-226h179v-49h-179v-243h101c141 0 254 75 254 251c0 187 -113 267 -254 267h-101z" />
    <glyph glyph-name="dcroat" unicode="&#x111;" horiz-adv-x="513" 
d="M232 521v41h231v-41h-231zM370 652l55 10v-662h-40l-10 56c-39 -44 -90 -71 -147 -71c-111 0 -168 103 -168 227c0 138 59 253 192 253c42 0 84 -16 118 -41v228zM236 32c58 0 97 25 134 73v267c-29 29 -67 46 -114 46c-99 0 -137 -97 -137 -209c0 -99 38 -177 117 -177z
" />
    <glyph glyph-name="Emacron" unicode="&#x112;" horiz-adv-x="517" 
d="M449 616v-49h-289v-221h225v-49h-225v-248h306v-49h-363v616h346zM162 699v50h211v-50h-211z" />
    <glyph glyph-name="emacron" unicode="&#x113;" horiz-adv-x="502" 
d="M441 228h-324c0 -107 49 -196 151 -196c65 0 103 27 140 77l32 -28c-34 -57 -95 -96 -177 -96c-132 0 -204 109 -204 240c0 132 70 240 196 240c115 0 187 -105 187 -213c0 -8 0 -17 -1 -24zM252 418c-77 0 -121 -62 -132 -144h266c-10 84 -60 144 -134 144zM146 559v49
h211v-49h-211z" />
    <glyph glyph-name="Ebreve" unicode="&#x114;" horiz-adv-x="517" 
d="M449 616v-49h-289v-221h225v-49h-225v-248h306v-49h-363v616h346zM125 800l42 13c7 -41 46 -93 97 -93c52 0 92 50 103 92l38 -12c-14 -73 -62 -129 -141 -129c-81 0 -127 54 -139 129z" />
    <glyph glyph-name="ebreve" unicode="&#x115;" horiz-adv-x="502" 
d="M441 228h-324c0 -107 49 -196 151 -196c65 0 103 27 140 77l32 -28c-34 -57 -95 -96 -177 -96c-132 0 -204 109 -204 240c0 132 70 240 196 240c115 0 187 -105 187 -213c0 -8 0 -17 -1 -24zM252 418c-77 0 -121 -62 -132 -144h266c-10 84 -60 144 -134 144zM112 675
l41 10c7 -44 46 -99 97 -99c52 0 91 55 103 101l39 -12c-14 -79 -63 -138 -142 -138c-81 0 -127 61 -138 138z" />
    <glyph glyph-name="Edotaccent" unicode="&#x116;" horiz-adv-x="517" 
d="M214 729c0 27 22 49 49 49s49 -22 49 -49s-22 -49 -49 -49s-49 22 -49 49zM449 616v-49h-289v-221h225v-49h-225v-248h306v-49h-363v616h346z" />
    <glyph glyph-name="edotaccent" unicode="&#x117;" horiz-adv-x="502" 
d="M441 228h-324c0 -107 49 -196 151 -196c65 0 103 27 140 77l32 -28c-34 -57 -95 -96 -177 -96c-132 0 -204 109 -204 240c0 132 70 240 196 240c115 0 187 -105 187 -213c0 -8 0 -17 -1 -24zM252 418c-77 0 -121 -62 -132 -144h266c-10 84 -60 144 -134 144zM207 597
c0 27 22 49 49 49s49 -22 49 -49s-22 -49 -49 -49s-49 22 -49 49z" />
    <glyph glyph-name="Eogonek" unicode="&#x118;" horiz-adv-x="517" 
d="M449 616v-49h-289v-221h225v-49h-225v-248h306v-49h-34c-76 -27 -114 -57 -114 -94c0 -31 22 -53 52 -53c19 0 39 2 58 17l18 -32c-28 -21 -53 -27 -81 -27c-57 0 -92 38 -92 95c0 39 21 69 62 94h-232v616h346z" />
    <glyph glyph-name="eogonek" unicode="&#x119;" horiz-adv-x="502" 
d="M441 228h-324c0 -107 49 -196 151 -196c65 0 103 27 140 77l32 -28c-21 -35 -52 -63 -91 -79l1 -1c-78 -27 -117 -58 -117 -95c0 -31 22 -53 52 -53c19 0 39 2 58 17l18 -32c-28 -21 -53 -27 -81 -27c-57 0 -92 38 -92 95c0 33 14 59 43 82c-112 15 -172 117 -172 237
c0 132 70 240 196 240c115 0 187 -105 187 -213c0 -8 0 -17 -1 -24zM252 418c-77 0 -121 -62 -132 -144h266c-10 84 -60 144 -134 144z" />
    <glyph glyph-name="Ecaron" unicode="&#x11a;" horiz-adv-x="517" 
d="M449 616v-49h-289v-221h225v-49h-225v-248h306v-49h-363v616h346zM254 657l-114 117l30 35l101 -99l94 99l30 -34l-111 -118h-30z" />
    <glyph glyph-name="ecaron" unicode="&#x11b;" horiz-adv-x="502" 
d="M237 517l-114 143l33 30l98 -122l93 121l33 -28l-113 -144h-30zM441 228h-324c0 -107 49 -196 151 -196c65 0 103 27 140 77l32 -28c-34 -57 -95 -96 -177 -96c-132 0 -204 109 -204 240c0 132 70 240 196 240c115 0 187 -105 187 -213c0 -8 0 -17 -1 -24zM252 418
c-77 0 -121 -62 -132 -144h266c-10 84 -60 144 -134 144z" />
    <glyph glyph-name="Gcircumflex" unicode="&#x11c;" horiz-adv-x="633" 
d="M380 812l111 -117l-30 -35l-98 99l-91 -99l-31 35l108 117h31zM499 298h58v-245c-42 -42 -105 -68 -193 -68c-193 0 -300 140 -300 320c0 177 101 326 290 326c93 0 160 -24 204 -60l-25 -44c-41 31 -93 55 -179 55c-149 0 -229 -127 -229 -277s84 -271 241 -271
c58 0 100 13 133 35v229z" />
    <glyph glyph-name="gcircumflex" unicode="&#x11d;" horiz-adv-x="492" 
d="M98 547l113 143h31l112 -144l-32 -28l-94 119l-97 -119zM67 312c0 97 74 154 165 154c57 0 106 -22 136 -60l93 62v-60l-74 -34c7 -19 12 -39 12 -62c0 -96 -74 -153 -167 -153c-18 0 -36 2 -52 6c-20 -18 -36 -37 -36 -59c0 -26 11 -47 54 -47h152c62 0 105 -32 105 -88
c0 -92 -113 -159 -249 -159c-104 0 -174 31 -174 104c0 49 42 87 85 113c-22 14 -29 36 -29 60c0 39 23 64 55 91c-46 25 -76 70 -76 132zM190 14c-12 0 -22 0 -31 2c-36 -21 -73 -54 -73 -92c0 -45 42 -66 118 -66c105 0 194 44 194 104c0 32 -21 52 -66 52h-142zM122 312
c0 -85 69 -110 111 -110c63 0 111 42 111 110s-48 111 -111 111s-111 -43 -111 -111z" />
    <glyph glyph-name="Gbreve" unicode="&#x11e;" horiz-adv-x="633" 
d="M499 298h58v-245c-42 -42 -105 -68 -193 -68c-193 0 -300 140 -300 320c0 177 101 326 290 326c93 0 160 -24 204 -60l-25 -44c-41 31 -93 55 -179 55c-149 0 -229 -127 -229 -277s84 -271 241 -271c58 0 100 13 133 35v229zM215 800l42 13c7 -41 46 -93 97 -93
c52 0 92 50 103 92l38 -12c-14 -73 -62 -129 -141 -129c-81 0 -127 54 -139 129z" />
    <glyph glyph-name="gbreve" unicode="&#x11f;" horiz-adv-x="492" 
d="M67 312c0 97 74 154 165 154c57 0 106 -22 136 -60l93 62v-60l-74 -34c7 -19 12 -39 12 -62c0 -96 -74 -153 -167 -153c-18 0 -36 2 -52 6c-20 -18 -36 -37 -36 -59c0 -26 11 -47 54 -47h152c62 0 105 -32 105 -88c0 -92 -113 -159 -249 -159c-104 0 -174 31 -174 104
c0 49 42 87 85 113c-22 14 -29 36 -29 60c0 39 23 64 55 91c-46 25 -76 70 -76 132zM190 14c-12 0 -22 0 -31 2c-36 -21 -73 -54 -73 -92c0 -45 42 -66 118 -66c105 0 194 44 194 104c0 32 -21 52 -66 52h-142zM122 312c0 -85 69 -110 111 -110c63 0 111 42 111 110
s-48 111 -111 111s-111 -43 -111 -111zM85 675l41 10c7 -44 46 -99 97 -99c52 0 91 55 103 101l39 -12c-14 -79 -63 -138 -142 -138c-81 0 -127 61 -138 138z" />
    <glyph glyph-name="Gdotaccent" unicode="&#x120;" horiz-adv-x="633" 
d="M302 729c0 27 22 49 49 49s49 -22 49 -49s-22 -49 -49 -49s-49 22 -49 49zM499 298h58v-245c-42 -42 -105 -68 -193 -68c-193 0 -300 140 -300 320c0 177 101 326 290 326c93 0 160 -24 204 -60l-25 -44c-41 31 -93 55 -179 55c-149 0 -229 -127 -229 -277
s84 -271 241 -271c58 0 100 13 133 35v229z" />
    <glyph glyph-name="gdotaccent" unicode="&#x121;" horiz-adv-x="492" 
d="M67 312c0 97 74 154 165 154c57 0 106 -22 136 -60l93 62v-60l-74 -34c7 -19 12 -39 12 -62c0 -96 -74 -153 -167 -153c-18 0 -36 2 -52 6c-20 -18 -36 -37 -36 -59c0 -26 11 -47 54 -47h152c62 0 105 -32 105 -88c0 -92 -113 -159 -249 -159c-104 0 -174 31 -174 104
c0 49 42 87 85 113c-22 14 -29 36 -29 60c0 39 23 64 55 91c-46 25 -76 70 -76 132zM190 14c-12 0 -22 0 -31 2c-36 -21 -73 -54 -73 -92c0 -45 42 -66 118 -66c105 0 194 44 194 104c0 32 -21 52 -66 52h-142zM122 312c0 -85 69 -110 111 -110c63 0 111 42 111 110
s-48 111 -111 111s-111 -43 -111 -111zM177 597c0 27 22 49 49 49s49 -22 49 -49s-22 -49 -49 -49s-49 22 -49 49z" />
    <glyph glyph-name="uni0122" unicode="&#x122;" horiz-adv-x="633" 
d="M335 -285l-22 26c37 29 53 51 59 85h-2c-27 0 -49 22 -49 49c0 28 22 50 49 50c33 0 50 -27 50 -67c-1 -58 -33 -108 -85 -143zM499 298h58v-245c-42 -42 -105 -68 -193 -68c-193 0 -300 140 -300 320c0 177 101 326 290 326c93 0 160 -24 204 -60l-25 -44
c-41 31 -93 55 -179 55c-149 0 -229 -127 -229 -277s84 -271 241 -271c58 0 100 13 133 35v229z" />
    <glyph glyph-name="uni0123" unicode="&#x123;" horiz-adv-x="492" 
d="M265 724l22 -26c-37 -29 -53 -51 -59 -85h2c27 0 49 -22 49 -49c0 -28 -22 -50 -49 -50c-33 0 -50 27 -50 67c1 58 33 108 85 143zM67 312c0 97 74 154 165 154c57 0 106 -22 136 -60l93 62v-60l-74 -34c7 -19 12 -39 12 -62c0 -96 -74 -153 -167 -153c-18 0 -36 2 -52 6
c-20 -18 -36 -37 -36 -59c0 -26 11 -47 54 -47h152c62 0 105 -32 105 -88c0 -92 -113 -159 -249 -159c-104 0 -174 31 -174 104c0 49 42 87 85 113c-22 14 -29 36 -29 60c0 39 23 64 55 91c-46 25 -76 70 -76 132zM190 14c-12 0 -22 0 -31 2c-36 -21 -73 -54 -73 -92
c0 -45 42 -66 118 -66c105 0 194 44 194 104c0 32 -21 52 -66 52h-142zM122 312c0 -85 69 -110 111 -110c63 0 111 42 111 110s-48 111 -111 111s-111 -43 -111 -111z" />
    <glyph glyph-name="Hcircumflex" unicode="&#x124;" horiz-adv-x="652" 
d="M492 616h58v-616h-58v301h-332v-301h-57v616h57v-266h332v266zM339 812l111 -117l-30 -35l-98 99l-91 -99l-31 35l108 117h31z" />
    <glyph glyph-name="hcircumflex" unicode="&#x125;" 
d="M424 0h-55v339c0 59 -36 79 -74 79c-57 0 -112 -31 -152 -78v-340h-55v651l55 11v-268c43 43 94 71 158 71c65 0 123 -29 123 -122v-343zM270 818l111 -117l-30 -35l-98 99l-91 -99l-31 35l108 117h31z" />
    <glyph glyph-name="Hbar" unicode="&#x126;" horiz-adv-x="665" 
d="M498 616h58v-111h68v-41h-68v-464h-58v301h-332v-301h-57v464h-70v41h70v111h57v-111h332v111zM166 350h332v114h-332v-114z" />
    <glyph glyph-name="Itilde" unicode="&#x128;" horiz-adv-x="263" 
d="M103 616h57v-616h-57v616zM178 686c-43 0 -69 47 -100 47c-18 0 -37 -9 -56 -47l-35 26c31 54 56 72 96 72c38 0 62 -48 96 -48c19 0 41 12 60 49l35 -26c-28 -53 -55 -73 -96 -73z" />
    <glyph glyph-name="itilde" unicode="&#x129;" horiz-adv-x="232" 
d="M144 0h-56v442l56 11v-453zM157 541c-46 0 -69 46 -99 46c-14 0 -32 -9 -47 -47l-36 27c27 52 51 70 86 70c38 0 62 -46 96 -46c15 0 35 11 49 49l36 -26c-25 -52 -49 -73 -85 -73z" />
    <glyph glyph-name="Imacron" unicode="&#x12a;" horiz-adv-x="263" 
d="M103 616h57v-616h-57v616zM26 723v49h211v-49h-211z" />
    <glyph glyph-name="imacron" unicode="&#x12b;" horiz-adv-x="232" 
d="M144 0h-56v442l56 11v-453zM10 559v49h211v-49h-211z" />
    <glyph glyph-name="Iogonek" unicode="&#x12e;" horiz-adv-x="265" 
d="M153 -130l18 -32c-28 -21 -53 -27 -81 -27c-57 0 -92 38 -92 95c0 52 37 87 107 116v594h57v-616h-5c-76 -27 -114 -57 -114 -94c0 -31 22 -53 52 -53c19 0 39 2 58 17z" />
    <glyph glyph-name="iogonek" unicode="&#x12f;" horiz-adv-x="235" 
d="M138 -130l18 -32c-28 -21 -53 -27 -81 -27c-57 0 -92 38 -92 95c0 52 37 88 108 116v427l55 12v-461h-4c-76 -27 -114 -57 -114 -94c0 -31 22 -53 52 -53c19 0 39 2 58 17zM75 601c0 25 20 44 44 44s44 -19 44 -44c0 -24 -20 -43 -44 -43s-44 19 -44 43z" />
    <glyph glyph-name="Idotaccent" unicode="&#x130;" horiz-adv-x="263" 
d="M103 616h57v-616h-57v616zM78 729c0 27 22 49 49 49s49 -22 49 -49s-22 -49 -49 -49s-49 22 -49 49z" />
    <glyph glyph-name="hbar" unicode="&#x127;" 
d="M37 521v41h51v89l55 11v-100h125v-41h-125v-127c43 43 94 71 158 71c65 0 123 -29 123 -122v-343h-55v339c0 59 -36 79 -74 79c-57 0 -112 -31 -152 -78v-340h-55v521h-51z" />
    <glyph glyph-name="IJ" unicode="&#x132;" horiz-adv-x="526" 
d="M103 616h57v-616h-57v616zM365 616h57v-566c0 -144 -30 -199 -177 -238l-14 47c110 31 134 72 134 190v567z" />
    <glyph glyph-name="ij" unicode="&#x133;" horiz-adv-x="462" 
d="M143 0h-55v449l55 12v-461zM72 601c0 25 20 44 44 44s44 -19 44 -44c0 -24 -20 -43 -44 -43s-44 19 -44 43zM318 449l56 12v-411c0 -144 -29 -199 -175 -238l-13 45c110 30 132 74 132 192v400zM303 601c0 25 20 44 44 44s44 -19 44 -44c0 -24 -20 -43 -44 -43
s-44 19 -44 43z" />
    <glyph glyph-name="Jcircumflex" unicode="&#x134;" horiz-adv-x="263" 
d="M103 616h57v-566c0 -144 -30 -199 -177 -238l-14 47c110 31 134 72 134 190v567zM146 812l111 -117l-30 -35l-98 99l-91 -99l-31 35l108 117h31z" />
    <glyph glyph-name="jcircumflex" unicode="&#x135;" horiz-adv-x="232" 
d="M88 442l56 11v-403c0 -144 -29 -199 -175 -238l-13 45c110 30 132 74 132 192v393zM-12 547l113 143h31l112 -144l-32 -28l-94 119l-97 -119z" />
    <glyph glyph-name="uni0136" unicode="&#x136;" horiz-adv-x="546" 
d="M515 0h-69l-208 285h-79v-285h-56v616h56v-283h73l203 283h63l-213 -303zM244 -285l-22 26c37 29 53 51 59 85h-2c-27 0 -49 22 -49 49c0 28 22 50 49 50c33 0 50 -27 50 -67c-1 -58 -33 -108 -85 -143z" />
    <glyph glyph-name="uni0137" unicode="&#x137;" horiz-adv-x="465" 
d="M437 0h-67l-154 234h-73v-234h-55v651l55 11v-381h69l139 171h67l-156 -191h2zM197 -285l-22 26c37 29 53 51 59 85h-2c-27 0 -49 22 -49 49c0 28 22 50 49 50c33 0 50 -27 50 -67c-1 -58 -33 -108 -85 -143z" />
    <glyph glyph-name="kgreenlandic" unicode="&#x138;" horiz-adv-x="464" 
d="M437 0h-67l-177 233h-49v-233h-56v455l56 9v-183h44l163 171h67l-181 -191z" />
    <glyph glyph-name="Lacute" unicode="&#x139;" horiz-adv-x="480" 
d="M79 675l-23 46l176 90l23 -50zM447 49v-49h-344v616h57v-567h287z" />
    <glyph glyph-name="lacute" unicode="&#x13a;" horiz-adv-x="238" 
d="M59 674l-23 46l176 90l23 -50zM91 651l56 11v-662h-56v651z" />
    <glyph glyph-name="uni013B" unicode="&#x13b;" horiz-adv-x="480" 
d="M225 -285l-22 26c37 29 53 51 59 85h-2c-27 0 -49 22 -49 49c0 28 22 50 49 50c33 0 50 -27 50 -67c-1 -58 -33 -108 -85 -143zM447 49v-49h-344v616h57v-567h287z" />
    <glyph glyph-name="uni013C" unicode="&#x13c;" horiz-adv-x="238" 
d="M89 -285l-22 26c37 29 53 51 59 85h-2c-27 0 -49 22 -49 49c0 28 22 50 49 50c33 0 50 -27 50 -67c-1 -58 -33 -108 -85 -143zM91 651l56 11v-662h-56v651z" />
    <glyph glyph-name="Lcaron" unicode="&#x13d;" horiz-adv-x="480" 
d="M447 49v-49h-344v616h57v-567h287zM121 657l-114 117l30 35l101 -99l94 99l30 -34l-111 -118h-30z" />
    <glyph glyph-name="lcaron" unicode="&#x13e;" horiz-adv-x="278" 
d="M225 420l-22 27c37 28 53 50 59 85h-2c-27 0 -49 22 -49 49s22 49 49 49c33 0 50 -27 50 -67c-1 -58 -33 -108 -85 -143zM91 651l56 11v-662h-56v651z" />
    <glyph glyph-name="Ldot" unicode="&#x13f;" horiz-adv-x="498" 
d="M447 49v-49h-344v616h57v-567h287zM313 326c0 27 22 49 49 49s49 -22 49 -49s-22 -49 -49 -49s-49 22 -49 49z" />
    <glyph glyph-name="ldot" unicode="&#x140;" horiz-adv-x="303" 
d="M91 651l56 11v-662h-56v651zM221 270c0 27 22 49 49 49s49 -22 49 -49s-22 -49 -49 -49s-49 22 -49 49z" />
    <glyph glyph-name="Nacute" unicode="&#x143;" horiz-adv-x="655" 
d="M295 674l-23 46l176 90l23 -50zM495 616h57v-616h-57l-335 524v-524h-57v616h57l335 -527v527z" />
    <glyph glyph-name="nacute" unicode="&#x144;" 
d="M220 517l-33 36l144 137l35 -40zM143 0h-55v450l41 9l10 -69c43 46 96 75 162 75c65 0 123 -29 123 -122v-343h-55v339c0 59 -37 79 -74 79c-58 0 -113 -31 -152 -78v-340z" />
    <glyph glyph-name="uni0145" unicode="&#x145;" horiz-adv-x="655" 
d="M291 -285l-22 26c37 29 53 51 59 85h-2c-27 0 -49 22 -49 49c0 28 22 50 49 50c33 0 50 -27 50 -67c-1 -58 -33 -108 -85 -143zM495 616h57v-616h-57l-335 524v-524h-57v616h57l335 -527v527z" />
    <glyph glyph-name="uni0146" unicode="&#x146;" 
d="M217 -285l-22 26c37 29 53 51 59 85h-2c-27 0 -49 22 -49 49c0 28 22 50 49 50c33 0 50 -27 50 -67c-1 -58 -33 -108 -85 -143zM143 0h-55v450l41 9l10 -69c43 46 96 75 162 75c65 0 123 -29 123 -122v-343h-55v339c0 59 -37 79 -74 79c-58 0 -113 -31 -152 -78v-340z
" />
    <glyph glyph-name="Ncaron" unicode="&#x147;" horiz-adv-x="655" 
d="M495 616h57v-616h-57l-335 524v-524h-57v616h57l335 -527v527zM321 657l-114 117l30 35l101 -99l94 99l30 -34l-111 -118h-30z" />
    <glyph glyph-name="ncaron" unicode="&#x148;" 
d="M250 517l-114 143l33 30l98 -122l93 121l33 -28l-113 -144h-30zM143 0h-55v450l41 9l10 -69c43 46 96 75 162 75c65 0 123 -29 123 -122v-343h-55v339c0 59 -37 79 -74 79c-58 0 -113 -31 -152 -78v-340z" />
    <glyph glyph-name="napostrophe" unicode="&#x149;" horiz-adv-x="556" 
d="M47 420l-22 27c37 28 53 50 59 85h-2c-27 0 -49 22 -49 49s22 49 49 49c33 0 50 -27 50 -67c-1 -58 -33 -108 -85 -143zM191 0h-55v450l41 9l10 -69c43 46 96 75 162 75c65 0 123 -29 123 -122v-343h-55v339c0 59 -37 79 -74 79c-58 0 -113 -31 -152 -78v-340z" />
    <glyph glyph-name="Omacron" unicode="&#x14c;" horiz-adv-x="677" 
d="M350 34c126 0 202 120 202 271c0 158 -76 277 -208 277c-140 0 -218 -115 -218 -266c0 -160 81 -282 224 -282zM350 -15c-183 0 -285 139 -285 331c0 178 102 315 279 315c170 0 268 -141 268 -326c0 -182 -96 -320 -262 -320zM238 699v50h211v-50h-211z" />
    <glyph glyph-name="omacron" unicode="&#x14d;" horiz-adv-x="526" 
d="M150 559v49h211v-49h-211zM59 225c0 132 71 240 203 240c134 0 205 -108 205 -240c0 -129 -71 -240 -204 -240c-134 0 -204 110 -204 240zM118 225c0 -104 48 -193 145 -193s145 89 145 193c0 107 -48 193 -145 193s-145 -86 -145 -193z" />
    <glyph glyph-name="Obreve" unicode="&#x14e;" horiz-adv-x="677" 
d="M350 34c126 0 202 120 202 271c0 158 -76 277 -208 277c-140 0 -218 -115 -218 -266c0 -160 81 -282 224 -282zM350 -15c-183 0 -285 139 -285 331c0 178 102 315 279 315c170 0 268 -141 268 -326c0 -182 -96 -320 -262 -320zM203 800l42 13c7 -41 46 -93 97 -93
c52 0 92 50 103 92l38 -12c-14 -73 -62 -129 -141 -129c-81 0 -127 54 -139 129z" />
    <glyph glyph-name="obreve" unicode="&#x14f;" horiz-adv-x="526" 
d="M59 225c0 132 71 240 203 240c134 0 205 -108 205 -240c0 -129 -71 -240 -204 -240c-134 0 -204 110 -204 240zM118 225c0 -104 48 -193 145 -193s145 89 145 193c0 107 -48 193 -145 193s-145 -86 -145 -193zM114 675l41 10c7 -44 46 -99 97 -99c52 0 91 55 103 101
l39 -12c-14 -79 -63 -138 -142 -138c-81 0 -127 61 -138 138z" />
    <glyph glyph-name="Ohungarumlaut" unicode="&#x150;" horiz-adv-x="677" 
d="M299 687l-44 21l67 139l48 -25zM412 687l-45 21l68 139l47 -25zM350 34c126 0 202 120 202 271c0 158 -76 277 -208 277c-140 0 -218 -115 -218 -266c0 -160 81 -282 224 -282zM350 -15c-183 0 -285 139 -285 331c0 178 102 315 279 315c170 0 268 -141 268 -326
c0 -182 -96 -320 -262 -320z" />
    <glyph glyph-name="ohungarumlaut" unicode="&#x151;" horiz-adv-x="526" 
d="M226 523l-44 21l67 139l48 -25zM339 523l-45 21l68 139l47 -25zM59 225c0 132 71 240 203 240c134 0 205 -108 205 -240c0 -129 -71 -240 -204 -240c-134 0 -204 110 -204 240zM118 225c0 -104 48 -193 145 -193s145 89 145 193c0 107 -48 193 -145 193
s-145 -86 -145 -193z" />
    <glyph glyph-name="Racute" unicode="&#x154;" horiz-adv-x="540" 
d="M495 0h-66l-163 261h-106v-261h-57v616h142c152 0 211 -72 211 -171c0 -85 -46 -153 -132 -176zM246 567h-86v-257h94c91 0 142 57 142 130c0 70 -35 127 -150 127zM212 674l-23 46l176 90l23 -50z" />
    <glyph glyph-name="racute" unicode="&#x155;" horiz-adv-x="354" 
d="M158 516l-33 36l144 137l35 -40zM143 0h-55v449l44 9l8 -86c41 58 88 93 149 93c14 0 25 0 39 -6l1 -51c-14 5 -26 8 -41 8c-56 0 -106 -35 -145 -94v-322z" />
    <glyph glyph-name="uni0156" unicode="&#x156;" horiz-adv-x="540" 
d="M495 0h-66l-163 261h-106v-261h-57v616h142c152 0 211 -72 211 -171c0 -85 -46 -153 -132 -176zM246 567h-86v-257h94c91 0 142 57 142 130c0 70 -35 127 -150 127zM247 -285l-22 26c37 29 53 51 59 85h-2c-27 0 -49 22 -49 49c0 28 22 50 49 50c33 0 50 -27 50 -67
c-1 -58 -33 -108 -85 -143z" />
    <glyph glyph-name="uni0157" unicode="&#x157;" horiz-adv-x="354" 
d="M143 0h-55v449l44 9l8 -86c41 58 88 93 149 93c14 0 25 0 39 -6l1 -51c-14 5 -26 8 -41 8c-56 0 -106 -35 -145 -94v-322zM75 -285l-22 26c37 29 53 51 59 85h-2c-27 0 -49 22 -49 49c0 28 22 50 49 50c33 0 50 -27 50 -67c-1 -58 -33 -108 -85 -143z" />
    <glyph glyph-name="Rcaron" unicode="&#x158;" horiz-adv-x="540" 
d="M495 0h-66l-163 261h-106v-261h-57v616h142c152 0 211 -72 211 -171c0 -85 -46 -153 -132 -176zM246 567h-86v-257h94c91 0 142 57 142 130c0 70 -35 127 -150 127zM243 657l-114 117l30 35l101 -99l94 99l30 -34l-111 -118h-30z" />
    <glyph glyph-name="rcaron" unicode="&#x159;" horiz-adv-x="354" 
d="M185 516l-114 143l33 30l98 -122l93 121l33 -28l-113 -144h-30zM143 0h-55v449l44 9l8 -86c41 58 88 93 149 93c14 0 25 0 39 -6l1 -51c-14 5 -26 8 -41 8c-56 0 -106 -35 -145 -94v-322z" />
    <glyph glyph-name="Sacute" unicode="&#x15a;" horiz-adv-x="500" 
d="M53 45l20 47c49 -33 111 -58 169 -58c75 0 135 35 135 116c0 153 -300 142 -300 329c0 57 40 151 189 151c64 0 105 -13 160 -42l-16 -48c-53 29 -98 41 -146 41c-104 0 -128 -64 -128 -101c0 -145 303 -137 303 -330c0 -113 -92 -165 -201 -165c-66 0 -126 24 -185 60z
M197 674l-23 46l176 90l23 -50z" />
    <glyph glyph-name="sacute" unicode="&#x15b;" horiz-adv-x="430" 
d="M181 517l-33 36l144 137l35 -40zM357 436l-11 -43c-44 19 -86 27 -119 27c-45 0 -94 -12 -94 -63c0 -97 245 -114 245 -250c0 -77 -76 -122 -168 -122c-67 0 -114 21 -163 55l15 46c45 -35 87 -54 145 -54c61 0 113 26 113 71c0 102 -245 111 -245 250
c0 84 72 112 142 112c57 0 91 -11 140 -29z" />
    <glyph glyph-name="Scircumflex" unicode="&#x15c;" horiz-adv-x="500" 
d="M53 45l20 47c49 -33 111 -58 169 -58c75 0 135 35 135 116c0 153 -300 142 -300 329c0 57 40 151 189 151c64 0 105 -13 160 -42l-16 -48c-53 29 -98 41 -146 41c-104 0 -128 -64 -128 -101c0 -145 303 -137 303 -330c0 -113 -92 -165 -201 -165c-66 0 -126 24 -185 60z
M278 812l111 -117l-30 -35l-98 99l-91 -99l-31 35l108 117h31z" />
    <glyph glyph-name="scircumflex" unicode="&#x15d;" horiz-adv-x="430" 
d="M103 547l113 143h31l112 -144l-32 -28l-94 119l-97 -119zM357 436l-11 -43c-44 19 -86 27 -119 27c-45 0 -94 -12 -94 -63c0 -97 245 -114 245 -250c0 -77 -76 -122 -168 -122c-67 0 -114 21 -163 55l15 46c45 -35 87 -54 145 -54c61 0 113 26 113 71
c0 102 -245 111 -245 250c0 84 72 112 142 112c57 0 91 -11 140 -29z" />
    <glyph glyph-name="Scedilla" unicode="&#x15e;" horiz-adv-x="500" 
d="M53 45l20 47c49 -33 111 -58 169 -58c75 0 135 35 135 116c0 153 -300 142 -300 329c0 57 40 151 189 151c64 0 105 -13 160 -42l-16 -48c-53 29 -98 41 -146 41c-104 0 -128 -64 -128 -101c0 -145 303 -137 303 -330c0 -113 -92 -165 -201 -165c-66 0 -126 24 -185 60z
M220 -285l-22 26c37 29 53 51 59 85h-2c-27 0 -49 22 -49 49c0 28 22 50 49 50c33 0 50 -27 50 -67c-1 -58 -33 -108 -85 -143z" />
    <glyph glyph-name="scedilla" unicode="&#x15f;" horiz-adv-x="430" 
d="M357 436l-11 -43c-44 19 -86 27 -119 27c-45 0 -94 -12 -94 -63c0 -97 245 -114 245 -250c0 -77 -76 -122 -168 -122c-67 0 -114 21 -163 55l15 46c45 -35 87 -54 145 -54c61 0 113 26 113 71c0 102 -245 111 -245 250c0 84 72 112 142 112c57 0 91 -11 140 -29z
M185 -285l-22 26c37 29 53 51 59 85h-2c-27 0 -49 22 -49 49c0 28 22 50 49 50c33 0 50 -27 50 -67c-1 -58 -33 -108 -85 -143z" />
    <glyph glyph-name="uni0162" unicode="&#x162;" horiz-adv-x="514" 
d="M228 -285l-22 26c37 29 53 51 59 85h-2c-27 0 -49 22 -49 49c0 28 22 50 49 50c33 0 50 -27 50 -67c-1 -58 -33 -108 -85 -143zM481 616v-49h-195v-567h-57v567h-196v49h448z" />
    <glyph glyph-name="uni0163" unicode="&#x163;" horiz-adv-x="323" 
d="M130 -285l-22 26c37 29 53 51 59 85h-2c-27 0 -49 22 -49 49c0 28 22 50 49 50c33 0 50 -27 50 -67c-1 -58 -33 -108 -85 -143zM45 405v37l61 9l16 141h39v-140h106v-47h-106v-286c0 -53 15 -87 59 -87c22 0 38 6 69 21v-43c-33 -21 -65 -25 -88 -25
c-73 0 -96 67 -96 131v289h-60z" />
    <glyph glyph-name="Tcaron" unicode="&#x164;" horiz-adv-x="514" 
d="M481 616v-49h-195v-567h-57v567h-196v49h448zM246 656l-114 117l30 35l101 -99l94 99l30 -34l-111 -118h-30z" />
    <glyph glyph-name="tcaron" unicode="&#x165;" horiz-adv-x="381" 
d="M324 420l-22 27c37 28 53 50 59 85h-2c-27 0 -49 22 -49 49s22 49 49 49c33 0 50 -27 50 -67c-1 -58 -33 -108 -85 -143zM45 405v37l61 9l16 141h39v-140h106v-47h-106v-286c0 -53 15 -87 59 -87c22 0 38 6 69 21v-43c-33 -21 -65 -25 -88 -25c-73 0 -96 67 -96 131v289
h-60z" />
    <glyph glyph-name="Tbar" unicode="&#x166;" horiz-adv-x="535" 
d="M492 616v-49h-195v-184h152v-41h-152v-342h-57v342h-154v41h154v184h-196v49h448z" />
    <glyph glyph-name="tbar" unicode="&#x167;" horiz-adv-x="324" 
d="M45 405v37l61 9l16 141h39v-140h106v-47h-106v-89h101v-41h-101v-156c0 -53 15 -87 59 -87c22 0 38 6 69 21v-43c-33 -21 -65 -25 -88 -25c-73 0 -96 67 -96 131v159h-57v41h57v89h-60z" />
    <glyph glyph-name="Utilde" unicode="&#x168;" horiz-adv-x="633" 
d="M97 616h57v-420c0 -90 32 -162 162 -162c131 0 163 72 163 162v420h58v-424c0 -105 -44 -207 -221 -207c-175 0 -219 102 -219 207v424zM368 686c-43 0 -69 47 -100 47c-18 0 -37 -9 -56 -47l-35 26c31 54 56 72 96 72c38 0 62 -48 96 -48c19 0 41 12 60 49l35 -26
c-28 -53 -55 -73 -96 -73z" />
    <glyph glyph-name="utilde" unicode="&#x169;" 
d="M364 452h56v-452h-41l-9 63c-44 -47 -97 -76 -163 -76c-65 0 -124 29 -124 122v342l56 10v-348c0 -59 36 -78 74 -78c56 0 110 29 151 76v341zM300 541c-46 0 -69 46 -99 46c-14 0 -32 -9 -47 -47l-36 27c27 52 51 70 86 70c38 0 62 -46 96 -46c15 0 35 11 49 49l36 -26
c-25 -52 -49 -73 -85 -73z" />
    <glyph glyph-name="Umacron" unicode="&#x16a;" horiz-adv-x="633" 
d="M97 616h57v-420c0 -90 32 -162 162 -162c131 0 163 72 163 162v420h58v-424c0 -105 -44 -207 -221 -207c-175 0 -219 102 -219 207v424zM215 699v50h211v-50h-211z" />
    <glyph glyph-name="umacron" unicode="&#x16b;" 
d="M364 452h56v-452h-41l-9 63c-44 -47 -97 -76 -163 -76c-65 0 -124 29 -124 122v342l56 10v-348c0 -59 36 -78 74 -78c56 0 110 29 151 76v341zM152 559v49h211v-49h-211z" />
    <glyph glyph-name="Ubreve" unicode="&#x16c;" horiz-adv-x="633" 
d="M97 616h57v-420c0 -90 32 -162 162 -162c131 0 163 72 163 162v420h58v-424c0 -105 -44 -207 -221 -207c-175 0 -219 102 -219 207v424zM180 800l42 13c7 -41 46 -93 97 -93c52 0 92 50 103 92l38 -12c-14 -73 -62 -129 -141 -129c-81 0 -127 54 -139 129z" />
    <glyph glyph-name="ubreve" unicode="&#x16d;" 
d="M364 452h56v-452h-41l-9 63c-44 -47 -97 -76 -163 -76c-65 0 -124 29 -124 122v342l56 10v-348c0 -59 36 -78 74 -78c56 0 110 29 151 76v341zM117 675l41 10c7 -44 46 -99 97 -99c52 0 91 55 103 101l39 -12c-14 -79 -63 -138 -142 -138c-81 0 -127 61 -138 138z" />
    <glyph glyph-name="Uring" unicode="&#x16e;" horiz-adv-x="633" 
d="M234 762c0 42 31 78 82 78c49 0 82 -33 82 -78s-33 -79 -82 -79c-51 0 -82 34 -82 79zM316 717c21 0 39 12 39 44c0 35 -18 47 -39 47c-20 0 -38 -15 -38 -47c0 -33 17 -44 38 -44zM97 616h57v-420c0 -90 32 -162 162 -162c131 0 163 72 163 162v420h58v-424
c0 -105 -44 -207 -221 -207c-175 0 -219 102 -219 207v424z" />
    <glyph glyph-name="uring" unicode="&#x16f;" 
d="M177 598c0 42 31 78 82 78c49 0 82 -33 82 -78s-33 -79 -82 -79c-51 0 -82 34 -82 79zM259 553c21 0 39 12 39 44c0 35 -18 47 -39 47c-20 0 -38 -15 -38 -47c0 -33 17 -44 38 -44zM364 452h56v-452h-41l-9 63c-44 -47 -97 -76 -163 -76c-65 0 -124 29 -124 122v342
l56 10v-348c0 -59 36 -78 74 -78c56 0 110 29 151 76v341z" />
    <glyph glyph-name="Uhungarumlaut" unicode="&#x170;" horiz-adv-x="633" 
d="M97 616h57v-420c0 -90 32 -162 162 -162c131 0 163 72 163 162v420h58v-424c0 -105 -44 -207 -221 -207c-175 0 -219 102 -219 207v424zM277 687l-44 21l67 139l48 -25zM390 687l-45 21l68 139l47 -25z" />
    <glyph glyph-name="uhungarumlaut" unicode="&#x171;" 
d="M364 452h56v-452h-41l-9 63c-44 -47 -97 -76 -163 -76c-65 0 -124 29 -124 122v342l56 10v-348c0 -59 36 -78 74 -78c56 0 110 29 151 76v341zM218 523l-44 21l67 139l48 -25zM331 523l-45 21l68 139l47 -25z" />
    <glyph glyph-name="Uogonek" unicode="&#x172;" horiz-adv-x="633" 
d="M97 616h57v-420c0 -90 32 -162 162 -162c131 0 163 72 163 162v420h58v-424c0 -85 -29 -167 -133 -196c-68 -25 -102 -55 -102 -90c0 -31 22 -53 52 -53c19 0 39 2 58 17l18 -32c-28 -21 -53 -27 -81 -27c-57 0 -92 38 -92 95c0 32 14 58 41 80c-160 7 -201 104 -201 206
v424z" />
    <glyph glyph-name="uogonek" unicode="&#x173;" 
d="M364 452h56v-452h-3l2 -4c-78 -27 -117 -58 -117 -95c0 -31 22 -53 52 -53c19 0 39 2 58 17l18 -32c-28 -21 -53 -27 -81 -27c-57 0 -92 38 -92 95c0 54 41 91 119 121l-6 41c-44 -47 -97 -76 -163 -76c-65 0 -124 29 -124 122v342l56 10v-348c0 -59 36 -78 74 -78
c56 0 110 29 151 76v341z" />
    <glyph glyph-name="Wcircumflex" unicode="&#x174;" horiz-adv-x="920" 
d="M466 812l111 -117l-30 -35l-98 99l-91 -99l-31 35l108 117h31zM297 0h-62l-194 616h58l169 -544l166 542v2h51l169 -543l167 543h57l-191 -616h-63l-165 519z" />
    <glyph glyph-name="wcircumflex" unicode="&#x175;" horiz-adv-x="691" 
d="M222 546l113 143h31l112 -144l-32 -28l-94 119l-97 -119zM239 0h-60l-137 452h56l113 -387l111 387h50l104 -389l120 389h54l-144 -452h-61l-100 374z" />
    <glyph glyph-name="Ycircumflex" unicode="&#x176;" horiz-adv-x="507" 
d="M283 251v-251h-58v254l-188 362h66l153 -303l151 303h62zM271 812l111 -117l-30 -35l-98 99l-91 -99l-31 35l108 117h31z" />
    <glyph glyph-name="ycircumflex" unicode="&#x177;" horiz-adv-x="471" 
d="M38 452h57l137 -382l148 382h53l-166 -433c-47 -114 -60 -208 -216 -208v45c105 0 119 62 152 144zM108 547l113 143h31l112 -144l-32 -28l-94 119l-97 -119z" />
    <glyph glyph-name="Zacute" unicode="&#x179;" horiz-adv-x="501" 
d="M380 567h-311v49h372v-49l-330 -518h335v-49h-397v49zM209 674l-23 46l176 90l23 -50z" />
    <glyph glyph-name="zacute" unicode="&#x17a;" horiz-adv-x="430" 
d="M182 516l-33 36l144 137l35 -40zM366 405l-258 -358h270v-47h-326v47l256 358h-245v47h303v-47z" />
    <glyph glyph-name="Zdotaccent" unicode="&#x17b;" horiz-adv-x="501" 
d="M216 729c0 27 22 49 49 49s49 -22 49 -49s-22 -49 -49 -49s-49 22 -49 49zM380 567h-311v49h372v-49l-330 -518h335v-49h-397v49z" />
    <glyph glyph-name="zdotaccent" unicode="&#x17c;" horiz-adv-x="430" 
d="M366 405l-258 -358h270v-47h-326v47l256 358h-245v47h303v-47zM181 596c0 27 22 49 49 49s49 -22 49 -49s-22 -49 -49 -49s-49 22 -49 49z" />
    <glyph glyph-name="longs" unicode="&#x17f;" horiz-adv-x="266" 
d="M47 403v35l61 11v28c0 113 29 186 178 186v-45c-105 0 -123 -54 -123 -139v-479h-55v403h-61z" />
    <glyph glyph-name="uni0218" unicode="&#x218;" horiz-adv-x="500" 
d="M53 45l20 47c49 -33 111 -58 169 -58c75 0 135 35 135 116c0 153 -300 142 -300 329c0 57 40 151 189 151c64 0 105 -13 160 -42l-16 -48c-53 29 -98 41 -146 41c-104 0 -128 -64 -128 -101c0 -145 303 -137 303 -330c0 -113 -92 -165 -201 -165c-66 0 -126 24 -185 60z
M216 -285l-22 26c37 29 53 51 59 85h-2c-27 0 -49 22 -49 49c0 28 22 50 49 50c33 0 50 -27 50 -67c-1 -58 -33 -108 -85 -143z" />
    <glyph glyph-name="uni0219" unicode="&#x219;" horiz-adv-x="430" 
d="M357 436l-11 -43c-44 19 -86 27 -119 27c-45 0 -94 -12 -94 -63c0 -97 245 -114 245 -250c0 -77 -76 -122 -168 -122c-67 0 -114 21 -163 55l15 46c45 -35 87 -54 145 -54c61 0 113 26 113 71c0 102 -245 111 -245 250c0 84 72 112 142 112c57 0 91 -11 140 -29z
M188 -285l-22 26c37 29 53 51 59 85h-2c-27 0 -49 22 -49 49c0 28 22 50 49 50c33 0 50 -27 50 -67c-1 -58 -33 -108 -85 -143z" />
    <glyph glyph-name="uni021A" unicode="&#x21a;" horiz-adv-x="514" 
d="M228 -285l-22 26c37 29 53 51 59 85h-2c-27 0 -49 22 -49 49c0 28 22 50 49 50c33 0 50 -27 50 -67c-1 -58 -33 -108 -85 -143zM481 616v-49h-195v-567h-57v567h-196v49h448z" />
    <glyph glyph-name="uni021B" unicode="&#x21b;" horiz-adv-x="323" 
d="M139 -285l-22 26c37 29 53 51 59 85h-2c-27 0 -49 22 -49 49c0 28 22 50 49 50c33 0 50 -27 50 -67c-1 -58 -33 -108 -85 -143zM45 405v37l61 9l16 141h39v-140h106v-47h-106v-286c0 -53 15 -87 59 -87c22 0 38 6 69 21v-43c-33 -21 -65 -25 -88 -25
c-73 0 -96 67 -96 131v289h-60z" />
    <glyph glyph-name="Wgrave" unicode="&#x1e80;" horiz-adv-x="920" 
d="M553 720l-23 -46l-177 86l24 50zM297 0h-62l-194 616h58l169 -544l166 542v2h51l169 -543l167 543h57l-191 -616h-63l-165 519z" />
    <glyph glyph-name="wgrave" unicode="&#x1e81;" horiz-adv-x="691" 
d="M239 0h-60l-137 452h56l113 -387l111 387h50l104 -389l120 389h54l-144 -452h-61l-100 374zM425 550l-33 -36l-147 133l35 41z" />
    <glyph glyph-name="Wacute" unicode="&#x1e82;" horiz-adv-x="920" 
d="M382 674l-23 46l176 90l23 -50zM297 0h-62l-194 616h58l169 -544l166 542v2h51l169 -543l167 543h57l-191 -616h-63l-165 519z" />
    <glyph glyph-name="wacute" unicode="&#x1e83;" horiz-adv-x="691" 
d="M318 516l-33 36l144 137l35 -40zM239 0h-60l-137 452h56l113 -387l111 387h50l104 -389l120 389h54l-144 -452h-61l-100 374z" />
    <glyph glyph-name="Wdieresis" unicode="&#x1e84;" horiz-adv-x="920" 
d="M297 0h-62l-194 616h58l169 -544l166 542v2h51l169 -543l167 543h57l-191 -616h-63l-165 519zM323 727c0 27 21 49 49 49c27 0 49 -22 49 -49s-22 -49 -49 -49s-49 22 -49 49zM486 727c0 27 21 49 49 49c27 0 49 -22 49 -49s-22 -49 -49 -49s-49 22 -49 49z" />
    <glyph glyph-name="wdieresis" unicode="&#x1e85;" horiz-adv-x="691" 
d="M226 592c0 26 22 48 49 48c26 0 48 -22 48 -48c0 -27 -22 -49 -48 -49c-27 0 -49 21 -49 49zM389 592c0 26 22 48 49 48s49 -22 49 -48c0 -27 -22 -49 -49 -49s-49 21 -49 49zM239 0h-60l-137 452h56l113 -387l111 387h50l104 -389l120 389h54l-144 -452h-61l-100 374z
" />
    <glyph glyph-name="longs_t" unicode="&#xfb05;" horiz-adv-x="585" 
d="M307 405v37l60 9l2 167h-83c-105 0 -123 -54 -123 -139v-479h-55v403h-61v35l61 11v28c0 113 29 186 178 186h137v-211h106v-47h-106v-286c0 -53 15 -87 59 -87c22 0 38 6 69 21v-43c-33 -21 -65 -25 -88 -25c-78 0 -96 72 -96 131v289h-60z" />
    <glyph glyph-name="f_t" horiz-adv-x="585" 
d="M367 116v371c0 114 -30 154 -99 155c-91 0 -105 -85 -105 -173v-19h79v-47h-79v-403h-55v403h-61v35l61 10v20c0 110 24 218 161 218c106 0 154 -65 154 -198v-36h106v-47h-106v-286c0 -53 15 -87 59 -87c22 0 38 6 69 21v-43c-33 -21 -65 -25 -88 -25
c-78 0 -96 72 -96 131z" />
    <glyph glyph-name="b.sups" horiz-adv-x="377" 
d="M63 773l50 9v-184c27 27 61 43 99 43c81 0 123 -74 123 -164c0 -99 -44 -182 -138 -182c-33 0 -60 11 -85 32l-14 -21h-35v467zM201 599c-38 0 -65 -17 -88 -47v-182c19 -20 43 -32 77 -32c65 0 91 65 91 140c0 67 -26 121 -80 121z" />
    <glyph glyph-name="c.sups" horiz-adv-x="340" 
d="M42 469c0 102 62 172 158 172c50 0 86 -14 108 -37l-21 -35c-21 18 -46 30 -83 30c-73 0 -109 -61 -109 -130s35 -131 105 -131c42 0 66 12 85 29l20 -34c-22 -23 -57 -38 -108 -38c-102 0 -155 81 -155 174z" />
    <glyph glyph-name="d.sups" horiz-adv-x="377" 
d="M264 775l51 7v-476h-46v38c-28 -31 -64 -49 -102 -49c-81 0 -124 75 -124 165c0 99 43 181 139 181c30 0 58 -11 82 -28v162zM176 338c38 0 64 17 88 46v187c-19 17 -45 28 -76 28c-66 0 -92 -65 -92 -140c0 -68 26 -121 80 -121z" />
    <glyph glyph-name="e.sups" horiz-adv-x="364" 
d="M324 463h-230c2 -69 35 -125 105 -125c44 0 71 19 95 48l28 -25c-26 -39 -70 -66 -129 -66c-98 0 -151 78 -151 174c0 94 52 172 144 172c86 0 138 -74 138 -155v-23zM184 599c-50 0 -79 -42 -88 -95h177c-7 55 -41 95 -89 95z" />
    <glyph glyph-name="f.sups" horiz-adv-x="223" 
d="M35 587v32l43 9v18c0 82 24 136 136 136v-41c-71 0 -85 -36 -85 -93v-18h72v-43h-72v-281h-51v281h-43z" />
    <glyph glyph-name="g.sups" horiz-adv-x="366" 
d="M44 531c0 70 55 111 123 111c41 0 77 -14 99 -40l67 45v-51l-50 -21c6 -13 9 -28 9 -44c0 -70 -55 -110 -125 -110c-13 0 -25 1 -37 4c-13 -13 -23 -24 -23 -39c0 -18 7 -32 38 -32h105c46 0 77 -25 77 -68c0 -67 -79 -115 -173 -115c-74 0 -132 20 -132 74
c0 34 28 60 58 79c-18 10 -24 27 -24 44c0 29 18 49 42 70c-33 18 -54 49 -54 93zM94 531c0 -53 41 -73 74 -73c43 0 74 28 74 73s-31 74 -74 74s-74 -29 -74 -74zM133 313c-7 0 -12 0 -18 1c-22 -14 -44 -34 -44 -58c0 -30 27 -44 79 -44c67 0 124 27 124 65
c0 22 -13 36 -43 36h-98z" />
    <glyph glyph-name="h.sups" horiz-adv-x="375" 
d="M315 306h-50v237c0 41 -25 56 -52 56c-37 0 -74 -20 -100 -51v-242h-50v467l50 9v-186c29 28 65 45 109 45c49 0 93 -22 93 -93v-242z" />
    <glyph glyph-name="i.sups" horiz-adv-x="175" 
d="M113 306h-51v323l51 8v-331zM51 739c0 20 16 36 37 36c20 0 37 -16 37 -36s-17 -36 -37 -36c-21 0 -37 15 -37 36z" />
    <glyph glyph-name="j.sups" horiz-adv-x="175" 
d="M62 629l51 8v-293c0 -104 -22 -145 -132 -173l-11 41c76 20 92 51 92 131v286zM51 739c0 20 16 36 36 36c21 0 38 -16 38 -36s-17 -36 -38 -36c-20 0 -36 15 -36 36z" />
    <glyph glyph-name="k.sups" horiz-adv-x="343" 
d="M326 306h-61l-118 163h-34v-163h-50v467l50 9v-270h34l107 120h60l-125 -140z" />
    <glyph glyph-name="l.sups" horiz-adv-x="176" 
d="M63 773l50 9v-476h-50v467z" />
    <glyph glyph-name="m.sups" horiz-adv-x="575" 
d="M515 306h-50v237c0 41 -25 56 -52 56c-37 0 -73 -20 -99 -50v-1v-242h-50v237c0 41 -25 56 -52 56c-37 0 -74 -20 -100 -51v-242h-50v324l46 9l1 -46c30 30 67 48 112 48c37 0 72 -13 86 -51c31 31 68 51 115 51c49 0 93 -22 93 -93v-242z" />
    <glyph glyph-name="n.sups" unicode="&#x207f;" horiz-adv-x="374" 
d="M112 306h-50v324l46 9l1 -46c30 30 67 48 112 48c49 0 93 -22 93 -93v-242h-50v237c0 41 -25 56 -52 56c-37 0 -74 -20 -100 -51v-242z" />
    <glyph glyph-name="o.sups" horiz-adv-x="384" 
d="M42 469c0 94 52 172 149 172c100 0 151 -78 151 -172s-51 -174 -150 -174c-98 0 -150 80 -150 174zM95 469c0 -71 32 -131 97 -131s97 60 97 131s-32 130 -97 130s-97 -59 -97 -130z" />
    <glyph glyph-name="p.sups" horiz-adv-x="377" 
d="M113 170h-51v460l46 6l1 -41c28 30 63 47 102 47c80 0 123 -74 123 -165c0 -98 -43 -181 -139 -181c-30 0 -58 11 -82 28v-154zM200 600c-38 0 -64 -17 -87 -47v-185c18 -18 44 -29 76 -29c66 0 92 65 92 140c0 67 -26 121 -81 121z" />
    <glyph glyph-name="q.sups" horiz-adv-x="377" 
d="M315 170h-51v167c-27 -26 -60 -42 -97 -42c-83 0 -124 75 -124 165c0 99 45 181 139 181c31 0 62 -13 87 -34l10 28h36v-465zM176 338c37 0 64 16 88 45v185c-19 19 -43 31 -76 31c-66 0 -92 -65 -92 -140c0 -67 26 -121 80 -121z" />
    <glyph glyph-name="r.sups" horiz-adv-x="262" 
d="M113 306h-51v323l51 8v-60c28 40 60 64 102 64c10 0 18 0 27 -4l1 -45c-10 3 -19 5 -30 5c-38 0 -72 -22 -100 -64v-227z" />
    <glyph glyph-name="s.sups" horiz-adv-x="311" 
d="M260 620l-9 -39c-33 15 -63 21 -85 21c-29 0 -60 -8 -60 -41c0 -60 169 -79 169 -175c0 -58 -54 -91 -122 -91c-49 0 -84 15 -121 39l14 42c34 -25 64 -38 103 -38c38 0 71 17 71 45c0 66 -168 77 -168 175c0 62 52 83 104 83c41 0 67 -6 104 -21z" />
    <glyph glyph-name="t.sups" horiz-adv-x="246" 
d="M33 589v36l45 6l11 100h38v-99h72v-43h-72v-192c0 -37 11 -59 40 -59c15 0 25 4 47 14v-39c-24 -15 -47 -18 -64 -18c-53 0 -73 44 -73 95v199h-44z" />
    <glyph glyph-name="u.sups" horiz-adv-x="374" 
d="M261 632h50v-326h-46v40c-31 -31 -68 -50 -113 -50c-49 0 -93 23 -93 94v240l50 9v-244c0 -41 25 -55 52 -55c37 0 73 20 100 51v241z" />
    <glyph glyph-name="v.sups" horiz-adv-x="340" 
d="M195 306h-55l-117 326h54l91 -267l97 267h52z" />
    <glyph glyph-name="w.sups" horiz-adv-x="493" 
d="M178 306h-55l-95 326h54l70 -259l69 259h54l66 -261l73 261h53l-101 -326h-54l-66 252z" />
    <glyph glyph-name="x.sups" horiz-adv-x="329" 
d="M77 306h-58l117 167l-104 159h58l76 -117l82 117h58l-112 -159l110 -167h-58l-82 124z" />
    <glyph glyph-name="y.sups" horiz-adv-x="341" 
d="M24 632h53l93 -258l96 258h52l-113 -299c-34 -84 -48 -163 -170 -163v41c71 0 85 42 108 95h-1z" />
    <glyph glyph-name="z.sups" horiz-adv-x="314" 
d="M270 589l-174 -241h181v-42h-240v42l172 241h-165v43h226v-43z" />
    <glyph glyph-name="a.sups" horiz-adv-x="335" 
d="M225 306v39c-36 -31 -66 -50 -107 -50c-46 0 -83 25 -83 75c0 74 80 96 190 124v28c0 57 -34 77 -72 77c-30 0 -63 -12 -86 -27l-15 35c30 19 66 34 112 34c60 0 111 -29 111 -115v-220h-50zM130 340c33 0 59 16 95 43v74c-83 -22 -138 -34 -138 -80c0 -25 20 -37 43 -37
z" />
    <glyph glyph-name="exclam.smcp" horiz-adv-x="265" 
d="M103 496h59l-5 -353h-48zM93 28c0 21 18 38 40 38c23 0 42 -17 42 -38c0 -22 -19 -40 -42 -40c-22 0 -40 18 -40 40z" />
    <glyph glyph-name="parenleft.smcp" horiz-adv-x="296" 
d="M245 -102l-40 -27c-85 96 -142 192 -142 336c0 142 65 251 145 342l39 -26c-72 -85 -128 -186 -128 -316c0 -129 53 -224 126 -309z" />
    <glyph glyph-name="parenright.smcp" horiz-adv-x="296" 
d="M91 -129l-39 27c73 85 126 180 126 309c0 130 -56 231 -129 316l39 26c80 -91 146 -200 146 -342c0 -148 -63 -246 -143 -336z" />
    <glyph glyph-name="percent.smcp" horiz-adv-x="655" 
d="M144 2l327 508l42 -27l-326 -508zM157 233c-64 0 -109 51 -109 131c0 79 45 131 109 131c65 0 109 -52 109 -131c0 -80 -44 -131 -109 -131zM157 272c35 0 59 36 59 92s-25 92 -59 92c-35 0 -59 -36 -59 -92s24 -92 59 -92zM499 -12c-64 0 -109 51 -109 131
c0 79 44 131 109 131c64 0 108 -52 108 -131c0 -80 -44 -131 -108 -131zM499 27c34 0 58 36 58 92s-24 92 -58 92s-58 -35 -58 -92c0 -56 24 -92 58 -92z" />
    <glyph glyph-name="ampersand.smcp" horiz-adv-x="597" 
d="M476 278h62l-161 -181l5 -6c25 -35 54 -58 75 -58s42 10 59 25l21 -32c-24 -21 -49 -38 -90 -38c-27 0 -69 25 -103 71c-33 -34 -79 -72 -134 -72c-82 0 -149 61 -149 139c0 75 64 120 125 153c-27 39 -53 78 -53 110c0 58 46 106 113 106c68 0 108 -50 109 -97
c3 -60 -44 -103 -98 -133l92 -128zM209 32c40 0 75 32 106 67l-101 142c-49 -26 -102 -58 -102 -115c0 -54 45 -94 97 -94zM184 389c0 -24 22 -55 46 -86c40 23 75 55 74 92c-1 27 -23 56 -60 56c-35 0 -60 -28 -60 -62z" />
    <glyph glyph-name="dollar.smcp" horiz-adv-x="417" 
d="M228 573h29l-8 -80c36 -3 64 -13 99 -32l-16 -45c-33 17 -60 27 -87 30l-17 -175c61 -33 128 -70 128 -150c0 -89 -71 -131 -154 -133l-7 -77h-29l7 79c-43 5 -85 22 -122 45l20 44c32 -21 70 -38 107 -43l18 191c-59 33 -123 68 -123 145c0 45 32 119 148 122zM295 119
c0 43 -32 69 -72 93l-17 -177c50 2 89 28 89 84zM131 374c0 -40 31 -64 70 -87l15 160c-68 -3 -85 -47 -85 -73z" />
    <glyph glyph-name="question.smcp" horiz-adv-x="373" 
d="M76 396l-32 29c35 41 84 70 141 70c96 0 143 -62 143 -123c0 -115 -137 -101 -137 -265h-51c0 167 131 186 131 262c0 40 -28 81 -89 81c-43 0 -79 -21 -106 -54zM122 29c0 22 19 40 43 40c23 0 43 -18 43 -40c0 -23 -20 -41 -43 -41c-24 0 -43 18 -43 41z" />
    <glyph glyph-name="zero.smcp" horiz-adv-x="475" 
d="M236 33c90 0 116 89 116 208c0 116 -28 209 -116 209c-85 0 -112 -93 -112 -209c0 -119 27 -208 112 -208zM236 -12c-129 0 -169 108 -169 253c0 141 40 254 169 254c131 0 174 -113 174 -254c0 -145 -43 -253 -174 -253z" />
    <glyph glyph-name="one.smcp" horiz-adv-x="364" 
d="M81 351l-29 35l120 98l1 -1h55v-438h93v-45h-244v45h95v379z" />
    <glyph glyph-name="two.smcp" horiz-adv-x="452" 
d="M96 400l-28 33c39 38 83 62 153 62c121 0 158 -82 156 -131c-2 -147 -250 -188 -263 -319h279v-45h-333v27c0 174 257 210 259 336c1 32 -22 87 -105 87c-53 0 -85 -16 -118 -50z" />
    <glyph glyph-name="three.smcp" horiz-adv-x="445" 
d="M100 421l-24 33c28 23 66 42 135 42c124 0 149 -76 149 -121c0 -40 -21 -89 -76 -118c64 -27 99 -77 99 -125c0 -52 -31 -143 -175 -143c-67 0 -109 18 -157 56l25 34c37 -28 69 -45 128 -45c97 0 121 63 121 100c0 48 -48 97 -145 100h-7h-12v45h12c100 0 129 53 129 94
c0 31 -15 78 -94 78c-48 0 -85 -12 -108 -30z" />
    <glyph glyph-name="four.smcp" horiz-adv-x="474" 
d="M286 483h55v-314h82v-44h-82v-125h-55v125h-239v44zM104 169h182v239z" />
    <glyph glyph-name="five.smcp" horiz-adv-x="443" 
d="M115 235h-35l29 248h262v-45h-217l-18 -151c29 14 59 23 94 23c94 0 149 -70 149 -152c0 -110 -70 -170 -166 -170c-66 0 -114 15 -160 59l28 36c37 -37 79 -50 126 -50c65 0 114 43 114 125c0 59 -37 108 -99 108c-35 0 -61 -7 -107 -31z" />
    <glyph glyph-name="six.smcp" horiz-adv-x="458" 
d="M385 469l-18 -39c-22 10 -55 20 -90 20c-73 0 -140 -64 -154 -186c36 25 79 44 124 44c84 0 150 -46 150 -151c0 -104 -70 -169 -163 -169c-105 0 -171 100 -171 228c0 181 103 279 214 279c45 0 83 -13 108 -26zM247 263c-45 0 -92 -21 -126 -49
c0 -104 45 -181 113 -181c61 0 106 46 106 122s-41 108 -93 108z" />
    <glyph glyph-name="seven.smcp" horiz-adv-x="407" 
d="M152 0h-66l226 438h-263v45h327v-24z" />
    <glyph glyph-name="eight.smcp" horiz-adv-x="446" 
d="M223 -12c-88 0 -163 43 -163 119c0 72 54 112 111 145c-53 40 -80 78 -80 126c0 75 64 117 138 117c75 0 135 -43 135 -114c0 -64 -45 -102 -99 -133c66 -44 119 -91 119 -151c0 -62 -68 -109 -161 -109zM326 103c0 44 -45 76 -109 118c-57 -28 -99 -62 -99 -111
s50 -77 104 -77c60 0 104 31 104 70zM149 378c0 -37 26 -69 70 -100c45 24 87 52 87 102c0 36 -26 70 -77 70c-47 0 -80 -30 -80 -72z" />
    <glyph glyph-name="nine.smcp" horiz-adv-x="459" 
d="M73 13l19 40c22 -10 54 -20 90 -20c73 0 139 64 153 186c-35 -26 -78 -44 -123 -44c-84 0 -151 46 -151 151c0 104 71 169 163 169c105 0 172 -95 172 -228c0 -181 -103 -279 -214 -279c-46 0 -84 13 -109 25zM212 220c45 0 92 20 126 48c-1 105 -46 182 -113 182
c-61 0 -106 -46 -106 -122c0 -75 41 -108 93 -108z" />
    <glyph glyph-name="bracketleft.smcp" horiz-adv-x="304" 
d="M103 -110v628h147v-44h-94v-539h94v-45h-147z" />
    <glyph glyph-name="bracketright.smcp" horiz-adv-x="304" 
d="M54 518h148v-628h-148v45h95v539h-95v44z" />
    <glyph glyph-name="sterling.smcp" horiz-adv-x="486" 
d="M66 231v41h67c-6 28 -10 57 -10 88c0 68 59 135 145 135c55 0 96 -16 149 -55l-31 -34c-43 30 -79 43 -115 43c-54 0 -92 -43 -92 -89c0 -30 5 -59 11 -88h104v-41h-97c5 -27 10 -55 10 -84c0 -28 -8 -54 -22 -82c34 -10 66 -31 103 -31c48 0 77 22 102 64l38 -17
c-31 -62 -66 -94 -144 -94c-47 0 -82 23 -124 36c-16 -24 -30 -35 -52 -35c-36 0 -48 24 -48 46s18 38 42 41c9 3 20 4 30 3c14 25 19 46 19 69c0 28 -5 56 -10 84h-75z" />
    <glyph glyph-name="yen.smcp" horiz-adv-x="473" 
d="M394 124v-41h-129v-83h-58v83h-126v41h126v64h-126v41h109l-140 254h64l123 -229l121 229h62l-138 -254h112v-41h-129v-64h129z" />
    <glyph glyph-name="agrave.smcp" 
d="M339 585l-24 -45l-176 86l24 49zM39 0l182 483h61l191 -483h-55l-59 148h-210l-56 -148h-54zM252 416l-85 -221h174z" />
    <glyph glyph-name="aacute.smcp" 
d="M169 544l-23 45l176 90l23 -49zM39 0l182 483h61l191 -483h-55l-59 148h-210l-56 -148h-54zM252 416l-85 -221h174z" />
    <glyph glyph-name="acircumflex.smcp" 
d="M261 692l112 -107l-30 -35l-99 89l-91 -89l-30 34l108 108h30zM39 0l182 483h61l191 -483h-55l-59 148h-210l-56 -148h-54zM252 416l-85 -221h174z" />
    <glyph glyph-name="atilde.smcp" 
d="M39 0l182 483h61l191 -483h-55l-59 148h-210l-56 -148h-54zM252 416l-85 -221h174zM297 572c-47 0 -66 46 -98 46c-18 0 -37 -9 -56 -47l-36 27c30 52 56 70 95 70c38 0 61 -46 96 -46c18 0 39 11 58 49l35 -26c-28 -53 -54 -73 -94 -73z" />
    <glyph glyph-name="adieresis.smcp" 
d="M39 0l182 483h61l191 -483h-55l-59 148h-210l-56 -148h-54zM252 416l-85 -221h174zM114 621c0 27 22 49 49 49s49 -22 49 -49s-22 -49 -49 -49s-49 22 -49 49zM278 621c0 27 22 49 49 49c26 0 48 -22 48 -49s-22 -49 -48 -49c-27 0 -49 22 -49 49z" />
    <glyph glyph-name="aring.smcp" 
d="M166 595c0 43 30 78 82 78c49 0 82 -34 82 -78c0 -46 -33 -79 -82 -79c-52 0 -82 33 -82 79zM248 549c21 0 39 12 39 45c0 34 -19 47 -39 47c-21 0 -39 -15 -39 -47c0 -34 18 -45 39 -45zM39 0l182 483h61l191 -483h-55l-59 148h-210l-56 -148h-54zM252 416l-85 -221h174
z" />
    <glyph glyph-name="ccedilla.smcp" horiz-adv-x="523" 
d="M213 -155l21 25c15 -14 41 -26 64 -26s39 17 39 37c0 29 -30 44 -96 44l25 65c-137 14 -205 122 -205 249c0 140 85 256 242 256c78 0 134 -19 171 -49l-24 -40c-33 24 -76 42 -145 42c-119 0 -183 -95 -183 -209c0 -113 62 -204 179 -204c69 0 113 16 145 42l25 -39
c-37 -29 -90 -48 -162 -50l-10 -29c50 -5 84 -34 84 -78c0 -40 -34 -75 -84 -75c-37 0 -64 19 -86 39z" />
    <glyph glyph-name="egrave.smcp" horiz-adv-x="449" 
d="M341 587l-24 -45l-176 86l24 49zM385 483v-47h-234v-161h182v-47h-182v-181h247v-47h-304v483h291z" />
    <glyph glyph-name="eacute.smcp" horiz-adv-x="449" 
d="M385 483v-47h-234v-161h182v-47h-182v-181h247v-47h-304v483h291zM173 544l-23 45l176 90l23 -49z" />
    <glyph glyph-name="ecircumflex.smcp" horiz-adv-x="449" 
d="M385 483v-47h-234v-161h182v-47h-182v-181h247v-47h-304v483h291zM254 692l112 -107l-30 -35l-99 89l-91 -89l-30 34l108 108h30z" />
    <glyph glyph-name="edieresis.smcp" horiz-adv-x="449" 
d="M385 483v-47h-234v-161h182v-47h-182v-181h247v-47h-304v483h291zM111 621c0 27 22 49 49 49s49 -22 49 -49s-22 -49 -49 -49s-49 22 -49 49zM275 621c0 27 22 49 49 49c26 0 48 -22 48 -49s-22 -49 -48 -49c-27 0 -49 22 -49 49z" />
    <glyph glyph-name="igrave.smcp" horiz-adv-x="245" 
d="M227 585l-24 -45l-176 86l24 49zM94 483h57v-483h-57v483z" />
    <glyph glyph-name="dotlessi.smcp" horiz-adv-x="245" 
d="M94 483h57v-483h-57v483z" />
    <glyph glyph-name="iacute.smcp" horiz-adv-x="245" 
d="M49 544l-23 45l176 90l23 -49zM94 483h57v-483h-57v483z" />
    <glyph glyph-name="icircumflex.smcp" horiz-adv-x="245" 
d="M144 692l112 -107l-30 -35l-99 89l-91 -89l-30 34l108 108h30zM94 483h57v-483h-57v483z" />
    <glyph glyph-name="idieresis.smcp" horiz-adv-x="245" 
d="M0 621c0 27 22 49 49 49s49 -22 49 -49s-22 -49 -49 -49s-49 22 -49 49zM164 621c0 27 22 49 49 49c26 0 48 -22 48 -49s-22 -49 -48 -49c-27 0 -49 22 -49 49zM94 483h57v-483h-57v483z" />
    <glyph glyph-name="eth.smcp" horiz-adv-x="559" 
d="M31 233v42h66v208h139c149 0 261 -79 261 -248c0 -161 -112 -235 -261 -235h-139v233h-66zM155 436v-161h135v-42h-135v-186h77c112 0 204 56 204 188c0 141 -92 201 -204 201h-77z" />
    <glyph glyph-name="ntilde.smcp" horiz-adv-x="569" 
d="M418 483h58v-483h-52l-273 389v-389h-57v483h51l273 -394v394zM349 572c-47 0 -66 46 -98 46c-18 0 -37 -9 -56 -47l-36 27c30 52 56 70 95 70c38 0 61 -46 96 -46c18 0 39 11 58 49l35 -26c-28 -53 -54 -73 -94 -73z" />
    <glyph glyph-name="ograve.smcp" horiz-adv-x="584" 
d="M302 35c100 0 161 91 161 204c0 119 -61 209 -166 209c-112 0 -175 -86 -175 -200c0 -122 65 -213 180 -213zM302 -12c-156 0 -241 108 -241 260c0 139 85 247 236 247c143 0 227 -111 227 -256c0 -143 -82 -251 -222 -251zM382 585l-24 -45l-176 86l24 49z" />
    <glyph glyph-name="oacute.smcp" horiz-adv-x="584" 
d="M302 35c100 0 161 91 161 204c0 119 -61 209 -166 209c-112 0 -175 -86 -175 -200c0 -122 65 -213 180 -213zM302 -12c-156 0 -241 108 -241 260c0 139 85 247 236 247c143 0 227 -111 227 -256c0 -143 -82 -251 -222 -251zM210 544l-23 45l176 90l23 -49z" />
    <glyph glyph-name="ocircumflex.smcp" horiz-adv-x="584" 
d="M302 35c100 0 161 91 161 204c0 119 -61 209 -166 209c-112 0 -175 -86 -175 -200c0 -122 65 -213 180 -213zM302 -12c-156 0 -241 108 -241 260c0 139 85 247 236 247c143 0 227 -111 227 -256c0 -143 -82 -251 -222 -251zM302 692l112 -107l-30 -35l-99 89l-91 -89
l-30 34l108 108h30z" />
    <glyph glyph-name="otilde.smcp" horiz-adv-x="584" 
d="M302 35c100 0 161 91 161 204c0 119 -61 209 -166 209c-112 0 -175 -86 -175 -200c0 -122 65 -213 180 -213zM302 -12c-156 0 -241 108 -241 260c0 139 85 247 236 247c143 0 227 -111 227 -256c0 -143 -82 -251 -222 -251zM338 572c-47 0 -66 46 -98 46
c-18 0 -37 -9 -56 -47l-36 27c30 52 56 70 95 70c38 0 61 -46 96 -46c18 0 39 11 58 49l35 -26c-28 -53 -54 -73 -94 -73z" />
    <glyph glyph-name="odieresis.smcp" horiz-adv-x="584" 
d="M302 35c100 0 161 91 161 204c0 119 -61 209 -166 209c-112 0 -175 -86 -175 -200c0 -122 65 -213 180 -213zM302 -12c-156 0 -241 108 -241 260c0 139 85 247 236 247c143 0 227 -111 227 -256c0 -143 -82 -251 -222 -251zM155 621c0 27 22 49 49 49s49 -22 49 -49
s-22 -49 -49 -49s-49 22 -49 49zM319 621c0 27 22 49 49 49c26 0 48 -22 48 -49s-22 -49 -48 -49c-27 0 -49 22 -49 49z" />
    <glyph glyph-name="oslash.smcp" horiz-adv-x="589" 
d="M84 -20h-43l78 89c-36 46 -55 107 -55 179c0 139 85 247 235 247c59 0 108 -19 145 -52l55 63h44l-75 -86c38 -46 58 -110 58 -181c0 -143 -81 -251 -222 -251c-69 0 -123 21 -163 57zM304 35c100 0 161 91 161 204c0 53 -12 101 -35 137l-252 -288
c30 -34 72 -53 126 -53zM125 248c0 -52 11 -98 33 -134l251 289c-28 28 -65 45 -110 45c-112 0 -174 -86 -174 -200z" />
    <glyph glyph-name="ugrave.smcp" horiz-adv-x="552" 
d="M386 587l-24 -45l-176 86l24 49zM88 483h58v-325c0 -68 26 -123 129 -123c105 0 131 55 131 123v325h58v-327c0 -85 -37 -168 -189 -168c-148 0 -187 82 -187 168v327z" />
    <glyph glyph-name="uacute.smcp" horiz-adv-x="552" 
d="M88 483h58v-325c0 -68 26 -123 129 -123c105 0 131 55 131 123v325h58v-327c0 -85 -37 -168 -189 -168c-148 0 -187 82 -187 168v327zM240 544l-23 45l176 90l23 -49z" />
    <glyph glyph-name="ucircumflex.smcp" horiz-adv-x="552" 
d="M88 483h58v-325c0 -68 26 -123 129 -123c105 0 131 55 131 123v325h58v-327c0 -85 -37 -168 -189 -168c-148 0 -187 82 -187 168v327zM300 692l112 -107l-30 -35l-99 89l-91 -89l-30 34l108 108h30z" />
    <glyph glyph-name="udieresis.smcp" horiz-adv-x="552" 
d="M88 483h58v-325c0 -68 26 -123 129 -123c105 0 131 55 131 123v325h58v-327c0 -85 -37 -168 -189 -168c-148 0 -187 82 -187 168v327zM158 621c0 27 22 49 49 49s49 -22 49 -49s-22 -49 -49 -49s-49 22 -49 49zM322 621c0 27 22 49 49 49c26 0 48 -22 48 -49
s-22 -49 -48 -49c-27 0 -49 22 -49 49z" />
    <glyph glyph-name="yacute.smcp" horiz-adv-x="442" 
d="M144 544l-23 45l176 90l23 -49zM250 197v-197h-58v198l-156 285h63l123 -228l122 228h62z" />
    <glyph glyph-name="ydieresis.smcp" horiz-adv-x="442" 
d="M250 197v-197h-58v198l-156 285h63l123 -228l122 228h62zM85 621c0 27 22 49 49 49s49 -22 49 -49s-22 -49 -49 -49s-49 22 -49 49zM249 621c0 27 22 49 49 49c26 0 48 -22 48 -49s-22 -49 -48 -49c-27 0 -49 22 -49 49z" />
    <glyph glyph-name="amacron.smcp" 
d="M39 0l182 483h61l191 -483h-55l-59 148h-210l-56 -148h-54zM252 416l-85 -221h174zM141 589v49h211v-49h-211z" />
    <glyph glyph-name="abreve.smcp" 
d="M39 0l182 483h61l191 -483h-55l-59 148h-210l-56 -148h-54zM252 416l-85 -221h174zM109 681l41 12c7 -40 47 -92 98 -92c52 0 91 50 103 92l38 -12c-14 -73 -63 -130 -142 -130s-128 57 -138 130z" />
    <glyph glyph-name="aogonek.smcp" 
d="M39 0l182 483h61l191 -483h-12c-76 -27 -114 -57 -114 -94c0 -31 22 -53 52 -53c19 0 39 2 58 17l18 -32c-28 -21 -53 -27 -81 -27c-57 0 -92 38 -92 95c0 50 35 86 102 114l-51 128h-198l-56 -148h-60zM252 404l-79 -209h162z" />
    <glyph glyph-name="cacute.smcp" horiz-adv-x="523" 
d="M474 446l-24 -40c-33 24 -76 42 -145 42c-119 0 -183 -95 -183 -209c0 -113 62 -204 179 -204c69 0 113 16 145 42l25 -39c-38 -30 -95 -50 -172 -50c-159 0 -238 114 -238 251c0 140 85 256 242 256c78 0 134 -19 171 -49zM218 544l-23 45l176 90l23 -49z" />
    <glyph glyph-name="ccircumflex.smcp" horiz-adv-x="523" 
d="M318 692l112 -107l-30 -35l-99 89l-91 -89l-30 34l108 108h30zM474 446l-24 -40c-33 24 -76 42 -145 42c-119 0 -183 -95 -183 -209c0 -113 62 -204 179 -204c69 0 113 16 145 42l25 -39c-38 -30 -95 -50 -172 -50c-159 0 -238 114 -238 251c0 140 85 256 242 256
c78 0 134 -19 171 -49z" />
    <glyph glyph-name="cdotaccent.smcp" horiz-adv-x="523" 
d="M246 638c0 27 22 49 49 49c26 0 48 -22 48 -49s-22 -49 -48 -49c-28 0 -49 22 -49 49zM474 446l-24 -40c-33 24 -76 42 -145 42c-119 0 -183 -95 -183 -209c0 -113 62 -204 179 -204c69 0 113 16 145 42l25 -39c-38 -30 -95 -50 -172 -50c-159 0 -238 114 -238 251
c0 140 85 256 242 256c78 0 134 -19 171 -49z" />
    <glyph glyph-name="ccaron.smcp" horiz-adv-x="523" 
d="M474 446l-24 -40c-33 24 -76 42 -145 42c-119 0 -183 -95 -183 -209c0 -113 62 -204 179 -204c69 0 113 16 145 42l25 -39c-38 -30 -95 -50 -172 -50c-159 0 -238 114 -238 251c0 140 85 256 242 256c78 0 134 -19 171 -49zM283 548l-115 105l30 33l102 -89l92 85l29 -32
l-108 -102h-30z" />
    <glyph glyph-name="dcaron.smcp" horiz-adv-x="555" 
d="M151 436v-389h77c112 0 204 56 204 188c0 141 -92 201 -204 201h-77zM94 0v483h138c149 0 261 -79 261 -248c0 -161 -112 -235 -261 -235h-138zM243 548l-115 105l30 33l102 -89l92 85l29 -32l-108 -102h-30z" />
    <glyph glyph-name="dcroat.smcp" horiz-adv-x="559" 
d="M31 233v42h66v208h139c149 0 261 -79 261 -248c0 -161 -112 -235 -261 -235h-139v233h-66zM155 436v-161h135v-42h-135v-186h77c112 0 204 56 204 188c0 141 -92 201 -204 201h-77z" />
    <glyph glyph-name="emacron.smcp" horiz-adv-x="449" 
d="M385 483v-47h-234v-161h182v-47h-182v-181h247v-47h-304v483h291zM135 589v49h211v-49h-211z" />
    <glyph glyph-name="ebreve.smcp" horiz-adv-x="449" 
d="M385 483v-47h-234v-161h182v-47h-182v-181h247v-47h-304v483h291zM102 681l41 12c7 -40 47 -92 98 -92c52 0 91 50 103 92l38 -12c-14 -73 -63 -130 -142 -130s-128 57 -138 130z" />
    <glyph glyph-name="edotaccent.smcp" horiz-adv-x="449" 
d="M194 638c0 27 22 49 49 49c26 0 48 -22 48 -49s-22 -49 -48 -49c-28 0 -49 22 -49 49zM385 483v-47h-234v-161h182v-47h-182v-181h247v-47h-304v483h291z" />
    <glyph glyph-name="eogonek.smcp" horiz-adv-x="449" 
d="M378 -130l18 -32c-28 -21 -53 -27 -81 -27c-57 0 -92 38 -92 95c0 39 21 69 62 94h-191v483h291v-47h-234v-161h182v-47h-182v-181h247v-47h-16c-76 -27 -114 -57 -114 -94c0 -31 22 -53 52 -53c19 0 39 2 58 17z" />
    <glyph glyph-name="ecaron.smcp" horiz-adv-x="449" 
d="M385 483v-47h-234v-161h182v-47h-182v-181h247v-47h-304v483h291zM232 548l-115 105l30 33l102 -89l92 85l29 -32l-108 -102h-30z" />
    <glyph glyph-name="gcircumflex.smcp" horiz-adv-x="546" 
d="M417 234h59v-194c-37 -32 -90 -52 -164 -52c-161 0 -252 109 -252 251c0 140 87 256 247 256c76 0 132 -19 169 -49l-24 -40c-34 24 -76 42 -145 42c-121 0 -185 -95 -185 -209c0 -113 68 -204 193 -204c44 0 76 8 102 22v177zM312 692l112 -107l-30 -35l-99 89l-91 -89
l-30 34l108 108h30z" />
    <glyph glyph-name="gbreve.smcp" horiz-adv-x="546" 
d="M417 234h59v-194c-37 -32 -90 -52 -164 -52c-161 0 -252 109 -252 251c0 140 87 256 247 256c76 0 132 -19 169 -49l-24 -40c-34 24 -76 42 -145 42c-121 0 -185 -95 -185 -209c0 -113 68 -204 193 -204c44 0 76 8 102 22v177zM160 681l41 12c7 -40 47 -92 98 -92
c52 0 91 50 103 92l38 -12c-14 -73 -63 -130 -142 -130s-128 57 -138 130z" />
    <glyph glyph-name="gdotaccent.smcp" horiz-adv-x="546" 
d="M417 234h59v-194c-37 -32 -90 -52 -164 -52c-161 0 -252 109 -252 251c0 140 87 256 247 256c76 0 132 -19 169 -49l-24 -40c-34 24 -76 42 -145 42c-121 0 -185 -95 -185 -209c0 -113 68 -204 193 -204c44 0 76 8 102 22v177zM250 638c0 27 22 49 49 49
c26 0 48 -22 48 -49s-22 -49 -48 -49c-28 0 -49 22 -49 49z" />
    <glyph glyph-name="uni0123.smcp" horiz-adv-x="546" 
d="M417 234h59v-194c-37 -32 -90 -52 -164 -52c-161 0 -252 109 -252 251c0 140 87 256 247 256c76 0 132 -19 169 -49l-24 -40c-34 24 -76 42 -145 42c-121 0 -185 -95 -185 -209c0 -113 68 -204 193 -204c44 0 76 8 102 22v177zM258 -285l-22 26c37 29 53 51 59 85h-2
c-27 0 -49 22 -49 49c0 28 22 50 49 50c33 0 50 -27 50 -67c-1 -58 -33 -108 -85 -143z" />
    <glyph glyph-name="hcircumflex.smcp" horiz-adv-x="566" 
d="M306 692l112 -107l-30 -35l-99 89l-91 -89l-30 34l108 108h30zM415 483h57v-483h-57v231h-264v-231h-57v483h57v-205h264v205z" />
    <glyph glyph-name="hbar.smcp" horiz-adv-x="578" 
d="M420 483h57v-65h62v-38h-62v-380h-57v231h-264v-231h-57v380h-52v38h52v65h57v-65h264v65zM156 278h264v102h-264v-102z" />
    <glyph glyph-name="itilde.smcp" horiz-adv-x="245" 
d="M182 572c-47 0 -66 46 -98 46c-18 0 -37 -9 -56 -47l-36 27c30 52 56 70 95 70c38 0 61 -46 96 -46c18 0 39 11 58 49l35 -26c-28 -53 -54 -73 -94 -73zM94 483h57v-483h-57v483z" />
    <glyph glyph-name="imacron.smcp" horiz-adv-x="245" 
d="M24 589v49h211v-49h-211zM94 483h57v-483h-57v483z" />
    <glyph glyph-name="iogonek.smcp" horiz-adv-x="247" 
d="M96 483h57v-470l4 -12c-78 -27 -117 -58 -117 -95c0 -31 22 -53 52 -53c19 0 39 2 58 17l18 -32c-28 -21 -53 -27 -81 -27c-57 0 -92 38 -92 95c0 50 35 85 101 113v464z" />
    <glyph glyph-name="jcircumflex.smcp" horiz-adv-x="245" 
d="M142 692l112 -107l-30 -35l-99 89l-91 -89l-30 34l108 108h30zM94 483h58v-442c0 -113 -27 -158 -152 -188l-14 44c89 23 108 54 108 142v444z" />
    <glyph glyph-name="uni0137.smcp" horiz-adv-x="480" 
d="M220 -285l-22 26c37 29 53 51 59 85h-2c-27 0 -49 22 -49 49c0 28 22 50 49 50c33 0 50 -27 50 -67c-1 -58 -33 -108 -85 -143zM447 0h-68l-167 220h-62v-220h-56v483h56v-217h58l163 217h63l-176 -236z" />
    <glyph glyph-name="kgreenlandic.smcp" horiz-adv-x="480" 
d="M447 0h-68l-167 220h-62v-220h-56v483h56v-217h58l163 217h63l-176 -236z" />
    <glyph glyph-name="lacute.smcp" horiz-adv-x="420" 
d="M384 47v-47h-290v483h57v-436h233zM53 545l-23 45l176 90l23 -49z" />
    <glyph glyph-name="uni013C.smcp" horiz-adv-x="420" 
d="M384 47v-47h-290v483h57v-436h233zM185 -285l-22 26c37 29 53 51 59 85h-2c-27 0 -49 22 -49 49c0 28 22 50 49 50c33 0 50 -27 50 -67c-1 -58 -33 -108 -85 -143z" />
    <glyph glyph-name="lcaron.smcp" horiz-adv-x="420" 
d="M384 47v-47h-290v483h57v-436h233zM119 548l-115 105l30 33l102 -89l92 85l29 -32l-108 -102h-30z" />
    <glyph glyph-name="ldot.smcp" horiz-adv-x="447" 
d="M384 47v-47h-290v483h57v-436h233zM287 267c0 27 22 49 49 49s49 -22 49 -49s-22 -49 -49 -49s-49 22 -49 49z" />
    <glyph glyph-name="lslash.smcp" horiz-adv-x="437" 
d="M401 47v-47h-290v203l-77 -56v56l77 57v223h57v-181l85 63v-57l-85 -63v-198h233z" />
    <glyph glyph-name="nacute.smcp" horiz-adv-x="569" 
d="M246 544l-23 45l176 90l23 -49zM418 483h58v-483h-52l-273 389v-389h-57v483h51l273 -394v394z" />
    <glyph glyph-name="uni0146.smcp" horiz-adv-x="569" 
d="M266 -285l-22 26c37 29 53 51 59 85h-2c-27 0 -49 22 -49 49c0 28 22 50 49 50c33 0 50 -27 50 -67c-1 -58 -33 -108 -85 -143zM418 483h58v-483h-52l-273 389v-389h-57v483h51l273 -394v394z" />
    <glyph glyph-name="ncaron.smcp" horiz-adv-x="569" 
d="M288 548l-115 105l30 33l102 -89l92 85l29 -32l-108 -102h-30zM418 483h58v-483h-52l-273 389v-389h-57v483h51l273 -394v394z" />
    <glyph glyph-name="napostrophe.smcp" horiz-adv-x="638" 
d="M54 420l-22 27c37 28 53 50 59 85h-2c-27 0 -49 22 -49 49s22 49 49 49c33 0 50 -27 50 -67c-1 -58 -33 -108 -85 -143zM486 483h58v-483h-52l-273 389v-389h-57v483h51l273 -394v394z" />
    <glyph glyph-name="omacron.smcp" horiz-adv-x="584" 
d="M302 35c100 0 161 91 161 204c0 119 -61 209 -166 209c-112 0 -175 -86 -175 -200c0 -122 65 -213 180 -213zM302 -12c-156 0 -241 108 -241 260c0 139 85 247 236 247c143 0 227 -111 227 -256c0 -143 -82 -251 -222 -251zM182 589v49h211v-49h-211z" />
    <glyph glyph-name="obreve.smcp" horiz-adv-x="584" 
d="M302 35c100 0 161 91 161 204c0 119 -61 209 -166 209c-112 0 -175 -86 -175 -200c0 -122 65 -213 180 -213zM302 -12c-156 0 -241 108 -241 260c0 139 85 247 236 247c143 0 227 -111 227 -256c0 -143 -82 -251 -222 -251zM150 681l41 12c7 -40 47 -92 98 -92
c52 0 91 50 103 92l38 -12c-14 -73 -63 -130 -142 -130s-128 57 -138 130z" />
    <glyph glyph-name="ohungarumlaut.smcp" horiz-adv-x="584" 
d="M302 35c100 0 161 91 161 204c0 119 -61 209 -166 209c-112 0 -175 -86 -175 -200c0 -122 65 -213 180 -213zM302 -12c-156 0 -241 108 -241 260c0 139 85 247 236 247c143 0 227 -111 227 -256c0 -143 -82 -251 -222 -251zM241 544l-44 22l67 139l48 -26zM354 544
l-44 22l67 139l48 -26z" />
    <glyph glyph-name="racute.smcp" horiz-adv-x="472" 
d="M430 0h-69l-128 199h-6h-76v-199h-57v483h122c129 0 180 -57 180 -138c0 -65 -36 -117 -103 -137zM218 436h-67v-190h73c72 0 111 42 111 96c0 52 -26 94 -117 94zM156 545l-23 45l176 90l23 -49z" />
    <glyph glyph-name="uni0157.smcp" horiz-adv-x="472" 
d="M430 0h-69l-128 199h-6h-76v-199h-57v483h122c129 0 180 -57 180 -138c0 -65 -36 -117 -103 -137zM218 436h-67v-190h73c72 0 111 42 111 96c0 52 -26 94 -117 94zM220 -285l-22 26c37 29 53 51 59 85h-2c-27 0 -49 22 -49 49c0 28 22 50 49 50c33 0 50 -27 50 -67
c-1 -58 -33 -108 -85 -143z" />
    <glyph glyph-name="rcaron.smcp" horiz-adv-x="472" 
d="M430 0h-69l-128 199h-6h-76v-199h-57v483h122c129 0 180 -57 180 -138c0 -65 -36 -117 -103 -137zM218 436h-67v-190h73c72 0 111 42 111 96c0 52 -26 94 -117 94zM220 548l-115 105l30 33l102 -89l92 85l29 -32l-108 -102h-30z" />
    <glyph glyph-name="sacute.smcp" horiz-adv-x="436" 
d="M53 35l19 44c42 -25 93 -44 139 -44c59 0 105 25 105 83c0 115 -245 104 -245 256c0 45 33 120 158 120c53 0 89 -10 136 -33l-15 -45c-45 22 -83 31 -121 31c-82 0 -99 -46 -99 -72c0 -109 248 -102 248 -256c1 -90 -77 -131 -169 -131c-57 0 -106 19 -156 47zM152 545
l-23 45l176 90l23 -49z" />
    <glyph glyph-name="scircumflex.smcp" horiz-adv-x="436" 
d="M241 692l112 -107l-30 -35l-99 89l-91 -89l-30 34l108 108h30zM53 35l19 44c42 -25 93 -44 139 -44c59 0 105 25 105 83c0 115 -245 104 -245 256c0 45 33 120 158 120c53 0 89 -10 136 -33l-15 -45c-45 22 -83 31 -121 31c-82 0 -99 -46 -99 -72
c0 -109 248 -102 248 -256c1 -90 -77 -131 -169 -131c-57 0 -106 19 -156 47z" />
    <glyph glyph-name="scedilla.smcp" horiz-adv-x="436" 
d="M196 -285l-22 26c37 29 53 51 59 85h-2c-27 0 -49 22 -49 49c0 28 22 50 49 50c33 0 50 -27 50 -67c-1 -58 -33 -108 -85 -143zM53 35l19 44c42 -25 93 -44 139 -44c59 0 105 25 105 83c0 115 -245 104 -245 256c0 45 33 120 158 120c53 0 89 -10 136 -33l-15 -45
c-45 22 -83 31 -121 31c-82 0 -99 -46 -99 -72c0 -109 248 -102 248 -256c1 -90 -77 -131 -169 -131c-57 0 -106 19 -156 47z" />
    <glyph glyph-name="scaron.smcp" horiz-adv-x="436" 
d="M53 35l19 44c42 -25 93 -44 139 -44c59 0 105 25 105 83c0 115 -245 104 -245 256c0 45 33 120 158 120c53 0 89 -10 136 -33l-15 -45c-45 22 -83 31 -121 31c-82 0 -99 -46 -99 -72c0 -109 248 -102 248 -256c1 -90 -77 -131 -169 -131c-57 0 -106 19 -156 47zM220 548
l-115 105l30 33l102 -89l92 85l29 -32l-108 -102h-30z" />
    <glyph glyph-name="uni0163.smcp" horiz-adv-x="444" 
d="M409 483v-47h-157v-436h-59v436h-158v47h374zM189 -285l-22 26c37 29 53 51 59 85h-2c-27 0 -49 22 -49 49c0 28 22 50 49 50c33 0 50 -27 50 -67c-1 -58 -33 -108 -85 -143z" />
    <glyph glyph-name="tcaron.smcp" horiz-adv-x="444" 
d="M409 483v-47h-157v-436h-59v436h-158v47h374zM206 548l-115 105l30 33l102 -89l92 85l29 -32l-108 -102h-30z" />
    <glyph glyph-name="tbar.smcp" horiz-adv-x="453" 
d="M414 483v-47h-157v-128h104v-35h-104v-273h-59v273h-113v35h113v128h-158v47h374z" />
    <glyph glyph-name="utilde.smcp" horiz-adv-x="552" 
d="M88 483h58v-325c0 -68 26 -123 129 -123c105 0 131 55 131 123v325h58v-327c0 -85 -37 -168 -189 -168c-148 0 -187 82 -187 168v327zM339 572c-47 0 -66 46 -98 46c-18 0 -37 -9 -56 -47l-36 27c30 52 56 70 95 70c38 0 61 -46 96 -46c18 0 39 11 58 49l35 -26
c-28 -53 -54 -73 -94 -73z" />
    <glyph glyph-name="umacron.smcp" horiz-adv-x="552" 
d="M88 483h58v-325c0 -68 26 -123 129 -123c105 0 131 55 131 123v325h58v-327c0 -85 -37 -168 -189 -168c-148 0 -187 82 -187 168v327zM181 589v49h211v-49h-211z" />
    <glyph glyph-name="ubreve.smcp" horiz-adv-x="552" 
d="M88 483h58v-325c0 -68 26 -123 129 -123c105 0 131 55 131 123v325h58v-327c0 -85 -37 -168 -189 -168c-148 0 -187 82 -187 168v327zM149 681l41 12c7 -40 47 -92 98 -92c52 0 91 50 103 92l38 -12c-14 -73 -63 -130 -142 -130s-128 57 -138 130z" />
    <glyph glyph-name="uring.smcp" horiz-adv-x="552" 
d="M206 634c0 43 30 78 82 78c49 0 82 -34 82 -78c0 -46 -33 -79 -82 -79c-52 0 -82 33 -82 79zM288 588c21 0 39 12 39 45c0 34 -19 47 -39 47c-21 0 -39 -15 -39 -47c0 -34 18 -45 39 -45zM88 483h58v-325c0 -68 26 -123 129 -123c105 0 131 55 131 123v325h58v-327
c0 -85 -37 -168 -189 -168c-148 0 -187 82 -187 168v327z" />
    <glyph glyph-name="uhungarumlaut.smcp" horiz-adv-x="552" 
d="M237 544l-44 22l67 139l48 -26zM350 544l-44 22l67 139l48 -26zM88 483h58v-325c0 -68 26 -123 129 -123c105 0 131 55 131 123v325h58v-327c0 -85 -37 -168 -189 -168c-148 0 -187 82 -187 168v327z" />
    <glyph glyph-name="uogonek.smcp" horiz-adv-x="552" 
d="M366 -128l18 -32c-28 -21 -53 -27 -81 -27c-57 0 -92 38 -92 95c0 32 14 59 42 81c-130 7 -165 85 -165 167v327h58v-325c0 -68 26 -123 129 -123c105 0 131 55 131 123v325h58v-327c0 -63 -20 -124 -92 -152l1 -1c-78 -27 -117 -58 -117 -95c0 -31 22 -53 52 -53
c19 0 39 2 58 17z" />
    <glyph glyph-name="wcircumflex.smcp" horiz-adv-x="787" 
d="M262 0h-62l-160 483h60l132 -406l131 406h61l-1 -2l135 -404l129 406h60l-159 -483h-62l-133 392zM400 692l112 -107l-30 -35l-99 89l-91 -89l-30 34l108 108h30z" />
    <glyph glyph-name="ycircumflex.smcp" horiz-adv-x="442" 
d="M232 692l112 -107l-30 -35l-99 89l-91 -89l-30 34l108 108h30zM250 197v-197h-58v198l-156 285h63l123 -228l122 228h62z" />
    <glyph glyph-name="zacute.smcp" horiz-adv-x="442" 
d="M318 436h-252v47h316v-47l-268 -389h273v-47h-337v47zM155 545l-23 45l176 90l23 -49z" />
    <glyph glyph-name="zdotaccent.smcp" horiz-adv-x="442" 
d="M185 638c0 27 22 49 49 49c26 0 48 -22 48 -49s-22 -49 -48 -49c-28 0 -49 22 -49 49zM318 436h-252v47h316v-47l-268 -389h273v-47h-337v47z" />
    <glyph glyph-name="zcaron.smcp" horiz-adv-x="442" 
d="M318 436h-252v47h316v-47l-268 -389h273v-47h-337v47zM221 548l-115 105l30 33l102 -89l92 85l29 -32l-108 -102h-30z" />
    <glyph glyph-name="uni0219.smcp" horiz-adv-x="436" 
d="M194 -285l-22 26c37 29 53 51 59 85h-2c-27 0 -49 22 -49 49c0 28 22 50 49 50c33 0 50 -27 50 -67c-1 -58 -33 -108 -85 -143zM53 35l19 44c42 -25 93 -44 139 -44c59 0 105 25 105 83c0 115 -245 104 -245 256c0 45 33 120 158 120c53 0 89 -10 136 -33l-15 -45
c-45 22 -83 31 -121 31c-82 0 -99 -46 -99 -72c0 -109 248 -102 248 -256c1 -90 -77 -131 -169 -131c-57 0 -106 19 -156 47z" />
    <glyph glyph-name="uni021B.smcp" horiz-adv-x="444" 
d="M409 483v-47h-157v-436h-59v436h-158v47h374zM187 -285l-22 26c37 29 53 51 59 85h-2c-27 0 -49 22 -49 49c0 28 22 50 49 50c33 0 50 -27 50 -67c-1 -58 -33 -108 -85 -143z" />
    <glyph glyph-name="wgrave.smcp" horiz-adv-x="787" 
d="M262 0h-62l-160 483h60l132 -406l131 406h61l-1 -2l135 -404l129 406h60l-159 -483h-62l-133 392zM498 585l-24 -45l-176 86l24 49z" />
    <glyph glyph-name="wacute.smcp" horiz-adv-x="787" 
d="M262 0h-62l-160 483h60l132 -406l131 406h61l-1 -2l135 -404l129 406h60l-159 -483h-62l-133 392zM309 545l-23 45l176 90l23 -49z" />
    <glyph glyph-name="wdieresis.smcp" horiz-adv-x="787" 
d="M262 0h-62l-160 483h60l132 -406l131 406h61l-1 -2l135 -404l129 406h60l-159 -483h-62l-133 392zM260 621c0 27 22 49 49 49s49 -22 49 -49s-22 -49 -49 -49s-49 22 -49 49zM424 621c0 27 22 49 49 49c26 0 48 -22 48 -49s-22 -49 -48 -49c-27 0 -49 22 -49 49z" />
    <glyph glyph-name="eng" unicode="&#x14b;" 
d="M143 0h-55v443l52 11v-63c43 45 95 74 161 74c64 0 123 -29 123 -122v-293c0 -144 -28 -199 -174 -238l-14 45c110 30 133 74 133 192v290c0 43 -23 78 -75 78c-56 0 -112 -30 -151 -77v-340z" />
    <glyph glyph-name="uni1E02" unicode="&#x1e02;" horiz-adv-x="557" 
d="M211 729c0 27 22 49 49 49s49 -22 49 -49s-22 -49 -49 -49s-49 22 -49 49zM103 616h175c123 0 171 -58 171 -138c0 -58 -21 -111 -64 -143c77 -27 110 -85 110 -158c0 -100 -71 -177 -200 -177h-192v616zM435 174c0 69 -40 125 -152 128h-9h-114v-253h134
c90 0 141 56 141 125zM281 567h-121v-216h113c84 0 116 54 116 120c0 54 -29 96 -108 96z" />
    <glyph glyph-name="uni1E03" unicode="&#x1e03;" horiz-adv-x="513" 
d="M225 729c0 27 22 49 49 49s49 -22 49 -49s-22 -49 -49 -49s-49 22 -49 49zM88 651l55 11v-262c38 41 87 65 142 65c112 0 168 -102 168 -227c0 -137 -60 -253 -192 -253c-45 0 -84 15 -119 42l-18 -27h-36v651zM277 418c-57 0 -97 -25 -134 -72v-267
c28 -30 66 -47 115 -47c98 0 137 97 137 209c0 99 -39 177 -118 177z" />
    <glyph glyph-name="uni1E0A" unicode="&#x1e0a;" horiz-adv-x="642" 
d="M246 729c0 27 22 49 49 49s49 -22 49 -49s-22 -49 -49 -49s-49 22 -49 49zM160 567v-518h101c141 0 254 75 254 251c0 187 -113 267 -254 267h-101zM103 0v616h163c176 0 310 -101 310 -316c0 -206 -134 -300 -310 -300h-163z" />
    <glyph glyph-name="uni1E0B" unicode="&#x1e0b;" horiz-adv-x="513" 
d="M203 729c0 27 22 49 49 49s49 -22 49 -49s-22 -49 -49 -49s-49 22 -49 49zM370 652l55 10v-662h-40l-10 56c-39 -44 -90 -71 -147 -71c-111 0 -168 103 -168 227c0 138 59 253 192 253c42 0 84 -16 118 -41v228zM236 32c58 0 97 25 134 73v267c-29 29 -67 46 -114 46
c-99 0 -137 -97 -137 -209c0 -99 38 -177 117 -177z" />
    <glyph glyph-name="Ygrave" unicode="&#x1ef2;" horiz-adv-x="507" 
d="M283 251v-251h-58v254l-188 362h66l153 -303l151 303h62zM350 720l-23 -46l-177 86l24 50z" />
    <glyph glyph-name="uni1E1E" unicode="&#x1e1e;" horiz-adv-x="493" 
d="M207 729c0 27 22 49 49 49s49 -22 49 -49s-22 -49 -49 -49s-49 22 -49 49zM449 616v-49h-289v-221h225v-49h-225v-297h-57v616h346z" />
    <glyph glyph-name="uni1E1F" unicode="&#x1e1f;" horiz-adv-x="302" 
d="M152 783c0 27 22 49 49 49s49 -22 49 -49s-22 -49 -49 -49s-49 22 -49 49zM47 403v35l61 11v28c0 113 29 186 178 186v-45c-105 0 -123 -54 -123 -139v-29h106v-47h-106v-403h-55v403h-61z" />
    <glyph glyph-name="uni1E40" unicode="&#x1e40;" horiz-adv-x="779" 
d="M339 593c0 27 22 49 49 49s49 -22 49 -49s-22 -49 -49 -49s-49 22 -49 49zM614 616h60l5 -616h-58l-4 503l-208 -503h-39l-208 500l-4 -500h-58l5 616h61l224 -540z" />
    <glyph glyph-name="uni1E41" unicode="&#x1e41;" horiz-adv-x="789" 
d="M143 0h-55v450l41 9l10 -69c43 46 96 75 162 75c53 0 101 -19 117 -77c44 47 97 77 164 77c65 0 123 -29 123 -122v-343h-55v339c0 59 -37 79 -75 79c-57 0 -112 -31 -151 -78v-340h-55v339c0 59 -37 79 -74 79c-58 0 -113 -31 -152 -78v-340zM346 597c0 27 22 49 49 49
s49 -22 49 -49s-22 -49 -49 -49s-49 22 -49 49z" />
    <glyph glyph-name="uni1E56" unicode="&#x1e56;" horiz-adv-x="506" 
d="M103 616h124c167 0 226 -75 226 -183c0 -107 -71 -189 -200 -189h-93v-244h-57v616zM228 567h-68v-274h91c92 0 142 60 142 135c0 78 -42 139 -165 139zM204 729c0 27 22 49 49 49s49 -22 49 -49s-22 -49 -49 -49s-49 22 -49 49z" />
    <glyph glyph-name="uni1E57" unicode="&#x1e57;" horiz-adv-x="513" 
d="M143 -189h-55v640l41 7l9 -62c39 44 91 71 148 71c110 0 167 -103 167 -227c0 -138 -59 -254 -192 -254c-43 0 -85 16 -118 41v-216zM277 420c-59 0 -97 -26 -134 -75v-265c28 -29 67 -47 115 -47c98 0 137 98 137 210c0 99 -39 177 -118 177zM195 597c0 27 22 49 49 49
s49 -22 49 -49s-22 -49 -49 -49s-49 22 -49 49z" />
    <glyph glyph-name="uni1E60" unicode="&#x1e60;" horiz-adv-x="500" 
d="M225 729c0 27 22 49 49 49s49 -22 49 -49s-22 -49 -49 -49s-49 22 -49 49zM53 45l20 47c49 -33 111 -58 169 -58c75 0 135 35 135 116c0 153 -300 142 -300 329c0 57 40 151 189 151c64 0 105 -13 160 -42l-16 -48c-53 29 -98 41 -146 41c-104 0 -128 -64 -128 -101
c0 -145 303 -137 303 -330c0 -113 -92 -165 -201 -165c-66 0 -126 24 -185 60z" />
    <glyph glyph-name="ygrave" unicode="&#x1ef3;" horiz-adv-x="471" 
d="M38 452h57l137 -382l148 382h53l-166 -433c-47 -114 -60 -208 -216 -208v45c105 0 119 62 152 144zM308 551l-33 -36l-147 133l35 41z" />
    <glyph glyph-name="uni1E61" unicode="&#x1e61;" horiz-adv-x="430" 
d="M357 436l-11 -43c-44 19 -86 27 -119 27c-45 0 -94 -12 -94 -63c0 -97 245 -114 245 -250c0 -77 -76 -122 -168 -122c-67 0 -114 21 -163 55l15 46c45 -35 87 -54 145 -54c61 0 113 26 113 71c0 102 -245 111 -245 250c0 84 72 112 142 112c57 0 91 -11 140 -29zM170 597
c0 27 22 49 49 49s49 -22 49 -49s-22 -49 -49 -49s-49 22 -49 49z" />
    <glyph glyph-name="uni1E6A" unicode="&#x1e6a;" horiz-adv-x="514" 
d="M207 728c0 27 22 49 49 49s49 -22 49 -49s-22 -49 -49 -49s-49 22 -49 49zM481 616v-49h-195v-567h-57v567h-196v49h448z" />
    <glyph glyph-name="uni1E6B" unicode="&#x1e6b;" horiz-adv-x="323" 
d="M89 729c0 27 22 49 49 49s49 -22 49 -49s-22 -49 -49 -49s-49 22 -49 49zM45 405v37l61 9l16 141h39v-140h106v-47h-106v-286c0 -53 15 -87 59 -87c22 0 38 6 69 21v-43c-33 -21 -65 -25 -88 -25c-73 0 -96 67 -96 131v289h-60z" />
    <glyph glyph-name="uni1E03.smcp" horiz-adv-x="485" 
d="M177 638c0 27 22 49 49 49c26 0 48 -22 48 -49s-22 -49 -48 -49c-28 0 -49 22 -49 49zM94 483h150c104 0 145 -46 145 -111c0 -43 -16 -83 -48 -109c59 -22 86 -68 86 -124c0 -79 -60 -139 -169 -139h-164v483zM243 232h-92v-185h106c70 0 109 40 109 92
c0 50 -31 91 -117 93h-6zM245 436h-94v-157h91h4c59 2 82 40 82 85c0 41 -23 72 -83 72z" />
    <glyph glyph-name="uni1E0B.smcp" horiz-adv-x="555" 
d="M197 638c0 27 22 49 49 49c26 0 48 -22 48 -49s-22 -49 -48 -49c-28 0 -49 22 -49 49zM151 436v-389h77c112 0 204 56 204 188c0 141 -92 201 -204 201h-77zM94 0v483h138c149 0 261 -79 261 -248c0 -161 -112 -235 -261 -235h-138z" />
    <glyph glyph-name="uni1E1F.smcp" horiz-adv-x="430" 
d="M180 638c0 27 22 49 49 49c26 0 48 -22 48 -49s-22 -49 -48 -49c-28 0 -49 22 -49 49zM385 483v-47h-234v-161h182v-47h-182v-228h-57v483h291z" />
    <glyph glyph-name="uni1E41.smcp" horiz-adv-x="677" 
d="M299 487c0 27 22 49 49 49c26 0 48 -22 48 -49s-22 -49 -48 -49c-28 0 -49 22 -49 49zM516 483h63l7 -483h-58l-6 378l-164 -378h-39l-165 373l-6 -373h-57l7 483h63l178 -413z" />
    <glyph glyph-name="uni1E57.smcp" horiz-adv-x="444" 
d="M179 638c0 27 22 49 49 49c26 0 48 -22 48 -49s-22 -49 -48 -49c-28 0 -49 22 -49 49zM94 483h109c139 0 192 -60 192 -146c0 -84 -60 -150 -170 -150h-74v-187h-57v483zM205 436h-54v-202h71c72 0 112 44 112 100c0 58 -34 102 -129 102z" />
    <glyph glyph-name="ygrave.smcp" horiz-adv-x="442" 
d="M284 585l-24 -45l-176 86l24 49zM250 197v-197h-58v198l-156 285h63l123 -228l122 228h62z" />
    <glyph glyph-name="uni1E61.smcp" horiz-adv-x="436" 
d="M176 638c0 27 22 49 49 49c26 0 48 -22 48 -49s-22 -49 -48 -49c-28 0 -49 22 -49 49zM53 35l19 44c42 -25 93 -44 139 -44c59 0 105 25 105 83c0 115 -245 104 -245 256c0 45 33 120 158 120c53 0 89 -10 136 -33l-15 -45c-45 22 -83 31 -121 31c-82 0 -99 -46 -99 -72
c0 -109 248 -102 248 -256c1 -90 -77 -131 -169 -131c-57 0 -106 19 -156 47z" />
    <glyph glyph-name="uni1E6B.smcp" horiz-adv-x="444" 
d="M172 638c0 27 22 49 49 49c26 0 48 -22 48 -49s-22 -49 -48 -49c-28 0 -49 22 -49 49zM409 483v-47h-157v-436h-59v436h-158v47h374z" />
    <glyph glyph-name="Eng" unicode="&#x14a;" horiz-adv-x="655" 
d="M495 616h57v-566c0 -144 -30 -199 -176 -238l-14 47c93 27 124 61 131 143l-333 509v-511h-57v616h57l335 -514v514z" />
    <glyph glyph-name="eng.smcp" horiz-adv-x="570" 
d="M420 483h56v-438c0 -119 -26 -164 -153 -196l-14 45c78 21 103 48 109 111l-268 377v-382h-56v483h54l272 -386v386z" />
    <glyph glyph-name="uni0418" unicode="&#x418;" horiz-adv-x="655" 
d="M103 616h57v-514l335 514h57v-616h-57v513l-335 -513h-57v616z" />
    <glyph glyph-name="onesuperior" unicode="&#xb9;" horiz-adv-x="260" 
d="M61 523l-26 31l79 65h52v-274h59v-40h-169v40h58v221z" />
    <glyph glyph-name="threesuperior" unicode="&#xb3;" horiz-adv-x="303" 
d="M72 569l-21 29c19 16 43 29 90 29c86 0 103 -51 103 -81c0 -25 -13 -55 -44 -75c37 -19 59 -49 59 -79c1 -35 -20 -94 -118 -94c-44 0 -73 11 -105 36l22 31c23 -17 43 -27 81 -27c54 0 67 35 67 56c0 27 -27 54 -82 56h-7h-8v40h8h6c51 2 67 31 67 53c0 17 -8 44 -53 44
c-29 0 -51 -8 -65 -18z" />
    <glyph glyph-name="twosuperior" unicode="&#xb2;" horiz-adv-x="308" 
d="M68 555l-24 30c27 26 57 42 105 42c83 0 109 -54 108 -87c-1 -94 -141 -115 -157 -195h164v-40h-221v17c0 121 157 144 158 216c0 18 -11 48 -59 48c-30 0 -52 -10 -74 -31z" />
    <glyph glyph-name="onehalf" unicode="&#xbd;" horiz-adv-x="712" 
d="M152 -7l382 642l40 -25l-383 -643zM459 250l-24 30c27 26 57 42 105 42c83 0 109 -54 108 -87c-1 -94 -141 -115 -157 -195h164v-40h-221v17c0 121 157 144 158 216c0 18 -11 48 -59 48c-30 0 -52 -10 -74 -31zM75 523l-26 31l79 65h52v-274h59v-40h-169v40h58v221z" />
    <glyph glyph-name="onequarter" unicode="&#xbc;" horiz-adv-x="676" 
d="M152 -7l381 642l40 -25l-383 -643zM526 314h52v-201h46v-40h-46v-73h-52v73h-150v40zM428 113h98v130zM75 523l-26 31l79 65h52v-274h59v-40h-169v40h58v221z" />
    <glyph glyph-name="threequarters" unicode="&#xbe;" horiz-adv-x="660" 
d="M136 -7l381 642l40 -25l-383 -643zM87 569l-21 29c19 16 43 29 90 29c86 0 103 -51 103 -81c0 -25 -13 -55 -44 -75c37 -19 59 -49 59 -79c1 -35 -20 -94 -118 -94c-44 0 -73 11 -105 36l22 31c23 -17 43 -27 81 -27c54 0 67 35 67 56c0 27 -27 54 -82 56h-7h-8v40h8h6
c51 2 67 31 67 53c0 17 -8 44 -53 44c-29 0 -51 -8 -65 -18zM510 314h52v-201h46v-40h-46v-73h-52v73h-150v40zM412 113h98v130z" />
    <glyph glyph-name="Lgeminada" horiz-adv-x="945" 
d="M312 337c0 27 22 49 49 49s49 -22 49 -49s-22 -49 -49 -49c-28 0 -49 23 -49 49zM447 49v-49h-344v616h57v-567h287zM912 49v-49h-344v616h57v-567h287z" />
    <glyph glyph-name="exclamdown.case" horiz-adv-x="292" 
d="M176 1h-60l6 440h48zM103 587c0 25 20 44 44 44s44 -19 44 -44c0 -24 -20 -43 -44 -43s-44 19 -44 43z" />
    <glyph glyph-name="lgeminada" horiz-adv-x="512" 
d="M210 354c0 27 22 49 49 49s49 -22 49 -49s-22 -49 -49 -49s-49 22 -49 49zM91 651l56 11v-662h-56v651zM365 651l56 11v-662h-56v651z" />
    <glyph glyph-name="lgeminada.smcp" horiz-adv-x="837" 
d="M288 274c0 27 22 49 49 49s49 -22 49 -49s-22 -49 -49 -49c-28 0 -49 23 -49 49zM384 47v-47h-290v483h57v-436h233zM801 47v-47h-290v483h57v-436h233z" />
    <glyph glyph-name="questiondown.case" horiz-adv-x="424" 
d="M348 103l35 -31c-41 -51 -98 -86 -167 -86c-107 0 -170 74 -170 158c0 145 171 131 168 343h51c3 -219 -164 -229 -164 -340c0 -57 39 -114 117 -114c54 0 98 28 130 70zM288 584c0 -25 -21 -47 -48 -47c-26 0 -47 21 -47 47s21 47 47 47s48 -21 48 -47z" />
    <glyph glyph-name="dslash" horiz-adv-x="513" 
d="M232 521v41h231v-41h-231zM370 652l55 10v-662h-40l-10 56c-39 -44 -90 -71 -147 -71c-111 0 -168 103 -168 227c0 138 59 253 192 253c42 0 84 -16 118 -41v228zM236 32c58 0 97 25 134 73v267c-29 29 -67 46 -114 46c-99 0 -137 -97 -137 -209c0 -99 38 -177 117 -177z
" />
    <glyph glyph-name="middot" horiz-adv-x="134" 
d="M19 263c0 27 23 49 49 49c27 0 49 -22 49 -49s-22 -49 -49 -49s-49 23 -49 49z" />
    <glyph glyph-name="Idot" horiz-adv-x="412" 
d="M98 651l56 11v-662h-56v651zM276 270c0 27 22 49 49 49s49 -22 49 -49s-22 -49 -49 -49s-49 22 -49 49z" />
    </font>
</defs>
</svg>
