<?xml version="1.0" standalone="no"?>
<!DOCTYPE svg PUBLIC "-//W3C//DTD SVG 1.1//EN" "http://www.w3.org/Graphics/SVG/1.1/DTD/svg11.dtd" >
<svg xmlns="http://www.w3.org/2000/svg" xmlns:xlink="http://www.w3.org/1999/xlink" version="1.1">
<metadata>
Created by FontForge 20160407 at Fri May 13 09:37:31 2016
 By Jimmy Wärting
Copyright (c) 2013 by Josep Patau Bellart. All rights reserved.
</metadata>
<defs>
<font id="CintaMedium" horiz-adv-x="521" >
  <font-face 
    font-family="Cinta Medium"
    font-weight="600"
    font-stretch="normal"
    units-per-em="1000"
    panose-1="2 0 0 0 0 0 0 0 0 0"
    ascent="800"
    descent="-200"
    x-height="457"
    cap-height="616"
    bbox="-154 -325 1115 894"
    underline-thickness="50"
    underline-position="-100"
    stemh="85"
    stemv="101"
    unicode-range="U+0020-FB06"
  />
<missing-glyph horiz-adv-x="533" 
d="M67 1v699h399v-699h-399zM107 41h319v619h-319v-619z" />
    <glyph glyph-name="fi" unicode="fi" horiz-adv-x="540" 
d="M39 365v65l58 16v20c0 116 41 198 202 198v-84c-81 0 -100 -43 -100 -109v-21h268v-450h-101v365h-167v-365h-102v365h-58zM350 597c0 37 29 66 66 66s67 -29 67 -66s-30 -67 -67 -67s-66 29 -66 67z" />
    <glyph glyph-name="fl" unicode="fl" horiz-adv-x="541" 
d="M39 365v65l58 16v20c0 116 43 198 212 198h158v-664h-101v580h-57c-89 0 -110 -43 -110 -109v-21h84v-85h-84v-365h-102v365h-58z" />
    <glyph glyph-name="f_f" unicode="ff" horiz-adv-x="587" 
d="M39 365v65l58 16v7c0 108 42 186 205 186v-84c-83 0 -103 -38 -103 -97v-8h170v16c0 116 43 198 212 198v-84c-89 0 -111 -43 -111 -109v-21h89v-85h-89v-365h-101v365h-170v-365h-102v365h-58z" />
    <glyph glyph-name="f_f_i" unicode="ffi" horiz-adv-x="812" 
d="M39 365v65l58 16v7c0 108 42 186 205 186v-84c-83 0 -103 -38 -103 -97v-8h170v16c0 116 41 198 202 198v-84c-81 0 -98 -43 -98 -109v-21h266v-450h-102v365h-164v-365h-104v365h-170v-365h-102v365h-58zM621 597c0 37 29 66 66 66s67 -29 67 -66s-30 -67 -67 -67
s-66 29 -66 67z" />
    <glyph glyph-name="f_f_l" unicode="ffl" horiz-adv-x="813" 
d="M39 365v65l58 16v7c0 108 42 186 205 186v-84c-83 0 -103 -38 -103 -97v-8h170v16c0 116 43 198 212 198h158v-664h-102v580h-56c-89 0 -111 -43 -111 -109v-21h84v-85h-84v-365h-101v365h-170v-365h-102v365h-58z" />
    <glyph glyph-name=".notdef" horiz-adv-x="533" 
d="M67 1v699h399v-699h-399zM107 41h319v619h-319v-619z" />
    <glyph glyph-name="b" unicode="b" horiz-adv-x="525" 
d="M73 647l101 15v-240c35 31 77 49 124 49c120 0 181 -107 181 -235c0 -136 -67 -251 -194 -251c-47 0 -79 14 -114 45l-20 -30h-78v647zM273 386c-44 0 -74 -18 -99 -49v-230c21 -22 48 -37 88 -37c78 0 110 79 110 167c0 80 -32 149 -99 149z" />
    <glyph glyph-name="c" unicode="c" horiz-adv-x="461" 
d="M45 229c0 131 79 242 226 242c71 0 123 -22 158 -56l-43 -68c-27 23 -58 39 -104 39c-89 0 -130 -75 -130 -157s40 -159 127 -159c51 0 82 15 105 38l42 -67c-34 -34 -86 -56 -158 -56c-147 0 -223 115 -223 244z" />
    <glyph glyph-name="d" unicode="d" horiz-adv-x="525" 
d="M351 652l101 10v-662h-72l-13 55c-38 -44 -88 -70 -141 -70c-114 0 -180 108 -180 236c0 136 63 250 195 250c40 0 78 -14 110 -38v219zM252 70c46 0 73 21 99 53v230c-21 20 -51 33 -88 33c-78 0 -110 -79 -110 -167c0 -81 32 -149 99 -149z" />
    <glyph glyph-name="e" unicode="e" horiz-adv-x="503" 
d="M457 198h-307c9 -72 50 -128 134 -128c54 0 90 23 115 49l51 -53c-37 -46 -101 -81 -183 -81c-141 0 -222 104 -222 243c0 133 78 243 211 243c127 0 202 -100 202 -225c0 -19 0 -34 -1 -48zM253 386c-53 0 -88 -47 -100 -107h202c-11 61 -51 107 -102 107z" />
    <glyph glyph-name="f" unicode="f" horiz-adv-x="316" 
d="M39 365v65l58 16v20c0 116 43 198 212 198v-84c-89 0 -111 -43 -111 -109v-21h90v-85h-90v-365h-101v365h-58z" />
    <glyph glyph-name="g" unicode="g" horiz-adv-x="499" 
d="M53 315c0 98 82 156 185 156c57 0 108 -17 142 -48l91 61v-89l-56 -18c8 -18 13 -39 13 -62c0 -98 -84 -154 -190 -154c-16 0 -32 1 -48 4c-14 -13 -24 -29 -24 -44c0 -21 6 -40 45 -40h137c66 0 112 -37 112 -105c0 -95 -104 -165 -226 -165c-99 0 -201 22 -201 103
c0 46 32 78 67 102c-31 17 -40 44 -40 65c0 46 29 74 66 108c-44 26 -73 69 -73 126zM154 315c0 -51 32 -85 86 -85s87 34 87 85s-33 88 -87 88s-86 -37 -86 -88zM177 0h-12c-19 -13 -35 -33 -35 -56c0 -36 30 -52 94 -52c67 0 128 24 128 63c0 26 -12 46 -48 45h-127z" />
    <glyph glyph-name="h" unicode="h" 
d="M452 0h-101v310c0 53 -29 76 -66 76c-39 0 -80 -22 -111 -55v-331h-101v647l101 15v-242c38 31 83 51 136 51c76 0 142 -36 142 -147v-324z" />
    <glyph glyph-name="i" unicode="i" horiz-adv-x="247" 
d="M174 0h-101v447l101 15v-462zM58 605c0 37 29 66 66 66s67 -29 67 -66s-30 -67 -67 -67s-66 29 -66 67z" />
    <glyph glyph-name="j" unicode="j" horiz-adv-x="247" 
d="M73 447l101 15v-405c0 -144 -32 -206 -196 -245l-23 83c95 24 118 62 118 158v394zM58 605c0 37 29 66 66 66s67 -29 67 -66s-30 -67 -67 -67s-66 29 -66 67z" />
    <glyph glyph-name="k" unicode="k" horiz-adv-x="493" 
d="M471 0h-118l-126 212h-53v-212h-101v647l101 15v-365h54l116 160h119l-147 -200z" />
    <glyph glyph-name="l" unicode="l" horiz-adv-x="249" 
d="M74 647l101 15v-662h-101v647z" />
    <glyph glyph-name="m" unicode="m" horiz-adv-x="798" 
d="M729 0h-101v310c0 53 -30 76 -67 76c-39 0 -79 -22 -110 -55v-7v-324h-101v310c0 53 -29 76 -66 76c-39 0 -80 -22 -111 -55v-331h-101v450l73 13l15 -54c41 38 90 62 149 62c53 0 100 -18 125 -66c41 40 92 66 153 66c76 0 142 -36 142 -147v-324z" />
    <glyph glyph-name="n" unicode="n" horiz-adv-x="520" 
d="M173 0h-101v450l73 12l15 -53c41 38 90 62 149 62c76 0 142 -36 142 -147v-324h-101v310c0 53 -29 76 -66 76c-39 0 -80 -22 -111 -55v-331z" />
    <glyph glyph-name="o" unicode="o" horiz-adv-x="531" 
d="M45 228c0 133 76 243 218 243c145 0 223 -110 223 -243c0 -131 -77 -243 -222 -243c-143 0 -219 110 -219 243zM152 228c0 -84 36 -158 112 -158c78 0 115 74 115 158c0 85 -37 158 -115 158c-76 0 -112 -73 -112 -158z" />
    <glyph glyph-name="p" unicode="p" horiz-adv-x="525" 
d="M174 -189h-101v641l72 5l16 -52c38 42 86 66 138 66c114 0 180 -107 180 -235c0 -136 -63 -251 -195 -251c-41 0 -78 15 -110 38v-212zM273 386c-47 0 -74 -20 -99 -52v-230c21 -20 50 -34 88 -34c78 0 110 80 110 168c0 81 -32 148 -99 148z" />
    <glyph glyph-name="q" unicode="q" horiz-adv-x="525" 
d="M452 -189h-101v223c-35 -31 -77 -49 -124 -49c-120 0 -181 107 -181 235c0 136 67 251 194 251c46 0 91 -21 127 -56l22 41h63v-645zM252 70c43 0 73 18 99 48v231c-21 22 -48 37 -88 37c-78 0 -110 -79 -110 -167c0 -80 32 -149 99 -149z" />
    <glyph glyph-name="r" unicode="r" horiz-adv-x="364" 
d="M172 0h-101v447l86 13l11 -89c38 62 81 100 138 100c14 0 25 0 39 -6l-2 -92c-14 5 -27 8 -42 8c-49 0 -92 -27 -129 -83v-298z" />
    <glyph glyph-name="s" unicode="s" horiz-adv-x="427" 
d="M366 440l-16 -78c-50 23 -89 30 -116 30c-30 0 -62 -10 -62 -43c0 -59 215 -106 215 -230c0 -84 -73 -134 -175 -134c-66 0 -118 21 -178 53l29 81c52 -34 93 -49 140 -49c37 0 71 18 71 45c0 75 -214 104 -214 231c0 92 74 125 152 125c57 0 97 -10 154 -31z" />
    <glyph glyph-name="t" unicode="t" horiz-adv-x="338" 
d="M38 372v75l61 9l15 136h84v-135h89v-85h-89v-228c0 -48 17 -74 49 -74c18 0 30 4 55 17v-77c-33 -21 -65 -25 -88 -25c-76 0 -117 50 -117 131v256h-59z" />
    <glyph glyph-name="u" unicode="u" 
d="M347 457h101v-457h-73l-12 51c-41 -40 -92 -65 -152 -65c-76 0 -142 36 -142 147v319l101 13v-318c0 -53 30 -75 67 -75c39 0 79 21 110 54v331z" />
    <glyph glyph-name="v" unicode="v" horiz-adv-x="487" 
d="M298 0h-109l-165 457h101l119 -353l118 353h101z" />
    <glyph glyph-name="w" unicode="w" horiz-adv-x="675" 
d="M254 0h-99l-125 457h105l76 -322l92 322h73l87 -322l79 322h105l-131 -457h-99l-80 298z" />
    <glyph glyph-name="x" unicode="x" horiz-adv-x="473" 
d="M131 0h-109l159 233l-151 224h111l96 -143l98 143h110l-153 -223l158 -234h-111l-103 152z" />
    <glyph glyph-name="y" unicode="y" horiz-adv-x="488" 
d="M24 457h108l114 -320l112 320h106l-137 -380c-49 -126 -83 -266 -281 -266v84c87 0 119 47 146 105h-3z" />
    <glyph glyph-name="z" unicode="z" horiz-adv-x="444" 
d="M390 371l-227 -286h234v-85h-350v85l225 286h-218v86h336v-86z" />
    <glyph glyph-name="exclam" unicode="!" horiz-adv-x="268" 
d="M82 654h104l-8 -452h-88zM68 52c0 37 29 66 66 66s67 -29 67 -66s-30 -67 -67 -67s-66 29 -66 67z" />
    <glyph glyph-name="quotedbl" unicode="&#x22;" horiz-adv-x="415" 
d="M165 369h-92l-5 247h102zM342 369h-92l-5 247h102z" />
    <glyph glyph-name="quotesingle" unicode="'" horiz-adv-x="238" 
d="M165 369h-92l-5 247h102z" />
    <glyph glyph-name="parenleft" unicode="(" horiz-adv-x="319" 
d="M288 -121l-74 -48c-108 136 -170 254 -170 437c0 175 79 317 175 435l73 -48c-83 -110 -147 -235 -147 -388c0 -154 61 -275 143 -388z" />
    <glyph glyph-name="parenright" unicode=")" horiz-adv-x="320" 
d="M105 -169l-74 48c82 113 143 234 143 388c0 153 -63 278 -147 388l74 48c95 -118 175 -259 175 -435c0 -194 -77 -318 -171 -437z" />
    <glyph glyph-name="asterisk" unicode="*" horiz-adv-x="508" 
d="M56 547l40 71l116 -66v136h81v-135l118 70l41 -69l-119 -71l122 -69l-41 -70l-121 68v-137h-81v137l-116 -69l-42 68l118 70z" />
    <glyph glyph-name="plus" unicode="+" horiz-adv-x="530" 
d="M45 187v88h176v175h87v-175h177v-88h-177v-187h-87v187h-176z" />
    <glyph glyph-name="comma" unicode="," horiz-adv-x="256" 
d="M105 -135l-32 34c35 29 52 52 59 86c-1 -1 -3 -1 -5 -1c-38 0 -69 32 -69 70c0 39 31 70 69 70c42 0 70 -40 70 -95c0 -60 -35 -122 -92 -164z" />
    <glyph glyph-name="hyphen" unicode="-" horiz-adv-x="330" 
d="M66 194v87h198v-87h-198z" />
    <glyph glyph-name="period" unicode="." horiz-adv-x="255" 
d="M58 55c0 38 31 69 69 69c39 0 70 -31 70 -69c0 -39 -31 -70 -70 -70c-38 0 -69 31 -69 70z" />
    <glyph glyph-name="slash" unicode="/" horiz-adv-x="502" 
d="M22 -189l362 874h97l-363 -874h-96z" />
    <glyph glyph-name="colon" unicode=":" horiz-adv-x="271" 
d="M66 55c0 37 31 69 70 69c38 0 69 -31 69 -69c0 -39 -31 -70 -69 -70c-39 0 -70 30 -70 70zM66 402c0 39 31 70 70 70c38 0 69 -31 69 -70c0 -38 -31 -69 -69 -69c-40 0 -70 30 -70 69z" />
    <glyph glyph-name="semicolon" unicode=";" horiz-adv-x="273" 
d="M114 -135l-32 34c36 29 52 52 60 86c-2 -1 -4 -1 -5 -1c-39 0 -70 32 -70 70c0 39 31 70 70 70c42 0 70 -40 70 -95c-1 -60 -35 -122 -93 -164zM67 402c0 39 31 70 70 70c38 0 69 -31 69 -70c0 -38 -31 -69 -69 -69c-40 0 -70 30 -70 69z" />
    <glyph glyph-name="question" unicode="?" horiz-adv-x="419" 
d="M81 482l-53 53c48 56 111 96 182 96c118 0 176 -76 176 -152c0 -152 -157 -127 -157 -324h-89c0 202 139 244 139 314c0 38 -22 77 -79 77c-43 0 -84 -24 -119 -64zM120 48c0 35 28 64 63 64s64 -29 64 -64s-29 -63 -64 -63c-36 0 -63 28 -63 63z" />
    <glyph glyph-name="at" unicode="@" horiz-adv-x="852" 
d="M511 447l100 -6l-52 -317c85 10 162 85 162 198c0 120 -101 208 -254 208c-173 0 -344 -129 -344 -335c0 -153 104 -244 239 -244c67 0 147 13 211 59l27 -44c-75 -60 -158 -79 -238 -79c-197 0 -311 137 -311 308c0 244 204 399 416 399c197 0 327 -114 327 -272
c0 -142 -110 -254 -265 -257h-80l15 96c-53 -56 -114 -104 -152 -104c-70 0 -93 57 -93 128c0 120 101 256 207 271l80 -38zM359 152c29 0 82 56 122 110l13 80l-72 35c-44 -11 -96 -103 -96 -182c-1 -25 8 -43 33 -43z" />
    <glyph glyph-name="grave" unicode="`" horiz-adv-x="235" 
d="M214 583l-51 -69l-174 132l52 74z" />
    <glyph glyph-name="dieresis" unicode="&#xa8;" horiz-adv-x="400" 
d="M31 600c0 37 31 69 70 69c38 0 69 -31 69 -69c0 -39 -31 -70 -69 -70c-39 0 -70 30 -70 70zM226 600c0 37 31 69 70 69c38 0 69 -31 69 -69c0 -39 -31 -70 -69 -70c-39 0 -70 30 -70 70z" />
    <glyph glyph-name="acute" unicode="&#xb4;" horiz-adv-x="235" 
d="M67 515l-50 69l172 137l52 -74z" />
    <glyph glyph-name="periodcentered" unicode="&#xb7;" horiz-adv-x="266" 
d="M63 262c0 40 32 70 70 70c39 0 70 -31 70 -70c0 -38 -31 -69 -70 -69s-70 30 -70 69z" />
    <glyph glyph-name="cedilla" unicode="&#xb8;" horiz-adv-x="243" 
d="M19 -165l21 37c16 -13 45 -24 65 -24c24 0 40 15 40 31c0 24 -30 36 -96 36l37 97l61 -1l-17 -48c52 -10 80 -39 80 -84c0 -44 -40 -82 -100 -82c-30 0 -65 18 -91 38z" />
    <glyph glyph-name="circumflex" unicode="&#x2c6;" horiz-adv-x="329" 
d="M30 569l121 131h31l121 -131l-52 -53l-84 86l-85 -86z" />
    <glyph glyph-name="caron" unicode="&#x2c7;" horiz-adv-x="329" 
d="M147 515l-121 131l52 54l87 -96l82 95l52 -52l-121 -132h-31z" />
    <glyph glyph-name="breve" unicode="&#x2d8;" horiz-adv-x="329" 
d="M6 692l66 16c7 -45 45 -92 90 -92s81 44 95 94l63 -19c-18 -88 -71 -156 -159 -156c-98 0 -143 80 -155 157z" />
    <glyph glyph-name="dotaccent" unicode="&#x2d9;" horiz-adv-x="214" 
d="M39 618c0 38 31 69 69 69c39 0 70 -31 70 -69c0 -39 -31 -70 -70 -70c-38 0 -69 31 -69 70z" />
    <glyph glyph-name="ring" unicode="&#x2da;" horiz-adv-x="274" 
d="M36 616c0 54 41 96 100 96c60 0 101 -41 101 -96c0 -56 -41 -97 -101 -97c-59 0 -100 42 -100 97zM135 567c25 0 43 14 43 49c0 38 -19 52 -43 52c-20 0 -39 -17 -39 -52c0 -38 18 -49 39 -49z" />
    <glyph glyph-name="ogonek" unicode="&#x2db;" horiz-adv-x="287" 
d="M207 -115l24 -51c-34 -22 -59 -28 -87 -28c-67 0 -103 42 -103 104c0 66 58 108 167 144l18 -58c-76 -28 -114 -58 -114 -87c0 -24 16 -39 38 -39c15 0 32 2 57 15z" />
    <glyph glyph-name="tilde" unicode="&#x2dc;" horiz-adv-x="390" 
d="M248 533c-53 0 -72 43 -109 43c-15 0 -37 -10 -54 -47l-49 54c35 64 66 85 102 85c43 0 68 -45 107 -45c18 0 41 17 55 55l49 -54c-27 -61 -60 -91 -101 -91z" />
    <glyph glyph-name="hungarumlaut" unicode="&#x2dd;" horiz-adv-x="362" 
d="M101 524l-74 36l82 175l81 -41zM255 524l-74 36l83 175l80 -41z" />
    <glyph glyph-name="dotlessi" unicode="&#x131;" horiz-adv-x="248" 
d="M175 0h-102v447l102 15v-462z" />
    <glyph glyph-name="macron" unicode="&#xaf;" horiz-adv-x="281" 
d="M25 551v84h229v-84h-229z" />
    <glyph glyph-name="subcomma" horiz-adv-x="272" 
d="M112 -325l-32 34c36 30 52 52 60 86h-5c-39 0 -70 31 -70 69c0 39 31 70 70 70c42 0 70 -40 70 -95c-1 -60 -35 -122 -93 -164z" />
    <glyph glyph-name="quotedblleft" unicode="&#x201c;" horiz-adv-x="431" 
d="M145 631l32 -34c-35 -30 -52 -52 -59 -86h5c38 0 69 -31 69 -69c0 -39 -31 -70 -69 -70c-42 0 -70 40 -70 95c0 60 35 122 92 164zM330 631l32 -34c-35 -30 -52 -52 -59 -86h5c38 0 69 -31 69 -69c0 -39 -31 -70 -69 -70c-42 0 -70 40 -70 95c0 60 35 122 92 164z" />
    <glyph glyph-name="quotedblright" unicode="&#x201d;" horiz-adv-x="428" 
d="M286 372l-32 34c35 29 52 52 59 86c-1 -1 -3 -1 -5 -1c-38 0 -69 31 -69 70s31 70 69 70c42 0 70 -40 70 -95c0 -60 -35 -122 -92 -164zM101 372l-32 34c35 29 52 52 59 86c-1 -1 -3 -1 -5 -1c-38 0 -69 31 -69 70s31 70 69 70c42 0 70 -40 70 -95
c0 -60 -35 -122 -92 -164z" />
    <glyph glyph-name="quoteleft" unicode="&#x2018;" horiz-adv-x="246" 
d="M145 631l32 -34c-35 -30 -52 -52 -59 -86h5c38 0 69 -31 69 -69c0 -39 -31 -70 -69 -70c-35 0 -70 31 -70 95c0 60 35 122 92 164z" />
    <glyph glyph-name="quoteright" unicode="&#x2019;" horiz-adv-x="243" 
d="M101 372l-32 34c35 29 52 52 59 86c-1 -1 -3 -1 -5 -1c-38 0 -69 31 -69 70s31 70 69 70c42 0 70 -40 70 -95c0 -60 -35 -122 -92 -164z" />
    <glyph glyph-name="grave.case" horiz-adv-x="235" 
d="M225 743l-38 -77l-197 92l42 85z" />
    <glyph glyph-name="dieresis.case" horiz-adv-x="401" 
d="M33 740c0 39 31 70 70 70c38 0 69 -31 69 -70c0 -38 -31 -69 -69 -69c-40 0 -70 30 -70 69zM227 740c0 39 31 70 70 70c38 0 69 -31 69 -70c0 -38 -31 -69 -69 -69c-40 0 -70 30 -70 69z" />
    <glyph glyph-name="macron.case" horiz-adv-x="273" 
d="M22 688v84h229v-84h-229z" />
    <glyph glyph-name="acute.case" horiz-adv-x="235" 
d="M40 666l-38 77l193 100l41 -85z" />
    <glyph glyph-name="circumflex.case" horiz-adv-x="329" 
d="M176 830l120 -116l-50 -57l-87 87l-82 -87l-50 57l118 116h31z" />
    <glyph glyph-name="caron.case" horiz-adv-x="329" 
d="M148 657l-130 116l50 57l96 -86l93 86l50 -56l-128 -117h-31z" />
    <glyph glyph-name="breve.case" horiz-adv-x="329" 
d="M4 822l67 17c7 -43 44 -88 89 -88c46 0 82 41 96 89l62 -19c-17 -85 -71 -151 -159 -151c-94 0 -140 63 -155 152z" />
    <glyph glyph-name="dotaccent.case" horiz-adv-x="180" 
d="M21 749c0 39 31 70 70 70s70 -31 70 -70s-31 -70 -70 -70s-70 31 -70 70z" />
    <glyph glyph-name="ring.case" horiz-adv-x="277" 
d="M34 760c0 57 42 99 103 99c63 0 105 -42 105 -99c0 -59 -42 -101 -105 -101c-61 0 -103 38 -103 101zM137 709c24 0 45 12 45 50c0 41 -21 55 -45 55c-22 0 -42 -17 -42 -55c0 -39 20 -50 42 -50z" />
    <glyph glyph-name="tilde.case" horiz-adv-x="405" 
d="M258 676c-57 0 -76 48 -116 48c-17 0 -40 -10 -59 -47l-49 54c40 68 74 89 115 89c42 0 67 -50 106 -50c23 0 50 18 68 55l49 -53c-30 -65 -67 -96 -114 -96z" />
    <glyph glyph-name="hungarumlaut.case" horiz-adv-x="357" 
d="M105 663l-74 36l82 174l81 -41zM259 663l-74 36l83 174l80 -41z" />
    <glyph glyph-name="a" unicode="a" horiz-adv-x="468" 
d="M313 0l-11 51c-46 -41 -87 -66 -139 -66c-70 0 -124 37 -124 115c0 106 108 142 259 181v12c0 67 -44 92 -92 92c-41 0 -86 -14 -117 -32l-26 69c44 27 102 49 174 49c88 0 162 -43 162 -168v-303h-86zM194 77c35 0 66 16 104 43v90c-93 -24 -152 -41 -152 -92
c0 -28 22 -41 48 -41z" />
    <glyph glyph-name="space" unicode=" " horiz-adv-x="236" 
 />
    <glyph glyph-name="A" unicode="A" horiz-adv-x="599" 
d="M25 0l218 616h110l224 -616h-105l-56 153h-232l-54 -153h-105zM298 476l-83 -234h169z" />
    <glyph glyph-name="B" unicode="B" horiz-adv-x="563" 
d="M86 616h197c135 0 186 -63 186 -151c0 -48 -17 -94 -47 -128c60 -33 93 -90 93 -160c0 -100 -77 -177 -215 -177h-214v616zM400 184c0 53 -28 93 -106 94h-103v-189h106c66 0 103 39 103 95zM282 527h-91v-160h98c45 0 65 38 65 81s-22 79 -72 79z" />
    <glyph glyph-name="C" unicode="C" horiz-adv-x="599" 
d="M563 564l-44 -73c-36 30 -85 51 -159 51c-125 0 -193 -106 -193 -236s66 -232 190 -232c74 0 124 19 159 52l44 -73c-47 -42 -117 -68 -208 -68c-205 0 -301 146 -301 321c0 180 108 325 304 325c91 0 161 -26 208 -67z" />
    <glyph glyph-name="D" unicode="D" horiz-adv-x="641" 
d="M191 527v-438h65c118 0 218 63 218 211c0 159 -100 227 -218 227h-65zM86 0v616h175c187 0 328 -101 328 -316c0 -206 -141 -300 -328 -300h-175z" />
    <glyph glyph-name="E" unicode="E" horiz-adv-x="505" 
d="M447 616v-89h-256v-165h202v-89h-202v-184h270v-89h-375v616h361z" />
    <glyph glyph-name="F" unicode="F" horiz-adv-x="485" 
d="M447 616v-89h-256v-165h202v-89h-202v-273h-105v616h361z" />
    <glyph glyph-name="G" unicode="G" horiz-adv-x="630" 
d="M462 302h105v-254c-46 -39 -115 -63 -205 -63c-192 0 -312 131 -312 321c0 180 113 325 315 325c89 0 157 -26 203 -67l-44 -73c-36 30 -85 51 -159 51c-129 0 -200 -106 -200 -236s73 -232 207 -232c35 0 65 5 90 15v213z" />
    <glyph glyph-name="H" unicode="H" horiz-adv-x="650" 
d="M459 616h105v-616h-105v277h-268v-277h-105v616h105v-250h268v250z" />
    <glyph glyph-name="I" unicode="I" horiz-adv-x="277" 
d="M86 616h105v-616h-105v616z" />
    <glyph glyph-name="J" unicode="J" horiz-adv-x="277" 
d="M86 616h105v-559c0 -144 -36 -206 -200 -245l-24 85c95 23 119 60 119 156v563z" />
    <glyph glyph-name="K" unicode="K" horiz-adv-x="566" 
d="M546 0h-123l-175 267h-57v-267h-105v616h105v-260h51l176 260h120l-202 -300z" />
    <glyph glyph-name="L" unicode="L" horiz-adv-x="479" 
d="M450 89v-89h-364v616h105v-527h259z" />
    <glyph glyph-name="M" unicode="M" horiz-adv-x="794" 
d="M587 616h111l20 -616h-105l-13 406l-165 -406h-76l-165 402l-13 -402h-105l20 616h111l192 -474z" />
    <glyph glyph-name="N" unicode="N" horiz-adv-x="660" 
d="M469 616h105v-616h-91l-292 423v-423h-105v616h91l292 -430v430z" />
    <glyph glyph-name="O" unicode="O" horiz-adv-x="686" 
d="M354 74c103 0 166 105 166 231c0 135 -62 238 -172 238c-117 0 -182 -98 -182 -227c0 -138 67 -242 188 -242zM354 -15c-195 0 -303 136 -303 331c0 178 108 315 297 315c182 0 287 -141 287 -326c0 -182 -103 -320 -281 -320z" />
    <glyph glyph-name="P" unicode="P" horiz-adv-x="519" 
d="M86 616h154c170 0 241 -79 241 -194c0 -112 -77 -198 -215 -198h-75v-224h-105v616zM244 527h-53v-214h67c71 0 109 45 109 107s-32 107 -123 107z" />
    <glyph glyph-name="Q" unicode="Q" horiz-adv-x="686" 
d="M635 305c0 -137 -58 -248 -162 -296c100 -64 198 -106 305 -63l18 -86c-185 -71 -310 32 -466 126c-177 11 -279 144 -279 330c0 178 108 315 297 315c182 0 287 -141 287 -326zM354 74c102 0 166 104 166 231c0 135 -62 237 -172 237c-117 0 -182 -97 -182 -226
c0 -138 67 -242 188 -242z" />
    <glyph glyph-name="R" unicode="R" horiz-adv-x="559" 
d="M526 0h-119l-129 234h-10h-77v-234h-105v616h164c162 0 233 -77 233 -188c0 -75 -36 -138 -102 -171zM254 527h-63v-204h68c72 0 109 43 109 103c0 58 -27 101 -114 101z" />
    <glyph glyph-name="S" unicode="S" horiz-adv-x="496" 
d="M45 43l32 84c55 -31 116 -53 163 -53c55 0 93 22 93 78c0 128 -275 130 -275 316c0 62 40 163 194 163c65 0 111 -13 176 -43l-25 -85c-60 28 -105 39 -144 39c-77 0 -90 -45 -90 -71c0 -119 283 -130 283 -317c0 -116 -95 -168 -211 -168c-78 0 -131 24 -196 57z" />
    <glyph glyph-name="T" unicode="T" horiz-adv-x="509" 
d="M480 616v-89h-172v-527h-105v527h-174v89h451z" />
    <glyph glyph-name="U" unicode="U" horiz-adv-x="643" 
d="M80 616h105v-398c0 -80 26 -144 135 -144c111 0 138 64 138 144v398h105v-399c0 -120 -48 -232 -243 -232c-189 0 -240 110 -240 232v399z" />
    <glyph glyph-name="V" unicode="V" horiz-adv-x="596" 
d="M351 0h-111l-214 616h110l161 -491l168 491h110z" />
    <glyph glyph-name="W" unicode="W" horiz-adv-x="942" 
d="M329 0h-111l-191 616h110l138 -465l140 463v2h111l-1 -2l143 -464l136 466h110l-190 -616h-111l-143 443z" />
    <glyph glyph-name="X" unicode="X" horiz-adv-x="553" 
d="M137 0h-117l198 315l-187 301h118l128 -206l129 206h116l-187 -300l196 -316h-117l-138 222z" />
    <glyph glyph-name="Y" unicode="Y" horiz-adv-x="528" 
d="M317 251v-251h-105v253l-190 363h113l130 -257l127 257h111z" />
    <glyph glyph-name="Z" unicode="Z" horiz-adv-x="518" 
d="M353 527h-293v89h403v-89l-308 -438h315v-89h-426v89z" />
    <glyph glyph-name="numbersign" unicode="#" horiz-adv-x="653" 
d="M588 241l-13 -88h-101l-19 -153h-103l20 153h-132l-20 -153h-102l19 153h-94l13 88h93l17 133h-101l13 88h99l20 154h103l-20 -154h132l20 154h102l-20 -154h96l-13 -88h-94l-17 -133h102zM268 374l-17 -133h132l17 133h-132z" />
    <glyph glyph-name="percent" unicode="%" horiz-adv-x="793" 
d="M162 12l392 647l78 -50l-391 -648zM179 297c-84 0 -145 65 -145 167c0 101 59 167 145 167s145 -66 145 -167c0 -102 -59 -167 -145 -167zM179 366c33 0 57 38 57 98c0 59 -24 98 -57 98c-34 0 -58 -38 -58 -98s24 -98 58 -98zM615 -15c-84 0 -145 65 -145 167
c0 101 59 167 145 167s145 -66 145 -167c0 -102 -59 -167 -145 -167zM615 54c33 0 57 38 57 98c0 59 -24 98 -57 98c-34 0 -58 -38 -58 -98s24 -98 58 -98z" />
    <glyph glyph-name="ampersand" unicode="&#x26;" horiz-adv-x="681" 
d="M541 360h110l-190 -229l2 -2c24 -36 53 -57 73 -57c25 0 50 13 70 34l38 -62c-31 -34 -66 -59 -121 -59c-31 0 -82 24 -121 78c-39 -40 -91 -79 -151 -79c-105 0 -189 86 -189 183c0 94 66 151 138 192c-29 45 -54 90 -54 129c0 79 58 143 149 143c86 0 136 -69 138 -133
c3 -73 -48 -128 -108 -166l85 -126zM250 68c37 0 72 34 102 69l-103 150c-49 -28 -98 -62 -98 -118s47 -101 99 -101zM234 489c0 -23 22 -55 43 -87c37 24 68 55 67 91c-1 26 -20 54 -54 54c-33 0 -56 -25 -56 -58z" />
    <glyph glyph-name="zero" unicode="0" horiz-adv-x="566" 
d="M281 70c93 0 119 103 119 238c0 130 -28 238 -119 238c-89 0 -115 -108 -115 -238c0 -136 26 -238 115 -238zM281 -15c-169 0 -222 137 -222 323c0 179 53 323 222 323c171 0 226 -144 226 -323c0 -186 -55 -323 -226 -323z" />
    <glyph glyph-name="one" unicode="1" horiz-adv-x="426" 
d="M86 422l-52 67l149 128l1 -2v1h101v-531h109v-85h-318v85h108v420z" />
    <glyph glyph-name="two" unicode="2" horiz-adv-x="516" 
d="M98 487l-46 62c49 50 106 82 195 82c158 0 206 -106 204 -170c-2 -183 -259 -222 -293 -376h305v-85h-411v34c0 249 289 275 291 425c0 30 -24 87 -111 87c-61 0 -93 -20 -134 -59z" />
    <glyph glyph-name="three" unicode="3" horiz-adv-x="506" 
d="M103 512l-41 62c34 31 82 57 168 57c163 0 195 -102 195 -165c0 -47 -23 -103 -78 -141c66 -38 106 -98 106 -154c1 -68 -39 -186 -221 -186c-72 0 -130 17 -198 71l43 67c43 -33 80 -53 151 -53c95 0 119 66 118 106c0 50 -50 102 -153 105h-8h-15v85h15
c102 0 133 53 133 97c0 32 -15 83 -95 83c-54 0 -95 -14 -120 -34z" />
    <glyph glyph-name="four" unicode="4" horiz-adv-x="543" 
d="M312 616h102v-393h84v-85h-84v-138h-102v138h-277v85zM138 223h174v245z" />
    <glyph glyph-name="five" unicode="5" horiz-adv-x="510" 
d="M129 280h-60l38 336h329v-85h-245l-18 -151c30 15 61 24 97 24c118 0 187 -92 187 -200c0 -142 -87 -219 -209 -219c-98 0 -144 20 -206 80l46 64c42 -43 90 -59 143 -59c67 0 119 46 119 135c0 62 -41 114 -105 114c-36 0 -66 -6 -116 -39z" />
    <glyph glyph-name="six" unicode="6" horiz-adv-x="538" 
d="M470 596l-33 -73c-27 12 -67 23 -110 23c-71 0 -137 -63 -157 -186c36 23 78 38 121 38c111 0 196 -60 196 -195c0 -134 -89 -218 -208 -218c-142 0 -223 131 -223 290c0 231 129 356 271 356c60 0 111 -18 143 -35zM291 313c-45 0 -91 -19 -128 -46
c2 -113 47 -197 115 -197c60 0 102 47 102 128c0 82 -39 115 -89 115z" />
    <glyph glyph-name="seven" unicode="7" horiz-adv-x="461" 
d="M192 0h-124l252 531h-280v85h403v-30z" />
    <glyph glyph-name="eight" unicode="8" horiz-adv-x="519" 
d="M256 -15c-110 0 -203 55 -203 151c0 83 50 141 119 184c-63 52 -87 101 -87 156c0 100 84 155 180 155c93 0 177 -56 177 -151c0 -73 -45 -128 -102 -168c84 -65 125 -116 125 -185c0 -82 -88 -142 -209 -142zM363 143c0 39 -48 74 -110 118c-52 -28 -98 -63 -98 -115
c0 -48 52 -78 100 -78c58 0 108 34 108 75zM187 478c0 -39 24 -68 73 -107c38 23 80 52 80 105c0 35 -26 72 -74 72c-45 0 -79 -33 -79 -70z" />
    <glyph glyph-name="nine" unicode="9" horiz-adv-x="538" 
d="M68 20l33 73c27 -12 67 -23 110 -23c71 0 136 63 157 186c-36 -23 -78 -38 -121 -38c-111 0 -196 60 -196 195c0 134 89 218 208 218c139 0 223 -120 223 -290c0 -231 -129 -356 -271 -356c-60 0 -111 18 -143 35zM247 303c44 0 90 18 128 45c-2 113 -48 198 -115 198
c-60 0 -102 -47 -102 -128c0 -82 39 -115 89 -115z" />
    <glyph glyph-name="less" unicode="&#x3c;" horiz-adv-x="447" 
d="M378 127v-94l-333 162v66l333 162v-94l-213 -101z" />
    <glyph glyph-name="equal" unicode="=" horiz-adv-x="547" 
d="M72 90v87h403v-87h-403zM72 281v87h403v-87h-403z" />
    <glyph glyph-name="greater" unicode="&#x3e;" horiz-adv-x="447" 
d="M69 33v94l213 101l-213 101v94l333 -162v-66z" />
    <glyph glyph-name="bracketleft" unicode="[" horiz-adv-x="319" 
d="M82 -140v801h194v-84h-98v-632h98v-85h-194z" />
    <glyph glyph-name="backslash" unicode="\" horiz-adv-x="505" 
d="M384 -189l-363 874h100l362 -874h-99z" />
    <glyph glyph-name="bracketright" unicode="]" horiz-adv-x="318" 
d="M43 661h193v-801h-193v85h98v632h-98v84z" />
    <glyph glyph-name="asciicircum" unicode="^" horiz-adv-x="501" 
d="M208 616h80l179 -379l-87 -31l-132 279l-125 -278l-88 31z" />
    <glyph glyph-name="underscore" unicode="_" horiz-adv-x="628" 
d="M66 -150v73h496v-73h-496z" />
    <glyph glyph-name="braceleft" unicode="{" horiz-adv-x="325" 
d="M39 210v87c49 0 73 34 73 77v151c0 69 35 132 109 132h55v-87h-24c-25 0 -38 -26 -38 -55v-153c0 -43 -27 -81 -63 -109c36 -27 63 -66 63 -108v-153c0 -30 13 -56 38 -56h24v-87h-55c-56 0 -109 48 -109 132v152c0 42 -23 75 -70 77h-3z" />
    <glyph glyph-name="bar" unicode="|" horiz-adv-x="269" 
d="M81 686h107v-876h-107v876z" />
    <glyph glyph-name="braceright" unicode="}" horiz-adv-x="325" 
d="M286 297v-87h-4c-46 -2 -69 -35 -69 -77v-152c0 -69 -35 -132 -109 -132h-55v87h24c25 0 38 26 38 56v153c0 42 27 81 63 109c-35 26 -63 62 -63 108v153c0 29 -13 55 -38 55h-24v87h55c74 0 109 -63 109 -132v-151c0 -43 24 -77 73 -77z" />
    <glyph glyph-name="asciitilde" unicode="~" horiz-adv-x="541" 
d="M109 170l-53 54c50 80 92 105 143 105c56 0 91 -63 146 -64c36 -1 68 31 85 73l54 -50c-29 -72 -76 -117 -138 -117c-77 0 -105 61 -155 62c-25 0 -54 -14 -82 -63z" />
    <glyph glyph-name="exclamdown" unicode="&#xa1;" horiz-adv-x="255" 
d="M180 -189h-105l8 462h89zM62 424c0 37 29 66 66 66s67 -29 67 -66s-30 -67 -67 -67s-66 29 -66 67z" />
    <glyph glyph-name="cent" unicode="&#xa2;" horiz-adv-x="479" 
d="M50 229c0 117 63 218 182 238v99h65v-96c60 -4 105 -25 137 -55l-43 -68c-27 23 -58 39 -104 39c-89 0 -130 -75 -130 -157s40 -159 127 -159c51 0 82 15 105 38l42 -67c-30 -30 -75 -50 -134 -55v-100h-65v103c-121 20 -182 129 -182 240z" />
    <glyph glyph-name="sterling" unicode="&#xa3;" horiz-adv-x="551" 
d="M62 280v77h70c-5 30 -9 62 -9 94c0 90 74 181 181 181c75 0 121 -22 194 -73l-58 -67c-53 35 -91 49 -127 49c-52 0 -88 -40 -88 -90c0 -32 4 -63 10 -94h114v-77h-100c4 -28 8 -57 8 -86c0 -31 -8 -59 -23 -89c34 -11 68 -30 102 -30c48 0 79 26 112 74l63 -40
c-44 -83 -91 -125 -189 -125c-52 0 -90 24 -134 40c-19 -26 -37 -38 -65 -38c-53 0 -72 38 -72 72c0 28 18 51 43 59c13 7 28 12 45 12c11 23 15 43 15 65c0 29 -4 57 -8 86h-84z" />
    <glyph glyph-name="yen" unicode="&#xa5;" horiz-adv-x="544" 
d="M463 161v-71h-138v-90h-105v90h-133v71h133v68h-133v71h108l-165 316h113l130 -257l127 257h111l-161 -316h113v-71h-138v-68h138z" />
    <glyph glyph-name="brokenbar" unicode="&#xa6;" horiz-adv-x="268" 
d="M83 -189v403h102v-403h-102zM83 286v400h102v-400h-102z" />
    <glyph glyph-name="section" unicode="&#xa7;" horiz-adv-x="491" 
d="M434 207c0 -56 -22 -97 -57 -124c33 -25 57 -57 57 -100c0 -119 -95 -173 -208 -173c-66 0 -126 27 -183 56l35 84c49 -30 105 -53 150 -53c50 0 92 24 92 81c0 99 -251 104 -251 247c0 37 16 91 65 126c-37 28 -65 62 -65 113c0 62 42 167 199 167c57 0 98 -13 155 -43
l-29 -85c-55 28 -94 39 -131 39c-71 0 -88 -47 -88 -73c0 -96 259 -109 259 -262zM320 202c0 42 -43 69 -93 95c-42 -12 -52 -46 -52 -67c0 -42 51 -66 108 -94c22 13 37 34 37 66z" />
    <glyph glyph-name="copyright" unicode="&#xa9;" horiz-adv-x="662" 
d="M445 432l-32 -57c-25 20 -53 35 -85 35c-51 0 -77 -43 -77 -92c0 -52 24 -91 74 -91c32 0 58 13 86 34l29 -57c-29 -25 -69 -42 -115 -42c-93 0 -141 70 -141 156c0 84 48 156 144 156c45 0 86 -15 117 -42zM57 315c0 150 123 275 274 275c152 0 275 -125 275 -275
c0 -152 -123 -275 -275 -275c-150 0 -274 123 -274 275zM110 315c0 -124 99 -223 221 -223c124 0 223 99 223 223c0 122 -99 222 -223 222c-122 0 -221 -100 -221 -222z" />
    <glyph glyph-name="ordfeminine" unicode="&#xaa;" horiz-adv-x="320" 
d="M89 565l-19 38c24 16 58 28 96 28c48 0 87 -22 87 -86v-145h-64v23c-23 -18 -44 -28 -70 -28c-37 0 -64 19 -64 54c0 48 47 62 134 84v7c0 30 -19 41 -38 41c-22 0 -46 -6 -62 -16zM143 440c14 0 29 4 46 15v47c-45 -15 -67 -23 -67 -43c0 -12 9 -19 21 -19z" />
    <glyph glyph-name="guillemotleft" unicode="&#xab;" horiz-adv-x="479" 
d="M46 220v28l107 197l89 -37l-96 -175l97 -176l-86 -39zM234 220v28l107 197l89 -37l-96 -175l97 -176l-86 -39z" />
    <glyph glyph-name="registered" unicode="&#xae;" horiz-adv-x="662" 
d="M472 170l-68 -16l-87 128h-14v-121h-67v323h88c86 0 117 -42 117 -99c0 -38 -21 -73 -53 -92c26 -39 60 -84 84 -123zM322 425h-21v-78h25c31 0 48 16 48 39c0 20 -12 39 -52 39zM57 315c0 150 123 275 274 275c152 0 275 -125 275 -275c0 -152 -123 -275 -275 -275
c-150 0 -274 123 -274 275zM110 315c0 -124 99 -223 221 -223c124 0 223 99 223 223c0 122 -99 222 -223 222c-122 0 -221 -100 -221 -222z" />
    <glyph glyph-name="degree" unicode="&#xb0;" horiz-adv-x="382" 
d="M190 402c53 0 64 42 64 81s-11 80 -64 80c-52 0 -62 -34 -62 -80c0 -39 10 -81 62 -81zM190 333c-102 0 -136 63 -136 150c0 86 25 148 136 148c113 0 138 -77 138 -148c0 -87 -25 -150 -138 -150z" />
    <glyph glyph-name="mu" unicode="&#xb5;" horiz-adv-x="557" 
d="M365 457h101v-457h-88v47c-41 -38 -90 -62 -149 -62c-14 0 -28 2 -41 4l1 -179h-102v642l101 13v-206v-122v-2c4 -45 33 -65 67 -65c39 0 79 22 110 56v331z" />
    <glyph glyph-name="paragraph" unicode="&#xb6;" horiz-adv-x="677" 
d="M581 616v-806h-103v718h-65v-718h-102v396h-43c-139 0 -243 89 -243 213c0 117 96 197 238 197h318z" />
    <glyph glyph-name="ordmasculine" unicode="&#xba;" horiz-adv-x="337" 
d="M168 447c38 0 51 26 51 68c0 39 -13 67 -51 67s-50 -30 -50 -72c0 -36 12 -63 50 -63zM168 398c-82 0 -115 50 -115 112c0 71 32 121 115 121s116 -48 116 -116s-33 -117 -116 -117z" />
    <glyph glyph-name="guillemotright" unicode="&#xbb;" horiz-adv-x="479" 
d="M433 248v-28l-111 -202l-86 39l97 176l-96 175l89 37zM245 248v-28l-111 -202l-86 39l97 176l-96 175l89 37z" />
    <glyph glyph-name="questiondown" unicode="&#xbf;" horiz-adv-x="414" 
d="M334 -40l53 -52c-47 -57 -110 -97 -182 -97c-109 0 -176 71 -176 152c0 153 169 136 158 330h88c12 -208 -144 -229 -144 -319c0 -39 28 -78 84 -78c44 0 84 24 119 64zM295 400c0 -35 -28 -63 -63 -63s-63 29 -63 63c0 35 28 63 63 63s63 -28 63 -63z" />
    <glyph glyph-name="currency" unicode="&#xa4;" horiz-adv-x="629" 
d="M569 139l-66 -67l-78 79c-35 -25 -69 -35 -110 -35c-40 0 -71 10 -109 34l-78 -78l-67 67l77 77c-24 35 -35 69 -35 110c0 39 11 72 34 108l-79 77l68 68l78 -77c36 23 70 34 111 34s74 -10 110 -34l78 77l66 -68l-77 -76c24 -37 33 -68 33 -109c0 -42 -9 -72 -33 -109
c13 -12 70 -70 77 -78zM426 325c0 62 -50 112 -112 112c-60 0 -110 -50 -110 -111s50 -111 110 -111c65 0 112 48 112 110z" />
    <glyph glyph-name="logicalnot" unicode="&#xac;" horiz-adv-x="547" 
d="M70 207v88h400v-236h-101v148h-299z" />
    <glyph glyph-name="plusminus" unicode="&#xb1;" horiz-adv-x="479" 
d="M72 316v82h126v126h83v-126h126v-82h-126v-132h-83v132h-126zM72 57v78h335v-78h-335z" />
    <glyph glyph-name="AE" unicode="&#xc6;" horiz-adv-x="792" 
d="M734 616v-88h-256v-166h203v-89h-203v-184h270v-89h-375v150h-170l-86 -150h-110l355 616h372zM251 234h122v211z" />
    <glyph glyph-name="multiply" unicode="&#xd7;" horiz-adv-x="488" 
d="M122 49l-62 62l122 122l-123 123l62 62l123 -123l123 123l62 -62l-123 -123l122 -122l-62 -62l-122 122z" />
    <glyph glyph-name="Thorn" unicode="&#xde;" horiz-adv-x="518" 
d="M86 616h105v-107h49c170 0 241 -79 241 -194c0 -112 -77 -197 -215 -197h-75v-118h-105v616zM244 420h-53v-213h67c71 0 108 44 108 106s-31 107 -122 107z" />
    <glyph glyph-name="germandbls" unicode="&#xdf;" horiz-adv-x="538" 
d="M174 1h-101v486c0 131 81 199 187 199c146 0 183 -97 183 -152c0 -86 -72 -106 -72 -179c0 -72 128 -113 128 -215c0 -84 -55 -155 -159 -155c-35 0 -73 12 -108 31l30 66c22 -11 30 -17 65 -17c41 0 65 28 65 62c0 74 -128 105 -128 221c0 89 77 115 77 176
c0 28 -16 75 -81 75c-48 0 -86 -38 -86 -112v-486z" />
    <glyph glyph-name="ae" unicode="&#xe6;" horiz-adv-x="755" 
d="M699 198h-294c9 -72 47 -128 131 -128c54 0 90 23 115 49l51 -53c-37 -46 -101 -81 -183 -81c-86 0 -143 38 -178 90c-64 -55 -113 -90 -179 -90c-70 0 -124 46 -124 115c0 106 108 142 259 181v12c0 67 -44 92 -92 92c-41 0 -86 -14 -117 -32l-26 69
c44 27 102 49 174 49c53 0 101 -16 131 -56c35 35 83 56 141 56c123 0 202 -95 202 -195c0 -27 -1 -54 -11 -78zM505 386c-53 0 -86 -47 -97 -107h194c-9 67 -44 107 -97 107zM193 77c40 0 74 21 119 55c-8 23 -12 47 -14 70c-93 -22 -153 -38 -153 -84c0 -28 22 -41 48 -41
z" />
    <glyph glyph-name="eth" unicode="&#xf0;" horiz-adv-x="543" 
d="M231 508l-27 28l60 61c-12 5 -25 8 -38 8c-40 0 -84 -5 -127 -24l-32 74c57 23 104 35 158 35c38 0 73 -10 104 -28l53 53l27 -28l-48 -48c84 -71 131 -204 131 -339c0 -154 -45 -315 -223 -315c-128 0 -224 91 -224 247c0 145 89 239 217 239c44 0 78 -15 106 -37
c-14 59 -38 110 -71 141zM385 295c0 9 0 19 -1 28c-30 35 -69 63 -122 63c-63 0 -110 -61 -110 -154c0 -108 55 -162 117 -162c94 0 116 114 116 225z" />
    <glyph glyph-name="divide" unicode="&#xf7;" horiz-adv-x="443" 
d="M56 192v72h331v-72h-331zM161 44c0 33 26 60 60 60c33 0 60 -27 60 -60c0 -34 -27 -60 -60 -60s-60 26 -60 60zM161 411c0 33 26 60 60 60c33 0 60 -27 60 -60c0 -34 -27 -60 -60 -60s-60 26 -60 60z" />
    <glyph glyph-name="thorn" unicode="&#xfe;" horiz-adv-x="525" 
d="M73 647l102 15v-239c34 30 76 48 123 48c120 0 181 -107 181 -235c0 -136 -67 -251 -194 -251c-52 0 -83 16 -110 40v-214h-102v836zM273 386c-43 0 -73 -18 -98 -48v-232c20 -22 48 -36 87 -36c78 0 110 79 110 167c0 80 -32 149 -99 149z" />
    <glyph glyph-name="dagger" unicode="&#x2020;" horiz-adv-x="470" 
d="M180 616h102v-204h157v-89h-157v-431h-102v431h-149v89h149v204z" />
    <glyph glyph-name="daggerdbl" unicode="&#x2021;" horiz-adv-x="516" 
d="M203 616h102v-201h157v-89h-157v-153h157v-89h-157v-192h-102v192h-149v89h149v153h-149v89h149v201z" />
    <glyph glyph-name="bullet" unicode="&#x2022;" horiz-adv-x="384" 
d="M84 245c0 74 48 109 108 109s109 -35 109 -109c0 -71 -49 -108 -109 -108c-63 0 -108 37 -108 108z" />
    <glyph glyph-name="trademark" unicode="&#x2122;" horiz-adv-x="741" 
d="M324 616v-69h-93v-257h-73v257h-94v69h260zM536 290h-56l-54 122v-122h-73v326h66l90 -206l89 206h65v-326h-73v124z" />
    <glyph glyph-name="notequal" unicode="&#x2260;" horiz-adv-x="561" 
d="M79 285v88h211l31 72h95l-31 -72h97v-88h-134l-43 -102h177v-88h-215l-31 -74h-95l31 74h-93v88h131l43 102h-174z" />
    <glyph glyph-name="infinity" unicode="&#x221e;" horiz-adv-x="748" 
d="M229 444c76 0 109 -46 143 -84c45 56 89 84 146 84c99 0 167 -69 167 -168c0 -98 -68 -166 -167 -166c-56 0 -99 27 -145 84c-45 -60 -84 -84 -142 -84c-100 0 -168 68 -168 166c0 99 68 168 166 168zM523 352c-34 0 -66 -41 -91 -74c36 -54 61 -77 89 -77
c40 0 68 31 68 75c0 45 -27 76 -66 76zM225 201c29 0 55 26 87 77c-34 47 -60 74 -89 74c-39 0 -66 -31 -66 -76c0 -44 28 -75 68 -75z" />
    <glyph glyph-name="lessequal" unicode="&#x2264;" horiz-adv-x="489" 
d="M411 239v-94l-345 157v67l345 159v-94l-224 -99zM64 26v78h345v-78h-345z" />
    <glyph glyph-name="greaterequal" unicode="&#x2265;" horiz-adv-x="489" 
d="M78 145v94l224 96l-224 99v94l345 -159v-67zM425 104v-78h-345v78h345z" />
    <glyph glyph-name="partialdiff" unicode="&#x2202;" horiz-adv-x="542" 
d="M99 581l-32 74c57 23 104 35 158 35c167 0 267 -193 267 -390c0 -154 -45 -317 -223 -317c-125 0 -224 84 -224 249c0 145 89 240 217 240c44 0 79 -16 107 -39c-24 97 -73 172 -143 172c-40 0 -84 -5 -127 -24zM386 295c0 9 0 18 -1 28c-30 35 -70 64 -123 64
c-63 0 -110 -62 -110 -155c0 -108 55 -163 117 -163c94 0 117 115 117 226z" />
    <glyph glyph-name="summation" unicode="&#x2211;" horiz-adv-x="564" 
d="M44 553v63h467v-87h-340l173 -302l-177 -328h355v-88h-478v66l189 349z" />
    <glyph glyph-name="product" unicode="&#x220f;" horiz-adv-x="652" 
d="M603 616v-88h-68v-716h-103v716h-212v-716h-102v716h-70v88h555z" />
    <glyph glyph-name="pi" unicode="&#x3c0;" horiz-adv-x="601" 
d="M565 500v-88h-68v-412h-103v412h-187v-412h-102v412h-70v88h530z" />
    <glyph glyph-name="integral" unicode="&#x222b;" horiz-adv-x="374" 
d="M238 407v-367c0 -114 -64 -198 -203 -225l-17 91c83 18 119 68 119 134v367c0 113 63 197 202 225l17 -91c-82 -18 -118 -68 -118 -134z" />
    <glyph glyph-name="Omega" unicode="&#x2126;" horiz-adv-x="699" 
d="M67 0v88h139v78c-97 45 -146 103 -146 211c0 137 127 254 289 254s290 -117 290 -254c0 -109 -47 -169 -149 -213v-76h141v-88h-242v206c101 39 144 84 144 171c0 88 -76 167 -184 167s-184 -79 -184 -167c0 -85 48 -130 143 -170v-207h-241z" />
    <glyph glyph-name="radical" unicode="&#x221a;" horiz-adv-x="583" 
d="M269 0h-107l-60 212h-67v88h140l43 -153l130 469h211v-87h-138z" />
    <glyph glyph-name="florin" unicode="&#x192;" horiz-adv-x="572" 
d="M132 369v88h91l4 40c13 127 88 189 174 189c66 0 118 -21 162 -62l-48 -63c-34 25 -63 39 -96 39c-40 0 -83 -38 -91 -111l-4 -32h96v-88h-105l-38 -367c-13 -126 -84 -193 -177 -193c-67 0 -113 21 -153 61l47 65c34 -27 59 -40 95 -40c42 0 79 42 87 116l37 358h-81z
" />
    <glyph glyph-name="approxequal" unicode="&#x2248;" horiz-adv-x="564" 
d="M207 458c62 0 95 -65 148 -65c31 0 64 22 89 70l53 -53c-38 -76 -86 -111 -140 -111c-78 0 -100 63 -157 63c-25 0 -55 -14 -82 -62l-53 53c49 80 94 105 142 105zM207 258c62 0 95 -65 148 -65c31 0 64 22 89 70l53 -53c-38 -76 -86 -111 -140 -111
c-78 0 -100 63 -157 63c-25 0 -55 -14 -82 -62l-53 53c49 80 94 105 142 105z" />
    <glyph glyph-name="Delta" unicode="&#x2206;" horiz-adv-x="605" 
d="M474 85l-175 405l-170 -405h345zM27 -1v68l233 549h77l242 -548v-69h-552z" />
    <glyph glyph-name="endash" unicode="&#x2013;" horiz-adv-x="552" 
d="M66 266v87h420v-87h-420z" />
    <glyph glyph-name="emdash" unicode="&#x2014;" horiz-adv-x="903" 
d="M66 193v87h771v-87h-771z" />
    <glyph glyph-name="lozenge" unicode="&#x25ca;" horiz-adv-x="537" 
d="M397 307l-128 169l-128 -167l130 -170zM269 632l241 -325l-240 -325l-243 326z" />
    <glyph glyph-name="fraction" unicode="&#x2044;" horiz-adv-x="126" 
d="M-154 16l367 617l68 -40l-369 -618z" />
    <glyph glyph-name="Euro" unicode="&#x20ac;" horiz-adv-x="704" 
d="M464 413l-25 -71h-392l25 71h83c40 139 153 218 291 218c91 0 161 -26 208 -67l-44 -73c-36 30 -85 52 -159 52c-92 0 -153 -54 -182 -130h195zM420 282l-25 -71h-130c27 -82 91 -137 188 -137c72 0 120 19 154 52l44 -73c-46 -42 -114 -68 -203 -68
c-160 0 -260 91 -295 226h-111l25 71h353z" />
    <glyph glyph-name="guilsinglleft" unicode="&#x2039;" horiz-adv-x="291" 
d="M46 220v28l107 197l89 -37l-96 -175l97 -176l-86 -39z" />
    <glyph glyph-name="guilsinglright" unicode="&#x203a;" horiz-adv-x="291" 
d="M245 248v-28l-111 -202l-86 39l97 176l-96 175l89 37z" />
    <glyph glyph-name="quotesinglbase" unicode="&#x201a;" horiz-adv-x="256" 
d="M105 -135l-32 34c35 29 52 52 59 86c-1 -1 -3 -1 -5 -1c-38 0 -69 32 -69 70c0 39 31 70 69 70c42 0 70 -40 70 -95c0 -60 -35 -122 -92 -164z" />
    <glyph glyph-name="quotedblbase" unicode="&#x201e;" horiz-adv-x="443" 
d="M105 -135l-32 34c36 29 52 52 60 86c-2 -1 -4 -1 -5 -1c-39 0 -70 32 -70 70c0 39 31 70 70 70c42 0 70 -40 70 -95c-1 -60 -35 -122 -93 -164zM292 -135l-32 34c35 29 52 52 59 86c-1 -1 -3 -1 -5 -1c-38 0 -69 32 -69 70c0 39 31 70 69 70c42 0 70 -40 70 -95
c0 -60 -35 -122 -92 -164z" />
    <glyph glyph-name="perthousand" unicode="&#x2030;" horiz-adv-x="1148" 
d="M162 12l392 647l78 -50l-391 -648zM179 297c-84 0 -145 65 -145 167c0 101 59 167 145 167s145 -66 145 -167c0 -102 -59 -167 -145 -167zM179 366c33 0 57 38 57 98c0 59 -24 98 -57 98c-34 0 -58 -38 -58 -98s24 -98 58 -98zM615 -15c-84 0 -145 65 -145 167
c0 101 59 167 145 167s145 -66 145 -167c0 -102 -59 -167 -145 -167zM615 54c33 0 57 38 57 98c0 59 -24 98 -57 98c-34 0 -58 -38 -58 -98s24 -98 58 -98zM970 -15c-84 0 -145 65 -145 167c0 101 59 167 145 167s145 -66 145 -167c0 -102 -59 -167 -145 -167zM970 54
c33 0 57 38 57 98c0 59 -24 98 -57 98c-34 0 -58 -38 -58 -98s24 -98 58 -98z" />
    <glyph glyph-name="apple" unicode="&#xf8ff;" horiz-adv-x="692" 
d="M54 288c0 159 129 288 288 288s288 -129 288 -288s-129 -288 -288 -288s-288 129 -288 288zM274 115h131l1 6l-49 10v189h27c39 0 54 -30 54 -60c0 -28 -9 -59 -46 -59h-14v-7h18c42 0 72 26 72 71s-32 63 -77 63h-34v75l102 -5l17 -54l11 2l-5 73h-282l-6 -73l11 -2
l18 54l102 5v-272l-49 -10z" />
    <glyph glyph-name="estimated" unicode="&#x212e;" horiz-adv-x="777" 
d="M173 284v-169c64 -65 136 -93 223 -93c81 0 172 40 223 90h52c-64 -75 -161 -125 -276 -125c-197 0 -342 135 -342 322c0 182 144 322 342 322s342 -140 342 -322v-25h-564zM173 318h444v189c-65 64 -137 90 -221 90c-86 0 -158 -28 -223 -94v-185z" />
    <glyph glyph-name="minus" unicode="&#x2212;" horiz-adv-x="514" 
d="M72 273v88h370v-88h-370z" />
    <glyph glyph-name="c_t" horiz-adv-x="793" 
d="M45 229c0 119 66 222 189 239c-8 19 -12 40 -12 69c0 62 63 148 206 148c148 0 225 -64 225 -208v-20h89v-85h-89v-228c0 -48 17 -74 49 -74c18 0 30 4 55 17v-77c-33 -21 -65 -25 -88 -25c-78 0 -117 45 -117 131v256h-59v75l62 10l5 20c0 102 -37 138 -129 138
c-97 0 -135 -55 -135 -98c0 -11 2 -26 13 -48c52 -7 91 -27 120 -54l-43 -68c-27 23 -58 39 -104 39c-89 0 -130 -75 -130 -157s40 -159 127 -159c51 0 82 15 105 38l42 -67c-34 -34 -86 -56 -158 -56c-147 0 -223 115 -223 244z" />
    <glyph glyph-name="c_h" horiz-adv-x="1000" 
d="M45 229c0 113 59 211 170 236c-16 19 -23 41 -23 64c0 96 154 146 360 174l102 10v-292c38 30 82 50 135 50c76 0 142 -36 142 -147v-324h-101v310c0 53 -29 75 -66 75c-39 0 -79 -21 -110 -54v-331h-102v614c-129 -15 -272 -58 -272 -106c0 -16 10 -28 27 -39
c53 -6 93 -26 122 -54l-43 -68c-27 23 -58 39 -104 39c-89 0 -130 -75 -130 -157s40 -159 127 -159c51 0 82 15 105 38l42 -67c-34 -34 -86 -56 -158 -56c-147 0 -223 115 -223 244z" />
    <glyph glyph-name="s_h" horiz-adv-x="962" 
d="M366 440l-16 -78c-50 23 -89 30 -116 30c-30 0 -62 -10 -62 -43c0 -54 215 -99 215 -230c0 -84 -73 -134 -175 -134c-69 0 -125 25 -178 53l29 81c52 -34 93 -49 140 -49c37 0 71 18 71 45c0 69 -214 99 -214 231c0 76 51 112 114 122c-14 19 -20 39 -20 61
c0 95 153 146 360 174l102 10v-292c38 30 82 50 135 50c76 0 142 -36 142 -147v-324h-101v310c0 53 -29 75 -66 75c-39 0 -79 -21 -110 -54v-331h-102v614c-129 -16 -272 -60 -272 -107c0 -16 11 -29 27 -40c31 -5 61 -14 97 -27z" />
    <glyph glyph-name="c_k" horiz-adv-x="971" 
d="M45 229c0 113 59 211 170 236c-16 19 -23 41 -23 64c0 96 153 146 360 174l102 10v-416h43l126 160h119l-160 -200l168 -257h-118l-134 210h-44v-210h-102v614c-129 -15 -272 -58 -272 -106c0 -16 10 -28 27 -39c53 -6 93 -26 122 -54l-43 -68c-27 23 -58 39 -104 39
c-89 0 -130 -75 -130 -157s40 -159 127 -159c51 0 82 15 105 38l42 -67c-34 -34 -86 -56 -158 -56c-147 0 -223 115 -223 244z" />
    <glyph glyph-name="s_k" horiz-adv-x="933" 
d="M785 457h119l-160 -200l168 -257h-118l-134 210h-44v-210h-102v614c-129 -16 -272 -60 -272 -107c0 -16 11 -29 27 -40c31 -5 61 -14 97 -27l-16 -78c-50 23 -89 30 -116 30c-30 0 -62 -10 -62 -43c0 -54 215 -99 215 -230c0 -84 -73 -134 -175 -134
c-67 0 -125 18 -178 53l29 81c52 -34 93 -49 140 -49c37 0 71 18 71 45c0 69 -214 99 -214 231c0 76 51 112 113 122c-13 18 -19 38 -19 60c0 95 153 148 359 175l103 10v-416h43z" />
    <glyph glyph-name="s_l" horiz-adv-x="690" 
d="M366 440l-16 -78c-50 23 -89 30 -116 30c-30 0 -62 -10 -62 -43c0 -54 215 -99 215 -230c0 -84 -73 -134 -175 -134c-66 0 -115 22 -178 53l29 81c52 -34 93 -49 140 -49c37 0 71 18 71 45c0 69 -214 99 -214 231c0 76 51 112 113 122c-13 18 -19 38 -19 60
c0 95 153 148 359 175l103 10v-713h-102v614c-129 -16 -272 -60 -272 -107c0 -16 11 -29 27 -40c31 -5 61 -14 97 -27z" />
    <glyph glyph-name="c_l" horiz-adv-x="728" 
d="M45 229c0 113 59 211 170 236c-16 19 -23 41 -23 64c0 96 154 146 360 174l102 10v-713h-102v614c-129 -15 -272 -58 -272 -106c0 -16 10 -28 27 -39c53 -6 93 -26 122 -54l-43 -68c-27 23 -58 39 -104 39c-89 0 -130 -75 -130 -157s40 -159 127 -159c51 0 82 15 105 38
l42 -67c-34 -34 -86 -56 -158 -56c-147 0 -223 115 -223 244z" />
    <glyph glyph-name="f_h" horiz-adv-x="814" 
d="M745 0h-102v310c0 53 -29 75 -66 75c-39 0 -79 -22 -110 -55v-330h-101v580h-57c-89 0 -110 -43 -110 -109v-21h89v-85h-89v-365h-102v365h-58v65l58 16v20c0 116 43 198 212 198h158v-243c38 31 83 50 136 50c76 0 142 -36 142 -147v-324z" />
    <glyph glyph-name="a.smcp" horiz-adv-x="522" 
d="M26 0l181 483h106l185 -483h-106l-41 107h-179l-40 -107h-106zM260 343l-58 -155h118z" />
    <glyph glyph-name="b.smcp" horiz-adv-x="492" 
d="M77 483h171c116 0 159 -51 159 -122c0 -36 -14 -70 -36 -97c47 -26 75 -71 75 -125c0 -79 -66 -139 -184 -139h-185v483zM334 147c0 35 -18 62 -66 65h-6h-2h-81v-132h80c48 0 75 26 75 67zM246 403h-67v-111h77h4c23 2 35 27 35 53c0 31 -16 58 -49 58z" />
    <glyph glyph-name="c.smcp" horiz-adv-x="524" 
d="M484 440l-43 -65c-28 24 -68 39 -126 39c-97 0 -151 -77 -151 -174s52 -172 149 -172c58 0 99 15 127 40l42 -65c-40 -34 -99 -55 -174 -55c-176 0 -257 115 -257 252c0 142 93 255 259 255c75 0 134 -21 174 -55z" />
    <glyph glyph-name="d.smcp" horiz-adv-x="554" 
d="M179 403v-323h43c92 0 171 47 171 155c0 118 -79 168 -171 168h-43zM77 0v483h150c159 0 278 -79 278 -248c0 -161 -119 -235 -278 -235h-150z" />
    <glyph glyph-name="e.smcp" horiz-adv-x="438" 
d="M383 483v-80h-204v-115h161v-80h-161v-128h214v-80h-316v483h306z" />
    <glyph glyph-name="f.smcp" horiz-adv-x="422" 
d="M383 483v-80h-204v-115h161v-80h-161v-208h-102v483h306z" />
    <glyph glyph-name="g.smcp" horiz-adv-x="545" 
d="M385 238h101v-202c-40 -30 -99 -48 -174 -48c-160 0 -264 101 -264 252c0 142 98 255 270 255c73 0 130 -21 169 -55l-42 -65c-29 24 -69 39 -127 39c-101 0 -158 -77 -158 -174s58 -172 162 -172c24 0 45 3 63 8v162z" />
    <glyph glyph-name="h.smcp" horiz-adv-x="562" 
d="M383 483h102v-483h-102v211h-204v-211h-102v483h102v-192h204v192z" />
    <glyph glyph-name="i.smcp" horiz-adv-x="256" 
d="M77 483h102v-483h-102v483z" />
    <glyph glyph-name="j.smcp" horiz-adv-x="257" 
d="M78 483h102v-437c0 -112 -32 -163 -174 -193l-23 76c75 16 95 44 95 114v440z" />
    <glyph glyph-name="k.smcp" horiz-adv-x="500" 
d="M475 0h-119l-137 205h-40v-205h-102v483h102v-198h36l139 198h117l-166 -234z" />
    <glyph glyph-name="l.smcp" horiz-adv-x="418" 
d="M386 80v-80h-309v483h102v-403h207z" />
    <glyph glyph-name="m.smcp" horiz-adv-x="690" 
d="M500 483h101l21 -483h-102l-13 285l-126 -285h-72l-127 283l-12 -283h-102l21 483h105l153 -350z" />
    <glyph glyph-name="n.smcp" horiz-adv-x="572" 
d="M394 483h101v-483h-87l-229 308v-308h-102v483h88l229 -315v315z" />
    <glyph glyph-name="o.smcp" horiz-adv-x="594" 
d="M306 68c79 0 128 79 128 171c0 100 -48 176 -133 176c-91 0 -141 -72 -141 -167c0 -103 52 -180 146 -180zM306 -12c-166 0 -258 106 -258 260c0 139 92 247 253 247c155 0 245 -111 245 -256c0 -143 -88 -251 -240 -251z" />
    <glyph glyph-name="p.smcp" horiz-adv-x="457" 
d="M77 483h137c143 0 206 -63 206 -155c0 -89 -66 -158 -184 -158h-57v-170h-102v483zM219 403h-40v-152h49c53 0 81 31 81 76s-24 76 -90 76z" />
    <glyph glyph-name="q.smcp" horiz-adv-x="594" 
d="M546 239c0 -104 -46 -189 -129 -228c79 -48 157 -79 242 -49l17 -79c-160 -52 -263 31 -395 106c-148 11 -233 115 -233 259c0 139 92 247 253 247c155 0 245 -111 245 -256zM306 68c78 0 128 78 128 171c0 100 -48 175 -133 175c-91 0 -141 -71 -141 -166
c0 -103 52 -180 146 -180z" />
    <glyph glyph-name="r.smcp" horiz-adv-x="488" 
d="M458 0h-114l-98 176h-9h-58v-176h-102v483h143c138 0 201 -62 201 -152c0 -56 -27 -104 -78 -131zM225 403h-46v-146h49c54 0 81 30 81 73s-20 73 -84 73z" />
    <glyph glyph-name="s.smcp" horiz-adv-x="434" 
d="M46 33l30 76c48 -24 98 -41 134 -41c40 0 65 14 65 52c0 93 -221 79 -221 244c0 50 33 131 163 131c54 0 94 -10 151 -34l-23 -76c-53 21 -90 30 -120 30c-56 0 -64 -31 -64 -48c0 -87 230 -82 230 -245c1 -92 -80 -133 -178 -133c-69 0 -111 19 -167 44z" />
    <glyph glyph-name="t.smcp" horiz-adv-x="439" 
d="M408 483v-80h-137v-403h-101v403h-139v80h377z" />
    <glyph glyph-name="u.smcp" horiz-adv-x="561" 
d="M73 483h102v-306c0 -60 20 -109 104 -109c87 0 108 49 108 109v306h101v-306c0 -98 -41 -189 -209 -189c-161 0 -206 89 -206 189v306z" />
    <glyph glyph-name="v.smcp" horiz-adv-x="519" 
d="M311 0h-107l-177 483h107l124 -368l133 368h106l-187 -482z" />
    <glyph glyph-name="w.smcp" horiz-adv-x="809" 
d="M278 0h-92l-159 483h107l109 -351l123 351h76l127 -345l106 345h106l-158 -483h-94l-127 326z" />
    <glyph glyph-name="x.smcp" horiz-adv-x="492" 
d="M137 0h-113l165 247l-156 236h114l99 -150l101 150h112l-157 -235l165 -248h-113l-109 163z" />
    <glyph glyph-name="y.smcp" horiz-adv-x="463" 
d="M283 197v-197h-102v199l-159 284h108l102 -188l98 188h107z" />
    <glyph glyph-name="z.smcp" horiz-adv-x="459" 
d="M282 403h-224v80h345v-80l-234 -323h241v-80h-364v80z" />
    <glyph glyph-name="caron.smcp" horiz-adv-x="329" 
d="M146 528l-122 110l50 55l88 -80l83 78l50 -55l-118 -108h-31z" />
    <glyph glyph-name="breve.smcp" horiz-adv-x="329" 
d="M4 689l67 17c7 -43 44 -88 89 -88c46 0 82 41 96 89l62 -19c-17 -85 -71 -151 -159 -151c-91 0 -148 74 -155 152z" />
    <glyph glyph-name="dotaccent.smcp" horiz-adv-x="190" 
d="M30 622c0 39 31 70 70 70c38 0 69 -31 69 -70c0 -38 -31 -69 -69 -69c-40 0 -70 30 -70 69z" />
    <glyph glyph-name="ring.smcp" horiz-adv-x="250" 
d="M27 640c0 55 40 96 99 96c61 0 101 -41 101 -96c0 -56 -40 -97 -101 -97c-59 0 -99 41 -99 97zM126 591c24 0 43 12 43 49c0 38 -20 52 -43 52c-21 0 -40 -17 -40 -52c0 -38 19 -49 40 -49z" />
    <glyph glyph-name="tilde.smcp" horiz-adv-x="314" 
d="M213 543c-53 0 -71 43 -108 43c-18 0 -40 -10 -60 -47l-49 54c37 64 69 84 108 84c42 0 67 -45 106 -45c20 0 44 18 60 55l50 -53c-29 -62 -63 -91 -107 -91z" />
    <glyph glyph-name="hungarumlaut.smcp" horiz-adv-x="235" 
d="M59 519l-74 36l83 175l80 -41zM214 519l-74 36l82 175l81 -41z" />
    <glyph glyph-name="grave.smcp" horiz-adv-x="235" 
d="M235 594l-39 -77l-196 92l41 85z" />
    <glyph glyph-name="dieresis.smcp" horiz-adv-x="362" 
d="M15 612c0 37 31 69 70 69c38 0 69 -31 69 -69c0 -39 -31 -70 -69 -70c-39 0 -70 30 -70 70zM209 612c0 37 31 69 70 69c38 0 69 -31 69 -69c0 -39 -31 -70 -69 -70c-39 0 -70 30 -70 70z" />
    <glyph glyph-name="macron.smcp" horiz-adv-x="273" 
d="M23 557v84h229v-84h-229z" />
    <glyph glyph-name="acute.smcp" horiz-adv-x="235" 
d="M40 525l-38 77l193 100l41 -85z" />
    <glyph glyph-name="circumflex.smcp" horiz-adv-x="329" 
d="M175 693l120 -110l-50 -57l-87 81l-82 -81l-50 56l118 111h31z" />
    <glyph glyph-name="germandbls.smcp" horiz-adv-x="868" 
d="M46 33l30 76c48 -24 98 -41 134 -41c40 0 65 14 65 52c0 93 -221 79 -221 244c0 50 33 131 163 131c54 0 94 -10 151 -34l-23 -76c-53 21 -90 30 -120 30c-56 0 -64 -31 -64 -48c0 -87 230 -82 230 -245c1 -92 -80 -133 -178 -133c-69 0 -111 19 -167 44zM480 33l30 76
c48 -24 98 -41 134 -41c40 0 65 14 65 52c0 93 -221 79 -221 244c0 50 33 131 163 131c54 0 94 -10 151 -34l-23 -76c-53 21 -90 30 -120 30c-56 0 -64 -31 -64 -48c0 -87 230 -82 230 -245c1 -92 -80 -133 -178 -133c-69 0 -111 19 -167 44z" />
    <glyph glyph-name="ae.smcp" horiz-adv-x="675" 
d="M303 483h316v-79h-203v-116h162v-80h-162v-128h214v-80h-316v104h-134l-63 -104h-106zM226 180h88v145z" />
    <glyph glyph-name="s_t" unicode="&#xfb06;" horiz-adv-x="755" 
d="M522 477c0 102 -37 138 -129 138c-97 0 -135 -51 -135 -92c0 -13 2 -29 17 -57c29 -5 57 -14 91 -26l-16 -78c-50 23 -89 30 -116 30c-30 0 -62 -10 -62 -43c0 -54 215 -99 215 -230c0 -84 -73 -134 -175 -134c-68 0 -116 19 -178 53l29 81c52 -34 93 -49 140 -49
c37 0 71 18 71 45c0 69 -214 99 -214 231c0 87 66 121 140 124c-10 20 -16 42 -16 71c0 61 63 144 206 144c148 0 225 -64 225 -208v-20h89v-85h-89v-228c0 -48 17 -74 49 -74c18 0 30 4 55 17v-77c-33 -21 -65 -25 -88 -25c-80 0 -117 52 -117 131v256h-59v75l62 10z" />
    <glyph glyph-name="thorn.smcp" horiz-adv-x="457" 
d="M77 483h102v-82h35c143 0 206 -63 206 -155c0 -89 -66 -157 -184 -157h-57v-89h-102v483zM219 320h-40v-151h49c53 0 80 31 80 76c0 44 -23 75 -89 75z" />
    <glyph glyph-name="one.onum" horiz-adv-x="423" 
d="M91 275l-52 68l142 121l1 -2v1h101v-378h104v-85h-308v85h103v267z" />
    <glyph glyph-name="two.onum" horiz-adv-x="488" 
d="M96 326l-46 63c47 50 100 82 185 82c144 0 188 -88 187 -143c0 -117 -187 -158 -233 -243h245v-85h-377v26c0 168 245 207 245 292c0 23 -17 68 -82 68c-57 0 -85 -21 -124 -60z" />
    <glyph glyph-name="three.onum" horiz-adv-x="486" 
d="M99 352l-41 62c34 31 82 57 168 57c155 0 186 -102 186 -165c0 -47 -23 -103 -75 -141c64 -38 103 -97 103 -154c1 -68 -38 -186 -212 -186c-89 0 -138 21 -198 71l43 67c43 -33 80 -53 151 -53c87 0 110 66 109 106c0 50 -47 102 -145 105h-7h-15v85h15
c94 0 124 53 124 97c0 32 -14 83 -86 83c-54 0 -95 -14 -120 -34z" />
    <glyph glyph-name="four.onum" horiz-adv-x="506" 
d="M281 457h102v-416h84v-86h-84v-144h-102v144h-253v86zM131 41h150v246z" />
    <glyph glyph-name="five.onum" horiz-adv-x="489" 
d="M126 119h-60l38 336h311v-85h-227l-18 -151c28 15 58 24 92 24c115 0 179 -92 179 -200c0 -142 -82 -219 -201 -219c-102 0 -147 29 -201 80l46 64c41 -43 87 -59 138 -59c64 0 111 46 111 135c0 62 -36 114 -97 114c-34 0 -63 -6 -111 -39z" />
    <glyph glyph-name="six.onum" horiz-adv-x="532" 
d="M470 596l-33 -73c-27 12 -67 23 -110 23c-71 0 -137 -63 -157 -186c36 23 78 38 121 38c108 0 187 -60 187 -195c0 -134 -83 -218 -199 -218c-142 0 -223 131 -223 290c0 231 129 356 271 356c60 0 111 -18 143 -35zM291 313c-45 0 -91 -19 -128 -46
c2 -113 47 -197 115 -197c57 0 93 47 93 128c0 82 -33 115 -80 115z" />
    <glyph glyph-name="seven.onum" horiz-adv-x="445" 
d="M174 -188h-124l258 560h-269v85h392v-30z" />
    <glyph glyph-name="eight.onum" horiz-adv-x="519" 
d="M256 -15c-110 0 -203 55 -203 151c0 83 50 141 119 184c-63 52 -87 101 -87 156c0 100 84 155 180 155c93 0 177 -56 177 -151c0 -73 -45 -128 -102 -168c84 -65 125 -116 125 -185c0 -82 -88 -142 -209 -142zM363 143c0 39 -48 74 -110 118c-52 -28 -97 -63 -97 -115
c0 -48 51 -76 99 -76c58 0 108 32 108 73zM188 478c0 -39 23 -68 72 -107c38 23 79 52 79 105c0 35 -25 70 -73 70c-45 0 -78 -31 -78 -68z" />
    <glyph glyph-name="nine.onum" horiz-adv-x="519" 
d="M62 -148l33 73c28 -12 70 -23 115 -23c64 0 127 68 147 194c-37 -23 -79 -38 -122 -38c-108 0 -187 60 -187 195c0 134 87 218 209 218s213 -121 213 -290c0 -234 -129 -364 -265 -364c-60 0 -111 17 -143 35zM235 143c44 0 90 18 128 45c-2 113 -44 198 -105 198
c-63 0 -103 -47 -103 -128c0 -82 33 -115 80 -115z" />
    <glyph glyph-name="zero.onum" horiz-adv-x="565" 
d="M55 226c0 134 64 245 227 245c162 0 228 -110 228 -245c0 -132 -66 -241 -228 -241c-158 0 -227 105 -227 241zM161 226c0 -83 36 -156 121 -156s122 73 122 156c0 88 -38 160 -122 160c-85 0 -121 -72 -121 -160z" />
    <glyph glyph-name="zero.numr" horiz-adv-x="351" 
d="M174 363c37 0 51 42 51 99c0 52 -14 99 -51 99s-49 -47 -49 -99c0 -56 12 -99 49 -99zM174 297c-106 0 -139 71 -139 165c0 91 32 165 139 165s142 -74 142 -165c0 -95 -35 -165 -142 -165z" />
    <glyph glyph-name="zero.subs" horiz-adv-x="351" 
d="M174 -62c37 0 51 42 51 99c0 52 -14 99 -51 99s-49 -47 -49 -99c0 -56 12 -99 49 -99zM174 -128c-106 0 -139 71 -139 165c0 91 32 165 139 165s142 -74 142 -165c0 -95 -35 -165 -142 -165z" />
    <glyph glyph-name="one.numr" horiz-adv-x="281" 
d="M65 501l-42 51l86 67l1 -1v1h87v-249h57v-65h-198v65h54v165z" />
    <glyph glyph-name="one.subs" horiz-adv-x="283" 
d="M66 76l-42 51l86 67l1 -1v1h87v-249h57v-65h-198v65h54v165z" />
    <glyph glyph-name="two.numr" horiz-adv-x="313" 
d="M66 534l-36 49c29 26 64 44 118 44c99 0 129 -56 128 -89c0 -91 -99 -100 -133 -168h132v-65h-237v17c0 132 142 161 142 210c0 11 -4 29 -41 29c-20 0 -49 -9 -73 -27z" />
    <glyph glyph-name="two.subs" horiz-adv-x="313" 
d="M66 109l-36 49c29 26 64 44 118 44c99 0 129 -56 128 -89c0 -91 -99 -100 -133 -168h132v-65h-237v17c0 132 142 161 142 210c0 11 -4 29 -41 29c-20 0 -49 -9 -73 -27z" />
    <glyph glyph-name="three.numr" horiz-adv-x="310" 
d="M74 547l-35 47c21 18 48 33 100 33c102 0 122 -53 122 -85c0 -24 -12 -52 -38 -73c33 -21 54 -48 54 -75c1 -36 -23 -97 -132 -97c-55 0 -86 13 -119 36l36 51c23 -14 42 -21 81 -21c37 0 45 21 45 36c0 17 -23 35 -74 35h-8v65h8h6c38 2 51 19 51 34c0 11 -6 28 -40 28
c-27 0 -46 -6 -57 -14z" />
    <glyph glyph-name="three.subs" horiz-adv-x="309" 
d="M73 122l-35 47c21 18 48 33 100 33c102 0 122 -53 122 -85c0 -24 -12 -52 -38 -73c33 -21 54 -48 54 -75c1 -36 -23 -97 -132 -97c-55 0 -86 13 -119 36l36 51c23 -14 42 -21 81 -21c37 0 45 21 45 36c0 17 -23 35 -74 35h-8v65h8h6c38 2 51 19 51 34c0 11 -6 28 -40 28
c-27 0 -46 -6 -57 -14z" />
    <glyph glyph-name="four.numr" horiz-adv-x="328" 
d="M173 619h87v-195h34v-65h-34v-54h-87v54h-145v65zM115 424h58v77z" />
    <glyph glyph-name="four.subs" horiz-adv-x="328" 
d="M173 194h87v-195h34v-65h-34v-54h-87v54h-145v65zM115 -1h58v77z" />
    <glyph glyph-name="five.numr" horiz-adv-x="314" 
d="M89 433h-49l24 186h196v-65h-123l-6 -44c11 4 24 7 39 7c70 0 111 -48 111 -106c0 -74 -52 -114 -124 -114c-48 0 -94 11 -127 45l44 54c19 -19 40 -27 64 -27c27 0 49 15 49 43c0 22 -19 40 -44 40c-16 0 -30 -1 -54 -19z" />
    <glyph glyph-name="five.subs" horiz-adv-x="314" 
d="M89 8h-49l24 186h196v-65h-123l-6 -44c11 4 24 7 39 7c70 0 111 -48 111 -106c0 -74 -52 -114 -124 -114c-48 0 -94 11 -127 45l44 54c19 -19 40 -27 64 -27c27 0 49 15 49 43c0 22 -19 40 -44 40c-16 0 -30 -1 -54 -19z" />
    <glyph glyph-name="six.numr" horiz-adv-x="332" 
d="M288 607l-28 -55c-15 4 -38 9 -62 9c-27 0 -53 -19 -65 -58c14 6 29 9 45 9c70 0 122 -31 122 -101s-54 -114 -126 -114c-83 0 -140 64 -140 148c0 118 78 182 164 182c38 0 71 -11 90 -20zM178 447c-18 0 -36 -5 -53 -14c3 -40 23 -70 47 -70c22 0 38 15 38 43
c0 30 -16 41 -32 41z" />
    <glyph glyph-name="six.subs" horiz-adv-x="332" 
d="M288 182l-28 -55c-15 4 -38 9 -62 9c-27 0 -53 -19 -65 -58c14 6 29 9 45 9c70 0 122 -31 122 -101s-54 -114 -126 -114c-83 0 -140 64 -140 148c0 118 78 182 164 182c38 0 71 -11 90 -20zM178 22c-18 0 -36 -5 -53 -14c3 -40 23 -70 47 -70c22 0 38 15 38 43
c0 30 -16 41 -32 41z" />
    <glyph glyph-name="seven.numr" horiz-adv-x="286" 
d="M144 305h-110l122 249h-122v65h233v-15z" />
    <glyph glyph-name="seven.subs" horiz-adv-x="286" 
d="M144 -120h-110l122 249h-122v65h233v-15z" />
    <glyph glyph-name="eight.numr" horiz-adv-x="318" 
d="M159 297c-68 0 -125 28 -125 77c0 39 25 71 55 92c-33 27 -41 50 -41 77c0 54 51 84 114 84c59 0 109 -30 109 -82c0 -40 -24 -68 -49 -87c41 -31 62 -52 62 -86c0 -43 -53 -75 -125 -75zM196 384c0 11 -14 21 -40 38c-19 -9 -34 -25 -34 -38c0 -14 18 -21 37 -21
c14 0 37 6 37 21zM136 539c0 -10 5 -17 24 -33c12 9 24 20 24 35c0 14 -8 20 -23 20c-14 0 -25 -9 -25 -22z" />
    <glyph glyph-name="eight.subs" horiz-adv-x="318" 
d="M159 -128c-68 0 -125 28 -125 77c0 39 25 71 55 92c-33 27 -41 50 -41 77c0 54 51 84 114 84c59 0 109 -30 109 -82c0 -40 -24 -68 -49 -87c41 -31 62 -52 62 -86c0 -43 -53 -75 -125 -75zM196 -41c0 11 -14 21 -40 38c-19 -9 -34 -25 -34 -38c0 -14 18 -21 37 -21
c14 0 37 6 37 21zM136 114c0 -10 5 -17 24 -33c12 9 24 20 24 35c0 14 -8 20 -23 20c-14 0 -25 -9 -25 -22z" />
    <glyph glyph-name="nine.numr" horiz-adv-x="332" 
d="M44 317l29 55c15 -5 37 -9 62 -9c26 0 52 19 65 59c-15 -6 -30 -10 -46 -10c-69 0 -122 31 -122 101s54 114 127 114c83 0 139 -63 139 -148c0 -118 -77 -182 -163 -182c-38 0 -71 11 -91 20zM154 477c18 0 37 5 53 14c-3 40 -23 70 -47 70c-22 0 -37 -15 -37 -43
c0 -30 16 -41 31 -41z" />
    <glyph glyph-name="nine.subs" horiz-adv-x="332" 
d="M44 -108l29 55c15 -5 37 -9 62 -9c26 0 52 19 65 59c-15 -6 -30 -10 -46 -10c-69 0 -122 31 -122 101s54 114 127 114c83 0 139 -63 139 -148c0 -118 -77 -182 -163 -182c-38 0 -71 11 -91 20zM154 52c18 0 37 5 53 14c-3 40 -23 70 -47 70c-22 0 -37 -15 -37 -43
c0 -30 16 -41 31 -41z" />
    <glyph glyph-name="exclamdown.smcp" horiz-adv-x="275" 
d="M187 -148h-100l7 360h86zM76 332c0 32 27 57 61 57c35 0 63 -25 63 -57c0 -33 -28 -59 -63 -59c-34 0 -61 25 -61 59z" />
    <glyph glyph-name="cent.smcp" horiz-adv-x="417" 
d="M46 181c0 89 51 170 152 187v77h59v-75c50 -3 87 -20 115 -44l-41 -61c-22 17 -46 29 -82 29c-69 0 -99 -55 -99 -114c0 -58 30 -115 97 -115c40 0 65 11 82 29l41 -61c-27 -24 -63 -40 -113 -44v-78h-59v80c-102 17 -152 104 -152 190z" />
    <glyph glyph-name="ordfeminine.smcp" horiz-adv-x="322" 
d="M90 446l-19 38c24 16 58 28 96 28c48 0 87 -22 87 -86v-145h-64v23c-23 -18 -44 -28 -70 -28c-37 0 -64 19 -64 54c0 48 47 62 134 84v7c0 30 -19 41 -38 41c-22 0 -46 -6 -62 -16zM144 321c14 0 29 4 46 15v47c-45 -15 -67 -23 -67 -43c0 -12 9 -19 21 -19z" />
    <glyph glyph-name="questiondown.smcp" horiz-adv-x="363" 
d="M286 -23l49 -46c-41 -47 -95 -79 -156 -79c-90 0 -148 53 -148 117c0 122 140 107 128 254h85c12 -160 -114 -178 -114 -243c0 -26 20 -52 60 -52c34 0 66 18 96 49zM260 309c0 -29 -26 -53 -58 -53c-31 0 -57 25 -57 53c0 30 26 54 57 54c32 0 58 -24 58 -54z" />
    <glyph glyph-name="perthousand.smcp" horiz-adv-x="992" 
d="M146 13l326 507l76 -45l-326 -508zM160 233c-73 0 -126 51 -126 131c0 79 51 131 126 131s126 -52 126 -131c0 -80 -51 -131 -126 -131zM160 294c24 0 43 27 43 70c0 42 -18 70 -43 70s-43 -27 -43 -70s18 -70 43 -70zM533 -12c-73 0 -126 51 -126 131
c0 79 51 131 126 131s127 -52 127 -131c0 -80 -52 -131 -127 -131zM533 49c25 0 43 27 43 70c0 42 -18 70 -43 70s-43 -27 -43 -70s18 -70 43 -70zM834 -12c-73 0 -126 51 -126 131c0 79 51 131 126 131s127 -52 127 -131c0 -80 -52 -131 -127 -131zM834 49
c25 0 43 27 43 70c0 42 -18 70 -43 70s-43 -27 -43 -70s18 -70 43 -70z" />
    <glyph glyph-name="Euro.smcp" horiz-adv-x="601" 
d="M404 329l-24 -63h-335l24 63h64c36 109 134 166 245 166c75 0 134 -21 174 -55l-42 -65c-28 24 -68 40 -126 40c-68 0 -116 -35 -140 -86h160zM366 223l-24 -62h-102c23 -56 73 -93 145 -93c57 0 96 15 123 40l43 -65c-40 -34 -98 -55 -171 -55c-134 0 -218 68 -249 173
h-91l23 62h303z" />
    <glyph glyph-name="zero.pnum" horiz-adv-x="566" 
d="M281 70c93 0 119 103 119 238c0 130 -28 238 -119 238c-89 0 -115 -108 -115 -238c0 -136 26 -238 115 -238zM281 -15c-169 0 -222 137 -222 323c0 179 53 323 222 323c171 0 226 -144 226 -323c0 -186 -55 -323 -226 -323z" />
    <glyph glyph-name="one.pnum" horiz-adv-x="444" 
d="M81 422l-52 67l172 128l1 -2v1h101v-531h109v-85h-318v85h108v426z" />
    <glyph glyph-name="two.pnum" horiz-adv-x="516" 
d="M98 487l-46 62c49 50 106 82 195 82c158 0 206 -106 204 -170c-2 -183 -259 -222 -293 -376h305v-85h-411v34c0 249 289 275 291 425c0 30 -24 87 -111 87c-61 0 -93 -20 -134 -59z" />
    <glyph glyph-name="three.pnum" horiz-adv-x="506" 
d="M103 512l-41 62c34 31 82 57 168 57c163 0 195 -102 195 -165c0 -47 -23 -103 -78 -141c66 -38 106 -98 106 -154c1 -68 -39 -186 -221 -186c-95 0 -140 32 -198 71l43 67c43 -33 80 -53 151 -53c95 0 119 66 118 106c0 50 -50 102 -153 105h-8h-15v85h15
c102 0 133 53 133 97c0 32 -15 83 -95 83c-54 0 -95 -14 -120 -34z" />
    <glyph glyph-name="four.pnum" horiz-adv-x="541" 
d="M312 616h102v-393h80v-85h-80v-138h-102v138h-277v85zM138 223h174v245z" />
    <glyph glyph-name="five.pnum" horiz-adv-x="509" 
d="M129 280h-60l38 336h324v-85h-240l-18 -151c30 15 61 24 97 24c118 0 187 -92 187 -200c0 -142 -87 -219 -209 -219c-93 0 -155 27 -206 80l46 64c42 -43 90 -59 143 -59c67 0 119 46 119 135c0 62 -41 114 -105 114c-36 0 -66 -6 -116 -39z" />
    <glyph glyph-name="six.pnum" horiz-adv-x="538" 
d="M470 596l-33 -73c-27 12 -67 23 -110 23c-71 0 -137 -63 -157 -186c36 23 78 38 121 38c111 0 196 -60 196 -195c0 -134 -89 -218 -208 -218c-98 0 -223 80 -223 290c0 231 129 356 271 356c60 0 111 -18 143 -35zM291 313c-45 0 -91 -19 -128 -46
c2 -113 47 -197 115 -197c60 0 102 47 102 128c0 82 -39 115 -89 115z" />
    <glyph glyph-name="seven.pnum" horiz-adv-x="461" 
d="M192 0h-124l252 531h-280v85h403v-30z" />
    <glyph glyph-name="eight.pnum" horiz-adv-x="529" 
d="M261 -15c-115 0 -208 55 -208 151c0 82 48 140 122 183c-67 52 -90 101 -90 157c0 100 84 155 185 155c98 0 182 -56 182 -151c0 -73 -43 -128 -106 -168c90 -64 129 -116 129 -185c0 -82 -87 -142 -214 -142zM372 143c0 39 -47 74 -113 119c-58 -28 -103 -63 -103 -116
c0 -48 51 -76 104 -76c64 0 112 32 112 73zM188 478c0 -39 22 -68 75 -108c44 23 86 52 86 106c0 35 -23 70 -78 70c-51 0 -83 -31 -83 -68z" />
    <glyph glyph-name="nine.pnum" horiz-adv-x="538" 
d="M68 20l33 73c27 -12 67 -23 110 -23c71 0 136 63 157 186c-36 -23 -78 -38 -121 -38c-111 0 -196 60 -196 195c0 134 89 218 208 218c130 0 223 -120 223 -290c0 -231 -129 -356 -271 -356c-60 0 -111 18 -143 35zM247 303c44 0 90 18 128 45c-2 113 -48 198 -115 198
c-60 0 -102 -47 -102 -128c0 -82 39 -115 89 -115z" />
    <glyph glyph-name="zero.onum.pnum" horiz-adv-x="530" 
d="M55 226c0 134 59 245 209 245s211 -110 211 -245c0 -132 -61 -241 -211 -241c-148 0 -209 108 -209 241zM161 226c0 -83 31 -156 103 -156s105 73 105 156c0 88 -33 160 -105 160s-103 -72 -103 -160z" />
    <glyph glyph-name="one.onum.pnum" horiz-adv-x="438" 
d="M86 275l-50 69l160 120l1 -2v1h101v-378h104v-85h-308v85h103v273z" />
    <glyph glyph-name="two.onum.pnum" horiz-adv-x="488" 
d="M96 326l-46 63c47 50 100 82 185 82c144 0 188 -88 187 -143c0 -117 -187 -158 -233 -243h245v-85h-377v26c0 168 245 207 245 292c0 23 -17 68 -82 68c-57 0 -85 -21 -124 -60z" />
    <glyph glyph-name="three.onum.pnum" horiz-adv-x="480" 
d="M99 351l-42 62c33 31 79 57 161 57c157 0 188 -97 188 -156c0 -51 -23 -113 -76 -155c65 -38 104 -98 104 -156c1 -68 -38 -185 -214 -185c-91 0 -135 25 -191 69l44 67c41 -33 75 -51 143 -51c93 0 115 65 115 105c0 50 -46 102 -143 105h-7h-15v85h15
c93 0 121 60 121 106c0 32 -14 81 -91 81c-51 0 -89 -14 -112 -34z" />
    <glyph glyph-name="four.onum.pnum" horiz-adv-x="503" 
d="M278 457h102v-391h79v-86h-79v-169h-102v169h-248v86zM133 66h145v227z" />
    <glyph glyph-name="five.onum.pnum" horiz-adv-x="487" 
d="M125 115h-60l39 342h309v-85h-225l-18 -151c27 15 56 24 90 24c115 0 180 -93 180 -204c0 -144 -85 -222 -203 -222c-100 0 -144 28 -199 80l52 71c39 -43 81 -58 129 -58c65 0 114 45 114 130c0 61 -39 112 -99 112c-34 0 -62 -6 -109 -39z" />
    <glyph glyph-name="six.onum.pnum" horiz-adv-x="517" 
d="M460 596l-33 -73c-24 12 -60 23 -99 23c-72 0 -141 -63 -162 -187c35 24 75 39 116 39c100 0 178 -60 178 -195c0 -134 -86 -218 -200 -218c-129 0 -204 130 -204 290c0 231 130 356 272 356c56 0 103 -18 132 -35zM264 313c-36 0 -74 -17 -104 -43
c1 -115 47 -200 108 -200c50 0 88 47 88 128c0 82 -42 115 -92 115z" />
    <glyph glyph-name="seven.onum.pnum" horiz-adv-x="445" 
d="M174 -188h-124l258 560h-269v85h392v-30z" />
    <glyph glyph-name="eight.onum.pnum" horiz-adv-x="519" 
d="M256 -15c-110 0 -203 55 -203 151c0 83 50 141 119 184c-63 52 -87 101 -87 156c0 100 84 155 180 155c93 0 177 -56 177 -151c0 -73 -45 -128 -102 -168c84 -65 125 -116 125 -185c0 -82 -88 -142 -209 -142zM358 143c0 39 -43 74 -105 118c-52 -28 -93 -63 -93 -115
c0 -48 47 -76 95 -76c58 0 103 32 103 73zM192 478c0 -39 19 -68 68 -107c38 23 75 52 75 105c0 35 -21 70 -69 70c-45 0 -74 -31 -74 -68z" />
    <glyph glyph-name="nine.onum.pnum" horiz-adv-x="518" 
d="M63 -153l33 74c26 -10 62 -19 101 -19c72 0 141 67 162 195c-35 -24 -75 -39 -116 -39c-110 0 -196 60 -196 195c0 134 88 218 203 218c130 0 219 -124 219 -293c0 -234 -130 -361 -272 -361c-56 0 -94 13 -134 30zM243 143c43 0 86 18 122 46c-3 113 -50 197 -113 197
c-58 0 -101 -47 -101 -128c0 -82 43 -115 92 -115z" />
    <glyph glyph-name="uni0412" unicode="&#x412;" horiz-adv-x="563" 
d="M86 616h197c135 0 186 -63 186 -151c0 -48 -17 -94 -47 -128c60 -33 93 -90 93 -160c0 -100 -77 -177 -215 -177h-214v616zM400 184c0 53 -28 93 -106 94h-103v-189h106c66 0 103 39 103 95zM282 527h-91v-160h98c45 0 65 38 65 81s-22 79 -72 79z" />
    <glyph glyph-name="uni0413" unicode="&#x413;" horiz-adv-x="422" 
d="M86 616h307v-89h-202v-527h-105v616z" />
    <glyph glyph-name="uni0414" unicode="&#x414;" horiz-adv-x="612" 
d="M17 89h60c62 161 94 339 99 527h330v-527h56v-229h-89v140h-366v-140h-90v229zM272 527c-12 -158 -39 -308 -86 -438h215v438h-129z" />
    <glyph glyph-name="uni0415" unicode="&#x415;" horiz-adv-x="505" 
d="M447 616v-89h-256v-165h202v-89h-202v-184h270v-89h-375v616h361z" />
    <glyph glyph-name="uni0416" unicode="&#x416;" horiz-adv-x="857" 
d="M28 616h120l175 -260h54v260h105v-260h51l176 260h120l-202 -300l210 -316h-123l-175 267h-57v-267h-105v267h-59l-174 -267h-124l210 316z" />
    <glyph glyph-name="uni0417" unicode="&#x417;" horiz-adv-x="489" 
d="M28 50l45 69c40 -30 76 -45 143 -45c91 0 109 59 109 97c0 53 -47 105 -152 105h-15v89h15h7c91 2 119 58 119 102c0 30 -14 75 -89 75c-54 0 -92 -13 -116 -33l-44 66c34 31 81 56 168 56c163 0 195 -95 195 -154c0 -50 -23 -111 -78 -153c66 -38 106 -97 106 -153
c1 -68 -39 -186 -221 -186c-87 0 -136 22 -192 65z" />
    <glyph glyph-name="uni0419" unicode="&#x419;" horiz-adv-x="660" 
d="M86 616h105v-429l278 429h105v-616h-105v433l-278 -433h-105v616zM191 822l67 17c7 -43 44 -88 89 -88c46 0 82 41 96 89l62 -19c-17 -85 -71 -151 -159 -151c-94 0 -140 63 -155 152z" />
    <glyph glyph-name="uni041A" unicode="&#x41a;" horiz-adv-x="566" 
d="M546 0h-123l-175 267h-57v-267h-105v616h105v-260h51l176 260h120l-202 -301z" />
    <glyph glyph-name="uni041B" unicode="&#x41b;" horiz-adv-x="585" 
d="M160 616h339v-616h-105v527h-143l-38 -350c-11 -101 -54 -178 -201 -178v88c84 0 95 37 104 120z" />
    <glyph glyph-name="uni041C" unicode="&#x41c;" horiz-adv-x="794" 
d="M587 616h111l20 -616h-105l-13 406l-165 -406h-76l-165 402l-13 -402h-105l20 616h111l192 -474z" />
    <glyph glyph-name="uni041D" unicode="&#x41d;" horiz-adv-x="650" 
d="M459 616h105v-616h-105v277h-268v-277h-105v616h105v-250h268v250z" />
    <glyph glyph-name="uni041E" unicode="&#x41e;" horiz-adv-x="686" 
d="M354 74c103 0 166 105 166 231c0 135 -62 238 -172 238c-117 0 -182 -98 -182 -227c0 -138 67 -242 188 -242zM354 -15c-195 0 -303 136 -303 331c0 178 108 315 297 315c182 0 287 -141 287 -326c0 -182 -103 -320 -281 -320z" />
    <glyph glyph-name="uni041F" unicode="&#x41f;" horiz-adv-x="650" 
d="M86 616h478v-616h-105v527h-268v-527h-105v616z" />
    <glyph glyph-name="uni0420" unicode="&#x420;" horiz-adv-x="517" 
d="M86 616h154c170 0 241 -79 241 -194c0 -112 -77 -198 -215 -198h-75v-224h-105v616zM244 527h-53v-214h67c71 0 109 45 109 107s-32 107 -123 107z" />
    <glyph glyph-name="uni0421" unicode="&#x421;" horiz-adv-x="606" 
d="M566 564l-44 -73c-36 30 -85 51 -159 51c-125 0 -193 -106 -193 -236s66 -232 190 -232c74 0 124 19 159 52l44 -73c-47 -42 -117 -68 -208 -68c-205 0 -301 146 -301 321c0 180 108 325 304 325c91 0 161 -26 208 -67z" />
    <glyph glyph-name="uni0422" unicode="&#x422;" horiz-adv-x="509" 
d="M480 616v-89h-172v-527h-105v527h-174v89h451z" />
    <glyph glyph-name="uni0423" unicode="&#x423;" horiz-adv-x="529" 
d="M21 616h115l148 -317l133 317h113l-170 -388c-52 -119 -112 -206 -277 -248l-33 76c72 26 140 58 180 122z" />
    <glyph glyph-name="uni0424" unicode="&#x424;" horiz-adv-x="739" 
d="M31 305c0 125 115 209 287 223v88h105v-88c170 -15 285 -99 285 -223c0 -123 -115 -206 -285 -220v-85h-105v85c-172 13 -287 96 -287 220zM146 305c0 -71 69 -118 172 -130v263c-102 -12 -172 -60 -172 -133zM593 305c0 72 -69 120 -170 132v-262c100 12 170 58 170 130
z" />
    <glyph glyph-name="uni0425" unicode="&#x425;" horiz-adv-x="553" 
d="M137 0h-117l198 315l-187 301h118l128 -206l129 206h116l-187 -300l196 -316h-117l-138 222z" />
    <glyph glyph-name="uni0426" unicode="&#x426;" horiz-adv-x="670" 
d="M620 89v-229h-89v140h-445v616h105v-527h268v527h105v-527h56z" />
    <glyph glyph-name="uni0427" unicode="&#x427;" horiz-adv-x="561" 
d="M370 616h105v-616h-105v271c-48 -29 -99 -49 -157 -49c-105 0 -159 59 -159 182v212h105v-198c0 -82 29 -107 80 -107c41 0 89 20 131 49v256z" />
    <glyph glyph-name="uni0428" unicode="&#x428;" horiz-adv-x="914" 
d="M828 0h-742v616h105v-527h213v527h105v-527h214v527h105v-616z" />
    <glyph glyph-name="uni0429" unicode="&#x429;" horiz-adv-x="934" 
d="M828 616v-527h56v-229h-89v140h-709v616h105v-527h213v527h105v-527h214v527h105z" />
    <glyph glyph-name="uni042A" unicode="&#x42a;" horiz-adv-x="638" 
d="M29 616h282v-244h64c158 0 228 -78 228 -183c0 -110 -77 -189 -228 -189h-169v527h-177v89zM367 283h-56v-194h68c73 0 109 41 109 96c0 57 -32 98 -121 98z" />
    <glyph glyph-name="uni042B" unicode="&#x42b;" horiz-adv-x="783" 
d="M592 616h105v-616h-105v616zM86 616h105v-244h64c157 0 228 -78 228 -183c0 -110 -78 -189 -228 -189h-169v616zM246 283h-55v-194h67c74 0 110 41 110 96c0 57 -33 98 -122 98z" />
    <glyph glyph-name="uni042C" unicode="&#x42c;" horiz-adv-x="517" 
d="M86 616h105v-244h64c157 0 228 -78 228 -183c0 -110 -78 -189 -228 -189h-169v616zM246 283h-55v-194h67c74 0 110 41 110 96c0 57 -33 98 -122 98z" />
    <glyph glyph-name="uni042D" unicode="&#x42d;" horiz-adv-x="598" 
d="M80 491l-44 73c47 41 117 67 208 67c196 0 304 -145 304 -325s-107 -321 -301 -321c-87 0 -154 23 -208 68l44 73c35 -33 85 -52 159 -52c112 0 176 81 189 192h-244v89h242c-15 107 -81 188 -190 188c-74 0 -123 -22 -159 -52z" />
    <glyph glyph-name="uni042E" unicode="&#x42e;" horiz-adv-x="948" 
d="M616 -15c-178 0 -288 118 -302 292h-123v-277h-105v616h105v-250h125c18 153 123 265 294 265c182 0 287 -141 287 -326c0 -182 -103 -320 -281 -320zM616 74c105 0 166 104 166 231c0 135 -62 237 -172 237c-117 0 -182 -97 -182 -226c0 -138 67 -242 188 -242z" />
    <glyph glyph-name="uni042F" unicode="&#x42f;" horiz-adv-x="557" 
d="M149 0l-118 1l145 257c-67 33 -102 96 -102 170c0 111 70 188 232 188h165v-616h-105v235h-77h-10zM189 426c0 -60 37 -102 108 -102h69v203h-63c-87 0 -114 -43 -114 -101z" />
    <glyph glyph-name="uni0490" unicode="&#x490;" horiz-adv-x="441" 
d="M323 746h89v-219h-221v-527h-105v616h237v130z" />
    <glyph glyph-name="uni0406" unicode="&#x406;" horiz-adv-x="277" 
d="M86 616h105v-616h-105v616z" />
    <glyph glyph-name="uni0402" unicode="&#x402;" horiz-adv-x="647" 
d="M480 616v-89h-172v-148c37 12 77 21 124 21c115 0 172 -83 172 -199c0 -133 -37 -236 -149 -295l-45 65c67 39 89 118 89 220c0 67 -28 120 -82 120c-40 0 -76 -9 -109 -23v-288h-105v527h-174v89h451z" />
    <glyph glyph-name="uni0452" unicode="&#x452;" 
d="M18 501v62h55v84l101 15v-99h155v-62h-155v-121c38 31 83 50 136 50c76 0 142 -36 142 -147v-221c0 -145 -32 -207 -196 -246l-23 84c94 23 118 62 118 157v212c0 53 -29 76 -66 76c-39 0 -80 -22 -111 -55v-290h-101v501h-55z" />
    <glyph glyph-name="uni0403" unicode="&#x403;" horiz-adv-x="422" 
d="M149 666l-38 77l193 100l41 -85zM86 616h307v-89h-202v-527h-105v616z" />
    <glyph glyph-name="uni0453" unicode="&#x453;" horiz-adv-x="369" 
d="M174 0h-101v457h275v-85h-174v-372zM165 515l-50 69l172 137l52 -74z" />
    <glyph glyph-name="uni0456" unicode="&#x456;" horiz-adv-x="247" 
d="M174 0h-101v447l101 15v-462zM58 605c0 37 29 66 66 66s67 -29 67 -66s-30 -67 -67 -67s-66 29 -66 67z" />
    <glyph glyph-name="uni0491" unicode="&#x491;" horiz-adv-x="384" 
d="M174 0h-101v457h205v100h85v-185h-189v-372z" />
    <glyph glyph-name="uni0408" unicode="&#x408;" horiz-adv-x="277" 
d="M86 616h105v-559c0 -144 -36 -206 -200 -245l-24 85c95 23 119 60 119 156v563z" />
    <glyph glyph-name="uni0404" unicode="&#x404;" horiz-adv-x="598" 
d="M562 564l-44 -73c-36 30 -85 52 -159 52c-110 0 -176 -82 -191 -189h243v-88h-244c12 -111 77 -192 189 -192c74 0 124 19 159 52l44 -73c-47 -42 -117 -68 -208 -68c-195 0 -301 142 -301 321c0 180 108 325 304 325c91 0 161 -26 208 -67z" />
    <glyph glyph-name="uni0454" unicode="&#x454;" horiz-adv-x="463" 
d="M45 229c0 130 79 242 226 242c71 0 123 -22 158 -56l-43 -68c-27 23 -58 39 -104 39c-73 0 -113 -50 -126 -112h156v-85h-157c11 -66 51 -119 124 -119c51 0 82 15 105 38l42 -67c-34 -34 -86 -56 -158 -56c-143 0 -223 111 -223 244z" />
    <glyph glyph-name="uni0407" unicode="&#x407;" horiz-adv-x="277" 
d="M86 616h105v-616h-105v616zM-26 740c0 39 31 70 70 70c38 0 69 -31 69 -70c0 -38 -31 -69 -69 -69c-40 0 -70 30 -70 69zM168 740c0 39 31 70 70 70c38 0 69 -31 69 -70c0 -38 -31 -69 -69 -69c-40 0 -70 30 -70 69z" />
    <glyph glyph-name="uni0457" unicode="&#x457;" horiz-adv-x="248" 
d="M-42 600c0 37 31 69 70 69c38 0 69 -31 69 -69c0 -39 -31 -70 -69 -70c-39 0 -70 30 -70 70zM153 600c0 37 31 69 70 69c38 0 69 -31 69 -69c0 -39 -31 -70 -69 -70c-39 0 -70 30 -70 70zM175 0h-102v447l102 15v-462z" />
    <glyph glyph-name="uni0409" unicode="&#x409;" horiz-adv-x="825" 
d="M160 616h339v-244h64c157 0 228 -78 228 -183c0 -110 -78 -189 -228 -189h-169v527h-143l-38 -350c-11 -101 -54 -178 -201 -178v88c84 0 95 37 104 120zM554 283h-55v-194h67c74 0 110 41 110 96c0 57 -33 98 -122 98z" />
    <glyph glyph-name="uni0459" unicode="&#x459;" horiz-adv-x="747" 
d="M158 457h308v-148h47c139 0 203 -66 203 -153c0 -91 -93 -156 -231 -156h-120v372h-120l-31 -217c-13 -89 -52 -156 -197 -156v88c82 0 90 29 101 97zM506 224h-40v-139h42c67 0 101 30 101 68c0 41 -29 71 -103 71z" />
    <glyph glyph-name="uni040A" unicode="&#x40a;" horiz-adv-x="890" 
d="M459 616h105v-244h64c158 0 228 -78 228 -183c0 -110 -77 -189 -228 -189h-169v277h-268v-277h-105v616h105v-250h268v250zM620 283h-56v-194h68c73 0 109 41 109 96c0 57 -32 98 -121 98z" />
    <glyph glyph-name="uni045A" unicode="&#x45a;" horiz-adv-x="758" 
d="M376 457h101v-148h47c139 0 203 -66 203 -153c0 -91 -93 -156 -231 -156h-120v192h-202v-192h-101v457h101v-180h202v180zM517 224h-40v-139h42c67 0 101 30 101 68c0 41 -29 71 -103 71z" />
    <glyph glyph-name="uni0458" unicode="&#x458;" horiz-adv-x="247" 
d="M73 447l101 15v-405c0 -144 -32 -206 -196 -245l-23 83c95 24 118 62 118 158v394zM58 605c0 37 29 66 66 66s67 -29 67 -66s-30 -67 -67 -67s-66 29 -66 67z" />
    <glyph glyph-name="uni0405" unicode="&#x405;" horiz-adv-x="498" 
d="M46 43l32 84c55 -31 116 -53 163 -53c55 0 93 22 93 78c0 128 -275 130 -275 316c0 62 40 163 194 163c65 0 111 -13 176 -43l-25 -85c-60 28 -105 39 -144 39c-77 0 -90 -45 -90 -71c0 -119 283 -130 283 -317c0 -116 -95 -168 -211 -168c-78 0 -131 24 -196 57z" />
    <glyph glyph-name="uni040B" unicode="&#x40b;" horiz-adv-x="663" 
d="M480 616v-89h-172v-185c44 26 91 44 146 44c92 0 159 -40 159 -182v-204h-105v190c0 82 -29 107 -80 107c-40 0 -81 -18 -120 -44v-253h-105v527h-174v89h451z" />
    <glyph glyph-name="uni045B" unicode="&#x45b;" 
d="M18 482v79h55v86l101 15v-101h155v-79h-155v-103c38 31 83 51 136 51c76 0 142 -36 142 -147v-283h-101v269c0 53 -29 76 -66 76c-39 0 -80 -22 -111 -55v-290h-101v482h-55z" />
    <glyph glyph-name="uni040C" unicode="&#x40c;" horiz-adv-x="566" 
d="M546 0h-123l-176 268h-56v-268h-105v616h105v-260h51l176 260h120l-202 -300zM236 666l-38 77l193 100l41 -85z" />
    <glyph glyph-name="uni045C" unicode="&#x45c;" horiz-adv-x="499" 
d="M203 515l-50 69l172 137l52 -74zM485 0h-123l-142 187h-46v-187h-101v457h101v-185h46l131 185h116l-159 -220z" />
    <glyph glyph-name="uni043A" unicode="&#x43a;" horiz-adv-x="499" 
d="M485 0h-123l-142 187h-46v-187h-101v457h101v-185h46l131 185h116l-159 -220z" />
    <glyph glyph-name="uni0455" unicode="&#x455;" horiz-adv-x="429" 
d="M367 440l-16 -78c-50 23 -89 30 -116 30c-30 0 -62 -10 -62 -43c0 -59 215 -106 215 -230c0 -84 -73 -134 -175 -134c-66 0 -118 21 -178 53l29 81c52 -34 93 -49 140 -49c37 0 71 18 71 45c0 75 -214 104 -214 231c0 92 74 125 152 125c57 0 97 -10 154 -31z" />
    <glyph glyph-name="uni040E" unicode="&#x40e;" horiz-adv-x="529" 
d="M21 616h115l148 -317l133 317h113l-170 -388c-52 -119 -112 -206 -277 -248l-33 76c72 26 140 58 180 122zM126 822l67 17c7 -43 44 -88 89 -88c46 0 82 41 96 89l62 -19c-17 -85 -71 -151 -159 -151c-94 0 -140 63 -155 152z" />
    <glyph glyph-name="uni045E" unicode="&#x45e;" horiz-adv-x="488" 
d="M24 457h108l114 -320l112 320h106l-137 -380c-49 -126 -83 -266 -281 -266v84c87 0 119 47 146 105h-3zM97 692l66 16c7 -45 45 -92 90 -92s81 44 95 94l63 -19c-18 -88 -71 -156 -159 -156c-98 0 -143 80 -155 157z" />
    <glyph glyph-name="uni040F" unicode="&#x40f;" horiz-adv-x="650" 
d="M564 0h-192v-140h-89v140h-197v616h105v-527h268v527h105v-616z" />
    <glyph glyph-name="uni045F" unicode="&#x45f;" horiz-adv-x="550" 
d="M73 0v457h101v-372h202v372h101v-457h-155v-123h-90v123h-159z" />
    <glyph glyph-name="uni2116" unicode="&#x2116;" horiz-adv-x="985" 
d="M678 130v75h249v-75h-249zM803 310c39 0 50 33 50 72c0 38 -10 71 -50 71c-39 0 -51 -31 -51 -71c0 -38 12 -72 51 -72zM803 241c-92 0 -126 60 -126 141c0 80 30 140 126 140c100 0 125 -68 125 -140c0 -81 -26 -141 -125 -141zM481 616h105v-616h-91l-292 423v-423
h-105v616h91l292 -430v430z" />
    <glyph glyph-name="uni0401" unicode="&#x401;" horiz-adv-x="505" 
d="M447 616v-89h-256v-165h202v-89h-202v-184h270v-89h-375v616h361zM92 740c0 39 31 70 70 70c38 0 69 -31 69 -70c0 -38 -31 -69 -69 -69c-40 0 -70 30 -70 69zM286 740c0 39 31 70 70 70c38 0 69 -31 69 -70c0 -38 -31 -69 -69 -69c-40 0 -70 30 -70 69z" />
    <glyph glyph-name="uni0451" unicode="&#x451;" horiz-adv-x="503" 
d="M88 600c0 37 31 69 70 69c38 0 69 -31 69 -69c0 -39 -31 -70 -69 -70c-39 0 -70 30 -70 70zM283 600c0 37 31 69 70 69c38 0 69 -31 69 -69c0 -39 -31 -70 -69 -70c-39 0 -70 30 -70 70zM457 198h-307c9 -72 50 -128 134 -128c54 0 90 23 115 49l51 -53
c-37 -46 -101 -81 -183 -81c-141 0 -222 104 -222 243c0 133 78 243 211 243c127 0 202 -100 202 -225c0 -19 0 -34 -1 -48zM253 386c-53 0 -88 -47 -100 -107h202c-11 61 -51 107 -102 107z" />
    <glyph glyph-name="uni044F" unicode="&#x44f;" horiz-adv-x="479" 
d="M148 0h-115l115 178c-57 22 -88 68 -88 123c0 92 63 156 200 156h146v-457h-101v150h-62zM305 372h-48c-69 0 -90 -30 -90 -72c0 -37 30 -65 86 -65h52v137z" />
    <glyph glyph-name="uni0430" unicode="&#x430;" horiz-adv-x="468" 
d="M313 0l-11 51c-46 -41 -87 -66 -139 -66c-70 0 -124 37 -124 115c0 106 108 142 259 181v12c0 67 -44 92 -92 92c-41 0 -86 -14 -117 -32l-26 69c44 27 102 49 174 49c88 0 162 -43 162 -168v-303h-86zM194 77c35 0 66 16 104 43v90c-93 -24 -152 -41 -152 -92
c0 -28 22 -41 48 -41z" />
    <glyph glyph-name="uni0431" unicode="&#x431;" horiz-adv-x="545" 
d="M400 651h92c-19 -119 -111 -135 -197 -156c-66 -17 -107 -55 -127 -118c34 34 75 52 126 52c118 0 204 -90 204 -222c0 -136 -92 -222 -219 -222c-142 0 -230 121 -231 288c1 136 55 233 172 285c73 32 142 24 180 93zM294 344c-56 0 -104 -31 -139 -84
c5 -116 55 -190 124 -190c64 0 111 53 111 137c0 80 -41 137 -96 137z" />
    <glyph glyph-name="uni0432" unicode="&#x432;" horiz-adv-x="467" 
d="M73 457h151c126 0 170 -50 170 -118c0 -35 -15 -69 -55 -92c58 -24 84 -63 84 -114c0 -74 -64 -133 -183 -133h-167v457zM316 138c0 31 -25 54 -96 54h-46v-107h59c58 0 83 24 83 53zM174 277h46c48 0 67 24 67 49c0 22 -17 46 -62 46h-51v-95z" />
    <glyph glyph-name="uni0433" unicode="&#x433;" horiz-adv-x="369" 
d="M174 0h-101v457h275v-85h-174v-372z" />
    <glyph glyph-name="uni0434" unicode="&#x434;" horiz-adv-x="552" 
d="M18 85h65c34 104 56 225 60 372h312v-372h53v-225h-90v140h-310v-140h-90v225zM241 372c-9 -103 -26 -200 -51 -287h164v287h-113z" />
    <glyph glyph-name="uni0435" unicode="&#x435;" horiz-adv-x="503" 
d="M457 198h-307c9 -72 50 -128 134 -128c54 0 90 23 115 49l51 -53c-37 -46 -101 -81 -183 -81c-141 0 -222 104 -222 243c0 133 78 243 211 243c127 0 202 -100 202 -225c0 -19 0 -34 -1 -48zM253 386c-53 0 -88 -47 -100 -107h202c-11 61 -51 107 -102 107z" />
    <glyph glyph-name="uni0436" unicode="&#x436;" horiz-adv-x="751" 
d="M138 0h-124l178 237l-160 220h117l131 -185h45v185h101v-185h46l131 185h116l-159 -220l177 -237h-123l-142 187h-46v-187h-101v187h-46z" />
    <glyph glyph-name="uni0437" unicode="&#x437;" horiz-adv-x="421" 
d="M95 355l-45 61c32 30 75 55 145 55c133 0 160 -78 160 -125c0 -35 -18 -79 -69 -105c60 -22 91 -68 92 -107c0 -55 -33 -149 -176 -149c-74 0 -124 21 -176 62l47 67c37 -28 67 -44 121 -44c61 0 77 40 76 61c0 33 -34 64 -109 64h-17v85h17c65 0 87 33 87 59
c0 18 -11 47 -61 47c-39 0 -71 -12 -92 -31z" />
    <glyph glyph-name="uni0438" unicode="&#x438;" horiz-adv-x="550" 
d="M174 0h-101v457h101v-291l202 291h101v-457h-101v290z" />
    <glyph glyph-name="uni0439" unicode="&#x439;" horiz-adv-x="550" 
d="M174 0h-101v457h101v-291l202 291h101v-457h-101v290zM124 692l66 16c7 -45 45 -92 90 -92s81 44 95 94l63 -19c-18 -88 -71 -156 -159 -156c-98 0 -143 80 -155 157z" />
    <glyph glyph-name="uni043B" unicode="&#x43b;" horiz-adv-x="539" 
d="M158 457h308v-457h-101v372h-120l-31 -217c-13 -89 -52 -156 -197 -156v88c82 0 90 29 101 97z" />
    <glyph glyph-name="uni043C" unicode="&#x43c;" horiz-adv-x="674" 
d="M379 0h-87l-117 271l-9 -271h-102l18 457h119l137 -311l136 311h118l18 -457h-102l-9 274z" />
    <glyph glyph-name="uni043D" unicode="&#x43d;" horiz-adv-x="550" 
d="M376 457h101v-457h-101v192h-202v-192h-101v457h101v-180h202v180z" />
    <glyph glyph-name="uni043E" unicode="&#x43e;" horiz-adv-x="531" 
d="M45 228c0 133 76 243 218 243c145 0 223 -110 223 -243c0 -131 -77 -243 -222 -243c-143 0 -219 110 -219 243zM152 228c0 -84 36 -158 112 -158c78 0 115 74 115 158c0 85 -37 158 -115 158c-76 0 -112 -73 -112 -158z" />
    <glyph glyph-name="uni043F" unicode="&#x43f;" horiz-adv-x="550" 
d="M73 457h404v-457h-101v372h-202v-372h-101v457z" />
    <glyph glyph-name="uni0440" unicode="&#x440;" horiz-adv-x="525" 
d="M174 -189h-101v641l72 5l16 -52c38 42 86 66 138 66c114 0 180 -107 180 -235c0 -136 -63 -251 -195 -251c-41 0 -78 15 -110 38v-212zM273 386c-47 0 -74 -20 -99 -52v-230c21 -20 50 -34 88 -34c78 0 110 80 110 168c0 81 -32 148 -99 148z" />
    <glyph glyph-name="uni0441" unicode="&#x441;" horiz-adv-x="463" 
d="M45 229c0 131 79 242 226 242c71 0 123 -22 158 -56l-43 -68c-27 23 -58 39 -104 39c-89 0 -130 -75 -130 -157s40 -159 127 -159c51 0 82 15 105 38l42 -67c-34 -34 -86 -56 -158 -56c-147 0 -223 115 -223 244z" />
    <glyph glyph-name="uni0442" unicode="&#x442;" horiz-adv-x="423" 
d="M401 372h-139v-372h-101v372h-139v85h379v-85z" />
    <glyph glyph-name="uni0443" unicode="&#x443;" horiz-adv-x="488" 
d="M24 457h108l114 -320l112 320h106l-137 -380c-49 -126 -83 -266 -281 -266v84c87 0 119 47 146 105h-3z" />
    <glyph glyph-name="uni0444" unicode="&#x444;" horiz-adv-x="802" 
d="M451 -189h-101v222c-35 -31 -77 -48 -123 -48c-120 0 -181 107 -181 235c0 136 67 251 194 251c38 0 77 -15 110 -41v217l101 15v-240c35 31 77 49 124 49c120 0 181 -107 181 -235c0 -136 -67 -251 -194 -251c-39 0 -79 15 -111 41v-215zM550 386c-44 0 -74 -18 -99 -49
v-230c21 -22 48 -37 88 -37c78 0 110 79 110 167c0 80 -32 149 -99 149zM252 70c43 0 72 18 98 47v233c-21 21 -48 36 -87 36c-78 0 -110 -79 -110 -167c0 -80 32 -149 99 -149z" />
    <glyph glyph-name="uni0445" unicode="&#x445;" horiz-adv-x="473" 
d="M131 0h-109l159 233l-151 224h111l96 -143l98 143h110l-153 -223l158 -234h-111l-103 152z" />
    <glyph glyph-name="uni0446" unicode="&#x446;" horiz-adv-x="574" 
d="M73 0v457h101v-372h202v372h101v-372h54v-225h-90v140h-368z" />
    <glyph glyph-name="uni0447" unicode="&#x447;" horiz-adv-x="506" 
d="M44 457h101v-131c0 -65 33 -89 72 -89c41 0 83 15 115 39v181h101v-457h-101v190c-39 -23 -84 -38 -138 -38c-114 0 -150 78 -150 162v143z" />
    <glyph glyph-name="uni0448" unicode="&#x448;" horiz-adv-x="779" 
d="M73 0v457h101v-372h165v372h101v-372h165v372h101v-457h-633z" />
    <glyph glyph-name="uni0449" unicode="&#x449;" horiz-adv-x="803" 
d="M73 0v457h101v-372h165v372h101v-372h165v372h101v-372h53v-225h-90v140h-596z" />
    <glyph glyph-name="uni044A" unicode="&#x44a;" horiz-adv-x="552" 
d="M22 457h249v-148h47c139 0 203 -66 203 -153c0 -91 -93 -156 -231 -156h-120v372h-148v85zM311 224h-40v-139h42c67 0 101 30 101 68c0 41 -28 71 -103 71z" />
    <glyph glyph-name="uni044B" unicode="&#x44b;" horiz-adv-x="699" 
d="M73 457h101v-148h47c139 0 203 -66 203 -153c0 -91 -93 -156 -231 -156h-120v457zM626 0h-101v457h101v-457zM214 224h-40v-139h42c67 0 101 30 101 68c0 41 -28 71 -103 71z" />
    <glyph glyph-name="uni044C" unicode="&#x44c;" horiz-adv-x="455" 
d="M73 457h101v-148h47c139 0 203 -66 203 -153c0 -91 -93 -156 -231 -156h-120v457zM214 224h-40v-139h42c67 0 101 30 101 68c0 41 -28 71 -103 71z" />
    <glyph glyph-name="uni044D" unicode="&#x44d;" horiz-adv-x="463" 
d="M418 229c0 -132 -78 -244 -223 -244c-66 0 -115 14 -158 56l42 67c23 -23 54 -38 105 -38c72 0 113 53 124 119h-157v85h155c-12 62 -53 112 -125 112c-46 0 -77 -16 -104 -39l-43 68c35 34 87 56 158 56c147 0 226 -111 226 -242z" />
    <glyph glyph-name="uni044E" unicode="&#x44e;" horiz-adv-x="757" 
d="M73 457h101v-180h100c17 110 91 194 215 194c145 0 223 -110 223 -243c0 -131 -77 -243 -222 -243c-130 0 -204 92 -217 207h-99v-192h-101v457zM378 228c0 -84 36 -158 112 -158c78 0 115 73 115 158s-37 158 -115 158c-76 0 -112 -73 -112 -158z" />
    <glyph glyph-name="f_b" horiz-adv-x="817" 
d="M39 365v65l58 16v20c0 116 43 198 212 198l158 -1v-241c35 31 77 49 124 49c119 0 180 -107 180 -235c0 -136 -67 -251 -194 -251c-45 0 -83 18 -114 44l-20 -29h-77v580h-57c-89 0 -111 -43 -111 -109v-21h90v-85h-90v-365h-101v365h-58zM565 386c-43 0 -73 -18 -98 -48
v-231c21 -22 48 -37 87 -37c79 0 110 79 110 167c0 80 -31 149 -99 149z" />
    <glyph glyph-name="f_j" horiz-adv-x="540" 
d="M39 365v65l58 16v20c0 116 41 198 200 198v-84c-79 0 -99 -43 -99 -109v-21h269v-393c0 -144 -32 -206 -196 -245l-23 83c94 24 118 62 118 158v312h-168v-365h-101v365h-58zM351 605c0 37 29 66 66 66s67 -29 67 -66s-30 -67 -67 -67s-66 29 -66 67z" />
    <glyph glyph-name="f_k" horiz-adv-x="784" 
d="M763 0h-117l-134 210h-45v-210h-101v580h-57c-89 0 -111 -43 -111 -109v-21h90v-85h-90v-365h-101v365h-58v65l58 16v20c0 116 43 198 212 198h158v-367h43l127 160h118l-160 -200z" />
    <glyph glyph-name="zero.dnom" unicode="&#x2080;" horiz-adv-x="351" 
d="M174 58c37 0 51 42 51 99c0 52 -14 99 -51 99s-49 -47 -49 -99c0 -56 12 -99 49 -99zM174 -8c-106 0 -139 71 -139 165c0 91 32 165 139 165s142 -74 142 -165c0 -95 -35 -165 -142 -165z" />
    <glyph glyph-name="one.dnom" unicode="&#x2081;" horiz-adv-x="283" 
d="M66 196l-42 51l86 67l1 -1v1h87v-249h57v-65h-198v65h54v165z" />
    <glyph glyph-name="two.dnom" unicode="&#x2082;" horiz-adv-x="313" 
d="M66 229l-36 49c29 26 64 44 118 44c99 0 129 -56 128 -89c0 -91 -99 -100 -133 -168h132v-65h-237v17c0 132 142 161 142 210c0 11 -4 29 -41 29c-20 0 -49 -9 -73 -27z" />
    <glyph glyph-name="three.dnom" unicode="&#x2083;" horiz-adv-x="309" 
d="M73 242l-35 47c21 18 48 33 100 33c102 0 122 -53 122 -85c0 -24 -12 -52 -38 -73c33 -21 54 -48 54 -75c1 -36 -23 -97 -132 -97c-55 0 -86 13 -119 36l36 51c23 -14 42 -21 81 -21c37 0 45 21 45 36c0 17 -23 35 -74 35h-8v65h8h6c38 2 51 19 51 34c0 11 -6 28 -40 28
c-27 0 -46 -6 -57 -14z" />
    <glyph glyph-name="four.dnom" unicode="&#x2084;" horiz-adv-x="328" 
d="M173 314h87v-195h34v-65h-34v-54h-87v54h-145v65zM115 119h58v77z" />
    <glyph glyph-name="five.dnom" unicode="&#x2085;" horiz-adv-x="314" 
d="M89 128h-49l24 186h196v-65h-123l-6 -44c11 4 24 7 39 7c70 0 111 -48 111 -106c0 -74 -52 -114 -124 -114c-48 0 -94 11 -127 45l44 54c19 -19 40 -27 64 -27c27 0 49 15 49 43c0 22 -19 40 -44 40c-16 0 -30 -1 -54 -19z" />
    <glyph glyph-name="six.dnom" unicode="&#x2086;" horiz-adv-x="332" 
d="M288 302l-28 -55c-15 4 -38 9 -62 9c-27 0 -53 -19 -65 -58c14 6 29 9 45 9c70 0 122 -31 122 -101s-54 -114 -126 -114c-83 0 -140 64 -140 148c0 118 78 182 164 182c38 0 71 -11 90 -20zM178 142c-18 0 -36 -5 -53 -14c3 -40 23 -70 47 -70c22 0 38 15 38 43
c0 30 -16 41 -32 41z" />
    <glyph glyph-name="seven.dnom" unicode="&#x2087;" horiz-adv-x="286" 
d="M144 0h-110l122 249h-122v65h233v-15z" />
    <glyph glyph-name="eight.dnom" unicode="&#x2088;" horiz-adv-x="318" 
d="M159 -8c-68 0 -125 28 -125 77c0 39 25 71 55 92c-33 27 -41 50 -41 77c0 54 51 84 114 84c59 0 109 -30 109 -82c0 -40 -24 -68 -49 -87c41 -31 62 -52 62 -86c0 -43 -53 -75 -125 -75zM196 79c0 11 -14 21 -40 38c-19 -9 -34 -25 -34 -38c0 -14 18 -21 37 -21
c14 0 37 6 37 21zM136 234c0 -10 5 -17 24 -33c12 9 24 20 24 35c0 14 -8 20 -23 20c-14 0 -25 -9 -25 -22z" />
    <glyph glyph-name="nine.dnom" unicode="&#x2089;" horiz-adv-x="332" 
d="M44 12l29 55c15 -5 37 -9 62 -9c26 0 52 19 65 59c-15 -6 -30 -10 -46 -10c-69 0 -122 31 -122 101s54 114 127 114c83 0 139 -63 139 -148c0 -118 -77 -182 -163 -182c-38 0 -71 11 -91 20zM154 172c18 0 37 5 53 14c-3 40 -23 70 -47 70c-22 0 -37 -15 -37 -43
c0 -30 16 -41 31 -41z" />
    <glyph glyph-name="caron.salt" horiz-adv-x="329" 
d="M144 657l-109 117l24 28l102 -103l94 103l24 -27l-105 -118h-30z" />
    <glyph glyph-name="oe.smcp" horiz-adv-x="779" 
d="M734 80v-80h-316v16c-32 -17 -69 -28 -112 -28c-165 0 -258 107 -258 260c0 139 92 247 253 247c45 0 84 -10 117 -29v17h305v-80h-204v-115h162v-80h-162v-128h215zM306 68c52 0 90 25 112 68v207c-23 45 -62 72 -117 72c-94 0 -147 -72 -147 -167
c0 -103 56 -180 152 -180z" />
    <glyph glyph-name="uni0410" unicode="&#x410;" horiz-adv-x="599" 
d="M25 0l218 616h110l224 -616h-105l-56 153h-232l-54 -153h-105zM298 476l-83 -234h169z" />
    <glyph glyph-name="uni0411" unicode="&#x411;" horiz-adv-x="518" 
d="M86 616h302v-89h-197v-155h64c157 0 228 -78 228 -183c0 -110 -78 -189 -228 -189h-169v616zM246 283h-55v-194h67c74 0 110 41 110 96c0 57 -33 98 -122 98z" />
    <glyph glyph-name="Eth" unicode="&#xd0;" horiz-adv-x="647" 
d="M31 269v89h61v258h175c187 0 328 -101 328 -316c0 -206 -141 -300 -328 -300h-175v269h-61zM197 527v-169h137v-89h-137v-180h65c118 0 218 63 218 211c0 159 -100 227 -218 227h-65z" />
    <glyph glyph-name="Scaron" unicode="&#x160;" horiz-adv-x="496" 
d="M45 43l32 84c55 -31 116 -53 163 -53c55 0 93 22 93 78c0 128 -275 130 -275 316c0 62 40 163 194 163c65 0 111 -13 176 -43l-25 -85c-60 28 -105 39 -144 39c-77 0 -90 -45 -90 -71c0 -119 283 -130 283 -317c0 -116 -95 -168 -211 -168c-78 0 -131 24 -196 57z
M252 664l-130 116l50 57l96 -86l93 86l50 -56l-128 -117h-31z" />
    <glyph glyph-name="scaron" unicode="&#x161;" horiz-adv-x="427" 
d="M212 515l-121 131l52 54l87 -96l82 95l52 -52l-121 -132h-31zM366 440l-16 -78c-50 23 -89 30 -116 30c-30 0 -62 -10 -62 -43c0 -59 215 -106 215 -230c0 -84 -73 -134 -175 -134c-66 0 -118 21 -178 53l29 81c52 -34 93 -49 140 -49c37 0 71 18 71 45
c0 75 -214 104 -214 231c0 92 74 125 152 125c57 0 97 -10 154 -31z" />
    <glyph glyph-name="Yacute" unicode="&#xdd;" horiz-adv-x="528" 
d="M317 251v-251h-105v253l-190 363h113l130 -257l127 257h111zM207 666l-38 77l193 100l41 -85z" />
    <glyph glyph-name="yacute" unicode="&#xfd;" horiz-adv-x="488" 
d="M24 457h108l114 -320l112 320h106l-137 -380c-49 -126 -83 -266 -281 -266v84c87 0 119 47 146 105h-3zM209 509l-50 69l172 137l52 -74z" />
    <glyph glyph-name="Zcaron" unicode="&#x17d;" horiz-adv-x="518" 
d="M353 527h-293v89h403v-89l-308 -438h315v-89h-426v89zM247 674l-130 116l50 57l96 -86l93 86l50 -56l-128 -117h-31z" />
    <glyph glyph-name="zcaron" unicode="&#x17e;" horiz-adv-x="444" 
d="M212 509l-121 131l52 54l87 -96l82 95l52 -52l-121 -132h-31zM390 371l-227 -286h234v-85h-350v85l225 286h-218v86h336v-86z" />
    <glyph glyph-name="dollar" unicode="$" horiz-adv-x="478" 
d="M285 731h40l-16 -104c36 -5 69 -18 109 -39l-28 -85c-37 18 -67 30 -94 35l-26 -179c73 -45 159 -95 159 -199c0 -120 -95 -174 -207 -174h-7l-15 -100h-40l15 105c-49 9 -96 30 -137 52l35 84c37 -24 78 -42 115 -50l29 194c-71 43 -153 89 -153 193
c0 62 42 167 199 167h7zM315 155c0 40 -26 67 -62 92l-25 -174c48 1 87 25 87 82zM170 469c0 -36 27 -62 63 -87l24 160c-70 -1 -87 -47 -87 -73z" />
    <glyph glyph-name="Adieresis" unicode="&#xc4;" horiz-adv-x="599" 
d="M25 0l218 616h110l224 -616h-105l-56 153h-232l-54 -153h-105zM298 476l-83 -234h169zM133 740c0 39 31 70 70 70c38 0 69 -31 69 -70c0 -38 -31 -69 -69 -69c-40 0 -70 30 -70 69zM327 740c0 39 31 70 70 70c38 0 69 -31 69 -70c0 -38 -31 -69 -69 -69
c-40 0 -70 30 -70 69z" />
    <glyph glyph-name="Aring" unicode="&#xc5;" horiz-adv-x="599" 
d="M195 688c0 57 42 99 103 99c63 0 105 -42 105 -99c0 -38 -17 -68 -45 -85l219 -603h-110l-56 153h-222l-54 -153h-110l213 602c-27 17 -43 46 -43 86zM298 463l-78 -221h159zM298 637c24 0 45 12 45 50c0 41 -21 55 -45 55c-22 0 -42 -17 -42 -55c0 -39 20 -50 42 -50z
" />
    <glyph glyph-name="Ccedilla" unicode="&#xc7;" horiz-adv-x="599" 
d="M226 -165l21 37c16 -13 45 -24 65 -24c24 0 40 15 40 31c0 24 -30 36 -96 36l29 76c-159 28 -234 160 -234 315c0 180 108 325 304 325c91 0 161 -26 208 -67l-44 -73c-36 30 -85 51 -159 51c-125 0 -193 -106 -193 -236s66 -232 190 -232c74 0 124 19 159 52l44 -73
c-47 -42 -117 -68 -208 -68h-7l-8 -22c52 -10 80 -39 80 -84c0 -44 -40 -82 -100 -82c-30 0 -65 18 -91 38z" />
    <glyph glyph-name="Eacute" unicode="&#xc9;" horiz-adv-x="505" 
d="M447 616v-89h-256v-165h202v-89h-202v-184h270v-89h-375v616h361zM184 666l-38 77l193 100l41 -85z" />
    <glyph glyph-name="Ntilde" unicode="&#xd1;" horiz-adv-x="660" 
d="M387 676c-57 0 -76 48 -116 48c-17 0 -40 -10 -59 -47l-49 54c40 68 74 89 115 89c42 0 67 -50 106 -50c23 0 50 18 68 55l49 -53c-30 -65 -67 -96 -114 -96zM469 616h105v-616h-91l-292 423v-423h-105v616h91l292 -430v430z" />
    <glyph glyph-name="Odieresis" unicode="&#xd6;" horiz-adv-x="686" 
d="M354 74c103 0 166 105 166 231c0 135 -62 238 -172 238c-117 0 -182 -98 -182 -227c0 -138 67 -242 188 -242zM354 -15c-195 0 -303 136 -303 331c0 178 108 315 297 315c182 0 287 -141 287 -326c0 -182 -103 -320 -281 -320zM182 740c0 39 31 70 70 70
c38 0 69 -31 69 -70c0 -38 -31 -69 -69 -69c-40 0 -70 30 -70 69zM376 740c0 39 31 70 70 70c38 0 69 -31 69 -70c0 -38 -31 -69 -69 -69c-40 0 -70 30 -70 69z" />
    <glyph glyph-name="Udieresis" unicode="&#xdc;" horiz-adv-x="643" 
d="M80 616h105v-398c0 -80 26 -144 135 -144c111 0 138 64 138 144v398h105v-399c0 -120 -48 -232 -243 -232c-189 0 -240 110 -240 232v399zM158 740c0 39 31 70 70 70c38 0 69 -31 69 -70c0 -38 -31 -69 -69 -69c-40 0 -70 30 -70 69zM352 740c0 39 31 70 70 70
c38 0 69 -31 69 -70c0 -38 -31 -69 -69 -69c-40 0 -70 30 -70 69z" />
    <glyph glyph-name="aacute" unicode="&#xe1;" horiz-adv-x="468" 
d="M313 0l-11 51c-46 -41 -87 -66 -139 -66c-70 0 -124 37 -124 115c0 106 108 142 259 181v12c0 67 -44 92 -92 92c-41 0 -86 -14 -117 -32l-26 69c44 27 102 49 174 49c88 0 162 -43 162 -168v-303h-86zM194 77c35 0 66 16 104 43v90c-93 -24 -152 -41 -152 -92
c0 -28 22 -41 48 -41zM183 515l-50 69l172 137l52 -74z" />
    <glyph glyph-name="agrave" unicode="&#xe0;" horiz-adv-x="468" 
d="M313 0l-11 51c-46 -41 -87 -66 -139 -66c-70 0 -124 37 -124 115c0 106 108 142 259 181v12c0 67 -44 92 -92 92c-41 0 -86 -14 -117 -32l-26 69c44 27 102 49 174 49c88 0 162 -43 162 -168v-303h-86zM194 77c35 0 66 16 104 43v90c-93 -24 -152 -41 -152 -92
c0 -28 22 -41 48 -41zM350 583l-51 -69l-174 132l52 74z" />
    <glyph glyph-name="acircumflex" unicode="&#xe2;" horiz-adv-x="468" 
d="M313 0l-11 51c-46 -41 -87 -66 -139 -66c-70 0 -124 37 -124 115c0 106 108 142 259 181v12c0 67 -44 92 -92 92c-41 0 -86 -14 -117 -32l-26 69c44 27 102 49 174 49c88 0 162 -43 162 -168v-303h-86zM194 77c35 0 66 16 104 43v90c-93 -24 -152 -41 -152 -92
c0 -28 22 -41 48 -41zM103 569l121 131h31l121 -131l-52 -53l-84 86l-85 -86z" />
    <glyph glyph-name="adieresis" unicode="&#xe4;" horiz-adv-x="468" 
d="M313 0l-11 51c-46 -41 -87 -66 -139 -66c-70 0 -124 37 -124 115c0 106 108 142 259 181v12c0 67 -44 92 -92 92c-41 0 -86 -14 -117 -32l-26 69c44 27 102 49 174 49c88 0 162 -43 162 -168v-303h-86zM194 77c35 0 66 16 104 43v90c-93 -24 -152 -41 -152 -92
c0 -28 22 -41 48 -41zM63 600c0 37 31 69 70 69c38 0 69 -31 69 -69c0 -39 -31 -70 -69 -70c-39 0 -70 30 -70 70zM258 600c0 37 31 69 70 69c38 0 69 -31 69 -69c0 -39 -31 -70 -69 -70c-39 0 -70 30 -70 70z" />
    <glyph glyph-name="atilde" unicode="&#xe3;" horiz-adv-x="468" 
d="M313 0l-11 51c-46 -41 -87 -66 -139 -66c-70 0 -124 37 -124 115c0 106 108 142 259 181v12c0 67 -44 92 -92 92c-41 0 -86 -14 -117 -32l-26 69c44 27 102 49 174 49c88 0 162 -43 162 -168v-303h-86zM194 77c35 0 66 16 104 43v90c-93 -24 -152 -41 -152 -92
c0 -28 22 -41 48 -41zM281 533c-53 0 -72 43 -109 43c-15 0 -37 -10 -54 -47l-49 54c35 64 66 85 102 85c43 0 68 -45 107 -45c18 0 41 17 55 55l49 -54c-27 -61 -60 -91 -101 -91z" />
    <glyph glyph-name="aring" unicode="&#xe5;" horiz-adv-x="468" 
d="M313 0l-11 51c-46 -41 -87 -66 -139 -66c-70 0 -124 37 -124 115c0 106 108 142 259 181v12c0 67 -44 92 -92 92c-41 0 -86 -14 -117 -32l-26 69c44 27 102 49 174 49c88 0 162 -43 162 -168v-303h-86zM194 77c35 0 66 16 104 43v90c-93 -24 -152 -41 -152 -92
c0 -28 22 -41 48 -41zM135 616c0 54 41 96 100 96c60 0 101 -41 101 -96c0 -56 -41 -97 -101 -97c-59 0 -100 42 -100 97zM234 567c25 0 43 14 43 49c0 38 -19 52 -43 52c-20 0 -39 -17 -39 -52c0 -38 18 -49 39 -49z" />
    <glyph glyph-name="ccedilla" unicode="&#xe7;" horiz-adv-x="461" 
d="M156 -175l21 37c16 -13 45 -24 65 -24c24 0 40 15 40 31c0 24 -30 36 -96 36l32 85c-114 22 -173 125 -173 239c0 131 79 242 226 242c71 0 123 -22 158 -56l-43 -68c-27 23 -58 39 -104 39c-89 0 -130 -75 -130 -157s40 -159 127 -159c51 0 82 15 105 38l42 -67
c-33 -33 -81 -54 -148 -56l-11 -32c52 -10 80 -39 80 -84c0 -44 -40 -82 -100 -82c-30 0 -65 18 -91 38z" />
    <glyph glyph-name="eacute" unicode="&#xe9;" horiz-adv-x="503" 
d="M204 515l-50 69l172 137l52 -74zM457 198h-307c9 -72 50 -128 134 -128c54 0 90 23 115 49l51 -53c-37 -46 -101 -81 -183 -81c-141 0 -222 104 -222 243c0 133 78 243 211 243c127 0 202 -100 202 -225c0 -19 0 -34 -1 -48zM253 386c-53 0 -88 -47 -100 -107h202
c-11 61 -51 107 -102 107z" />
    <glyph glyph-name="egrave" unicode="&#xe8;" horiz-adv-x="503" 
d="M457 198h-307c9 -72 50 -128 134 -128c54 0 90 23 115 49l51 -53c-37 -46 -101 -81 -183 -81c-141 0 -222 104 -222 243c0 133 78 243 211 243c127 0 202 -100 202 -225c0 -19 0 -34 -1 -48zM253 386c-53 0 -88 -47 -100 -107h202c-11 61 -51 107 -102 107zM365 583
l-51 -69l-174 132l52 74z" />
    <glyph glyph-name="ecircumflex" unicode="&#xea;" horiz-adv-x="503" 
d="M130 569l121 131h31l121 -131l-52 -53l-84 86l-85 -86zM457 198h-307c9 -72 50 -128 134 -128c54 0 90 23 115 49l51 -53c-37 -46 -101 -81 -183 -81c-141 0 -222 104 -222 243c0 133 78 243 211 243c127 0 202 -100 202 -225c0 -19 0 -34 -1 -48zM253 386
c-53 0 -88 -47 -100 -107h202c-11 61 -51 107 -102 107z" />
    <glyph glyph-name="edieresis" unicode="&#xeb;" horiz-adv-x="503" 
d="M98 600c0 37 31 69 70 69c38 0 69 -31 69 -69c0 -39 -31 -70 -69 -70c-39 0 -70 30 -70 70zM293 600c0 37 31 69 70 69c38 0 69 -31 69 -69c0 -39 -31 -70 -69 -70c-39 0 -70 30 -70 70zM457 198h-307c9 -72 50 -128 134 -128c54 0 90 23 115 49l51 -53
c-37 -46 -101 -81 -183 -81c-141 0 -222 104 -222 243c0 133 78 243 211 243c127 0 202 -100 202 -225c0 -19 0 -34 -1 -48zM253 386c-53 0 -88 -47 -100 -107h202c-11 61 -51 107 -102 107z" />
    <glyph glyph-name="iacute" unicode="&#xed;" horiz-adv-x="248" 
d="M68 515l-50 69l172 137l52 -74zM175 0h-102v447l102 15v-462z" />
    <glyph glyph-name="igrave" unicode="&#xec;" horiz-adv-x="248" 
d="M175 0h-102v447l102 15v-462zM219 583l-51 -69l-174 132l52 74z" />
    <glyph glyph-name="icircumflex" unicode="&#xee;" horiz-adv-x="248" 
d="M-8 569l121 131h31l121 -131l-52 -53l-84 86l-85 -86zM175 0h-102v447l102 15v-462z" />
    <glyph glyph-name="idieresis" unicode="&#xef;" horiz-adv-x="248" 
d="M-41 600c0 37 31 69 70 69c38 0 69 -31 69 -69c0 -39 -31 -70 -69 -70c-39 0 -70 30 -70 70zM154 600c0 37 31 69 70 69c38 0 69 -31 69 -69c0 -39 -31 -70 -69 -70c-39 0 -70 30 -70 70zM175 0h-102v447l102 15v-462z" />
    <glyph glyph-name="ntilde" unicode="&#xf1;" horiz-adv-x="520" 
d="M173 0h-101v450l73 12l15 -53c41 38 90 62 149 62c76 0 142 -36 142 -147v-324h-101v310c0 53 -29 76 -66 76c-39 0 -80 -22 -111 -55v-331zM322 533c-53 0 -72 43 -109 43c-15 0 -37 -10 -54 -47l-49 54c35 64 66 85 102 85c43 0 68 -45 107 -45c18 0 41 17 55 55
l49 -54c-27 -61 -60 -91 -101 -91z" />
    <glyph glyph-name="oacute" unicode="&#xf3;" horiz-adv-x="531" 
d="M220 515l-50 69l172 137l52 -74zM45 228c0 133 76 243 218 243c145 0 223 -110 223 -243c0 -131 -77 -243 -222 -243c-143 0 -219 110 -219 243zM152 228c0 -84 36 -158 112 -158c78 0 115 74 115 158c0 85 -37 158 -115 158c-76 0 -112 -73 -112 -158z" />
    <glyph glyph-name="ograve" unicode="&#xf2;" horiz-adv-x="531" 
d="M45 228c0 133 76 243 218 243c145 0 223 -110 223 -243c0 -131 -77 -243 -222 -243c-143 0 -219 110 -219 243zM152 228c0 -84 36 -158 112 -158c78 0 115 74 115 158c0 85 -37 158 -115 158c-76 0 -112 -73 -112 -158zM369 583l-51 -69l-174 132l52 74z" />
    <glyph glyph-name="ocircumflex" unicode="&#xf4;" horiz-adv-x="531" 
d="M128 569l121 131h31l121 -131l-52 -53l-84 86l-85 -86zM45 228c0 133 76 243 218 243c145 0 223 -110 223 -243c0 -131 -77 -243 -222 -243c-143 0 -219 110 -219 243zM152 228c0 -84 36 -158 112 -158c78 0 115 74 115 158c0 85 -37 158 -115 158
c-76 0 -112 -73 -112 -158z" />
    <glyph glyph-name="odieresis" unicode="&#xf6;" horiz-adv-x="531" 
d="M95 600c0 37 31 69 70 69c38 0 69 -31 69 -69c0 -39 -31 -70 -69 -70c-39 0 -70 30 -70 70zM290 600c0 37 31 69 70 69c38 0 69 -31 69 -69c0 -39 -31 -70 -69 -70c-39 0 -70 30 -70 70zM45 228c0 133 76 243 218 243c145 0 223 -110 223 -243c0 -131 -77 -243 -222 -243
c-143 0 -219 110 -219 243zM152 228c0 -84 36 -158 112 -158c78 0 115 74 115 158c0 85 -37 158 -115 158c-76 0 -112 -73 -112 -158z" />
    <glyph glyph-name="otilde" unicode="&#xf5;" horiz-adv-x="531" 
d="M45 228c0 133 76 243 218 243c145 0 223 -110 223 -243c0 -131 -77 -243 -222 -243c-143 0 -219 110 -219 243zM152 228c0 -84 36 -158 112 -158c78 0 115 74 115 158c0 85 -37 158 -115 158c-76 0 -112 -73 -112 -158zM306 533c-53 0 -72 43 -109 43
c-15 0 -37 -10 -54 -47l-49 54c35 64 66 85 102 85c43 0 68 -45 107 -45c18 0 41 17 55 55l49 -54c-27 -61 -60 -91 -101 -91z" />
    <glyph glyph-name="uacute" unicode="&#xfa;" 
d="M238 515l-50 69l172 137l52 -74zM347 457h101v-457h-73l-12 51c-41 -40 -92 -65 -152 -65c-76 0 -142 36 -142 147v319l101 13v-318c0 -53 30 -75 67 -75c39 0 79 21 110 54v331z" />
    <glyph glyph-name="ugrave" unicode="&#xf9;" 
d="M347 457h101v-457h-73l-12 51c-41 -40 -92 -65 -152 -65c-76 0 -142 36 -142 147v319l101 13v-318c0 -53 30 -75 67 -75c39 0 79 21 110 54v331zM374 583l-51 -69l-174 132l52 74z" />
    <glyph glyph-name="ucircumflex" unicode="&#xfb;" 
d="M131 569l121 131h31l121 -131l-52 -53l-84 86l-85 -86zM347 457h101v-457h-73l-12 51c-41 -40 -92 -65 -152 -65c-76 0 -142 36 -142 147v319l101 13v-318c0 -53 30 -75 67 -75c39 0 79 21 110 54v331z" />
    <glyph glyph-name="udieresis" unicode="&#xfc;" 
d="M98 600c0 37 31 69 70 69c38 0 69 -31 69 -69c0 -39 -31 -70 -69 -70c-39 0 -70 30 -70 70zM293 600c0 37 31 69 70 69c38 0 69 -31 69 -69c0 -39 -31 -70 -69 -70c-39 0 -70 30 -70 70zM347 457h101v-457h-73l-12 51c-41 -40 -92 -65 -152 -65c-76 0 -142 36 -142 147
v319l101 13v-318c0 -53 30 -75 67 -75c39 0 79 21 110 54v331z" />
    <glyph glyph-name="Oslash" unicode="&#xd8;" horiz-adv-x="685" 
d="M86 -48h-76l110 136c-45 57 -69 136 -69 228c0 178 108 315 297 315c67 0 125 -20 170 -54l89 110h77l-123 -151c48 -59 74 -139 74 -231c0 -182 -103 -320 -281 -320c-79 0 -143 22 -192 61zM354 74c103 0 166 105 166 231c0 54 -11 104 -30 143l-262 -321
c31 -34 73 -53 126 -53zM166 316c0 -52 9 -99 28 -138l260 321c-27 28 -63 44 -106 44c-117 0 -182 -98 -182 -227z" />
    <glyph glyph-name="oslash" unicode="&#xf8;" horiz-adv-x="530" 
d="M83 -56h-46l409 556h47zM45 228c0 133 76 243 218 243c145 0 223 -110 223 -243c0 -131 -77 -243 -222 -243c-143 0 -219 110 -219 243zM152 228c0 -84 36 -158 112 -158c78 0 115 74 115 158c0 85 -37 158 -115 158c-76 0 -112 -73 -112 -158z" />
    <glyph glyph-name="ellipsis" unicode="&#x2026;" horiz-adv-x="710" 
d="M58 55c0 38 31 69 69 69c39 0 70 -31 70 -69c0 -39 -31 -70 -70 -70c-38 0 -69 31 -69 70zM513 55c0 38 31 69 69 69c39 0 70 -31 70 -69c0 -39 -31 -70 -70 -70c-38 0 -69 31 -69 70zM285 55c0 37 31 69 70 69c38 0 69 -31 69 -69c0 -39 -31 -70 -69 -70
c-39 0 -70 30 -70 70z" />
    <glyph glyph-name="Agrave" unicode="&#xc0;" horiz-adv-x="599" 
d="M25 0l218 616h110l224 -616h-105l-56 153h-232l-54 -153h-105zM298 476l-83 -234h169zM408 743l-38 -77l-197 92l42 85z" />
    <glyph glyph-name="Atilde" unicode="&#xc3;" horiz-adv-x="599" 
d="M25 0l218 616h110l224 -616h-105l-56 153h-232l-54 -153h-105zM298 476l-83 -234h169zM350 676c-57 0 -76 48 -116 48c-17 0 -40 -10 -59 -47l-49 54c40 68 74 89 115 89c42 0 67 -50 106 -50c23 0 50 18 68 55l49 -53c-30 -65 -67 -96 -114 -96z" />
    <glyph glyph-name="Otilde" unicode="&#xd5;" horiz-adv-x="686" 
d="M354 74c103 0 166 105 166 231c0 135 -62 238 -172 238c-117 0 -182 -98 -182 -227c0 -138 67 -242 188 -242zM354 -15c-195 0 -303 136 -303 331c0 178 108 315 297 315c182 0 287 -141 287 -326c0 -182 -103 -320 -281 -320zM399 676c-57 0 -76 48 -116 48
c-17 0 -40 -10 -59 -47l-49 54c40 68 74 89 115 89c42 0 67 -50 106 -50c23 0 50 18 68 55l49 -53c-30 -65 -67 -96 -114 -96z" />
    <glyph glyph-name="OE" unicode="&#x152;" horiz-adv-x="921" 
d="M863 616v-89h-256v-165h202v-89h-202v-184h270v-89h-375v31c-40 -30 -90 -46 -148 -46c-194 0 -303 138 -303 331c0 178 108 315 297 315c61 0 113 -18 154 -48v33h361zM354 74c70 0 121 38 148 101v261c-28 66 -80 107 -154 107c-120 0 -188 -98 -188 -227
c0 -138 71 -242 194 -242z" />
    <glyph glyph-name="oe" unicode="&#x153;" horiz-adv-x="838" 
d="M45 228c0 133 76 243 218 243c75 0 132 -30 169 -76c36 46 90 76 159 76c127 0 202 -100 202 -225c0 -19 0 -34 -1 -48h-307c9 -72 50 -128 134 -128c54 0 90 23 115 49l51 -53c-37 -46 -101 -81 -183 -81c-74 0 -132 28 -170 76c-37 -47 -94 -76 -168 -76
c-143 0 -219 110 -219 243zM152 228c0 -84 36 -158 112 -158c78 0 115 74 115 158c0 85 -37 158 -115 158c-76 0 -112 -73 -112 -158zM588 386c-53 0 -88 -47 -100 -107h202c-11 61 -51 107 -102 107z" />
    <glyph glyph-name="ydieresis" unicode="&#xff;" horiz-adv-x="488" 
d="M24 457h108l114 -320l112 320h106l-137 -380c-49 -126 -83 -266 -281 -266v84c87 0 119 47 146 105h-3zM89 600c0 37 31 69 70 69c38 0 69 -31 69 -69c0 -39 -31 -70 -69 -70c-39 0 -70 30 -70 70zM284 600c0 37 31 69 70 69c38 0 69 -31 69 -69c0 -39 -31 -70 -69 -70
c-39 0 -70 30 -70 70z" />
    <glyph glyph-name="Ydieresis" unicode="&#x178;" horiz-adv-x="528" 
d="M317 251v-251h-105v253l-190 363h113l130 -257l127 257h111zM112 740c0 39 31 70 70 70c38 0 69 -31 69 -70c0 -38 -31 -69 -69 -69c-40 0 -70 30 -70 69zM306 740c0 39 31 70 70 70c38 0 69 -31 69 -70c0 -38 -31 -69 -69 -69c-40 0 -70 30 -70 69z" />
    <glyph glyph-name="Acircumflex" unicode="&#xc2;" horiz-adv-x="599" 
d="M25 0l218 616h110l224 -616h-105l-56 153h-232l-54 -153h-105zM298 476l-83 -234h169zM318 830l120 -116l-50 -57l-87 87l-82 -87l-50 57l118 116h31z" />
    <glyph glyph-name="Ecircumflex" unicode="&#xca;" horiz-adv-x="505" 
d="M288 830l120 -116l-50 -57l-87 87l-82 -87l-50 57l118 116h31zM447 616v-89h-256v-165h202v-89h-202v-184h270v-89h-375v616h361z" />
    <glyph glyph-name="Aacute" unicode="&#xc1;" horiz-adv-x="599" 
d="M25 0l218 616h110l224 -616h-105l-56 153h-232l-54 -153h-105zM298 476l-83 -234h169zM228 666l-38 77l193 100l41 -85z" />
    <glyph glyph-name="Edieresis" unicode="&#xcb;" horiz-adv-x="505" 
d="M447 616v-89h-256v-165h202v-89h-202v-184h270v-89h-375v616h361zM102 740c0 39 31 70 70 70c38 0 69 -31 69 -70c0 -38 -31 -69 -69 -69c-40 0 -70 30 -70 69zM296 740c0 39 31 70 70 70c38 0 69 -31 69 -70c0 -38 -31 -69 -69 -69c-40 0 -70 30 -70 69z" />
    <glyph glyph-name="Egrave" unicode="&#xc8;" horiz-adv-x="505" 
d="M378 743l-38 -77l-197 92l42 85zM447 616v-89h-256v-165h202v-89h-202v-184h270v-89h-375v616h361z" />
    <glyph glyph-name="Iacute" unicode="&#xcd;" horiz-adv-x="277" 
d="M86 616h105v-616h-105v616zM61 666l-38 77l193 100l41 -85z" />
    <glyph glyph-name="Icircumflex" unicode="&#xce;" horiz-adv-x="277" 
d="M86 616h105v-616h-105v616zM156 830l120 -116l-50 -57l-87 87l-82 -87l-50 57l118 116h31z" />
    <glyph glyph-name="Idieresis" unicode="&#xcf;" horiz-adv-x="277" 
d="M86 616h105v-616h-105v616zM-29 740c0 39 31 70 70 70c38 0 69 -31 69 -70c0 -38 -31 -69 -69 -69c-40 0 -70 30 -70 69zM165 740c0 39 31 70 70 70c38 0 69 -31 69 -70c0 -38 -31 -69 -69 -69c-40 0 -70 30 -70 69z" />
    <glyph glyph-name="Igrave" unicode="&#xcc;" horiz-adv-x="277" 
d="M86 616h105v-616h-105v616zM248 743l-38 -77l-197 92l42 85z" />
    <glyph glyph-name="Oacute" unicode="&#xd3;" horiz-adv-x="686" 
d="M267 666l-38 77l193 100l41 -85zM354 74c103 0 166 105 166 231c0 135 -62 238 -172 238c-117 0 -182 -98 -182 -227c0 -138 67 -242 188 -242zM354 -15c-195 0 -303 136 -303 331c0 178 108 315 297 315c182 0 287 -141 287 -326c0 -182 -103 -320 -281 -320z" />
    <glyph glyph-name="Ocircumflex" unicode="&#xd4;" horiz-adv-x="686" 
d="M367 830l120 -116l-50 -57l-87 87l-82 -87l-50 57l118 116h31zM354 74c103 0 166 105 166 231c0 135 -62 238 -172 238c-117 0 -182 -98 -182 -227c0 -138 67 -242 188 -242zM354 -15c-195 0 -303 136 -303 331c0 178 108 315 297 315c182 0 287 -141 287 -326
c0 -182 -103 -320 -281 -320z" />
    <glyph glyph-name="Ograve" unicode="&#xd2;" horiz-adv-x="686" 
d="M457 743l-38 -77l-197 92l42 85zM354 74c103 0 166 105 166 231c0 135 -62 238 -172 238c-117 0 -182 -98 -182 -227c0 -138 67 -242 188 -242zM354 -15c-195 0 -303 136 -303 331c0 178 108 315 297 315c182 0 287 -141 287 -326c0 -182 -103 -320 -281 -320z" />
    <glyph glyph-name="Uacute" unicode="&#xda;" horiz-adv-x="643" 
d="M80 616h105v-398c0 -80 26 -144 135 -144c111 0 138 64 138 144v398h105v-399c0 -120 -48 -232 -243 -232c-189 0 -240 110 -240 232v399zM289 666l-38 77l193 100l41 -85z" />
    <glyph glyph-name="Ucircumflex" unicode="&#xdb;" horiz-adv-x="643" 
d="M353 830l120 -116l-50 -57l-87 87l-82 -87l-50 57l118 116h31zM80 616h105v-398c0 -80 26 -144 135 -144c111 0 138 64 138 144v398h105v-399c0 -120 -48 -232 -243 -232c-189 0 -240 110 -240 232v399z" />
    <glyph glyph-name="Ugrave" unicode="&#xd9;" horiz-adv-x="643" 
d="M434 743l-38 -77l-197 92l42 85zM80 616h105v-398c0 -80 26 -144 135 -144c111 0 138 64 138 144v398h105v-399c0 -120 -48 -232 -243 -232c-189 0 -240 110 -240 232v399z" />
    <glyph glyph-name="Amacron" unicode="&#x100;" horiz-adv-x="599" 
d="M25 0l218 616h110l224 -616h-105l-56 153h-232l-54 -153h-105zM298 476l-83 -234h169zM185 688v84h229v-84h-229z" />
    <glyph glyph-name="amacron" unicode="&#x101;" horiz-adv-x="468" 
d="M313 0l-11 51c-46 -41 -87 -66 -139 -66c-70 0 -124 37 -124 115c0 106 108 142 259 181v12c0 67 -44 92 -92 92c-41 0 -86 -14 -117 -32l-26 69c44 27 102 49 174 49c88 0 162 -43 162 -168v-303h-86zM194 77c35 0 66 16 104 43v90c-93 -24 -152 -41 -152 -92
c0 -28 22 -41 48 -41zM123 551v84h229v-84h-229z" />
    <glyph glyph-name="Abreve" unicode="&#x102;" horiz-adv-x="599" 
d="M25 0l218 616h110l224 -616h-105l-56 153h-232l-54 -153h-105zM298 476l-83 -234h169zM143 822l67 17c7 -43 44 -88 89 -88c46 0 82 41 96 89l62 -19c-17 -85 -71 -151 -159 -151c-94 0 -140 63 -155 152z" />
    <glyph glyph-name="abreve" unicode="&#x103;" horiz-adv-x="468" 
d="M313 0l-11 51c-46 -41 -87 -66 -139 -66c-70 0 -124 37 -124 115c0 106 108 142 259 181v12c0 67 -44 92 -92 92c-41 0 -86 -14 -117 -32l-26 69c44 27 102 49 174 49c88 0 162 -43 162 -168v-303h-86zM194 77c35 0 66 16 104 43v90c-93 -24 -152 -41 -152 -92
c0 -28 22 -41 48 -41zM83 692l66 16c7 -45 45 -92 90 -92s81 44 95 94l63 -19c-18 -88 -71 -156 -159 -156c-98 0 -143 80 -155 157z" />
    <glyph glyph-name="Aogonek" unicode="&#x104;" horiz-adv-x="599" 
d="M553 -111l24 -51c-34 -22 -59 -28 -87 -28c-67 0 -103 42 -103 104c0 44 25 77 73 104l-49 135h-222l-54 -153h-110l218 616h110l224 -616h-5c-76 -28 -114 -58 -114 -87c0 -24 16 -39 38 -39c15 0 32 2 57 15zM298 463l-78 -221h159z" />
    <glyph glyph-name="aogonek" unicode="&#x105;" horiz-adv-x="468" 
d="M379 -111l24 -51c-34 -22 -59 -28 -87 -28c-67 0 -103 42 -103 104c0 49 32 85 94 115l-5 22c-46 -41 -87 -66 -139 -66c-70 0 -124 37 -124 115c0 106 108 142 259 181v12c0 67 -44 92 -92 92c-41 0 -86 -14 -117 -32l-26 69c44 27 102 49 174 49c88 0 162 -43 162 -168
v-303h-1c-76 -28 -114 -58 -114 -87c0 -24 16 -39 38 -39c15 0 32 2 57 15zM194 77c35 0 66 16 104 43v90c-93 -24 -152 -41 -152 -92c0 -28 22 -41 48 -41z" />
    <glyph glyph-name="Cacute" unicode="&#x106;" horiz-adv-x="599" 
d="M563 564l-44 -73c-36 30 -85 51 -159 51c-125 0 -193 -106 -193 -236s66 -232 190 -232c74 0 124 19 159 52l44 -73c-47 -42 -117 -68 -208 -68c-205 0 -301 146 -301 321c0 180 108 325 304 325c91 0 161 -26 208 -67zM279 666l-38 77l193 100l41 -85z" />
    <glyph glyph-name="cacute" unicode="&#x107;" horiz-adv-x="461" 
d="M208 515l-50 69l172 137l52 -74zM45 229c0 131 79 242 226 242c71 0 123 -22 158 -56l-43 -68c-27 23 -58 39 -104 39c-89 0 -130 -75 -130 -157s40 -159 127 -159c51 0 82 15 105 38l42 -67c-34 -34 -86 -56 -158 -56c-147 0 -223 115 -223 244z" />
    <glyph glyph-name="Ccircumflex" unicode="&#x108;" horiz-adv-x="599" 
d="M563 564l-44 -73c-36 30 -85 51 -159 51c-125 0 -193 -106 -193 -236s66 -232 190 -232c74 0 124 19 159 52l44 -73c-47 -42 -117 -68 -208 -68c-205 0 -301 146 -301 321c0 180 108 325 304 325c91 0 161 -26 208 -67zM374 830l120 -116l-50 -57l-87 87l-82 -87l-50 57
l118 116h31z" />
    <glyph glyph-name="ccircumflex" unicode="&#x109;" horiz-adv-x="461" 
d="M126 569l121 131h31l121 -131l-52 -53l-84 86l-85 -86zM45 229c0 131 79 242 226 242c71 0 123 -22 158 -56l-43 -68c-27 23 -58 39 -104 39c-89 0 -130 -75 -130 -157s40 -159 127 -159c51 0 82 15 105 38l42 -67c-34 -34 -86 -56 -158 -56c-147 0 -223 115 -223 244z
" />
    <glyph glyph-name="Cdotaccent" unicode="&#x10a;" horiz-adv-x="599" 
d="M273 749c0 39 31 70 70 70s70 -31 70 -70s-31 -70 -70 -70s-70 31 -70 70zM563 564l-44 -73c-36 30 -85 51 -159 51c-125 0 -193 -106 -193 -236s66 -232 190 -232c74 0 124 19 159 52l44 -73c-47 -42 -117 -68 -208 -68c-205 0 -301 146 -301 321c0 180 108 325 304 325
c91 0 161 -26 208 -67z" />
    <glyph glyph-name="cdotaccent" unicode="&#x10b;" horiz-adv-x="461" 
d="M45 229c0 131 79 242 226 242c71 0 123 -22 158 -56l-43 -68c-27 23 -58 39 -104 39c-89 0 -130 -75 -130 -157s40 -159 127 -159c51 0 82 15 105 38l42 -67c-34 -34 -86 -56 -158 -56c-147 0 -223 115 -223 244zM185 618c0 38 31 69 69 69c39 0 70 -31 70 -69
c0 -39 -31 -70 -70 -70c-38 0 -69 31 -69 70z" />
    <glyph glyph-name="Ccaron" unicode="&#x10c;" horiz-adv-x="599" 
d="M563 564l-44 -73c-36 30 -85 51 -159 51c-125 0 -193 -106 -193 -236s66 -232 190 -232c74 0 124 19 159 52l44 -73c-47 -42 -117 -68 -208 -68c-205 0 -301 146 -301 321c0 180 108 325 304 325c91 0 161 -26 208 -67zM337 657l-130 116l50 57l96 -86l93 86l50 -56
l-128 -117h-31z" />
    <glyph glyph-name="ccaron" unicode="&#x10d;" horiz-adv-x="461" 
d="M239 515l-121 131l52 54l87 -96l82 95l52 -52l-121 -132h-31zM45 229c0 131 79 242 226 242c71 0 123 -22 158 -56l-43 -68c-27 23 -58 39 -104 39c-89 0 -130 -75 -130 -157s40 -159 127 -159c51 0 82 15 105 38l42 -67c-34 -34 -86 -56 -158 -56
c-147 0 -223 115 -223 244z" />
    <glyph glyph-name="Dcaron" unicode="&#x10e;" horiz-adv-x="641" 
d="M191 527v-438h65c118 0 218 63 218 211c0 159 -100 227 -218 227h-65zM86 0v616h175c187 0 328 -101 328 -316c0 -206 -141 -300 -328 -300h-175zM279 657l-130 116l50 57l96 -86l93 86l50 -56l-128 -117h-31z" />
    <glyph glyph-name="dcaron" unicode="&#x10f;" horiz-adv-x="618" 
d="M545 372l-32 34c35 29 52 52 59 86c-1 -1 -3 -1 -5 -1c-38 0 -69 31 -69 70s31 70 69 70c42 0 70 -40 70 -95c0 -60 -35 -122 -92 -164zM351 652l101 10v-662h-72l-13 55c-38 -44 -88 -70 -141 -70c-114 0 -180 108 -180 236c0 136 63 250 195 250c40 0 78 -14 110 -38
v219zM252 70c46 0 73 21 99 53v230c-21 20 -51 33 -88 33c-78 0 -110 -79 -110 -167c0 -81 32 -149 99 -149z" />
    <glyph glyph-name="Dcroat" unicode="&#x110;" horiz-adv-x="647" 
d="M31 269v89h61v258h175c187 0 328 -101 328 -316c0 -206 -141 -300 -328 -300h-175v269h-61zM197 527v-169h137v-89h-137v-180h65c118 0 218 63 218 211c0 159 -100 227 -218 227h-65z" />
    <glyph glyph-name="dcroat" unicode="&#x111;" horiz-adv-x="525" 
d="M215 516v62h280v-62h-280zM351 652l101 10v-662h-72l-13 55c-38 -44 -88 -70 -141 -70c-114 0 -180 108 -180 236c0 136 63 250 195 250c40 0 78 -14 110 -38v219zM252 70c46 0 73 21 99 53v230c-21 20 -51 33 -88 33c-78 0 -110 -79 -110 -167c0 -81 32 -149 99 -149z
" />
    <glyph glyph-name="Emacron" unicode="&#x112;" horiz-adv-x="505" 
d="M447 616v-89h-256v-165h202v-89h-202v-184h270v-89h-375v616h361zM160 688v84h229v-84h-229z" />
    <glyph glyph-name="emacron" unicode="&#x113;" horiz-adv-x="503" 
d="M457 198h-307c9 -72 50 -128 134 -128c54 0 90 23 115 49l51 -53c-37 -46 -101 -81 -183 -81c-141 0 -222 104 -222 243c0 133 78 243 211 243c127 0 202 -100 202 -225c0 -19 0 -34 -1 -48zM253 386c-53 0 -88 -47 -100 -107h202c-11 61 -51 107 -102 107zM141 551v84
h229v-84h-229z" />
    <glyph glyph-name="Ebreve" unicode="&#x114;" horiz-adv-x="505" 
d="M447 616v-89h-256v-165h202v-89h-202v-184h270v-89h-375v616h361zM103 822l67 17c7 -43 44 -88 89 -88c46 0 82 41 96 89l62 -19c-17 -85 -71 -151 -159 -151c-94 0 -140 63 -155 152z" />
    <glyph glyph-name="ebreve" unicode="&#x115;" horiz-adv-x="503" 
d="M457 198h-307c9 -72 50 -128 134 -128c54 0 90 23 115 49l51 -53c-37 -46 -101 -81 -183 -81c-141 0 -222 104 -222 243c0 133 78 243 211 243c127 0 202 -100 202 -225c0 -19 0 -34 -1 -48zM253 386c-53 0 -88 -47 -100 -107h202c-11 61 -51 107 -102 107zM98 692l66 16
c7 -45 45 -92 90 -92s81 44 95 94l63 -19c-18 -88 -71 -156 -159 -156c-98 0 -143 80 -155 157z" />
    <glyph glyph-name="Edotaccent" unicode="&#x116;" horiz-adv-x="505" 
d="M186 749c0 39 31 70 70 70s70 -31 70 -70s-31 -70 -70 -70s-70 31 -70 70zM447 616v-89h-256v-165h202v-89h-202v-184h270v-89h-375v616h361z" />
    <glyph glyph-name="edotaccent" unicode="&#x117;" horiz-adv-x="503" 
d="M457 198h-307c9 -72 50 -128 134 -128c54 0 90 23 115 49l51 -53c-37 -46 -101 -81 -183 -81c-141 0 -222 104 -222 243c0 133 78 243 211 243c127 0 202 -100 202 -225c0 -19 0 -34 -1 -48zM253 386c-53 0 -88 -47 -100 -107h202c-11 61 -51 107 -102 107zM191 618
c0 38 31 69 69 69c39 0 70 -31 70 -69c0 -39 -31 -70 -70 -70c-38 0 -69 31 -69 70z" />
    <glyph glyph-name="Eogonek" unicode="&#x118;" horiz-adv-x="505" 
d="M447 616v-89h-256v-165h202v-89h-202v-184h270v-89h-27c-74 -27 -111 -57 -111 -86c0 -24 16 -39 38 -39c15 0 32 2 57 15l24 -51c-34 -22 -59 -28 -87 -28c-67 0 -103 42 -103 104c0 34 15 62 44 85h-210v616h361z" />
    <glyph glyph-name="eogonek" unicode="&#x119;" horiz-adv-x="503" 
d="M457 198h-307c9 -72 50 -128 134 -128c54 0 90 23 115 49l51 -53c-18 -23 -43 -43 -74 -57l1 -2c-76 -28 -114 -58 -114 -87c0 -24 16 -39 38 -39c15 0 32 2 57 15l24 -51c-34 -22 -59 -28 -87 -28c-67 0 -103 42 -103 104c0 26 9 49 27 68c-111 21 -174 116 -174 239
c0 133 78 243 211 243c127 0 202 -100 202 -225c0 -19 0 -34 -1 -48zM253 386c-53 0 -88 -47 -100 -107h202c-11 61 -51 107 -102 107z" />
    <glyph glyph-name="Ecaron" unicode="&#x11a;" horiz-adv-x="505" 
d="M447 616v-89h-256v-165h202v-89h-202v-184h270v-89h-375v616h361zM245 657l-130 116l50 57l96 -86l93 86l50 -56l-128 -117h-31z" />
    <glyph glyph-name="ecaron" unicode="&#x11b;" horiz-adv-x="503" 
d="M235 515l-121 131l52 54l87 -96l82 95l52 -52l-121 -132h-31zM457 198h-307c9 -72 50 -128 134 -128c54 0 90 23 115 49l51 -53c-37 -46 -101 -81 -183 -81c-141 0 -222 104 -222 243c0 133 78 243 211 243c127 0 202 -100 202 -225c0 -19 0 -34 -1 -48zM253 386
c-53 0 -88 -47 -100 -107h202c-11 61 -51 107 -102 107z" />
    <glyph glyph-name="Gcircumflex" unicode="&#x11c;" horiz-adv-x="630" 
d="M385 830l120 -116l-50 -57l-87 87l-82 -87l-50 57l118 116h31zM462 302h105v-254c-46 -39 -115 -63 -205 -63c-192 0 -312 131 -312 321c0 180 113 325 315 325c89 0 157 -26 203 -67l-44 -73c-36 30 -85 51 -159 51c-129 0 -200 -106 -200 -236s73 -232 207 -232
c35 0 65 5 90 15v213z" />
    <glyph glyph-name="gcircumflex" unicode="&#x11d;" horiz-adv-x="499" 
d="M91 569l121 131h31l121 -131l-52 -53l-84 86l-85 -86zM53 315c0 98 82 156 185 156c57 0 108 -17 142 -48l91 61v-89l-56 -18c8 -18 13 -39 13 -62c0 -98 -84 -154 -190 -154c-16 0 -32 1 -48 4c-14 -13 -24 -29 -24 -44c0 -21 6 -40 45 -40h137c66 0 112 -37 112 -105
c0 -95 -104 -165 -226 -165c-99 0 -201 22 -201 103c0 46 32 78 67 102c-31 17 -40 44 -40 65c0 46 29 74 66 108c-44 26 -73 69 -73 126zM154 315c0 -51 32 -85 86 -85s87 34 87 85s-33 88 -87 88s-86 -37 -86 -88zM177 0h-12c-19 -13 -35 -33 -35 -56c0 -36 30 -52 94 -52
c67 0 128 24 128 63c0 26 -12 46 -48 45h-127z" />
    <glyph glyph-name="Gbreve" unicode="&#x11e;" horiz-adv-x="630" 
d="M462 302h105v-254c-46 -39 -115 -63 -205 -63c-192 0 -312 131 -312 321c0 180 113 325 315 325c89 0 157 -26 203 -67l-44 -73c-36 30 -85 51 -159 51c-129 0 -200 -106 -200 -236s73 -232 207 -232c35 0 65 5 90 15v213zM200 822l67 17c7 -43 44 -88 89 -88
c46 0 82 41 96 89l62 -19c-17 -85 -71 -151 -159 -151c-94 0 -140 63 -155 152z" />
    <glyph glyph-name="gbreve" unicode="&#x11f;" horiz-adv-x="499" 
d="M53 315c0 98 82 156 185 156c57 0 108 -17 142 -48l91 61v-89l-56 -18c8 -18 13 -39 13 -62c0 -98 -84 -154 -190 -154c-16 0 -32 1 -48 4c-14 -13 -24 -29 -24 -44c0 -21 6 -40 45 -40h137c66 0 112 -37 112 -105c0 -95 -104 -165 -226 -165c-99 0 -201 22 -201 103
c0 46 32 78 67 102c-31 17 -40 44 -40 65c0 46 29 74 66 108c-44 26 -73 69 -73 126zM154 315c0 -51 32 -85 86 -85s87 34 87 85s-33 88 -87 88s-86 -37 -86 -88zM177 0h-12c-19 -13 -35 -33 -35 -56c0 -36 30 -52 94 -52c67 0 128 24 128 63c0 26 -12 46 -48 45h-127z
M66 692l66 16c7 -45 45 -92 90 -92s81 44 95 94l63 -19c-18 -88 -71 -156 -159 -156c-98 0 -143 80 -155 157z" />
    <glyph glyph-name="Gdotaccent" unicode="&#x120;" horiz-adv-x="630" 
d="M287 749c0 39 31 70 70 70s70 -31 70 -70s-31 -70 -70 -70s-70 31 -70 70zM462 302h105v-254c-46 -39 -115 -63 -205 -63c-192 0 -312 131 -312 321c0 180 113 325 315 325c89 0 157 -26 203 -67l-44 -73c-36 30 -85 51 -159 51c-129 0 -200 -106 -200 -236
s73 -232 207 -232c35 0 65 5 90 15v213z" />
    <glyph glyph-name="gdotaccent" unicode="&#x121;" horiz-adv-x="499" 
d="M53 315c0 98 82 156 185 156c57 0 108 -17 142 -48l91 61v-89l-56 -18c8 -18 13 -39 13 -62c0 -98 -84 -154 -190 -154c-16 0 -32 1 -48 4c-14 -13 -24 -29 -24 -44c0 -21 6 -40 45 -40h137c66 0 112 -37 112 -105c0 -95 -104 -165 -226 -165c-99 0 -201 22 -201 103
c0 46 32 78 67 102c-31 17 -40 44 -40 65c0 46 29 74 66 108c-44 26 -73 69 -73 126zM154 315c0 -51 32 -85 86 -85s87 34 87 85s-33 88 -87 88s-86 -37 -86 -88zM177 0h-12c-19 -13 -35 -33 -35 -56c0 -36 30 -52 94 -52c67 0 128 24 128 63c0 26 -12 46 -48 45h-127z
M153 618c0 38 31 69 69 69c39 0 70 -31 70 -69c0 -39 -31 -70 -70 -70c-38 0 -69 31 -69 70z" />
    <glyph glyph-name="uni0122" unicode="&#x122;" horiz-adv-x="630" 
d="M339 -325l-32 34c36 30 52 52 60 86h-5c-39 0 -70 31 -70 69c0 39 31 70 70 70c42 0 70 -40 70 -95c-1 -60 -35 -122 -93 -164zM462 302h105v-254c-46 -39 -115 -63 -205 -63c-192 0 -312 131 -312 321c0 180 113 325 315 325c89 0 157 -26 203 -67l-44 -73
c-36 30 -85 51 -159 51c-129 0 -200 -106 -200 -236s73 -232 207 -232c35 0 65 5 90 15v213z" />
    <glyph glyph-name="uni0123" unicode="&#x123;" horiz-adv-x="499" 
d="M249 782l32 -34c-36 -30 -52 -52 -60 -86h5c39 0 70 -31 70 -69c0 -39 -31 -70 -70 -70c-42 0 -70 40 -70 95c1 60 35 122 93 164zM53 315c0 98 82 156 185 156c57 0 108 -17 142 -48l91 61v-89l-56 -18c8 -18 13 -39 13 -62c0 -98 -84 -154 -190 -154c-16 0 -32 1 -48 4
c-14 -13 -24 -29 -24 -44c0 -21 6 -40 45 -40h137c66 0 112 -37 112 -105c0 -95 -104 -165 -226 -165c-99 0 -201 22 -201 103c0 46 32 78 67 102c-31 17 -40 44 -40 65c0 46 29 74 66 108c-44 26 -73 69 -73 126zM154 315c0 -51 32 -85 86 -85s87 34 87 85s-33 88 -87 88
s-86 -37 -86 -88zM177 0h-12c-19 -13 -35 -33 -35 -56c0 -36 30 -52 94 -52c67 0 128 24 128 63c0 26 -12 46 -48 45h-127z" />
    <glyph glyph-name="Hcircumflex" unicode="&#x124;" horiz-adv-x="650" 
d="M459 616h105v-616h-105v277h-268v-277h-105v616h105v-250h268v250zM339 830l120 -116l-50 -57l-87 87l-82 -87l-50 57l118 116h31z" />
    <glyph glyph-name="hcircumflex" unicode="&#x125;" 
d="M452 0h-101v310c0 53 -29 76 -66 76c-39 0 -80 -22 -111 -55v-331h-101v647l101 15v-242c38 31 83 51 136 51c76 0 142 -36 142 -147v-324zM281 855l120 -116l-50 -57l-87 87l-82 -87l-50 57l118 116h31z" />
    <glyph glyph-name="Hbar" unicode="&#x126;" horiz-adv-x="660" 
d="M464 616h105v-96h61v-63h-61v-457h-105v277h-268v-277h-105v457h-62v63h62v96h105v-96h268v96zM196 366h268v91h-268v-91z" />
    <glyph glyph-name="Itilde" unicode="&#x128;" horiz-adv-x="277" 
d="M86 616h105v-616h-105v616zM188 676c-57 0 -76 48 -116 48c-17 0 -40 -10 -59 -47l-49 54c40 68 74 89 115 89c42 0 67 -50 106 -50c23 0 50 18 68 55l49 -53c-30 -65 -67 -96 -114 -96z" />
    <glyph glyph-name="itilde" unicode="&#x129;" horiz-adv-x="248" 
d="M175 0h-102v447l102 15v-462zM175 531c-53 0 -72 43 -109 43c-15 0 -37 -10 -54 -47l-49 54c35 64 66 85 102 85c43 0 68 -45 107 -45c18 0 41 17 55 55l49 -54c-27 -61 -60 -91 -101 -91z" />
    <glyph glyph-name="Imacron" unicode="&#x12a;" horiz-adv-x="277" 
d="M86 616h105v-616h-105v616zM23 710v84h229v-84h-229z" />
    <glyph glyph-name="imacron" unicode="&#x12b;" horiz-adv-x="248" 
d="M175 0h-102v447l102 15v-462zM12 551v84h229v-84h-229z" />
    <glyph glyph-name="Iogonek" unicode="&#x12e;" horiz-adv-x="279" 
d="M172 -110l24 -51c-34 -22 -59 -28 -87 -28c-67 0 -103 42 -103 104c0 46 28 81 82 109v592h105v-616h-5c-74 -27 -111 -57 -111 -86c0 -24 16 -39 38 -39c15 0 32 2 57 15z" />
    <glyph glyph-name="iogonek" unicode="&#x12f;" horiz-adv-x="250" 
d="M157 -110l24 -51c-34 -22 -59 -28 -87 -28c-67 0 -103 42 -103 104c0 47 29 82 85 110v422l101 15v-462h-4c-74 -27 -111 -57 -111 -86c0 -24 16 -39 38 -39c15 0 32 2 57 15zM61 605c0 37 29 66 66 66s67 -29 67 -66s-30 -67 -67 -67s-66 29 -66 67z" />
    <glyph glyph-name="Idotaccent" unicode="&#x130;" horiz-adv-x="277" 
d="M86 616h105v-616h-105v616zM64 749c0 39 31 70 70 70s70 -31 70 -70s-31 -70 -70 -70s-70 31 -70 70z" />
    <glyph glyph-name="hbar" unicode="&#x127;" 
d="M27 516v62h46v69l101 15v-84h133v-62h-133v-96c38 31 83 51 136 51c76 0 142 -36 142 -147v-324h-101v310c0 53 -29 76 -66 76c-39 0 -80 -22 -111 -55v-331h-101v516h-46z" />
    <glyph glyph-name="IJ" unicode="&#x132;" horiz-adv-x="554" 
d="M86 616h105v-616h-105v616zM363 616h105v-559c0 -144 -36 -206 -200 -245l-24 85c95 23 119 60 119 156v563z" />
    <glyph glyph-name="ij" unicode="&#x133;" horiz-adv-x="494" 
d="M174 0h-101v447l101 15v-462zM58 605c0 37 29 66 66 66s67 -29 67 -66s-30 -67 -67 -67s-66 29 -66 67zM320 447l101 15v-405c0 -144 -32 -206 -196 -245l-23 83c95 24 118 62 118 158v394zM305 605c0 37 29 66 66 66s67 -29 67 -66s-30 -67 -67 -67s-66 29 -66 67z" />
    <glyph glyph-name="Jcircumflex" unicode="&#x134;" horiz-adv-x="277" 
d="M86 616h105v-559c0 -144 -36 -206 -200 -245l-24 85c95 23 119 60 119 156v563zM154 830l120 -116l-50 -57l-87 87l-82 -87l-50 57l118 116h31z" />
    <glyph glyph-name="jcircumflex" unicode="&#x135;" horiz-adv-x="248" 
d="M73 447l102 15v-405c0 -144 -33 -206 -197 -245l-23 83c95 24 118 62 118 158v394zM-12 569l121 131h31l121 -131l-52 -53l-84 86l-85 -86z" />
    <glyph glyph-name="uni0136" unicode="&#x136;" horiz-adv-x="566" 
d="M546 0h-123l-176 268h-57v-268h-104v616h104v-260h52l176 260h120l-202 -300zM266 -325l-32 34c35 30 52 52 59 86h-5c-38 0 -69 31 -69 69c0 39 31 70 69 70c42 0 70 -40 70 -95c0 -60 -35 -122 -92 -164z" />
    <glyph glyph-name="uni0137" unicode="&#x137;" horiz-adv-x="493" 
d="M471 0h-118l-126 212h-53v-212h-101v647l101 15v-365h54l116 160h119l-147 -200zM224 -325l-32 34c36 30 52 52 60 86h-5c-39 0 -70 31 -70 69c0 39 31 70 70 70c42 0 70 -40 70 -95c-1 -60 -35 -122 -93 -164z" />
    <glyph glyph-name="kgreenlandic" unicode="&#x138;" horiz-adv-x="492" 
d="M471 0h-118l-134 210h-44v-210h-102v459l102 5v-167h43l126 160h119l-160 -200z" />
    <glyph glyph-name="Lacute" unicode="&#x139;" horiz-adv-x="479" 
d="M68 671l-38 77l193 100l41 -85zM450 89v-89h-364v616h105v-527h259z" />
    <glyph glyph-name="lacute" unicode="&#x13a;" horiz-adv-x="249" 
d="M55 666l-38 77l193 100l41 -85zM74 647l101 15v-662h-101v647z" />
    <glyph glyph-name="uni013B" unicode="&#x13b;" horiz-adv-x="479" 
d="M247 -325l-32 34c36 30 52 52 60 86h-5c-39 0 -70 31 -70 69c0 39 31 70 70 70c42 0 70 -40 70 -95c-1 -60 -35 -122 -93 -164zM450 89v-89h-364v616h105v-527h259z" />
    <glyph glyph-name="uni013C" unicode="&#x13c;" horiz-adv-x="249" 
d="M105 -325l-32 34c36 30 52 52 60 86h-5c-39 0 -70 31 -70 69c0 39 31 70 70 70c42 0 70 -40 70 -95c-1 -60 -35 -122 -93 -164zM74 647l101 15v-662h-101v647z" />
    <glyph glyph-name="Lcaron" unicode="&#x13d;" horiz-adv-x="479" 
d="M450 89v-89h-364v616h105v-527h259zM127 657l-130 116l50 57l96 -86l93 86l50 -56l-128 -117h-31z" />
    <glyph glyph-name="lcaron" unicode="&#x13e;" horiz-adv-x="341" 
d="M268 372l-32 34c35 29 52 52 59 86c-1 -1 -3 -1 -5 -1c-38 0 -69 31 -69 70s31 70 69 70c42 0 70 -40 70 -95c0 -60 -35 -122 -92 -164zM74 647l101 15v-662h-101v647z" />
    <glyph glyph-name="Ldot" unicode="&#x13f;" horiz-adv-x="500" 
d="M450 89v-89h-364v616h105v-527h259zM303 336c0 40 32 70 70 70c39 0 70 -31 70 -70c0 -38 -31 -69 -70 -69s-70 30 -70 69z" />
    <glyph glyph-name="ldot" unicode="&#x140;" horiz-adv-x="361" 
d="M74 647l101 15v-662h-101v647zM235 292c0 40 32 70 70 70c39 0 70 -31 70 -70c0 -38 -31 -69 -70 -69s-70 30 -70 69z" />
    <glyph glyph-name="Lslash" unicode="&#x141;" horiz-adv-x="487" 
d="M31 191v90l298 196v-90zM458 89v-89h-364v616h105v-527h259z" />
    <glyph glyph-name="lslash" unicode="&#x142;" horiz-adv-x="289" 
d="M257 472v-90l-226 -152v90zM93 647l101 15v-662h-101v647z" />
    <glyph glyph-name="Nacute" unicode="&#x143;" horiz-adv-x="660" 
d="M281 666l-38 77l193 100l41 -85zM469 616h105v-616h-91l-292 423v-423h-105v616h91l292 -430v430z" />
    <glyph glyph-name="nacute" unicode="&#x144;" horiz-adv-x="520" 
d="M216 515l-50 69l172 137l52 -74zM173 0h-101v450l73 12l15 -53c41 38 90 62 149 62c76 0 142 -36 142 -147v-324h-101v310c0 53 -29 76 -66 76c-39 0 -80 -22 -111 -55v-331z" />
    <glyph glyph-name="uni0145" unicode="&#x145;" horiz-adv-x="660" 
d="M307 -325l-32 34c36 30 52 52 60 86h-5c-39 0 -70 31 -70 69c0 39 31 70 70 70c42 0 70 -40 70 -95c-1 -60 -35 -122 -93 -164zM469 616h105v-616h-91l-292 423v-423h-105v616h91l292 -430v430z" />
    <glyph glyph-name="uni0146" unicode="&#x146;" horiz-adv-x="520" 
d="M237 -325l-32 34c36 30 52 52 60 86h-5c-39 0 -70 31 -70 69c0 39 31 70 70 70c42 0 70 -40 70 -95c-1 -60 -35 -122 -93 -164zM173 0h-101v450l73 12l15 -53c41 38 90 62 149 62c76 0 142 -36 142 -147v-324h-101v310c0 53 -29 76 -66 76c-39 0 -80 -22 -111 -55v-331z
" />
    <glyph glyph-name="Ncaron" unicode="&#x147;" horiz-adv-x="660" 
d="M469 616h105v-616h-91l-292 423v-423h-105v616h91l292 -430v430zM319 657l-130 116l50 57l96 -86l93 86l50 -56l-128 -117h-31z" />
    <glyph glyph-name="ncaron" unicode="&#x148;" horiz-adv-x="520" 
d="M252 515l-121 131l52 54l87 -96l82 95l52 -52l-121 -132h-31zM173 0h-101v450l73 12l15 -53c41 38 90 62 149 62c76 0 142 -36 142 -147v-324h-101v310c0 53 -29 76 -66 76c-39 0 -80 -22 -111 -55v-331z" />
    <glyph glyph-name="napostrophe" unicode="&#x149;" horiz-adv-x="631" 
d="M63 372l-32 34c35 29 52 52 59 86c-1 -1 -3 -1 -5 -1c-38 0 -69 31 -69 70s31 70 69 70c42 0 70 -40 70 -95c0 -60 -35 -122 -92 -164zM284 0h-101v450l73 12l15 -53c41 38 90 62 149 62c76 0 142 -36 142 -147v-324h-101v310c0 53 -29 76 -66 76c-39 0 -80 -22 -111 -55
v-331z" />
    <glyph glyph-name="Omacron" unicode="&#x14c;" horiz-adv-x="686" 
d="M354 74c103 0 166 105 166 231c0 135 -62 238 -172 238c-117 0 -182 -98 -182 -227c0 -138 67 -242 188 -242zM354 -15c-195 0 -303 136 -303 331c0 178 108 315 297 315c182 0 287 -141 287 -326c0 -182 -103 -320 -281 -320zM234 688v84h229v-84h-229z" />
    <glyph glyph-name="omacron" unicode="&#x14d;" horiz-adv-x="531" 
d="M148 551v84h229v-84h-229zM45 228c0 133 76 243 218 243c145 0 223 -110 223 -243c0 -131 -77 -243 -222 -243c-143 0 -219 110 -219 243zM152 228c0 -84 36 -158 112 -158c78 0 115 74 115 158c0 85 -37 158 -115 158c-76 0 -112 -73 -112 -158z" />
    <glyph glyph-name="Obreve" unicode="&#x14e;" horiz-adv-x="686" 
d="M354 74c103 0 166 105 166 231c0 135 -62 238 -172 238c-117 0 -182 -98 -182 -227c0 -138 67 -242 188 -242zM354 -15c-195 0 -303 136 -303 331c0 178 108 315 297 315c182 0 287 -141 287 -326c0 -182 -103 -320 -281 -320zM192 822l67 17c7 -43 44 -88 89 -88
c46 0 82 41 96 89l62 -19c-17 -85 -71 -151 -159 -151c-94 0 -140 63 -155 152z" />
    <glyph glyph-name="obreve" unicode="&#x14f;" horiz-adv-x="531" 
d="M45 228c0 133 76 243 218 243c145 0 223 -110 223 -243c0 -131 -77 -243 -222 -243c-143 0 -219 110 -219 243zM152 228c0 -84 36 -158 112 -158c78 0 115 74 115 158c0 85 -37 158 -115 158c-76 0 -112 -73 -112 -158zM103 692l66 16c7 -45 45 -92 90 -92s81 44 95 94
l63 -19c-18 -88 -71 -156 -159 -156c-98 0 -143 80 -155 157z" />
    <glyph glyph-name="Ohungarumlaut" unicode="&#x150;" horiz-adv-x="686" 
d="M292 683l-74 36l82 175l81 -41zM446 683l-74 36l83 175l80 -41zM354 74c103 0 166 105 166 231c0 135 -62 238 -172 238c-117 0 -182 -98 -182 -227c0 -138 67 -242 188 -242zM354 -15c-195 0 -303 136 -303 331c0 178 108 315 297 315c182 0 287 -141 287 -326
c0 -182 -103 -320 -281 -320z" />
    <glyph glyph-name="ohungarumlaut" unicode="&#x151;" horiz-adv-x="531" 
d="M213 524l-74 36l82 175l81 -41zM367 524l-74 36l83 175l80 -41zM45 228c0 133 76 243 218 243c145 0 223 -110 223 -243c0 -131 -77 -243 -222 -243c-143 0 -219 110 -219 243zM152 228c0 -84 36 -158 112 -158c78 0 115 74 115 158c0 85 -37 158 -115 158
c-76 0 -112 -73 -112 -158z" />
    <glyph glyph-name="Racute" unicode="&#x154;" horiz-adv-x="559" 
d="M526 0h-119l-129 234h-10h-77v-234h-105v616h164c162 0 233 -77 233 -188c0 -75 -36 -138 -102 -171zM254 527h-63v-204h68c72 0 109 43 109 103c0 58 -27 101 -114 101zM208 666l-38 77l193 100l41 -85z" />
    <glyph glyph-name="racute" unicode="&#x155;" horiz-adv-x="364" 
d="M143 509l-50 69l172 137l52 -74zM172 0h-101v447l86 13l11 -89c38 62 81 100 138 100c14 0 25 0 39 -6l-2 -92c-14 5 -27 8 -42 8c-49 0 -92 -27 -129 -83v-298z" />
    <glyph glyph-name="uni0156" unicode="&#x156;" horiz-adv-x="559" 
d="M526 0h-119l-129 234h-10h-77v-234h-105v616h164c162 0 233 -77 233 -188c0 -75 -36 -138 -102 -171zM254 527h-63v-204h68c72 0 109 43 109 103c0 58 -27 101 -114 101zM271 -325l-32 34c36 30 52 52 60 86h-5c-39 0 -70 31 -70 69c0 39 31 70 70 70c42 0 70 -40 70 -95
c-1 -60 -35 -122 -93 -164z" />
    <glyph glyph-name="uni0157" unicode="&#x157;" horiz-adv-x="364" 
d="M172 0h-101v447l86 13l11 -89c38 62 81 100 138 100c14 0 25 0 39 -6l-2 -92c-14 5 -27 8 -42 8c-49 0 -92 -27 -129 -83v-298zM97 -325l-32 34c36 30 52 52 60 86h-5c-39 0 -70 31 -70 69c0 39 31 70 70 70c42 0 70 -40 70 -95c-1 -60 -35 -122 -93 -164z" />
    <glyph glyph-name="Rcaron" unicode="&#x158;" horiz-adv-x="559" 
d="M526 0h-119l-129 234h-10h-77v-234h-105v616h164c162 0 233 -77 233 -188c0 -75 -36 -138 -102 -171zM254 527h-63v-204h68c72 0 109 43 109 103c0 58 -27 101 -114 101zM236 657l-130 116l50 57l96 -86l93 86l50 -56l-128 -117h-31z" />
    <glyph glyph-name="rcaron" unicode="&#x159;" horiz-adv-x="364" 
d="M194 509l-121 131l52 54l87 -96l82 95l52 -52l-121 -132h-31zM172 0h-101v447l86 13l11 -89c38 62 81 100 138 100c14 0 25 0 39 -6l-2 -92c-14 5 -27 8 -42 8c-49 0 -92 -27 -129 -83v-298z" />
    <glyph glyph-name="Sacute" unicode="&#x15a;" horiz-adv-x="496" 
d="M45 43l32 84c55 -31 116 -53 163 -53c55 0 93 22 93 78c0 128 -275 130 -275 316c0 62 40 163 194 163c65 0 111 -13 176 -43l-25 -85c-60 28 -105 39 -144 39c-77 0 -90 -45 -90 -71c0 -119 283 -130 283 -317c0 -116 -95 -168 -211 -168c-78 0 -131 24 -196 57z
M199 666l-38 77l193 100l41 -85z" />
    <glyph glyph-name="sacute" unicode="&#x15b;" horiz-adv-x="427" 
d="M174 515l-50 69l172 137l52 -74zM366 440l-16 -78c-50 23 -89 30 -116 30c-30 0 -62 -10 -62 -43c0 -59 215 -106 215 -230c0 -84 -73 -134 -175 -134c-66 0 -118 21 -178 53l29 81c52 -34 93 -49 140 -49c37 0 71 18 71 45c0 75 -214 104 -214 231c0 92 74 125 152 125
c57 0 97 -10 154 -31z" />
    <glyph glyph-name="Scircumflex" unicode="&#x15c;" horiz-adv-x="496" 
d="M45 43l32 84c55 -31 116 -53 163 -53c55 0 93 22 93 78c0 128 -275 130 -275 316c0 62 40 163 194 163c65 0 111 -13 176 -43l-25 -85c-60 28 -105 39 -144 39c-77 0 -90 -45 -90 -71c0 -119 283 -130 283 -317c0 -116 -95 -168 -211 -168c-78 0 -131 24 -196 57z
M284 830l120 -116l-50 -57l-87 87l-82 -87l-50 57l118 116h31z" />
    <glyph glyph-name="scircumflex" unicode="&#x15d;" horiz-adv-x="427" 
d="M95 569l121 131h31l121 -131l-52 -53l-84 86l-85 -86zM366 440l-16 -78c-50 23 -89 30 -116 30c-30 0 -62 -10 -62 -43c0 -59 215 -106 215 -230c0 -84 -73 -134 -175 -134c-66 0 -118 21 -178 53l29 81c52 -34 93 -49 140 -49c37 0 71 18 71 45c0 75 -214 104 -214 231
c0 92 74 125 152 125c57 0 97 -10 154 -31z" />
    <glyph glyph-name="Scedilla" unicode="&#x15e;" horiz-adv-x="496" 
d="M45 43l32 84c55 -31 116 -53 163 -53c55 0 93 22 93 78c0 128 -275 130 -275 316c0 62 40 163 194 163c65 0 111 -13 176 -43l-25 -85c-60 28 -105 39 -144 39c-77 0 -90 -45 -90 -71c0 -119 283 -130 283 -317c0 -116 -95 -168 -211 -168c-78 0 -131 24 -196 57z
M233 -325l-32 34c36 30 52 52 60 86h-5c-39 0 -70 31 -70 69c0 39 31 70 70 70c42 0 70 -40 70 -95c-1 -60 -35 -122 -93 -164z" />
    <glyph glyph-name="scedilla" unicode="&#x15f;" horiz-adv-x="427" 
d="M366 440l-16 -78c-50 23 -89 30 -116 30c-30 0 -62 -10 -62 -43c0 -59 215 -106 215 -230c0 -84 -73 -134 -175 -134c-66 0 -118 21 -178 53l29 81c52 -34 93 -49 140 -49c37 0 71 18 71 45c0 75 -214 104 -214 231c0 92 74 125 152 125c57 0 97 -10 154 -31zM196 -325
l-32 34c36 30 52 52 60 86h-5c-39 0 -70 31 -70 69c0 39 31 70 70 70c42 0 70 -40 70 -95c-1 -60 -35 -122 -93 -164z" />
    <glyph glyph-name="uni0162" unicode="&#x162;" horiz-adv-x="509" 
d="M235 -325l-32 34c36 30 52 52 60 86h-5c-39 0 -70 31 -70 69c0 39 31 70 70 70c42 0 70 -40 70 -95c-1 -60 -35 -122 -93 -164zM480 616v-89h-172v-527h-105v527h-174v89h451z" />
    <glyph glyph-name="uni0163" unicode="&#x163;" horiz-adv-x="338" 
d="M158 -325l-32 34c36 30 52 52 60 86h-5c-39 0 -70 31 -70 69c0 39 31 70 70 70c42 0 70 -40 70 -95c-1 -60 -35 -122 -93 -164zM38 372v75l61 9l15 136h84v-135h89v-85h-89v-228c0 -48 17 -74 49 -74c18 0 30 4 55 17v-77c-33 -21 -65 -25 -88 -25
c-76 0 -117 50 -117 131v256h-59z" />
    <glyph glyph-name="Tcaron" unicode="&#x164;" horiz-adv-x="509" 
d="M480 616v-89h-172v-527h-105v527h-174v89h451zM246 656l-130 116l50 57l96 -86l93 86l50 -56l-128 -117h-31z" />
    <glyph glyph-name="tcaron" unicode="&#x165;" horiz-adv-x="429" 
d="M358 372l-32 34c35 29 52 52 59 86c-1 -1 -3 -1 -5 -1c-38 0 -69 31 -69 70s31 70 69 70c42 0 70 -40 70 -95c0 -60 -35 -122 -92 -164zM38 372v75l61 9l15 136h84v-135h89v-85h-89v-228c0 -48 17 -74 49 -74c18 0 30 4 55 17v-77c-33 -21 -65 -25 -88 -25
c-76 0 -117 50 -117 131v256h-59z" />
    <glyph glyph-name="Tbar" unicode="&#x166;" horiz-adv-x="525" 
d="M488 616v-89h-172v-155h134v-62h-134v-310h-105v310h-136v62h136v155h-174v89h451z" />
    <glyph glyph-name="tbar" unicode="&#x167;" horiz-adv-x="338" 
d="M38 372v75l61 9l15 136h84v-135h89v-85h-89v-68h85v-63h-85v-97c0 -48 17 -74 49 -74c18 0 30 4 55 17v-77c-33 -21 -65 -25 -88 -25c-76 0 -117 50 -117 131v125h-56v63h56v68h-59z" />
    <glyph glyph-name="Utilde" unicode="&#x168;" horiz-adv-x="643" 
d="M80 616h105v-398c0 -80 26 -144 135 -144c111 0 138 64 138 144v398h105v-399c0 -120 -48 -232 -243 -232c-189 0 -240 110 -240 232v399zM376 676c-57 0 -76 48 -116 48c-17 0 -40 -10 -59 -47l-49 54c40 68 74 89 115 89c42 0 67 -50 106 -50c23 0 50 18 68 55l49 -53
c-30 -65 -67 -96 -114 -96z" />
    <glyph glyph-name="utilde" unicode="&#x169;" 
d="M347 457h101v-457h-73l-12 51c-41 -40 -92 -65 -152 -65c-76 0 -142 36 -142 147v319l101 13v-318c0 -53 30 -75 67 -75c39 0 79 21 110 54v331zM318 533c-53 0 -72 43 -109 43c-15 0 -37 -10 -54 -47l-49 54c35 64 66 85 102 85c43 0 68 -45 107 -45c18 0 41 17 55 55
l49 -54c-27 -61 -60 -91 -101 -91z" />
    <glyph glyph-name="Umacron" unicode="&#x16a;" horiz-adv-x="643" 
d="M80 616h105v-398c0 -80 26 -144 135 -144c111 0 138 64 138 144v398h105v-399c0 -120 -48 -232 -243 -232c-189 0 -240 110 -240 232v399zM211 688v84h229v-84h-229z" />
    <glyph glyph-name="umacron" unicode="&#x16b;" 
d="M347 457h101v-457h-73l-12 51c-41 -40 -92 -65 -152 -65c-76 0 -142 36 -142 147v319l101 13v-318c0 -53 30 -75 67 -75c39 0 79 21 110 54v331zM151 551v84h229v-84h-229z" />
    <glyph glyph-name="Ubreve" unicode="&#x16c;" horiz-adv-x="643" 
d="M80 616h105v-398c0 -80 26 -144 135 -144c111 0 138 64 138 144v398h105v-399c0 -120 -48 -232 -243 -232c-189 0 -240 110 -240 232v399zM169 822l67 17c7 -43 44 -88 89 -88c46 0 82 41 96 89l62 -19c-17 -85 -71 -151 -159 -151c-94 0 -140 63 -155 152z" />
    <glyph glyph-name="ubreve" unicode="&#x16d;" 
d="M347 457h101v-457h-73l-12 51c-41 -40 -92 -65 -152 -65c-76 0 -142 36 -142 147v319l101 13v-318c0 -53 30 -75 67 -75c39 0 79 21 110 54v331zM108 692l66 16c7 -45 45 -92 90 -92s81 44 95 94l63 -19c-18 -88 -71 -156 -159 -156c-98 0 -143 80 -155 157z" />
    <glyph glyph-name="Uring" unicode="&#x16e;" horiz-adv-x="643" 
d="M221 775c0 54 41 96 100 96c60 0 101 -41 101 -96c0 -56 -41 -97 -101 -97c-59 0 -100 42 -100 97zM320 726c25 0 43 14 43 49c0 38 -19 52 -43 52c-20 0 -39 -17 -39 -52c0 -38 18 -49 39 -49zM80 616h105v-398c0 -80 26 -144 135 -144c111 0 138 64 138 144v398h105
v-399c0 -120 -48 -232 -243 -232c-189 0 -240 110 -240 232v399z" />
    <glyph glyph-name="uring" unicode="&#x16f;" 
d="M168 616c0 54 41 96 100 96c60 0 101 -41 101 -96c0 -56 -41 -97 -101 -97c-59 0 -100 42 -100 97zM267 567c25 0 43 14 43 49c0 38 -19 52 -43 52c-20 0 -39 -17 -39 -52c0 -38 18 -49 39 -49zM347 457h101v-457h-73l-12 51c-41 -40 -92 -65 -152 -65
c-76 0 -142 36 -142 147v319l101 13v-318c0 -53 30 -75 67 -75c39 0 79 21 110 54v331z" />
    <glyph glyph-name="Uhungarumlaut" unicode="&#x170;" horiz-adv-x="643" 
d="M80 616h105v-398c0 -80 26 -144 135 -144c111 0 138 64 138 144v398h105v-399c0 -120 -48 -232 -243 -232c-189 0 -240 110 -240 232v399zM267 683l-74 36l82 175l81 -41zM421 683l-74 36l83 175l80 -41z" />
    <glyph glyph-name="uhungarumlaut" unicode="&#x171;" 
d="M347 457h101v-457h-73l-12 51c-41 -40 -92 -65 -152 -65c-76 0 -142 36 -142 147v319l101 13v-318c0 -53 30 -75 67 -75c39 0 79 21 110 54v331zM210 524l-74 36l82 175l81 -41zM364 524l-74 36l83 175l80 -41z" />
    <glyph glyph-name="Uogonek" unicode="&#x172;" horiz-adv-x="643" 
d="M80 616h105v-398c0 -80 26 -144 135 -144c111 0 138 64 138 144v398h105v-399c0 -89 -27 -173 -119 -211l-13 -5c-30 -10 -67 -16 -111 -16c-13 0 -24 1 -36 2c27 30 75 55 142 77l18 -58l-13 -5c-67 -26 -101 -54 -101 -82c0 -24 16 -39 38 -39c15 0 32 2 57 15l24 -51
c-34 -22 -59 -28 -87 -28c-67 0 -103 42 -103 104c0 26 8 47 25 67c-160 13 -204 116 -204 230v399z" />
    <glyph glyph-name="uogonek" unicode="&#x173;" 
d="M347 457h101v-456l5 -16c-76 -28 -114 -58 -114 -87c0 -24 16 -39 38 -39c15 0 32 2 57 15l24 -51c-34 -22 -59 -28 -87 -28c-67 0 -103 42 -103 104c0 52 35 88 102 119l-7 33c-41 -40 -92 -65 -152 -65c-76 0 -142 36 -142 147v319l101 13v-318c0 -53 30 -75 67 -75
c39 0 79 21 110 54v331z" />
    <glyph glyph-name="Wcircumflex" unicode="&#x174;" horiz-adv-x="942" 
d="M482 830l120 -116l-50 -57l-87 87l-82 -87l-50 57l118 116h31zM329 0h-111l-191 616h110l138 -465l140 463v2h111l-1 -2l143 -464l136 466h110l-190 -616h-111l-143 443z" />
    <glyph glyph-name="wcircumflex" unicode="&#x175;" horiz-adv-x="675" 
d="M222 563l121 131h31l121 -131l-52 -53l-84 86l-85 -86zM254 0h-99l-125 457h105l76 -322l92 322h73l87 -322l79 322h105l-131 -457h-99l-80 298z" />
    <glyph glyph-name="Ycircumflex" unicode="&#x176;" horiz-adv-x="528" 
d="M317 251v-251h-105v253l-190 363h113l130 -257l127 257h111zM279 830l120 -116l-50 -57l-87 87l-82 -87l-50 57l118 116h31z" />
    <glyph glyph-name="ycircumflex" unicode="&#x177;" horiz-adv-x="488" 
d="M24 457h108l114 -320l112 320h106l-137 -380c-49 -126 -83 -266 -281 -266v84c87 0 119 47 146 105h-3zM107 569l121 131h31l121 -131l-52 -53l-84 86l-85 -86z" />
    <glyph glyph-name="Zacute" unicode="&#x179;" horiz-adv-x="518" 
d="M353 527h-293v89h403v-89l-308 -438h315v-89h-426v89zM201 666l-38 77l193 100l41 -85z" />
    <glyph glyph-name="zacute" unicode="&#x17a;" horiz-adv-x="444" 
d="M172 509l-50 69l172 137l52 -74zM390 371l-227 -286h234v-85h-350v85l225 286h-218v86h336v-86z" />
    <glyph glyph-name="Zdotaccent" unicode="&#x17b;" horiz-adv-x="518" 
d="M195 749c0 39 31 70 70 70s70 -31 70 -70s-31 -70 -70 -70s-70 31 -70 70zM353 527h-293v89h403v-89l-308 -438h315v-89h-426v89z" />
    <glyph glyph-name="zdotaccent" unicode="&#x17c;" horiz-adv-x="444" 
d="M390 371l-227 -286h234v-85h-350v85l225 286h-218v86h336v-86zM163 612c0 38 31 69 69 69c39 0 70 -31 70 -69c0 -39 -31 -70 -70 -70c-38 0 -69 31 -69 70z" />
    <glyph glyph-name="longs" unicode="&#x17f;" horiz-adv-x="287" 
d="M39 365v65l58 16v20c0 116 43 198 212 198v-84c-89 0 -110 -43 -110 -109v-471h-102v365h-58z" />
    <glyph glyph-name="uni0218" unicode="&#x218;" horiz-adv-x="496" 
d="M45 43l32 84c55 -31 116 -53 163 -53c55 0 93 22 93 78c0 128 -275 130 -275 316c0 62 40 163 194 163c65 0 111 -13 176 -43l-25 -85c-60 28 -105 39 -144 39c-77 0 -90 -45 -90 -71c0 -119 283 -130 283 -317c0 -116 -95 -168 -211 -168c-78 0 -131 24 -196 57z
M231 -325l-32 34c36 30 52 52 60 86h-5c-39 0 -70 31 -70 69c0 39 31 70 70 70c42 0 70 -40 70 -95c-1 -60 -35 -122 -93 -164z" />
    <glyph glyph-name="uni0219" unicode="&#x219;" horiz-adv-x="427" 
d="M366 440l-16 -78c-50 23 -89 30 -116 30c-30 0 -62 -10 -62 -43c0 -59 215 -106 215 -230c0 -84 -73 -134 -175 -134c-66 0 -118 21 -178 53l29 81c52 -34 93 -49 140 -49c37 0 71 18 71 45c0 75 -214 104 -214 231c0 92 74 125 152 125c57 0 97 -10 154 -31zM198 -325
l-32 34c36 30 52 52 60 86h-5c-39 0 -70 31 -70 69c0 39 31 70 70 70c42 0 70 -40 70 -95c-1 -60 -35 -122 -93 -164z" />
    <glyph glyph-name="uni021A" unicode="&#x21a;" horiz-adv-x="509" 
d="M235 -325l-32 34c36 30 52 52 60 86h-5c-39 0 -70 31 -70 69c0 39 31 70 70 70c42 0 70 -40 70 -95c-1 -60 -35 -122 -93 -164zM480 616v-89h-172v-527h-105v527h-174v89h451z" />
    <glyph glyph-name="uni021B" unicode="&#x21b;" horiz-adv-x="338" 
d="M164 -325l-32 34c36 30 52 52 60 86h-5c-39 0 -70 31 -70 69c0 39 31 70 70 70c42 0 70 -40 70 -95c-1 -60 -35 -122 -93 -164zM38 372v75l61 9l15 136h84v-135h89v-85h-89v-228c0 -48 17 -74 49 -74c18 0 30 4 55 17v-77c-33 -21 -65 -25 -88 -25
c-76 0 -117 50 -117 131v256h-59z" />
    <glyph glyph-name="Wgrave" unicode="&#x1e80;" horiz-adv-x="942" 
d="M568 743l-38 -77l-197 92l42 85zM329 0h-111l-191 616h110l138 -465l140 463v2h111l-1 -2l143 -464l136 466h110l-190 -616h-111l-143 443z" />
    <glyph glyph-name="wgrave" unicode="&#x1e81;" horiz-adv-x="675" 
d="M254 0h-99l-125 457h105l76 -322l92 322h73l87 -322l79 322h105l-131 -457h-99l-80 298zM457 577l-51 -69l-174 132l52 74z" />
    <glyph glyph-name="Wacute" unicode="&#x1e82;" horiz-adv-x="942" 
d="M383 666l-38 77l193 100l41 -85zM329 0h-111l-191 616h110l138 -465l140 463v2h111l-1 -2l143 -464l136 466h110l-190 -616h-111l-143 443z" />
    <glyph glyph-name="wacute" unicode="&#x1e83;" horiz-adv-x="675" 
d="M306 509l-50 69l172 137l52 -74zM254 0h-99l-125 457h105l76 -322l92 322h73l87 -322l79 322h105l-131 -457h-99l-80 298z" />
    <glyph glyph-name="Wdieresis" unicode="&#x1e84;" horiz-adv-x="942" 
d="M329 0h-111l-191 616h110l138 -465l140 463v2h111l-1 -2l143 -464l136 466h110l-190 -616h-111l-143 443zM303 740c0 39 31 70 70 70c38 0 69 -31 69 -70c0 -38 -31 -69 -69 -69c-40 0 -70 30 -70 69zM497 740c0 39 31 70 70 70c38 0 69 -31 69 -70
c0 -38 -31 -69 -69 -69c-40 0 -70 30 -70 69z" />
    <glyph glyph-name="wdieresis" unicode="&#x1e85;" horiz-adv-x="675" 
d="M192 594c0 37 31 69 70 69c38 0 69 -31 69 -69c0 -39 -31 -70 -69 -70c-39 0 -70 30 -70 70zM387 594c0 37 31 69 70 69c38 0 69 -31 69 -69c0 -39 -31 -70 -69 -70c-39 0 -70 30 -70 70zM254 0h-99l-125 457h105l76 -322l92 322h73l87 -322l79 322h105l-131 -457h-99
l-80 298z" />
    <glyph glyph-name="longs_t" unicode="&#xfb05;" horiz-adv-x="606" 
d="M306 372v75l59 9l6 124h-62c-89 0 -110 -43 -110 -109v-471h-102v365h-58v65l58 16v20c0 116 43 198 212 198h158v-207h89v-85h-89v-228c0 -48 16 -74 49 -74c18 0 30 4 54 17v-77c-33 -21 -65 -25 -88 -25c-95 0 -117 72 -117 131v256h-59z" />
    <glyph glyph-name="f_t" horiz-adv-x="606" 
d="M365 116v361c0 88 -23 125 -81 126c-69 0 -85 -65 -85 -138v-15h69v-85h-69v-365h-102v365h-58v65l58 16v15c0 119 39 225 194 225c126 0 176 -80 176 -206v-23h89v-85h-89v-228c0 -48 16 -74 49 -74c18 0 30 4 54 17v-77c-33 -21 -65 -25 -88 -25
c-95 0 -117 72 -117 131z" />
    <glyph glyph-name="b.sups" horiz-adv-x="387" 
d="M53 764l88 12v-164c23 19 50 30 81 30c87 0 132 -76 132 -167c0 -96 -50 -177 -137 -177c-35 0 -54 9 -79 32l-15 -21h-70v455zM198 573c-26 0 -43 -11 -57 -28v-154c12 -14 27 -23 53 -23c47 0 67 51 67 107c0 52 -20 98 -63 98z" />
    <glyph glyph-name="c.sups" horiz-adv-x="334" 
d="M32 471c0 89 52 171 163 171c50 0 89 -15 115 -40l-37 -55c-18 16 -38 26 -67 26c-56 0 -81 -49 -81 -102c0 -52 24 -103 79 -103c33 0 54 10 68 25l37 -54c-26 -25 -64 -41 -115 -41c-107 0 -162 82 -162 173z" />
    <glyph glyph-name="d.sups" horiz-adv-x="387" 
d="M247 769l87 7v-467h-74v36c-26 -30 -60 -47 -95 -47c-82 0 -132 78 -132 169c0 95 46 175 139 175c27 0 53 -9 75 -25v152zM189 368c28 0 44 12 58 31v154c-12 11 -30 20 -53 20c-48 0 -68 -51 -68 -107c0 -53 20 -98 63 -98z" />
    <glyph glyph-name="e.sups" horiz-adv-x="365" 
d="M334 441h-211c8 -42 35 -73 89 -73c34 0 58 15 72 27l42 -43c-26 -30 -73 -54 -131 -54c-102 0 -163 73 -163 172c0 94 58 172 154 172c94 0 148 -69 148 -161v-40zM184 573c-30 0 -51 -29 -59 -66h122c-8 37 -33 66 -63 66z" />
    <glyph glyph-name="f.sups" horiz-adv-x="236" 
d="M29 557v53l40 12v13c0 82 35 142 162 142v-68c-57 0 -74 -28 -74 -70v-13h57v-69h-57v-248h-88v248h-40z" />
    <glyph glyph-name="g.sups" horiz-adv-x="368" 
d="M86 445l4 -1c-32 18 -53 48 -53 88c0 69 60 110 137 110c40 0 77 -11 102 -30l64 42v-70l-34 -9c6 -13 10 -27 10 -43c0 -70 -62 -109 -142 -109c-11 0 -21 1 -31 2c-9 -8 -14 -18 -14 -27c0 -14 3 -27 29 -27h91c48 0 82 -27 82 -78c0 -67 -71 -118 -152 -118
c-68 0 -151 14 -151 73c0 31 20 52 42 69c-25 12 -33 33 -33 47c0 35 22 55 49 81zM124 532c0 -28 10 -54 52 -54c35 0 53 22 53 54s-18 56 -53 56s-52 -24 -52 -56zM209 306h-82c-9 -8 -15 -19 -15 -32c0 -23 17 -33 58 -33c33 0 66 12 66 34c0 18 -5 32 -27 31z" />
    <glyph glyph-name="h.sups" horiz-adv-x="386" 
d="M336 309h-88v211c0 36 -18 53 -43 53c-22 0 -45 -13 -64 -32v-232h-88v455l88 12v-164c25 18 54 30 88 30c58 0 107 -27 107 -109v-224z" />
    <glyph glyph-name="i.sups" horiz-adv-x="194" 
d="M141 309h-88v315l88 11v-326zM43 736c0 29 24 52 55 52c30 0 55 -23 55 -52s-25 -53 -55 -53c-31 0 -55 23 -55 53z" />
    <glyph glyph-name="j.sups" horiz-adv-x="194" 
d="M53 624l88 11v-284c0 -102 -24 -147 -146 -175l-20 68c62 16 78 41 78 103v277zM43 736c0 29 23 52 54 52s56 -23 56 -52s-25 -53 -56 -53s-54 23 -54 53z" />
    <glyph glyph-name="k.sups" horiz-adv-x="367" 
d="M351 309h-101l-83 144h-26v-144h-88v455l88 12v-254h27l79 110h103l-106 -143z" />
    <glyph glyph-name="l.sups" horiz-adv-x="194" 
d="M53 764l88 12v-467h-88v455z" />
    <glyph glyph-name="m.sups" horiz-adv-x="580" 
d="M530 309h-88v211c0 36 -19 53 -44 53c-22 0 -45 -12 -63 -31v-9v-224h-88v211c0 36 -18 53 -43 53c-22 0 -45 -13 -64 -32v-232h-88v317l75 12l4 -33c27 22 59 37 97 37c37 0 72 -12 91 -42c28 25 63 42 104 42c57 0 107 -27 107 -109v-224z" />
    <glyph glyph-name="n.sups" unicode="&#x207f;" horiz-adv-x="385" 
d="M140 309h-88v317l75 12l4 -33c27 22 59 37 97 37c58 0 107 -27 107 -109v-224h-88v211c0 36 -18 53 -43 53c-22 0 -45 -13 -64 -32v-232z" />
    <glyph glyph-name="o.sups" horiz-adv-x="387" 
d="M32 470c0 94 56 172 159 172c107 0 164 -78 164 -172c0 -92 -56 -172 -163 -172c-104 0 -160 78 -160 172zM125 470c0 -54 21 -102 67 -102c48 0 71 48 71 102c0 55 -23 103 -71 103c-46 0 -67 -48 -67 -103z" />
    <glyph glyph-name="p.sups" horiz-adv-x="387" 
d="M141 176h-88v452l74 3l4 -31c25 26 58 42 92 42c81 0 131 -76 131 -168c0 -95 -46 -176 -138 -176c-28 0 -53 9 -75 25v-147zM198 573c-28 0 -44 -13 -57 -31v-154c12 -13 30 -21 53 -21c47 0 67 52 67 109c0 52 -20 97 -63 97z" />
    <glyph glyph-name="q.sups" horiz-adv-x="387" 
d="M334 176h-87v152c-24 -19 -51 -30 -81 -30c-88 0 -133 77 -133 168c0 96 50 176 138 176c32 0 64 -15 89 -40l4 28h70v-454zM189 368c26 0 44 11 58 28v154c-13 13 -28 23 -53 23c-48 0 -68 -51 -68 -107c0 -52 20 -98 63 -98z" />
    <glyph glyph-name="r.sups" horiz-adv-x="274" 
d="M141 309h-88v315l88 11v-58c25 40 53 65 90 65c10 0 18 0 27 -4l-2 -75c-10 4 -19 6 -30 6c-32 0 -60 -17 -85 -53v-207z" />
    <glyph glyph-name="s.sups" horiz-adv-x="308" 
d="M265 620l-13 -63c-37 17 -64 22 -80 22s-33 -7 -33 -26c0 -28 141 -66 141 -157c0 -61 -50 -98 -126 -98c-46 0 -84 15 -130 37l25 66c39 -24 68 -33 97 -33c17 0 35 10 35 25c0 41 -140 67 -140 158c0 67 53 91 111 91c40 0 70 -6 113 -22z" />
    <glyph glyph-name="t.sups" horiz-adv-x="253" 
d="M28 563v62l42 7l11 94h75v-94h57v-69h-57v-147c0 -32 13 -48 31 -48c11 0 18 2 34 10v-62c-24 -15 -46 -18 -62 -18c-55 0 -90 32 -90 93v172h-41z" />
    <glyph glyph-name="u.sups" horiz-adv-x="385" 
d="M244 632h88v-323h-75v30c-28 -25 -62 -40 -101 -40c-57 0 -107 27 -107 110v219l88 10v-217c0 -36 19 -52 44 -52c21 0 44 12 63 31v232z" />
    <glyph glyph-name="v.sups" horiz-adv-x="355" 
d="M226 309h-95l-117 323h93l71 -226l67 226h94z" />
    <glyph glyph-name="w.sups" horiz-adv-x="485" 
d="M203 309h-95l-84 323h94l38 -204l41 204h94l-1 -1l38 -202l40 203h94l-87 -323h-94l-38 176z" />
    <glyph glyph-name="x.sups" horiz-adv-x="348" 
d="M115 309h-98l107 164l-107 159h100l56 -84l56 84h99l-105 -158l112 -165h-100l-61 90z" />
    <glyph glyph-name="y.sups" horiz-adv-x="356" 
d="M14 632h93l73 -208l68 208h92l-86 -255c-35 -91 -67 -201 -221 -201v68c56 0 82 29 100 65h-3z" />
    <glyph glyph-name="z.sups" horiz-adv-x="325" 
d="M287 562l-140 -184h143v-69h-255v69l139 184h-136v70h249v-70z" />
    <glyph glyph-name="a.sups" horiz-adv-x="345" 
d="M208 309v31c-29 -27 -55 -42 -89 -42c-52 0 -92 27 -92 85c0 76 75 102 181 130c0 43 -30 60 -61 60c-28 0 -60 -10 -81 -21l-22 56c33 19 78 34 133 34c64 0 118 -30 118 -120v-213h-87zM149 374c19 0 38 8 59 23v59c-54 -14 -87 -26 -87 -57c0 -17 13 -25 28 -25z" />
    <glyph glyph-name="exclam.smcp" horiz-adv-x="275" 
d="M88 520h99l-7 -355h-85zM76 47c0 32 27 58 61 58c35 0 63 -26 63 -58s-28 -59 -63 -59c-34 0 -61 26 -61 59z" />
    <glyph glyph-name="parenleft.smcp" horiz-adv-x="305" 
d="M264 -91l-72 -43c-93 111 -142 202 -142 345c0 136 66 248 146 342l71 -44c-67 -87 -119 -183 -119 -298c0 -118 49 -212 116 -302z" />
    <glyph glyph-name="parenright.smcp" horiz-adv-x="306" 
d="M113 -134l-72 43c67 90 116 184 116 302c0 115 -51 211 -119 298l72 44c79 -94 146 -205 146 -342c0 -153 -65 -251 -143 -345z" />
    <glyph glyph-name="percent.smcp" horiz-adv-x="692" 
d="M145 13l327 507l75 -45l-325 -508zM160 233c-73 0 -126 51 -126 131c0 79 51 131 126 131s126 -52 126 -131c0 -80 -51 -131 -126 -131zM160 294c24 0 42 27 42 70c0 42 -18 70 -42 70c-26 0 -44 -27 -44 -70s18 -70 44 -70zM533 -12c-73 0 -126 51 -126 131
c0 79 51 131 126 131s126 -52 126 -131c0 -80 -51 -131 -126 -131zM533 49c24 0 42 27 42 70c0 42 -18 70 -42 70c-25 0 -43 -27 -43 -70s18 -70 43 -70z" />
    <glyph glyph-name="ampersand.smcp" horiz-adv-x="588" 
d="M441 284h105l-157 -178c18 -25 40 -39 55 -39c20 0 41 10 58 28l36 -57c-27 -29 -58 -50 -106 -50c-25 0 -67 16 -99 57c-32 -29 -74 -57 -122 -57c-91 0 -162 70 -162 145c0 73 52 117 111 149c-23 33 -42 67 -42 98c0 63 50 115 129 115c74 0 117 -56 118 -108
c3 -56 -37 -98 -86 -128l62 -86zM210 63c26 0 52 24 75 48l-78 107c-38 -20 -73 -44 -73 -83s36 -72 76 -72zM202 381c0 -16 15 -38 31 -60c27 17 48 37 47 62c0 17 -14 36 -38 36c-23 0 -40 -16 -40 -38z" />
    <glyph glyph-name="dollar.smcp" horiz-adv-x="425" 
d="M257 573h35l-15 -82c28 -5 55 -15 87 -30l-27 -76c-30 13 -54 21 -75 26l-24 -125c61 -36 135 -76 135 -158c0 -96 -81 -139 -178 -139h-12l-14 -78h-36l15 83c-39 7 -77 24 -110 39l34 76c30 -17 62 -32 91 -38l25 135c-58 34 -129 71 -129 154c0 50 36 135 172 135h11z
M262 123c0 26 -18 45 -42 62l-22 -118c36 0 64 16 64 56zM162 365c0 -24 18 -42 45 -60l20 110c-53 0 -65 -33 -65 -50z" />
    <glyph glyph-name="question.smcp" horiz-adv-x="363" 
d="M77 369l-50 48c42 45 96 78 156 78c100 0 148 -59 148 -118c0 -121 -127 -98 -127 -249h-85c0 155 108 194 108 239c0 25 -13 51 -55 51c-32 0 -66 -18 -95 -49zM103 42c0 30 25 54 57 54s58 -24 58 -54s-26 -54 -58 -54c-33 0 -57 24 -57 54z" />
    <glyph glyph-name="zero.smcp" horiz-adv-x="494" 
d="M246 65c72 0 91 77 91 176c0 96 -21 177 -91 177c-69 0 -88 -81 -88 -177c0 -100 19 -176 88 -176zM246 -12c-147 0 -192 108 -192 253c0 141 45 254 192 254c148 0 195 -113 195 -254c0 -145 -47 -253 -195 -253z" />
    <glyph glyph-name="one.smcp" horiz-adv-x="383" 
d="M85 322l-50 60l126 102l1 -1h98v-406h89v-77h-274v77h87v306z" />
    <glyph glyph-name="two.smcp" horiz-adv-x="451" 
d="M92 373l-44 56c42 40 91 66 167 66c137 0 178 -84 177 -135c-1 -142 -200 -167 -236 -283h243v-77h-347v27c0 204 233 218 235 331c0 20 -19 60 -87 60c-49 0 -74 -15 -108 -45z" />
    <glyph glyph-name="three.smcp" horiz-adv-x="443" 
d="M97 393l-39 55c29 25 70 46 143 46c141 0 169 -82 169 -133c0 -35 -19 -77 -61 -107c52 -31 84 -76 84 -119c1 -54 -33 -147 -188 -147c-57 0 -108 11 -169 56l41 60c35 -24 66 -40 124 -40c71 0 89 47 88 76c0 36 -40 74 -126 74h-12v77h12h6c74 1 97 37 97 67
c0 23 -11 60 -72 60c-44 0 -76 -11 -97 -25z" />
    <glyph glyph-name="four.smcp" horiz-adv-x="474" 
d="M263 483h99v-306h65v-76h-65v-101h-99v101h-226v76zM135 177h128v171z" />
    <glyph glyph-name="five.smcp" horiz-adv-x="445" 
d="M118 212h-56l33 271h280v-77h-199l-13 -103c23 10 47 17 74 17c100 0 159 -73 159 -159c0 -112 -74 -173 -178 -173c-89 0 -123 17 -177 65l44 57c34 -33 73 -45 115 -45c52 0 92 33 92 97c0 44 -32 81 -81 81c-29 0 -52 -4 -93 -31z" />
    <glyph glyph-name="six.smcp" horiz-adv-x="469" 
d="M407 466l-32 -65c-23 9 -56 17 -92 17c-54 0 -103 -43 -121 -128c27 15 59 24 91 24c96 0 169 -47 169 -154c0 -106 -76 -172 -178 -172c-125 0 -193 105 -193 228c0 181 110 279 232 279c52 0 96 -15 124 -29zM253 237c-34 0 -69 -12 -98 -31c2 -81 37 -141 88 -141
c45 0 75 33 75 90c0 59 -29 82 -65 82z" />
    <glyph glyph-name="seven.smcp" horiz-adv-x="402" 
d="M181 0h-121l202 406h-219v77h340v-24z" />
    <glyph glyph-name="eight.smcp" horiz-adv-x="451" 
d="M221 -12c-94 0 -172 43 -172 119c0 64 40 113 94 144c-51 41 -69 77 -69 120c0 80 72 124 156 124c78 0 153 -45 153 -121c0 -56 -32 -96 -80 -131c66 -47 98 -90 98 -142c0 -65 -75 -113 -180 -113zM297 116c0 24 -29 48 -76 80c-32 -18 -68 -37 -68 -79
c0 -33 34 -52 67 -52c43 0 77 22 77 51zM178 373c0 -26 11 -48 48 -77c31 19 53 41 53 74c0 23 -14 48 -49 48c-32 0 -52 -22 -52 -45z" />
    <glyph glyph-name="nine.smcp" horiz-adv-x="469" 
d="M62 17l32 65c23 -9 56 -17 92 -17c53 0 103 43 121 128c-28 -15 -59 -24 -91 -24c-96 0 -169 47 -169 154c0 105 76 172 178 172c121 0 193 -94 193 -228c0 -181 -110 -279 -232 -279c-52 0 -96 15 -124 29zM216 246c33 0 68 12 98 30c-3 81 -37 142 -88 142
c-45 0 -75 -33 -75 -90c0 -59 29 -82 65 -82z" />
    <glyph glyph-name="bracketleft.smcp" horiz-adv-x="305" 
d="M89 -110v628h168v-75h-75v-476h75v-77h-168z" />
    <glyph glyph-name="bracketright.smcp" horiz-adv-x="304" 
d="M48 518h167v-628h-167v77h76v476h-76v75z" />
    <glyph glyph-name="sterling.smcp" horiz-adv-x="482" 
d="M60 215v68h54c-4 22 -6 44 -6 68c0 72 63 144 154 144c65 0 103 -17 167 -57l-57 -61c-44 26 -74 36 -101 36c-38 0 -64 -26 -64 -62c0 -23 3 -46 7 -68h90v-68h-77c4 -20 6 -40 6 -61c0 -22 -6 -42 -18 -64c26 -7 52 -20 76 -20c37 0 61 20 89 55l60 -37
c-39 -67 -80 -100 -164 -100c-41 0 -72 17 -106 29c-16 -19 -31 -28 -55 -28c-48 0 -65 33 -65 62c0 22 13 40 33 48c11 7 25 12 40 13c7 14 10 28 10 42c0 20 -2 41 -6 61h-67z" />
    <glyph glyph-name="yen.smcp" horiz-adv-x="471" 
d="M395 128v-63h-108v-65h-102v65h-104v63h104v48h-104v62h82l-137 245h108l102 -188l98 188h107l-132 -245h86v-62h-108v-48h108z" />
    <glyph glyph-name="agrave.smcp" horiz-adv-x="522" 
d="M365 594l-39 -77l-196 92l41 85zM26 0l181 483h106l185 -483h-106l-41 107h-179l-40 -107h-106zM260 343l-58 -155h118z" />
    <glyph glyph-name="aacute.smcp" horiz-adv-x="522" 
d="M178 524l-38 77l193 100l41 -85zM26 0l181 483h106l185 -483h-106l-41 107h-179l-40 -107h-106zM260 343l-58 -155h118z" />
    <glyph glyph-name="acircumflex.smcp" horiz-adv-x="522" 
d="M275 693l120 -110l-50 -57l-87 81l-82 -81l-50 56l118 111h31zM26 0l181 483h106l185 -483h-106l-41 107h-179l-40 -107h-106zM260 343l-58 -155h118z" />
    <glyph glyph-name="atilde.smcp" horiz-adv-x="522" 
d="M26 0l181 483h106l185 -483h-106l-41 107h-179l-40 -107h-106zM260 343l-58 -155h118zM316 543c-53 0 -71 43 -108 43c-18 0 -40 -10 -60 -47l-49 54c37 64 69 84 108 84c42 0 67 -45 106 -45c20 0 44 18 60 55l50 -53c-29 -62 -63 -91 -107 -91z" />
    <glyph glyph-name="adieresis.smcp" horiz-adv-x="522" 
d="M26 0l181 483h106l185 -483h-106l-41 107h-179l-40 -107h-106zM260 343l-58 -155h118zM88 612c0 37 31 69 70 69c38 0 69 -31 69 -69c0 -39 -31 -70 -69 -70c-39 0 -70 30 -70 70zM282 612c0 37 31 69 70 69c38 0 69 -31 69 -69c0 -39 -31 -70 -69 -70
c-39 0 -70 30 -70 70z" />
    <glyph glyph-name="aring.smcp" horiz-adv-x="522" 
d="M160 617c0 55 40 96 99 96c61 0 101 -41 101 -96c0 -56 -40 -97 -101 -97c-59 0 -99 41 -99 97zM259 568c24 0 43 12 43 49c0 38 -20 52 -43 52c-21 0 -40 -17 -40 -52c0 -38 19 -49 40 -49zM26 0l181 483h106l185 -483h-106l-41 107h-179l-40 -107h-106zM260 343
l-58 -155h118z" />
    <glyph glyph-name="ccedilla.smcp" 
d="M197 -165l21 37c16 -13 45 -24 65 -24c24 0 40 15 40 31c0 24 -30 36 -96 36l29 77c-142 19 -208 124 -208 248c0 142 93 255 259 255c75 0 134 -21 174 -55l-43 -65c-28 24 -68 39 -126 39c-97 0 -151 -77 -151 -174s52 -172 149 -172c58 0 99 15 127 40l42 -65
c-38 -32 -93 -53 -162 -55l-9 -25c52 -10 80 -39 80 -84c0 -44 -40 -82 -100 -82c-30 0 -65 18 -91 38z" />
    <glyph glyph-name="egrave.smcp" horiz-adv-x="438" 
d="M351 604l-39 -77l-196 92l41 85zM383 483v-80h-204v-115h161v-80h-161v-128h214v-80h-316v483h306z" />
    <glyph glyph-name="eacute.smcp" horiz-adv-x="438" 
d="M383 483v-80h-204v-115h161v-80h-161v-128h214v-80h-316v483h306zM161 524l-38 77l193 100l41 -85z" />
    <glyph glyph-name="ecircumflex.smcp" horiz-adv-x="438" 
d="M383 483v-80h-204v-115h161v-80h-161v-128h214v-80h-316v483h306zM245 693l120 -110l-50 -57l-87 81l-82 -81l-50 56l118 111h31z" />
    <glyph glyph-name="edieresis.smcp" horiz-adv-x="438" 
d="M383 483v-80h-204v-115h161v-80h-161v-128h214v-80h-316v483h306zM71 612c0 37 31 69 70 69c38 0 69 -31 69 -69c0 -39 -31 -70 -69 -70c-39 0 -70 30 -70 70zM265 612c0 37 31 69 70 69c38 0 69 -31 69 -69c0 -39 -31 -70 -69 -70c-39 0 -70 30 -70 70z" />
    <glyph glyph-name="igrave.smcp" horiz-adv-x="256" 
d="M259 594l-39 -77l-196 92l41 85zM77 483h102v-483h-102v483z" />
    <glyph glyph-name="dotlessi.smcp" horiz-adv-x="256" 
d="M77 483h102v-483h-102v483z" />
    <glyph glyph-name="iacute.smcp" horiz-adv-x="256" 
d="M39 524l-38 77l193 100l41 -85zM77 483h102v-483h-102v483z" />
    <glyph glyph-name="icircumflex.smcp" horiz-adv-x="256" 
d="M145 693l120 -110l-50 -57l-87 81l-82 -81l-50 56l118 111h31zM77 483h102v-483h-102v483z" />
    <glyph glyph-name="idieresis.smcp" horiz-adv-x="256" 
d="M-30 612c0 37 31 69 70 69c38 0 69 -31 69 -69c0 -39 -31 -70 -69 -70c-39 0 -70 30 -70 70zM164 612c0 37 31 69 70 69c38 0 69 -31 69 -69c0 -39 -31 -70 -69 -70c-39 0 -70 30 -70 70zM77 483h102v-483h-102v483z" />
    <glyph glyph-name="eth.smcp" horiz-adv-x="563" 
d="M26 222v63h60v198h150c159 0 278 -79 278 -248c0 -161 -119 -235 -278 -235h-150v222h-60zM188 403v-118h99v-63h-99v-142h43c92 0 171 47 171 155c0 118 -79 168 -171 168h-43z" />
    <glyph glyph-name="ntilde.smcp" horiz-adv-x="572" 
d="M394 483h101v-483h-87l-229 308v-308h-102v483h88l229 -315v315zM343 543c-53 0 -71 43 -108 43c-18 0 -40 -10 -60 -47l-49 54c37 64 69 84 108 84c42 0 67 -45 106 -45c20 0 44 18 60 55l50 -53c-29 -62 -63 -91 -107 -91z" />
    <glyph glyph-name="ograve.smcp" horiz-adv-x="594" 
d="M306 68c79 0 128 79 128 171c0 100 -48 176 -133 176c-91 0 -141 -72 -141 -167c0 -103 52 -180 146 -180zM306 -12c-166 0 -258 106 -258 260c0 139 92 247 253 247c155 0 245 -111 245 -256c0 -143 -88 -251 -240 -251zM410 594l-39 -77l-196 92l41 85z" />
    <glyph glyph-name="oacute.smcp" horiz-adv-x="594" 
d="M306 68c79 0 128 79 128 171c0 100 -48 176 -133 176c-91 0 -141 -72 -141 -167c0 -103 52 -180 146 -180zM306 -12c-166 0 -258 106 -258 260c0 139 92 247 253 247c155 0 245 -111 245 -256c0 -143 -88 -251 -240 -251zM213 524l-38 77l193 100l41 -85z" />
    <glyph glyph-name="ocircumflex.smcp" horiz-adv-x="594" 
d="M306 68c79 0 128 79 128 171c0 100 -48 176 -133 176c-91 0 -141 -72 -141 -167c0 -103 52 -180 146 -180zM306 -12c-166 0 -258 106 -258 260c0 139 92 247 253 247c155 0 245 -111 245 -256c0 -143 -88 -251 -240 -251zM310 693l120 -110l-50 -57l-87 81l-82 -81
l-50 56l118 111h31z" />
    <glyph glyph-name="otilde.smcp" horiz-adv-x="594" 
d="M306 68c79 0 128 79 128 171c0 100 -48 176 -133 176c-91 0 -141 -72 -141 -167c0 -103 52 -180 146 -180zM306 -12c-166 0 -258 106 -258 260c0 139 92 247 253 247c155 0 245 -111 245 -256c0 -143 -88 -251 -240 -251zM351 543c-53 0 -71 43 -108 43
c-18 0 -40 -10 -60 -47l-49 54c37 64 69 84 108 84c42 0 67 -45 106 -45c20 0 44 18 60 55l50 -53c-29 -62 -63 -91 -107 -91z" />
    <glyph glyph-name="odieresis.smcp" horiz-adv-x="594" 
d="M306 68c79 0 128 79 128 171c0 100 -48 176 -133 176c-91 0 -141 -72 -141 -167c0 -103 52 -180 146 -180zM306 -12c-166 0 -258 106 -258 260c0 139 92 247 253 247c155 0 245 -111 245 -256c0 -143 -88 -251 -240 -251zM123 612c0 37 31 69 70 69c38 0 69 -31 69 -69
c0 -39 -31 -70 -69 -70c-39 0 -70 30 -70 70zM317 612c0 37 31 69 70 69c38 0 69 -31 69 -69c0 -39 -31 -70 -69 -70c-39 0 -70 30 -70 70z" />
    <glyph glyph-name="oslash.smcp" horiz-adv-x="593" 
d="M82 -36h-49l81 96c-44 46 -67 111 -67 188c0 139 92 247 253 247c57 0 105 -15 143 -42l69 83h50l-90 -107c47 -46 73 -113 73 -190c0 -143 -88 -251 -240 -251c-67 0 -122 17 -163 47zM305 68c79 0 128 79 128 171c0 43 -9 82 -26 112l-203 -241c25 -27 58 -42 101 -42z
M159 248c0 -41 8 -77 23 -106l201 240c-21 21 -49 33 -83 33c-91 0 -141 -72 -141 -167z" />
    <glyph glyph-name="ugrave.smcp" horiz-adv-x="561" 
d="M389 603l-39 -77l-196 92l41 85zM73 483h102v-306c0 -60 20 -109 104 -109c87 0 108 49 108 109v306h101v-306c0 -98 -41 -189 -209 -189c-161 0 -206 89 -206 189v306z" />
    <glyph glyph-name="uacute.smcp" horiz-adv-x="561" 
d="M73 483h102v-306c0 -60 20 -109 104 -109c87 0 108 49 108 109v306h101v-306c0 -98 -41 -189 -209 -189c-161 0 -206 89 -206 189v306zM233 524l-38 77l193 100l41 -85z" />
    <glyph glyph-name="ucircumflex.smcp" horiz-adv-x="561" 
d="M73 483h102v-306c0 -60 20 -109 104 -109c87 0 108 49 108 109v306h101v-306c0 -98 -41 -189 -209 -189c-161 0 -206 89 -206 189v306zM296 693l120 -110l-50 -57l-87 81l-82 -81l-50 56l118 111h31z" />
    <glyph glyph-name="udieresis.smcp" horiz-adv-x="561" 
d="M73 483h102v-306c0 -60 20 -109 104 -109c87 0 108 49 108 109v306h101v-306c0 -98 -41 -189 -209 -189c-161 0 -206 89 -206 189v306zM128 612c0 37 31 69 70 69c38 0 69 -31 69 -69c0 -39 -31 -70 -69 -70c-39 0 -70 30 -70 70zM322 612c0 37 31 69 70 69
c38 0 69 -31 69 -69c0 -39 -31 -70 -69 -70c-39 0 -70 30 -70 70z" />
    <glyph glyph-name="yacute.smcp" horiz-adv-x="463" 
d="M168 524l-38 77l193 100l41 -85zM283 197v-197h-102v199l-159 284h108l102 -188l98 188h107z" />
    <glyph glyph-name="ydieresis.smcp" horiz-adv-x="463" 
d="M283 197v-197h-102v199l-159 284h108l102 -188l98 188h107zM59 612c0 37 31 69 70 69c38 0 69 -31 69 -69c0 -39 -31 -70 -69 -70c-39 0 -70 30 -70 70zM253 612c0 37 31 69 70 69c38 0 69 -31 69 -69c0 -39 -31 -70 -69 -70c-39 0 -70 30 -70 70z" />
    <glyph glyph-name="amacron.smcp" horiz-adv-x="522" 
d="M26 0l181 483h106l185 -483h-106l-41 107h-179l-40 -107h-106zM260 343l-58 -155h118zM143 557v84h229v-84h-229z" />
    <glyph glyph-name="abreve.smcp" horiz-adv-x="522" 
d="M26 0l181 483h106l185 -483h-106l-41 107h-179l-40 -107h-106zM260 343l-58 -155h118zM103 689l67 17c7 -43 44 -88 89 -88c46 0 82 41 96 89l62 -19c-17 -85 -71 -151 -159 -151c-91 0 -148 74 -155 152z" />
    <glyph glyph-name="aogonek.smcp" horiz-adv-x="522" 
d="M26 0l181 483h106l185 -483h-10c-74 -27 -111 -57 -111 -86c0 -24 16 -39 38 -39c15 0 32 2 57 15l24 -51c-34 -22 -59 -28 -87 -28c-67 0 -103 42 -103 104c0 45 26 79 77 107l-32 85h-179l-40 -107h-106zM260 343l-58 -155h118z" />
    <glyph glyph-name="cacute.smcp" 
d="M481 440l-43 -65c-28 24 -68 39 -126 39c-97 0 -151 -77 -151 -174s52 -172 149 -172c58 0 99 15 127 40l42 -65c-40 -34 -99 -55 -174 -55c-176 0 -257 115 -257 252c0 142 93 255 259 255c75 0 134 -21 174 -55zM217 524l-38 77l193 100l41 -85z" />
    <glyph glyph-name="ccircumflex.smcp" 
d="M315 693l120 -110l-50 -57l-87 81l-82 -81l-50 56l118 111h31zM481 440l-43 -65c-28 24 -68 39 -126 39c-97 0 -151 -77 -151 -174s52 -172 149 -172c58 0 99 15 127 40l42 -65c-40 -34 -99 -55 -174 -55c-176 0 -257 115 -257 252c0 142 93 255 259 255
c75 0 134 -21 174 -55z" />
    <glyph glyph-name="cdotaccent.smcp" 
d="M215 621c0 39 31 70 70 70c38 0 69 -31 69 -70c0 -38 -31 -69 -69 -69c-40 0 -70 30 -70 69zM481 440l-43 -65c-28 24 -68 39 -126 39c-97 0 -151 -77 -151 -174s52 -172 149 -172c58 0 99 15 127 40l42 -65c-40 -34 -99 -55 -174 -55c-176 0 -257 115 -257 252
c0 142 93 255 259 255c75 0 134 -21 174 -55z" />
    <glyph glyph-name="ccaron.smcp" 
d="M481 440l-43 -65c-28 24 -68 39 -126 39c-97 0 -151 -77 -151 -174s52 -172 149 -172c58 0 99 15 127 40l42 -65c-40 -34 -99 -55 -174 -55c-176 0 -257 115 -257 252c0 142 93 255 259 255c75 0 134 -21 174 -55zM276 528l-122 110l50 55l88 -80l83 78l50 -55l-118 -108
h-31z" />
    <glyph glyph-name="dcaron.smcp" horiz-adv-x="554" 
d="M179 403v-323h43c92 0 171 47 171 155c0 118 -79 168 -171 168h-43zM77 0v483h150c159 0 278 -79 278 -248c0 -161 -119 -235 -278 -235h-150zM228 528l-122 110l50 55l88 -80l83 78l50 -55l-118 -108h-31z" />
    <glyph glyph-name="dcroat.smcp" horiz-adv-x="563" 
d="M26 222v63h60v198h150c159 0 278 -79 278 -248c0 -161 -119 -235 -278 -235h-150v222h-60zM188 403v-118h99v-63h-99v-142h43c92 0 171 47 171 155c0 118 -79 168 -171 168h-43z" />
    <glyph glyph-name="emacron.smcp" horiz-adv-x="438" 
d="M383 483v-80h-204v-115h161v-80h-161v-128h214v-80h-316v483h306zM117 557v84h229v-84h-229z" />
    <glyph glyph-name="ebreve.smcp" horiz-adv-x="438" 
d="M383 483v-80h-204v-115h161v-80h-161v-128h214v-80h-316v483h306zM73 689l67 17c7 -43 44 -88 89 -88c46 0 82 41 96 89l62 -19c-17 -85 -71 -151 -159 -151c-91 0 -148 74 -155 152z" />
    <glyph glyph-name="edotaccent.smcp" horiz-adv-x="438" 
d="M163 622c0 39 31 70 70 70c38 0 69 -31 69 -70c0 -38 -31 -69 -69 -69c-40 0 -70 30 -70 69zM383 483v-80h-204v-115h161v-80h-161v-128h214v-80h-316v483h306z" />
    <glyph glyph-name="eogonek.smcp" horiz-adv-x="438" 
d="M370 -110l24 -51c-34 -22 -59 -28 -87 -28c-67 0 -103 42 -103 104c0 34 15 62 44 85h-171v483h306v-80h-204v-115h161v-80h-161v-128h214v-80h-7c-74 -27 -111 -57 -111 -86c0 -24 16 -39 38 -39c15 0 32 2 57 15z" />
    <glyph glyph-name="ecaron.smcp" horiz-adv-x="438" 
d="M383 483v-80h-204v-115h161v-80h-161v-128h214v-80h-316v483h306zM222 528l-122 110l50 55l88 -80l83 78l50 -55l-118 -108h-31z" />
    <glyph glyph-name="gcircumflex.smcp" horiz-adv-x="545" 
d="M385 238h101v-202c-40 -30 -99 -48 -174 -48c-160 0 -264 101 -264 252c0 142 98 255 270 255c73 0 130 -21 169 -55l-42 -65c-29 24 -69 39 -127 39c-101 0 -158 -77 -158 -174s58 -172 162 -172c24 0 45 3 63 8v162zM320 693l120 -110l-50 -57l-87 81l-82 -81l-50 56
l118 111h31z" />
    <glyph glyph-name="gbreve.smcp" horiz-adv-x="545" 
d="M385 238h101v-202c-40 -30 -99 -48 -174 -48c-160 0 -264 101 -264 252c0 142 98 255 270 255c73 0 130 -21 169 -55l-42 -65c-29 24 -69 39 -127 39c-101 0 -158 -77 -158 -174s58 -172 162 -172c24 0 45 3 63 8v162zM148 689l67 17c7 -43 44 -88 89 -88
c46 0 82 41 96 89l62 -19c-17 -85 -71 -151 -159 -151c-91 0 -148 74 -155 152z" />
    <glyph glyph-name="gdotaccent.smcp" horiz-adv-x="545" 
d="M385 238h101v-202c-40 -30 -99 -48 -174 -48c-160 0 -264 101 -264 252c0 142 98 255 270 255c73 0 130 -21 169 -55l-42 -65c-29 24 -69 39 -127 39c-101 0 -158 -77 -158 -174s58 -172 162 -172c24 0 45 3 63 8v162zM232 622c0 39 31 70 70 70c38 0 69 -31 69 -70
c0 -38 -31 -69 -69 -69c-40 0 -70 30 -70 69z" />
    <glyph glyph-name="uni0123.smcp" horiz-adv-x="545" 
d="M385 238h101v-202c-40 -30 -99 -48 -174 -48c-160 0 -264 101 -264 252c0 142 98 255 270 255c73 0 130 -21 169 -55l-42 -65c-29 24 -69 39 -127 39c-101 0 -158 -77 -158 -174s58 -172 162 -172c24 0 45 3 63 8v162zM280 -325l-32 34c36 30 52 52 60 86h-5
c-39 0 -70 31 -70 69c0 39 31 70 70 70c42 0 70 -40 70 -95c-1 -60 -35 -122 -93 -164z" />
    <glyph glyph-name="hcircumflex.smcp" horiz-adv-x="562" 
d="M298 693l120 -110l-50 -57l-87 81l-82 -81l-50 56l118 111h31zM383 483h102v-483h-102v211h-204v-211h-102v483h102v-192h204v192z" />
    <glyph glyph-name="hbar.smcp" horiz-adv-x="576" 
d="M387 483h102v-60h72v-47h-72v-376h-102v211h-204v-211h-102v376h-46v47h46v60h102v-60h204v60zM183 291h204v85h-204v-85z" />
    <glyph glyph-name="itilde.smcp" horiz-adv-x="256" 
d="M196 543c-53 0 -71 43 -108 43c-18 0 -40 -10 -60 -47l-49 54c37 64 69 84 108 84c42 0 67 -45 106 -45c20 0 44 18 60 55l50 -53c-29 -62 -63 -91 -107 -91zM77 483h102v-483h-102v483z" />
    <glyph glyph-name="imacron.smcp" horiz-adv-x="256" 
d="M14 557v84h229v-84h-229zM77 483h102v-483h-102v483z" />
    <glyph glyph-name="iogonek.smcp" horiz-adv-x="259" 
d="M80 483h102v-483h-5c-74 -27 -111 -57 -111 -86c0 -24 16 -39 38 -39c15 0 32 2 57 15l24 -51c-34 -22 -59 -28 -87 -28c-67 0 -103 42 -103 104c0 47 29 82 85 110v458z" />
    <glyph glyph-name="jcircumflex.smcp" horiz-adv-x="257" 
d="M145 693l120 -110l-50 -57l-87 81l-82 -81l-50 56l118 111h31zM78 483h102v-437c0 -112 -32 -163 -174 -193l-23 76c75 16 95 44 95 114v440z" />
    <glyph glyph-name="uni0137.smcp" horiz-adv-x="500" 
d="M240 -325l-32 34c36 30 52 52 60 86h-5c-39 0 -70 31 -70 69c0 39 31 70 70 70c42 0 70 -40 70 -95c-1 -60 -35 -122 -93 -164zM475 0h-119l-137 205h-40v-205h-102v483h102v-198h36l139 198h117l-166 -234z" />
    <glyph glyph-name="kgreenlandic.smcp" horiz-adv-x="500" 
d="M475 0h-119l-137 205h-40v-205h-102v483h102v-198h36l139 198h117l-166 -234z" />
    <glyph glyph-name="lacute.smcp" horiz-adv-x="418" 
d="M386 80v-80h-309v483h102v-403h207zM60 525l-38 77l193 100l41 -85z" />
    <glyph glyph-name="uni013C.smcp" horiz-adv-x="418" 
d="M386 80v-80h-309v483h102v-403h207zM214 -325l-32 34c36 30 52 52 60 86h-5c-39 0 -70 31 -70 69c0 39 31 70 70 70c42 0 70 -40 70 -95c-1 -60 -35 -122 -93 -164z" />
    <glyph glyph-name="lcaron.smcp" horiz-adv-x="418" 
d="M386 80v-80h-309v483h102v-403h207zM116 528l-122 110l50 55l88 -80l83 78l50 -55l-118 -108h-31z" />
    <glyph glyph-name="ldot.smcp" horiz-adv-x="457" 
d="M386 80v-80h-309v483h102v-403h207zM278 280c0 40 32 70 70 70c39 0 70 -31 70 -70c0 -38 -31 -69 -70 -69s-70 30 -70 69z" />
    <glyph glyph-name="lslash.smcp" horiz-adv-x="435" 
d="M403 80v-80h-309v183l-64 -41v90l64 41v210h102v-145l86 55v-90l-86 -55v-168h207z" />
    <glyph glyph-name="nacute.smcp" horiz-adv-x="572" 
d="M215 524l-38 77l193 100l41 -85zM394 483h101v-483h-87l-229 308v-308h-102v483h88l229 -315v315z" />
    <glyph glyph-name="uni0146.smcp" horiz-adv-x="572" 
d="M277 -325l-32 34c36 30 52 52 60 86h-5c-39 0 -70 31 -70 69c0 39 31 70 70 70c42 0 70 -40 70 -95c-1 -60 -35 -122 -93 -164zM394 483h101v-483h-87l-229 308v-308h-102v483h88l229 -315v315z" />
    <glyph glyph-name="ncaron.smcp" horiz-adv-x="572" 
d="M269 528l-122 110l50 55l88 -80l83 78l50 -55l-118 -108h-31zM394 483h101v-483h-87l-229 308v-308h-102v483h88l229 -315v315z" />
    <glyph glyph-name="napostrophe.smcp" horiz-adv-x="699" 
d="M68 372l-32 34c35 29 52 52 59 86c-1 -1 -3 -1 -5 -1c-38 0 -69 31 -69 70s31 70 69 70c42 0 70 -40 70 -95c0 -60 -35 -122 -92 -164zM521 483h101v-483h-87l-229 308v-308h-102v483h88l229 -315v315z" />
    <glyph glyph-name="omacron.smcp" horiz-adv-x="594" 
d="M306 68c79 0 128 79 128 171c0 100 -48 176 -133 176c-91 0 -141 -72 -141 -167c0 -103 52 -180 146 -180zM306 -12c-166 0 -258 106 -258 260c0 139 92 247 253 247c155 0 245 -111 245 -256c0 -143 -88 -251 -240 -251zM178 557v84h229v-84h-229z" />
    <glyph glyph-name="obreve.smcp" horiz-adv-x="594" 
d="M306 68c79 0 128 79 128 171c0 100 -48 176 -133 176c-91 0 -141 -72 -141 -167c0 -103 52 -180 146 -180zM306 -12c-166 0 -258 106 -258 260c0 139 92 247 253 247c155 0 245 -111 245 -256c0 -143 -88 -251 -240 -251zM138 689l67 17c7 -43 44 -88 89 -88
c46 0 82 41 96 89l62 -19c-17 -85 -71 -151 -159 -151c-91 0 -148 74 -155 152z" />
    <glyph glyph-name="ohungarumlaut.smcp" horiz-adv-x="594" 
d="M306 68c79 0 128 79 128 171c0 100 -48 176 -133 176c-91 0 -141 -72 -141 -167c0 -103 52 -180 146 -180zM306 -12c-166 0 -258 106 -258 260c0 139 92 247 253 247c155 0 245 -111 245 -256c0 -143 -88 -251 -240 -251zM237 519l-74 36l83 175l80 -41zM392 519l-74 36
l82 175l81 -41z" />
    <glyph glyph-name="racute.smcp" horiz-adv-x="488" 
d="M458 0h-114l-98 176h-9h-58v-176h-102v483h143c138 0 201 -62 201 -152c0 -56 -27 -104 -78 -131zM225 403h-46v-146h49c54 0 81 30 81 73s-20 73 -84 73zM162 525l-38 77l193 100l41 -85z" />
    <glyph glyph-name="uni0157.smcp" horiz-adv-x="488" 
d="M458 0h-114l-98 176h-9h-58v-176h-102v483h143c138 0 201 -62 201 -152c0 -56 -27 -104 -78 -131zM225 403h-46v-146h49c54 0 81 30 81 73s-20 73 -84 73zM236 -325l-32 34c36 30 52 52 60 86h-5c-39 0 -70 31 -70 69c0 39 31 70 70 70c42 0 70 -40 70 -95
c-1 -60 -35 -122 -93 -164z" />
    <glyph glyph-name="rcaron.smcp" horiz-adv-x="488" 
d="M458 0h-114l-98 176h-9h-58v-176h-102v483h143c138 0 201 -62 201 -152c0 -56 -27 -104 -78 -131zM225 403h-46v-146h49c54 0 81 30 81 73s-20 73 -84 73zM215 528l-122 110l50 55l88 -80l83 78l50 -55l-118 -108h-31z" />
    <glyph glyph-name="sacute.smcp" horiz-adv-x="434" 
d="M46 33l30 76c48 -24 98 -41 134 -41c40 0 65 14 65 52c0 93 -221 79 -221 244c0 50 33 131 163 131c54 0 94 -10 151 -34l-23 -76c-53 21 -90 30 -120 30c-56 0 -64 -31 -64 -48c0 -87 230 -82 230 -245c1 -92 -80 -133 -178 -133c-69 0 -111 19 -167 44zM146 525l-38 77
l193 100l41 -85z" />
    <glyph glyph-name="scircumflex.smcp" horiz-adv-x="434" 
d="M232 693l120 -110l-50 -57l-87 81l-82 -81l-50 56l118 111h31zM46 33l30 76c48 -24 98 -41 134 -41c40 0 65 14 65 52c0 93 -221 79 -221 244c0 50 33 131 163 131c54 0 94 -10 151 -34l-23 -76c-53 21 -90 30 -120 30c-56 0 -64 -31 -64 -48c0 -87 230 -82 230 -245
c1 -92 -80 -133 -178 -133c-69 0 -111 19 -167 44z" />
    <glyph glyph-name="scedilla.smcp" horiz-adv-x="434" 
d="M211 -325l-32 34c36 30 52 52 60 86h-5c-39 0 -70 31 -70 69c0 39 31 70 70 70c42 0 70 -40 70 -95c-1 -60 -35 -122 -93 -164zM46 33l30 76c48 -24 98 -41 134 -41c40 0 65 14 65 52c0 93 -221 79 -221 244c0 50 33 131 163 131c54 0 94 -10 151 -34l-23 -76
c-53 21 -90 30 -120 30c-56 0 -64 -31 -64 -48c0 -87 230 -82 230 -245c1 -92 -80 -133 -178 -133c-69 0 -111 19 -167 44z" />
    <glyph glyph-name="scaron.smcp" horiz-adv-x="434" 
d="M46 33l30 76c48 -24 98 -41 134 -41c40 0 65 14 65 52c0 93 -221 79 -221 244c0 50 33 131 163 131c54 0 94 -10 151 -34l-23 -76c-53 21 -90 30 -120 30c-56 0 -64 -31 -64 -48c0 -87 230 -82 230 -245c1 -92 -80 -133 -178 -133c-69 0 -111 19 -167 44zM213 528
l-122 110l50 55l88 -80l83 78l50 -55l-118 -108h-31z" />
    <glyph glyph-name="uni0163.smcp" horiz-adv-x="439" 
d="M408 483v-80h-137v-403h-101v403h-139v80h377zM197 -325l-32 34c36 30 52 52 60 86h-5c-39 0 -70 31 -70 69c0 39 31 70 70 70c42 0 70 -40 70 -95c-1 -60 -35 -122 -93 -164z" />
    <glyph glyph-name="tcaron.smcp" horiz-adv-x="439" 
d="M408 483v-80h-137v-403h-101v403h-139v80h377zM203 528l-122 110l50 55l88 -80l83 78l50 -55l-118 -108h-31z" />
    <glyph glyph-name="tbar.smcp" horiz-adv-x="450" 
d="M414 483v-80h-137v-115h100v-46h-100v-242h-101v242h-108v46h108v115h-139v80h377z" />
    <glyph glyph-name="utilde.smcp" horiz-adv-x="561" 
d="M73 483h102v-306c0 -60 20 -109 104 -109c87 0 108 49 108 109v306h101v-306c0 -98 -41 -189 -209 -189c-161 0 -206 89 -206 189v306zM350 543c-53 0 -71 43 -108 43c-18 0 -40 -10 -60 -47l-49 54c37 64 69 84 108 84c42 0 67 -45 106 -45c20 0 44 18 60 55l50 -53
c-29 -62 -63 -91 -107 -91z" />
    <glyph glyph-name="umacron.smcp" horiz-adv-x="561" 
d="M73 483h102v-306c0 -60 20 -109 104 -109c87 0 108 49 108 109v306h101v-306c0 -98 -41 -189 -209 -189c-161 0 -206 89 -206 189v306zM169 557v84h229v-84h-229z" />
    <glyph glyph-name="ubreve.smcp" horiz-adv-x="561" 
d="M73 483h102v-306c0 -60 20 -109 104 -109c87 0 108 49 108 109v306h101v-306c0 -98 -41 -189 -209 -189c-161 0 -206 89 -206 189v306zM130 689l67 17c7 -43 44 -88 89 -88c46 0 82 41 96 89l62 -19c-17 -85 -71 -151 -159 -151c-91 0 -148 74 -155 152z" />
    <glyph glyph-name="uring.smcp" horiz-adv-x="561" 
d="M184 630c0 55 40 96 99 96c61 0 101 -41 101 -96c0 -56 -40 -97 -101 -97c-59 0 -99 41 -99 97zM283 581c24 0 43 12 43 49c0 38 -20 52 -43 52c-21 0 -40 -17 -40 -52c0 -38 19 -49 40 -49zM73 483h102v-306c0 -60 20 -109 104 -109c87 0 108 49 108 109v306h101v-306
c0 -98 -41 -189 -209 -189c-161 0 -206 89 -206 189v306z" />
    <glyph glyph-name="uhungarumlaut.smcp" horiz-adv-x="561" 
d="M216 522l-74 36l83 175l80 -41zM371 522l-74 36l82 175l81 -41zM73 483h102v-306c0 -60 20 -109 104 -109c87 0 108 49 108 109v306h101v-306c0 -98 -41 -189 -209 -189c-161 0 -206 89 -206 189v306z" />
    <glyph glyph-name="uogonek.smcp" horiz-adv-x="561" 
d="M373 -102l24 -51c-34 -22 -59 -28 -87 -28c-67 0 -103 42 -103 104c0 26 9 48 26 68c-124 15 -160 96 -160 186v306h102v-306c0 -60 20 -109 104 -109c87 0 108 49 108 109v306h101v-306c0 -79 -27 -154 -125 -179c-57 -25 -85 -51 -85 -76c0 -24 16 -39 38 -39
c15 0 32 2 57 15z" />
    <glyph glyph-name="wcircumflex.smcp" horiz-adv-x="809" 
d="M278 0h-92l-159 483h107l109 -351l123 351h76l127 -345l106 345h106l-158 -483h-94l-127 326zM413 693l120 -110l-50 -57l-87 81l-82 -81l-50 56l118 111h31z" />
    <glyph glyph-name="ycircumflex.smcp" horiz-adv-x="463" 
d="M248 693l120 -110l-50 -57l-87 81l-82 -81l-50 56l118 111h31zM283 197v-197h-102v199l-159 284h108l102 -188l98 188h107z" />
    <glyph glyph-name="zacute.smcp" horiz-adv-x="459" 
d="M282 403h-224v80h345v-80l-234 -323h241v-80h-364v80zM155 525l-38 77l193 100l41 -85z" />
    <glyph glyph-name="zdotaccent.smcp" horiz-adv-x="459" 
d="M164 622c0 39 31 70 70 70c38 0 69 -31 69 -70c0 -38 -31 -69 -69 -69c-40 0 -70 30 -70 69zM282 403h-224v80h345v-80l-234 -323h241v-80h-364v80z" />
    <glyph glyph-name="zcaron.smcp" horiz-adv-x="459" 
d="M282 403h-224v80h345v-80l-234 -323h241v-80h-364v80zM217 528l-122 110l50 55l88 -80l83 78l50 -55l-118 -108h-31z" />
    <glyph glyph-name="uni0219.smcp" horiz-adv-x="434" 
d="M203 -325l-32 34c36 30 52 52 60 86h-5c-39 0 -70 31 -70 69c0 39 31 70 70 70c42 0 70 -40 70 -95c-1 -60 -35 -122 -93 -164zM46 33l30 76c48 -24 98 -41 134 -41c40 0 65 14 65 52c0 93 -221 79 -221 244c0 50 33 131 163 131c54 0 94 -10 151 -34l-23 -76
c-53 21 -90 30 -120 30c-56 0 -64 -31 -64 -48c0 -87 230 -82 230 -245c1 -92 -80 -133 -178 -133c-69 0 -111 19 -167 44z" />
    <glyph glyph-name="uni021B.smcp" horiz-adv-x="439" 
d="M408 483v-80h-137v-403h-101v403h-139v80h377zM200 -325l-32 34c36 30 52 52 60 86h-5c-39 0 -70 31 -70 69c0 39 31 70 70 70c42 0 70 -40 70 -95c-1 -60 -35 -122 -93 -164z" />
    <glyph glyph-name="wgrave.smcp" horiz-adv-x="809" 
d="M278 0h-92l-159 483h107l109 -351l123 351h76l127 -345l106 345h106l-158 -483h-94l-127 326zM523 594l-39 -77l-196 92l41 85z" />
    <glyph glyph-name="wacute.smcp" horiz-adv-x="809" 
d="M278 0h-92l-159 483h107l109 -351l123 351h76l127 -345l106 345h106l-158 -483h-94l-127 326zM320 525l-38 77l193 100l41 -85z" />
    <glyph glyph-name="wdieresis.smcp" horiz-adv-x="809" 
d="M278 0h-92l-159 483h107l109 -351l123 351h76l127 -345l106 345h106l-158 -483h-94l-127 326zM238 612c0 37 31 69 70 69c38 0 69 -31 69 -69c0 -39 -31 -70 -69 -70c-39 0 -70 30 -70 70zM432 612c0 37 31 69 70 69c38 0 69 -31 69 -69c0 -39 -31 -70 -69 -70
c-39 0 -70 30 -70 70z" />
    <glyph glyph-name="eng" unicode="&#x14b;" horiz-adv-x="519" 
d="M173 0h-102v450l88 15v-56c41 37 90 62 149 62c76 0 142 -36 142 -147v-267c0 -144 -32 -206 -196 -245l-23 83c94 24 118 62 118 158v257c0 40 -20 75 -66 75c-36 0 -78 -22 -110 -54v-331z" />
    <glyph glyph-name="uni1E02" unicode="&#x1e02;" horiz-adv-x="563" 
d="M197 749c0 39 31 70 70 70s70 -31 70 -70s-31 -70 -70 -70s-70 31 -70 70zM86 616h197c135 0 186 -63 186 -151c0 -48 -17 -94 -47 -128c60 -33 93 -90 93 -160c0 -100 -77 -177 -215 -177h-214v616zM400 184c0 53 -28 93 -106 94h-103v-189h106c66 0 103 39 103 95z
M282 527h-91v-160h98c45 0 65 38 65 81s-22 79 -72 79z" />
    <glyph glyph-name="uni1E03" unicode="&#x1e03;" horiz-adv-x="525" 
d="M215 749c0 39 31 70 70 70s70 -31 70 -70s-31 -70 -70 -70s-70 31 -70 70zM73 647l101 15v-240c35 31 77 49 124 49c120 0 181 -107 181 -235c0 -136 -67 -251 -194 -251c-47 0 -79 14 -114 45l-20 -30h-78v647zM273 386c-44 0 -74 -18 -99 -49v-230
c21 -22 48 -37 88 -37c78 0 110 79 110 167c0 80 -32 149 -99 149z" />
    <glyph glyph-name="uni1E0A" unicode="&#x1e0a;" horiz-adv-x="641" 
d="M224 749c0 39 31 70 70 70s70 -31 70 -70s-31 -70 -70 -70s-70 31 -70 70zM191 527v-438h65c118 0 218 63 218 211c0 159 -100 227 -218 227h-65zM86 0v616h175c187 0 328 -101 328 -316c0 -206 -141 -300 -328 -300h-175z" />
    <glyph glyph-name="uni1E0B" unicode="&#x1e0b;" horiz-adv-x="525" 
d="M173 749c0 39 31 70 70 70s70 -31 70 -70s-31 -70 -70 -70s-70 31 -70 70zM351 652l101 10v-662h-72l-13 55c-38 -44 -88 -70 -141 -70c-114 0 -180 108 -180 236c0 136 63 250 195 250c40 0 78 -14 110 -38v219zM252 70c46 0 73 21 99 53v230c-21 20 -51 33 -88 33
c-78 0 -110 -79 -110 -167c0 -81 32 -149 99 -149z" />
    <glyph glyph-name="Ygrave" unicode="&#x1ef2;" horiz-adv-x="528" 
d="M317 251v-251h-105v253l-190 363h113l130 -257l127 257h111zM378 743l-38 -77l-197 92l42 85z" />
    <glyph glyph-name="uni1E1E" unicode="&#x1e1e;" horiz-adv-x="485" 
d="M183 749c0 39 31 70 70 70s70 -31 70 -70s-31 -70 -70 -70s-70 31 -70 70zM447 616v-89h-256v-165h202v-89h-202v-273h-105v616h361z" />
    <glyph glyph-name="uni1E1F" unicode="&#x1e1f;" horiz-adv-x="316" 
d="M129 793c0 39 31 70 70 70s70 -31 70 -70s-31 -70 -70 -70s-70 31 -70 70zM39 365v65l58 16v20c0 116 43 198 212 198v-84c-89 0 -111 -43 -111 -109v-21h90v-85h-90v-365h-101v365h-58z" />
    <glyph glyph-name="uni1E40" unicode="&#x1e40;" horiz-adv-x="794" 
d="M325 646c0 39 31 70 70 70s70 -31 70 -70s-31 -70 -70 -70s-70 31 -70 70zM587 616h111l20 -616h-105l-13 406l-165 -406h-76l-165 402l-13 -402h-105l20 616h111l192 -474z" />
    <glyph glyph-name="uni1E41" unicode="&#x1e41;" horiz-adv-x="798" 
d="M729 0h-101v310c0 53 -30 76 -67 76c-39 0 -79 -22 -110 -55v-7v-324h-101v310c0 53 -29 76 -66 76c-39 0 -80 -22 -111 -55v-331h-101v450l73 13l15 -54c41 38 90 62 149 62c53 0 100 -18 125 -66c41 40 92 66 153 66c76 0 142 -36 142 -147v-324zM330 618
c0 38 31 69 69 69c39 0 70 -31 70 -69c0 -39 -31 -70 -70 -70c-38 0 -69 31 -69 70z" />
    <glyph glyph-name="uni1E56" unicode="&#x1e56;" horiz-adv-x="519" 
d="M86 616h154c170 0 241 -79 241 -194c0 -112 -77 -198 -215 -198h-75v-224h-105v616zM244 527h-53v-214h67c71 0 109 45 109 107s-32 107 -123 107zM190 749c0 39 31 70 70 70s70 -31 70 -70s-31 -70 -70 -70s-70 31 -70 70z" />
    <glyph glyph-name="uni1E57" unicode="&#x1e57;" horiz-adv-x="525" 
d="M174 -189h-101v641l72 5l16 -52c38 42 86 66 138 66c114 0 180 -107 180 -235c0 -136 -63 -251 -195 -251c-41 0 -78 15 -110 38v-212zM273 386c-47 0 -74 -20 -99 -52v-230c21 -20 50 -34 88 -34c78 0 110 80 110 168c0 81 -32 148 -99 148zM187 618c0 38 31 69 69 69
c39 0 70 -31 70 -69c0 -39 -31 -70 -70 -70c-38 0 -69 31 -69 70z" />
    <glyph glyph-name="uni1E60" unicode="&#x1e60;" horiz-adv-x="496" 
d="M210 749c0 39 31 70 70 70s70 -31 70 -70s-31 -70 -70 -70s-70 31 -70 70zM45 43l32 84c55 -31 116 -53 163 -53c55 0 93 22 93 78c0 128 -275 130 -275 316c0 62 40 163 194 163c65 0 111 -13 176 -43l-25 -85c-60 28 -105 39 -144 39c-77 0 -90 -45 -90 -71
c0 -119 283 -130 283 -317c0 -116 -95 -168 -211 -168c-78 0 -131 24 -196 57z" />
    <glyph glyph-name="ygrave" unicode="&#x1ef3;" horiz-adv-x="488" 
d="M24 457h108l114 -320l112 320h106l-137 -380c-49 -126 -83 -266 -281 -266v84c87 0 119 47 146 105h-3zM349 583l-51 -69l-174 132l52 74z" />
    <glyph glyph-name="uni1E61" unicode="&#x1e61;" horiz-adv-x="427" 
d="M366 440l-16 -78c-50 23 -89 30 -116 30c-30 0 -62 -10 -62 -43c0 -59 215 -106 215 -230c0 -84 -73 -134 -175 -134c-66 0 -118 21 -178 53l29 81c52 -34 93 -49 140 -49c37 0 71 18 71 45c0 75 -214 104 -214 231c0 92 74 125 152 125c57 0 97 -10 154 -31zM146 618
c0 38 31 69 69 69c39 0 70 -31 70 -69c0 -39 -31 -70 -70 -70c-38 0 -69 31 -69 70z" />
    <glyph glyph-name="uni1E6A" unicode="&#x1e6a;" horiz-adv-x="509" 
d="M183 748c0 39 31 70 70 70s70 -31 70 -70s-31 -70 -70 -70s-70 31 -70 70zM480 616v-89h-172v-527h-105v527h-174v89h451z" />
    <glyph glyph-name="uni1E6B" unicode="&#x1e6b;" horiz-adv-x="338" 
d="M87 749c0 39 31 70 70 70s70 -31 70 -70s-31 -70 -70 -70s-70 31 -70 70zM38 372v75l61 9l15 136h84v-135h89v-85h-89v-228c0 -48 17 -74 49 -74c18 0 30 4 55 17v-77c-33 -21 -65 -25 -88 -25c-76 0 -117 50 -117 131v256h-59z" />
    <glyph glyph-name="uni1E03.smcp" horiz-adv-x="492" 
d="M155 622c0 39 31 70 70 70c38 0 69 -31 69 -70c0 -38 -31 -69 -69 -69c-40 0 -70 30 -70 69zM77 483h171c116 0 159 -51 159 -122c0 -36 -14 -70 -36 -97c47 -26 75 -71 75 -125c0 -79 -66 -139 -184 -139h-185v483zM334 147c0 35 -18 62 -66 65h-6h-2h-81v-132h80
c48 0 75 26 75 67zM246 403h-67v-111h77h4c23 2 35 27 35 53c0 31 -16 58 -49 58z" />
    <glyph glyph-name="uni1E0B.smcp" horiz-adv-x="554" 
d="M168 622c0 39 31 70 70 70c38 0 69 -31 69 -70c0 -38 -31 -69 -69 -69c-40 0 -70 30 -70 69zM179 403v-323h43c92 0 171 47 171 155c0 118 -79 168 -171 168h-43zM77 0v483h150c159 0 278 -79 278 -248c0 -161 -119 -235 -278 -235h-150z" />
    <glyph glyph-name="uni1E1F.smcp" horiz-adv-x="422" 
d="M160 622c0 39 31 70 70 70c38 0 69 -31 69 -70c0 -38 -31 -69 -69 -69c-40 0 -70 30 -70 69zM383 483v-80h-204v-115h161v-80h-161v-208h-102v483h306z" />
    <glyph glyph-name="uni1E41.smcp" horiz-adv-x="690" 
d="M280 531c0 39 31 70 70 70c38 0 69 -31 69 -70c0 -38 -31 -69 -69 -69c-40 0 -70 30 -70 69zM500 483h101l21 -483h-102l-13 285l-126 -285h-72l-127 283l-12 -283h-102l21 483h105l153 -350z" />
    <glyph glyph-name="uni1E57.smcp" horiz-adv-x="457" 
d="M156 622c0 39 31 70 70 70c38 0 69 -31 69 -70c0 -38 -31 -69 -69 -69c-40 0 -70 30 -70 69zM77 483h137c143 0 206 -63 206 -155c0 -89 -66 -158 -184 -158h-57v-170h-102v483zM219 403h-40v-152h49c53 0 81 31 81 76s-24 76 -90 76z" />
    <glyph glyph-name="ygrave.smcp" horiz-adv-x="463" 
d="M327 594l-39 -77l-196 92l41 85zM283 197v-197h-102v199l-159 284h108l102 -188l98 188h107z" />
    <glyph glyph-name="uni1E61.smcp" horiz-adv-x="434" 
d="M153 622c0 39 31 70 70 70c38 0 69 -31 69 -70c0 -38 -31 -69 -69 -69c-40 0 -70 30 -70 69zM46 33l30 76c48 -24 98 -41 134 -41c40 0 65 14 65 52c0 93 -221 79 -221 244c0 50 33 131 163 131c54 0 94 -10 151 -34l-23 -76c-53 21 -90 30 -120 30
c-56 0 -64 -31 -64 -48c0 -87 230 -82 230 -245c1 -92 -80 -133 -178 -133c-69 0 -111 19 -167 44z" />
    <glyph glyph-name="uni1E6B.smcp" horiz-adv-x="439" 
d="M155 622c0 39 31 70 70 70c38 0 69 -31 69 -70c0 -38 -31 -69 -69 -69c-40 0 -70 30 -70 69zM408 483v-80h-137v-403h-101v403h-139v80h377z" />
    <glyph glyph-name="Eng" unicode="&#x14a;" horiz-adv-x="660" 
d="M469 616h105v-559c0 -144 -36 -206 -200 -245l-23 85c76 19 106 47 115 107l-275 419v-423h-105v616h105l278 -430v430z" />
    <glyph glyph-name="eng.smcp" horiz-adv-x="571" 
d="M394 482h100v-430c0 -118 -31 -169 -174 -201l-24 80c63 15 86 35 94 80l-212 291v-302h-101v482h98l219 -310v310z" />
    <glyph glyph-name="uni0418" unicode="&#x418;" horiz-adv-x="660" 
d="M86 616h105v-429l278 429h105v-616h-105v433l-278 -433h-105v616z" />
    <glyph glyph-name="onehalf" unicode="&#xbd;" horiz-adv-x="756" 
d="M162 16l367 617l68 -40l-369 -618zM74 501l-42 51l86 67l1 -1v1h87v-249h57v-65h-198v65h54v165zM501 229l-36 49c29 26 64 44 118 44c99 0 129 -56 128 -89c0 -91 -99 -100 -133 -168h132v-65h-237v17c0 132 142 161 142 210c0 11 -4 29 -41 29c-20 0 -49 -9 -73 -27z
" />
    <glyph glyph-name="onesuperior" unicode="&#xb9;" horiz-adv-x="282" 
d="M65 501l-42 51l86 67l1 -1v1h87v-249h57v-65h-198v65h54v165z" />
    <glyph glyph-name="twosuperior" unicode="&#xb2;" horiz-adv-x="314" 
d="M66 534l-36 49c29 26 64 44 118 44c99 0 129 -56 128 -89c0 -91 -99 -100 -133 -168h132v-65h-237v17c0 132 142 161 142 210c0 11 -4 29 -41 29c-20 0 -49 -9 -73 -27z" />
    <glyph glyph-name="threesuperior" unicode="&#xb3;" horiz-adv-x="311" 
d="M74 547l-35 47c21 18 48 33 100 33c102 0 122 -53 122 -85c0 -24 -12 -52 -38 -73c33 -21 54 -48 54 -75c1 -36 -23 -97 -132 -97c-55 0 -86 13 -119 36l36 51c23 -14 42 -21 81 -21c37 0 45 21 45 36c0 17 -23 35 -74 35h-8v65h8h6c38 2 51 19 51 34c0 11 -6 28 -40 28
c-27 0 -46 -6 -57 -14z" />
    <glyph glyph-name="onequarter" unicode="&#xbc;" horiz-adv-x="709" 
d="M160 16l367 617l68 -40l-369 -618zM74 501l-42 51l86 67l1 -1v1h87v-249h57v-65h-198v65h54v165zM549 314h87v-195h34v-65h-34v-54h-87v54h-145v65zM491 119h58v77z" />
    <glyph glyph-name="threequarters" unicode="&#xbe;" horiz-adv-x="697" 
d="M149 16l367 617l68 -40l-369 -618zM537 314h87v-195h34v-65h-34v-54h-87v54h-145v65zM479 119h58v77zM83 547l-35 47c21 18 48 33 100 33c102 0 122 -53 122 -85c0 -24 -12 -52 -38 -73c33 -21 54 -48 54 -75c1 -36 -23 -97 -132 -97c-55 0 -86 13 -119 36l36 51
c23 -14 42 -21 81 -21c37 0 45 21 45 36c0 17 -23 35 -74 35h-8v65h8h6c38 2 51 19 51 34c0 11 -6 28 -40 28c-27 0 -46 -6 -57 -14z" />
    <glyph glyph-name="Lgeminada" horiz-adv-x="944" 
d="M298 337c0 39 32 70 70 70c39 0 70 -31 70 -70c0 -38 -31 -69 -70 -69c-40 0 -70 33 -70 69zM450 89v-89h-364v616h105v-527h259zM915 89v-89h-364v616h105v-527h259z" />
    <glyph glyph-name="exclamdown.case" horiz-adv-x="298" 
d="M201 1h-105l8 412h89zM83 564c0 37 29 66 66 66s67 -29 67 -66s-30 -67 -67 -67s-66 29 -66 67z" />
    <glyph glyph-name="lgeminada" horiz-adv-x="571" 
d="M216 352c0 39 32 70 70 70c39 0 70 -31 70 -70c0 -38 -31 -69 -70 -69c-40 0 -70 33 -70 69zM74 647l101 15v-662h-101v647zM396 647l101 15v-662h-101v647z" />
    <glyph glyph-name="lgeminada.smcp" horiz-adv-x="835" 
d="M274 282c0 39 32 70 70 70c39 0 70 -31 70 -70c0 -38 -31 -69 -70 -69c-40 0 -70 33 -70 69zM386 80v-80h-309v483h102v-403h207zM803 80v-80h-309v483h102v-403h207z" />
    <glyph glyph-name="questiondown.case" horiz-adv-x="418" 
d="M337 134l53 -52c-47 -57 -110 -97 -182 -97c-90 0 -176 53 -176 152c0 153 169 130 158 324h88c12 -208 -144 -223 -144 -313c0 -39 28 -78 84 -78c44 0 84 24 119 64zM298 568c0 -35 -28 -63 -63 -63c-36 0 -63 28 -63 63s28 63 63 63s63 -28 63 -63z" />
    <glyph glyph-name="dslash" horiz-adv-x="525" 
d="M215 516v62h280v-62h-280zM351 652l101 10v-662h-72l-13 55c-38 -44 -88 -70 -141 -70c-114 0 -180 108 -180 236c0 136 63 250 195 250c40 0 78 -14 110 -38v219zM252 70c46 0 73 21 99 53v230c-21 20 -51 33 -88 33c-78 0 -110 -79 -110 -167c0 -81 32 -149 99 -149z
" />
    <glyph glyph-name="middot" horiz-adv-x="134" 
d="M-1 263c0 39 32 70 70 70c39 0 70 -31 70 -70c0 -38 -31 -69 -70 -69c-40 0 -70 33 -70 69z" />
    <glyph glyph-name="Idot" horiz-adv-x="432" 
d="M85 647l101 15v-662h-101v647zM274 292c0 40 32 70 70 70c39 0 70 -31 70 -70c0 -38 -31 -69 -70 -69s-70 30 -70 69z" />
    <glyph glyph-name="uni00A0" unicode="&#xa0;" horiz-adv-x="180" 
 />
    </font>
</defs>
</svg>
