<?xml version="1.0" standalone="no"?>
<!DOCTYPE svg PUBLIC "-//W3C//DTD SVG 1.1//EN" "http://www.w3.org/Graphics/SVG/1.1/DTD/svg11.dtd" >
<svg xmlns="http://www.w3.org/2000/svg" xmlns:xlink="http://www.w3.org/1999/xlink" version="1.1">
<metadata>
Created by FontForge 20160407 at Fri May 13 09:36:46 2016
 By Jimmy Wärting
Copyright (c) 2013 by Josep Patau Bellart. All rights reserved.
</metadata>
<defs>
<font id="CintaRegular" horiz-adv-x="517" >
  <font-face 
    font-family="Cinta Regular"
    font-weight="500"
    font-stretch="normal"
    units-per-em="1000"
    panose-1="2 0 0 0 0 0 0 0 0 0"
    ascent="800"
    descent="-200"
    x-height="455"
    cap-height="616"
    bbox="-156 -312 1091 878"
    underline-thickness="50"
    underline-position="-100"
    stemh="72"
    stemv="86"
    unicode-range="U+0020-FB06"
  />
<missing-glyph horiz-adv-x="533" 
d="M67 1v699h399v-699h-399zM107 41h319v619h-319v-619z" />
    <glyph glyph-name="fi" unicode="fi" horiz-adv-x="531" 
d="M42 378v55l59 14v23c0 115 37 194 193 194v-71c-88 0 -107 -47 -107 -119v-24h266v-450h-86v378h-180v-378h-86v378h-59zM351 598c0 33 26 58 58 58c33 0 60 -25 60 -58s-27 -59 -60 -59c-32 0 -58 25 -58 59z" />
    <glyph glyph-name="fl" unicode="fl" horiz-adv-x="532" 
d="M42 378v55l59 14v23c0 115 38 194 200 194h152v-664h-86v593h-66c-94 0 -114 -47 -114 -119v-24h91v-72h-91v-378h-86v378h-59z" />
    <glyph glyph-name="f_f" unicode="ff" horiz-adv-x="579" 
d="M42 378v55l59 14v8c0 107 37 182 195 182v-71c-90 0 -109 -42 -109 -108v-8h182v20c0 115 39 194 201 194v-71c-94 0 -115 -47 -115 -119v-24h95v-72h-95v-378h-86v378h-182v-378h-86v378h-59z" />
    <glyph glyph-name="f_f_i" unicode="ffi" horiz-adv-x="799" 
d="M42 378v55l59 14v8c0 107 37 182 195 182v-71c-90 0 -109 -42 -109 -108v-8h182v20c0 115 37 194 193 194v-71c-88 0 -105 -47 -105 -119v-24h264v-450h-86v378h-178v-378h-88v378h-182v-378h-86v378h-59zM619 598c0 33 25 58 58 58s59 -25 59 -58s-26 -59 -59 -59
s-58 25 -58 59z" />
    <glyph glyph-name="f_f_l" unicode="ffl" horiz-adv-x="801" 
d="M42 378v55l59 14v8c0 107 37 182 195 182v-71c-90 0 -109 -42 -109 -108v-8h182v20c0 115 39 194 201 194h151v-664h-86v593h-65c-94 0 -115 -47 -115 -119v-24h91v-72h-91v-378h-86v378h-182v-378h-86v378h-59z" />
    <glyph glyph-name=".notdef" horiz-adv-x="533" 
d="M67 1v699h399v-699h-399zM107 41h319v619h-319v-619z" />
    <glyph glyph-name="Eth" unicode="&#xd0;" horiz-adv-x="647" 
d="M35 277v75h63v264h171c183 0 322 -101 322 -316c0 -206 -139 -300 -322 -300h-171v277h-63zM187 540v-188h151v-75h-151v-201h77c125 0 230 67 230 224c0 168 -105 240 -230 240h-77z" />
    <glyph glyph-name="eth" unicode="&#xf0;" horiz-adv-x="538" 
d="M230 513l-25 27l66 66c-15 8 -30 12 -47 12c-40 0 -83 -6 -126 -25l-27 62c54 23 100 35 152 35c38 0 72 -11 102 -29l55 55l26 -27l-51 -51c81 -70 127 -203 127 -338c0 -154 -43 -316 -215 -316c-123 0 -217 91 -217 248c0 144 86 238 210 238c50 0 89 -21 119 -49
c-15 69 -41 128 -78 163zM392 295c0 9 0 19 -1 29c-31 39 -73 73 -131 73c-69 0 -120 -65 -120 -165c0 -116 59 -175 127 -175c101 0 125 121 125 238z" />
    <glyph glyph-name="Lslash" unicode="&#x141;" horiz-adv-x="487" 
d="M35 200v79l286 194v-78zM456 76v-76h-357v616h89v-540h268z" />
    <glyph glyph-name="L" unicode="L" horiz-adv-x="479" 
d="M449 76v-76h-357v616h89v-540h268z" />
    <glyph glyph-name="lslash" unicode="&#x142;" horiz-adv-x="285" 
d="M254 469v-79l-222 -154v79zM99 648l86 14v-662h-86v648z" />
    <glyph glyph-name="l" unicode="l" horiz-adv-x="245" 
d="M80 648l86 14v-662h-86v648z" />
    <glyph glyph-name="Scaron" unicode="&#x160;" horiz-adv-x="497" 
d="M48 44l28 71c53 -31 114 -54 165 -54c61 0 107 26 107 90c0 137 -284 134 -284 321c0 60 40 159 193 159c64 0 109 -13 170 -43l-22 -73c-57 29 -102 40 -144 40c-86 0 -103 -51 -103 -81c0 -128 290 -132 290 -321c0 -115 -94 -167 -208 -167c-74 0 -129 24 -192 58z
M251 664l-125 116l44 50l97 -90l94 90l43 -49l-122 -117h-31z" />
    <glyph glyph-name="S" unicode="S" horiz-adv-x="497" 
d="M48 44l28 71c53 -31 114 -54 165 -54c61 0 107 26 107 90c0 137 -284 134 -284 321c0 60 40 159 193 159c64 0 109 -13 170 -43l-22 -73c-57 29 -102 40 -144 40c-86 0 -103 -51 -103 -81c0 -128 290 -132 290 -321c0 -115 -94 -167 -208 -167c-74 0 -129 24 -192 58z
" />
    <glyph glyph-name="caron.case" horiz-adv-x="329" 
d="M147 657l-125 116l44 50l97 -90l94 90l43 -49l-122 -117h-31z" />
    <glyph glyph-name="scaron" unicode="&#x161;" horiz-adv-x="428" 
d="M212 516l-119 135l46 46l90 -105l86 104l46 -44l-119 -136h-30zM363 439l-14 -67c-48 22 -88 29 -117 29c-35 0 -73 -10 -73 -49c0 -69 225 -104 225 -237c0 -82 -74 -130 -173 -130c-66 0 -116 21 -173 54l25 69c49 -34 91 -51 141 -51c45 0 85 21 85 54
c0 80 -224 103 -224 237c0 90 73 121 149 121c57 0 95 -10 149 -30z" />
    <glyph glyph-name="caron" unicode="&#x2c7;" horiz-adv-x="329" 
d="M148 516l-119 135l46 46l90 -105l86 104l46 -44l-119 -136h-30z" />
    <glyph glyph-name="s" unicode="s" horiz-adv-x="428" 
d="M363 439l-14 -67c-48 22 -88 29 -117 29c-35 0 -73 -10 -73 -49c0 -69 225 -104 225 -237c0 -82 -74 -130 -173 -130c-66 0 -116 21 -173 54l25 69c49 -34 91 -51 141 -51c45 0 85 21 85 54c0 80 -224 103 -224 237c0 90 73 121 149 121c57 0 95 -10 149 -30z" />
    <glyph glyph-name="Yacute" unicode="&#xdd;" horiz-adv-x="521" 
d="M306 251v-251h-90v255l-189 361h97l138 -272l135 272h95zM206 669l-33 66l188 97l35 -73z" />
    <glyph glyph-name="Y" unicode="Y" horiz-adv-x="521" 
d="M306 251v-251h-90v255l-189 361h97l138 -272l135 272h95z" />
    <glyph glyph-name="acute.case" horiz-adv-x="235" 
d="M40 669l-33 66l188 97l35 -73z" />
    <glyph glyph-name="yacute" unicode="&#xfd;" horiz-adv-x="482" 
d="M29 455h88l124 -344l127 344h86l-147 -397c-48 -122 -75 -247 -259 -247v71c93 0 119 53 148 118h-2zM207 512l-44 58l163 137l46 -63z" />
    <glyph glyph-name="y" unicode="y" horiz-adv-x="482" 
d="M29 455h88l124 -344l127 344h86l-147 -397c-48 -122 -75 -247 -259 -247v71c93 0 119 53 148 118h-2z" />
    <glyph glyph-name="acute" unicode="&#xb4;" horiz-adv-x="235" 
d="M70 516l-44 58l163 137l46 -63z" />
    <glyph glyph-name="Thorn" unicode="&#xde;" horiz-adv-x="514" 
d="M92 616h89v-109h55c169 0 236 -78 236 -190c0 -111 -75 -195 -210 -195h-81v-122h-89v616zM239 431h-58v-233h75c78 0 119 49 119 116s-35 117 -136 117z" />
    <glyph glyph-name="thorn" unicode="&#xfe;" horiz-adv-x="521" 
d="M78 648l87 14v-246c36 33 79 53 129 53c117 0 176 -105 176 -232c0 -137 -64 -252 -193 -252c-50 0 -83 15 -112 40v-214h-87v837zM274 397c-47 0 -80 -20 -109 -56v-245c23 -23 53 -39 96 -39c84 0 119 85 119 181c0 87 -35 159 -106 159z" />
    <glyph glyph-name="Zcaron" unicode="&#x17d;" horiz-adv-x="512" 
d="M367 540h-304v76h393v-76l-320 -464h326v-76h-416v76zM245 676l-125 116l44 50l97 -90l94 90l43 -49l-122 -117h-31z" />
    <glyph glyph-name="Z" unicode="Z" horiz-adv-x="512" 
d="M367 540h-304v76h393v-76l-320 -464h326v-76h-416v76z" />
    <glyph glyph-name="zcaron" unicode="&#x17e;" horiz-adv-x="439" 
d="M210 512l-119 135l46 46l90 -105l86 104l46 -44l-119 -136h-30zM382 382l-242 -310h251v-72h-342v72l240 310h-232v73h325v-73z" />
    <glyph glyph-name="z" unicode="z" horiz-adv-x="439" 
d="M382 382l-242 -310h251v-72h-342v72l240 310h-232v73h325v-73z" />
    <glyph glyph-name="brokenbar" unicode="&#xa6;" horiz-adv-x="263" 
d="M88 -189v404h87v-404h-87zM88 285v401h87v-401h-87z" />
    <glyph glyph-name="minus" unicode="&#x2212;" horiz-adv-x="516" 
d="M77 280v74h362v-74h-362z" />
    <glyph glyph-name="multiply" unicode="&#xd7;" horiz-adv-x="486" 
d="M118 56l-52 53l124 124l-125 126l52 53l126 -126l126 126l52 -53l-126 -126l125 -124l-52 -53l-125 125z" />
    <glyph glyph-name="space" unicode=" " horiz-adv-x="244" 
 />
    <glyph glyph-name="exclam" unicode="!" horiz-adv-x="264" 
d="M87 645h90l-8 -452h-74zM74 44c0 33 26 59 58 59c33 0 60 -26 60 -59c0 -32 -27 -59 -60 -59c-32 0 -58 26 -58 59z" />
    <glyph glyph-name="quotedbl" unicode="&#x22;" horiz-adv-x="400" 
d="M156 369h-79l-4 247h87zM324 369h-79l-4 247h86z" />
    <glyph glyph-name="numbersign" unicode="#" horiz-adv-x="645" 
d="M576 236l-12 -75h-105l-20 -161h-87l20 161h-140l-21 -161h-87l20 161h-97l11 75h96l18 144h-103l12 75h101l21 161h88l-21 -161h140l21 161h87l-21 -161h101l-11 -75h-100l-18 -144h107zM260 380l-19 -144h141l18 144h-140z" />
    <glyph glyph-name="dollar" unicode="$" horiz-adv-x="474" 
d="M273 731h38l-13 -103c39 -5 72 -17 113 -40l-24 -73c-38 20 -69 32 -98 37l-24 -198c73 -44 157 -93 157 -197c0 -118 -93 -171 -201 -171h-1l-12 -100h-37l12 103c-50 8 -99 30 -142 55l30 71c38 -25 81 -45 121 -52l26 217c-71 42 -150 87 -150 189
c0 60 40 162 192 162h1zM326 154c0 46 -32 76 -73 104l-24 -198c54 1 97 30 97 94zM158 473c0 -42 31 -71 72 -98l21 180c-76 -2 -93 -54 -93 -82z" />
    <glyph glyph-name="percent" unicode="%" horiz-adv-x="780" 
d="M162 8l392 647l66 -42l-391 -649zM178 297c-81 0 -139 65 -139 167c0 101 57 167 139 167s139 -66 139 -167c0 -102 -57 -167 -139 -167zM178 357c37 0 63 42 63 107s-26 107 -63 107s-63 -42 -63 -107s26 -107 63 -107zM603 -15c-81 0 -139 65 -139 167
c0 101 57 167 139 167s139 -66 139 -167c0 -102 -57 -167 -139 -167zM603 45c36 0 63 42 63 107s-27 107 -63 107c-37 0 -64 -42 -64 -107s27 -107 64 -107z" />
    <glyph glyph-name="ampersand" unicode="&#x26;" horiz-adv-x="683" 
d="M554 358h94l-192 -230l4 -5c27 -40 59 -64 81 -64c25 0 50 12 70 33l33 -53c-30 -31 -63 -54 -116 -54c-32 0 -82 28 -122 84c-39 -42 -92 -85 -155 -85c-102 0 -185 82 -185 180c0 94 71 152 144 194c-31 47 -58 94 -58 134c0 77 56 139 143 139c84 0 132 -66 134 -129
c3 -74 -50 -129 -112 -167l96 -143zM250 55c41 0 81 38 114 77l-112 165c-54 -31 -109 -69 -109 -132c0 -61 51 -110 107 -110zM228 493c0 -27 25 -63 49 -98c41 26 77 62 76 103c-2 30 -23 62 -62 62c-37 0 -63 -30 -63 -67z" />
    <glyph glyph-name="quotesingle" unicode="'" horiz-adv-x="233" 
d="M156 369h-79l-4 247h87z" />
    <glyph glyph-name="parenleft" unicode="(" horiz-adv-x="316" 
d="M281 -126l-62 -41c-105 130 -170 250 -170 433c0 178 79 319 175 435l61 -41c-85 -109 -150 -236 -150 -394c0 -159 62 -280 146 -392z" />
    <glyph glyph-name="parenright" unicode=")" horiz-adv-x="316" 
d="M97 -167l-62 41c84 112 146 233 146 392c0 158 -65 285 -150 394l62 41c95 -116 175 -256 175 -435c0 -191 -77 -316 -171 -433z" />
    <glyph glyph-name="asterisk" unicode="*" horiz-adv-x="511" 
d="M61 552l35 61l123 -70v144h70v-143l125 74l36 -59l-127 -75l130 -74l-36 -60l-128 73v-147h-70v146l-124 -73l-36 58l126 75z" />
    <glyph glyph-name="plus" unicode="+" horiz-adv-x="538" 
d="M49 194v75h183v181h74v-181h183v-75h-183v-194h-74v194h-183z" />
    <glyph glyph-name="comma" unicode="," horiz-adv-x="262" 
d="M104 -133l-28 32c35 29 52 51 59 86c-1 -1 -3 -1 -4 -1c-35 0 -63 29 -63 63c0 35 28 63 63 63c39 0 63 -35 63 -85c0 -60 -34 -118 -90 -158z" />
    <glyph glyph-name="hyphen" unicode="-" horiz-adv-x="336" 
d="M71 201v74h194v-74h-194z" />
    <glyph glyph-name="period" unicode="." horiz-adv-x="254" 
d="M64 48c0 34 28 62 63 62s63 -28 63 -62c0 -35 -28 -63 -63 -63s-63 28 -63 63z" />
    <glyph glyph-name="slash" unicode="/" horiz-adv-x="491" 
d="M23 -189l362 874h84l-363 -874h-83z" />
    <glyph glyph-name="zero" unicode="0" horiz-adv-x="561" 
d="M278 57c100 0 128 108 128 251c0 138 -30 251 -128 251c-95 0 -123 -113 -123 -251c0 -143 28 -251 123 -251zM278 -15c-162 0 -213 137 -213 323c0 179 51 323 213 323c165 0 219 -144 219 -323c0 -186 -54 -323 -219 -323z" />
    <glyph glyph-name="one" unicode="1" horiz-adv-x="418" 
d="M84 433l-45 57l147 127l1 -2v1h86v-544h110v-72h-307v72h111v449z" />
    <glyph glyph-name="two" unicode="2" horiz-adv-x="516" 
d="M99 498l-40 52c48 50 103 81 190 81c152 0 199 -105 197 -169c-3 -184 -278 -230 -303 -390h318v-72h-406v34c0 237 297 272 300 427c0 35 -25 98 -118 98c-62 0 -97 -21 -138 -61z" />
    <glyph glyph-name="three" unicode="3" horiz-adv-x="507" 
d="M104 523l-36 53c34 30 81 56 165 56c157 0 188 -100 188 -161c0 -48 -24 -107 -83 -145c70 -36 111 -97 111 -156c1 -67 -38 -184 -216 -184c-76 0 -130 19 -194 70l38 57c43 -34 80 -55 152 -55c104 0 131 72 130 116c0 55 -53 112 -163 115h-8h-15v72h15h8
c103 3 135 61 135 108c0 35 -17 90 -103 90c-56 0 -98 -14 -124 -36z" />
    <glyph glyph-name="four" unicode="4" horiz-adv-x="542" 
d="M319 616h87v-396h90v-72h-90v-148h-87v148h-281v72zM126 220h193v270z" />
    <glyph glyph-name="five" unicode="5" horiz-adv-x="509" 
d="M128 289h-52l36 327h323v-72h-252l-19 -170c32 16 65 26 104 26c116 0 183 -91 183 -197c0 -141 -85 -218 -205 -218c-89 0 -140 19 -199 78l40 55c43 -44 92 -61 147 -61c72 0 127 51 127 147c0 67 -43 124 -112 124c-38 0 -69 -7 -121 -39z" />
    <glyph glyph-name="six" unicode="6" horiz-adv-x="534" 
d="M463 597l-28 -62c-27 12 -67 24 -110 24c-78 0 -150 -71 -169 -209c39 27 85 46 133 46c107 0 190 -60 190 -194c0 -133 -87 -217 -203 -217c-135 0 -215 129 -215 290c0 231 126 356 264 356c58 0 107 -17 138 -34zM289 323c-48 0 -99 -21 -138 -52
c1 -122 51 -214 124 -214c66 0 113 53 113 141c0 89 -43 125 -99 125z" />
    <glyph glyph-name="seven" unicode="7" horiz-adv-x="462" 
d="M181 0h-104l261 544h-296v72h398v-30z" />
    <glyph glyph-name="eight" unicode="8" 
d="M257 -15c-108 0 -200 55 -200 151c0 85 54 143 126 185c-65 52 -92 100 -92 158c0 98 81 152 174 152c92 0 170 -55 170 -148c0 -78 -51 -130 -109 -169c86 -64 133 -116 133 -188c0 -81 -86 -141 -202 -141zM373 138c0 46 -52 84 -120 133c-61 -32 -109 -73 -109 -128
c0 -54 53 -89 112 -89c67 0 117 39 117 84zM178 480c0 -43 27 -75 79 -117c43 27 92 59 92 117c0 40 -29 82 -83 82c-51 0 -88 -37 -88 -82z" />
    <glyph glyph-name="nine" unicode="9" horiz-adv-x="534" 
d="M72 19l28 63c27 -13 66 -25 109 -25c78 0 150 72 169 209c-39 -27 -85 -45 -133 -45c-107 0 -189 59 -189 193s87 217 202 217c133 0 216 -121 216 -290c0 -231 -127 -356 -265 -356c-58 0 -106 17 -137 34zM245 293c48 0 99 21 138 52c-1 123 -50 214 -124 214
c-66 0 -113 -52 -113 -141c0 -88 44 -125 99 -125z" />
    <glyph glyph-name="colon" unicode=":" horiz-adv-x="266" 
d="M71 48c0 34 28 62 63 62c34 0 62 -28 62 -62c0 -35 -28 -63 -62 -63c-35 0 -63 27 -63 63zM71 407c0 35 28 63 63 63c34 0 62 -28 62 -63c0 -34 -28 -62 -62 -62c-36 0 -63 27 -63 62z" />
    <glyph glyph-name="semicolon" unicode=";" horiz-adv-x="274" 
d="M111 -133l-29 32c37 29 53 51 60 86c-1 -1 -3 -1 -4 -1c-35 0 -63 29 -63 63c0 35 28 63 63 63c39 0 63 -35 63 -85c-1 -60 -34 -118 -90 -158zM75 407c0 35 28 63 63 63c34 0 62 -28 62 -63c0 -34 -28 -62 -62 -62c-36 0 -63 27 -63 62z" />
    <glyph glyph-name="less" unicode="&#x3c;" horiz-adv-x="452" 
d="M378 119v-81l-329 160v57l329 160v-81l-226 -108z" />
    <glyph glyph-name="equal" unicode="=" horiz-adv-x="557" 
d="M77 98v74h403v-74h-403zM77 287v73h403v-73h-403z" />
    <glyph glyph-name="greater" unicode="&#x3e;" horiz-adv-x="452" 
d="M74 38v81l226 107l-226 108v81l329 -160v-57z" />
    <glyph glyph-name="question" unicode="?" horiz-adv-x="421" 
d="M79 493l-47 46c46 54 107 92 177 92c117 0 174 -77 174 -154c0 -150 -160 -128 -160 -330h-77c0 207 147 240 147 323c0 44 -27 89 -91 89c-47 0 -89 -26 -123 -66zM125 43c0 32 26 58 58 58s59 -26 59 -58s-27 -58 -59 -58c-33 0 -58 26 -58 58z" />
    <glyph glyph-name="at" unicode="@" horiz-adv-x="850" 
d="M518 447l85 -6l-53 -324c94 9 173 90 173 205c0 123 -102 212 -257 212c-174 0 -346 -131 -346 -341c0 -156 105 -250 241 -250c68 0 149 14 213 62l24 -39c-74 -60 -157 -79 -237 -79c-188 0 -305 131 -305 306c0 243 202 398 410 398c194 0 322 -113 322 -269
c0 -142 -109 -254 -262 -257h-70l17 104c-54 -60 -118 -112 -157 -112c-68 0 -90 57 -90 126c0 121 103 258 203 271l83 -40zM352 137c30 0 93 64 136 124l14 87l-78 38c-48 -11 -108 -111 -108 -195c-1 -31 9 -54 36 -54z" />
    <glyph glyph-name="A" unicode="A" horiz-adv-x="595" 
d="M30 0l219 616h93l226 -616h-88l-62 169h-240l-60 -169h-88zM296 498l-91 -253h185z" />
    <glyph glyph-name="B" unicode="B" horiz-adv-x="561" 
d="M92 616h189c131 0 181 -61 181 -147c0 -51 -18 -99 -51 -133c64 -31 97 -88 97 -159c0 -100 -75 -177 -210 -177h-206v616zM412 181c0 57 -31 103 -118 105h-7h-106v-210h115c74 0 116 44 116 105zM282 540h-101v-178h103c58 0 82 43 82 94c0 46 -25 84 -84 84z" />
    <glyph glyph-name="C" unicode="C" horiz-adv-x="601" 
d="M561 566l-37 -63c-38 30 -88 52 -166 52c-133 0 -205 -113 -205 -249c0 -137 70 -245 201 -245c78 0 129 19 166 53l37 -63c-46 -41 -115 -66 -207 -66c-199 0 -294 145 -294 321c0 179 105 325 298 325c92 0 161 -25 207 -65z" />
    <glyph glyph-name="D" unicode="D" horiz-adv-x="641" 
d="M181 540v-464h77c125 0 230 67 230 224c0 168 -105 240 -230 240h-77zM92 0v616h171c183 0 322 -101 322 -316c0 -206 -139 -300 -322 -300h-171z" />
    <glyph glyph-name="E" unicode="E" horiz-adv-x="509" 
d="M448 616v-76h-267v-183h209v-76h-209v-205h282v-76h-371v616h356z" />
    <glyph glyph-name="F" unicode="F" horiz-adv-x="488" 
d="M448 616v-76h-267v-183h209v-76h-209v-281h-89v616h356z" />
    <glyph glyph-name="G" unicode="G" horiz-adv-x="631" 
d="M474 301h90v-251c-45 -40 -112 -65 -201 -65c-193 0 -308 134 -308 321c0 179 109 325 306 325c91 0 158 -25 204 -65l-38 -63c-38 30 -88 52 -166 52c-135 0 -209 -113 -209 -249c0 -137 76 -245 218 -245c42 0 76 7 104 20v220z" />
    <glyph glyph-name="H" unicode="H" horiz-adv-x="651" 
d="M470 616h89v-616h-89v285h-289v-285h-89v616h89v-255h289v255z" />
    <glyph glyph-name="I" unicode="I" horiz-adv-x="272" 
d="M92 616h89v-616h-89v616z" />
    <glyph glyph-name="J" unicode="J" horiz-adv-x="272" 
d="M92 616h89v-561c0 -144 -34 -204 -193 -243l-20 72c100 26 124 64 124 168v564z" />
    <glyph glyph-name="K" unicode="K" horiz-adv-x="559" 
d="M536 0h-105l-185 273h-66v-273h-88v616h88v-268h59l185 268h101l-206 -301z" />
    <glyph glyph-name="M" unicode="M" horiz-adv-x="789" 
d="M594 616h96l15 -616h-89l-11 441l-178 -441h-65l-179 440l-10 -440h-89l15 616h100l197 -498z" />
    <glyph glyph-name="N" unicode="N" horiz-adv-x="658" 
d="M478 616h89v-616h-75l-311 452v-452h-89v616h75l311 -458v458z" />
    <glyph glyph-name="O" unicode="O" horiz-adv-x="683" 
d="M353 61c110 0 178 110 178 244c0 143 -67 251 -184 251c-125 0 -194 -104 -194 -240c0 -145 71 -255 200 -255zM353 -15c-191 0 -297 137 -297 331c0 178 106 315 291 315c178 0 280 -141 280 -326c0 -182 -100 -320 -274 -320z" />
    <glyph glyph-name="P" unicode="P" horiz-adv-x="515" 
d="M92 616h144c169 0 236 -78 236 -190c0 -111 -75 -195 -210 -195h-81v-231h-89v616zM239 540h-58v-234h75c78 0 120 50 120 117s-36 117 -137 117z" />
    <glyph glyph-name="Q" unicode="Q" horiz-adv-x="683" 
d="M627 305c0 -142 -61 -257 -170 -301c107 -65 208 -111 321 -63l15 -72c-177 -75 -306 25 -461 117c-176 9 -276 143 -276 330c0 178 106 315 291 315c178 0 280 -141 280 -326zM353 61c110 0 178 109 178 244c0 143 -67 250 -184 250c-125 0 -194 -103 -194 -239
c0 -145 71 -255 200 -255z" />
    <glyph glyph-name="R" unicode="R" horiz-adv-x="553" 
d="M516 0h-103l-140 243h-9h-83v-243h-89v616h156c159 0 226 -75 226 -182c0 -79 -39 -143 -112 -173zM251 540h-70v-221h76c79 0 120 47 120 112c0 62 -29 109 -126 109z" />
    <glyph glyph-name="T" unicode="T" horiz-adv-x="511" 
d="M480 616v-76h-179v-540h-89v540h-182v76h450z" />
    <glyph glyph-name="U" unicode="U" horiz-adv-x="640" 
d="M86 616h89v-405c0 -84 28 -150 144 -150c117 0 146 66 146 150v405h89v-407c0 -115 -46 -224 -235 -224c-185 0 -233 107 -233 224v407z" />
    <glyph glyph-name="V" unicode="V" horiz-adv-x="591" 
d="M341 0h-95l-216 616h94l171 -510l177 510h93z" />
    <glyph glyph-name="W" unicode="W" horiz-adv-x="935" 
d="M318 0h-94l-192 616h93l148 -489l147 487v2h94l-1 -2l151 -488l145 490h93l-190 -616h-95l-150 468z" />
    <glyph glyph-name="X" unicode="X" horiz-adv-x="545" 
d="M119 0h-94l200 315l-189 301h95l141 -226l144 226h93l-190 -300l198 -316h-93l-152 241z" />
    <glyph glyph-name="bracketleft" unicode="[" horiz-adv-x="319" 
d="M87 -140v801h187v-71h-105v-658h105v-72h-187z" />
    <glyph glyph-name="backslash" unicode="\" horiz-adv-x="494" 
d="M385 -189l-363 874h86l362 -874h-85z" />
    <glyph glyph-name="bracketright" unicode="]" horiz-adv-x="319" 
d="M46 661h186v-801h-186v72h105v658h-105v71z" />
    <glyph glyph-name="asciicircum" unicode="^" horiz-adv-x="502" 
d="M214 616h69l181 -381l-75 -27l-140 298l-134 -297l-75 27z" />
    <glyph glyph-name="underscore" unicode="_" horiz-adv-x="637" 
d="M70 -140v63h496v-63h-496z" />
    <glyph glyph-name="grave" unicode="`" horiz-adv-x="235" 
d="M202 572l-45 -58l-165 133l47 63z" />
    <glyph glyph-name="a" unicode="a" horiz-adv-x="464" 
d="M318 0l-11 53c-48 -43 -89 -68 -144 -68c-68 0 -120 36 -120 110c0 103 110 138 261 176v26c0 72 -45 99 -95 99c-42 0 -87 -15 -119 -35l-23 59c42 27 97 49 165 49c86 0 158 -42 158 -165v-304h-72zM187 63c40 0 74 18 117 51v96c-104 -27 -171 -44 -171 -101
c0 -32 25 -46 54 -46z" />
    <glyph glyph-name="b" unicode="b" horiz-adv-x="521" 
d="M78 648l86 14v-247c36 34 80 54 130 54c117 0 176 -105 176 -232c0 -137 -64 -252 -193 -252c-46 0 -80 15 -115 44l-20 -29h-64v648zM274 397c-48 0 -81 -21 -110 -57v-243c23 -24 54 -40 97 -40c84 0 119 85 119 181c0 87 -35 159 -106 159z" />
    <glyph glyph-name="c" unicode="c" horiz-adv-x="464" 
d="M50 228c0 136 82 241 222 241c71 0 122 -21 155 -54l-37 -59c-28 24 -60 41 -109 41c-95 0 -141 -80 -141 -169s44 -171 137 -171c54 0 86 16 111 40l35 -57c-32 -33 -83 -55 -154 -55c-144 0 -219 114 -219 243z" />
    <glyph glyph-name="d" unicode="d" horiz-adv-x="521" 
d="M357 652l86 10v-662h-61l-12 56c-39 -45 -89 -71 -143 -71c-113 0 -176 106 -176 233c0 137 61 251 194 251c41 0 79 -15 112 -39v222zM247 57c49 0 80 22 110 59v244c-24 22 -56 37 -96 37c-85 0 -119 -85 -119 -181c0 -87 34 -159 105 -159z" />
    <glyph glyph-name="e" unicode="e" horiz-adv-x="503" 
d="M452 208h-314c7 -83 51 -151 141 -151c57 0 94 25 123 59l45 -45c-36 -50 -99 -86 -181 -86c-138 0 -216 106 -216 242c0 133 75 242 206 242c123 0 197 -102 197 -221c0 -15 0 -28 -1 -40zM253 397c-61 0 -99 -53 -111 -120h224c-11 68 -55 120 -113 120z" />
    <glyph glyph-name="f" unicode="f" horiz-adv-x="311" 
d="M42 378v55l59 14v23c0 115 38 194 200 194v-71c-94 0 -115 -47 -115 -119v-24h96v-72h-96v-378h-85v378h-59z" />
    <glyph glyph-name="g" unicode="g" horiz-adv-x="497" 
d="M58 314c0 98 79 155 178 155c57 0 107 -18 140 -51l92 61v-80l-63 -23c8 -18 13 -39 13 -62c0 -97 -80 -154 -182 -154c-17 0 -34 1 -49 5c-17 -15 -28 -31 -28 -49c0 -23 7 -42 48 -42h142c64 0 109 -36 109 -100c0 -94 -107 -163 -233 -163c-101 0 -192 25 -192 104
c0 47 35 81 73 105c-28 16 -37 41 -37 64c0 44 27 70 62 102c-44 26 -73 69 -73 128zM143 314c0 -62 45 -93 95 -93c57 0 95 36 95 93s-38 96 -95 96s-95 -39 -95 -96zM181 5h-18c-25 -16 -48 -40 -48 -68c0 -39 34 -56 102 -56c80 0 150 30 150 76c0 28 -15 48 -54 48h-132
z" />
    <glyph glyph-name="h" unicode="h" 
d="M443 0h-86v320c0 55 -31 77 -69 77c-44 0 -90 -25 -124 -63v-334h-86v648l86 14v-250c39 35 86 57 143 57c72 0 136 -34 136 -139v-330z" />
    <glyph glyph-name="i" unicode="i" horiz-adv-x="242" 
d="M164 0h-86v448l86 14v-462zM63 604c0 33 26 58 58 58c33 0 60 -25 60 -58s-27 -59 -60 -59c-32 0 -58 25 -58 59z" />
    <glyph glyph-name="j" unicode="j" horiz-adv-x="242" 
d="M78 448l86 14v-407c0 -144 -31 -204 -189 -243l-20 70c100 26 123 66 123 170v396zM63 604c0 33 26 58 58 58c33 0 60 -25 60 -58s-27 -59 -60 -59c-32 0 -58 25 -58 59z" />
    <glyph glyph-name="k" unicode="k" horiz-adv-x="484" 
d="M460 0h-101l-136 219h-59v-219h-86v648l86 14v-370h59l123 163h102l-150 -196h1z" />
    <glyph glyph-name="m" unicode="m" horiz-adv-x="795" 
d="M721 0h-86v320c0 55 -32 77 -69 77c-45 0 -90 -25 -124 -63v-4v-330h-86v320c0 55 -31 77 -68 77c-45 0 -91 -25 -125 -63v-334h-86v450l63 12l14 -58c41 39 92 65 152 65c53 0 101 -18 123 -69c43 42 94 69 156 69c73 0 136 -34 136 -139v-330z" />
    <glyph glyph-name="n" unicode="n" horiz-adv-x="516" 
d="M163 0h-86v450l63 11l13 -58c42 40 92 66 153 66c73 0 136 -34 136 -139v-330h-86v320c0 55 -31 77 -68 77c-45 0 -91 -25 -125 -63v-334z" />
    <glyph glyph-name="o" unicode="o" horiz-adv-x="529" 
d="M50 227c0 133 74 242 213 242c141 0 217 -109 217 -242c0 -130 -75 -242 -216 -242c-140 0 -214 110 -214 242zM141 227c0 -91 40 -170 123 -170c84 0 125 79 125 170c0 92 -41 170 -125 170c-83 0 -123 -78 -123 -170z" />
    <glyph glyph-name="p" unicode="p" horiz-adv-x="521" 
d="M164 -189h-86v641l62 5l14 -54c38 42 88 67 141 67c112 0 175 -106 175 -233c0 -136 -61 -252 -194 -252c-41 0 -80 15 -112 39v-213zM274 397c-50 0 -81 -22 -110 -59v-243c23 -23 56 -37 97 -37c84 0 119 86 119 182c0 87 -35 157 -106 157z" />
    <glyph glyph-name="q" unicode="q" horiz-adv-x="521" 
d="M443 -189h-86v227c-36 -33 -80 -53 -130 -53c-117 0 -176 106 -176 232c0 137 64 252 193 252c45 0 90 -20 125 -52l21 40h53v-646zM247 57c48 0 81 20 110 56v243c-24 24 -54 41 -96 41c-85 0 -119 -85 -119 -181c0 -86 34 -159 105 -159z" />
    <glyph glyph-name="r" unicode="r" horiz-adv-x="361" 
d="M162 0h-85v448l72 11l10 -88c38 61 83 98 141 98c14 0 25 0 39 -6l-1 -78c-14 5 -26 8 -41 8c-51 0 -97 -30 -135 -88v-305z" />
    <glyph glyph-name="t" unicode="t" horiz-adv-x="333" 
d="M40 383v62l61 9l16 138h69v-137h94v-72h-94v-247c0 -50 16 -79 52 -79c19 0 33 5 60 19v-66c-33 -21 -65 -25 -88 -25c-75 0 -110 56 -110 131v267h-60z" />
    <glyph glyph-name="u" unicode="u" 
d="M353 455h86v-455h-63l-10 55c-43 -42 -94 -69 -156 -69c-73 0 -136 34 -136 139v327l86 12v-328c0 -55 32 -76 69 -76c45 0 89 24 124 61v334z" />
    <glyph glyph-name="v" unicode="v" horiz-adv-x="482" 
d="M285 0h-92l-164 455h87l124 -363l127 363h86z" />
    <glyph glyph-name="w" unicode="w" horiz-adv-x="680" 
d="M246 0h-83l-129 455h92l87 -356l96 356h66l90 -354l92 354h91l-135 -455h-83l-90 332z" />
    <glyph glyph-name="x" unicode="x" horiz-adv-x="466" 
d="M116 0h-91l163 232l-151 223h92l105 -157l110 157h92l-157 -223l158 -232h-92l-113 166z" />
    <glyph glyph-name="braceleft" unicode="{" horiz-adv-x="318" 
d="M41 218v74h4c48 2 71 38 71 84v153c0 67 34 128 105 128h46v-74h-23c-27 0 -41 -29 -41 -62v-154c0 -45 -27 -85 -62 -112c35 -27 62 -67 62 -112v-154c0 -33 14 -63 41 -63h23v-74h-46c-58 0 -105 50 -105 129v153c0 46 -23 82 -71 84h-4z" />
    <glyph glyph-name="bar" unicode="|" horiz-adv-x="262" 
d="M86 686h91v-876h-91v876z" />
    <glyph glyph-name="braceright" unicode="}" horiz-adv-x="318" 
d="M277 292v-74c-50 0 -75 -37 -75 -84v-153c0 -67 -34 -129 -105 -129h-46v74h23c27 0 41 30 41 63v154c0 45 27 86 63 113c-35 26 -63 64 -63 111v154c0 33 -14 62 -41 62h-23v74h46c71 0 105 -61 105 -128v-153c0 -47 25 -84 75 -84z" />
    <glyph glyph-name="asciitilde" unicode="~" horiz-adv-x="549" 
d="M111 174l-47 44c48 79 88 103 139 103c57 0 93 -65 149 -66c37 -2 68 32 84 75l49 -40c-27 -70 -72 -114 -134 -114c-76 0 -108 63 -155 65c-27 0 -56 -15 -85 -67z" />
    <glyph glyph-name="Adieresis" unicode="&#xc4;" horiz-adv-x="595" 
d="M30 0l219 616h93l226 -616h-88l-62 169h-240l-60 -169h-88zM296 498l-91 -253h185zM141 736c0 35 28 63 63 63s63 -28 63 -63s-28 -63 -63 -63s-63 28 -63 63zM325 736c0 35 28 63 63 63c34 0 62 -28 62 -63s-28 -63 -62 -63c-36 0 -63 28 -63 63z" />
    <glyph glyph-name="dieresis.case" horiz-adv-x="381" 
d="M35 736c0 35 28 63 63 63s63 -28 63 -63s-28 -63 -63 -63s-63 28 -63 63zM219 736c0 35 28 63 63 63c34 0 62 -28 62 -63s-28 -63 -62 -63c-36 0 -63 28 -63 63z" />
    <glyph glyph-name="Aring" unicode="&#xc5;" horiz-adv-x="595" 
d="M197 686c0 54 39 94 98 94c60 0 100 -40 100 -94c0 -38 -18 -68 -48 -84l221 -602h-93l-62 169h-230l-60 -169h-93l214 601c-30 16 -47 45 -47 85zM296 487l-86 -242h175zM295 635c24 0 45 12 45 49c0 40 -21 54 -45 54c-22 0 -42 -16 -42 -54s20 -49 42 -49z" />
    <glyph glyph-name="ring.case" horiz-adv-x="270" 
d="M36 755c0 54 39 94 98 94c60 0 100 -40 100 -94c0 -56 -40 -96 -100 -96c-59 0 -98 37 -98 96zM134 704c24 0 45 12 45 49c0 40 -21 54 -45 54c-22 0 -42 -16 -42 -54s20 -49 42 -49z" />
    <glyph glyph-name="Ccedilla" unicode="&#xc7;" horiz-adv-x="600" 
d="M232 -162l21 33c16 -13 44 -24 65 -24c24 0 40 15 40 33c0 25 -30 38 -96 38l27 72c-158 27 -233 159 -233 316c0 179 105 325 298 325c92 0 161 -25 207 -65l-37 -63c-38 30 -88 52 -166 52c-133 0 -205 -113 -205 -249c0 -137 70 -245 201 -245c78 0 129 19 166 53
l37 -63c-46 -41 -115 -66 -207 -66h-7l-8 -23c51 -9 81 -38 81 -82c0 -43 -38 -80 -94 -80c-33 0 -65 18 -90 38z" />
    <glyph glyph-name="cedilla" unicode="&#xb8;" horiz-adv-x="243" 
d="M22 -162l21 33c16 -13 44 -24 65 -24c24 0 40 15 40 33c0 25 -30 38 -96 38l35 93l55 -1l-17 -48c51 -9 81 -38 81 -82c0 -43 -38 -80 -94 -80c-33 0 -65 18 -90 38z" />
    <glyph glyph-name="Eacute" unicode="&#xc9;" horiz-adv-x="509" 
d="M448 616v-76h-267v-183h209v-76h-209v-205h282v-76h-371v616h356zM186 669l-33 66l188 97l35 -73z" />
    <glyph glyph-name="Ntilde" unicode="&#xd1;" horiz-adv-x="658" 
d="M385 679c-53 0 -74 48 -111 48c-17 0 -39 -10 -58 -47l-44 45c37 63 68 83 108 83c41 0 66 -49 103 -49c22 0 47 16 65 53l45 -44c-30 -61 -63 -89 -108 -89zM478 616h89v-616h-75l-311 452v-452h-89v616h75l311 -458v458z" />
    <glyph glyph-name="tilde.case" horiz-adv-x="382" 
d="M244 679c-53 0 -74 48 -111 48c-17 0 -39 -10 -58 -47l-44 45c37 63 68 83 108 83c41 0 66 -49 103 -49c22 0 47 16 65 53l45 -44c-30 -61 -63 -89 -108 -89z" />
    <glyph glyph-name="Odieresis" unicode="&#xd6;" horiz-adv-x="683" 
d="M353 61c110 0 178 110 178 244c0 143 -67 251 -184 251c-125 0 -194 -104 -194 -240c0 -145 71 -255 200 -255zM353 -15c-191 0 -297 137 -297 331c0 178 106 315 291 315c178 0 280 -141 280 -326c0 -182 -100 -320 -274 -320zM192 736c0 35 28 63 63 63s63 -28 63 -63
s-28 -63 -63 -63s-63 28 -63 63zM376 736c0 35 28 63 63 63c34 0 62 -28 62 -63s-28 -63 -62 -63c-36 0 -63 28 -63 63z" />
    <glyph glyph-name="Udieresis" unicode="&#xdc;" horiz-adv-x="640" 
d="M86 616h89v-405c0 -84 28 -150 144 -150c117 0 146 66 146 150v405h89v-407c0 -115 -46 -224 -235 -224c-185 0 -233 107 -233 224v407zM168 736c0 35 28 63 63 63s63 -28 63 -63s-28 -63 -63 -63s-63 28 -63 63zM352 736c0 35 28 63 63 63c34 0 62 -28 62 -63
s-28 -63 -62 -63c-36 0 -63 28 -63 63z" />
    <glyph glyph-name="aacute" unicode="&#xe1;" horiz-adv-x="464" 
d="M318 0l-11 53c-48 -43 -89 -68 -144 -68c-68 0 -120 36 -120 110c0 103 110 138 261 176v26c0 72 -45 99 -95 99c-42 0 -87 -15 -119 -35l-23 59c42 27 97 49 165 49c86 0 158 -42 158 -165v-304h-72zM187 63c40 0 74 18 117 51v96c-104 -27 -171 -44 -171 -101
c0 -32 25 -46 54 -46zM187 516l-44 58l163 137l46 -63z" />
    <glyph glyph-name="agrave" unicode="&#xe0;" horiz-adv-x="464" 
d="M318 0l-11 53c-48 -43 -89 -68 -144 -68c-68 0 -120 36 -120 110c0 103 110 138 261 176v26c0 72 -45 99 -95 99c-42 0 -87 -15 -119 -35l-23 59c42 27 97 49 165 49c86 0 158 -42 158 -165v-304h-72zM187 63c40 0 74 18 117 51v96c-104 -27 -171 -44 -171 -101
c0 -32 25 -46 54 -46zM338 572l-45 -58l-165 133l47 63z" />
    <glyph glyph-name="acircumflex" unicode="&#xe2;" horiz-adv-x="464" 
d="M318 0l-11 53c-48 -43 -89 -68 -144 -68c-68 0 -120 36 -120 110c0 103 110 138 261 176v26c0 72 -45 99 -95 99c-42 0 -87 -15 -119 -35l-23 59c42 27 97 49 165 49c86 0 158 -42 158 -165v-304h-72zM187 63c40 0 74 18 117 51v96c-104 -27 -171 -44 -171 -101
c0 -32 25 -46 54 -46zM99 562l119 135h31l118 -136l-46 -44l-87 97l-89 -97z" />
    <glyph glyph-name="circumflex" unicode="&#x2c6;" horiz-adv-x="329" 
d="M30 562l119 135h31l118 -136l-46 -44l-87 97l-89 -97z" />
    <glyph glyph-name="adieresis" unicode="&#xe4;" horiz-adv-x="464" 
d="M318 0l-11 53c-48 -43 -89 -68 -144 -68c-68 0 -120 36 -120 110c0 103 110 138 261 176v26c0 72 -45 99 -95 99c-42 0 -87 -15 -119 -35l-23 59c42 27 97 49 165 49c86 0 158 -42 158 -165v-304h-72zM187 63c40 0 74 18 117 51v96c-104 -27 -171 -44 -171 -101
c0 -32 25 -46 54 -46zM72 598c0 33 28 62 63 62c34 0 62 -28 62 -62c0 -35 -28 -63 -62 -63c-35 0 -63 27 -63 63zM256 598c0 33 28 62 63 62c34 0 62 -28 62 -62c0 -35 -28 -63 -62 -63c-35 0 -63 27 -63 63z" />
    <glyph glyph-name="dieresis" unicode="&#xa8;" horiz-adv-x="380" 
d="M34 598c0 33 28 62 63 62c34 0 62 -28 62 -62c0 -35 -28 -63 -62 -63c-35 0 -63 27 -63 63zM218 598c0 33 28 62 63 62c34 0 62 -28 62 -62c0 -35 -28 -63 -62 -63c-35 0 -63 27 -63 63z" />
    <glyph glyph-name="atilde" unicode="&#xe3;" horiz-adv-x="464" 
d="M318 0l-11 53c-48 -43 -89 -68 -144 -68c-68 0 -120 36 -120 110c0 103 110 138 261 176v26c0 72 -45 99 -95 99c-42 0 -87 -15 -119 -35l-23 59c42 27 97 49 165 49c86 0 158 -42 158 -165v-304h-72zM187 63c40 0 74 18 117 51v96c-104 -27 -171 -44 -171 -101
c0 -32 25 -46 54 -46zM274 536c-51 0 -71 44 -106 44c-15 0 -35 -10 -52 -47l-44 45c32 60 61 80 96 80c42 0 66 -46 104 -46c17 0 39 15 53 53l44 -44c-26 -58 -56 -85 -95 -85z" />
    <glyph glyph-name="tilde" unicode="&#x2dc;" horiz-adv-x="371" 
d="M236 536c-51 0 -71 44 -106 44c-15 0 -35 -10 -52 -47l-44 45c32 60 61 80 96 80c42 0 66 -46 104 -46c17 0 39 15 53 53l44 -44c-26 -58 -56 -85 -95 -85z" />
    <glyph glyph-name="aring" unicode="&#xe5;" horiz-adv-x="464" 
d="M318 0l-11 53c-48 -43 -89 -68 -144 -68c-68 0 -120 36 -120 110c0 103 110 138 261 176v26c0 72 -45 99 -95 99c-42 0 -87 -15 -119 -35l-23 59c42 27 97 49 165 49c86 0 158 -42 158 -165v-304h-72zM187 63c40 0 74 18 117 51v96c-104 -27 -171 -44 -171 -101
c0 -32 25 -46 54 -46zM136 610c0 50 38 90 94 90s95 -38 95 -90s-39 -91 -95 -91s-94 39 -94 91zM229 562c24 0 42 14 42 48c0 37 -19 50 -42 50c-20 0 -38 -16 -38 -50c0 -37 17 -48 38 -48z" />
    <glyph glyph-name="ring" unicode="&#x2da;" horiz-adv-x="268" 
d="M39 610c0 50 38 90 94 90s95 -38 95 -90s-39 -91 -95 -91s-94 39 -94 91zM132 562c24 0 42 14 42 48c0 37 -19 50 -42 50c-20 0 -38 -16 -38 -50c0 -37 17 -48 38 -48z" />
    <glyph glyph-name="ccedilla" unicode="&#xe7;" horiz-adv-x="464" 
d="M162 -169l21 33c16 -13 44 -24 65 -24c24 0 40 15 40 33c0 25 -30 38 -96 38l29 79c-113 21 -171 124 -171 238c0 136 82 241 222 241c71 0 122 -21 155 -54l-37 -59c-28 24 -60 41 -109 41c-95 0 -141 -80 -141 -169s44 -171 137 -171c54 0 86 16 111 40l35 -57
c-31 -32 -80 -53 -148 -55l-10 -30c51 -9 81 -38 81 -82c0 -43 -38 -80 -94 -80c-33 0 -65 18 -90 38z" />
    <glyph glyph-name="eacute" unicode="&#xe9;" horiz-adv-x="503" 
d="M205 516l-44 58l163 137l46 -63zM452 208h-314c7 -83 51 -151 141 -151c57 0 94 25 123 59l45 -45c-36 -50 -99 -86 -181 -86c-138 0 -216 106 -216 242c0 133 75 242 206 242c123 0 197 -102 197 -221c0 -15 0 -28 -1 -40zM253 397c-61 0 -99 -53 -111 -120h224
c-11 68 -55 120 -113 120z" />
    <glyph glyph-name="egrave" unicode="&#xe8;" horiz-adv-x="503" 
d="M452 208h-314c7 -83 51 -151 141 -151c57 0 94 25 123 59l45 -45c-36 -50 -99 -86 -181 -86c-138 0 -216 106 -216 242c0 133 75 242 206 242c123 0 197 -102 197 -221c0 -15 0 -28 -1 -40zM253 397c-61 0 -99 -53 -111 -120h224c-11 68 -55 120 -113 120zM354 572
l-45 -58l-165 133l47 63z" />
    <glyph glyph-name="ecircumflex" unicode="&#xea;" horiz-adv-x="503" 
d="M130 562l119 135h31l118 -136l-46 -44l-87 97l-89 -97zM452 208h-314c7 -83 51 -151 141 -151c57 0 94 25 123 59l45 -45c-36 -50 -99 -86 -181 -86c-138 0 -216 106 -216 242c0 133 75 242 206 242c123 0 197 -102 197 -221c0 -15 0 -28 -1 -40zM253 397
c-61 0 -99 -53 -111 -120h224c-11 68 -55 120 -113 120z" />
    <glyph glyph-name="edieresis" unicode="&#xeb;" horiz-adv-x="503" 
d="M109 598c0 33 28 62 63 62c34 0 62 -28 62 -62c0 -35 -28 -63 -62 -63c-35 0 -63 27 -63 63zM293 598c0 33 28 62 63 62c34 0 62 -28 62 -62c0 -35 -28 -63 -62 -63c-35 0 -63 27 -63 63zM452 208h-314c7 -83 51 -151 141 -151c57 0 94 25 123 59l45 -45
c-36 -50 -99 -86 -181 -86c-138 0 -216 106 -216 242c0 133 75 242 206 242c123 0 197 -102 197 -221c0 -15 0 -28 -1 -40zM253 397c-61 0 -99 -53 -111 -120h224c-11 68 -55 120 -113 120z" />
    <glyph glyph-name="iacute" unicode="&#xed;" horiz-adv-x="243" 
d="M69 516l-44 58l163 137l46 -63zM165 0h-87v445l87 14v-459z" />
    <glyph glyph-name="dotlessi" unicode="&#x131;" horiz-adv-x="243" 
d="M165 0h-87v445l87 14v-459z" />
    <glyph glyph-name="igrave" unicode="&#xec;" horiz-adv-x="243" 
d="M165 0h-87v445l87 14v-459zM204 572l-45 -58l-165 133l47 63z" />
    <glyph glyph-name="icircumflex" unicode="&#xee;" horiz-adv-x="243" 
d="M-9 562l119 135h31l118 -136l-46 -44l-87 97l-89 -97zM165 0h-87v445l87 14v-459z" />
    <glyph glyph-name="idieresis" unicode="&#xef;" horiz-adv-x="243" 
d="M-31 598c0 33 28 62 63 62c34 0 62 -28 62 -62c0 -35 -28 -63 -62 -63c-35 0 -63 27 -63 63zM153 598c0 33 28 62 63 62c34 0 62 -28 62 -62c0 -35 -28 -63 -62 -63c-35 0 -63 27 -63 63zM165 0h-87v445l87 14v-459z" />
    <glyph glyph-name="ntilde" unicode="&#xf1;" horiz-adv-x="516" 
d="M163 0h-86v450l63 11l13 -58c42 40 92 66 153 66c73 0 136 -34 136 -139v-330h-86v320c0 55 -31 77 -68 77c-45 0 -91 -25 -125 -63v-334zM317 536c-51 0 -71 44 -106 44c-15 0 -35 -10 -52 -47l-44 45c32 60 61 80 96 80c42 0 66 -46 104 -46c17 0 39 15 53 53l44 -44
c-26 -58 -56 -85 -95 -85z" />
    <glyph glyph-name="oacute" unicode="&#xf3;" horiz-adv-x="529" 
d="M225 516l-44 58l163 137l46 -63zM50 227c0 133 74 242 213 242c141 0 217 -109 217 -242c0 -130 -75 -242 -216 -242c-140 0 -214 110 -214 242zM141 227c0 -91 40 -170 123 -170c84 0 125 79 125 170c0 92 -41 170 -125 170c-83 0 -123 -78 -123 -170z" />
    <glyph glyph-name="ograve" unicode="&#xf2;" horiz-adv-x="529" 
d="M50 227c0 133 74 242 213 242c141 0 217 -109 217 -242c0 -130 -75 -242 -216 -242c-140 0 -214 110 -214 242zM141 227c0 -91 40 -170 123 -170c84 0 125 79 125 170c0 92 -41 170 -125 170c-83 0 -123 -78 -123 -170zM359 572l-45 -58l-165 133l47 63z" />
    <glyph glyph-name="ocircumflex" unicode="&#xf4;" horiz-adv-x="529" 
d="M127 562l119 135h31l118 -136l-46 -44l-87 97l-89 -97zM50 227c0 133 74 242 213 242c141 0 217 -109 217 -242c0 -130 -75 -242 -216 -242c-140 0 -214 110 -214 242zM141 227c0 -91 40 -170 123 -170c84 0 125 79 125 170c0 92 -41 170 -125 170
c-83 0 -123 -78 -123 -170z" />
    <glyph glyph-name="odieresis" unicode="&#xf6;" horiz-adv-x="529" 
d="M105 598c0 33 28 62 63 62c34 0 62 -28 62 -62c0 -35 -28 -63 -62 -63c-35 0 -63 27 -63 63zM289 598c0 33 28 62 63 62c34 0 62 -28 62 -62c0 -35 -28 -63 -62 -63c-35 0 -63 27 -63 63zM50 227c0 133 74 242 213 242c141 0 217 -109 217 -242
c0 -130 -75 -242 -216 -242c-140 0 -214 110 -214 242zM141 227c0 -91 40 -170 123 -170c84 0 125 79 125 170c0 92 -41 170 -125 170c-83 0 -123 -78 -123 -170z" />
    <glyph glyph-name="otilde" unicode="&#xf5;" horiz-adv-x="529" 
d="M50 227c0 133 74 242 213 242c141 0 217 -109 217 -242c0 -130 -75 -242 -216 -242c-140 0 -214 110 -214 242zM141 227c0 -91 40 -170 123 -170c84 0 125 79 125 170c0 92 -41 170 -125 170c-83 0 -123 -78 -123 -170zM303 536c-51 0 -71 44 -106 44
c-15 0 -35 -10 -52 -47l-44 45c32 60 61 80 96 80c42 0 66 -46 104 -46c17 0 39 15 53 53l44 -44c-26 -58 -56 -85 -95 -85z" />
    <glyph glyph-name="uacute" unicode="&#xfa;" 
d="M239 516l-44 58l163 137l46 -63zM353 455h86v-455h-63l-10 55c-43 -42 -94 -69 -156 -69c-73 0 -136 34 -136 139v327l86 12v-328c0 -55 32 -76 69 -76c45 0 89 24 124 61v334z" />
    <glyph glyph-name="ugrave" unicode="&#xf9;" 
d="M353 455h86v-455h-63l-10 55c-43 -42 -94 -69 -156 -69c-73 0 -136 34 -136 139v327l86 12v-328c0 -55 32 -76 69 -76c45 0 89 24 124 61v334zM364 572l-45 -58l-165 133l47 63z" />
    <glyph glyph-name="ucircumflex" unicode="&#xfb;" 
d="M130 562l119 135h31l118 -136l-46 -44l-87 97l-89 -97zM353 455h86v-455h-63l-10 55c-43 -42 -94 -69 -156 -69c-73 0 -136 34 -136 139v327l86 12v-328c0 -55 32 -76 69 -76c45 0 89 24 124 61v334z" />
    <glyph glyph-name="udieresis" unicode="&#xfc;" 
d="M108 598c0 33 28 62 63 62c34 0 62 -28 62 -62c0 -35 -28 -63 -62 -63c-35 0 -63 27 -63 63zM292 598c0 33 28 62 63 62c34 0 62 -28 62 -62c0 -35 -28 -63 -62 -63c-35 0 -63 27 -63 63zM353 455h86v-455h-63l-10 55c-43 -42 -94 -69 -156 -69c-73 0 -136 34 -136 139
v327l86 12v-328c0 -55 32 -76 69 -76c45 0 89 24 124 61v334z" />
    <glyph glyph-name="dagger" unicode="&#x2020;" horiz-adv-x="476" 
d="M191 616h87v-212h164v-75h-164v-437h-87v437h-157v75h157v212z" />
    <glyph glyph-name="degree" unicode="&#xb0;" horiz-adv-x="387" 
d="M193 398c58 0 69 46 69 88c0 41 -12 86 -69 86s-68 -37 -68 -86c0 -42 11 -88 68 -88zM193 338c-102 0 -134 64 -134 148s25 145 134 145c110 0 135 -76 135 -145c0 -86 -25 -148 -135 -148z" />
    <glyph glyph-name="cent" unicode="&#xa2;" horiz-adv-x="482" 
d="M55 228c0 119 65 219 182 238v99h59v-97c61 -3 106 -23 136 -53l-36 -59c-28 24 -61 41 -110 41c-95 0 -140 -80 -140 -169s44 -171 136 -171c54 0 86 16 111 40l36 -57c-30 -30 -73 -50 -133 -54v-100h-59v102c-121 18 -182 126 -182 240z" />
    <glyph glyph-name="sterling" unicode="&#xa3;" horiz-adv-x="552" 
d="M64 286v67h74c-6 33 -10 67 -10 102c0 88 73 177 178 177c71 0 118 -22 187 -72l-48 -57c-53 37 -93 52 -132 52c-58 0 -98 -46 -98 -100c0 -35 5 -68 11 -102h119v-67h-107c5 -31 9 -62 9 -95s-9 -63 -24 -96c37 -12 73 -34 112 -34c51 0 84 27 116 77l55 -32
c-41 -81 -86 -122 -182 -122c-54 0 -93 26 -140 43c-19 -29 -37 -41 -64 -41c-48 0 -66 34 -66 65c0 28 20 51 46 57c13 5 27 8 42 8c13 27 18 49 18 75c0 32 -4 63 -10 95h-86z" />
    <glyph glyph-name="section" unicode="&#xa7;" horiz-adv-x="489" 
d="M428 205c0 -56 -22 -96 -56 -123c33 -25 56 -57 56 -101c0 -118 -92 -171 -202 -171c-63 0 -123 26 -178 57l30 72c47 -31 103 -55 151 -55c56 0 103 28 103 93c0 108 -258 110 -258 257c0 36 15 89 64 123c-37 27 -64 62 -64 112c0 60 41 162 192 162
c57 0 97 -13 151 -43l-25 -73c-52 29 -91 40 -131 40c-78 0 -97 -53 -97 -82c0 -106 264 -112 264 -268zM332 201c0 51 -56 80 -116 111c-41 -16 -52 -52 -52 -75c0 -51 64 -78 130 -110c23 15 38 38 38 74z" />
    <glyph glyph-name="bullet" unicode="&#x2022;" horiz-adv-x="384" 
d="M89 249c0 70 46 104 103 104s104 -34 104 -104c0 -68 -47 -103 -104 -103c-59 0 -103 35 -103 103z" />
    <glyph glyph-name="paragraph" unicode="&#xb6;" horiz-adv-x="668" 
d="M566 616v-806h-88v731h-69v-731h-87v400h-52c-139 0 -241 88 -241 211c0 116 95 195 236 195h301z" />
    <glyph glyph-name="germandbls" unicode="&#xdf;" horiz-adv-x="531" 
d="M164 1h-86v490c0 129 78 195 179 195c140 0 175 -94 175 -147c0 -85 -75 -107 -75 -183s133 -117 133 -221c0 -81 -53 -150 -154 -150c-40 0 -74 11 -105 30l27 57c23 -12 31 -18 69 -18c46 0 73 32 73 72c0 76 -133 112 -133 224c0 93 79 117 79 181c0 31 -18 81 -89 81
c-52 0 -93 -41 -93 -121v-490z" />
    <glyph glyph-name="registered" unicode="&#xae;" horiz-adv-x="671" 
d="M473 169l-62 -14l-89 131h-20v-125h-60v323h85c85 0 116 -41 116 -97c0 -39 -21 -74 -56 -92c19 -29 68 -97 86 -126zM326 431h-26v-88h30c35 0 53 19 53 44c0 23 -13 44 -57 44zM62 315c0 150 122 275 273 275c152 0 275 -125 275 -275c0 -151 -123 -274 -275 -274
c-150 0 -273 123 -273 274zM109 315c0 -127 103 -228 226 -228c127 0 228 102 228 228c0 125 -101 227 -228 227c-125 0 -226 -102 -226 -227z" />
    <glyph glyph-name="copyright" unicode="&#xa9;" horiz-adv-x="671" 
d="M447 435l-29 -51c-24 19 -52 34 -86 34c-56 0 -84 -47 -84 -100c0 -56 26 -99 81 -99c34 0 60 13 87 34l26 -51c-28 -24 -67 -40 -113 -40c-93 0 -141 70 -141 156c0 84 48 157 144 157c45 0 85 -15 115 -40zM62 315c0 150 122 275 273 275c152 0 275 -125 275 -275
c0 -151 -123 -274 -275 -274c-150 0 -273 123 -273 274zM109 315c0 -127 103 -228 226 -228c127 0 228 102 228 228c0 125 -101 227 -228 227c-125 0 -226 -102 -226 -227z" />
    <glyph glyph-name="trademark" unicode="&#x2122;" horiz-adv-x="742" 
d="M322 616v-61h-95v-261h-65v261h-95v61h255zM532 294h-50l-63 142v-142h-65v322h59l95 -216l93 216h59v-322h-65v144z" />
    <glyph glyph-name="notequal" unicode="&#x2260;" horiz-adv-x="578" 
d="M87 292v74h214l33 78h81l-33 -78h109v-74h-141l-48 -113h189v-75h-221l-33 -79h-81l33 79h-102v75h134l48 113h-182z" />
    <glyph glyph-name="AE" unicode="&#xc6;" horiz-adv-x="795" 
d="M733 616v-75h-267v-184h211v-76h-211v-205h282v-76h-371v167h-177l-97 -167h-94l360 616h364zM242 239h135v232z" />
    <glyph glyph-name="Oslash" unicode="&#xd8;" horiz-adv-x="683" 
d="M80 -48h-66l110 136c-45 57 -68 136 -68 228c0 178 106 315 291 315c69 0 127 -21 171 -58l93 114h67l-123 -151c47 -59 72 -139 72 -231c0 -182 -100 -320 -274 -320c-80 0 -145 23 -193 65zM353 61c110 0 178 110 178 244c0 61 -12 115 -35 158l-280 -343
c34 -37 79 -59 137 -59zM153 316c0 -58 11 -111 33 -153l278 343c-30 32 -69 50 -117 50c-125 0 -194 -104 -194 -240z" />
    <glyph glyph-name="infinity" unicode="&#x221e;" horiz-adv-x="747" 
d="M226 445c75 0 110 -49 145 -90c47 60 91 90 149 90c95 0 161 -67 161 -162s-66 -161 -161 -161c-57 0 -100 30 -148 91c-47 -65 -86 -91 -144 -91c-97 0 -162 66 -162 161s65 162 160 162zM524 368c-37 0 -72 -42 -102 -83c40 -60 67 -86 100 -86c45 0 77 35 77 84
c0 50 -31 85 -75 85zM223 199c33 0 63 29 98 86c-38 52 -66 83 -99 83c-45 0 -76 -35 -76 -85c0 -49 32 -84 77 -84z" />
    <glyph glyph-name="plusminus" unicode="&#xb1;" horiz-adv-x="486" 
d="M77 321v70h131v130h70v-130h131v-70h-131v-137h-70v137h-131zM77 67v67h332v-67h-332z" />
    <glyph glyph-name="lessequal" unicode="&#x2264;" horiz-adv-x="494" 
d="M414 219v-80l-344 159v57l344 162v-81l-240 -110zM68 28v67h344v-67h-344z" />
    <glyph glyph-name="greaterequal" unicode="&#x2265;" horiz-adv-x="494" 
d="M80 139v80l240 107l-240 110v81l344 -162v-57zM426 95v-67h-344v67h344z" />
    <glyph glyph-name="yen" unicode="&#xa5;" horiz-adv-x="544" 
d="M463 159v-62h-146v-97h-89v97h-141v62h141v75h-141v62h118l-167 320h98l138 -272l134 272h95l-163 -320h123v-62h-146v-75h146z" />
    <glyph glyph-name="mu" unicode="&#xb5;" horiz-adv-x="555" 
d="M372 455h86v-455h-76v51c-41 -40 -92 -66 -153 -66c-18 0 -34 2 -50 7l1 -182h-87v639l86 12v-202v-134v-1c5 -47 35 -66 70 -66c44 0 89 25 123 63v334z" />
    <glyph glyph-name="partialdiff" unicode="&#x2202;" horiz-adv-x="537" 
d="M98 593l-27 62c54 23 100 35 152 35c162 0 259 -193 259 -390c0 -154 -43 -317 -215 -317c-121 0 -217 85 -217 249c0 144 86 238 210 238c51 0 89 -21 120 -49c-24 110 -78 197 -156 197c-40 0 -83 -6 -126 -25zM393 295c0 9 0 19 -1 28c-31 39 -73 75 -132 75
c-69 0 -120 -66 -120 -166c0 -116 59 -176 127 -176c101 0 126 122 126 239z" />
    <glyph glyph-name="summation" unicode="&#x2211;" horiz-adv-x="566" 
d="M46 562v54h464v-74h-356l182 -315l-186 -341h371v-75h-475v57l196 359z" />
    <glyph glyph-name="product" unicode="&#x220f;" horiz-adv-x="647" 
d="M594 616v-75h-68v-729h-88v729h-229v-729h-87v729h-71v75h543z" />
    <glyph glyph-name="pi" unicode="&#x3c0;" horiz-adv-x="592" 
d="M554 500v-75h-69v-425h-88v425h-202v-425h-87v425h-71v75h517z" />
    <glyph glyph-name="integral" unicode="&#x222b;" horiz-adv-x="369" 
d="M228 411v-375c0 -115 -62 -195 -192 -221l-15 77c85 18 121 72 121 144v375c0 112 59 194 191 221l15 -77c-84 -18 -120 -72 -120 -144z" />
    <glyph glyph-name="ordfeminine" unicode="&#xaa;" horiz-adv-x="325" 
d="M95 569l-19 34c23 16 56 28 92 28c46 0 85 -22 85 -86v-145h-58v25c-24 -19 -45 -30 -71 -30c-37 0 -64 19 -64 55c0 47 46 61 135 83v9c0 31 -19 43 -39 43c-21 0 -45 -6 -61 -16zM142 438c16 0 33 4 53 18v47c-51 -17 -75 -24 -75 -45c0 -13 10 -20 22 -20z" />
    <glyph glyph-name="ordmasculine" unicode="&#xba;" horiz-adv-x="342" 
d="M171 443c40 0 54 28 54 72c0 41 -14 71 -54 71c-41 0 -54 -32 -54 -76c0 -38 13 -67 54 -67zM171 398c-81 0 -112 50 -112 112c0 71 30 121 112 121c81 0 112 -48 112 -116s-31 -117 -112 -117z" />
    <glyph glyph-name="Omega" unicode="&#x2126;" horiz-adv-x="698" 
d="M69 0v75h151v83c-104 46 -156 105 -156 219c0 137 126 254 285 254s285 -117 285 -254c0 -115 -49 -176 -157 -221v-81h152v-75h-238v193c108 41 154 89 154 184c0 96 -83 180 -196 180s-196 -84 -196 -180c0 -93 51 -141 153 -183v-194h-237z" />
    <glyph glyph-name="ae" unicode="&#xe6;" horiz-adv-x="756" 
d="M698 208h-304c6 -83 48 -151 138 -151c58 0 95 25 124 59l45 -45c-37 -50 -99 -86 -181 -86c-85 0 -142 38 -176 92c-65 -56 -114 -92 -182 -92c-67 0 -120 43 -120 110c0 103 111 138 262 176v26c0 72 -46 99 -96 99c-42 0 -87 -15 -119 -35l-23 59c43 27 97 49 165 49
c55 0 105 -18 133 -64c35 40 84 64 146 64c120 0 197 -98 197 -198c0 -22 -1 -44 -9 -63zM507 397c-61 0 -98 -53 -109 -120h216c-9 74 -47 120 -107 120zM186 63c44 0 85 25 134 64c-9 25 -13 51 -15 77c-105 -25 -172 -42 -172 -95c0 -32 24 -46 53 -46z" />
    <glyph glyph-name="oslash" unicode="&#xf8;" horiz-adv-x="528" 
d="M81 -56h-43l409 556h44zM50 227c0 133 74 242 213 242c141 0 217 -109 217 -242c0 -130 -75 -242 -216 -242c-140 0 -214 110 -214 242zM141 227c0 -91 40 -170 123 -170c84 0 125 79 125 170c0 92 -41 170 -125 170c-83 0 -123 -78 -123 -170z" />
    <glyph glyph-name="questiondown" unicode="&#xbf;" horiz-adv-x="415" 
d="M338 -51l46 -45c-44 -54 -105 -93 -177 -93c-109 0 -174 74 -174 154c0 151 170 137 162 337h76c9 -212 -151 -231 -151 -329c0 -45 31 -90 95 -90c47 0 88 26 123 66zM291 405c0 -32 -25 -57 -57 -57s-58 26 -58 57c0 32 26 58 58 58s57 -26 57 -58z" />
    <glyph glyph-name="exclamdown" unicode="&#xa1;" horiz-adv-x="250" 
d="M170 -189h-90l8 464h75zM67 425c0 33 26 58 59 58s59 -25 59 -58s-26 -59 -59 -59s-59 25 -59 59z" />
    <glyph glyph-name="logicalnot" unicode="&#xac;" horiz-adv-x="556" 
d="M75 214v75h400v-230h-85v155h-315z" />
    <glyph glyph-name="radical" unicode="&#x221a;" horiz-adv-x="582" 
d="M257 0h-91l-61 218h-67v74h129l47 -166l136 490h205v-74h-142z" />
    <glyph glyph-name="florin" unicode="&#x192;" horiz-adv-x="578" 
d="M144 381v74h88l5 44c13 126 89 187 173 187c64 0 114 -22 156 -63l-43 -53c-32 27 -63 43 -100 43c-44 0 -91 -41 -100 -121l-4 -37h95v-74h-103l-39 -380c-13 -125 -83 -192 -173 -192c-66 0 -111 21 -149 62l41 55c34 -30 59 -44 100 -44c46 0 86 46 95 127l38 372h-80
z" />
    <glyph glyph-name="approxequal" unicode="&#x2248;" horiz-adv-x="569" 
d="M210 453c63 0 97 -68 151 -68c31 0 63 21 90 71l47 -43c-38 -75 -84 -107 -137 -107c-76 0 -101 66 -158 66c-26 0 -56 -15 -84 -65l-48 43c47 78 91 103 139 103zM210 263c62 0 99 -68 151 -68c31 0 63 21 90 71l47 -43c-38 -75 -84 -107 -137 -107
c-76 0 -101 66 -158 66c-26 0 -56 -15 -84 -65l-48 43c47 78 91 103 139 103z" />
    <glyph glyph-name="Delta" unicode="&#x2206;" horiz-adv-x="603" 
d="M485 72l-187 439l-182 -439h369zM30 -1v60l233 557h68l243 -556v-61h-544z" />
    <glyph glyph-name="guillemotleft" unicode="&#xab;" horiz-adv-x="460" 
d="M51 221v25l107 195l75 -31l-97 -177l99 -179l-73 -33zM223 221v25l107 195l76 -31l-98 -177l99 -179l-73 -33z" />
    <glyph glyph-name="guillemotright" unicode="&#xbb;" horiz-adv-x="460" 
d="M409 246v-25l-111 -200l-73 33l99 179l-97 177l75 31zM237 246v-25l-111 -200l-73 33l99 179l-98 177l76 31z" />
    <glyph glyph-name="ellipsis" unicode="&#x2026;" horiz-adv-x="694" 
d="M64 48c0 34 28 62 63 62s63 -28 63 -62c0 -35 -28 -63 -63 -63s-63 28 -63 63zM504 48c0 34 28 62 62 62c35 0 63 -28 63 -62c0 -35 -28 -63 -63 -63c-34 0 -62 28 -62 63zM284 48c0 34 28 62 63 62c34 0 62 -28 62 -62c0 -35 -28 -63 -62 -63c-35 0 -63 27 -63 63z" />
    <glyph glyph-name="Agrave" unicode="&#xc0;" horiz-adv-x="595" 
d="M30 0l219 616h93l226 -616h-88l-62 169h-240l-60 -169h-88zM296 498l-91 -253h185zM398 735l-33 -66l-190 90l36 73z" />
    <glyph glyph-name="grave.case" horiz-adv-x="235" 
d="M218 735l-33 -66l-190 90l36 73z" />
    <glyph glyph-name="Atilde" unicode="&#xc3;" horiz-adv-x="595" 
d="M30 0l219 616h93l226 -616h-88l-62 169h-240l-60 -169h-88zM296 498l-91 -253h185zM346 679c-53 0 -74 48 -111 48c-17 0 -39 -10 -58 -47l-44 45c37 63 68 83 108 83c41 0 66 -49 103 -49c22 0 47 16 65 53l45 -44c-30 -61 -63 -89 -108 -89z" />
    <glyph glyph-name="Otilde" unicode="&#xd5;" horiz-adv-x="683" 
d="M353 61c110 0 178 110 178 244c0 143 -67 251 -184 251c-125 0 -194 -104 -194 -240c0 -145 71 -255 200 -255zM353 -15c-191 0 -297 137 -297 331c0 178 106 315 291 315c178 0 280 -141 280 -326c0 -182 -100 -320 -274 -320zM396 679c-53 0 -74 48 -111 48
c-17 0 -39 -10 -58 -47l-44 45c37 63 68 83 108 83c41 0 66 -49 103 -49c22 0 47 16 65 53l45 -44c-30 -61 -63 -89 -108 -89z" />
    <glyph glyph-name="OE" unicode="&#x152;" horiz-adv-x="931" 
d="M870 616v-76h-267v-183h209v-76h-209v-205h282v-76h-371v43c-42 -37 -96 -58 -161 -58c-190 0 -297 139 -297 331c0 178 106 315 291 315c68 0 124 -23 167 -61v46h356zM353 61c78 0 134 44 161 116v257c-28 75 -86 122 -167 122c-127 0 -199 -104 -199 -240
c0 -145 75 -255 205 -255z" />
    <glyph glyph-name="oe" unicode="&#x153;" horiz-adv-x="843" 
d="M50 227c0 133 74 242 213 242c77 0 135 -33 171 -84c35 51 90 84 162 84c123 0 197 -102 197 -221c0 -15 0 -28 -1 -40h-313v-9c9 -79 53 -142 140 -142c57 0 94 25 123 59l45 -45c-36 -50 -99 -86 -181 -86c-77 0 -135 32 -172 85c-36 -52 -93 -85 -170 -85
c-140 0 -214 110 -214 242zM141 227c0 -91 40 -170 123 -170c84 0 125 79 125 170c0 92 -41 170 -125 170c-83 0 -123 -78 -123 -170zM593 397c-61 0 -99 -53 -111 -120h224c-11 68 -55 120 -113 120z" />
    <glyph glyph-name="endash" unicode="&#x2013;" horiz-adv-x="561" 
d="M71 272v74h420v-74h-420z" />
    <glyph glyph-name="emdash" unicode="&#x2014;" horiz-adv-x="912" 
d="M71 200v74h771v-74h-771z" />
    <glyph glyph-name="quotedblleft" unicode="&#x201c;" horiz-adv-x="422" 
d="M148 631l29 -32c-35 -29 -52 -51 -59 -85h4c34 0 62 -28 62 -63s-28 -63 -62 -63c-39 0 -63 36 -63 86c0 59 34 117 89 157zM324 631l29 -32c-36 -29 -52 -51 -59 -85h4c34 0 62 -28 62 -63s-28 -63 -62 -63c-39 0 -63 36 -63 86c0 59 34 117 89 157z" />
    <glyph glyph-name="quotedblright" unicode="&#x201d;" horiz-adv-x="420" 
d="M276 388l-29 32c35 28 52 51 59 85h-4c-34 0 -62 28 -62 63s28 63 62 63c39 0 63 -36 63 -86c0 -59 -34 -117 -89 -157zM100 388l-29 32c36 28 52 51 59 85h-4c-34 0 -62 28 -62 63s28 63 62 63c39 0 63 -36 63 -86c0 -59 -34 -117 -89 -157z" />
    <glyph glyph-name="quoteleft" unicode="&#x2018;" horiz-adv-x="247" 
d="M148 631l29 -32c-35 -29 -52 -51 -59 -85h4c34 0 62 -28 62 -63s-28 -63 -62 -63s-63 29 -63 86c0 59 34 117 89 157z" />
    <glyph glyph-name="quoteright" unicode="&#x2019;" horiz-adv-x="244" 
d="M100 388l-29 32c36 28 52 51 59 85h-4c-34 0 -62 28 -62 63s28 63 62 63c39 0 63 -36 63 -86c0 -59 -34 -117 -89 -157z" />
    <glyph glyph-name="divide" unicode="&#xf7;" horiz-adv-x="456" 
d="M65 196v63h327v-63h-327zM172 40c0 30 25 55 56 55c30 0 55 -25 55 -55c0 -31 -25 -56 -55 -56c-31 0 -56 25 -56 56zM172 414c0 30 25 55 56 55c30 0 55 -25 55 -55c0 -32 -25 -56 -55 -56c-31 0 -56 24 -56 56z" />
    <glyph glyph-name="lozenge" unicode="&#x25ca;" horiz-adv-x="540" 
d="M414 307l-144 192l-143 -190l145 -194zM270 632l240 -325l-239 -326l-242 327z" />
    <glyph glyph-name="ydieresis" unicode="&#xff;" horiz-adv-x="482" 
d="M29 455h88l124 -344l127 344h86l-147 -397c-48 -122 -75 -247 -259 -247v71c93 0 119 53 148 118h-2zM98 598c0 33 28 62 63 62c34 0 62 -28 62 -62c0 -35 -28 -63 -62 -63c-35 0 -63 27 -63 63zM282 598c0 33 28 62 63 62c34 0 62 -28 62 -62c0 -35 -28 -63 -62 -63
c-35 0 -63 27 -63 63z" />
    <glyph glyph-name="Ydieresis" unicode="&#x178;" horiz-adv-x="521" 
d="M306 251v-251h-90v255l-189 361h97l138 -272l135 272h95zM124 736c0 35 28 63 63 63s63 -28 63 -63s-28 -63 -63 -63s-63 28 -63 63zM308 736c0 35 28 63 63 63c34 0 62 -28 62 -63s-28 -63 -62 -63c-36 0 -63 28 -63 63z" />
    <glyph glyph-name="fraction" unicode="&#x2044;" horiz-adv-x="118" 
d="M-156 8l372 626l58 -35l-374 -627z" />
    <glyph glyph-name="Euro" unicode="&#x20ac;" horiz-adv-x="712" 
d="M455 407l-22 -62h-382l22 62h90c35 139 144 224 286 224c92 0 161 -25 207 -65l-37 -63c-38 30 -88 53 -166 53c-101 0 -167 -63 -195 -149h197zM412 280l-21 -63h-137c26 -92 95 -156 201 -156c76 0 125 19 160 53l37 -63c-44 -41 -111 -66 -200 -66
c-161 0 -260 94 -292 232h-112l21 63h343z" />
    <glyph glyph-name="guilsinglleft" unicode="&#x2039;" horiz-adv-x="287" 
d="M51 221v25l107 195l75 -31l-97 -177l99 -179l-73 -33z" />
    <glyph glyph-name="guilsinglright" unicode="&#x203a;" horiz-adv-x="287" 
d="M237 246v-25l-111 -200l-73 33l99 179l-98 177l76 31z" />
    <glyph glyph-name="daggerdbl" unicode="&#x2021;" horiz-adv-x="523" 
d="M215 616h87v-208h164v-76h-164v-163h164v-76h-164v-201h-87v201h-157v76h157v163h-157v76h157v208z" />
    <glyph glyph-name="periodcentered" unicode="&#xb7;" horiz-adv-x="263" 
d="M68 262c0 36 29 63 63 63c35 0 63 -28 63 -63c0 -34 -28 -62 -63 -62s-63 27 -63 62z" />
    <glyph glyph-name="quotesinglbase" unicode="&#x201a;" horiz-adv-x="262" 
d="M104 -133l-28 32c35 29 52 51 59 86c-1 -1 -3 -1 -4 -1c-35 0 -63 29 -63 63c0 35 28 63 63 63c39 0 63 -35 63 -85c0 -60 -34 -118 -90 -158z" />
    <glyph glyph-name="quotedblbase" unicode="&#x201e;" horiz-adv-x="438" 
d="M104 -133l-29 32c37 29 53 51 60 86c-1 -1 -3 -1 -4 -1c-35 0 -63 29 -63 63c0 35 28 63 63 63c39 0 63 -35 63 -85c-1 -60 -34 -118 -90 -158zM280 -133l-28 32c35 29 52 51 59 86c-1 -1 -3 -1 -4 -1c-35 0 -63 29 -63 63c0 35 28 63 63 63c39 0 63 -35 63 -85
c0 -60 -34 -118 -90 -158z" />
    <glyph glyph-name="perthousand" unicode="&#x2030;" horiz-adv-x="1129" 
d="M162 8l392 647l66 -42l-391 -649zM178 297c-81 0 -139 65 -139 167c0 101 57 167 139 167s139 -66 139 -167c0 -102 -57 -167 -139 -167zM178 357c37 0 63 42 63 107s-26 107 -63 107s-63 -42 -63 -107s26 -107 63 -107zM603 -15c-81 0 -139 65 -139 167
c0 101 57 167 139 167s139 -66 139 -167c0 -102 -57 -167 -139 -167zM603 45c36 0 63 42 63 107s-27 107 -63 107c-37 0 -64 -42 -64 -107s27 -107 64 -107zM952 -15c-81 0 -139 65 -139 167c0 101 57 167 139 167s139 -66 139 -167c0 -102 -57 -167 -139 -167zM952 45
c36 0 63 42 63 107s-27 107 -63 107c-37 0 -64 -42 -64 -107s27 -107 64 -107z" />
    <glyph glyph-name="Acircumflex" unicode="&#xc2;" horiz-adv-x="595" 
d="M30 0l219 616h93l226 -616h-88l-62 169h-240l-60 -169h-88zM296 498l-91 -253h185zM314 824l117 -116l-44 -50l-90 91l-85 -91l-44 50l115 116h31z" />
    <glyph glyph-name="circumflex.case" horiz-adv-x="329" 
d="M175 824l117 -116l-44 -50l-90 91l-85 -91l-44 50l115 116h31z" />
    <glyph glyph-name="Ecircumflex" unicode="&#xca;" horiz-adv-x="509" 
d="M287 824l117 -116l-44 -50l-90 91l-85 -91l-44 50l115 116h31zM448 616v-76h-267v-183h209v-76h-209v-205h282v-76h-371v616h356z" />
    <glyph glyph-name="Aacute" unicode="&#xc1;" horiz-adv-x="595" 
d="M30 0l219 616h93l226 -616h-88l-62 169h-240l-60 -169h-88zM296 498l-91 -253h185zM231 669l-33 66l188 97l35 -73z" />
    <glyph glyph-name="Edieresis" unicode="&#xcb;" horiz-adv-x="509" 
d="M448 616v-76h-267v-183h209v-76h-209v-205h282v-76h-371v616h356zM114 736c0 35 28 63 63 63s63 -28 63 -63s-28 -63 -63 -63s-63 28 -63 63zM298 736c0 35 28 63 63 63c34 0 62 -28 62 -63s-28 -63 -62 -63c-36 0 -63 28 -63 63z" />
    <glyph glyph-name="Egrave" unicode="&#xc8;" horiz-adv-x="509" 
d="M373 735l-33 -66l-190 90l36 73zM448 616v-76h-267v-183h209v-76h-209v-205h282v-76h-371v616h356z" />
    <glyph glyph-name="Iacute" unicode="&#xcd;" horiz-adv-x="272" 
d="M92 616h89v-616h-89v616zM61 669l-33 66l188 97l35 -73z" />
    <glyph glyph-name="Icircumflex" unicode="&#xce;" horiz-adv-x="272" 
d="M92 616h89v-616h-89v616zM153 824l117 -116l-44 -50l-90 91l-85 -91l-44 50l115 116h31z" />
    <glyph glyph-name="Idieresis" unicode="&#xcf;" horiz-adv-x="272" 
d="M92 616h89v-616h-89v616zM-19 736c0 35 28 63 63 63s63 -28 63 -63s-28 -63 -63 -63s-63 28 -63 63zM165 736c0 35 28 63 63 63c34 0 62 -28 62 -63s-28 -63 -62 -63c-36 0 -63 28 -63 63z" />
    <glyph glyph-name="Igrave" unicode="&#xcc;" horiz-adv-x="272" 
d="M92 616h89v-616h-89v616zM238 735l-33 -66l-190 90l36 73z" />
    <glyph glyph-name="Oacute" unicode="&#xd3;" horiz-adv-x="683" 
d="M266 669l-33 66l188 97l35 -73zM353 61c110 0 178 110 178 244c0 143 -67 251 -184 251c-125 0 -194 -104 -194 -240c0 -145 71 -255 200 -255zM353 -15c-191 0 -297 137 -297 331c0 178 106 315 291 315c178 0 280 -141 280 -326c0 -182 -100 -320 -274 -320z" />
    <glyph glyph-name="Ocircumflex" unicode="&#xd4;" horiz-adv-x="683" 
d="M364 824l117 -116l-44 -50l-90 91l-85 -91l-44 50l115 116h31zM353 61c110 0 178 110 178 244c0 143 -67 251 -184 251c-125 0 -194 -104 -194 -240c0 -145 71 -255 200 -255zM353 -15c-191 0 -297 137 -297 331c0 178 106 315 291 315c178 0 280 -141 280 -326
c0 -182 -100 -320 -274 -320z" />
    <glyph glyph-name="apple" unicode="&#xf8ff;" horiz-adv-x="692" 
d="M54 288c0 160 129 288 288 288s288 -129 288 -288s-129 -288 -288 -288s-288 129 -288 288zM274 115h131l1 6l-49 10v189h27c39 0 54 -30 54 -60c0 -28 -9 -59 -46 -59h-14v-7h18c42 0 72 26 72 71s-32 63 -77 63h-34v75l102 -5l17 -54l11 2l-5 73h-282l-6 -73l11 -2
l18 54l102 5v-272l-49 -10z" />
    <glyph glyph-name="Ograve" unicode="&#xd2;" horiz-adv-x="683" 
d="M448 735l-33 -66l-190 90l36 73zM353 61c110 0 178 110 178 244c0 143 -67 251 -184 251c-125 0 -194 -104 -194 -240c0 -145 71 -255 200 -255zM353 -15c-191 0 -297 137 -297 331c0 178 106 315 291 315c178 0 280 -141 280 -326c0 -182 -100 -320 -274 -320z" />
    <glyph glyph-name="Uacute" unicode="&#xda;" horiz-adv-x="640" 
d="M86 616h89v-405c0 -84 28 -150 144 -150c117 0 146 66 146 150v405h89v-407c0 -115 -46 -224 -235 -224c-185 0 -233 107 -233 224v407zM287 669l-33 66l188 97l35 -73z" />
    <glyph glyph-name="Ucircumflex" unicode="&#xdb;" horiz-adv-x="640" 
d="M350 824l117 -116l-44 -50l-90 91l-85 -91l-44 50l115 116h31zM86 616h89v-405c0 -84 28 -150 144 -150c117 0 146 66 146 150v405h89v-407c0 -115 -46 -224 -235 -224c-185 0 -233 107 -233 224v407z" />
    <glyph glyph-name="Ugrave" unicode="&#xd9;" horiz-adv-x="640" 
d="M425 735l-33 -66l-190 90l36 73zM86 616h89v-405c0 -84 28 -150 144 -150c117 0 146 66 146 150v405h89v-407c0 -115 -46 -224 -235 -224c-185 0 -233 107 -233 224v407z" />
    <glyph glyph-name="macron" unicode="&#xaf;" horiz-adv-x="279" 
d="M27 554v72h223v-72h-223z" />
    <glyph glyph-name="breve" unicode="&#x2d8;" horiz-adv-x="329" 
d="M12 686l57 14c7 -44 46 -94 93 -94s84 48 97 96l55 -16c-16 -85 -68 -150 -153 -150c-92 0 -138 73 -149 150z" />
    <glyph glyph-name="dotaccent" unicode="&#x2d9;" horiz-adv-x="208" 
d="M43 611c0 34 28 62 62 62c35 0 63 -28 63 -62c0 -35 -28 -63 -63 -63c-34 0 -62 28 -62 63z" />
    <glyph glyph-name="hungarumlaut" unicode="&#x2dd;" horiz-adv-x="330" 
d="M93 524l-64 31l77 163l70 -36zM233 524l-64 31l78 163l69 -36z" />
    <glyph glyph-name="ogonek" unicode="&#x2db;" horiz-adv-x="287" 
d="M207 -122l22 -44c-32 -22 -57 -28 -85 -28c-64 0 -100 41 -100 101c0 64 56 105 162 140l16 -51c-77 -28 -115 -58 -115 -90c0 -26 18 -43 42 -43c17 0 35 2 58 15z" />
    <glyph glyph-name="subcomma" horiz-adv-x="272" 
d="M110 -312l-29 32c36 29 52 51 60 85h-4c-35 0 -63 28 -63 63s28 63 63 63c39 0 63 -36 63 -86c-1 -59 -34 -117 -90 -157z" />
    <glyph glyph-name="macron.case" horiz-adv-x="273" 
d="M25 692v72h223v-72h-223z" />
    <glyph glyph-name="breve.case" horiz-adv-x="329" 
d="M9 815l59 15c7 -42 44 -89 91 -89c48 0 86 44 99 90l54 -17c-16 -81 -68 -144 -153 -144c-90 0 -136 60 -150 145z" />
    <glyph glyph-name="dotaccent.case" horiz-adv-x="180" 
d="M29 742c0 35 28 63 63 63s63 -28 63 -63s-28 -63 -63 -63s-63 28 -63 63z" />
    <glyph glyph-name="hungarumlaut.case" horiz-adv-x="327" 
d="M98 663l-64 31l77 162l70 -35zM239 663l-65 31l78 162l69 -35z" />
    <glyph glyph-name="currency" unicode="&#xa4;" horiz-adv-x="632" 
d="M568 133l-57 -58l-80 81c-36 -27 -72 -39 -114 -39s-74 12 -114 37l-79 -79l-58 58l78 79c-26 36 -38 72 -38 114c0 41 12 75 37 113l-80 78l59 59l79 -78c38 25 73 37 116 37c42 0 76 -11 114 -37l80 78l57 -59l-79 -77c26 -39 37 -72 37 -114c0 -43 -11 -75 -37 -113
c10 -9 74 -74 79 -80zM439 325c0 68 -55 124 -123 124c-66 0 -122 -56 -122 -123s56 -122 122 -122c70 0 123 53 123 121z" />
    <glyph glyph-name="estimated" unicode="&#x212e;" horiz-adv-x="786" 
d="M178 284v-169c65 -64 135 -93 223 -93c81 0 172 40 223 90h52c-64 -75 -161 -125 -276 -125c-198 0 -342 136 -342 322c0 182 144 322 342 322s342 -140 342 -322v-25h-564zM178 318h444v189c-65 64 -137 90 -221 90c-86 0 -158 -28 -223 -94v-185z" />
    <glyph glyph-name="c_t" horiz-adv-x="794" 
d="M50 228c0 127 71 226 194 239c-10 21 -13 42 -13 71c0 62 61 147 202 147s214 -63 214 -205v-25h95v-72h-95v-247c0 -50 16 -79 52 -79c20 0 33 5 60 19v-66c-33 -21 -65 -25 -88 -25c-77 0 -110 52 -110 131v267h-59v62l61 9l4 26c0 108 -39 145 -132 145
c-100 0 -140 -57 -140 -102c0 -14 1 -31 16 -57c51 -6 89 -25 116 -51l-37 -59c-28 24 -60 41 -109 41c-95 0 -141 -80 -141 -169s44 -171 137 -171c54 0 86 16 111 40l35 -57c-32 -33 -83 -55 -154 -55c-144 0 -219 114 -219 243z" />
    <glyph glyph-name="c_h" horiz-adv-x="1000" 
d="M50 228c0 119 63 214 173 236c-15 18 -22 38 -22 60c0 93 156 142 360 173l87 9v-293c39 35 86 56 142 56c73 0 136 -34 136 -139v-330h-86v320c0 55 -31 76 -68 76c-45 0 -90 -24 -124 -61v-335h-87v622c-128 -16 -284 -63 -284 -114c0 -16 10 -29 27 -41
c55 -5 95 -25 123 -52l-37 -59c-28 24 -60 41 -109 41c-95 0 -141 -80 -141 -169s44 -171 137 -171c54 0 86 16 111 40l35 -57c-32 -33 -83 -55 -154 -55c-144 0 -219 114 -219 243z" />
    <glyph glyph-name="s_h" horiz-adv-x="957" 
d="M363 439l-14 -67c-48 22 -88 29 -117 29c-35 0 -73 -10 -73 -49c0 -69 225 -104 225 -237c0 -82 -74 -130 -173 -130c-68 0 -122 24 -173 54l25 69c49 -34 91 -51 141 -51c45 0 85 21 85 54c0 80 -224 103 -224 237c0 75 51 109 113 118c-14 18 -20 37 -20 58
c0 92 155 142 360 173l87 9v-293c39 35 86 56 142 56c73 0 136 -34 136 -139v-330h-86v320c0 55 -31 76 -68 76c-45 0 -90 -24 -124 -61v-335h-87v622c-128 -16 -284 -64 -284 -115c0 -15 9 -29 26 -41c34 -4 65 -13 103 -27z" />
    <glyph glyph-name="c_k" horiz-adv-x="966" 
d="M50 228c0 119 63 214 173 236c-15 18 -22 38 -22 60c0 93 155 142 360 173l87 9v-414h44l138 163h101l-167 -197l179 -258h-101l-147 218h-47v-218h-87v622c-128 -16 -284 -63 -284 -114c0 -16 10 -29 27 -41c55 -5 95 -25 123 -52l-37 -59c-28 24 -60 41 -109 41
c-95 0 -141 -80 -141 -169s44 -171 137 -171c54 0 86 16 111 40l35 -57c-32 -33 -83 -55 -154 -55c-144 0 -219 114 -219 243z" />
    <glyph glyph-name="s_k" horiz-adv-x="923" 
d="M787 455h101l-167 -197l179 -258h-101l-147 218h-47v-218h-87v622c-128 -16 -284 -64 -284 -115c0 -15 9 -29 26 -41c34 -4 65 -13 103 -27l-14 -67c-48 22 -88 29 -117 29c-35 0 -73 -10 -73 -49c0 -69 225 -104 225 -237c0 -82 -74 -130 -173 -130
c-67 0 -122 19 -173 54l25 69c49 -34 91 -51 141 -51c45 0 85 21 85 54c0 80 -224 103 -224 237c0 75 51 109 112 118c-13 17 -19 36 -19 57c0 92 155 145 359 174l88 9v-414h44z" />
    <glyph glyph-name="s_l" horiz-adv-x="685" 
d="M363 439l-14 -67c-48 22 -88 29 -117 29c-35 0 -73 -10 -73 -49c0 -69 225 -104 225 -237c0 -82 -74 -130 -173 -130c-66 0 -114 22 -173 54l25 69c49 -34 91 -51 141 -51c45 0 85 21 85 54c0 80 -224 103 -224 237c0 75 51 109 112 118c-13 17 -19 36 -19 57
c0 92 155 144 359 174l88 9v-706h-87v622c-128 -16 -284 -64 -284 -115c0 -15 9 -29 26 -41c34 -4 65 -13 103 -27z" />
    <glyph glyph-name="c_l" horiz-adv-x="728" 
d="M50 228c0 119 63 214 173 236c-15 18 -22 38 -22 60c0 93 156 142 360 173l87 9v-706h-87v622c-128 -16 -284 -63 -284 -114c0 -16 10 -29 27 -41c55 -5 95 -25 123 -52l-37 -59c-28 24 -60 41 -109 41c-95 0 -141 -80 -141 -169s44 -171 137 -171c54 0 86 16 111 40
l35 -57c-32 -33 -83 -55 -154 -55c-144 0 -219 114 -219 243z" />
    <glyph glyph-name="f_h" horiz-adv-x="806" 
d="M732 0h-87v320c0 55 -31 76 -69 76c-44 0 -89 -24 -123 -62v-334h-86v593h-66c-94 0 -114 -47 -114 -119v-24h95v-72h-95v-378h-86v378h-59v55l59 14v23c0 115 38 194 200 194h152v-251c39 34 86 56 143 56c72 0 136 -34 136 -139v-330z" />
    <glyph glyph-name="a.smcp" 
d="M30 0l182 483h91l187 -483h-85l-47 121h-198l-45 -121h-85zM258 377l-72 -187h145z" />
    <glyph glyph-name="b.smcp" horiz-adv-x="490" 
d="M83 483h164c112 0 154 -49 154 -118c0 -38 -14 -74 -39 -101c50 -25 78 -71 78 -125c0 -79 -64 -139 -179 -139h-178v483zM345 144c0 41 -24 74 -89 75h-86v-150h88c56 0 87 31 87 75zM246 414h-76v-126h81c38 0 55 30 55 63c0 35 -18 63 -60 63z" />
    <glyph glyph-name="c.smcp" horiz-adv-x="525" 
d="M482 442l-37 -57c-30 24 -71 40 -132 40c-105 0 -162 -83 -162 -185c0 -103 55 -183 159 -183c62 0 104 15 133 41l36 -57c-39 -32 -97 -53 -173 -53c-170 0 -251 115 -251 252c0 141 91 255 254 255c76 0 134 -20 173 -53z" />
    <glyph glyph-name="d.smcp" horiz-adv-x="554" 
d="M170 414v-345h54c99 0 182 50 182 166c0 126 -83 179 -182 179h-54zM83 0v483h146c155 0 272 -79 272 -248c0 -161 -117 -235 -272 -235h-146z" />
    <glyph glyph-name="e.smcp" horiz-adv-x="442" 
d="M384 483v-69h-214v-130h168v-69h-168v-146h225v-69h-312v483h301z" />
    <glyph glyph-name="f.smcp" horiz-adv-x="425" 
d="M384 483v-69h-214v-130h168v-69h-168v-215h-87v483h301z" />
    <glyph glyph-name="g.smcp" horiz-adv-x="545" 
d="M396 237h87v-200c-39 -30 -96 -49 -171 -49c-160 0 -260 104 -260 252c0 141 94 255 262 255c74 0 131 -20 169 -53l-36 -57c-30 24 -71 40 -133 40c-107 0 -167 -83 -167 -185c0 -103 62 -183 173 -183c30 0 55 4 76 12v168z" />
    <glyph glyph-name="h.smcp" horiz-adv-x="563" 
d="M394 483h87v-483h-87v218h-224v-218h-87v483h87v-196h224v196z" />
    <glyph glyph-name="i.smcp" horiz-adv-x="252" 
d="M83 483h87v-483h-87v483z" />
    <glyph glyph-name="j.smcp" horiz-adv-x="253" 
d="M83 483h88v-439c0 -112 -31 -161 -167 -191l-20 65c80 19 99 48 99 124v441z" />
    <glyph glyph-name="k.smcp" horiz-adv-x="493" 
d="M466 0h-102l-146 210h-49v-210h-86v483h86v-204h44l147 204h99l-170 -235z" />
    <glyph glyph-name="l.smcp" horiz-adv-x="419" 
d="M385 69v-69h-302v483h87v-414h215z" />
    <glyph glyph-name="m.smcp" horiz-adv-x="686" 
d="M504 483h90l16 -483h-87l-11 337l-145 -337h-49l-145 335l-10 -335h-87l16 483h94l158 -373z" />
    <glyph glyph-name="n.smcp" horiz-adv-x="571" 
d="M402 483h87v-483h-71l-248 342v-342h-87v483h71l248 -348v348z" />
    <glyph glyph-name="o.smcp" horiz-adv-x="591" 
d="M305 57c86 0 139 83 139 182c0 106 -53 187 -144 187c-98 0 -153 -77 -153 -178c0 -109 57 -191 158 -191zM305 -12c-163 0 -253 107 -253 260c0 139 90 247 248 247c151 0 239 -111 239 -256c0 -143 -86 -251 -234 -251z" />
    <glyph glyph-name="p.smcp" horiz-adv-x="453" 
d="M83 483h127c142 0 202 -62 202 -152c0 -87 -64 -155 -180 -155h-62v-176h-87v483zM214 414h-44v-169h56c59 0 91 36 91 84c0 50 -27 85 -103 85z" />
    <glyph glyph-name="q.smcp" horiz-adv-x="591" 
d="M539 239c0 -108 -49 -195 -135 -232c84 -50 165 -84 254 -49l15 -68c-153 -55 -258 25 -389 99c-147 9 -232 113 -232 259c0 139 90 247 248 247c151 0 239 -111 239 -256zM305 57c85 0 139 82 139 182c0 106 -53 186 -144 186c-98 0 -153 -76 -153 -177
c0 -109 57 -191 158 -191z" />
    <glyph glyph-name="r.smcp" horiz-adv-x="483" 
d="M449 0h-99l-108 184h-8h-64v-184h-87v483h136c135 0 194 -60 194 -147c0 -59 -30 -108 -86 -134zM223 414h-53v-161h57c60 0 91 34 91 81c0 46 -22 80 -95 80z" />
    <glyph glyph-name="s.smcp" horiz-adv-x="435" 
d="M48 34l27 65c46 -24 96 -42 135 -42c47 0 79 18 79 62c0 101 -229 88 -229 248c0 49 33 128 161 128c54 0 92 -10 146 -34l-20 -66c-51 22 -88 31 -121 31c-64 0 -75 -36 -75 -56c0 -95 236 -89 236 -249c1 -91 -79 -132 -175 -132c-65 0 -110 19 -164 45z" />
    <glyph glyph-name="t.smcp" horiz-adv-x="441" 
d="M408 483v-69h-143v-414h-87v414h-146v69h376z" />
    <glyph glyph-name="u.smcp" horiz-adv-x="558" 
d="M78 483h87v-312c0 -63 22 -114 113 -114c93 0 115 51 115 114v312h87v-313c0 -94 -40 -182 -202 -182c-157 0 -200 87 -200 182v313z" />
    <glyph glyph-name="v.smcp" horiz-adv-x="514" 
d="M301 0h-91l-179 483h91l134 -386l141 386h91z" />
    <glyph glyph-name="w.smcp" horiz-adv-x="802" 
d="M279 0h-88l-160 483h92l119 -377l127 377h63l130 -377l117 377h91l-159 -483h-88l-122 356z" />
    <glyph glyph-name="x.smcp" horiz-adv-x="483" 
d="M125 0h-96l164 247l-155 236h98l106 -162l108 162h96l-156 -235l164 -248h-97l-116 175z" />
    <glyph glyph-name="y.smcp" horiz-adv-x="456" 
d="M272 197v-197h-87v199l-158 284h93l109 -202l106 202h92z" />
    <glyph glyph-name="z.smcp" horiz-adv-x="453" 
d="M304 414h-243v69h335v-69l-255 -345h261v-69h-355v69z" />
    <glyph glyph-name="caron.smcp" horiz-adv-x="329" 
d="M146 535l-119 108l43 48l93 -83l86 80l43 -47l-115 -106h-31z" />
    <glyph glyph-name="breve.smcp" horiz-adv-x="329" 
d="M9 686l59 16c7 -42 45 -90 92 -90c48 0 85 44 98 90l54 -16c-16 -81 -68 -144 -153 -144c-87 0 -142 68 -150 144z" />
    <glyph glyph-name="dotaccent.smcp" horiz-adv-x="190" 
d="M37 627c0 35 28 63 63 63c34 0 62 -28 62 -63c0 -34 -28 -62 -62 -62c-36 0 -63 27 -63 62z" />
    <glyph glyph-name="ring.smcp" horiz-adv-x="250" 
d="M32 639c0 51 37 90 94 90s94 -39 94 -90c0 -53 -37 -91 -94 -91s-94 38 -94 91zM126 591c23 0 41 12 41 47c0 37 -19 51 -41 51c-21 0 -40 -17 -40 -51c0 -36 19 -47 40 -47z" />
    <glyph glyph-name="tilde.smcp" horiz-adv-x="314" 
d="M210 553c-51 0 -69 44 -105 44c-18 0 -39 -10 -58 -47l-45 45c35 60 65 79 104 79c40 0 65 -45 102 -45c20 0 43 15 60 53l45 -44c-29 -59 -60 -85 -103 -85z" />
    <glyph glyph-name="hungarumlaut.smcp" horiz-adv-x="235" 
d="M62 527l-65 32l78 163l70 -36zM203 527l-64 32l77 163l70 -36z" />
    <glyph glyph-name="grave.smcp" horiz-adv-x="235" 
d="M230 591l-34 -66l-190 90l36 73z" />
    <glyph glyph-name="dieresis.smcp" horiz-adv-x="352" 
d="M22 615c0 34 28 62 63 62c34 0 62 -28 62 -62c0 -35 -28 -63 -62 -63c-35 0 -63 27 -63 63zM206 615c0 34 28 62 63 62c34 0 62 -28 62 -62c0 -35 -28 -63 -62 -63c-35 0 -63 27 -63 63z" />
    <glyph glyph-name="macron.smcp" horiz-adv-x="273" 
d="M26 568v72h223v-72h-223z" />
    <glyph glyph-name="acute.smcp" horiz-adv-x="235" 
d="M40 532l-33 66l188 97l35 -73z" />
    <glyph glyph-name="circumflex.smcp" horiz-adv-x="329" 
d="M174 693l117 -109l-43 -50l-91 84l-85 -84l-44 49l115 110h31z" />
    <glyph glyph-name="germandbls.smcp" horiz-adv-x="869" 
d="M48 34l27 65c46 -24 96 -42 135 -42c47 0 79 18 79 62c0 101 -229 88 -229 248c0 49 33 128 161 128c54 0 92 -10 146 -34l-20 -66c-51 22 -88 31 -121 31c-64 0 -75 -36 -75 -56c0 -95 236 -89 236 -249c1 -91 -79 -132 -175 -132c-65 0 -110 19 -164 45zM482 34l27 65
c46 -24 96 -42 135 -42c47 0 79 18 79 62c0 101 -229 88 -229 248c0 49 33 128 161 128c54 0 92 -10 146 -34l-20 -66c-51 22 -88 31 -121 31c-64 0 -75 -36 -75 -56c0 -95 236 -89 236 -249c1 -91 -79 -132 -175 -132c-65 0 -110 19 -164 45z" />
    <glyph glyph-name="ae.smcp" horiz-adv-x="678" 
d="M311 487h308v-68h-213v-135h169v-69h-169v-146h225v-69h-312v122h-141l-74 -122h-91zM218 187h101v165z" />
    <glyph glyph-name="s_t" unicode="&#xfb06;" horiz-adv-x="751" 
d="M524 480c0 108 -39 145 -132 145c-100 0 -140 -54 -140 -97c0 -16 2 -34 19 -63c30 -5 58 -14 92 -26l-14 -67c-48 22 -88 29 -117 29c-35 0 -73 -10 -73 -49c0 -69 225 -104 225 -237c0 -82 -74 -130 -173 -130c-67 0 -115 20 -173 54l25 69c49 -34 91 -51 141 -51
c45 0 85 21 85 54c0 80 -224 103 -224 237c0 86 67 118 140 121c-11 21 -17 43 -17 72c0 61 61 144 202 144s214 -63 214 -205v-25h95v-72h-95v-247c0 -50 16 -79 52 -79c20 0 33 5 60 19v-66c-33 -21 -65 -25 -88 -25c-78 0 -110 57 -110 131v267h-59v62l61 9z" />
    <glyph glyph-name="thorn.smcp" horiz-adv-x="452" 
d="M83 483h87v-84h40c142 0 202 -62 202 -152c0 -87 -64 -154 -180 -154h-62v-93h-87v483zM214 330h-44v-168h56c59 0 91 35 91 84c0 48 -27 84 -103 84z" />
    <glyph glyph-name="one.onum" horiz-adv-x="412" 
d="M90 288l-45 58l138 118l1 -2v1h85v-391h105v-72h-295v72h105v296z" />
    <glyph glyph-name="two.onum" horiz-adv-x="484" 
d="M99 335l-40 53c46 50 96 81 178 81c134 0 175 -85 175 -138c0 -123 -211 -165 -246 -259h261v-72h-368v28c0 163 253 202 253 295c0 26 -18 74 -87 74c-58 0 -88 -21 -126 -62z" />
    <glyph glyph-name="three.onum" horiz-adv-x="482" 
d="M100 361l-36 53c33 30 79 55 161 55c149 0 179 -99 179 -160c0 -49 -23 -107 -79 -144c68 -37 107 -99 107 -157c1 -68 -37 -185 -207 -185c-87 0 -133 22 -190 71l37 56c43 -34 79 -55 149 -55c96 0 121 73 120 116c0 56 -49 113 -149 116h-8h-15v72h15h7
c93 3 123 61 123 108c0 34 -16 90 -94 90c-54 0 -95 -15 -120 -36z" />
    <glyph glyph-name="four.onum" horiz-adv-x="505" 
d="M287 455h87v-416h90v-73h-90v-155h-87v155h-256v73zM119 39h168v272z" />
    <glyph glyph-name="five.onum" horiz-adv-x="484" 
d="M124 127h-52l36 327h300v-72h-228l-20 -171c29 17 61 27 97 27c112 0 174 -90 174 -196c0 -142 -80 -219 -196 -219c-91 0 -140 26 -192 77l40 55c41 -44 88 -60 139 -60c69 0 119 51 119 148c0 66 -38 123 -103 123c-35 0 -65 -7 -114 -39z" />
    <glyph glyph-name="six.onum" horiz-adv-x="527" 
d="M463 597l-28 -62c-27 12 -67 24 -110 24c-78 0 -150 -71 -169 -208c38 27 82 45 128 45c105 0 183 -60 183 -194c0 -133 -82 -217 -193 -217c-134 0 -213 129 -213 290c0 231 126 356 264 356c58 0 107 -17 138 -34zM284 323c-46 0 -95 -21 -133 -52
c1 -122 49 -214 122 -214c62 0 104 53 104 141c0 89 -39 125 -93 125z" />
    <glyph glyph-name="seven.onum" horiz-adv-x="443" 
d="M161 -188h-104l266 571h-282v72h384v-30z" />
    <glyph glyph-name="eight.onum" 
d="M257 -15c-108 0 -200 55 -200 151c0 85 54 143 126 185c-65 52 -92 100 -92 158c0 98 81 152 174 152c92 0 170 -55 170 -148c0 -78 -51 -130 -109 -169c86 -64 133 -116 133 -188c0 -81 -86 -141 -202 -141zM369 138c0 46 -48 84 -116 133c-61 -32 -109 -73 -109 -128
c0 -54 56 -86 112 -86c64 0 113 36 113 81zM178 480c0 -43 27 -75 79 -117c43 27 92 59 92 117c0 40 -29 79 -83 79c-51 0 -88 -34 -88 -79z" />
    <glyph glyph-name="nine.onum" horiz-adv-x="513" 
d="M66 -152l28 63c27 -11 66 -22 109 -22c72 0 143 75 161 215c-38 -27 -82 -45 -129 -45c-104 0 -182 59 -182 193s84 217 201 217c118 0 205 -121 205 -290c0 -233 -126 -362 -260 -362c-55 0 -103 15 -133 31zM235 131c47 0 96 21 134 52c-1 123 -47 214 -115 214
c-66 0 -111 -52 -111 -141c0 -88 39 -125 92 -125z" />
    <glyph glyph-name="zero.onum" horiz-adv-x="559" 
d="M60 226c0 133 65 243 219 243s221 -109 221 -243c0 -132 -67 -241 -221 -241c-151 0 -219 106 -219 241zM150 226c0 -90 40 -169 129 -169c90 0 131 79 131 169c0 94 -42 171 -131 171s-129 -77 -129 -171z" />
    <glyph glyph-name="zero.numr" horiz-adv-x="343" 
d="M170 355c42 0 57 45 57 107c0 57 -15 107 -57 107c-40 0 -54 -50 -54 -107c0 -61 14 -107 54 -107zM170 297c-100 0 -131 71 -131 165c0 91 30 165 131 165c102 0 135 -74 135 -165c0 -95 -33 -165 -135 -165z" />
    <glyph glyph-name="zero.subs" horiz-adv-x="343" 
d="M170 -70c42 0 57 45 57 107c0 57 -15 107 -57 107c-40 0 -54 -50 -54 -107c0 -61 14 -107 54 -107zM170 -128c-100 0 -131 71 -131 165c0 91 30 165 131 165c102 0 135 -74 135 -165c0 -95 -33 -165 -135 -165z" />
    <glyph glyph-name="one.numr" horiz-adv-x="274" 
d="M64 508l-36 45l83 66l1 -1v1h75v-257h58v-57h-188v57h55v183z" />
    <glyph glyph-name="one.subs" horiz-adv-x="275" 
d="M64 83l-36 45l83 66l1 -1v1h75v-257h58v-57h-188v57h55v183z" />
    <glyph glyph-name="two.numr" horiz-adv-x="311" 
d="M67 541l-32 43c28 26 61 43 113 43c94 0 123 -55 122 -88c-1 -92 -113 -105 -141 -177h142v-57h-231v17c0 128 147 155 147 212c0 13 -6 35 -47 35c-23 0 -50 -9 -73 -28z" />
    <glyph glyph-name="two.subs" horiz-adv-x="311" 
d="M67 116l-32 43c28 26 61 43 113 43c94 0 123 -55 122 -88c-1 -92 -113 -105 -141 -177h142v-57h-231v17c0 128 147 155 147 212c0 13 -6 35 -47 35c-23 0 -50 -9 -73 -28z" />
    <glyph glyph-name="three.numr" horiz-adv-x="307" 
d="M73 554l-31 41c21 18 47 32 97 32c97 0 116 -52 116 -84c0 -24 -13 -53 -40 -74c34 -20 55 -48 55 -76c1 -35 -22 -96 -127 -96c-51 0 -82 13 -114 36l31 45c23 -15 42 -23 81 -23c43 0 52 25 52 42c0 21 -25 42 -79 42h-8v57h8h6c43 2 57 24 57 40c0 13 -7 34 -45 34
c-27 0 -47 -7 -59 -16z" />
    <glyph glyph-name="three.subs" horiz-adv-x="307" 
d="M73 129l-31 41c21 18 47 32 97 32c97 0 116 -52 116 -84c0 -24 -13 -53 -40 -74c34 -20 55 -48 55 -76c1 -35 -22 -96 -127 -96c-51 0 -82 13 -114 36l31 45c23 -15 42 -23 81 -23c43 0 52 25 52 42c0 21 -25 42 -79 42h-8v57h8h6c43 2 57 24 57 40c0 13 -7 34 -45 34
c-27 0 -47 -7 -59 -16z" />
    <glyph glyph-name="four.numr" horiz-adv-x="325" 
d="M177 619h76v-197h38v-57h-38v-60h-76v60h-146v57zM106 422h71v94z" />
    <glyph glyph-name="four.subs" horiz-adv-x="326" 
d="M177 194h76v-197h38v-57h-38v-60h-76v60h-146v57zM106 -3h71v94z" />
    <glyph glyph-name="five.numr" horiz-adv-x="310" 
d="M88 439h-43l22 180h189v-57h-126l-7 -56c13 5 27 9 44 9c67 0 107 -48 107 -105c0 -73 -50 -113 -120 -113c-47 0 -89 11 -121 43l38 47c20 -20 42 -28 68 -28c30 0 54 18 54 52c0 26 -20 47 -48 47c-18 0 -32 -2 -57 -19z" />
    <glyph glyph-name="five.subs" horiz-adv-x="310" 
d="M88 14h-43l22 180h189v-57h-126l-7 -56c13 5 27 9 44 9c67 0 107 -48 107 -105c0 -73 -50 -113 -120 -113c-47 0 -89 11 -121 43l38 47c20 -20 42 -28 68 -28c30 0 54 18 54 52c0 26 -20 47 -48 47c-18 0 -32 -2 -57 -19z" />
    <glyph glyph-name="six.numr" horiz-adv-x="326" 
d="M280 608l-24 -49c-15 5 -37 10 -61 10c-31 0 -61 -24 -73 -71c16 8 34 13 53 13c66 0 116 -31 116 -101c0 -69 -52 -113 -121 -113c-79 0 -133 64 -133 148c0 118 75 182 158 182c36 0 67 -10 85 -19zM175 454c-20 0 -41 -7 -59 -17c2 -47 24 -82 53 -82
c25 0 44 18 44 51c0 34 -18 48 -38 48z" />
    <glyph glyph-name="six.subs" horiz-adv-x="326" 
d="M280 183l-24 -49c-15 5 -37 10 -61 10c-31 0 -61 -24 -73 -71c16 8 34 13 53 13c66 0 116 -31 116 -101c0 -69 -52 -113 -121 -113c-79 0 -133 64 -133 148c0 118 75 182 158 182c36 0 67 -10 85 -19zM175 29c-20 0 -41 -7 -59 -17c2 -47 24 -82 53 -82c25 0 44 18 44 51
c0 34 -18 48 -38 48z" />
    <glyph glyph-name="seven.numr" horiz-adv-x="285" 
d="M136 305h-95l127 257h-132v57h227v-15z" />
    <glyph glyph-name="seven.subs" horiz-adv-x="285" 
d="M136 -120h-95l127 257h-132v57h227v-15z" />
    <glyph glyph-name="eight.numr" horiz-adv-x="314" 
d="M157 297c-65 0 -120 28 -120 77c0 41 27 72 59 93c-34 27 -44 51 -44 78c0 53 49 82 108 82c57 0 104 -29 104 -80c0 -41 -25 -67 -51 -87c42 -32 64 -54 64 -89c0 -43 -51 -74 -120 -74zM201 381c0 15 -17 28 -46 46c-24 -10 -41 -28 -41 -45c0 -18 21 -27 43 -27
c20 0 44 9 44 26zM129 542c0 -13 7 -23 28 -40c15 9 32 22 32 42c0 16 -10 25 -29 25c-18 0 -31 -11 -31 -27z" />
    <glyph glyph-name="eight.subs" horiz-adv-x="314" 
d="M157 -128c-65 0 -120 28 -120 77c0 41 27 72 59 93c-34 27 -44 51 -44 78c0 53 49 82 108 82c57 0 104 -29 104 -80c0 -41 -25 -67 -51 -87c42 -32 64 -54 64 -89c0 -43 -51 -74 -120 -74zM201 -44c0 15 -17 28 -46 46c-24 -10 -41 -28 -41 -45c0 -18 21 -27 43 -27
c20 0 44 9 44 26zM129 117c0 -13 7 -23 28 -40c15 9 32 22 32 42c0 16 -10 25 -29 25c-18 0 -31 -11 -31 -27z" />
    <glyph glyph-name="nine.numr" horiz-adv-x="326" 
d="M46 316l25 48c15 -5 37 -9 61 -9c30 0 60 23 73 71c-17 -8 -35 -13 -54 -13c-65 0 -116 31 -116 101c0 69 52 113 122 113c79 0 132 -63 132 -148c0 -118 -74 -182 -157 -182c-36 0 -67 10 -86 19zM151 471c21 0 42 6 60 16c-3 47 -24 82 -53 82c-26 0 -44 -18 -44 -51
c0 -34 18 -47 37 -47z" />
    <glyph glyph-name="nine.subs" horiz-adv-x="326" 
d="M46 -109l25 48c15 -5 37 -9 61 -9c30 0 60 23 73 71c-17 -8 -35 -13 -54 -13c-65 0 -116 31 -116 101c0 69 52 113 122 113c79 0 132 -63 132 -148c0 -118 -74 -182 -157 -182c-36 0 -67 10 -86 19zM151 46c21 0 42 6 60 16c-3 47 -24 82 -53 82c-26 0 -44 -18 -44 -51
c0 -34 18 -47 37 -47z" />
    <glyph glyph-name="exclamdown.smcp" horiz-adv-x="272" 
d="M179 -116h-87l7 362h73zM82 364c0 29 24 51 54 51c31 0 56 -22 56 -51s-25 -52 -56 -52c-30 0 -54 22 -54 52z" />
    <glyph glyph-name="cent.smcp" horiz-adv-x="420" 
d="M50 180c0 91 54 171 153 186v78h53v-76c50 -3 88 -19 114 -42l-35 -53c-23 18 -48 30 -87 30c-75 0 -109 -59 -109 -124c0 -64 34 -125 106 -125c43 0 69 12 88 31l35 -53c-26 -23 -63 -40 -112 -43v-78h-53v80c-101 15 -153 101 -153 189z" />
    <glyph glyph-name="ordfeminine.smcp" horiz-adv-x="326" 
d="M96 450l-20 34c24 16 56 28 92 28c47 0 85 -22 85 -86v-145h-58v24c-23 -18 -44 -29 -70 -29c-37 0 -65 19 -65 55c0 47 46 61 135 83v9c0 31 -19 43 -38 43c-22 0 -45 -6 -61 -16zM143 319c15 0 32 4 52 17v48c-51 -17 -74 -24 -74 -45c0 -13 9 -20 22 -20z" />
    <glyph glyph-name="questiondown.smcp" horiz-adv-x="366" 
d="M290 1l43 -40c-39 -45 -91 -76 -151 -76c-91 0 -146 55 -146 119c0 120 140 107 131 259h73c10 -163 -120 -179 -120 -251c0 -31 23 -62 70 -62c37 0 71 19 100 51zM257 346c0 -26 -24 -48 -53 -48c-28 0 -52 22 -52 48c0 28 24 50 52 50c29 0 53 -22 53 -50z" />
    <glyph glyph-name="perthousand.smcp" horiz-adv-x="974" 
d="M145 9l326 508l65 -39l-326 -508zM159 233c-70 0 -120 51 -120 131c0 79 49 131 120 131c72 0 120 -52 120 -131c0 -80 -48 -131 -120 -131zM159 287c28 0 48 30 48 77s-20 77 -48 77s-48 -30 -48 -77s20 -77 48 -77zM522 -12c-70 0 -121 51 -121 131
c0 79 49 131 121 131c71 0 121 -52 121 -131c0 -80 -50 -131 -121 -131zM522 42c28 0 48 30 48 77s-20 77 -48 77s-49 -29 -49 -77c0 -47 21 -77 49 -77zM817 -12c-70 0 -120 51 -120 131c0 79 49 131 120 131c72 0 121 -52 121 -131c0 -80 -49 -131 -121 -131zM817 42
c28 0 48 30 48 77s-20 77 -48 77s-48 -29 -48 -77c0 -47 20 -77 48 -77z" />
    <glyph glyph-name="Euro.smcp" horiz-adv-x="610" 
d="M397 324l-21 -56h-326l21 56h70c32 109 126 171 241 171c76 0 134 -20 173 -53l-36 -57c-29 24 -70 41 -132 41c-77 0 -129 -42 -152 -102h162zM360 221l-21 -55h-108c22 -65 76 -109 157 -109c61 0 100 15 129 41l37 -57c-39 -32 -96 -53 -169 -53
c-134 0 -217 71 -246 178h-93l21 55h293z" />
    <glyph glyph-name="zero.pnum" horiz-adv-x="567" 
d="M282 57c101 0 131 108 131 251c0 138 -31 251 -131 251c-98 0 -128 -113 -128 -251c0 -143 30 -251 128 -251zM282 -15c-166 0 -218 137 -218 323c0 179 52 323 218 323c168 0 222 -144 222 -323c0 -186 -54 -323 -222 -323z" />
    <glyph glyph-name="one.pnum" horiz-adv-x="441" 
d="M78 433l-45 57l176 127l1 -2v1h86v-544h110v-72h-307v72h111v455z" />
    <glyph glyph-name="two.pnum" horiz-adv-x="516" 
d="M99 498l-40 52c48 50 103 81 190 81c152 0 199 -105 197 -169c-3 -184 -278 -230 -303 -390h318v-72h-406v34c0 237 297 272 300 427c0 35 -25 98 -118 98c-62 0 -97 -21 -138 -61z" />
    <glyph glyph-name="three.pnum" horiz-adv-x="507" 
d="M104 523l-36 53c34 30 81 56 165 56c157 0 188 -100 188 -161c0 -48 -24 -107 -83 -145c70 -36 111 -97 111 -156c1 -67 -38 -184 -216 -184c-93 0 -138 30 -194 70l38 57c43 -34 80 -55 152 -55c104 0 131 72 130 116c0 55 -53 112 -163 115h-8h-15v72h15
c110 0 143 60 143 108c0 35 -17 90 -103 90c-56 0 -98 -14 -124 -36z" />
    <glyph glyph-name="four.pnum" horiz-adv-x="538" 
d="M319 616h87v-396h85v-72h-85v-148h-87v148h-281v72zM126 220h193v270z" />
    <glyph glyph-name="five.pnum" horiz-adv-x="508" 
d="M128 289h-52l36 327h316v-72h-245l-19 -170c32 16 65 26 104 26c116 0 183 -91 183 -197c0 -141 -85 -218 -205 -218c-86 0 -149 25 -199 78l40 55c43 -44 92 -61 147 -61c72 0 127 51 127 147c0 67 -43 124 -112 124c-38 0 -69 -7 -121 -39z" />
    <glyph glyph-name="six.pnum" horiz-adv-x="534" 
d="M463 597l-28 -62c-27 12 -67 24 -110 24c-78 0 -150 -71 -169 -209c39 27 85 46 133 46c107 0 190 -60 190 -194c0 -133 -87 -217 -203 -217c-102 0 -215 91 -215 290c0 231 126 356 264 356c58 0 107 -17 138 -34zM289 323c-48 0 -99 -21 -138 -52
c1 -122 51 -214 124 -214c66 0 113 53 113 141c0 89 -43 125 -99 125z" />
    <glyph glyph-name="seven.pnum" horiz-adv-x="462" 
d="M181 0h-104l261 544h-296v72h398v-30z" />
    <glyph glyph-name="eight.pnum" horiz-adv-x="533" 
d="M265 -15c-112 0 -208 53 -208 151c0 86 56 141 131 184c-69 51 -98 101 -98 159c0 100 86 152 183 152c95 0 177 -55 177 -148c0 -78 -52 -130 -116 -169c93 -64 141 -114 141 -188c0 -81 -88 -141 -210 -141zM389 138c0 46 -54 85 -128 133c-65 -31 -117 -69 -117 -128
c0 -55 61 -87 120 -87c69 0 125 37 125 82zM176 480c0 -44 29 -77 87 -118c49 26 101 59 101 118c0 42 -31 80 -90 80c-55 0 -98 -33 -98 -80z" />
    <glyph glyph-name="nine.pnum" horiz-adv-x="534" 
d="M72 19l28 63c27 -13 66 -25 109 -25c78 0 150 72 169 209c-39 -27 -85 -45 -133 -45c-107 0 -189 59 -189 193s87 217 202 217c127 0 216 -121 216 -290c0 -231 -127 -356 -265 -356c-58 0 -106 17 -137 34zM245 293c48 0 99 21 138 52c-1 123 -50 214 -124 214
c-66 0 -113 -52 -113 -141c0 -88 44 -125 99 -125z" />
    <glyph glyph-name="zero.onum.pnum" horiz-adv-x="526" 
d="M60 226c0 133 59 243 202 243s204 -109 204 -243c0 -132 -61 -241 -204 -241c-141 0 -202 109 -202 241zM150 226c0 -90 35 -169 112 -169c78 0 114 79 114 169c0 94 -36 171 -114 171s-112 -77 -112 -171z" />
    <glyph glyph-name="one.onum.pnum" horiz-adv-x="430" 
d="M83 288l-43 59l161 117l1 -2v1h86v-391h104v-72h-294v72h104v302z" />
    <glyph glyph-name="two.onum.pnum" horiz-adv-x="484" 
d="M99 335l-40 53c46 50 96 81 178 81c134 0 175 -85 175 -138c0 -123 -211 -165 -246 -259h261v-72h-368v28c0 163 253 202 253 295c0 26 -18 74 -87 74c-58 0 -88 -21 -126 -62z" />
    <glyph glyph-name="three.onum.pnum" horiz-adv-x="476" 
d="M99 360l-36 53c32 30 77 55 156 55c150 0 179 -95 179 -153c0 -52 -23 -115 -78 -155c67 -36 106 -98 106 -158c1 -68 -37 -184 -207 -184c-89 0 -131 25 -185 69l38 57c41 -35 75 -54 143 -54c100 0 124 72 123 115c0 58 -49 116 -154 116h-15v72h15h7
c91 3 119 66 119 114c0 35 -15 89 -96 89c-52 0 -91 -15 -115 -36z" />
    <glyph glyph-name="four.onum.pnum" horiz-adv-x="500" 
d="M285 455h86v-397h84v-73h-84v-174h-86v174h-253v73zM120 58h165v258z" />
    <glyph glyph-name="five.onum.pnum" horiz-adv-x="482" 
d="M124 124h-53l37 331h298v-72h-226l-20 -170c28 17 59 27 95 27c112 0 175 -92 175 -200c0 -143 -82 -221 -197 -221c-90 0 -138 25 -191 77l45 61c40 -45 83 -60 132 -60c69 0 121 50 121 144c0 66 -40 122 -104 122c-35 0 -64 -7 -112 -39z" />
    <glyph glyph-name="six.onum.pnum" horiz-adv-x="516" 
d="M455 597l-28 -62c-24 12 -61 24 -101 24c-79 0 -152 -71 -172 -208c36 27 79 45 124 45c98 0 175 -60 175 -194c0 -133 -83 -217 -194 -217c-124 0 -198 128 -198 290c0 231 127 356 265 356c55 0 101 -17 129 -34zM264 323c-41 0 -82 -21 -115 -51
c1 -123 49 -215 116 -215c57 0 100 53 100 141c0 89 -45 125 -101 125z" />
    <glyph glyph-name="seven.onum.pnum" horiz-adv-x="443" 
d="M161 -188h-104l266 571h-282v72h384v-30z" />
    <glyph glyph-name="eight.onum.pnum" 
d="M257 -15c-108 0 -200 55 -200 151c0 85 54 143 126 185c-65 52 -92 100 -92 158c0 98 81 152 174 152c92 0 170 -55 170 -148c0 -78 -51 -130 -109 -169c86 -64 133 -116 133 -188c0 -81 -86 -141 -202 -141zM369 138c0 46 -48 84 -116 133c-61 -32 -105 -73 -105 -128
c0 -54 52 -86 108 -86c64 0 113 36 113 81zM182 480c0 -43 23 -75 75 -117c43 27 88 59 88 117c0 40 -25 79 -79 79c-51 0 -84 -34 -84 -79z" />
    <glyph glyph-name="nine.onum.pnum" horiz-adv-x="512" 
d="M67 -155l28 63c25 -10 60 -19 98 -19c78 0 153 74 172 215c-36 -27 -79 -45 -124 -45c-106 0 -189 59 -189 193s85 217 196 217c125 0 210 -124 210 -292c0 -234 -127 -360 -265 -360c-52 0 -90 12 -126 28zM241 131c46 0 92 21 129 53c-2 122 -52 213 -120 213
c-63 0 -110 -52 -110 -141c0 -88 47 -125 101 -125z" />
    <glyph glyph-name="uni0412" unicode="&#x412;" horiz-adv-x="561" 
d="M92 616h189c131 0 181 -61 181 -147c0 -51 -18 -99 -51 -133c64 -31 97 -88 97 -159c0 -100 -75 -177 -210 -177h-206v616zM412 181c0 57 -31 103 -118 105h-7h-106v-210h115c74 0 116 44 116 105zM282 540h-101v-178h103c58 0 82 43 82 94c0 46 -25 84 -84 84z" />
    <glyph glyph-name="uni0413" unicode="&#x413;" horiz-adv-x="423" 
d="M92 616h301v-76h-212v-540h-89v616z" />
    <glyph glyph-name="uni0414" unicode="&#x414;" horiz-adv-x="606" 
d="M18 76h59c64 161 98 342 105 536h4v4h312v-540h55v-216h-77v140h-381v-140h-77v216zM265 540c-13 -169 -43 -327 -95 -464h239v464h-144z" />
    <glyph glyph-name="uni0415" unicode="&#x415;" horiz-adv-x="509" 
d="M448 616v-76h-267v-183h209v-76h-209v-205h282v-76h-371v616h356z" />
    <glyph glyph-name="uni0416" unicode="&#x416;" horiz-adv-x="848" 
d="M35 616h101l184 -268h61v268h88v-268h59l185 268h101l-206 -301l217 -315h-105l-185 273h-66v-273h-88v273h-67l-185 -273h-105l217 315z" />
    <glyph glyph-name="uni0417" unicode="&#x417;" horiz-adv-x="488" 
d="M33 49l39 58c40 -30 77 -46 143 -46c102 0 123 67 123 109c0 58 -52 115 -163 115h-15v76h15h8c99 3 129 63 129 111c0 33 -16 84 -98 84c-56 0 -97 -14 -122 -35l-37 56c33 30 80 55 165 55c157 0 187 -94 187 -152c0 -51 -24 -114 -82 -154c69 -37 110 -98 110 -156
c1 -67 -38 -184 -216 -184c-85 0 -132 22 -186 63z" />
    <glyph glyph-name="uni0419" unicode="&#x419;" horiz-adv-x="658" 
d="M92 616h89v-457l297 457h89v-616h-89v460l-297 -460h-89v616zM195 815l59 15c7 -42 44 -89 91 -89c48 0 86 44 99 90l54 -17c-16 -81 -68 -144 -153 -144c-90 0 -136 60 -150 145z" />
    <glyph glyph-name="uni041A" unicode="&#x41a;" horiz-adv-x="559" 
d="M536 0h-105l-185 273h-66v-273h-88v616h88v-268h59l185 268h101l-206 -301z" />
    <glyph glyph-name="uni041B" unicode="&#x41b;" horiz-adv-x="585" 
d="M164 616h330v-616h-90v540h-162l-40 -369c-11 -101 -48 -172 -189 -172v75c86 0 97 37 106 120z" />
    <glyph glyph-name="uni041C" unicode="&#x41c;" horiz-adv-x="789" 
d="M594 616h96l15 -616h-89l-11 441l-178 -441h-65l-179 440l-10 -440h-89l15 616h100l197 -498z" />
    <glyph glyph-name="uni041D" unicode="&#x41d;" horiz-adv-x="651" 
d="M470 616h89v-616h-89v285h-289v-285h-89v616h89v-255h289v255z" />
    <glyph glyph-name="uni041E" unicode="&#x41e;" horiz-adv-x="683" 
d="M353 61c110 0 178 110 178 244c0 143 -67 251 -184 251c-125 0 -194 -104 -194 -240c0 -145 71 -255 200 -255zM353 -15c-191 0 -297 137 -297 331c0 178 106 315 291 315c178 0 280 -141 280 -326c0 -182 -100 -320 -274 -320z" />
    <glyph glyph-name="uni041F" unicode="&#x41f;" horiz-adv-x="651" 
d="M92 616h467v-616h-89v540h-289v-540h-89v616z" />
    <glyph glyph-name="uni0420" unicode="&#x420;" horiz-adv-x="512" 
d="M92 616h144c169 0 236 -78 236 -190c0 -111 -75 -195 -210 -195h-81v-231h-89v616zM239 540h-58v-234h75c78 0 120 50 120 117s-36 117 -137 117z" />
    <glyph glyph-name="uni0421" unicode="&#x421;" horiz-adv-x="609" 
d="M564 566l-37 -63c-38 30 -88 52 -166 52c-133 0 -205 -113 -205 -249c0 -137 70 -245 201 -245c78 0 129 19 166 53l37 -63c-46 -41 -115 -66 -207 -66c-199 0 -294 145 -294 321c0 179 105 325 298 325c92 0 161 -25 207 -65z" />
    <glyph glyph-name="uni0422" unicode="&#x422;" horiz-adv-x="511" 
d="M480 616v-76h-179v-540h-89v540h-182v76h450z" />
    <glyph glyph-name="uni0423" unicode="&#x423;" horiz-adv-x="528" 
d="M26 616h97l161 -341l145 341h95l-174 -396c-51 -116 -117 -198 -269 -240l-28 64c75 30 143 62 184 129z" />
    <glyph glyph-name="uni0424" unicode="&#x424;" horiz-adv-x="744" 
d="M36 305c0 127 119 209 292 220v91h90v-91c171 -13 290 -94 290 -220s-119 -207 -290 -219v-86h-90v86c-172 12 -292 92 -292 219zM133 305c0 -81 81 -132 195 -142v287c-114 -11 -195 -62 -195 -145zM611 305c0 82 -80 134 -193 145v-287c112 10 193 61 193 142z" />
    <glyph glyph-name="uni0425" unicode="&#x425;" horiz-adv-x="545" 
d="M119 0h-94l200 315l-189 301h95l141 -226l144 226h93l-190 -300l198 -316h-93l-152 241z" />
    <glyph glyph-name="uni0426" unicode="&#x426;" horiz-adv-x="667" 
d="M614 76v-216h-76v140h-446v616h89v-540h289v540h89v-540h55z" />
    <glyph glyph-name="uni0427" unicode="&#x427;" horiz-adv-x="559" 
d="M378 616h89v-616h-89v282c-51 -32 -105 -54 -164 -54c-103 0 -156 53 -156 182v206h89v-195c0 -92 31 -118 86 -118c46 0 98 23 145 55v258z" />
    <glyph glyph-name="uni0428" unicode="&#x428;" horiz-adv-x="910" 
d="M818 0h-726v616h89v-540h229v540h89v-540h230v540h89v-616z" />
    <glyph glyph-name="uni0429" unicode="&#x429;" horiz-adv-x="926" 
d="M873 76v-216h-76v140h-705v616h89v-540h229v540h89v-540h230v540h89v-540h55z" />
    <glyph glyph-name="uni042A" unicode="&#x42a;" horiz-adv-x="633" 
d="M30 616h270v-250h67c160 0 227 -76 227 -180c0 -107 -75 -186 -220 -186h-163v540h-181v76zM361 290h-61v-214h77c79 0 120 46 120 106c0 62 -36 108 -136 108z" />
    <glyph glyph-name="uni042B" unicode="&#x42b;" horiz-adv-x="780" 
d="M599 616h89v-616h-89v616zM92 616h89v-250h67c159 0 226 -76 226 -180c0 -107 -76 -186 -220 -186h-162v616zM241 290h-60v-214h76c80 0 120 46 120 106c0 62 -36 108 -136 108z" />
    <glyph glyph-name="uni042C" unicode="&#x42c;" horiz-adv-x="513" 
d="M92 616h89v-250h67c159 0 226 -76 226 -180c0 -107 -76 -186 -220 -186h-162v616zM241 290h-60v-214h76c80 0 120 46 120 106c0 62 -36 108 -136 108z" />
    <glyph glyph-name="uni042D" unicode="&#x42d;" horiz-adv-x="602" 
d="M79 503l-38 63c46 40 116 65 207 65c193 0 299 -146 299 -325s-104 -321 -295 -321c-89 0 -156 23 -207 66l38 63c36 -34 88 -53 165 -53c121 0 191 91 201 213h-259v76h257c-14 115 -84 206 -202 206c-78 0 -128 -23 -166 -53z" />
    <glyph glyph-name="uni042E" unicode="&#x42e;" horiz-adv-x="943" 
d="M612 -15c-177 0 -284 122 -295 300h-136v-285h-89v616h89v-255h137c17 155 119 270 288 270c178 0 281 -141 281 -326c0 -182 -101 -320 -275 -320zM612 61c113 0 178 109 178 244c0 143 -66 250 -184 250c-124 0 -194 -103 -194 -239c0 -145 72 -255 200 -255z" />
    <glyph glyph-name="uni042F" unicode="&#x42f;" horiz-adv-x="551" 
d="M135 -3l-99 4l152 260c-73 30 -111 95 -111 173c0 107 66 182 225 182h157v-616h-89v244h-83h-9zM174 431c0 -65 41 -111 119 -111h77v220h-70c-97 0 -126 -47 -126 -109z" />
    <glyph glyph-name="uni0490" unicode="&#x490;" horiz-adv-x="437" 
d="M331 744h76v-204h-226v-540h-89v616h239v128z" />
    <glyph glyph-name="uni0406" unicode="&#x406;" horiz-adv-x="272" 
d="M92 616h89v-616h-89v616z" />
    <glyph glyph-name="uni0402" unicode="&#x402;" horiz-adv-x="646" 
d="M480 616v-76h-179v-169c38 14 81 24 132 24c111 0 166 -81 166 -194c0 -131 -36 -234 -146 -291l-38 55c72 42 95 123 95 229c0 71 -30 125 -89 125c-45 0 -84 -10 -120 -25v-294h-89v540h-182v76h450z" />
    <glyph glyph-name="uni0452" unicode="&#x452;" 
d="M20 506v55h58v87l86 14v-101h155v-55h-155v-134c39 35 86 56 143 56c72 0 136 -33 136 -138v-229c0 -145 -31 -205 -189 -244l-20 71c100 26 123 66 123 169v222c0 55 -31 77 -69 77c-44 0 -90 -24 -124 -63v-293h-86v506h-58z" />
    <glyph glyph-name="uni0403" unicode="&#x403;" horiz-adv-x="423" 
d="M154 669l-33 66l188 97l35 -73zM92 616h301v-76h-212v-540h-89v616z" />
    <glyph glyph-name="uni0453" unicode="&#x453;" horiz-adv-x="370" 
d="M164 0h-86v455h269v-72h-183v-383zM169 516l-44 58l163 137l46 -63z" />
    <glyph glyph-name="uni0456" unicode="&#x456;" horiz-adv-x="242" 
d="M164 0h-86v448l86 14v-462zM63 604c0 33 26 58 58 58c33 0 60 -25 60 -58s-27 -59 -60 -59c-32 0 -58 25 -58 59z" />
    <glyph glyph-name="uni0491" unicode="&#x491;" horiz-adv-x="381" 
d="M164 0h-86v455h208v102h72v-174h-194v-383z" />
    <glyph glyph-name="uni0408" unicode="&#x408;" horiz-adv-x="272" 
d="M92 616h89v-561c0 -144 -34 -204 -193 -243l-20 72c100 26 124 64 124 168v564z" />
    <glyph glyph-name="uni0404" unicode="&#x404;" horiz-adv-x="602" 
d="M560 566l-37 -63c-38 30 -88 53 -166 53c-119 0 -189 -91 -203 -207h258v-75h-259c10 -122 78 -213 200 -213c78 0 130 19 166 53l38 -63c-46 -41 -116 -66 -207 -66c-192 0 -295 142 -295 321s105 325 298 325c92 0 161 -25 207 -65z" />
    <glyph glyph-name="uni0454" unicode="&#x454;" horiz-adv-x="466" 
d="M50 228c0 129 77 241 222 241c71 0 122 -21 155 -54l-37 -59c-28 24 -60 41 -109 41c-81 0 -127 -58 -138 -130h168v-72h-169c9 -76 53 -138 135 -138c54 0 86 16 111 40l35 -57c-32 -33 -83 -55 -154 -55c-141 0 -219 111 -219 243z" />
    <glyph glyph-name="uni0407" unicode="&#x407;" horiz-adv-x="272" 
d="M92 616h89v-616h-89v616zM-17 736c0 35 28 63 63 63s63 -28 63 -63s-28 -63 -63 -63s-63 28 -63 63zM167 736c0 35 28 63 63 63c34 0 62 -28 62 -63s-28 -63 -62 -63c-36 0 -63 28 -63 63z" />
    <glyph glyph-name="uni0457" unicode="&#x457;" horiz-adv-x="243" 
d="M-32 598c0 33 28 62 63 62c34 0 62 -28 62 -62c0 -35 -28 -63 -62 -63c-35 0 -63 27 -63 63zM152 598c0 33 28 62 63 62c34 0 62 -28 62 -62c0 -35 -28 -63 -62 -63c-35 0 -63 27 -63 63zM165 0h-87v445l87 14v-459z" />
    <glyph glyph-name="uni0409" unicode="&#x409;" horiz-adv-x="825" 
d="M164 616h330v-250h67c159 0 226 -76 226 -180c0 -107 -76 -186 -220 -186h-163v540h-162l-40 -369c-11 -101 -48 -172 -189 -172v75c86 0 97 37 106 120zM554 290h-60v-214h75c80 0 121 46 121 106c0 62 -36 108 -136 108z" />
    <glyph glyph-name="uni0459" unicode="&#x459;" horiz-adv-x="745" 
d="M166 455h292v-150h49c142 0 203 -65 203 -151c0 -89 -87 -154 -222 -154h-116v383h-132l-35 -228c-15 -92 -46 -156 -186 -156v75c84 0 92 31 104 103zM502 232h-44v-160h47c75 0 114 36 114 79c0 46 -32 81 -117 81z" />
    <glyph glyph-name="uni040A" unicode="&#x40a;" horiz-adv-x="891" 
d="M470 616h89v-250h67c160 0 227 -76 227 -180c0 -107 -75 -186 -220 -186h-163v285h-289v-285h-89v616h89v-255h289v255zM620 290h-61v-214h77c79 0 120 46 120 106c0 62 -36 108 -136 108z" />
    <glyph glyph-name="uni045A" unicode="&#x45a;" horiz-adv-x="754" 
d="M381 455h85v-150h50c141 0 202 -65 202 -151c0 -89 -87 -154 -222 -154h-115v199h-217v-199h-86v455h86v-184h217v184zM510 232h-44v-160h47c75 0 115 36 115 79c0 46 -33 81 -118 81z" />
    <glyph glyph-name="uni0458" unicode="&#x458;" horiz-adv-x="242" 
d="M78 448l86 14v-407c0 -144 -31 -204 -189 -243l-20 70c100 26 123 66 123 170v396zM63 604c0 33 26 58 58 58c33 0 60 -25 60 -58s-27 -59 -60 -59c-32 0 -58 25 -58 59z" />
    <glyph glyph-name="uni0405" unicode="&#x405;" horiz-adv-x="499" 
d="M49 44l28 71c53 -31 114 -54 165 -54c61 0 107 26 107 90c0 137 -284 134 -284 321c0 60 40 159 193 159c64 0 109 -13 170 -43l-22 -73c-57 29 -102 40 -144 40c-86 0 -103 -51 -103 -81c0 -128 290 -132 290 -321c0 -115 -94 -167 -208 -167c-74 0 -129 24 -192 58z
" />
    <glyph glyph-name="uni040B" unicode="&#x40b;" horiz-adv-x="661" 
d="M480 616v-76h-179v-203c46 29 93 48 150 48c92 0 156 -38 156 -182v-203h-90v192c0 92 -31 118 -86 118c-44 0 -87 -20 -130 -49v-261h-89v540h-182v76h450z" />
    <glyph glyph-name="uni045B" unicode="&#x45b;" 
d="M20 492v67h58v89l86 14v-103h155v-67h-155v-121c39 35 86 57 143 57c72 0 136 -33 136 -138v-290h-86v279c0 55 -31 77 -69 77c-44 0 -90 -25 -124 -63v-293h-86v492h-58z" />
    <glyph glyph-name="uni040C" unicode="&#x40c;" horiz-adv-x="559" 
d="M536 0h-105l-186 274h-65v-274h-88v616h88v-268h59l185 268h101l-206 -301zM236 669l-33 66l187 97l35 -73z" />
    <glyph glyph-name="uni045C" unicode="&#x45c;" horiz-adv-x="489" 
d="M205 516l-44 58l163 137l46 -63zM472 0h-105l-149 194h-54v-194h-86v455l86 3v-192h54l135 189h98l-159 -219z" />
    <glyph glyph-name="uni043A" unicode="&#x43a;" horiz-adv-x="489" 
d="M472 0h-105l-149 194h-54v-194h-86v455l86 3v-192h54l135 189h98l-159 -219z" />
    <glyph glyph-name="uni0455" unicode="&#x455;" horiz-adv-x="430" 
d="M364 439l-14 -67c-48 22 -88 29 -117 29c-35 0 -73 -10 -73 -49c0 -69 225 -104 225 -237c0 -82 -74 -130 -173 -130c-66 0 -116 21 -173 54l25 69c49 -34 91 -51 141 -51c45 0 85 21 85 54c0 80 -224 103 -224 237c0 90 73 121 149 121c57 0 95 -10 149 -30z" />
    <glyph glyph-name="uni040E" unicode="&#x40e;" horiz-adv-x="528" 
d="M26 616h97l161 -341l145 341h95l-174 -396c-51 -116 -117 -198 -269 -240l-28 64c75 30 143 62 184 129zM133 815l59 15c7 -42 44 -89 91 -89c48 0 86 44 99 90l54 -17c-16 -81 -68 -144 -153 -144c-90 0 -136 60 -150 145z" />
    <glyph glyph-name="uni045E" unicode="&#x45e;" horiz-adv-x="482" 
d="M29 455h88l124 -344l127 344h86l-147 -397c-48 -122 -75 -247 -259 -247v71c93 0 119 53 148 118h-2zM102 686l57 14c7 -44 46 -94 93 -94s84 48 97 96l55 -16c-16 -85 -68 -150 -153 -150c-92 0 -138 73 -149 150z" />
    <glyph glyph-name="uni040F" unicode="&#x40f;" horiz-adv-x="651" 
d="M559 0h-192v-140h-77v140h-198v616h89v-540h289v540h89v-616z" />
    <glyph glyph-name="uni045F" unicode="&#x45f;" horiz-adv-x="544" 
d="M78 0v455h86v-383h217v383h85v-455h-153v-119h-77v119h-158z" />
    <glyph glyph-name="uni2116" unicode="&#x2116;" horiz-adv-x="980" 
d="M678 140v66h242v-66h-242zM800 302c40 0 52 35 52 76s-10 75 -52 75c-40 0 -54 -33 -54 -75c0 -41 14 -76 54 -76zM800 242c-87 0 -121 58 -121 136c0 77 31 136 121 136c95 0 119 -65 119 -136c0 -78 -26 -136 -119 -136zM490 616h89v-616h-75l-311 452v-452h-89v616h75
l311 -458v458z" />
    <glyph glyph-name="uni0401" unicode="&#x401;" horiz-adv-x="509" 
d="M448 616v-76h-267v-183h209v-76h-209v-205h282v-76h-371v616h356zM105 736c0 35 28 63 63 63s63 -28 63 -63s-28 -63 -63 -63s-63 28 -63 63zM289 736c0 35 28 63 63 63c34 0 62 -28 62 -63s-28 -63 -62 -63c-36 0 -63 28 -63 63z" />
    <glyph glyph-name="uni0451" unicode="&#x451;" horiz-adv-x="503" 
d="M100 598c0 33 28 62 63 62c34 0 62 -28 62 -62c0 -35 -28 -63 -62 -63c-35 0 -63 27 -63 63zM284 598c0 33 28 62 63 62c34 0 62 -28 62 -62c0 -35 -28 -63 -62 -63c-35 0 -63 27 -63 63zM452 208h-314c7 -83 51 -151 141 -151c57 0 94 25 123 59l45 -45
c-36 -50 -99 -86 -181 -86c-138 0 -216 106 -216 242c0 133 75 242 206 242c123 0 197 -102 197 -221c0 -15 0 -28 -1 -40zM253 397c-61 0 -99 -53 -111 -120h224c-11 68 -55 120 -113 120z" />
    <glyph glyph-name="uni044F" unicode="&#x44f;" horiz-adv-x="473" 
d="M134 -3l-96 3l121 179c-62 20 -96 67 -96 124c0 90 60 152 193 152h139v-455h-86v157h-69zM309 383h-55c-77 0 -100 -34 -100 -81c0 -41 33 -73 95 -73h60v154z" />
    <glyph glyph-name="uni0430" unicode="&#x430;" horiz-adv-x="464" 
d="M318 0l-11 53c-48 -43 -89 -68 -144 -68c-68 0 -120 36 -120 110c0 103 110 138 261 176v26c0 72 -45 99 -95 99c-42 0 -87 -15 -119 -35l-23 59c42 27 97 49 165 49c86 0 158 -42 158 -165v-304h-72zM187 63c40 0 74 18 117 51v96c-104 -27 -171 -44 -171 -101
c0 -32 25 -46 54 -46z" />
    <glyph glyph-name="uni0431" unicode="&#x431;" horiz-adv-x="543" 
d="M409 651h78c-23 -116 -112 -125 -195 -146c-77 -21 -122 -67 -140 -144c36 44 83 68 142 68c114 0 197 -90 197 -222c0 -136 -89 -223 -212 -223c-138 0 -226 119 -226 289c1 143 58 238 180 287c71 29 139 21 176 91zM294 356c-62 0 -115 -36 -151 -100
c6 -121 61 -199 136 -199c70 0 121 59 121 150c0 88 -45 149 -106 149z" />
    <glyph glyph-name="uni0432" unicode="&#x432;" horiz-adv-x="461" 
d="M78 455h141c120 0 163 -49 163 -115c0 -37 -16 -72 -58 -95c62 -22 89 -61 89 -113c0 -73 -61 -132 -178 -132h-157v455zM322 135c0 40 -38 63 -108 63h-50v-125h64c66 0 94 28 94 62zM164 270h50c55 0 77 29 77 60c0 26 -19 53 -71 53h-56v-113z" />
    <glyph glyph-name="uni0433" unicode="&#x433;" horiz-adv-x="370" 
d="M164 0h-86v455h269v-72h-183v-383z" />
    <glyph glyph-name="uni0434" unicode="&#x434;" horiz-adv-x="545" 
d="M20 73h64c38 108 63 234 68 382h294v-382h53v-213h-77v140h-325v-140h-77v213zM235 383c-10 -111 -29 -216 -59 -310h183v310h-124z" />
    <glyph glyph-name="uni0435" unicode="&#x435;" horiz-adv-x="503" 
d="M452 208h-314c7 -83 51 -151 141 -151c57 0 94 25 123 59l45 -45c-36 -50 -99 -86 -181 -86c-138 0 -216 106 -216 242c0 133 75 242 206 242c123 0 197 -102 197 -221c0 -15 0 -28 -1 -40zM253 397c-61 0 -99 -53 -111 -120h224c-11 68 -55 120 -113 120z" />
    <glyph glyph-name="uni0436" unicode="&#x436;" horiz-adv-x="737" 
d="M123 0h-106l182 236l-160 219h99l134 -189h54v189h85v-189h55l134 189h98l-159 -219l181 -236h-105l-149 194h-55v-194h-85v194h-54z" />
    <glyph glyph-name="uni0437" unicode="&#x437;" horiz-adv-x="418" 
d="M95 365l-39 52c31 28 72 52 140 52c125 0 151 -76 151 -121c0 -36 -19 -82 -73 -108c64 -21 95 -68 96 -109c0 -53 -32 -145 -170 -145c-73 0 -119 22 -169 61l41 57c36 -29 66 -46 121 -46c69 0 87 46 86 71c0 37 -37 73 -117 73h-16v72h16c71 0 95 38 95 69
c0 20 -12 54 -67 54c-41 0 -74 -12 -95 -32z" />
    <glyph glyph-name="uni0438" unicode="&#x438;" horiz-adv-x="544" 
d="M164 0h-86v455h86v-315l217 315h85v-455h-85v315z" />
    <glyph glyph-name="uni0439" unicode="&#x439;" horiz-adv-x="544" 
d="M164 0h-86v455h86v-315l217 315h85v-455h-85v315zM127 686l57 14c7 -44 46 -94 93 -94s84 48 97 96l55 -16c-16 -85 -68 -150 -153 -150c-92 0 -138 73 -149 150z" />
    <glyph glyph-name="uni043B" unicode="&#x43b;" horiz-adv-x="536" 
d="M166 455h292v-455h-86v383h-132l-35 -228c-15 -92 -46 -156 -186 -156v75c84 0 92 31 104 103z" />
    <glyph glyph-name="uni043C" unicode="&#x43c;" horiz-adv-x="665" 
d="M368 0h-74l-129 291l-7 -291h-87l14 455h99l149 -332l149 332h98l14 -455h-87l-7 295z" />
    <glyph glyph-name="uni043D" unicode="&#x43d;" horiz-adv-x="544" 
d="M381 455h85v-455h-85v199h-217v-199h-86v455h86v-184h217v184z" />
    <glyph glyph-name="uni043E" unicode="&#x43e;" horiz-adv-x="529" 
d="M50 227c0 133 74 242 213 242c141 0 217 -109 217 -242c0 -130 -75 -242 -216 -242c-140 0 -214 110 -214 242zM141 227c0 -91 40 -170 123 -170c84 0 125 79 125 170c0 92 -41 170 -125 170c-83 0 -123 -78 -123 -170z" />
    <glyph glyph-name="uni043F" unicode="&#x43f;" horiz-adv-x="544" 
d="M78 455h388v-455h-85v383h-217v-383h-86v455z" />
    <glyph glyph-name="uni0440" unicode="&#x440;" horiz-adv-x="521" 
d="M164 -189h-86v641l62 5l14 -54c38 42 88 67 141 67c112 0 175 -106 175 -233c0 -136 -61 -252 -194 -252c-41 0 -80 15 -112 39v-213zM274 397c-50 0 -81 -22 -110 -59v-243c23 -23 56 -37 97 -37c84 0 119 86 119 182c0 87 -35 157 -106 157z" />
    <glyph glyph-name="uni0441" unicode="&#x441;" horiz-adv-x="466" 
d="M50 228c0 136 82 241 222 241c71 0 122 -21 155 -54l-37 -59c-28 24 -60 41 -109 41c-95 0 -141 -80 -141 -169s44 -171 137 -171c54 0 86 16 111 40l35 -57c-32 -33 -83 -55 -154 -55c-144 0 -219 114 -219 243z" />
    <glyph glyph-name="uni0442" unicode="&#x442;" horiz-adv-x="423" 
d="M398 383h-144v-383h-85v383h-145v72h374v-72z" />
    <glyph glyph-name="uni0443" unicode="&#x443;" horiz-adv-x="482" 
d="M29 455h88l124 -344l127 344h86l-147 -397c-48 -122 -75 -247 -259 -247v71c93 0 119 53 148 118h-2z" />
    <glyph glyph-name="uni0444" unicode="&#x444;" horiz-adv-x="800" 
d="M442 -189h-85v227c-36 -33 -80 -53 -130 -53c-117 0 -176 106 -176 232c0 137 64 252 193 252c40 0 80 -16 113 -41v220l85 14v-248c36 34 80 55 130 55c118 0 177 -105 177 -232c0 -137 -65 -252 -193 -252c-41 0 -81 16 -114 42v-216zM553 397c-49 0 -82 -21 -111 -57
v-242c23 -24 54 -41 97 -41c85 0 119 85 119 181c0 87 -34 159 -105 159zM247 57c48 0 81 20 110 56v243c-24 24 -54 41 -96 41c-85 0 -119 -85 -119 -181c0 -86 34 -159 105 -159z" />
    <glyph glyph-name="uni0445" unicode="&#x445;" horiz-adv-x="466" 
d="M116 0h-91l163 232l-151 223h92l105 -157l110 157h92l-157 -223l158 -232h-92l-113 166z" />
    <glyph glyph-name="uni0446" unicode="&#x446;" horiz-adv-x="566" 
d="M78 0v455h86v-383h217v383h85v-383h54v-212h-77v140h-365z" />
    <glyph glyph-name="uni0447" unicode="&#x447;" horiz-adv-x="498" 
d="M48 455h86v-133c0 -70 36 -94 76 -94c45 0 90 17 124 43v184h86v-455h-86v197c-39 -25 -86 -41 -142 -41c-102 0 -144 67 -144 157v142z" />
    <glyph glyph-name="uni0448" unicode="&#x448;" horiz-adv-x="773" 
d="M78 0v455h86v-383h180v383h85v-383h180v383h86v-455h-617z" />
    <glyph glyph-name="uni0449" unicode="&#x449;" horiz-adv-x="794" 
d="M78 0v455h86v-383h180v383h85v-383h180v383h86v-383h53v-212h-77v140h-593z" />
    <glyph glyph-name="uni044A" unicode="&#x44a;" horiz-adv-x="549" 
d="M24 455h237v-150h49c142 0 203 -65 203 -151c0 -89 -87 -154 -222 -154h-116v383h-151v72zM305 232h-44v-160h47c75 0 115 36 115 79c0 46 -32 81 -118 81z" />
    <glyph glyph-name="uni044B" unicode="&#x44b;" horiz-adv-x="692" 
d="M78 455h86v-150h49c142 0 203 -65 203 -151c0 -89 -87 -154 -222 -154h-116v455zM614 0h-86v455h86v-455zM208 232h-44v-160h47c75 0 114 36 114 79c0 46 -32 81 -117 81z" />
    <glyph glyph-name="uni044C" unicode="&#x44c;" horiz-adv-x="451" 
d="M78 455h86v-150h49c142 0 203 -65 203 -151c0 -89 -87 -154 -222 -154h-116v455zM208 232h-44v-160h47c75 0 114 36 114 79c0 46 -32 81 -117 81z" />
    <glyph glyph-name="uni044D" unicode="&#x44d;" horiz-adv-x="466" 
d="M417 228c0 -131 -77 -243 -220 -243c-67 0 -115 16 -154 55l35 57c25 -24 57 -40 111 -40c81 0 125 62 135 138h-169v72h168c-12 72 -56 130 -137 130c-49 0 -82 -17 -110 -41l-37 59c34 33 84 54 155 54c145 0 223 -111 223 -241z" />
    <glyph glyph-name="uni044E" unicode="&#x44e;" horiz-adv-x="750" 
d="M78 455h86v-184h110c15 112 86 198 210 198c141 0 217 -109 217 -242c0 -130 -75 -242 -216 -242c-130 0 -203 96 -213 214h-108v-199h-86v455zM362 227c0 -91 40 -170 123 -170c84 0 125 79 125 170c0 92 -41 170 -125 170c-83 0 -123 -78 -123 -170z" />
    <glyph glyph-name="f_b" horiz-adv-x="809" 
d="M42 378v55l59 14v23c0 115 38 194 200 194l152 -1v-247c36 33 80 53 130 53c116 0 175 -105 175 -232c0 -137 -64 -252 -193 -252c-45 0 -83 17 -115 43l-20 -28h-63v593h-66c-94 0 -115 -47 -115 -119v-24h96v-72h-96v-378h-85v378h-59zM562 397c-47 0 -80 -20 -109 -56
v-244c23 -24 54 -40 96 -40c85 0 119 85 119 181c0 87 -34 159 -106 159z" />
    <glyph glyph-name="f_j" horiz-adv-x="531" 
d="M42 378v55l59 14v23c0 115 37 194 191 194v-71c-86 0 -106 -47 -106 -119v-24h267v-395c0 -144 -31 -204 -189 -243l-20 70c99 26 123 66 123 170v326h-181v-378h-85v378h-59zM352 604c0 33 26 58 58 58c33 0 60 -25 60 -58s-27 -59 -60 -59c-32 0 -58 25 -58 59z" />
    <glyph glyph-name="f_k" horiz-adv-x="771" 
d="M748 0h-101l-148 218h-46v-218h-86v593h-66c-94 0 -115 -47 -115 -119v-24h96v-72h-96v-378h-85v378h-59v55l59 14v23c0 115 38 194 200 194h152v-372h44l138 163h101l-167 -197z" />
    <glyph glyph-name="zero.dnom" unicode="&#x2080;" horiz-adv-x="343" 
d="M170 50c42 0 57 45 57 107c0 57 -15 107 -57 107c-40 0 -54 -50 -54 -107c0 -61 14 -107 54 -107zM170 -8c-100 0 -131 71 -131 165c0 91 30 165 131 165c102 0 135 -74 135 -165c0 -95 -33 -165 -135 -165z" />
    <glyph glyph-name="one.dnom" unicode="&#x2081;" horiz-adv-x="275" 
d="M64 203l-36 45l83 66l1 -1v1h75v-257h58v-57h-188v57h55v183z" />
    <glyph glyph-name="two.dnom" unicode="&#x2082;" horiz-adv-x="311" 
d="M67 236l-32 43c28 26 61 43 113 43c94 0 123 -55 122 -88c-1 -92 -113 -105 -141 -177h142v-57h-231v17c0 128 147 155 147 212c0 13 -6 35 -47 35c-23 0 -50 -9 -73 -28z" />
    <glyph glyph-name="three.dnom" unicode="&#x2083;" horiz-adv-x="307" 
d="M73 249l-31 41c21 18 47 32 97 32c97 0 116 -52 116 -84c0 -24 -13 -53 -40 -74c34 -20 55 -48 55 -76c1 -35 -22 -96 -127 -96c-51 0 -82 13 -114 36l31 45c23 -15 42 -23 81 -23c43 0 52 25 52 42c0 21 -25 42 -79 42h-8v57h8h6c43 2 57 24 57 40c0 13 -7 34 -45 34
c-27 0 -47 -7 -59 -16z" />
    <glyph glyph-name="four.dnom" unicode="&#x2084;" horiz-adv-x="326" 
d="M177 314h76v-197h38v-57h-38v-60h-76v60h-146v57zM106 117h71v94z" />
    <glyph glyph-name="five.dnom" unicode="&#x2085;" horiz-adv-x="310" 
d="M88 134h-43l22 180h189v-57h-126l-7 -56c13 5 27 9 44 9c67 0 107 -48 107 -105c0 -73 -50 -113 -120 -113c-47 0 -89 11 -121 43l38 47c20 -20 42 -28 68 -28c30 0 54 18 54 52c0 26 -20 47 -48 47c-18 0 -32 -2 -57 -19z" />
    <glyph glyph-name="six.dnom" unicode="&#x2086;" horiz-adv-x="326" 
d="M280 303l-24 -49c-15 5 -37 10 -61 10c-31 0 -61 -24 -73 -71c16 8 34 13 53 13c66 0 116 -31 116 -101c0 -69 -52 -113 -121 -113c-79 0 -133 64 -133 148c0 118 75 182 158 182c36 0 67 -10 85 -19zM175 149c-20 0 -41 -7 -59 -17c2 -47 24 -82 53 -82
c25 0 44 18 44 51c0 34 -18 48 -38 48z" />
    <glyph glyph-name="seven.dnom" unicode="&#x2087;" horiz-adv-x="285" 
d="M136 0h-95l127 257h-132v57h227v-15z" />
    <glyph glyph-name="eight.dnom" unicode="&#x2088;" horiz-adv-x="314" 
d="M157 -8c-65 0 -120 28 -120 77c0 41 27 72 59 93c-34 27 -44 51 -44 78c0 53 49 82 108 82c57 0 104 -29 104 -80c0 -41 -25 -67 -51 -87c42 -32 64 -54 64 -89c0 -43 -51 -74 -120 -74zM201 76c0 15 -17 28 -46 46c-24 -10 -41 -28 -41 -45c0 -18 21 -27 43 -27
c20 0 44 9 44 26zM129 237c0 -13 7 -23 28 -40c15 9 32 22 32 42c0 16 -10 25 -29 25c-18 0 -31 -11 -31 -27z" />
    <glyph glyph-name="nine.dnom" unicode="&#x2089;" horiz-adv-x="326" 
d="M46 11l25 48c15 -5 37 -9 61 -9c30 0 60 23 73 71c-17 -8 -35 -13 -54 -13c-65 0 -116 31 -116 101c0 69 52 113 122 113c79 0 132 -63 132 -148c0 -118 -74 -182 -157 -182c-36 0 -67 10 -86 19zM151 166c21 0 42 6 60 16c-3 47 -24 82 -53 82c-26 0 -44 -18 -44 -51
c0 -34 18 -47 37 -47z" />
    <glyph glyph-name="caron.salt" horiz-adv-x="329" 
d="M144 657l-109 117l24 28l102 -103l94 103l24 -27l-105 -118h-30z" />
    <glyph glyph-name="oe.smcp" horiz-adv-x="788" 
d="M741 69v-69h-312v25c-34 -24 -75 -37 -125 -37c-161 0 -252 108 -252 260c0 139 90 247 247 247c52 0 95 -14 130 -39v27h300v-69h-214v-130h169v-69h-169v-146h226zM304 57c60 0 102 30 125 81v204c-23 52 -68 84 -130 84c-100 0 -156 -77 -156 -178
c0 -109 59 -191 161 -191z" />
    <glyph glyph-name="uni0410" unicode="&#x410;" horiz-adv-x="595" 
d="M30 0l219 616h93l226 -616h-88l-62 169h-240l-60 -169h-88zM296 498l-91 -253h185z" />
    <glyph glyph-name="uni0411" unicode="&#x411;" horiz-adv-x="514" 
d="M92 616h295v-76h-206v-174h67c159 0 226 -76 226 -180c0 -107 -76 -186 -220 -186h-162v616zM241 290h-60v-214h76c80 0 120 46 120 106c0 62 -36 108 -136 108z" />
    <glyph glyph-name="Amacron" unicode="&#x100;" horiz-adv-x="595" 
d="M30 0l219 616h93l226 -616h-88l-62 169h-240l-60 -169h-88zM296 498l-91 -253h185zM185 692v72h223v-72h-223z" />
    <glyph glyph-name="amacron" unicode="&#x101;" horiz-adv-x="464" 
d="M318 0l-11 53c-48 -43 -89 -68 -144 -68c-68 0 -120 36 -120 110c0 103 110 138 261 176v26c0 72 -45 99 -95 99c-42 0 -87 -15 -119 -35l-23 59c42 27 97 49 165 49c86 0 158 -42 158 -165v-304h-72zM187 63c40 0 74 18 117 51v96c-104 -27 -171 -44 -171 -101
c0 -32 25 -46 54 -46zM120 554v72h223v-72h-223z" />
    <glyph glyph-name="Abreve" unicode="&#x102;" horiz-adv-x="595" 
d="M30 0l219 616h93l226 -616h-88l-62 169h-240l-60 -169h-88zM296 498l-91 -253h185zM145 815l59 15c7 -42 44 -89 91 -89c48 0 86 44 99 90l54 -17c-16 -81 -68 -144 -153 -144c-90 0 -136 60 -150 145z" />
    <glyph glyph-name="abreve" unicode="&#x103;" horiz-adv-x="464" 
d="M318 0l-11 53c-48 -43 -89 -68 -144 -68c-68 0 -120 36 -120 110c0 103 110 138 261 176v26c0 72 -45 99 -95 99c-42 0 -87 -15 -119 -35l-23 59c42 27 97 49 165 49c86 0 158 -42 158 -165v-304h-72zM187 63c40 0 74 18 117 51v96c-104 -27 -171 -44 -171 -101
c0 -32 25 -46 54 -46zM87 686l57 14c7 -44 46 -94 93 -94s84 48 97 96l55 -16c-16 -85 -68 -150 -153 -150c-92 0 -138 73 -149 150z" />
    <glyph glyph-name="Aogonek" unicode="&#x104;" horiz-adv-x="595" 
d="M549 -118l22 -44c-32 -22 -57 -28 -85 -28c-64 0 -100 41 -100 101c0 46 28 79 82 107l-55 151h-230l-60 -169h-93l219 616h93l226 -616h-4c-77 -28 -115 -58 -115 -90c0 -26 18 -43 42 -43c17 0 35 2 58 15zM296 487l-86 -242h175z" />
    <glyph glyph-name="aogonek" unicode="&#x105;" horiz-adv-x="464" 
d="M374 -118l22 -44c-32 -22 -57 -28 -85 -28c-64 0 -100 41 -100 101c0 51 34 87 101 117l-5 25c-48 -43 -89 -68 -144 -68c-68 0 -120 36 -120 110c0 103 110 138 261 176v26c0 72 -45 99 -95 99c-42 0 -87 -15 -119 -35l-23 59c42 27 97 49 165 49c86 0 158 -42 158 -165
v-304h-1c-77 -28 -115 -58 -115 -90c0 -26 18 -43 42 -43c17 0 35 2 58 15zM187 63c40 0 74 18 117 51v96c-104 -27 -171 -44 -171 -101c0 -32 25 -46 54 -46z" />
    <glyph glyph-name="Cacute" unicode="&#x106;" horiz-adv-x="601" 
d="M561 566l-37 -63c-38 30 -88 52 -166 52c-133 0 -205 -113 -205 -249c0 -137 70 -245 201 -245c78 0 129 19 166 53l37 -63c-46 -41 -115 -66 -207 -66c-199 0 -294 145 -294 321c0 179 105 325 298 325c92 0 161 -25 207 -65zM281 669l-33 66l188 97l35 -73z" />
    <glyph glyph-name="cacute" unicode="&#x107;" horiz-adv-x="464" 
d="M209 516l-44 58l163 137l46 -63zM50 228c0 136 82 241 222 241c71 0 122 -21 155 -54l-37 -59c-28 24 -60 41 -109 41c-95 0 -141 -80 -141 -169s44 -171 137 -171c54 0 86 16 111 40l35 -57c-32 -33 -83 -55 -154 -55c-144 0 -219 114 -219 243z" />
    <glyph glyph-name="Ccircumflex" unicode="&#x108;" horiz-adv-x="601" 
d="M561 566l-37 -63c-38 30 -88 52 -166 52c-133 0 -205 -113 -205 -249c0 -137 70 -245 201 -245c78 0 129 19 166 53l37 -63c-46 -41 -115 -66 -207 -66c-199 0 -294 145 -294 321c0 179 105 325 298 325c92 0 161 -25 207 -65zM375 824l117 -116l-44 -50l-90 91l-85 -91
l-44 50l115 116h31z" />
    <glyph glyph-name="ccircumflex" unicode="&#x109;" horiz-adv-x="464" 
d="M127 562l119 135h31l118 -136l-46 -44l-87 97l-89 -97zM50 228c0 136 82 241 222 241c71 0 122 -21 155 -54l-37 -59c-28 24 -60 41 -109 41c-95 0 -141 -80 -141 -169s44 -171 137 -171c54 0 86 16 111 40l35 -57c-32 -33 -83 -55 -154 -55c-144 0 -219 114 -219 243z
" />
    <glyph glyph-name="Cdotaccent" unicode="&#x10a;" horiz-adv-x="601" 
d="M282 742c0 35 28 63 63 63s63 -28 63 -63s-28 -63 -63 -63s-63 28 -63 63zM561 566l-37 -63c-38 30 -88 52 -166 52c-133 0 -205 -113 -205 -249c0 -137 70 -245 201 -245c78 0 129 19 166 53l37 -63c-46 -41 -115 -66 -207 -66c-199 0 -294 145 -294 321
c0 179 105 325 298 325c92 0 161 -25 207 -65z" />
    <glyph glyph-name="cdotaccent" unicode="&#x10b;" horiz-adv-x="464" 
d="M50 228c0 136 82 241 222 241c71 0 122 -21 155 -54l-37 -59c-28 24 -60 41 -109 41c-95 0 -141 -80 -141 -169s44 -171 137 -171c54 0 86 16 111 40l35 -57c-32 -33 -83 -55 -154 -55c-144 0 -219 114 -219 243zM193 611c0 34 28 62 62 62c35 0 63 -28 63 -62
c0 -35 -28 -63 -63 -63c-34 0 -62 28 -62 63z" />
    <glyph glyph-name="Ccaron" unicode="&#x10c;" horiz-adv-x="601" 
d="M561 566l-37 -63c-38 30 -88 52 -166 52c-133 0 -205 -113 -205 -249c0 -137 70 -245 201 -245c78 0 129 19 166 53l37 -63c-46 -41 -115 -66 -207 -66c-199 0 -294 145 -294 321c0 179 105 325 298 325c92 0 161 -25 207 -65zM339 657l-125 116l44 50l97 -90l94 90
l43 -49l-122 -117h-31z" />
    <glyph glyph-name="ccaron" unicode="&#x10d;" horiz-adv-x="464" 
d="M240 516l-119 135l46 46l90 -105l86 104l46 -44l-119 -136h-30zM50 228c0 136 82 241 222 241c71 0 122 -21 155 -54l-37 -59c-28 24 -60 41 -109 41c-95 0 -141 -80 -141 -169s44 -171 137 -171c54 0 86 16 111 40l35 -57c-32 -33 -83 -55 -154 -55
c-144 0 -219 114 -219 243z" />
    <glyph glyph-name="Dcaron" unicode="&#x10e;" horiz-adv-x="641" 
d="M181 540v-464h77c125 0 230 67 230 224c0 168 -105 240 -230 240h-77zM92 0v616h171c183 0 322 -101 322 -316c0 -206 -139 -300 -322 -300h-171zM276 657l-125 116l44 50l97 -90l94 90l43 -49l-122 -117h-31z" />
    <glyph glyph-name="dcaron" unicode="&#x10f;" horiz-adv-x="598" 
d="M531 388l-29 32c36 28 52 51 59 85h-4c-34 0 -62 28 -62 63s28 63 62 63c39 0 63 -36 63 -86c0 -59 -34 -117 -89 -157zM357 652l86 10v-662h-61l-12 56c-39 -45 -89 -71 -143 -71c-113 0 -176 106 -176 233c0 137 61 251 194 251c41 0 79 -15 112 -39v222zM247 57
c49 0 80 22 110 59v244c-24 22 -56 37 -96 37c-85 0 -119 -85 -119 -181c0 -87 34 -159 105 -159z" />
    <glyph glyph-name="Dcroat" unicode="&#x110;" horiz-adv-x="647" 
d="M35 277v75h63v264h171c183 0 322 -101 322 -316c0 -206 -139 -300 -322 -300h-171v277h-63zM187 540v-188h151v-75h-151v-201h77c125 0 230 67 230 224c0 168 -105 240 -230 240h-77z" />
    <glyph glyph-name="dcroat" unicode="&#x111;" horiz-adv-x="521" 
d="M221 518v55h263v-55h-263zM357 652l86 10v-662h-61l-12 56c-39 -45 -89 -71 -143 -71c-113 0 -176 106 -176 233c0 137 61 251 194 251c41 0 79 -15 112 -39v222zM247 57c49 0 80 22 110 59v244c-24 22 -56 37 -96 37c-85 0 -119 -85 -119 -181c0 -87 34 -159 105 -159z
" />
    <glyph glyph-name="Emacron" unicode="&#x112;" horiz-adv-x="509" 
d="M448 616v-76h-267v-183h209v-76h-209v-205h282v-76h-371v616h356zM161 692v72h223v-72h-223z" />
    <glyph glyph-name="emacron" unicode="&#x113;" horiz-adv-x="503" 
d="M452 208h-314c7 -83 51 -151 141 -151c57 0 94 25 123 59l45 -45c-36 -50 -99 -86 -181 -86c-138 0 -216 106 -216 242c0 133 75 242 206 242c123 0 197 -102 197 -221c0 -15 0 -28 -1 -40zM253 397c-61 0 -99 -53 -111 -120h224c-11 68 -55 120 -113 120zM143 554v72
h223v-72h-223z" />
    <glyph glyph-name="Ebreve" unicode="&#x114;" horiz-adv-x="509" 
d="M448 616v-76h-267v-183h209v-76h-209v-205h282v-76h-371v616h356zM110 815l59 15c7 -42 44 -89 91 -89c48 0 86 44 99 90l54 -17c-16 -81 -68 -144 -153 -144c-90 0 -136 60 -150 145z" />
    <glyph glyph-name="ebreve" unicode="&#x115;" horiz-adv-x="503" 
d="M452 208h-314c7 -83 51 -151 141 -151c57 0 94 25 123 59l45 -45c-36 -50 -99 -86 -181 -86c-138 0 -216 106 -216 242c0 133 75 242 206 242c123 0 197 -102 197 -221c0 -15 0 -28 -1 -40zM253 397c-61 0 -99 -53 -111 -120h224c-11 68 -55 120 -113 120zM103 686l57 14
c7 -44 46 -94 93 -94s84 48 97 96l55 -16c-16 -85 -68 -150 -153 -150c-92 0 -138 73 -149 150z" />
    <glyph glyph-name="Edotaccent" unicode="&#x116;" horiz-adv-x="509" 
d="M195 742c0 35 28 63 63 63s63 -28 63 -63s-28 -63 -63 -63s-63 28 -63 63zM448 616v-76h-267v-183h209v-76h-209v-205h282v-76h-371v616h356z" />
    <glyph glyph-name="edotaccent" unicode="&#x117;" horiz-adv-x="503" 
d="M452 208h-314c7 -83 51 -151 141 -151c57 0 94 25 123 59l45 -45c-36 -50 -99 -86 -181 -86c-138 0 -216 106 -216 242c0 133 75 242 206 242c123 0 197 -102 197 -221c0 -15 0 -28 -1 -40zM253 397c-61 0 -99 -53 -111 -120h224c-11 68 -55 120 -113 120zM196 611
c0 34 28 62 62 62c35 0 63 -28 63 -62c0 -35 -28 -63 -63 -63c-34 0 -62 28 -62 63z" />
    <glyph glyph-name="Eogonek" unicode="&#x118;" horiz-adv-x="509" 
d="M448 616v-76h-267v-183h209v-76h-209v-205h282v-76h-30c-75 -27 -112 -57 -112 -89c0 -26 18 -43 42 -43c17 0 35 2 58 15l22 -44c-32 -22 -57 -28 -85 -28c-64 0 -100 41 -100 101c0 36 17 64 50 88h-216v616h356z" />
    <glyph glyph-name="eogonek" unicode="&#x119;" horiz-adv-x="503" 
d="M452 208h-314c7 -83 51 -151 141 -151c57 0 94 25 123 59l45 -45c-19 -27 -46 -49 -80 -65l1 -1c-77 -28 -115 -58 -115 -90c0 -26 18 -43 42 -43c17 0 35 2 58 15l22 -44c-32 -22 -57 -28 -85 -28c-64 0 -100 41 -100 101c0 29 11 52 32 73c-110 20 -172 117 -172 238
c0 133 75 242 206 242c123 0 197 -102 197 -221c0 -15 0 -28 -1 -40zM253 397c-61 0 -99 -53 -111 -120h224c-11 68 -55 120 -113 120z" />
    <glyph glyph-name="Ecaron" unicode="&#x11a;" horiz-adv-x="509" 
d="M448 616v-76h-267v-183h209v-76h-209v-205h282v-76h-371v616h356zM248 657l-125 116l44 50l97 -90l94 90l43 -49l-122 -117h-31z" />
    <glyph glyph-name="ecaron" unicode="&#x11b;" horiz-adv-x="503" 
d="M236 516l-119 135l46 46l90 -105l86 104l46 -44l-119 -136h-30zM452 208h-314c7 -83 51 -151 141 -151c57 0 94 25 123 59l45 -45c-36 -50 -99 -86 -181 -86c-138 0 -216 106 -216 242c0 133 75 242 206 242c123 0 197 -102 197 -221c0 -15 0 -28 -1 -40zM253 397
c-61 0 -99 -53 -111 -120h224c-11 68 -55 120 -113 120z" />
    <glyph glyph-name="Gcircumflex" unicode="&#x11c;" horiz-adv-x="631" 
d="M383 824l117 -116l-44 -50l-90 91l-85 -91l-44 50l115 116h31zM474 301h90v-251c-45 -40 -112 -65 -201 -65c-193 0 -308 134 -308 321c0 179 109 325 306 325c91 0 158 -25 204 -65l-38 -63c-38 30 -88 52 -166 52c-135 0 -209 -113 -209 -249c0 -137 76 -245 218 -245
c42 0 76 7 104 20v220z" />
    <glyph glyph-name="gcircumflex" unicode="&#x11d;" horiz-adv-x="497" 
d="M93 562l119 135h31l118 -136l-46 -44l-87 97l-89 -97zM58 314c0 98 79 155 178 155c57 0 107 -18 140 -51l92 61v-80l-63 -23c8 -18 13 -39 13 -62c0 -97 -80 -154 -182 -154c-17 0 -34 1 -49 5c-17 -15 -28 -31 -28 -49c0 -23 7 -42 48 -42h142c64 0 109 -36 109 -100
c0 -94 -107 -163 -233 -163c-101 0 -192 25 -192 104c0 47 35 81 73 105c-28 16 -37 41 -37 64c0 44 27 70 62 102c-44 26 -73 69 -73 128zM143 314c0 -62 45 -93 95 -93c57 0 95 36 95 93s-38 96 -95 96s-95 -39 -95 -96zM181 5h-18c-25 -16 -48 -40 -48 -68
c0 -39 34 -56 102 -56c80 0 150 30 150 76c0 28 -15 48 -54 48h-132z" />
    <glyph glyph-name="Gbreve" unicode="&#x11e;" horiz-adv-x="631" 
d="M474 301h90v-251c-45 -40 -112 -65 -201 -65c-193 0 -308 134 -308 321c0 179 109 325 306 325c91 0 158 -25 204 -65l-38 -63c-38 30 -88 52 -166 52c-135 0 -209 -113 -209 -249c0 -137 76 -245 218 -245c42 0 76 7 104 20v220zM205 815l59 15c7 -42 44 -89 91 -89
c48 0 86 44 99 90l54 -17c-16 -81 -68 -144 -153 -144c-90 0 -136 60 -150 145z" />
    <glyph glyph-name="gbreve" unicode="&#x11f;" horiz-adv-x="497" 
d="M58 314c0 98 79 155 178 155c57 0 107 -18 140 -51l92 61v-80l-63 -23c8 -18 13 -39 13 -62c0 -97 -80 -154 -182 -154c-17 0 -34 1 -49 5c-17 -15 -28 -31 -28 -49c0 -23 7 -42 48 -42h142c64 0 109 -36 109 -100c0 -94 -107 -163 -233 -163c-101 0 -192 25 -192 104
c0 47 35 81 73 105c-28 16 -37 41 -37 64c0 44 27 70 62 102c-44 26 -73 69 -73 128zM143 314c0 -62 45 -93 95 -93c57 0 95 36 95 93s-38 96 -95 96s-95 -39 -95 -96zM181 5h-18c-25 -16 -48 -40 -48 -68c0 -39 34 -56 102 -56c80 0 150 30 150 76c0 28 -15 48 -54 48h-132
zM72 686l57 14c7 -44 46 -94 93 -94s84 48 97 96l55 -16c-16 -85 -68 -150 -153 -150c-92 0 -138 73 -149 150z" />
    <glyph glyph-name="Gdotaccent" unicode="&#x120;" horiz-adv-x="631" 
d="M292 742c0 35 28 63 63 63s63 -28 63 -63s-28 -63 -63 -63s-63 28 -63 63zM474 301h90v-251c-45 -40 -112 -65 -201 -65c-193 0 -308 134 -308 321c0 179 109 325 306 325c91 0 158 -25 204 -65l-38 -63c-38 30 -88 52 -166 52c-135 0 -209 -113 -209 -249
c0 -137 76 -245 218 -245c42 0 76 7 104 20v220z" />
    <glyph glyph-name="gdotaccent" unicode="&#x121;" horiz-adv-x="497" 
d="M58 314c0 98 79 155 178 155c57 0 107 -18 140 -51l92 61v-80l-63 -23c8 -18 13 -39 13 -62c0 -97 -80 -154 -182 -154c-17 0 -34 1 -49 5c-17 -15 -28 -31 -28 -49c0 -23 7 -42 48 -42h142c64 0 109 -36 109 -100c0 -94 -107 -163 -233 -163c-101 0 -192 25 -192 104
c0 47 35 81 73 105c-28 16 -37 41 -37 64c0 44 27 70 62 102c-44 26 -73 69 -73 128zM143 314c0 -62 45 -93 95 -93c57 0 95 36 95 93s-38 96 -95 96s-95 -39 -95 -96zM181 5h-18c-25 -16 -48 -40 -48 -68c0 -39 34 -56 102 -56c80 0 150 30 150 76c0 28 -15 48 -54 48h-132
zM161 611c0 34 28 62 62 62c35 0 63 -28 63 -62c0 -35 -28 -63 -63 -63c-34 0 -62 28 -62 63z" />
    <glyph glyph-name="uni0122" unicode="&#x122;" horiz-adv-x="631" 
d="M338 -312l-29 32c36 29 52 51 60 85h-4c-35 0 -63 28 -63 63s28 63 63 63c39 0 63 -36 63 -86c-1 -59 -34 -117 -90 -157zM474 301h90v-251c-45 -40 -112 -65 -201 -65c-193 0 -308 134 -308 321c0 179 109 325 306 325c91 0 158 -25 204 -65l-38 -63
c-38 30 -88 52 -166 52c-135 0 -209 -113 -209 -249c0 -137 76 -245 218 -245c42 0 76 7 104 20v220z" />
    <glyph glyph-name="uni0123" unicode="&#x123;" horiz-adv-x="497" 
d="M254 763l29 -32c-36 -29 -52 -51 -60 -85h4c35 0 63 -28 63 -63s-28 -63 -63 -63c-39 0 -63 36 -63 86c1 59 34 117 90 157zM58 314c0 98 79 155 178 155c57 0 107 -18 140 -51l92 61v-80l-63 -23c8 -18 13 -39 13 -62c0 -97 -80 -154 -182 -154c-17 0 -34 1 -49 5
c-17 -15 -28 -31 -28 -49c0 -23 7 -42 48 -42h142c64 0 109 -36 109 -100c0 -94 -107 -163 -233 -163c-101 0 -192 25 -192 104c0 47 35 81 73 105c-28 16 -37 41 -37 64c0 44 27 70 62 102c-44 26 -73 69 -73 128zM143 314c0 -62 45 -93 95 -93c57 0 95 36 95 93
s-38 96 -95 96s-95 -39 -95 -96zM181 5h-18c-25 -16 -48 -40 -48 -68c0 -39 34 -56 102 -56c80 0 150 30 150 76c0 28 -15 48 -54 48h-132z" />
    <glyph glyph-name="Hcircumflex" unicode="&#x124;" horiz-adv-x="651" 
d="M470 616h89v-616h-89v285h-289v-285h-89v616h89v-255h289v255zM339 824l117 -116l-44 -50l-90 91l-85 -91l-44 50l115 116h31z" />
    <glyph glyph-name="hcircumflex" unicode="&#x125;" 
d="M443 0h-86v320c0 55 -31 77 -69 77c-44 0 -90 -25 -124 -63v-334h-86v648l86 14v-250c39 35 86 57 143 57c72 0 136 -34 136 -139v-330zM277 842l117 -116l-44 -50l-90 91l-85 -91l-44 50l115 116h31z" />
    <glyph glyph-name="Hbar" unicode="&#x126;" horiz-adv-x="662" 
d="M475 616h89v-101h64v-56h-64v-459h-89v285h-289v-285h-89v459h-65v56h65v101h89v-101h289v101zM186 361h289v98h-289v-98z" />
    <glyph glyph-name="Itilde" unicode="&#x128;" horiz-adv-x="272" 
d="M92 616h89v-616h-89v616zM185 679c-53 0 -74 48 -111 48c-17 0 -39 -10 -58 -47l-44 45c37 63 68 83 108 83c41 0 66 -49 103 -49c22 0 47 16 65 53l45 -44c-30 -61 -63 -89 -108 -89z" />
    <glyph glyph-name="itilde" unicode="&#x129;" horiz-adv-x="243" 
d="M165 0h-87v445l87 14v-459zM170 535c-51 0 -71 44 -106 44c-15 0 -35 -10 -52 -47l-44 45c32 60 61 80 96 80c42 0 66 -46 104 -46c17 0 39 15 53 53l44 -44c-26 -58 -56 -85 -95 -85z" />
    <glyph glyph-name="Imacron" unicode="&#x12a;" horiz-adv-x="272" 
d="M92 616h89v-616h-89v616zM25 714v72h223v-72h-223z" />
    <glyph glyph-name="imacron" unicode="&#x12b;" horiz-adv-x="243" 
d="M165 0h-87v445l87 14v-459zM12 554v72h223v-72h-223z" />
    <glyph glyph-name="Iogonek" unicode="&#x12e;" horiz-adv-x="274" 
d="M166 -117l22 -44c-32 -22 -57 -28 -85 -28c-64 0 -100 41 -100 101c0 48 31 83 91 112v592h89v-616h-5c-75 -27 -112 -57 -112 -89c0 -26 18 -43 42 -43c17 0 35 2 58 15z" />
    <glyph glyph-name="iogonek" unicode="&#x12f;" horiz-adv-x="245" 
d="M151 -117l22 -44c-32 -22 -57 -28 -85 -28c-64 0 -100 41 -100 101c0 49 32 84 93 113v423l86 14v-462h-4c-75 -27 -112 -57 -112 -89c0 -26 18 -43 42 -43c17 0 35 2 58 15zM66 604c0 33 26 58 58 58c33 0 60 -25 60 -58s-27 -59 -60 -59c-32 0 -58 25 -58 59z" />
    <glyph glyph-name="Idotaccent" unicode="&#x130;" horiz-adv-x="272" 
d="M92 616h89v-616h-89v616zM69 742c0 35 28 63 63 63s63 -28 63 -63s-28 -63 -63 -63s-63 28 -63 63z" />
    <glyph glyph-name="hbar" unicode="&#x127;" 
d="M30 518v55h48v75l86 14v-89h130v-55h-130v-106c39 35 86 57 143 57c72 0 136 -34 136 -139v-330h-86v320c0 55 -31 77 -69 77c-44 0 -90 -25 -124 -63v-334h-86v518h-48z" />
    <glyph glyph-name="IJ" unicode="&#x132;" horiz-adv-x="545" 
d="M92 616h89v-616h-89v616zM364 616h89v-561c0 -144 -34 -204 -193 -243l-20 72c100 26 124 64 124 168v564z" />
    <glyph glyph-name="ij" unicode="&#x133;" horiz-adv-x="483" 
d="M164 0h-86v448l86 14v-462zM63 604c0 33 26 58 58 58c33 0 60 -25 60 -58s-27 -59 -60 -59c-32 0 -58 25 -58 59zM319 448l86 14v-407c0 -144 -31 -204 -189 -243l-20 70c100 26 123 66 123 170v396zM304 604c0 33 26 58 58 58c33 0 60 -25 60 -58s-27 -59 -60 -59
c-32 0 -58 25 -58 59z" />
    <glyph glyph-name="Jcircumflex" unicode="&#x134;" horiz-adv-x="272" 
d="M92 616h89v-561c0 -144 -34 -204 -193 -243l-20 72c100 26 124 64 124 168v564zM152 824l117 -116l-44 -50l-90 91l-85 -91l-44 50l115 116h31z" />
    <glyph glyph-name="jcircumflex" unicode="&#x135;" horiz-adv-x="243" 
d="M78 445l87 14v-404c0 -144 -32 -204 -190 -243l-20 70c100 26 123 66 123 170v393zM-12 562l119 135h31l118 -136l-46 -44l-87 97l-89 -97z" />
    <glyph glyph-name="uni0136" unicode="&#x136;" horiz-adv-x="559" 
d="M536 0h-105l-186 274h-65v-274h-88v616h88v-268h59l185 268h101l-206 -301zM259 -312l-29 32c36 29 52 51 59 85h-4c-34 0 -62 28 -62 63s28 63 62 63c39 0 63 -36 63 -86c0 -59 -34 -117 -89 -157z" />
    <glyph glyph-name="uni0137" unicode="&#x137;" horiz-adv-x="484" 
d="M460 0h-101l-136 219h-59v-219h-86v648l86 14v-370h59l123 163h102l-150 -196h1zM215 -312l-29 32c36 29 52 51 60 85h-4c-35 0 -63 28 -63 63s28 63 63 63c39 0 63 -36 63 -86c-1 -59 -34 -117 -90 -157z" />
    <glyph glyph-name="kgreenlandic" unicode="&#x138;" horiz-adv-x="483" 
d="M460 0h-101l-148 218h-46v-218h-87v458l87 6v-172h44l137 163h102l-167 -197z" />
    <glyph glyph-name="Lacute" unicode="&#x139;" horiz-adv-x="479" 
d="M71 672l-33 66l188 97l35 -73zM449 76v-76h-357v616h89v-540h268z" />
    <glyph glyph-name="lacute" unicode="&#x13a;" horiz-adv-x="245" 
d="M56 669l-33 66l188 97l35 -73zM80 648l86 14v-662h-86v648z" />
    <glyph glyph-name="uni013B" unicode="&#x13b;" horiz-adv-x="479" 
d="M240 -312l-29 32c36 29 52 51 60 85h-4c-35 0 -63 28 -63 63s28 63 63 63c39 0 63 -36 63 -86c-1 -59 -34 -117 -90 -157zM449 76v-76h-357v616h89v-540h268z" />
    <glyph glyph-name="uni013C" unicode="&#x13c;" horiz-adv-x="245" 
d="M100 -312l-29 32c36 29 52 51 60 85h-4c-35 0 -63 28 -63 63s28 63 63 63c39 0 63 -36 63 -86c-1 -59 -34 -117 -90 -157zM80 648l86 14v-662h-86v648z" />
    <glyph glyph-name="Lcaron" unicode="&#x13d;" horiz-adv-x="479" 
d="M449 76v-76h-357v616h89v-540h268zM125 657l-125 116l44 50l97 -90l94 90l43 -49l-122 -117h-31z" />
    <glyph glyph-name="lcaron" unicode="&#x13e;" horiz-adv-x="320" 
d="M254 388l-29 32c36 28 52 51 59 85h-4c-34 0 -62 28 -62 63s28 63 62 63c39 0 63 -36 63 -86c0 -59 -34 -117 -89 -157zM80 648l86 14v-662h-86v648z" />
    <glyph glyph-name="Ldot" unicode="&#x13f;" horiz-adv-x="499" 
d="M449 76v-76h-357v616h89v-540h268zM306 332c0 36 29 63 63 63c35 0 63 -28 63 -63c0 -34 -28 -62 -63 -62s-63 27 -63 62z" />
    <glyph glyph-name="ldot" unicode="&#x140;" horiz-adv-x="342" 
d="M80 648l86 14v-662h-86v648zM230 284c0 36 29 63 63 63c35 0 63 -28 63 -63c0 -34 -28 -62 -63 -62s-63 27 -63 62z" />
    <glyph glyph-name="Nacute" unicode="&#x143;" horiz-adv-x="658" 
d="M285 669l-33 66l188 97l35 -73zM478 616h89v-616h-75l-311 452v-452h-89v616h75l311 -458v458z" />
    <glyph glyph-name="nacute" unicode="&#x144;" horiz-adv-x="516" 
d="M217 516l-44 58l163 137l46 -63zM163 0h-86v450l63 11l13 -58c42 40 92 66 153 66c73 0 136 -34 136 -139v-330h-86v320c0 55 -31 77 -68 77c-45 0 -91 -25 -125 -63v-334z" />
    <glyph glyph-name="uni0145" unicode="&#x145;" horiz-adv-x="658" 
d="M302 -312l-29 32c36 29 52 51 60 85h-4c-35 0 -63 28 -63 63s28 63 63 63c39 0 63 -36 63 -86c-1 -59 -34 -117 -90 -157zM478 616h89v-616h-75l-311 452v-452h-89v616h75l311 -458v458z" />
    <glyph glyph-name="uni0146" unicode="&#x146;" horiz-adv-x="516" 
d="M230 -312l-29 32c36 29 52 51 60 85h-4c-35 0 -63 28 -63 63s28 63 63 63c39 0 63 -36 63 -86c-1 -59 -34 -117 -90 -157zM163 0h-86v450l63 11l13 -58c42 40 92 66 153 66c73 0 136 -34 136 -139v-330h-86v320c0 55 -31 77 -68 77c-45 0 -91 -25 -125 -63v-334z" />
    <glyph glyph-name="Ncaron" unicode="&#x147;" horiz-adv-x="658" 
d="M478 616h89v-616h-75l-311 452v-452h-89v616h75l311 -458v458zM319 657l-125 116l44 50l97 -90l94 90l43 -49l-122 -117h-31z" />
    <glyph glyph-name="ncaron" unicode="&#x148;" horiz-adv-x="516" 
d="M251 516l-119 135l46 46l90 -105l86 104l46 -44l-119 -136h-30zM163 0h-86v450l63 11l13 -58c42 40 92 66 153 66c73 0 136 -34 136 -139v-330h-86v320c0 55 -31 77 -68 77c-45 0 -91 -25 -125 -63v-334z" />
    <glyph glyph-name="napostrophe" unicode="&#x149;" horiz-adv-x="606" 
d="M58 388l-29 32c36 28 52 51 59 85h-4c-34 0 -62 28 -62 63s28 63 62 63c39 0 63 -36 63 -86c0 -59 -34 -117 -89 -157zM253 0h-86v450l63 11l13 -58c42 40 92 66 153 66c73 0 136 -34 136 -139v-330h-86v320c0 55 -31 77 -68 77c-45 0 -91 -25 -125 -63v-334z" />
    <glyph glyph-name="Omacron" unicode="&#x14c;" horiz-adv-x="683" 
d="M353 61c110 0 178 110 178 244c0 143 -67 251 -184 251c-125 0 -194 -104 -194 -240c0 -145 71 -255 200 -255zM353 -15c-191 0 -297 137 -297 331c0 178 106 315 291 315c178 0 280 -141 280 -326c0 -182 -100 -320 -274 -320zM235 692v72h223v-72h-223z" />
    <glyph glyph-name="omacron" unicode="&#x14d;" horiz-adv-x="529" 
d="M149 554v72h223v-72h-223zM50 227c0 133 74 242 213 242c141 0 217 -109 217 -242c0 -130 -75 -242 -216 -242c-140 0 -214 110 -214 242zM141 227c0 -91 40 -170 123 -170c84 0 125 79 125 170c0 92 -41 170 -125 170c-83 0 -123 -78 -123 -170z" />
    <glyph glyph-name="Obreve" unicode="&#x14e;" horiz-adv-x="683" 
d="M353 61c110 0 178 110 178 244c0 143 -67 251 -184 251c-125 0 -194 -104 -194 -240c0 -145 71 -255 200 -255zM353 -15c-191 0 -297 137 -297 331c0 178 106 315 291 315c178 0 280 -141 280 -326c0 -182 -100 -320 -274 -320zM195 815l59 15c7 -42 44 -89 91 -89
c48 0 86 44 99 90l54 -17c-16 -81 -68 -144 -153 -144c-90 0 -136 60 -150 145z" />
    <glyph glyph-name="obreve" unicode="&#x14f;" horiz-adv-x="529" 
d="M50 227c0 133 74 242 213 242c141 0 217 -109 217 -242c0 -130 -75 -242 -216 -242c-140 0 -214 110 -214 242zM141 227c0 -91 40 -170 123 -170c84 0 125 79 125 170c0 92 -41 170 -125 170c-83 0 -123 -78 -123 -170zM107 686l57 14c7 -44 46 -94 93 -94s84 48 97 96
l55 -16c-16 -85 -68 -150 -153 -150c-92 0 -138 73 -149 150z" />
    <glyph glyph-name="Ohungarumlaut" unicode="&#x150;" horiz-adv-x="683" 
d="M294 684l-64 31l77 163l70 -36zM434 684l-64 31l78 163l69 -36zM353 61c110 0 178 110 178 244c0 143 -67 251 -184 251c-125 0 -194 -104 -194 -240c0 -145 71 -255 200 -255zM353 -15c-191 0 -297 137 -297 331c0 178 106 315 291 315c178 0 280 -141 280 -326
c0 -182 -100 -320 -274 -320z" />
    <glyph glyph-name="ohungarumlaut" unicode="&#x151;" horiz-adv-x="529" 
d="M217 524l-64 31l77 163l70 -36zM357 524l-64 31l78 163l69 -36zM50 227c0 133 74 242 213 242c141 0 217 -109 217 -242c0 -130 -75 -242 -216 -242c-140 0 -214 110 -214 242zM141 227c0 -91 40 -170 123 -170c84 0 125 79 125 170c0 92 -41 170 -125 170
c-83 0 -123 -78 -123 -170z" />
    <glyph glyph-name="Racute" unicode="&#x154;" horiz-adv-x="553" 
d="M516 0h-103l-140 243h-9h-83v-243h-89v616h156c159 0 226 -75 226 -182c0 -79 -39 -143 -112 -173zM251 540h-70v-221h76c79 0 120 47 120 112c0 62 -29 109 -126 109zM209 669l-33 66l188 97l35 -73z" />
    <glyph glyph-name="racute" unicode="&#x155;" horiz-adv-x="361" 
d="M147 512l-44 58l163 137l46 -63zM162 0h-85v448l72 11l10 -88c38 61 83 98 141 98c14 0 25 0 39 -6l-1 -78c-14 5 -26 8 -41 8c-51 0 -97 -30 -135 -88v-305z" />
    <glyph glyph-name="uni0156" unicode="&#x156;" horiz-adv-x="553" 
d="M516 0h-103l-140 243h-9h-83v-243h-89v616h156c159 0 226 -75 226 -182c0 -79 -39 -143 -112 -173zM251 540h-70v-221h76c79 0 120 47 120 112c0 62 -29 109 -126 109zM263 -312l-29 32c36 29 52 51 60 85h-4c-35 0 -63 28 -63 63s28 63 63 63c39 0 63 -36 63 -86
c-1 -59 -34 -117 -90 -157z" />
    <glyph glyph-name="uni0157" unicode="&#x157;" horiz-adv-x="361" 
d="M162 0h-85v448l72 11l10 -88c38 61 83 98 141 98c14 0 25 0 39 -6l-1 -78c-14 5 -26 8 -41 8c-51 0 -97 -30 -135 -88v-305zM90 -312l-29 32c36 29 52 51 60 85h-4c-35 0 -63 28 -63 63s28 63 63 63c39 0 63 -36 63 -86c-1 -59 -34 -117 -90 -157z" />
    <glyph glyph-name="Rcaron" unicode="&#x158;" horiz-adv-x="553" 
d="M516 0h-103l-140 243h-9h-83v-243h-89v616h156c159 0 226 -75 226 -182c0 -79 -39 -143 -112 -173zM251 540h-70v-221h76c79 0 120 47 120 112c0 62 -29 109 -126 109zM238 657l-125 116l44 50l97 -90l94 90l43 -49l-122 -117h-31z" />
    <glyph glyph-name="rcaron" unicode="&#x159;" horiz-adv-x="361" 
d="M191 512l-119 135l46 46l90 -105l86 104l46 -44l-119 -136h-30zM162 0h-85v448l72 11l10 -88c38 61 83 98 141 98c14 0 25 0 39 -6l-1 -78c-14 5 -26 8 -41 8c-51 0 -97 -30 -135 -88v-305z" />
    <glyph glyph-name="Sacute" unicode="&#x15a;" horiz-adv-x="497" 
d="M48 44l28 71c53 -31 114 -54 165 -54c61 0 107 26 107 90c0 137 -284 134 -284 321c0 60 40 159 193 159c64 0 109 -13 170 -43l-22 -73c-57 29 -102 40 -144 40c-86 0 -103 -51 -103 -81c0 -128 290 -132 290 -321c0 -115 -94 -167 -208 -167c-74 0 -129 24 -192 58z
M198 669l-33 66l188 97l35 -73z" />
    <glyph glyph-name="sacute" unicode="&#x15b;" horiz-adv-x="428" 
d="M176 516l-44 58l163 137l46 -63zM363 439l-14 -67c-48 22 -88 29 -117 29c-35 0 -73 -10 -73 -49c0 -69 225 -104 225 -237c0 -82 -74 -130 -173 -130c-66 0 -116 21 -173 54l25 69c49 -34 91 -51 141 -51c45 0 85 21 85 54c0 80 -224 103 -224 237c0 90 73 121 149 121
c57 0 95 -10 149 -30z" />
    <glyph glyph-name="Scircumflex" unicode="&#x15c;" horiz-adv-x="497" 
d="M48 44l28 71c53 -31 114 -54 165 -54c61 0 107 26 107 90c0 137 -284 134 -284 321c0 60 40 159 193 159c64 0 109 -13 170 -43l-22 -73c-57 29 -102 40 -144 40c-86 0 -103 -51 -103 -81c0 -128 290 -132 290 -321c0 -115 -94 -167 -208 -167c-74 0 -129 24 -192 58z
M282 824l117 -116l-44 -50l-90 91l-85 -91l-44 50l115 116h31z" />
    <glyph glyph-name="scircumflex" unicode="&#x15d;" horiz-adv-x="428" 
d="M97 562l119 135h31l118 -136l-46 -44l-87 97l-89 -97zM363 439l-14 -67c-48 22 -88 29 -117 29c-35 0 -73 -10 -73 -49c0 -69 225 -104 225 -237c0 -82 -74 -130 -173 -130c-66 0 -116 21 -173 54l25 69c49 -34 91 -51 141 -51c45 0 85 21 85 54c0 80 -224 103 -224 237
c0 90 73 121 149 121c57 0 95 -10 149 -30z" />
    <glyph glyph-name="Scedilla" unicode="&#x15e;" horiz-adv-x="497" 
d="M48 44l28 71c53 -31 114 -54 165 -54c61 0 107 26 107 90c0 137 -284 134 -284 321c0 60 40 159 193 159c64 0 109 -13 170 -43l-22 -73c-57 29 -102 40 -144 40c-86 0 -103 -51 -103 -81c0 -128 290 -132 290 -321c0 -115 -94 -167 -208 -167c-74 0 -129 24 -192 58z
M229 -312l-29 32c36 29 52 51 60 85h-4c-35 0 -63 28 -63 63s28 63 63 63c39 0 63 -36 63 -86c-1 -59 -34 -117 -90 -157z" />
    <glyph glyph-name="scedilla" unicode="&#x15f;" horiz-adv-x="428" 
d="M363 439l-14 -67c-48 22 -88 29 -117 29c-35 0 -73 -10 -73 -49c0 -69 225 -104 225 -237c0 -82 -74 -130 -173 -130c-66 0 -116 21 -173 54l25 69c49 -34 91 -51 141 -51c45 0 85 21 85 54c0 80 -224 103 -224 237c0 90 73 121 149 121c57 0 95 -10 149 -30zM192 -312
l-29 32c36 29 52 51 60 85h-4c-35 0 -63 28 -63 63s28 63 63 63c39 0 63 -36 63 -86c-1 -59 -34 -117 -90 -157z" />
    <glyph glyph-name="uni0162" unicode="&#x162;" horiz-adv-x="511" 
d="M233 -312l-29 32c36 29 52 51 60 85h-4c-35 0 -63 28 -63 63s28 63 63 63c39 0 63 -36 63 -86c-1 -59 -34 -117 -90 -157zM480 616v-76h-179v-540h-89v540h-182v76h450z" />
    <glyph glyph-name="uni0163" unicode="&#x163;" horiz-adv-x="333" 
d="M149 -312l-29 32c36 29 52 51 60 85h-4c-35 0 -63 28 -63 63s28 63 63 63c39 0 63 -36 63 -86c-1 -59 -34 -117 -90 -157zM40 383v62l61 9l16 138h69v-137h94v-72h-94v-247c0 -50 16 -79 52 -79c19 0 33 5 60 19v-66c-33 -21 -65 -25 -88 -25c-75 0 -110 56 -110 131v267
h-60z" />
    <glyph glyph-name="Tcaron" unicode="&#x164;" horiz-adv-x="511" 
d="M480 616v-76h-179v-540h-89v540h-182v76h450zM246 656l-125 116l44 50l97 -90l94 90l43 -49l-122 -117h-31z" />
    <glyph glyph-name="tcaron" unicode="&#x165;" horiz-adv-x="413" 
d="M347 388l-29 32c36 28 52 51 59 85h-4c-34 0 -62 28 -62 63s28 63 62 63c39 0 63 -36 63 -86c0 -59 -34 -117 -89 -157zM40 383v62l61 9l16 138h69v-137h94v-72h-94v-247c0 -50 16 -79 52 -79c19 0 33 5 60 19v-66c-33 -21 -65 -25 -88 -25c-75 0 -110 56 -110 131v267
h-60z" />
    <glyph glyph-name="Tbar" unicode="&#x166;" horiz-adv-x="528" 
d="M489 616v-76h-179v-164h140v-55h-140v-321h-89v321h-142v55h142v164h-182v76h450z" />
    <glyph glyph-name="tbar" unicode="&#x167;" horiz-adv-x="333" 
d="M40 383v62l61 9l16 138h69v-137h94v-72h-94v-75h90v-56h-90v-116c0 -50 16 -79 52 -79c19 0 33 5 60 19v-66c-33 -21 -65 -25 -88 -25c-75 0 -110 56 -110 131v136h-57v56h57v75h-60z" />
    <glyph glyph-name="Utilde" unicode="&#x168;" horiz-adv-x="640" 
d="M86 616h89v-405c0 -84 28 -150 144 -150c117 0 146 66 146 150v405h89v-407c0 -115 -46 -224 -235 -224c-185 0 -233 107 -233 224v407zM373 679c-53 0 -74 48 -111 48c-17 0 -39 -10 -58 -47l-44 45c37 63 68 83 108 83c41 0 66 -49 103 -49c22 0 47 16 65 53l45 -44
c-30 -61 -63 -89 -108 -89z" />
    <glyph glyph-name="utilde" unicode="&#x169;" 
d="M353 455h86v-455h-63l-10 55c-43 -42 -94 -69 -156 -69c-73 0 -136 34 -136 139v327l86 12v-328c0 -55 32 -76 69 -76c45 0 89 24 124 61v334zM312 536c-51 0 -71 44 -106 44c-15 0 -35 -10 -52 -47l-44 45c32 60 61 80 96 80c42 0 66 -46 104 -46c17 0 39 15 53 53
l44 -44c-26 -58 -56 -85 -95 -85z" />
    <glyph glyph-name="Umacron" unicode="&#x16a;" horiz-adv-x="640" 
d="M86 616h89v-405c0 -84 28 -150 144 -150c117 0 146 66 146 150v405h89v-407c0 -115 -46 -224 -235 -224c-185 0 -233 107 -233 224v407zM212 692v72h223v-72h-223z" />
    <glyph glyph-name="umacron" unicode="&#x16b;" 
d="M353 455h86v-455h-63l-10 55c-43 -42 -94 -69 -156 -69c-73 0 -136 34 -136 139v327l86 12v-328c0 -55 32 -76 69 -76c45 0 89 24 124 61v334zM151 554v72h223v-72h-223z" />
    <glyph glyph-name="Ubreve" unicode="&#x16c;" horiz-adv-x="640" 
d="M86 616h89v-405c0 -84 28 -150 144 -150c117 0 146 66 146 150v405h89v-407c0 -115 -46 -224 -235 -224c-185 0 -233 107 -233 224v407zM172 815l59 15c7 -42 44 -89 91 -89c48 0 86 44 99 90l54 -17c-16 -81 -68 -144 -153 -144c-90 0 -136 60 -150 145z" />
    <glyph glyph-name="ubreve" unicode="&#x16d;" 
d="M353 455h86v-455h-63l-10 55c-43 -42 -94 -69 -156 -69c-73 0 -136 34 -136 139v327l86 12v-328c0 -55 32 -76 69 -76c45 0 89 24 124 61v334zM111 686l57 14c7 -44 46 -94 93 -94s84 48 97 96l55 -16c-16 -85 -68 -150 -153 -150c-92 0 -138 73 -149 150z" />
    <glyph glyph-name="Uring" unicode="&#x16e;" horiz-adv-x="640" 
d="M225 770c0 50 38 90 94 90s95 -38 95 -90s-39 -91 -95 -91s-94 39 -94 91zM318 722c24 0 42 14 42 48c0 37 -19 50 -42 50c-20 0 -38 -16 -38 -50c0 -37 17 -48 38 -48zM86 616h89v-405c0 -84 28 -150 144 -150c117 0 146 66 146 150v405h89v-407
c0 -115 -46 -224 -235 -224c-185 0 -233 107 -233 224v407z" />
    <glyph glyph-name="uring" unicode="&#x16f;" 
d="M171 610c0 50 38 90 94 90s95 -38 95 -90s-39 -91 -95 -91s-94 39 -94 91zM264 562c24 0 42 14 42 48c0 37 -19 50 -42 50c-20 0 -38 -16 -38 -50c0 -37 17 -48 38 -48zM353 455h86v-455h-63l-10 55c-43 -42 -94 -69 -156 -69c-73 0 -136 34 -136 139v327l86 12v-328
c0 -55 32 -76 69 -76c45 0 89 24 124 61v334z" />
    <glyph glyph-name="Uhungarumlaut" unicode="&#x170;" horiz-adv-x="640" 
d="M86 616h89v-405c0 -84 28 -150 144 -150c117 0 146 66 146 150v405h89v-407c0 -115 -46 -224 -235 -224c-185 0 -233 107 -233 224v407zM270 684l-64 31l77 163l70 -36zM410 684l-64 31l78 163l69 -36z" />
    <glyph glyph-name="uhungarumlaut" unicode="&#x171;" 
d="M353 455h86v-455h-63l-10 55c-43 -42 -94 -69 -156 -69c-73 0 -136 34 -136 139v327l86 12v-328c0 -55 32 -76 69 -76c45 0 89 24 124 61v334zM213 524l-64 31l77 163l70 -36zM353 524l-64 31l78 163l69 -36z" />
    <glyph glyph-name="Uogonek" unicode="&#x172;" horiz-adv-x="640" 
d="M86 616h89v-405c0 -84 28 -150 144 -150c117 0 146 66 146 150v405h89v-407c0 -86 -26 -169 -118 -205c-2 -1 -4 -2 -6 -2c-1 -1 -3 -1 -5 -2c-70 -26 -104 -55 -104 -86c0 -26 18 -43 42 -43c17 0 35 2 58 15l22 -44c-32 -22 -57 -28 -85 -28c-64 0 -100 41 -100 101
c0 28 10 51 31 72c-160 11 -203 111 -203 222v407z" />
    <glyph glyph-name="uogonek" unicode="&#x173;" 
d="M353 455h86v-455h-1l4 -11c-77 -28 -115 -58 -115 -90c0 -26 18 -43 42 -43c17 0 35 2 58 15l22 -44c-32 -22 -57 -28 -85 -28c-64 0 -100 41 -100 101c0 52 37 89 108 120l-6 35c-43 -42 -94 -69 -156 -69c-73 0 -136 34 -136 139v327l86 12v-328c0 -55 32 -76 69 -76
c45 0 89 24 124 61v334z" />
    <glyph glyph-name="Wcircumflex" unicode="&#x174;" horiz-adv-x="935" 
d="M477 824l117 -116l-44 -50l-90 91l-85 -91l-44 50l115 116h31zM318 0h-94l-192 616h93l148 -489l147 487v2h94l-1 -2l151 -488l145 490h93l-190 -616h-95l-150 468z" />
    <glyph glyph-name="wcircumflex" unicode="&#x175;" horiz-adv-x="680" 
d="M221 558l119 135h31l118 -136l-46 -44l-87 97l-89 -97zM246 0h-83l-129 455h92l87 -356l96 356h66l90 -354l92 354h91l-135 -455h-83l-90 332z" />
    <glyph glyph-name="Ycircumflex" unicode="&#x176;" horiz-adv-x="521" 
d="M306 251v-251h-90v255l-189 361h97l138 -272l135 272h95zM276 824l117 -116l-44 -50l-90 91l-85 -91l-44 50l115 116h31z" />
    <glyph glyph-name="ycircumflex" unicode="&#x177;" horiz-adv-x="482" 
d="M29 455h88l124 -344l127 344h86l-147 -397c-48 -122 -75 -247 -259 -247v71c93 0 119 53 148 118h-2zM107 562l119 135h31l118 -136l-46 -44l-87 97l-89 -97z" />
    <glyph glyph-name="Zacute" unicode="&#x179;" horiz-adv-x="512" 
d="M367 540h-304v76h393v-76l-320 -464h326v-76h-416v76zM203 669l-33 66l188 97l35 -73z" />
    <glyph glyph-name="zacute" unicode="&#x17a;" horiz-adv-x="439" 
d="M175 512l-44 58l163 137l46 -63zM382 382l-242 -310h251v-72h-342v72l240 310h-232v73h325v-73z" />
    <glyph glyph-name="Zdotaccent" unicode="&#x17b;" horiz-adv-x="512" 
d="M202 742c0 35 28 63 63 63s63 -28 63 -63s-28 -63 -63 -63s-63 28 -63 63zM367 540h-304v76h393v-76l-320 -464h326v-76h-416v76z" />
    <glyph glyph-name="zdotaccent" unicode="&#x17c;" horiz-adv-x="439" 
d="M382 382l-242 -310h251v-72h-342v72l240 310h-232v73h325v-73zM169 607c0 34 28 62 62 62c35 0 63 -28 63 -62c0 -35 -28 -63 -63 -63c-34 0 -62 28 -62 63z" />
    <glyph glyph-name="longs" unicode="&#x17f;" horiz-adv-x="280" 
d="M42 378v55l59 14v23c0 115 38 194 200 194v-71c-94 0 -114 -47 -114 -119v-474h-86v378h-59z" />
    <glyph glyph-name="uni0218" unicode="&#x218;" horiz-adv-x="497" 
d="M48 44l28 71c53 -31 114 -54 165 -54c61 0 107 26 107 90c0 137 -284 134 -284 321c0 60 40 159 193 159c64 0 109 -13 170 -43l-22 -73c-57 29 -102 40 -144 40c-86 0 -103 -51 -103 -81c0 -128 290 -132 290 -321c0 -115 -94 -167 -208 -167c-74 0 -129 24 -192 58z
M226 -312l-29 32c36 29 52 51 60 85h-4c-35 0 -63 28 -63 63s28 63 63 63c39 0 63 -36 63 -86c-1 -59 -34 -117 -90 -157z" />
    <glyph glyph-name="uni0219" unicode="&#x219;" horiz-adv-x="428" 
d="M363 439l-14 -67c-48 22 -88 29 -117 29c-35 0 -73 -10 -73 -49c0 -69 225 -104 225 -237c0 -82 -74 -130 -173 -130c-66 0 -116 21 -173 54l25 69c49 -34 91 -51 141 -51c45 0 85 21 85 54c0 80 -224 103 -224 237c0 90 73 121 149 121c57 0 95 -10 149 -30zM195 -312
l-29 32c36 29 52 51 60 85h-4c-35 0 -63 28 -63 63s28 63 63 63c39 0 63 -36 63 -86c-1 -59 -34 -117 -90 -157z" />
    <glyph glyph-name="uni021A" unicode="&#x21a;" horiz-adv-x="511" 
d="M233 -312l-29 32c36 29 52 51 60 85h-4c-35 0 -63 28 -63 63s28 63 63 63c39 0 63 -36 63 -86c-1 -59 -34 -117 -90 -157zM480 616v-76h-179v-540h-89v540h-182v76h450z" />
    <glyph glyph-name="uni021B" unicode="&#x21b;" horiz-adv-x="333" 
d="M156 -312l-29 32c36 29 52 51 60 85h-4c-35 0 -63 28 -63 63s28 63 63 63c39 0 63 -36 63 -86c-1 -59 -34 -117 -90 -157zM40 383v62l61 9l16 138h69v-137h94v-72h-94v-247c0 -50 16 -79 52 -79c19 0 33 5 60 19v-66c-33 -21 -65 -25 -88 -25c-75 0 -110 56 -110 131v267
h-60z" />
    <glyph glyph-name="Wgrave" unicode="&#x1e80;" horiz-adv-x="935" 
d="M563 735l-33 -66l-190 90l36 73zM318 0h-94l-192 616h93l148 -489l147 487v2h94l-1 -2l151 -488l145 490h93l-190 -616h-95l-150 468z" />
    <glyph glyph-name="wgrave" unicode="&#x1e81;" horiz-adv-x="680" 
d="M246 0h-83l-129 455h92l87 -356l96 356h66l90 -354l92 354h91l-135 -455h-83l-90 332zM446 568l-45 -58l-165 133l47 63z" />
    <glyph glyph-name="Wacute" unicode="&#x1e82;" horiz-adv-x="935" 
d="M382 669l-33 66l188 97l35 -73zM318 0h-94l-192 616h93l148 -489l147 487v2h94l-1 -2l151 -488l145 490h93l-190 -616h-95l-150 468z" />
    <glyph glyph-name="wacute" unicode="&#x1e83;" horiz-adv-x="680" 
d="M309 512l-44 58l163 137l46 -63zM246 0h-83l-129 455h92l87 -356l96 356h66l90 -354l92 354h91l-135 -455h-83l-90 332z" />
    <glyph glyph-name="Wdieresis" unicode="&#x1e84;" horiz-adv-x="935" 
d="M318 0h-94l-192 616h93l148 -489l147 487v2h94l-1 -2l151 -488l145 490h93l-190 -616h-95l-150 468zM309 736c0 35 28 63 63 63s63 -28 63 -63s-28 -63 -63 -63s-63 28 -63 63zM493 736c0 35 28 63 63 63c34 0 62 -28 62 -63s-28 -63 -62 -63c-36 0 -63 28 -63 63z" />
    <glyph glyph-name="wdieresis" unicode="&#x1e85;" horiz-adv-x="680" 
d="M203 594c0 33 28 62 63 62c34 0 62 -28 62 -62c0 -35 -28 -63 -62 -63c-35 0 -63 27 -63 63zM387 594c0 33 28 62 63 62c34 0 62 -28 62 -62c0 -35 -28 -63 -62 -63c-35 0 -63 27 -63 63zM246 0h-83l-129 455h92l87 -356l96 356h66l90 -354l92 354h91l-135 -455h-83
l-90 332z" />
    <glyph glyph-name="longs_t" unicode="&#xfb05;" horiz-adv-x="599" 
d="M306 383v62l60 9l5 139h-70c-94 0 -114 -47 -114 -119v-474h-86v378h-59v55l59 14v23c0 115 38 194 200 194h151v-209h95v-72h-95v-247c0 -50 16 -79 53 -79c19 0 32 5 59 19v-66c-33 -21 -65 -25 -88 -25c-90 0 -110 72 -110 131v267h-60z" />
    <glyph glyph-name="f_t" horiz-adv-x="599" 
d="M366 116v364c0 97 -26 135 -87 136c-77 0 -92 -72 -92 -150v-16h72v-72h-72v-378h-86v378h-59v55l59 14v16c0 116 34 223 183 223c119 0 168 -75 168 -203v-28h95v-72h-95v-247c0 -50 16 -79 53 -79c19 0 32 5 59 19v-66c-33 -21 -65 -25 -88 -25c-90 0 -110 72 -110 131
z" />
    <glyph glyph-name="b.sups" horiz-adv-x="384" 
d="M56 767l76 11v-170c24 21 54 34 87 34c85 0 129 -76 129 -166c0 -97 -48 -179 -138 -179c-34 0 -56 10 -80 32l-15 -21h-59v459zM199 582c-30 0 -50 -13 -67 -35v-164c14 -15 32 -25 61 -25c53 0 75 56 75 118c0 57 -22 106 -69 106z" />
    <glyph glyph-name="c.sups" horiz-adv-x="336" 
d="M35 470c0 94 56 172 162 172c50 0 88 -15 112 -39l-31 -49c-19 17 -41 28 -73 28c-61 0 -90 -53 -90 -112c0 -57 28 -112 88 -112c36 0 58 11 73 26l32 -47c-25 -24 -62 -40 -113 -40c-105 0 -160 82 -160 173z" />
    <glyph glyph-name="d.sups" horiz-adv-x="384" 
d="M253 771l75 7v-470h-65v37c-26 -30 -61 -48 -97 -48c-82 0 -130 77 -130 168c0 96 45 177 139 177c28 0 55 -10 78 -26v155zM185 358c32 0 51 14 68 37v163c-15 15 -35 24 -61 24c-54 0 -76 -56 -76 -118c0 -58 22 -106 69 -106z" />
    <glyph glyph-name="e.sups" horiz-adv-x="365" 
d="M331 448h-218c7 -51 35 -90 95 -90c37 0 62 16 79 34l38 -37c-26 -33 -72 -58 -131 -58c-100 0 -159 75 -159 173c0 94 56 172 151 172c91 0 145 -71 145 -159v-35zM184 582c-37 0 -61 -33 -69 -76h140c-7 43 -35 76 -71 76z" />
    <glyph glyph-name="f.sups" horiz-adv-x="232" 
d="M31 567v46l41 11v15c0 82 31 140 153 140v-59c-61 0 -77 -31 -77 -78v-15h62v-60h-62v-259h-76v259h-41z" />
    <glyph glyph-name="g.sups" horiz-adv-x="367" 
d="M39 532c0 69 59 110 133 110c40 0 76 -12 101 -33l65 43v-64l-40 -12c6 -13 10 -28 10 -44c0 -70 -60 -110 -136 -110c-12 0 -23 1 -34 3c-9 -9 -16 -20 -16 -31c0 -15 4 -29 32 -29h95c48 0 81 -26 81 -74c0 -67 -74 -117 -159 -117c-70 0 -145 16 -145 73
c0 32 22 54 47 72c-23 12 -30 31 -30 46c0 34 20 54 47 78c-30 18 -51 48 -51 89zM114 532c0 -37 20 -61 59 -61c38 0 60 24 60 61c0 36 -22 62 -60 62c-37 0 -59 -26 -59 -62zM128 308h-7c-13 -10 -23 -24 -23 -40c0 -25 21 -37 65 -37c45 0 86 17 86 45c0 19 -8 33 -33 32
h-88z" />
    <glyph glyph-name="h.sups" horiz-adv-x="382" 
d="M329 308h-75v220c0 37 -21 54 -46 54c-26 0 -55 -15 -76 -38v-236h-76v459l76 11v-170c26 21 58 34 95 34c55 0 102 -26 102 -104v-230z" />
    <glyph glyph-name="i.sups" horiz-adv-x="188" 
d="M132 308h-76v318l76 10v-328zM46 737c0 26 21 47 49 47c26 0 49 -21 49 -47s-23 -47 -49 -47c-28 0 -49 20 -49 47z" />
    <glyph glyph-name="j.sups" horiz-adv-x="188" 
d="M56 626l76 10v-287c0 -103 -24 -147 -142 -175l-17 59c67 18 83 45 83 113v280zM46 737c0 26 20 47 48 47c27 0 50 -21 50 -47s-23 -47 -50 -47c-28 0 -48 20 -48 47z" />
    <glyph glyph-name="k.sups" horiz-adv-x="359" 
d="M343 308h-88l-95 150h-28v-150h-76v459l76 11v-259h29l88 113h89l-112 -141z" />
    <glyph glyph-name="l.sups" horiz-adv-x="188" 
d="M56 767l76 11v-470h-76v459z" />
    <glyph glyph-name="m.sups" horiz-adv-x="578" 
d="M525 308h-75v220c0 37 -21 54 -47 54s-54 -15 -75 -38v-6v-230h-75v220c0 37 -21 54 -46 54c-26 0 -55 -15 -76 -38v-236h-76v319l66 11l2 -36c28 24 62 40 103 40c37 0 72 -12 89 -45c29 27 65 45 108 45c54 0 102 -26 102 -104v-230z" />
    <glyph glyph-name="n.sups" unicode="&#x207f;" horiz-adv-x="381" 
d="M131 308h-76v319l66 11l2 -36c28 24 62 40 103 40c55 0 102 -26 102 -104v-230h-75v220c0 37 -21 54 -46 54c-26 0 -55 -15 -76 -38v-236z" />
    <glyph glyph-name="o.sups" horiz-adv-x="386" 
d="M35 470c0 94 55 172 156 172c105 0 160 -78 160 -172c0 -93 -55 -173 -159 -173c-102 0 -157 79 -157 173zM115 470c0 -60 25 -112 77 -112c54 0 80 52 80 112s-26 112 -80 112c-52 0 -77 -52 -77 -112z" />
    <glyph glyph-name="p.sups" horiz-adv-x="384" 
d="M132 174h-76v455l65 4l3 -35c26 28 59 44 95 44c81 0 128 -75 128 -167c0 -96 -45 -178 -138 -178c-28 0 -55 9 -77 26v-149zM199 582c-31 0 -50 -14 -67 -36v-164c14 -15 34 -24 60 -24c54 0 76 56 76 119c0 57 -22 105 -69 105z" />
    <glyph glyph-name="q.sups" horiz-adv-x="384" 
d="M328 174h-75v157c-25 -22 -54 -34 -87 -34c-86 0 -130 76 -130 167c0 97 49 178 139 178c31 0 63 -15 88 -38l6 28h59v-458zM185 358c29 0 51 12 68 34v163c-15 16 -33 27 -61 27c-54 0 -76 -56 -76 -118c0 -57 22 -106 69 -106z" />
    <glyph glyph-name="r.sups" horiz-adv-x="270" 
d="M132 308h-76v318l76 10v-59c26 40 55 65 94 65c10 0 18 0 27 -4l-1 -65c-10 3 -19 5 -30 5c-34 0 -64 -18 -90 -57v-213z" />
    <glyph glyph-name="s.sups" horiz-adv-x="309" 
d="M263 620l-11 -55c-36 16 -64 22 -82 22c-20 0 -42 -8 -42 -31c0 -39 150 -71 150 -163c0 -60 -51 -96 -124 -96c-47 0 -84 15 -127 38l21 58c37 -25 67 -35 99 -35c24 0 47 12 47 32c0 49 -149 70 -149 163c0 66 52 89 108 89c41 0 69 -6 110 -22z" />
    <glyph glyph-name="t.sups" horiz-adv-x="251" 
d="M30 572v53l43 7l11 96h62v-96h62v-60h-62v-162c0 -34 13 -52 34 -52c13 0 21 3 39 11v-54c-24 -15 -47 -18 -63 -18c-54 0 -84 36 -84 94v181h-42z" />
    <glyph glyph-name="u.sups" horiz-adv-x="381" 
d="M250 632h75v-324h-65v33c-29 -26 -64 -43 -105 -43c-55 0 -103 26 -103 105v226l76 9v-226c0 -37 21 -53 46 -53c27 0 54 15 76 38v235z" />
    <glyph glyph-name="v.sups" horiz-adv-x="350" 
d="M216 308h-82l-117 324h80l78 -241l77 241h80z" />
    <glyph glyph-name="w.sups" horiz-adv-x="488" 
d="M195 308h-82l-88 324h81l49 -226l50 226h80l48 -225l50 225h81l-92 -324h-81l-47 204z" />
    <glyph glyph-name="x.sups" horiz-adv-x="342" 
d="M102 308h-84l110 165l-106 159h86l63 -95l64 95h86l-107 -159l111 -165h-86l-68 102z" />
    <glyph glyph-name="y.sups" horiz-adv-x="351" 
d="M17 632h80l80 -226l77 226h79l-95 -270c-35 -88 -61 -188 -204 -188v59c60 0 83 33 103 75h-3z" />
    <glyph glyph-name="z.sups" horiz-adv-x="321" 
d="M281 571l-151 -203h156v-60h-250v60l150 203h-146v61h241v-61z" />
    <glyph glyph-name="a.sups" horiz-adv-x="342" 
d="M214 308v34c-32 -28 -59 -45 -95 -45c-50 0 -89 26 -89 82c0 75 77 101 184 128v9c0 48 -32 66 -65 66c-29 0 -61 -11 -83 -23l-19 49c32 19 74 34 126 34c62 0 115 -30 115 -119v-215h-74zM143 363c23 0 45 11 71 30v64c-64 -17 -104 -29 -104 -65c0 -20 15 -29 33 -29z
" />
    <glyph glyph-name="exclam.smcp" horiz-adv-x="272" 
d="M93 512h86l-7 -354h-72zM82 41c0 28 24 51 54 51c31 0 56 -23 56 -51c0 -29 -25 -53 -56 -53c-30 0 -54 23 -54 53z" />
    <glyph glyph-name="parenleft.smcp" horiz-adv-x="302" 
d="M258 -95l-62 -37c-90 106 -142 198 -142 342c0 138 66 249 146 342l60 -38c-68 -87 -122 -184 -122 -304c0 -122 51 -216 120 -305z" />
    <glyph glyph-name="parenright.smcp" horiz-adv-x="303" 
d="M106 -132l-61 37c69 89 119 183 119 305c0 120 -53 217 -122 304l61 38c79 -93 146 -204 146 -342c0 -152 -65 -250 -143 -342z" />
    <glyph glyph-name="percent.smcp" horiz-adv-x="680" 
d="M145 9l327 508l64 -39l-326 -508zM159 233c-70 0 -120 51 -120 131c0 79 49 131 120 131c72 0 120 -52 120 -131c0 -80 -48 -131 -120 -131zM159 287c28 0 48 30 48 77s-21 77 -48 77c-29 0 -49 -30 -49 -77s20 -77 49 -77zM522 -12c-70 0 -121 51 -121 131
c0 79 49 131 121 131c71 0 120 -52 120 -131c0 -80 -49 -131 -120 -131zM522 42c27 0 47 30 47 77s-20 77 -47 77c-28 0 -48 -29 -48 -77c0 -47 20 -77 48 -77z" />
    <glyph glyph-name="ampersand.smcp" horiz-adv-x="591" 
d="M453 282h90l-158 -179l2 -2c20 -28 44 -45 61 -45c21 0 42 10 59 27l31 -49c-26 -26 -55 -46 -101 -46c-26 0 -69 19 -101 62c-32 -31 -75 -62 -125 -62c-88 0 -158 67 -158 143c0 74 56 118 116 150c-24 35 -46 71 -46 102c0 61 49 112 124 112c72 0 114 -54 115 -104
c3 -57 -40 -100 -90 -130l72 -100zM210 53c30 0 60 26 85 54l-86 119c-41 -23 -82 -49 -82 -94c0 -44 39 -79 83 -79zM196 384c0 -19 18 -44 36 -69c31 19 57 44 56 72c0 20 -17 43 -45 43c-27 0 -47 -20 -47 -46z" />
    <glyph glyph-name="dollar.smcp" horiz-adv-x="422" 
d="M247 573h33l-13 -81c31 -4 58 -14 92 -31l-24 -66c-31 15 -56 24 -78 28l-22 -142c61 -35 132 -74 132 -155c0 -95 -78 -137 -172 -137h-5l-12 -78h-34l12 82c-40 7 -79 23 -114 41l30 65c30 -18 64 -33 95 -40l24 154c-59 34 -127 70 -127 151c0 49 35 131 166 131h5z
M273 122c0 31 -22 53 -51 72l-22 -138c41 1 73 20 73 66zM152 368c0 -29 22 -49 52 -69l20 127c-59 -1 -72 -38 -72 -58z" />
    <glyph glyph-name="question.smcp" horiz-adv-x="366" 
d="M77 378l-44 42c39 43 92 75 151 75c98 0 146 -60 146 -120c0 -119 -130 -99 -130 -254h-74c0 159 116 191 116 247c0 30 -18 61 -67 61c-35 0 -70 -19 -98 -51zM109 38c0 27 23 49 53 49c29 0 53 -22 53 -49c0 -28 -24 -50 -53 -50c-30 0 -53 22 -53 50z" />
    <glyph glyph-name="zero.smcp" horiz-adv-x="488" 
d="M243 54c78 0 99 81 99 187c0 103 -23 188 -99 188c-75 0 -96 -85 -96 -188c0 -106 21 -187 96 -187zM243 -12c-141 0 -185 108 -185 253c0 141 44 254 185 254c142 0 188 -113 188 -254c0 -145 -46 -253 -188 -253z" />
    <glyph glyph-name="one.smcp" horiz-adv-x="377" 
d="M84 332l-43 51l124 101l1 -1h83v-417h91v-66h-264v66h89v330z" />
    <glyph glyph-name="two.smcp" horiz-adv-x="451" 
d="M93 382l-38 48c41 40 88 65 162 65c132 0 171 -83 170 -134c-1 -143 -217 -174 -245 -295h255v-66h-342v27c0 194 241 215 243 333c0 24 -20 69 -93 69c-51 0 -78 -16 -112 -47z" />
    <glyph glyph-name="three.smcp" horiz-adv-x="444" 
d="M98 402l-34 48c29 24 69 45 140 45c136 0 163 -80 163 -129c0 -37 -20 -81 -66 -111c55 -30 89 -76 89 -121c0 -53 -33 -146 -184 -146c-60 0 -108 14 -165 56l36 52c35 -26 67 -42 125 -42c80 0 100 52 99 84c0 41 -43 83 -135 83h-12v66h12c86 0 112 42 112 76
c0 26 -12 66 -79 66c-46 0 -79 -11 -101 -27z" />
    <glyph glyph-name="four.smcp" horiz-adv-x="474" 
d="M271 483h84v-309h71v-65h-71v-109h-84v109h-231v65zM124 174h147v195z" />
    <glyph glyph-name="five.smcp" horiz-adv-x="444" 
d="M117 220h-49l32 263h274v-66h-205l-15 -119c25 11 51 19 81 19c98 0 155 -72 155 -157c0 -111 -72 -172 -174 -172c-81 0 -120 16 -171 63l39 50c35 -34 75 -47 118 -47c57 0 100 37 100 107c0 49 -34 90 -87 90c-31 0 -55 -5 -98 -31z" />
    <glyph glyph-name="six.smcp" horiz-adv-x="465" 
d="M400 467l-28 -56c-22 9 -55 18 -91 18c-60 0 -115 -50 -132 -148c30 19 66 31 102 31c92 0 163 -47 163 -153c0 -105 -74 -171 -173 -171c-119 0 -186 103 -186 228c0 181 108 279 226 279c50 0 92 -14 119 -28zM251 246c-37 0 -76 -14 -107 -36c1 -89 39 -156 96 -156
c50 0 85 38 85 101c0 65 -33 91 -74 91z" />
    <glyph glyph-name="seven.smcp" horiz-adv-x="404" 
d="M171 0h-102l210 417h-234v66h336v-24z" />
    <glyph glyph-name="eight.smcp" horiz-adv-x="449" 
d="M222 -12c-92 0 -169 43 -169 119c0 67 44 112 99 144c-52 41 -72 78 -72 122c0 79 69 122 150 122c77 0 147 -44 147 -119c0 -59 -37 -97 -86 -132c66 -46 104 -90 104 -144c0 -64 -72 -112 -173 -112zM307 112c0 30 -34 57 -87 93c-40 -22 -79 -46 -79 -90
c0 -39 40 -61 80 -61c48 0 86 25 86 58zM168 375c0 -30 16 -55 56 -85c36 20 64 45 64 83c0 28 -18 56 -58 56c-37 0 -62 -25 -62 -54z" />
    <glyph glyph-name="nine.smcp" horiz-adv-x="466" 
d="M66 16l27 56c23 -9 56 -18 92 -18c60 0 115 50 132 147c-31 -18 -66 -30 -102 -30c-92 0 -163 47 -163 153c0 105 74 171 173 171c115 0 186 -94 186 -228c0 -181 -108 -279 -226 -279c-50 0 -92 14 -119 28zM215 237c36 0 75 14 107 36c-2 89 -39 156 -96 156
c-51 0 -86 -38 -86 -101c0 -64 33 -91 75 -91z" />
    <glyph glyph-name="bracketleft.smcp" horiz-adv-x="305" 
d="M94 -110v628h161v-65h-82v-497h82v-66h-161z" />
    <glyph glyph-name="bracketright.smcp" horiz-adv-x="304" 
d="M50 518h161v-628h-161v66h82v497h-82v65z" />
    <glyph glyph-name="sterling.smcp" horiz-adv-x="483" 
d="M62 220v59h58c-4 24 -7 49 -7 75c0 71 62 141 151 141c62 0 101 -17 161 -56l-48 -52c-44 27 -76 38 -106 38c-43 0 -73 -32 -73 -71c0 -26 3 -50 8 -75h95v-59h-84c4 -22 7 -45 7 -68c0 -24 -6 -46 -19 -70c29 -8 57 -24 85 -24c41 0 66 21 93 58l53 -30
c-36 -66 -75 -98 -157 -98c-43 0 -76 19 -112 31c-16 -21 -31 -30 -54 -30c-44 0 -60 30 -60 56c0 22 15 40 36 46c11 6 24 9 37 10c9 17 13 34 13 51c0 23 -3 45 -7 68h-70z" />
    <glyph glyph-name="yen.smcp" horiz-adv-x="472" 
d="M395 127v-56h-115v-71h-88v71h-111v56h111v53h-111v55h91l-138 248h93l109 -202l106 202h92l-134 -248h95v-55h-115v-53h115z" />
    <glyph glyph-name="agrave.smcp" 
d="M356 591l-34 -66l-190 90l36 73zM30 0l182 483h91l187 -483h-85l-47 121h-198l-45 -121h-85zM258 377l-72 -187h145z" />
    <glyph glyph-name="aacute.smcp" 
d="M174 531l-33 66l188 97l35 -73zM30 0l182 483h91l187 -483h-85l-47 121h-198l-45 -121h-85zM258 377l-72 -187h145z" />
    <glyph glyph-name="acircumflex.smcp" 
d="M270 693l117 -109l-43 -50l-91 84l-85 -84l-44 49l115 110h31zM30 0l182 483h91l187 -483h-85l-47 121h-198l-45 -121h-85zM258 377l-72 -187h145z" />
    <glyph glyph-name="atilde.smcp" 
d="M30 0l182 483h91l187 -483h-85l-47 121h-198l-45 -121h-85zM258 377l-72 -187h145zM309 553c-51 0 -69 44 -105 44c-18 0 -39 -10 -58 -47l-45 45c35 60 65 79 104 79c40 0 65 -45 102 -45c20 0 43 15 60 53l45 -44c-29 -59 -60 -85 -103 -85z" />
    <glyph glyph-name="adieresis.smcp" 
d="M30 0l182 483h91l187 -483h-85l-47 121h-198l-45 -121h-85zM258 377l-72 -187h145zM97 615c0 34 28 62 63 62c34 0 62 -28 62 -62c0 -35 -28 -63 -62 -63c-35 0 -63 27 -63 63zM281 615c0 34 28 62 63 62c34 0 62 -28 62 -62c0 -35 -28 -63 -62 -63c-35 0 -63 27 -63 63z
" />
    <glyph glyph-name="aring.smcp" 
d="M161 610c0 51 37 90 94 90s94 -39 94 -90c0 -53 -37 -91 -94 -91s-94 38 -94 91zM255 562c23 0 41 12 41 47c0 37 -19 51 -41 51c-21 0 -40 -17 -40 -51c0 -36 19 -47 40 -47zM30 0l182 483h91l187 -483h-85l-47 121h-198l-45 -121h-85zM258 377l-72 -187h145z" />
    <glyph glyph-name="ccedilla.smcp" horiz-adv-x="522" 
d="M202 -162l21 33c16 -13 44 -24 65 -24c24 0 40 15 40 33c0 25 -30 38 -96 38l27 73c-140 18 -207 124 -207 249c0 141 91 255 254 255c76 0 134 -20 173 -53l-37 -57c-30 24 -71 40 -132 40c-105 0 -162 -83 -162 -185c0 -103 55 -183 159 -183c62 0 104 15 133 41
l36 -57c-37 -31 -92 -51 -162 -53l-9 -26c51 -9 81 -38 81 -82c0 -43 -38 -80 -94 -80c-33 0 -65 18 -90 38z" />
    <glyph glyph-name="egrave.smcp" horiz-adv-x="442" 
d="M348 598l-34 -66l-190 90l36 73zM384 483v-69h-214v-130h168v-69h-168v-146h225v-69h-312v483h301z" />
    <glyph glyph-name="eacute.smcp" horiz-adv-x="442" 
d="M384 483v-69h-214v-130h168v-69h-168v-146h225v-69h-312v483h301zM164 531l-33 66l188 97l35 -73z" />
    <glyph glyph-name="ecircumflex.smcp" horiz-adv-x="442" 
d="M384 483v-69h-214v-130h168v-69h-168v-146h225v-69h-312v483h301zM248 693l117 -109l-43 -50l-91 84l-85 -84l-44 49l115 110h31z" />
    <glyph glyph-name="edieresis.smcp" horiz-adv-x="442" 
d="M384 483v-69h-214v-130h168v-69h-168v-146h225v-69h-312v483h301zM84 615c0 34 28 62 63 62c34 0 62 -28 62 -62c0 -35 -28 -63 -62 -63c-35 0 -63 27 -63 63zM268 615c0 34 28 62 63 62c34 0 62 -28 62 -62c0 -35 -28 -63 -62 -63c-35 0 -63 27 -63 63z" />
    <glyph glyph-name="igrave.smcp" horiz-adv-x="252" 
d="M248 591l-34 -66l-190 90l36 73zM83 483h87v-483h-87v483z" />
    <glyph glyph-name="dotlessi.smcp" horiz-adv-x="252" 
d="M83 483h87v-483h-87v483z" />
    <glyph glyph-name="iacute.smcp" horiz-adv-x="252" 
d="M42 531l-33 66l188 97l35 -73zM83 483h87v-483h-87v483z" />
    <glyph glyph-name="icircumflex.smcp" horiz-adv-x="252" 
d="M145 693l117 -109l-43 -50l-91 84l-85 -84l-44 49l115 110h31zM83 483h87v-483h-87v483z" />
    <glyph glyph-name="idieresis.smcp" horiz-adv-x="252" 
d="M-19 615c0 34 28 62 63 62c34 0 62 -28 62 -62c0 -35 -28 -63 -62 -63c-35 0 -63 27 -63 63zM165 615c0 34 28 62 63 62c34 0 62 -28 62 -62c0 -35 -28 -63 -62 -63c-35 0 -63 27 -63 63zM83 483h87v-483h-87v483z" />
    <glyph glyph-name="eth.smcp" horiz-adv-x="562" 
d="M28 226v56h62v201h146c156 0 272 -79 272 -248c0 -161 -116 -235 -272 -235h-146v226h-62zM177 414v-132h111v-56h-111v-157h54c99 0 182 50 182 166c0 126 -83 179 -182 179h-54z" />
    <glyph glyph-name="ntilde.smcp" horiz-adv-x="571" 
d="M402 483h87v-483h-71l-248 342v-342h-87v483h71l248 -348v348zM345 553c-51 0 -69 44 -105 44c-18 0 -39 -10 -58 -47l-45 45c35 60 65 79 104 79c40 0 65 -45 102 -45c20 0 43 15 60 53l45 -44c-29 -59 -60 -85 -103 -85z" />
    <glyph glyph-name="ograve.smcp" horiz-adv-x="591" 
d="M305 57c86 0 139 83 139 182c0 106 -53 187 -144 187c-98 0 -153 -77 -153 -178c0 -109 57 -191 158 -191zM305 -12c-163 0 -253 107 -253 260c0 139 90 247 248 247c151 0 239 -111 239 -256c0 -143 -86 -251 -234 -251zM401 591l-34 -66l-190 90l36 73z" />
    <glyph glyph-name="oacute.smcp" horiz-adv-x="591" 
d="M305 57c86 0 139 83 139 182c0 106 -53 187 -144 187c-98 0 -153 -77 -153 -178c0 -109 57 -191 158 -191zM305 -12c-163 0 -253 107 -253 260c0 139 90 247 248 247c151 0 239 -111 239 -256c0 -143 -86 -251 -234 -251zM211 531l-33 66l188 97l35 -73z" />
    <glyph glyph-name="ocircumflex.smcp" horiz-adv-x="591" 
d="M305 57c86 0 139 83 139 182c0 106 -53 187 -144 187c-98 0 -153 -77 -153 -178c0 -109 57 -191 158 -191zM305 -12c-163 0 -253 107 -253 260c0 139 90 247 248 247c151 0 239 -111 239 -256c0 -143 -86 -251 -234 -251zM307 693l117 -109l-43 -50l-91 84l-85 -84
l-44 49l115 110h31z" />
    <glyph glyph-name="otilde.smcp" horiz-adv-x="591" 
d="M305 57c86 0 139 83 139 182c0 106 -53 187 -144 187c-98 0 -153 -77 -153 -178c0 -109 57 -191 158 -191zM305 -12c-163 0 -253 107 -253 260c0 139 90 247 248 247c151 0 239 -111 239 -256c0 -143 -86 -251 -234 -251zM346 553c-51 0 -69 44 -105 44
c-18 0 -39 -10 -58 -47l-45 45c35 60 65 79 104 79c40 0 65 -45 102 -45c20 0 43 15 60 53l45 -44c-29 -59 -60 -85 -103 -85z" />
    <glyph glyph-name="odieresis.smcp" horiz-adv-x="591" 
d="M305 57c86 0 139 83 139 182c0 106 -53 187 -144 187c-98 0 -153 -77 -153 -178c0 -109 57 -191 158 -191zM305 -12c-163 0 -253 107 -253 260c0 139 90 247 248 247c151 0 239 -111 239 -256c0 -143 -86 -251 -234 -251zM134 615c0 34 28 62 63 62c34 0 62 -28 62 -62
c0 -35 -28 -63 -62 -63c-35 0 -63 27 -63 63zM318 615c0 34 28 62 63 62c34 0 62 -28 62 -62c0 -35 -28 -63 -62 -63c-35 0 -63 27 -63 63z" />
    <glyph glyph-name="oslash.smcp" horiz-adv-x="592" 
d="M83 -31h-47l79 94c-41 45 -62 110 -62 185c0 139 89 247 247 247c57 0 106 -17 144 -45l64 76h48l-85 -100c44 -46 68 -112 68 -187c0 -143 -86 -251 -234 -251c-68 0 -122 18 -163 50zM305 57c86 0 139 83 139 182c0 46 -10 88 -29 120l-219 -257c27 -28 63 -45 109 -45
zM148 248c0 -44 9 -84 26 -116l218 257c-24 23 -55 37 -92 37c-98 0 -152 -77 -152 -178z" />
    <glyph glyph-name="ugrave.smcp" horiz-adv-x="558" 
d="M388 597l-34 -66l-190 90l36 73zM78 483h87v-312c0 -63 22 -114 113 -114c93 0 115 51 115 114v312h87v-313c0 -94 -40 -182 -202 -182c-157 0 -200 87 -200 182v313z" />
    <glyph glyph-name="uacute.smcp" horiz-adv-x="558" 
d="M78 483h87v-312c0 -63 22 -114 113 -114c93 0 115 51 115 114v312h87v-313c0 -94 -40 -182 -202 -182c-157 0 -200 87 -200 182v313zM235 531l-33 66l188 97l35 -73z" />
    <glyph glyph-name="ucircumflex.smcp" horiz-adv-x="558" 
d="M78 483h87v-312c0 -63 22 -114 113 -114c93 0 115 51 115 114v312h87v-313c0 -94 -40 -182 -202 -182c-157 0 -200 87 -200 182v313zM297 693l117 -109l-43 -50l-91 84l-85 -84l-44 49l115 110h31z" />
    <glyph glyph-name="udieresis.smcp" horiz-adv-x="558" 
d="M78 483h87v-312c0 -63 22 -114 113 -114c93 0 115 51 115 114v312h87v-313c0 -94 -40 -182 -202 -182c-157 0 -200 87 -200 182v313zM138 615c0 34 28 62 63 62c34 0 62 -28 62 -62c0 -35 -28 -63 -62 -63c-35 0 -63 27 -63 63zM322 615c0 34 28 62 63 62
c34 0 62 -28 62 -62c0 -35 -28 -63 -62 -63c-35 0 -63 27 -63 63z" />
    <glyph glyph-name="yacute.smcp" horiz-adv-x="456" 
d="M159 531l-33 66l188 97l35 -73zM272 197v-197h-87v199l-158 284h93l109 -202l106 202h92z" />
    <glyph glyph-name="ydieresis.smcp" horiz-adv-x="456" 
d="M272 197v-197h-87v199l-158 284h93l109 -202l106 202h92zM68 615c0 34 28 62 63 62c34 0 62 -28 62 -62c0 -35 -28 -63 -62 -63c-35 0 -63 27 -63 63zM252 615c0 34 28 62 63 62c34 0 62 -28 62 -62c0 -35 -28 -63 -62 -63c-35 0 -63 27 -63 63z" />
    <glyph glyph-name="amacron.smcp" 
d="M30 0l182 483h91l187 -483h-85l-47 121h-198l-45 -121h-85zM258 377l-72 -187h145zM142 568v72h223v-72h-223z" />
    <glyph glyph-name="abreve.smcp" 
d="M30 0l182 483h91l187 -483h-85l-47 121h-198l-45 -121h-85zM258 377l-72 -187h145zM104 686l59 16c7 -42 45 -90 92 -90c48 0 85 44 98 90l54 -16c-16 -81 -68 -144 -153 -144c-87 0 -142 68 -150 144z" />
    <glyph glyph-name="aogonek.smcp" 
d="M30 0l182 483h91l187 -483h-11c-75 -27 -112 -57 -112 -89c0 -26 18 -43 42 -43c17 0 35 2 58 15l22 -44c-32 -22 -57 -28 -85 -28c-64 0 -100 41 -100 101c0 47 29 81 86 110l-38 99h-186l-45 -121h-91zM258 364l-66 -174h133z" />
    <glyph glyph-name="cacute.smcp" horiz-adv-x="522" 
d="M479 442l-37 -57c-30 24 -71 40 -132 40c-105 0 -162 -83 -162 -185c0 -103 55 -183 159 -183c62 0 104 15 133 41l36 -57c-39 -32 -97 -53 -173 -53c-170 0 -251 115 -251 252c0 141 91 255 254 255c76 0 134 -20 173 -53zM217 531l-33 66l188 97l35 -73z" />
    <glyph glyph-name="ccircumflex.smcp" horiz-adv-x="522" 
d="M316 693l117 -109l-43 -50l-91 84l-85 -84l-44 49l115 110h31zM479 442l-37 -57c-30 24 -71 40 -132 40c-105 0 -162 -83 -162 -185c0 -103 55 -183 159 -183c62 0 104 15 133 41l36 -57c-39 -32 -97 -53 -173 -53c-170 0 -251 115 -251 252c0 141 91 255 254 255
c76 0 134 -20 173 -53z" />
    <glyph glyph-name="cdotaccent.smcp" horiz-adv-x="522" 
d="M225 627c0 35 28 63 63 63c34 0 62 -28 62 -63c0 -34 -28 -62 -62 -62c-36 0 -63 27 -63 62zM479 442l-37 -57c-30 24 -71 40 -132 40c-105 0 -162 -83 -162 -185c0 -103 55 -183 159 -183c62 0 104 15 133 41l36 -57c-39 -32 -97 -53 -173 -53c-170 0 -251 115 -251 252
c0 141 91 255 254 255c76 0 134 -20 173 -53z" />
    <glyph glyph-name="ccaron.smcp" horiz-adv-x="522" 
d="M479 442l-37 -57c-30 24 -71 40 -132 40c-105 0 -162 -83 -162 -185c0 -103 55 -183 159 -183c62 0 104 15 133 41l36 -57c-39 -32 -97 -53 -173 -53c-170 0 -251 115 -251 252c0 141 91 255 254 255c76 0 134 -20 173 -53zM278 535l-119 108l43 48l93 -83l86 80l43 -47
l-115 -106h-31z" />
    <glyph glyph-name="dcaron.smcp" horiz-adv-x="554" 
d="M170 414v-345h54c99 0 182 50 182 166c0 126 -83 179 -182 179h-54zM83 0v483h146c155 0 272 -79 272 -248c0 -161 -117 -235 -272 -235h-146zM232 535l-119 108l43 48l93 -83l86 80l43 -47l-115 -106h-31z" />
    <glyph glyph-name="dcroat.smcp" horiz-adv-x="562" 
d="M28 226v56h62v201h146c156 0 272 -79 272 -248c0 -161 -116 -235 -272 -235h-146v226h-62zM177 414v-132h111v-56h-111v-157h54c99 0 182 50 182 166c0 126 -83 179 -182 179h-54z" />
    <glyph glyph-name="emacron.smcp" horiz-adv-x="442" 
d="M384 483v-69h-214v-130h168v-69h-168v-146h225v-69h-312v483h301zM123 568v72h223v-72h-223z" />
    <glyph glyph-name="ebreve.smcp" horiz-adv-x="442" 
d="M384 483v-69h-214v-130h168v-69h-168v-146h225v-69h-312v483h301zM82 686l59 16c7 -42 45 -90 92 -90c48 0 85 44 98 90l54 -16c-16 -81 -68 -144 -153 -144c-87 0 -142 68 -150 144z" />
    <glyph glyph-name="edotaccent.smcp" horiz-adv-x="442" 
d="M173 627c0 35 28 63 63 63c34 0 62 -28 62 -63c0 -34 -28 -62 -62 -62c-36 0 -63 27 -63 62zM384 483v-69h-214v-130h168v-69h-168v-146h225v-69h-312v483h301z" />
    <glyph glyph-name="eogonek.smcp" horiz-adv-x="442" 
d="M373 -117l22 -44c-32 -22 -57 -28 -85 -28c-64 0 -100 41 -100 101c0 36 17 64 50 88h-177v483h301v-69h-214v-130h168v-69h-168v-146h225v-69h-10c-75 -27 -112 -57 -112 -89c0 -26 18 -43 42 -43c17 0 35 2 58 15z" />
    <glyph glyph-name="ecaron.smcp" horiz-adv-x="442" 
d="M384 483v-69h-214v-130h168v-69h-168v-146h225v-69h-312v483h301zM225 535l-119 108l43 48l93 -83l86 80l43 -47l-115 -106h-31z" />
    <glyph glyph-name="gcircumflex.smcp" horiz-adv-x="545" 
d="M396 237h87v-200c-39 -30 -96 -49 -171 -49c-160 0 -260 104 -260 252c0 141 94 255 262 255c74 0 131 -20 169 -53l-36 -57c-30 24 -71 40 -133 40c-107 0 -167 -83 -167 -185c0 -103 62 -183 173 -183c30 0 55 4 76 12v168zM317 693l117 -109l-43 -50l-91 84l-85 -84
l-44 49l115 110h31z" />
    <glyph glyph-name="gbreve.smcp" horiz-adv-x="545" 
d="M396 237h87v-200c-39 -30 -96 -49 -171 -49c-160 0 -260 104 -260 252c0 141 94 255 262 255c74 0 131 -20 169 -53l-36 -57c-30 24 -71 40 -133 40c-107 0 -167 -83 -167 -185c0 -103 62 -183 173 -183c30 0 55 4 76 12v168zM151 686l59 16c7 -42 45 -90 92 -90
c48 0 85 44 98 90l54 -16c-16 -81 -68 -144 -153 -144c-87 0 -142 68 -150 144z" />
    <glyph glyph-name="gdotaccent.smcp" horiz-adv-x="545" 
d="M396 237h87v-200c-39 -30 -96 -49 -171 -49c-160 0 -260 104 -260 252c0 141 94 255 262 255c74 0 131 -20 169 -53l-36 -57c-30 24 -71 40 -133 40c-107 0 -167 -83 -167 -185c0 -103 62 -183 173 -183c30 0 55 4 76 12v168zM238 627c0 35 28 63 63 63
c34 0 62 -28 62 -63c0 -34 -28 -62 -62 -62c-36 0 -63 27 -63 62z" />
    <glyph glyph-name="uni0123.smcp" horiz-adv-x="545" 
d="M396 237h87v-200c-39 -30 -96 -49 -171 -49c-160 0 -260 104 -260 252c0 141 94 255 262 255c74 0 131 -20 169 -53l-36 -57c-30 24 -71 40 -133 40c-107 0 -167 -83 -167 -185c0 -103 62 -183 173 -183c30 0 55 4 76 12v168zM273 -312l-29 32c36 29 52 51 60 85h-4
c-35 0 -63 28 -63 63s28 63 63 63c39 0 63 -36 63 -86c-1 -59 -34 -117 -90 -157z" />
    <glyph glyph-name="hcircumflex.smcp" horiz-adv-x="563" 
d="M301 693l117 -109l-43 -50l-91 84l-85 -84l-44 49l115 110h31zM394 483h87v-483h-87v218h-224v-218h-87v483h87v-196h224v196z" />
    <glyph glyph-name="hbar.smcp" horiz-adv-x="577" 
d="M398 483h87v-62h69v-44h-69v-377h-87v218h-224v-218h-87v377h-48v44h48v62h87v-62h224v62zM174 287h224v90h-224v-90z" />
    <glyph glyph-name="itilde.smcp" horiz-adv-x="252" 
d="M192 553c-51 0 -69 44 -105 44c-18 0 -39 -10 -58 -47l-45 45c35 60 65 79 104 79c40 0 65 -45 102 -45c20 0 43 15 60 53l45 -44c-29 -59 -60 -85 -103 -85zM83 483h87v-483h-87v483z" />
    <glyph glyph-name="imacron.smcp" horiz-adv-x="252" 
d="M18 568v72h223v-72h-223zM83 483h87v-483h-87v483z" />
    <glyph glyph-name="iogonek.smcp" horiz-adv-x="255" 
d="M85 483h87v-479l1 -3c-1 0 -1 -1 -1 -1h-2c-75 -27 -112 -57 -112 -89c0 -26 18 -43 42 -43c17 0 35 2 58 15l22 -44c-32 -22 -57 -28 -85 -28c-64 0 -100 41 -100 101c0 48 31 83 90 111v460z" />
    <glyph glyph-name="jcircumflex.smcp" horiz-adv-x="253" 
d="M145 693l117 -109l-43 -50l-91 84l-85 -84l-44 49l115 110h31zM83 483h88v-439c0 -112 -31 -161 -167 -191l-20 65c80 19 99 48 99 124v441z" />
    <glyph glyph-name="uni0137.smcp" horiz-adv-x="493" 
d="M233 -312l-29 32c36 29 52 51 60 85h-4c-35 0 -63 28 -63 63s28 63 63 63c39 0 63 -36 63 -86c-1 -59 -34 -117 -90 -157zM466 0h-102l-146 210h-49v-210h-86v483h86v-204h44l147 204h99l-170 -235z" />
    <glyph glyph-name="kgreenlandic.smcp" horiz-adv-x="493" 
d="M466 0h-102l-146 210h-49v-210h-86v483h86v-204h44l147 204h99l-170 -235z" />
    <glyph glyph-name="lacute.smcp" horiz-adv-x="419" 
d="M385 69v-69h-302v483h87v-414h215zM57 532l-33 66l188 97l35 -73z" />
    <glyph glyph-name="uni013C.smcp" horiz-adv-x="419" 
d="M385 69v-69h-302v483h87v-414h215zM204 -312l-29 32c36 29 52 51 60 85h-4c-35 0 -63 28 -63 63s28 63 63 63c39 0 63 -36 63 -86c-1 -59 -34 -117 -90 -157z" />
    <glyph glyph-name="lcaron.smcp" horiz-adv-x="419" 
d="M385 69v-69h-302v483h87v-414h215zM117 535l-119 108l43 48l93 -83l86 80l43 -47l-115 -106h-31z" />
    <glyph glyph-name="ldot.smcp" horiz-adv-x="454" 
d="M385 69v-69h-302v483h87v-414h215zM280 275c0 36 29 63 63 63c35 0 63 -28 63 -63c0 -34 -28 -62 -63 -62s-63 27 -63 62z" />
    <glyph glyph-name="lslash.smcp" horiz-adv-x="436" 
d="M402 69v-69h-302v190l-69 -46v78l69 46v215h87v-156l85 57v-79l-85 -57v-179h215z" />
    <glyph glyph-name="nacute.smcp" horiz-adv-x="571" 
d="M225 531l-33 66l188 97l35 -73zM402 483h87v-483h-71l-248 342v-342h-87v483h71l248 -348v348z" />
    <glyph glyph-name="uni0146.smcp" horiz-adv-x="571" 
d="M273 -312l-29 32c36 29 52 51 60 85h-4c-35 0 -63 28 -63 63s28 63 63 63c39 0 63 -36 63 -86c-1 -59 -34 -117 -90 -157zM402 483h87v-483h-71l-248 342v-342h-87v483h71l248 -348v348z" />
    <glyph glyph-name="ncaron.smcp" horiz-adv-x="571" 
d="M275 535l-119 108l43 48l93 -83l86 80l43 -47l-115 -106h-31zM402 483h87v-483h-71l-248 342v-342h-87v483h71l248 -348v348z" />
    <glyph glyph-name="napostrophe.smcp" horiz-adv-x="679" 
d="M64 388l-29 32c36 28 52 51 59 85h-4c-34 0 -62 28 -62 63s28 63 62 63c39 0 63 -36 63 -86c0 -59 -34 -117 -89 -157zM509 483h87v-483h-71l-248 342v-342h-87v483h71l248 -348v348z" />
    <glyph glyph-name="omacron.smcp" horiz-adv-x="591" 
d="M305 57c86 0 139 83 139 182c0 106 -53 187 -144 187c-98 0 -153 -77 -153 -178c0 -109 57 -191 158 -191zM305 -12c-163 0 -253 107 -253 260c0 139 90 247 248 247c151 0 239 -111 239 -256c0 -143 -86 -251 -234 -251zM179 568v72h223v-72h-223z" />
    <glyph glyph-name="obreve.smcp" horiz-adv-x="591" 
d="M305 57c86 0 139 83 139 182c0 106 -53 187 -144 187c-98 0 -153 -77 -153 -178c0 -109 57 -191 158 -191zM305 -12c-163 0 -253 107 -253 260c0 139 90 247 248 247c151 0 239 -111 239 -256c0 -143 -86 -251 -234 -251zM141 686l59 16c7 -42 45 -90 92 -90
c48 0 85 44 98 90l54 -16c-16 -81 -68 -144 -153 -144c-87 0 -142 68 -150 144z" />
    <glyph glyph-name="ohungarumlaut.smcp" horiz-adv-x="591" 
d="M305 57c86 0 139 83 139 182c0 106 -53 187 -144 187c-98 0 -153 -77 -153 -178c0 -109 57 -191 158 -191zM305 -12c-163 0 -253 107 -253 260c0 139 90 247 248 247c151 0 239 -111 239 -256c0 -143 -86 -251 -234 -251zM238 527l-65 32l78 163l70 -36zM379 527l-64 32
l77 163l70 -36z" />
    <glyph glyph-name="racute.smcp" horiz-adv-x="483" 
d="M449 0h-99l-108 184h-8h-64v-184h-87v483h136c135 0 194 -60 194 -147c0 -59 -30 -108 -86 -134zM223 414h-53v-161h57c60 0 91 34 91 81c0 46 -22 80 -95 80zM159 532l-33 66l188 97l35 -73z" />
    <glyph glyph-name="uni0157.smcp" horiz-adv-x="483" 
d="M449 0h-99l-108 184h-8h-64v-184h-87v483h136c135 0 194 -60 194 -147c0 -59 -30 -108 -86 -134zM223 414h-53v-161h57c60 0 91 34 91 81c0 46 -22 80 -95 80zM231 -312l-29 32c36 29 52 51 60 85h-4c-35 0 -63 28 -63 63s28 63 63 63c39 0 63 -36 63 -86
c-1 -59 -34 -117 -90 -157z" />
    <glyph glyph-name="rcaron.smcp" horiz-adv-x="483" 
d="M449 0h-99l-108 184h-8h-64v-184h-87v483h136c135 0 194 -60 194 -147c0 -59 -30 -108 -86 -134zM223 414h-53v-161h57c60 0 91 34 91 81c0 46 -22 80 -95 80zM216 535l-119 108l43 48l93 -83l86 80l43 -47l-115 -106h-31z" />
    <glyph glyph-name="sacute.smcp" horiz-adv-x="435" 
d="M48 34l27 65c46 -24 96 -42 135 -42c47 0 79 18 79 62c0 101 -229 88 -229 248c0 49 33 128 161 128c54 0 92 -10 146 -34l-20 -66c-51 22 -88 31 -121 31c-64 0 -75 -36 -75 -56c0 -95 236 -89 236 -249c1 -91 -79 -132 -175 -132c-65 0 -110 19 -164 45zM147 532
l-33 66l188 97l35 -73z" />
    <glyph glyph-name="scircumflex.smcp" horiz-adv-x="435" 
d="M235 693l117 -109l-43 -50l-91 84l-85 -84l-44 49l115 110h31zM48 34l27 65c46 -24 96 -42 135 -42c47 0 79 18 79 62c0 101 -229 88 -229 248c0 49 33 128 161 128c54 0 92 -10 146 -34l-20 -66c-51 22 -88 31 -121 31c-64 0 -75 -36 -75 -56c0 -95 236 -89 236 -249
c1 -91 -79 -132 -175 -132c-65 0 -110 19 -164 45z" />
    <glyph glyph-name="scedilla.smcp" horiz-adv-x="435" 
d="M206 -312l-29 32c36 29 52 51 60 85h-4c-35 0 -63 28 -63 63s28 63 63 63c39 0 63 -36 63 -86c-1 -59 -34 -117 -90 -157zM48 34l27 65c46 -24 96 -42 135 -42c47 0 79 18 79 62c0 101 -229 88 -229 248c0 49 33 128 161 128c54 0 92 -10 146 -34l-20 -66
c-51 22 -88 31 -121 31c-64 0 -75 -36 -75 -56c0 -95 236 -89 236 -249c1 -91 -79 -132 -175 -132c-65 0 -110 19 -164 45z" />
    <glyph glyph-name="scaron.smcp" horiz-adv-x="435" 
d="M48 34l27 65c46 -24 96 -42 135 -42c47 0 79 18 79 62c0 101 -229 88 -229 248c0 49 33 128 161 128c54 0 92 -10 146 -34l-20 -66c-51 22 -88 31 -121 31c-64 0 -75 -36 -75 -56c0 -95 236 -89 236 -249c1 -91 -79 -132 -175 -132c-65 0 -110 19 -164 45zM215 535
l-119 108l43 48l93 -83l86 80l43 -47l-115 -106h-31z" />
    <glyph glyph-name="uni0163.smcp" horiz-adv-x="441" 
d="M408 483v-69h-143v-414h-87v414h-146v69h376zM194 -312l-29 32c36 29 52 51 60 85h-4c-35 0 -63 28 -63 63s28 63 63 63c39 0 63 -36 63 -86c-1 -59 -34 -117 -90 -157z" />
    <glyph glyph-name="tcaron.smcp" horiz-adv-x="441" 
d="M408 483v-69h-143v-414h-87v414h-146v69h376zM203 535l-119 108l43 48l93 -83l86 80l43 -47l-115 -106h-31z" />
    <glyph glyph-name="tbar.smcp" horiz-adv-x="451" 
d="M413 483v-69h-143v-119h102v-43h-102v-252h-87v252h-109v43h109v119h-146v69h376z" />
    <glyph glyph-name="utilde.smcp" horiz-adv-x="558" 
d="M78 483h87v-312c0 -63 22 -114 113 -114c93 0 115 51 115 114v312h87v-313c0 -94 -40 -182 -202 -182c-157 0 -200 87 -200 182v313zM346 553c-51 0 -69 44 -105 44c-18 0 -39 -10 -58 -47l-45 45c35 60 65 79 104 79c40 0 65 -45 102 -45c20 0 43 15 60 53l45 -44
c-29 -59 -60 -85 -103 -85z" />
    <glyph glyph-name="umacron.smcp" horiz-adv-x="558" 
d="M78 483h87v-312c0 -63 22 -114 113 -114c93 0 115 51 115 114v312h87v-313c0 -94 -40 -182 -202 -182c-157 0 -200 87 -200 182v313zM173 568v72h223v-72h-223z" />
    <glyph glyph-name="ubreve.smcp" horiz-adv-x="558" 
d="M78 483h87v-312c0 -63 22 -114 113 -114c93 0 115 51 115 114v312h87v-313c0 -94 -40 -182 -202 -182c-157 0 -200 87 -200 182v313zM136 686l59 16c7 -42 45 -90 92 -90c48 0 85 44 98 90l54 -16c-16 -81 -68 -144 -153 -144c-87 0 -142 68 -150 144z" />
    <glyph glyph-name="uring.smcp" horiz-adv-x="558" 
d="M191 632c0 51 37 90 94 90s94 -39 94 -90c0 -53 -37 -91 -94 -91s-94 38 -94 91zM285 584c23 0 41 12 41 47c0 37 -19 51 -41 51c-21 0 -40 -17 -40 -51c0 -36 19 -47 40 -47zM78 483h87v-312c0 -63 22 -114 113 -114c93 0 115 51 115 114v312h87v-313
c0 -94 -40 -182 -202 -182c-157 0 -200 87 -200 182v313z" />
    <glyph glyph-name="uhungarumlaut.smcp" horiz-adv-x="558" 
d="M223 529l-65 32l78 163l70 -36zM364 529l-64 32l77 163l70 -36zM78 483h87v-312c0 -63 22 -114 113 -114c93 0 115 51 115 114v312h87v-313c0 -94 -40 -182 -202 -182c-157 0 -200 87 -200 182v313z" />
    <glyph glyph-name="uogonek.smcp" horiz-adv-x="558" 
d="M371 -111l22 -44c-32 -22 -57 -28 -85 -28c-64 0 -100 41 -100 101c0 28 10 52 31 72c-126 13 -161 93 -161 180v313h87v-312c0 -63 22 -114 113 -114c93 0 115 51 115 114v312h87v-313c0 -74 -25 -144 -114 -170c-64 -26 -95 -54 -95 -83c0 -26 18 -43 42 -43
c17 0 35 2 58 15z" />
    <glyph glyph-name="wcircumflex.smcp" horiz-adv-x="802" 
d="M279 0h-88l-160 483h92l119 -377l127 377h63l130 -377l117 377h91l-159 -483h-88l-122 356zM409 693l117 -109l-43 -50l-91 84l-85 -84l-44 49l115 110h31z" />
    <glyph glyph-name="ycircumflex.smcp" horiz-adv-x="456" 
d="M243 693l117 -109l-43 -50l-91 84l-85 -84l-44 49l115 110h31zM272 197v-197h-87v199l-158 284h93l109 -202l106 202h92z" />
    <glyph glyph-name="zacute.smcp" horiz-adv-x="453" 
d="M304 414h-243v69h335v-69l-255 -345h261v-69h-355v69zM154 532l-33 66l188 97l35 -73z" />
    <glyph glyph-name="zdotaccent.smcp" horiz-adv-x="453" 
d="M171 627c0 35 28 63 63 63c34 0 62 -28 62 -63c0 -34 -28 -62 -62 -62c-36 0 -63 27 -63 62zM304 414h-243v69h335v-69l-255 -345h261v-69h-355v69z" />
    <glyph glyph-name="zcaron.smcp" horiz-adv-x="453" 
d="M304 414h-243v69h335v-69l-255 -345h261v-69h-355v69zM218 535l-119 108l43 48l93 -83l86 80l43 -47l-115 -106h-31z" />
    <glyph glyph-name="uni0219.smcp" horiz-adv-x="435" 
d="M200 -312l-29 32c36 29 52 51 60 85h-4c-35 0 -63 28 -63 63s28 63 63 63c39 0 63 -36 63 -86c-1 -59 -34 -117 -90 -157zM48 34l27 65c46 -24 96 -42 135 -42c47 0 79 18 79 62c0 101 -229 88 -229 248c0 49 33 128 161 128c54 0 92 -10 146 -34l-20 -66
c-51 22 -88 31 -121 31c-64 0 -75 -36 -75 -56c0 -95 236 -89 236 -249c1 -91 -79 -132 -175 -132c-65 0 -110 19 -164 45z" />
    <glyph glyph-name="uni021B.smcp" horiz-adv-x="441" 
d="M408 483v-69h-143v-414h-87v414h-146v69h376zM196 -312l-29 32c36 29 52 51 60 85h-4c-35 0 -63 28 -63 63s28 63 63 63c39 0 63 -36 63 -86c-1 -59 -34 -117 -90 -157z" />
    <glyph glyph-name="wgrave.smcp" horiz-adv-x="802" 
d="M279 0h-88l-160 483h92l119 -377l127 377h63l130 -377l117 377h91l-159 -483h-88l-122 356zM515 591l-34 -66l-190 90l36 73z" />
    <glyph glyph-name="wacute.smcp" horiz-adv-x="802" 
d="M279 0h-88l-160 483h92l119 -377l127 377h63l130 -377l117 377h91l-159 -483h-88l-122 356zM316 532l-33 66l188 97l35 -73z" />
    <glyph glyph-name="wdieresis.smcp" horiz-adv-x="802" 
d="M279 0h-88l-160 483h92l119 -377l127 377h63l130 -377l117 377h91l-159 -483h-88l-122 356zM245 615c0 34 28 62 63 62c34 0 62 -28 62 -62c0 -35 -28 -63 -62 -63c-35 0 -63 27 -63 63zM429 615c0 34 28 62 63 62c34 0 62 -28 62 -62c0 -35 -28 -63 -62 -63
c-35 0 -63 27 -63 63z" />
    <glyph glyph-name="eng" unicode="&#x14b;" horiz-adv-x="515" 
d="M163 0h-86v448l76 13v-57c42 40 92 65 153 65c72 0 135 -34 135 -139v-275c0 -144 -30 -204 -188 -243l-20 70c99 26 123 66 123 170v268c0 41 -21 76 -69 76c-43 0 -90 -24 -124 -62v-334z" />
    <glyph glyph-name="uni1E02" unicode="&#x1e02;" horiz-adv-x="561" 
d="M202 742c0 35 28 63 63 63s63 -28 63 -63s-28 -63 -63 -63s-63 28 -63 63zM92 616h189c131 0 181 -61 181 -147c0 -51 -18 -99 -51 -133c64 -31 97 -88 97 -159c0 -100 -75 -177 -210 -177h-206v616zM412 181c0 57 -31 103 -118 105h-7h-106v-210h115
c74 0 116 44 116 105zM282 540h-101v-178h103c58 0 82 43 82 94c0 46 -25 84 -84 84z" />
    <glyph glyph-name="uni1E03" unicode="&#x1e03;" horiz-adv-x="521" 
d="M218 742c0 35 28 63 63 63s63 -28 63 -63s-28 -63 -63 -63s-63 28 -63 63zM78 648l86 14v-247c36 34 80 54 130 54c117 0 176 -105 176 -232c0 -137 -64 -252 -193 -252c-46 0 -80 15 -115 44l-20 -29h-64v648zM274 397c-48 0 -81 -21 -110 -57v-243
c23 -24 54 -40 97 -40c84 0 119 85 119 181c0 87 -35 159 -106 159z" />
    <glyph glyph-name="uni1E0A" unicode="&#x1e0a;" horiz-adv-x="641" 
d="M231 742c0 35 28 63 63 63s63 -28 63 -63s-28 -63 -63 -63s-63 28 -63 63zM181 540v-464h77c125 0 230 67 230 224c0 168 -105 240 -230 240h-77zM92 0v616h171c183 0 322 -101 322 -316c0 -206 -139 -300 -322 -300h-171z" />
    <glyph glyph-name="uni1E0B" unicode="&#x1e0b;" horiz-adv-x="521" 
d="M183 742c0 35 28 63 63 63s63 -28 63 -63s-28 -63 -63 -63s-63 28 -63 63zM357 652l86 10v-662h-61l-12 56c-39 -45 -89 -71 -143 -71c-113 0 -176 106 -176 233c0 137 61 251 194 251c41 0 79 -15 112 -39v222zM247 57c49 0 80 22 110 59v244c-24 22 -56 37 -96 37
c-85 0 -119 -85 -119 -181c0 -87 34 -159 105 -159z" />
    <glyph glyph-name="Ygrave" unicode="&#x1ef2;" horiz-adv-x="521" 
d="M306 251v-251h-90v255l-189 361h97l138 -272l135 272h95zM368 735l-33 -66l-190 90l36 73z" />
    <glyph glyph-name="uni1E1E" unicode="&#x1e1e;" horiz-adv-x="488" 
d="M191 742c0 35 28 63 63 63s63 -28 63 -63s-28 -63 -63 -63s-63 28 -63 63zM448 616v-76h-267v-183h209v-76h-209v-281h-89v616h356z" />
    <glyph glyph-name="uni1E1F" unicode="&#x1e1f;" horiz-adv-x="311" 
d="M137 789c0 35 28 63 63 63s63 -28 63 -63s-28 -63 -63 -63s-63 28 -63 63zM42 378v55l59 14v23c0 115 38 194 200 194v-71c-94 0 -115 -47 -115 -119v-24h96v-72h-96v-378h-85v378h-59z" />
    <glyph glyph-name="uni1E40" unicode="&#x1e40;" horiz-adv-x="789" 
d="M330 628c0 35 28 63 63 63s63 -28 63 -63s-28 -63 -63 -63s-63 28 -63 63zM594 616h96l15 -616h-89l-11 441l-178 -441h-65l-179 440l-10 -440h-89l15 616h100l197 -498z" />
    <glyph glyph-name="uni1E41" unicode="&#x1e41;" horiz-adv-x="795" 
d="M721 0h-86v320c0 55 -32 77 -69 77c-45 0 -90 -25 -124 -63v-4v-330h-86v320c0 55 -31 77 -68 77c-45 0 -91 -25 -125 -63v-334h-86v450l63 12l14 -58c41 39 92 65 152 65c53 0 101 -18 123 -69c43 42 94 69 156 69c73 0 136 -34 136 -139v-330zM335 611
c0 34 28 62 62 62c35 0 63 -28 63 -62c0 -35 -28 -63 -63 -63c-34 0 -62 28 -62 63z" />
    <glyph glyph-name="uni1E56" unicode="&#x1e56;" horiz-adv-x="515" 
d="M92 616h144c169 0 236 -78 236 -190c0 -111 -75 -195 -210 -195h-81v-231h-89v616zM239 540h-58v-234h75c78 0 120 50 120 117s-36 117 -137 117zM195 742c0 35 28 63 63 63s63 -28 63 -63s-28 -63 -63 -63s-63 28 -63 63z" />
    <glyph glyph-name="uni1E57" unicode="&#x1e57;" horiz-adv-x="521" 
d="M164 -189h-86v641l62 5l14 -54c38 42 88 67 141 67c112 0 175 -106 175 -233c0 -136 -61 -252 -194 -252c-41 0 -80 15 -112 39v-213zM274 397c-50 0 -81 -22 -110 -59v-243c23 -23 56 -37 97 -37c84 0 119 86 119 182c0 87 -35 157 -106 157zM189 611c0 34 28 62 62 62
c35 0 63 -28 63 -62c0 -35 -28 -63 -63 -63c-34 0 -62 28 -62 63z" />
    <glyph glyph-name="uni1E60" unicode="&#x1e60;" horiz-adv-x="497" 
d="M215 742c0 35 28 63 63 63s63 -28 63 -63s-28 -63 -63 -63s-63 28 -63 63zM48 44l28 71c53 -31 114 -54 165 -54c61 0 107 26 107 90c0 137 -284 134 -284 321c0 60 40 159 193 159c64 0 109 -13 170 -43l-22 -73c-57 29 -102 40 -144 40c-86 0 -103 -51 -103 -81
c0 -128 290 -132 290 -321c0 -115 -94 -167 -208 -167c-74 0 -129 24 -192 58z" />
    <glyph glyph-name="ygrave" unicode="&#x1ef3;" horiz-adv-x="482" 
d="M29 455h88l124 -344l127 344h86l-147 -397c-48 -122 -75 -247 -259 -247v71c93 0 119 53 148 118h-2zM335 572l-45 -58l-165 133l47 63z" />
    <glyph glyph-name="uni1E61" unicode="&#x1e61;" horiz-adv-x="428" 
d="M363 439l-14 -67c-48 22 -88 29 -117 29c-35 0 -73 -10 -73 -49c0 -69 225 -104 225 -237c0 -82 -74 -130 -173 -130c-66 0 -116 21 -173 54l25 69c49 -34 91 -51 141 -51c45 0 85 21 85 54c0 80 -224 103 -224 237c0 90 73 121 149 121c57 0 95 -10 149 -30zM154 611
c0 34 28 62 62 62c35 0 63 -28 63 -62c0 -35 -28 -63 -63 -63c-34 0 -62 28 -62 63z" />
    <glyph glyph-name="uni1E6A" unicode="&#x1e6a;" horiz-adv-x="511" 
d="M191 741c0 35 28 63 63 63s63 -28 63 -63s-28 -63 -63 -63s-63 28 -63 63zM480 616v-76h-179v-540h-89v540h-182v76h450z" />
    <glyph glyph-name="uni1E6B" unicode="&#x1e6b;" horiz-adv-x="333" 
d="M88 742c0 35 28 63 63 63s63 -28 63 -63s-28 -63 -63 -63s-63 28 -63 63zM40 383v62l61 9l16 138h69v-137h94v-72h-94v-247c0 -50 16 -79 52 -79c19 0 33 5 60 19v-66c-33 -21 -65 -25 -88 -25c-75 0 -110 56 -110 131v267h-60z" />
    <glyph glyph-name="uni1E03.smcp" horiz-adv-x="490" 
d="M162 627c0 35 28 63 63 63c34 0 62 -28 62 -63c0 -34 -28 -62 -62 -62c-36 0 -63 27 -63 62zM83 483h164c112 0 154 -49 154 -118c0 -38 -14 -74 -39 -101c50 -25 78 -71 78 -125c0 -79 -64 -139 -179 -139h-178v483zM345 144c0 41 -24 74 -89 75h-86v-150h88
c56 0 87 31 87 75zM246 414h-76v-126h81c38 0 55 30 55 63c0 35 -18 63 -60 63z" />
    <glyph glyph-name="uni1E0B.smcp" horiz-adv-x="554" 
d="M178 627c0 35 28 63 63 63c34 0 62 -28 62 -63c0 -34 -28 -62 -62 -62c-36 0 -63 27 -63 62zM170 414v-345h54c99 0 182 50 182 166c0 126 -83 179 -182 179h-54zM83 0v483h146c155 0 272 -79 272 -248c0 -161 -117 -235 -272 -235h-146z" />
    <glyph glyph-name="uni1E1F.smcp" horiz-adv-x="425" 
d="M167 627c0 35 28 63 63 63c34 0 62 -28 62 -63c0 -34 -28 -62 -62 -62c-36 0 -63 27 -63 62zM384 483v-69h-214v-130h168v-69h-168v-215h-87v483h301z" />
    <glyph glyph-name="uni1E41.smcp" horiz-adv-x="686" 
d="M286 516c0 35 28 63 63 63c34 0 62 -28 62 -63c0 -34 -28 -62 -62 -62c-36 0 -63 27 -63 62zM504 483h90l16 -483h-87l-11 337l-145 -337h-49l-145 335l-10 -335h-87l16 483h94l158 -373z" />
    <glyph glyph-name="uni1E57.smcp" horiz-adv-x="453" 
d="M164 627c0 35 28 63 63 63c34 0 62 -28 62 -63c0 -34 -28 -62 -62 -62c-36 0 -63 27 -63 62zM83 483h127c142 0 202 -62 202 -152c0 -87 -64 -155 -180 -155h-62v-176h-87v483zM214 414h-44v-169h56c59 0 91 36 91 84c0 50 -27 85 -103 85z" />
    <glyph glyph-name="ygrave.smcp" horiz-adv-x="456" 
d="M313 591l-34 -66l-190 90l36 73zM272 197v-197h-87v199l-158 284h93l109 -202l106 202h92z" />
    <glyph glyph-name="uni1E61.smcp" horiz-adv-x="435" 
d="M161 627c0 35 28 63 63 63c34 0 62 -28 62 -63c0 -34 -28 -62 -62 -62c-36 0 -63 27 -63 62zM48 34l27 65c46 -24 96 -42 135 -42c47 0 79 18 79 62c0 101 -229 88 -229 248c0 49 33 128 161 128c54 0 92 -10 146 -34l-20 -66c-51 22 -88 31 -121 31
c-64 0 -75 -36 -75 -56c0 -95 236 -89 236 -249c1 -91 -79 -132 -175 -132c-65 0 -110 19 -164 45z" />
    <glyph glyph-name="uni1E6B.smcp" horiz-adv-x="441" 
d="M161 627c0 35 28 63 63 63c34 0 62 -28 62 -63c0 -34 -28 -62 -62 -62c-36 0 -63 27 -63 62zM408 483v-69h-143v-414h-87v414h-146v69h376z" />
    <glyph glyph-name="Eng" unicode="&#x14a;" horiz-adv-x="658" 
d="M478 616h89v-561c0 -144 -34 -204 -192 -243l-20 72c82 22 112 51 120 119l-294 449v-452h-89v616h89l297 -458v458z" />
    <glyph glyph-name="eng.smcp" horiz-adv-x="571" 
d="M403 482h85v-432c0 -119 -29 -168 -167 -200l-21 69c68 17 92 39 99 90l-230 320v-329h-86v482h83l237 -335v335z" />
    <glyph glyph-name="uni0418" unicode="&#x418;" horiz-adv-x="658" 
d="M92 616h89v-457l297 457h89v-616h-89v460l-297 -460h-89v616z" />
    <glyph glyph-name="onesuperior" unicode="&#xb9;" horiz-adv-x="275" 
d="M64 508l-36 45l83 66l1 -1v1h75v-257h58v-57h-188v57h55v183z" />
    <glyph glyph-name="threesuperior" unicode="&#xb3;" horiz-adv-x="308" 
d="M73 554l-31 41c21 18 47 32 97 32c97 0 116 -52 116 -84c0 -24 -13 -53 -40 -74c34 -20 55 -48 55 -76c1 -35 -22 -96 -127 -96c-51 0 -82 13 -114 36l31 45c23 -15 42 -23 81 -23c43 0 52 25 52 42c0 21 -25 42 -79 42h-8v57h8h6c43 2 57 24 57 40c0 13 -7 34 -45 34
c-27 0 -47 -7 -59 -16z" />
    <glyph glyph-name="twosuperior" unicode="&#xb2;" horiz-adv-x="312" 
d="M67 541l-32 43c28 26 61 43 113 43c94 0 123 -55 122 -88c-1 -92 -113 -105 -141 -177h142v-57h-231v17c0 128 147 155 147 212c0 13 -6 35 -47 35c-23 0 -50 -9 -73 -28z" />
    <glyph glyph-name="onehalf" unicode="&#xbd;" horiz-adv-x="741" 
d="M159 8l372 626l58 -35l-373 -627zM487 236l-32 43c28 26 61 43 113 43c94 0 123 -55 122 -88c-1 -92 -113 -105 -141 -177h142v-57h-231v17c0 128 147 155 147 212c0 13 -6 35 -47 35c-23 0 -50 -9 -73 -28zM74 508l-36 45l83 66l1 -1v1h75v-257h58v-57h-188v57h55v183z
" />
    <glyph glyph-name="onequarter" unicode="&#xbc;" horiz-adv-x="698" 
d="M157 8l372 626l59 -35l-374 -627zM541 314h76v-197h38v-57h-38v-60h-76v60h-146v57zM470 117h71v94zM74 508l-36 45l83 66l1 -1v1h75v-257h58v-57h-188v57h55v183z" />
    <glyph glyph-name="threequarters" unicode="&#xbe;" horiz-adv-x="685" 
d="M145 8l371 626l59 -35l-374 -627zM84 554l-31 41c21 18 47 32 97 32c97 0 116 -52 116 -84c0 -24 -13 -53 -40 -74c34 -20 55 -48 55 -76c1 -35 -22 -96 -127 -96c-51 0 -82 13 -114 36l31 45c23 -15 42 -23 81 -23c43 0 52 25 52 42c0 21 -25 42 -79 42h-8v57h8h6
c43 2 57 24 57 40c0 13 -7 34 -45 34c-27 0 -47 -7 -59 -16zM527 314h76v-197h38v-57h-38v-60h-76v60h-146v57zM456 117h71v94z" />
    <glyph glyph-name="Lgeminada" horiz-adv-x="944" 
d="M303 337c0 35 28 63 63 63s63 -28 63 -63c0 -34 -28 -62 -63 -62c-36 0 -63 29 -63 62zM449 76v-76h-357v616h89v-540h268zM914 76v-76h-357v616h89v-540h268z" />
    <glyph glyph-name="exclamdown.case" horiz-adv-x="296" 
d="M193 1h-90l7 421h75zM90 572c0 33 26 58 58 58c33 0 60 -25 60 -58s-27 -59 -60 -59c-32 0 -58 25 -58 59z" />
    <glyph glyph-name="lgeminada" horiz-adv-x="551" 
d="M214 353c0 35 29 63 63 63c35 0 63 -28 63 -63s-28 -63 -63 -63c-36 0 -63 30 -63 63zM80 648l86 14v-662h-86v648zM386 648l86 14v-662h-86v648z" />
    <glyph glyph-name="lgeminada.smcp" horiz-adv-x="836" 
d="M279 279c0 35 28 63 63 63s63 -28 63 -63c0 -34 -28 -62 -63 -62c-36 0 -63 30 -63 62zM385 69v-69h-302v483h87v-414h215zM802 69v-69h-302v483h87v-414h215z" />
    <glyph glyph-name="questiondown.case" horiz-adv-x="420" 
d="M341 124l47 -45c-45 -55 -106 -94 -177 -94c-96 0 -174 60 -174 154c0 151 169 131 161 331h76c9 -212 -151 -225 -151 -322c0 -45 32 -90 95 -90c47 0 89 25 123 66zM295 573c0 -31 -26 -57 -58 -57c-33 0 -58 25 -58 57s26 58 58 58s58 -26 58 -58z" />
    <glyph glyph-name="dslash" horiz-adv-x="521" 
d="M221 518v55h263v-55h-263zM357 652l86 10v-662h-61l-12 56c-39 -45 -89 -71 -143 -71c-113 0 -176 106 -176 233c0 137 61 251 194 251c41 0 79 -15 112 -39v222zM247 57c49 0 80 22 110 59v244c-24 22 -56 37 -96 37c-85 0 -119 -85 -119 -181c0 -87 34 -159 105 -159z
" />
    <glyph glyph-name="middot" horiz-adv-x="134" 
d="M6 263c0 35 29 63 63 63c35 0 63 -28 63 -63c0 -34 -28 -62 -63 -62c-36 0 -63 29 -63 62z" />
    <glyph glyph-name="Idot" horiz-adv-x="425" 
d="M89 648l86 14v-662h-86v648zM274 284c0 36 29 63 63 63c35 0 63 -28 63 -63c0 -34 -28 -62 -63 -62s-63 27 -63 62z" />
    </font>
</defs>
</svg>
